%TF.GenerationSoftware,KiCad,Pcbnew,9.0.0*%
%TF.CreationDate,2025-03-22T23:29:01+01:00*%
%TF.ProjectId,Leiterkarte-v2,4c656974-6572-46b6-9172-74652d76322e,rev?*%
%TF.SameCoordinates,Original*%
%TF.FileFunction,Legend,Bot*%
%TF.FilePolarity,Positive*%
%FSLAX46Y46*%
G04 Gerber Fmt 4.6, Leading zero omitted, Abs format (unit mm)*
G04 Created by KiCad (PCBNEW 9.0.0) date 2025-03-22 23:29:01*
%MOMM*%
%LPD*%
G01*
G04 APERTURE LIST*
G04 Aperture macros list*
%AMRoundRect*
0 Rectangle with rounded corners*
0 $1 Rounding radius*
0 $2 $3 $4 $5 $6 $7 $8 $9 X,Y pos of 4 corners*
0 Add a 4 corners polygon primitive as box body*
4,1,4,$2,$3,$4,$5,$6,$7,$8,$9,$2,$3,0*
0 Add four circle primitives for the rounded corners*
1,1,$1+$1,$2,$3*
1,1,$1+$1,$4,$5*
1,1,$1+$1,$6,$7*
1,1,$1+$1,$8,$9*
0 Add four rect primitives between the rounded corners*
20,1,$1+$1,$2,$3,$4,$5,0*
20,1,$1+$1,$4,$5,$6,$7,0*
20,1,$1+$1,$6,$7,$8,$9,0*
20,1,$1+$1,$8,$9,$2,$3,0*%
G04 Aperture macros list end*
%ADD10RoundRect,0.250000X0.725000X-0.600000X0.725000X0.600000X-0.725000X0.600000X-0.725000X-0.600000X0*%
%ADD11O,1.950000X1.700000*%
%ADD12RoundRect,0.250000X-0.600000X-0.725000X0.600000X-0.725000X0.600000X0.725000X-0.600000X0.725000X0*%
%ADD13O,1.700000X1.950000*%
%ADD14R,1.700000X1.700000*%
%ADD15O,1.700000X1.700000*%
%ADD16RoundRect,0.250000X0.750000X-0.600000X0.750000X0.600000X-0.750000X0.600000X-0.750000X-0.600000X0*%
%ADD17O,2.000000X1.700000*%
%ADD18C,6.400000*%
%ADD19C,0.650000*%
%ADD20O,1.000000X2.100000*%
%ADD21O,1.000000X1.800000*%
%ADD22C,1.000000*%
G04 APERTURE END LIST*
%LPC*%
D10*
%TO.C,TEMP402*%
X170050000Y-64750000D03*
D11*
X170050000Y-62250000D03*
X170050000Y-59750000D03*
%TD*%
D12*
%TO.C,SPI603*%
X135000000Y-105000000D03*
D13*
X137500000Y-105000000D03*
X140000000Y-105000000D03*
X142500000Y-105000000D03*
X145000000Y-105000000D03*
X147500000Y-105000000D03*
X150000000Y-105000000D03*
X152500000Y-105000000D03*
%TD*%
D14*
%TO.C,Buttons601*%
X177790000Y-98000000D03*
D15*
X175250000Y-98000000D03*
X172710000Y-98000000D03*
X170170000Y-98000000D03*
X167630000Y-98000000D03*
X165090000Y-98000000D03*
%TD*%
D14*
%TO.C,RPM401*%
X177750000Y-102000000D03*
%TD*%
D12*
%TO.C,SPI602*%
X111500000Y-105000000D03*
D13*
X114000000Y-105000000D03*
X116500000Y-105000000D03*
X119000000Y-105000000D03*
X121500000Y-105000000D03*
X124000000Y-105000000D03*
X126500000Y-105000000D03*
X129000000Y-105000000D03*
%TD*%
D16*
%TO.C,Speed501*%
X170000000Y-111500000D03*
D17*
X170000000Y-109000000D03*
%TD*%
D16*
%TO.C,Fan601*%
X170050000Y-53750000D03*
D17*
X170050000Y-51250000D03*
%TD*%
D18*
%TO.C,Vcc301*%
X85500000Y-87000000D03*
%TD*%
%TO.C,GND301*%
X117000000Y-87000000D03*
%TD*%
D19*
%TO.C,USBC601*%
X103390000Y-51675000D03*
X97610000Y-51675000D03*
D20*
X104820000Y-52175000D03*
X96180000Y-52175000D03*
D21*
X104820000Y-47995000D03*
X96180000Y-47995000D03*
%TD*%
D16*
%TO.C,Indics401*%
X170050000Y-73250000D03*
D17*
X170050000Y-70750000D03*
%TD*%
D10*
%TO.C,gauges401*%
X170050000Y-84250000D03*
D11*
X170050000Y-81750000D03*
X170050000Y-79250000D03*
%TD*%
D22*
%TO.C,SD601*%
X129450000Y-49250000D03*
X121450000Y-49250000D03*
%TD*%
D12*
%TO.C,SPI601*%
X88000000Y-105000000D03*
D13*
X90500000Y-105000000D03*
X93000000Y-105000000D03*
X95500000Y-105000000D03*
X98000000Y-105000000D03*
X100500000Y-105000000D03*
X103000000Y-105000000D03*
X105500000Y-105000000D03*
%TD*%
%LPD*%
M02*
