%TF.GenerationSoftware,KiCad,Pcbnew,8.0.5*%
%TF.CreationDate,2024-10-16T11:49:29+02:00*%
%TF.ProjectId,Leiterkarte-v2,4c656974-6572-46b6-9172-74652d76322e,rev?*%
%TF.SameCoordinates,Original*%
%TF.FileFunction,Soldermask,Top*%
%TF.FilePolarity,Negative*%
%FSLAX46Y46*%
G04 Gerber Fmt 4.6, Leading zero omitted, Abs format (unit mm)*
G04 Created by KiCad (PCBNEW 8.0.5) date 2024-10-16 11:49:29*
%MOMM*%
%LPD*%
G01*
G04 APERTURE LIST*
G04 Aperture macros list*
%AMRoundRect*
0 Rectangle with rounded corners*
0 $1 Rounding radius*
0 $2 $3 $4 $5 $6 $7 $8 $9 X,Y pos of 4 corners*
0 Add a 4 corners polygon primitive as box body*
4,1,4,$2,$3,$4,$5,$6,$7,$8,$9,$2,$3,0*
0 Add four circle primitives for the rounded corners*
1,1,$1+$1,$2,$3*
1,1,$1+$1,$4,$5*
1,1,$1+$1,$6,$7*
1,1,$1+$1,$8,$9*
0 Add four rect primitives between the rounded corners*
20,1,$1+$1,$2,$3,$4,$5,0*
20,1,$1+$1,$4,$5,$6,$7,0*
20,1,$1+$1,$6,$7,$8,$9,0*
20,1,$1+$1,$8,$9,$2,$3,0*%
G04 Aperture macros list end*
%ADD10C,0.010000*%
%ADD11RoundRect,0.200000X-0.200000X-0.275000X0.200000X-0.275000X0.200000X0.275000X-0.200000X0.275000X0*%
%ADD12RoundRect,0.200000X0.200000X0.275000X-0.200000X0.275000X-0.200000X-0.275000X0.200000X-0.275000X0*%
%ADD13R,0.900000X1.500000*%
%ADD14R,1.500000X0.900000*%
%ADD15C,0.600000*%
%ADD16R,3.900000X3.900000*%
%ADD17RoundRect,0.250000X-0.625000X0.375000X-0.625000X-0.375000X0.625000X-0.375000X0.625000X0.375000X0*%
%ADD18RoundRect,0.250000X0.475000X-0.250000X0.475000X0.250000X-0.475000X0.250000X-0.475000X-0.250000X0*%
%ADD19RoundRect,0.150000X-0.625000X0.150000X-0.625000X-0.150000X0.625000X-0.150000X0.625000X0.150000X0*%
%ADD20RoundRect,0.250000X-0.650000X0.350000X-0.650000X-0.350000X0.650000X-0.350000X0.650000X0.350000X0*%
%ADD21C,1.000000*%
%ADD22RoundRect,0.102000X0.350000X0.800000X-0.350000X0.800000X-0.350000X-0.800000X0.350000X-0.800000X0*%
%ADD23RoundRect,0.102000X0.600000X1.200000X-0.600000X1.200000X-0.600000X-1.200000X0.600000X-1.200000X0*%
%ADD24RoundRect,0.102000X0.800000X0.750000X-0.800000X0.750000X-0.800000X-0.750000X0.800000X-0.750000X0*%
%ADD25RoundRect,0.102000X0.600000X1.100000X-0.600000X1.100000X-0.600000X-1.100000X0.600000X-1.100000X0*%
%ADD26RoundRect,0.200000X-0.275000X0.200000X-0.275000X-0.200000X0.275000X-0.200000X0.275000X0.200000X0*%
%ADD27RoundRect,0.250000X-0.475000X0.250000X-0.475000X-0.250000X0.475000X-0.250000X0.475000X0.250000X0*%
%ADD28RoundRect,0.250000X0.262500X0.450000X-0.262500X0.450000X-0.262500X-0.450000X0.262500X-0.450000X0*%
%ADD29RoundRect,0.150000X-0.150000X0.587500X-0.150000X-0.587500X0.150000X-0.587500X0.150000X0.587500X0*%
%ADD30R,1.100000X1.800000*%
%ADD31R,1.700000X1.700000*%
%ADD32O,1.700000X1.700000*%
%ADD33C,0.650000*%
%ADD34O,1.204000X2.304000*%
%ADD35O,1.204000X2.004000*%
%ADD36RoundRect,0.150000X-0.150000X-0.625000X0.150000X-0.625000X0.150000X0.625000X-0.150000X0.625000X0*%
%ADD37RoundRect,0.250000X-0.350000X-0.650000X0.350000X-0.650000X0.350000X0.650000X-0.350000X0.650000X0*%
%ADD38C,6.400000*%
%ADD39RoundRect,0.250000X-0.250000X-0.475000X0.250000X-0.475000X0.250000X0.475000X-0.250000X0.475000X0*%
%ADD40RoundRect,0.060500X-0.181500X0.776500X-0.181500X-0.776500X0.181500X-0.776500X0.181500X0.776500X0*%
%ADD41RoundRect,0.150000X0.150000X0.625000X-0.150000X0.625000X-0.150000X-0.625000X0.150000X-0.625000X0*%
%ADD42RoundRect,0.250000X0.350000X0.650000X-0.350000X0.650000X-0.350000X-0.650000X0.350000X-0.650000X0*%
%ADD43RoundRect,0.250000X-1.500000X-0.550000X1.500000X-0.550000X1.500000X0.550000X-1.500000X0.550000X0*%
%ADD44RoundRect,0.150000X-0.587500X-0.150000X0.587500X-0.150000X0.587500X0.150000X-0.587500X0.150000X0*%
G04 APERTURE END LIST*
D10*
%TO.C,USBC1*%
X102350000Y-56580000D02*
X101650000Y-56580000D01*
X101650000Y-55330000D01*
X102350000Y-55330000D01*
X102350000Y-56580000D01*
G36*
X102350000Y-56580000D02*
G01*
X101650000Y-56580000D01*
X101650000Y-55330000D01*
X102350000Y-55330000D01*
X102350000Y-56580000D01*
G37*
X103150000Y-56580000D02*
X102450000Y-56580000D01*
X102450000Y-55330000D01*
X103150000Y-55330000D01*
X103150000Y-56580000D01*
G36*
X103150000Y-56580000D02*
G01*
X102450000Y-56580000D01*
X102450000Y-55330000D01*
X103150000Y-55330000D01*
X103150000Y-56580000D01*
G37*
X103650000Y-56580000D02*
X103250000Y-56580000D01*
X103250000Y-55330000D01*
X103650000Y-55330000D01*
X103650000Y-56580000D01*
G36*
X103650000Y-56580000D02*
G01*
X103250000Y-56580000D01*
X103250000Y-55330000D01*
X103650000Y-55330000D01*
X103650000Y-56580000D01*
G37*
X104150000Y-56580000D02*
X103750000Y-56580000D01*
X103750000Y-55330000D01*
X104150000Y-55330000D01*
X104150000Y-56580000D01*
G36*
X104150000Y-56580000D02*
G01*
X103750000Y-56580000D01*
X103750000Y-55330000D01*
X104150000Y-55330000D01*
X104150000Y-56580000D01*
G37*
X104650000Y-56580000D02*
X104250000Y-56580000D01*
X104250000Y-55330000D01*
X104650000Y-55330000D01*
X104650000Y-56580000D01*
G36*
X104650000Y-56580000D02*
G01*
X104250000Y-56580000D01*
X104250000Y-55330000D01*
X104650000Y-55330000D01*
X104650000Y-56580000D01*
G37*
X105150000Y-56580000D02*
X104750000Y-56580000D01*
X104750000Y-55330000D01*
X105150000Y-55330000D01*
X105150000Y-56580000D01*
G36*
X105150000Y-56580000D02*
G01*
X104750000Y-56580000D01*
X104750000Y-55330000D01*
X105150000Y-55330000D01*
X105150000Y-56580000D01*
G37*
X105650000Y-56580000D02*
X105250000Y-56580000D01*
X105250000Y-55330000D01*
X105650000Y-55330000D01*
X105650000Y-56580000D01*
G36*
X105650000Y-56580000D02*
G01*
X105250000Y-56580000D01*
X105250000Y-55330000D01*
X105650000Y-55330000D01*
X105650000Y-56580000D01*
G37*
X106150000Y-56580000D02*
X105750000Y-56580000D01*
X105750000Y-55330000D01*
X106150000Y-55330000D01*
X106150000Y-56580000D01*
G36*
X106150000Y-56580000D02*
G01*
X105750000Y-56580000D01*
X105750000Y-55330000D01*
X106150000Y-55330000D01*
X106150000Y-56580000D01*
G37*
X106650000Y-56580000D02*
X106250000Y-56580000D01*
X106250000Y-55330000D01*
X106650000Y-55330000D01*
X106650000Y-56580000D01*
G36*
X106650000Y-56580000D02*
G01*
X106250000Y-56580000D01*
X106250000Y-55330000D01*
X106650000Y-55330000D01*
X106650000Y-56580000D01*
G37*
X107150000Y-56580000D02*
X106750000Y-56580000D01*
X106750000Y-55330000D01*
X107150000Y-55330000D01*
X107150000Y-56580000D01*
G36*
X107150000Y-56580000D02*
G01*
X106750000Y-56580000D01*
X106750000Y-55330000D01*
X107150000Y-55330000D01*
X107150000Y-56580000D01*
G37*
X107950000Y-56580000D02*
X107250000Y-56580000D01*
X107250000Y-55330000D01*
X107950000Y-55330000D01*
X107950000Y-56580000D01*
G36*
X107950000Y-56580000D02*
G01*
X107250000Y-56580000D01*
X107250000Y-55330000D01*
X107950000Y-55330000D01*
X107950000Y-56580000D01*
G37*
X108750000Y-56580000D02*
X108050000Y-56580000D01*
X108050000Y-55330000D01*
X108750000Y-55330000D01*
X108750000Y-56580000D01*
G36*
X108750000Y-56580000D02*
G01*
X108050000Y-56580000D01*
X108050000Y-55330000D01*
X108750000Y-55330000D01*
X108750000Y-56580000D01*
G37*
%TD*%
D11*
%TO.C,Rbtn3*%
X146825000Y-115150000D03*
X148475000Y-115150000D03*
%TD*%
D12*
%TO.C,Rbtn2*%
X148475000Y-112600000D03*
X146825000Y-112600000D03*
%TD*%
%TO.C,Rbtn1*%
X148450000Y-110050000D03*
X146800000Y-110050000D03*
%TD*%
D13*
%TO.C,ESP1*%
X118060000Y-68050000D03*
X116790000Y-68050000D03*
X115520000Y-68050000D03*
X114250000Y-68050000D03*
X112980000Y-68050000D03*
X111710000Y-68050000D03*
X110440000Y-68050000D03*
X109170000Y-68050000D03*
X107900000Y-68050000D03*
X106630000Y-68050000D03*
X105360000Y-68050000D03*
X104090000Y-68050000D03*
X102820000Y-68050000D03*
X101550000Y-68050000D03*
D14*
X100300000Y-69815000D03*
X100300000Y-71085000D03*
X100300000Y-72355000D03*
X100300000Y-73625000D03*
X100300000Y-74895000D03*
X100300000Y-76165000D03*
X100300000Y-77435000D03*
X100300000Y-78705000D03*
X100300000Y-79975000D03*
X100300000Y-81245000D03*
X100300000Y-82515000D03*
X100300000Y-83785000D03*
D13*
X101550000Y-85550000D03*
X102820000Y-85550000D03*
X104090000Y-85550000D03*
X105360000Y-85550000D03*
X106630000Y-85550000D03*
X107900000Y-85550000D03*
X109170000Y-85550000D03*
X110440000Y-85550000D03*
X111710000Y-85550000D03*
X112980000Y-85550000D03*
X114250000Y-85550000D03*
X115520000Y-85550000D03*
X116790000Y-85550000D03*
X118060000Y-85550000D03*
D15*
X111040000Y-73900000D03*
X109640000Y-73900000D03*
X111740000Y-74600000D03*
X110340000Y-74600000D03*
X108940000Y-74600000D03*
X111040000Y-75300000D03*
D16*
X110340000Y-75300000D03*
D15*
X109640000Y-75300000D03*
X111740000Y-76000000D03*
X110340000Y-76000000D03*
X108940000Y-76000000D03*
X111040000Y-76700000D03*
X109640000Y-76700000D03*
%TD*%
D17*
%TO.C,F1*%
X93600000Y-96846800D03*
X93600000Y-99646800D03*
%TD*%
D18*
%TO.C,Cmax1*%
X141250000Y-95600000D03*
X141250000Y-93700000D03*
%TD*%
D19*
%TO.C,TEMP_S2*%
X138875000Y-68000000D03*
X138875000Y-69000000D03*
X138875000Y-70000000D03*
D20*
X141400000Y-66700000D03*
X141400000Y-71300000D03*
%TD*%
D12*
%TO.C,Rrind1*%
X146275000Y-82550000D03*
X144625000Y-82550000D03*
%TD*%
%TO.C,Rlind2*%
X142575000Y-80950000D03*
X140925000Y-80950000D03*
%TD*%
D21*
%TO.C,SD1*%
X124000000Y-52762500D03*
X116000000Y-52762500D03*
D22*
X116800000Y-63762500D03*
X117900000Y-63762500D03*
X119000000Y-63762500D03*
X120100000Y-63762500D03*
X121200000Y-63762500D03*
X122300000Y-63762500D03*
X123400000Y-63762500D03*
X124500000Y-63762500D03*
X125600000Y-63762500D03*
D23*
X126800000Y-62762500D03*
D24*
X112200000Y-62712500D03*
D25*
X126800000Y-53162500D03*
X111300000Y-53162500D03*
%TD*%
D11*
%TO.C,Rspd1*%
X135325000Y-100450000D03*
X136975000Y-100450000D03*
%TD*%
D26*
%TO.C,Rusb1*%
X106450000Y-58150000D03*
X106450000Y-59800000D03*
%TD*%
D11*
%TO.C,Rrpm1*%
X146675000Y-98600000D03*
X148325000Y-98600000D03*
%TD*%
D27*
%TO.C,Cesp2*%
X122650000Y-74900000D03*
X122650000Y-76800000D03*
%TD*%
D26*
%TO.C,Rusb2*%
X103450000Y-58125000D03*
X103450000Y-59775000D03*
%TD*%
D27*
%TO.C,Cesp1*%
X124750000Y-74900000D03*
X124750000Y-76800000D03*
%TD*%
D12*
%TO.C,Rboot1*%
X96525000Y-78400000D03*
X94875000Y-78400000D03*
%TD*%
D11*
%TO.C,Roil1*%
X144975000Y-88200000D03*
X146625000Y-88200000D03*
%TD*%
D28*
%TO.C,R1*%
X146762500Y-95650000D03*
X144937500Y-95650000D03*
%TD*%
D29*
%TO.C,Qfan1*%
X141712500Y-57062500D03*
X139812500Y-57062500D03*
X140762500Y-58937500D03*
%TD*%
D30*
%TO.C,ESP_RST1*%
X93550000Y-67500000D03*
X97150000Y-67500000D03*
%TD*%
D12*
%TO.C,Rrpm2*%
X148325000Y-100350000D03*
X146675000Y-100350000D03*
%TD*%
%TO.C,Rrind2*%
X142575000Y-82550000D03*
X140925000Y-82550000D03*
%TD*%
D31*
%TO.C,Buttons1*%
X151100000Y-103400000D03*
D32*
X151100000Y-105940000D03*
X151100000Y-108480000D03*
X151100000Y-111020000D03*
X151100000Y-113560000D03*
X151100000Y-116100000D03*
%TD*%
D33*
%TO.C,USBC1*%
X108090000Y-54880000D03*
X102310000Y-54880000D03*
D34*
X109520000Y-55380000D03*
X100880000Y-55380000D03*
D35*
X109520000Y-51200000D03*
X100880000Y-51200000D03*
%TD*%
D36*
%TO.C,SPI2*%
X104600000Y-115000000D03*
X105600000Y-115000000D03*
X106600000Y-115000000D03*
X107600000Y-115000000D03*
X108600000Y-115000000D03*
X109600000Y-115000000D03*
X110600000Y-115000000D03*
X111600000Y-115000000D03*
D37*
X103300000Y-112475000D03*
X112900000Y-112475000D03*
%TD*%
D11*
%TO.C,Rfuel1*%
X144975000Y-86650000D03*
X146625000Y-86650000D03*
%TD*%
D36*
%TO.C,SPI3*%
X116500000Y-115000000D03*
X117500000Y-115000000D03*
X118500000Y-115000000D03*
X119500000Y-115000000D03*
X120500000Y-115000000D03*
X121500000Y-115000000D03*
X122500000Y-115000000D03*
X123500000Y-115000000D03*
D37*
X115200000Y-112475000D03*
X124800000Y-112475000D03*
%TD*%
D11*
%TO.C,Rwtr1*%
X144975000Y-89750000D03*
X146625000Y-89750000D03*
%TD*%
D38*
%TO.C,Vcc1*%
X90300000Y-90250000D03*
%TD*%
D11*
%TO.C,Resp1*%
X94725000Y-72100000D03*
X96375000Y-72100000D03*
%TD*%
D39*
%TO.C,Cen1*%
X94450000Y-70200000D03*
X96350000Y-70200000D03*
%TD*%
D19*
%TO.C,gauges1*%
X148975000Y-87200000D03*
X148975000Y-88200000D03*
X148975000Y-89200000D03*
D20*
X151500000Y-85900000D03*
X151500000Y-90500000D03*
%TD*%
D28*
%TO.C,R2*%
X146762500Y-93650000D03*
X144937500Y-93650000D03*
%TD*%
D19*
%TO.C,Indics1*%
X148975000Y-81250000D03*
X148975000Y-82250000D03*
D20*
X151500000Y-79950000D03*
X151500000Y-83550000D03*
%TD*%
D19*
%TO.C,Speed1*%
X148975000Y-94150000D03*
X148975000Y-95150000D03*
D20*
X151500000Y-92850000D03*
X151500000Y-96450000D03*
%TD*%
D36*
%TO.C,SPI1*%
X92700000Y-115000000D03*
X93700000Y-115000000D03*
X94700000Y-115000000D03*
X95700000Y-115000000D03*
X96700000Y-115000000D03*
X97700000Y-115000000D03*
X98700000Y-115000000D03*
X99700000Y-115000000D03*
D37*
X91400000Y-112475000D03*
X101000000Y-112475000D03*
%TD*%
D40*
%TO.C,VRCond1*%
X136800000Y-92780000D03*
X136300000Y-92780000D03*
X135800000Y-92780000D03*
X135300000Y-92780000D03*
X134800000Y-92780000D03*
X134800000Y-97080000D03*
X135300000Y-97080000D03*
X135800000Y-97080000D03*
X136300000Y-97080000D03*
X136800000Y-97080000D03*
%TD*%
D41*
%TO.C,Fan1*%
X140750000Y-50650000D03*
X139750000Y-50650000D03*
D42*
X142050000Y-53175000D03*
X138450000Y-53175000D03*
%TD*%
D27*
%TO.C,Cshld1*%
X128800000Y-57050000D03*
X128800000Y-58950000D03*
%TD*%
D43*
%TO.C,Cout2*%
X114050000Y-101950000D03*
X119650000Y-101950000D03*
%TD*%
D11*
%TO.C,Rspd2*%
X138675000Y-100400000D03*
X140325000Y-100400000D03*
%TD*%
D38*
%TO.C,GND1*%
X122100000Y-90250000D03*
%TD*%
D30*
%TO.C,ESP_BOOT1*%
X92900000Y-82700000D03*
X96500000Y-82700000D03*
%TD*%
D12*
%TO.C,Rlind1*%
X146275000Y-80950000D03*
X144625000Y-80950000D03*
%TD*%
%TO.C,Rup1*%
X133225000Y-97350000D03*
X131575000Y-97350000D03*
%TD*%
D44*
%TO.C,TEMP_S1*%
X129500000Y-71700000D03*
X127625000Y-72650000D03*
X127625000Y-70750000D03*
%TD*%
D31*
%TO.C,RPM1*%
X151100000Y-99500000D03*
%TD*%
M02*
