%TF.GenerationSoftware,KiCad,Pcbnew,9.0.0*%
%TF.CreationDate,2025-03-22T23:29:01+01:00*%
%TF.ProjectId,Leiterkarte-v2,4c656974-6572-46b6-9172-74652d76322e,rev?*%
%TF.SameCoordinates,Original*%
%TF.FileFunction,Copper,L2,Inr*%
%TF.FilePolarity,Positive*%
%FSLAX46Y46*%
G04 Gerber Fmt 4.6, Leading zero omitted, Abs format (unit mm)*
G04 Created by KiCad (PCBNEW 9.0.0) date 2025-03-22 23:29:01*
%MOMM*%
%LPD*%
G01*
G04 APERTURE LIST*
G04 Aperture macros list*
%AMRoundRect*
0 Rectangle with rounded corners*
0 $1 Rounding radius*
0 $2 $3 $4 $5 $6 $7 $8 $9 X,Y pos of 4 corners*
0 Add a 4 corners polygon primitive as box body*
4,1,4,$2,$3,$4,$5,$6,$7,$8,$9,$2,$3,0*
0 Add four circle primitives for the rounded corners*
1,1,$1+$1,$2,$3*
1,1,$1+$1,$4,$5*
1,1,$1+$1,$6,$7*
1,1,$1+$1,$8,$9*
0 Add four rect primitives between the rounded corners*
20,1,$1+$1,$2,$3,$4,$5,0*
20,1,$1+$1,$4,$5,$6,$7,0*
20,1,$1+$1,$6,$7,$8,$9,0*
20,1,$1+$1,$8,$9,$2,$3,0*%
G04 Aperture macros list end*
%TA.AperFunction,ComponentPad*%
%ADD10RoundRect,0.250000X0.725000X-0.600000X0.725000X0.600000X-0.725000X0.600000X-0.725000X-0.600000X0*%
%TD*%
%TA.AperFunction,ComponentPad*%
%ADD11O,1.950000X1.700000*%
%TD*%
%TA.AperFunction,ComponentPad*%
%ADD12RoundRect,0.250000X-0.600000X-0.725000X0.600000X-0.725000X0.600000X0.725000X-0.600000X0.725000X0*%
%TD*%
%TA.AperFunction,ComponentPad*%
%ADD13O,1.700000X1.950000*%
%TD*%
%TA.AperFunction,ComponentPad*%
%ADD14R,1.700000X1.700000*%
%TD*%
%TA.AperFunction,ComponentPad*%
%ADD15O,1.700000X1.700000*%
%TD*%
%TA.AperFunction,ComponentPad*%
%ADD16RoundRect,0.250000X0.750000X-0.600000X0.750000X0.600000X-0.750000X0.600000X-0.750000X-0.600000X0*%
%TD*%
%TA.AperFunction,ComponentPad*%
%ADD17O,2.000000X1.700000*%
%TD*%
%TA.AperFunction,ComponentPad*%
%ADD18C,6.400000*%
%TD*%
%TA.AperFunction,ComponentPad*%
%ADD19O,1.000000X2.100000*%
%TD*%
%TA.AperFunction,ComponentPad*%
%ADD20O,1.000000X1.800000*%
%TD*%
%TA.AperFunction,ComponentPad*%
%ADD21C,0.300000*%
%TD*%
%TA.AperFunction,HeatsinkPad*%
%ADD22C,0.600000*%
%TD*%
%TA.AperFunction,ViaPad*%
%ADD23C,0.600000*%
%TD*%
G04 APERTURE END LIST*
D10*
%TO.N,GND*%
%TO.C,TEMP402*%
X170050000Y-64750000D03*
D11*
%TO.N,/MCU/TEMP2*%
X170050000Y-62250000D03*
%TO.N,+3.3V*%
X170050000Y-59750000D03*
%TD*%
D12*
%TO.N,+3.3V*%
%TO.C,SPI603*%
X135000000Y-105000000D03*
D13*
%TO.N,GND*%
X137500000Y-105000000D03*
%TO.N,/MCU/DIN*%
X140000000Y-105000000D03*
%TO.N,/MCU/CLK*%
X142500000Y-105000000D03*
%TO.N,/MCU/CS3*%
X145000000Y-105000000D03*
%TO.N,/MCU/DC*%
X147500000Y-105000000D03*
%TO.N,/MCU/RST*%
X150000000Y-105000000D03*
%TO.N,/MCU/BL*%
X152500000Y-105000000D03*
%TD*%
D14*
%TO.N,+3.3V*%
%TO.C,Buttons601*%
X177790000Y-98000000D03*
D15*
X175250000Y-98000000D03*
X172710000Y-98000000D03*
%TO.N,/MCU/Button1*%
X170170000Y-98000000D03*
%TO.N,/MCU/Button2*%
X167630000Y-98000000D03*
%TO.N,/MCU/Button3*%
X165090000Y-98000000D03*
%TD*%
D14*
%TO.N,Net-(RPM401-Pin_1)*%
%TO.C,RPM401*%
X177750000Y-102000000D03*
%TD*%
D12*
%TO.N,+3.3V*%
%TO.C,SPI602*%
X111500000Y-105000000D03*
D13*
%TO.N,GND*%
X114000000Y-105000000D03*
%TO.N,/MCU/DIN*%
X116500000Y-105000000D03*
%TO.N,/MCU/CLK*%
X119000000Y-105000000D03*
%TO.N,/MCU/CS2*%
X121500000Y-105000000D03*
%TO.N,/MCU/DC*%
X124000000Y-105000000D03*
%TO.N,/MCU/RST*%
X126500000Y-105000000D03*
%TO.N,/MCU/BL*%
X129000000Y-105000000D03*
%TD*%
D16*
%TO.N,Net-(Speed501-Pin_1)*%
%TO.C,Speed501*%
X170000000Y-111500000D03*
D17*
%TO.N,Net-(Speed501-Pin_2)*%
X170000000Y-109000000D03*
%TD*%
D16*
%TO.N,Net-(D601-A)*%
%TO.C,Fan601*%
X170050000Y-53750000D03*
D17*
%TO.N,+3.3V*%
X170050000Y-51250000D03*
%TD*%
D18*
%TO.N,Net-(Vcc301-Pin_1)*%
%TO.C,Vcc301*%
X85500000Y-87000000D03*
%TD*%
%TO.N,GND*%
%TO.C,GND301*%
X117000000Y-87000000D03*
%TD*%
D19*
%TO.N,GND*%
%TO.C,USBC601*%
X104820000Y-52175000D03*
X96180000Y-52175000D03*
D20*
X104820000Y-47995000D03*
X96180000Y-47995000D03*
%TD*%
D16*
%TO.N,Net-(Indics401-Pin_1)*%
%TO.C,Indics401*%
X170050000Y-73250000D03*
D17*
%TO.N,Net-(Indics401-Pin_2)*%
X170050000Y-70750000D03*
%TD*%
D21*
%TO.N,GND*%
%TO.C,5V301*%
X95835000Y-94050000D03*
X94535000Y-94050000D03*
X93235000Y-94050000D03*
X91935000Y-94050000D03*
X95835000Y-95350000D03*
X94535000Y-95350000D03*
X93235000Y-95350000D03*
X91935000Y-95350000D03*
%TD*%
D10*
%TO.N,/MCU/Fuel*%
%TO.C,gauges401*%
X170050000Y-84250000D03*
D11*
%TO.N,/MCU/Oil*%
X170050000Y-81750000D03*
%TO.N,/MCU/WTemp*%
X170050000Y-79250000D03*
%TD*%
D12*
%TO.N,+3.3V*%
%TO.C,SPI601*%
X88000000Y-105000000D03*
D13*
%TO.N,GND*%
X90500000Y-105000000D03*
%TO.N,/MCU/DIN*%
X93000000Y-105000000D03*
%TO.N,/MCU/CLK*%
X95500000Y-105000000D03*
%TO.N,/MCU/CS1*%
X98000000Y-105000000D03*
%TO.N,/MCU/DC*%
X100500000Y-105000000D03*
%TO.N,/MCU/RST*%
X103000000Y-105000000D03*
%TO.N,/MCU/BL*%
X105500000Y-105000000D03*
%TD*%
D22*
%TO.N,GND*%
%TO.C,ESP201*%
X134600000Y-81350000D03*
X133200000Y-81350000D03*
X135300000Y-82050000D03*
X133900000Y-82050000D03*
X132500000Y-82050000D03*
X134600000Y-82750000D03*
X133200000Y-82750000D03*
X135300000Y-83450000D03*
X133900000Y-83450000D03*
X132500000Y-83450000D03*
X134600000Y-84150000D03*
X133200000Y-84150000D03*
%TD*%
D23*
%TO.N,GND*%
X156750000Y-109000000D03*
X147250000Y-92500000D03*
X111250000Y-48000000D03*
X103750000Y-67500000D03*
X160250000Y-112750000D03*
X106250000Y-48000000D03*
X99000000Y-84250000D03*
X150000000Y-97750000D03*
X160250000Y-64750000D03*
X93250000Y-99000000D03*
X146250000Y-56000000D03*
X155500000Y-49500000D03*
X122285000Y-78535000D03*
X155500000Y-56750000D03*
X143750000Y-75500000D03*
X146500000Y-85750000D03*
X111250000Y-52000000D03*
X82750000Y-107250000D03*
X154500000Y-97750000D03*
X122250000Y-54250000D03*
X85250000Y-65250000D03*
X137500000Y-103000000D03*
X155500000Y-64750000D03*
X167750000Y-91750000D03*
X127750000Y-58500000D03*
X85250000Y-82000000D03*
X153550000Y-78450000D03*
X121500000Y-85000000D03*
X90500000Y-103000000D03*
X146750000Y-95750000D03*
X163500000Y-113000000D03*
X122250000Y-75000000D03*
X137500000Y-66000000D03*
X165250000Y-91750000D03*
X115000000Y-93000000D03*
X126000000Y-77500000D03*
X127750000Y-54250000D03*
X168000000Y-64750000D03*
X135250000Y-73750000D03*
X161675000Y-96575000D03*
X127000000Y-63000000D03*
X82750000Y-96500000D03*
X103250000Y-60000000D03*
X97250000Y-88500000D03*
X153000000Y-93250000D03*
X163000000Y-59750000D03*
X109500000Y-77000000D03*
X92000000Y-65250000D03*
X165250000Y-105000000D03*
X137000000Y-49500000D03*
X154537500Y-54700000D03*
X137000000Y-56000000D03*
X85250000Y-77250000D03*
X153450000Y-81050000D03*
X155500000Y-60000000D03*
X145250000Y-67500000D03*
X100300000Y-68800000D03*
X141750000Y-94500000D03*
X148750000Y-85750000D03*
X156750000Y-113500000D03*
X146750000Y-74500000D03*
X91750000Y-71000000D03*
X85250000Y-72000000D03*
X163000000Y-55750000D03*
X82750000Y-99000000D03*
X121500000Y-88750000D03*
X152250000Y-97750000D03*
X85000000Y-96500000D03*
X176000000Y-91500000D03*
X103750000Y-81500000D03*
X146250000Y-49500000D03*
X166750000Y-88500000D03*
X113250000Y-63250000D03*
X92000000Y-60000000D03*
X166412500Y-113000000D03*
X145250000Y-70500000D03*
X119750000Y-91250000D03*
X114000000Y-103000000D03*
X103750000Y-77250000D03*
X159750000Y-90000000D03*
X154750000Y-84250000D03*
X170250000Y-91750000D03*
X92000000Y-55000000D03*
X167250000Y-105250000D03*
X128250000Y-70750000D03*
X147500000Y-81750000D03*
X121500000Y-81000000D03*
X159300000Y-83800000D03*
X160250000Y-77000000D03*
X150000000Y-69750000D03*
X154750000Y-87000000D03*
X140000000Y-82750000D03*
X150000000Y-72750000D03*
X164600000Y-76475000D03*
X164550000Y-67375000D03*
X127000000Y-66500000D03*
X100000000Y-85500000D03*
X94750000Y-52250000D03*
X97250000Y-60000000D03*
X173000000Y-91500000D03*
X95750000Y-62750000D03*
X103750000Y-72000000D03*
X113250000Y-61250000D03*
X157750000Y-66000000D03*
X85000000Y-99000000D03*
X166337500Y-106675000D03*
X122265000Y-91235000D03*
X171650000Y-104650000D03*
X140500000Y-70500000D03*
X106250000Y-52000000D03*
X137050000Y-67050000D03*
X94750000Y-48000000D03*
%TO.N,+3.3V*%
X175250000Y-95750000D03*
X111250000Y-85750000D03*
X152000000Y-89000000D03*
X168000000Y-59750000D03*
X150000000Y-64500000D03*
X126750000Y-97000000D03*
X103500000Y-83500000D03*
X106250000Y-83500000D03*
X177750000Y-95750000D03*
X111500000Y-103000000D03*
X106250000Y-84750000D03*
X105000000Y-86000000D03*
X101000000Y-76750000D03*
X161500000Y-51250000D03*
X107500000Y-83500000D03*
X162500000Y-84250000D03*
X135000000Y-103000000D03*
X94750000Y-76750000D03*
X146550000Y-68050000D03*
X105000000Y-83500000D03*
X106250000Y-86000000D03*
X96500000Y-79500000D03*
X107500000Y-86000000D03*
X111250000Y-87000000D03*
X162500000Y-79250000D03*
X157625000Y-97625000D03*
X162500000Y-81750000D03*
X135000000Y-70500000D03*
X146550000Y-67050000D03*
X111250000Y-84500000D03*
X94750000Y-78500000D03*
X88000000Y-103000000D03*
X125550000Y-58550000D03*
X163000000Y-49500000D03*
X107500000Y-84750000D03*
X99500000Y-79500000D03*
X172750000Y-95750000D03*
X101000000Y-78500000D03*
X111250000Y-83500000D03*
X105000000Y-84750000D03*
%TO.N,/MCU/Button3*%
X155000000Y-91500000D03*
X148000000Y-91500000D03*
%TO.N,/MCU/Button1*%
X130500000Y-89750000D03*
X169000000Y-94500000D03*
%TO.N,/MCU/Button2*%
X166500000Y-94500000D03*
X127750000Y-90750000D03*
%TO.N,/MCU/RPM*%
X157750000Y-102250000D03*
X159750000Y-102250000D03*
%TO.N,/MCU/LIndicator*%
X149500000Y-79250000D03*
X153500000Y-76500000D03*
%TO.N,/MCU/FanControl*%
X151500000Y-63000000D03*
X151500000Y-61500000D03*
%TO.N,/MCU/TEMP2*%
X143000000Y-62250000D03*
X132750000Y-67750000D03*
%TO.N,/MCU/CLK*%
X131000000Y-109500000D03*
X107500000Y-109500000D03*
X121500000Y-109500000D03*
X97500000Y-109500000D03*
%TO.N,/MCU/DC*%
X101500000Y-111000000D03*
X126500000Y-111000000D03*
X107500000Y-111000000D03*
X131000000Y-111000000D03*
%TO.N,/MCU/BL*%
X139500000Y-94500000D03*
%TO.N,/MCU/CS2*%
X127750000Y-101000000D03*
X132750000Y-97500000D03*
%TO.N,/MCU/DIN*%
X131000000Y-108000000D03*
X107500000Y-108000000D03*
X117500000Y-108000000D03*
X94000000Y-108000000D03*
%TO.N,/MCU/Speed*%
X130500000Y-87500000D03*
X153375000Y-88625000D03*
%TO.N,/MCU/CS3*%
X140250000Y-100750000D03*
%TO.N,/MCU/SD_DAT1*%
X132750000Y-64250000D03*
X130500000Y-62000000D03*
X136500000Y-73250000D03*
%TO.N,/MCU/CS1*%
X126750000Y-99750000D03*
X131500000Y-94750000D03*
%TO.N,/MCU/USB_D+*%
X104250000Y-62750000D03*
X108750000Y-62750000D03*
%TO.N,/MCU/SD_DAT0*%
X137750000Y-74000000D03*
X134500000Y-67750000D03*
%TO.N,/MCU/RST*%
X126500000Y-112500000D03*
X103500000Y-112500000D03*
X107500000Y-112500000D03*
X131000000Y-112500000D03*
%TO.N,/MCU/USB_D-*%
X105500000Y-62000000D03*
X109500000Y-62000000D03*
%TO.N,Net-(JP601-A)*%
X102750000Y-54750000D03*
X98000000Y-55000000D03*
X100500000Y-62250000D03*
%TD*%
%TA.AperFunction,Conductor*%
%TO.N,GND*%
G36*
X179442539Y-45520185D02*
G01*
X179488294Y-45572989D01*
X179499500Y-45624500D01*
X179499500Y-114375500D01*
X179479815Y-114442539D01*
X179427011Y-114488294D01*
X179375500Y-114499500D01*
X85260484Y-114499500D01*
X85193445Y-114479815D01*
X85172371Y-114462748D01*
X83241993Y-112513229D01*
X83163649Y-112434108D01*
X102999500Y-112434108D01*
X102999500Y-112565891D01*
X103033608Y-112693187D01*
X103066554Y-112750250D01*
X103099500Y-112807314D01*
X103192686Y-112900500D01*
X103306814Y-112966392D01*
X103434108Y-113000500D01*
X103434110Y-113000500D01*
X103565890Y-113000500D01*
X103565892Y-113000500D01*
X103693186Y-112966392D01*
X103807314Y-112900500D01*
X103900500Y-112807314D01*
X103966392Y-112693186D01*
X104000500Y-112565892D01*
X104000500Y-112434108D01*
X106999500Y-112434108D01*
X106999500Y-112565891D01*
X107033608Y-112693187D01*
X107066554Y-112750250D01*
X107099500Y-112807314D01*
X107192686Y-112900500D01*
X107306814Y-112966392D01*
X107434108Y-113000500D01*
X107434110Y-113000500D01*
X107565890Y-113000500D01*
X107565892Y-113000500D01*
X107693186Y-112966392D01*
X107807314Y-112900500D01*
X107900500Y-112807314D01*
X107966392Y-112693186D01*
X108000500Y-112565892D01*
X108000500Y-112434108D01*
X125999500Y-112434108D01*
X125999500Y-112565891D01*
X126033608Y-112693187D01*
X126066554Y-112750250D01*
X126099500Y-112807314D01*
X126192686Y-112900500D01*
X126306814Y-112966392D01*
X126434108Y-113000500D01*
X126434110Y-113000500D01*
X126565890Y-113000500D01*
X126565892Y-113000500D01*
X126693186Y-112966392D01*
X126807314Y-112900500D01*
X126900500Y-112807314D01*
X126966392Y-112693186D01*
X127000500Y-112565892D01*
X127000500Y-112434108D01*
X130499500Y-112434108D01*
X130499500Y-112565891D01*
X130533608Y-112693187D01*
X130566554Y-112750250D01*
X130599500Y-112807314D01*
X130692686Y-112900500D01*
X130806814Y-112966392D01*
X130934108Y-113000500D01*
X130934110Y-113000500D01*
X131065890Y-113000500D01*
X131065892Y-113000500D01*
X131193186Y-112966392D01*
X131307314Y-112900500D01*
X131400500Y-112807314D01*
X131466392Y-112693186D01*
X131500500Y-112565892D01*
X131500500Y-112434108D01*
X131466392Y-112306814D01*
X131400500Y-112192686D01*
X131307314Y-112099500D01*
X131250250Y-112066554D01*
X131193187Y-112033608D01*
X131129539Y-112016554D01*
X131065892Y-111999500D01*
X130934108Y-111999500D01*
X130806812Y-112033608D01*
X130692686Y-112099500D01*
X130692683Y-112099502D01*
X130599502Y-112192683D01*
X130599500Y-112192686D01*
X130533608Y-112306812D01*
X130499500Y-112434108D01*
X127000500Y-112434108D01*
X126966392Y-112306814D01*
X126900500Y-112192686D01*
X126807314Y-112099500D01*
X126750250Y-112066554D01*
X126693187Y-112033608D01*
X126629539Y-112016554D01*
X126565892Y-111999500D01*
X126434108Y-111999500D01*
X126306812Y-112033608D01*
X126192686Y-112099500D01*
X126192683Y-112099502D01*
X126099502Y-112192683D01*
X126099500Y-112192686D01*
X126033608Y-112306812D01*
X125999500Y-112434108D01*
X108000500Y-112434108D01*
X107966392Y-112306814D01*
X107900500Y-112192686D01*
X107807314Y-112099500D01*
X107750250Y-112066554D01*
X107693187Y-112033608D01*
X107629539Y-112016554D01*
X107565892Y-111999500D01*
X107434108Y-111999500D01*
X107306812Y-112033608D01*
X107192686Y-112099500D01*
X107192683Y-112099502D01*
X107099502Y-112192683D01*
X107099500Y-112192686D01*
X107033608Y-112306812D01*
X106999500Y-112434108D01*
X104000500Y-112434108D01*
X103966392Y-112306814D01*
X103900500Y-112192686D01*
X103807314Y-112099500D01*
X103750250Y-112066554D01*
X103693187Y-112033608D01*
X103629539Y-112016554D01*
X103565892Y-111999500D01*
X103434108Y-111999500D01*
X103306812Y-112033608D01*
X103192686Y-112099500D01*
X103192683Y-112099502D01*
X103099502Y-112192683D01*
X103099500Y-112192686D01*
X103033608Y-112306812D01*
X102999500Y-112434108D01*
X83163649Y-112434108D01*
X81756721Y-111013229D01*
X81678377Y-110934108D01*
X100999500Y-110934108D01*
X100999500Y-111065891D01*
X101033608Y-111193187D01*
X101066554Y-111250250D01*
X101099500Y-111307314D01*
X101192686Y-111400500D01*
X101306814Y-111466392D01*
X101434108Y-111500500D01*
X101434110Y-111500500D01*
X101565890Y-111500500D01*
X101565892Y-111500500D01*
X101693186Y-111466392D01*
X101807314Y-111400500D01*
X101900500Y-111307314D01*
X101966392Y-111193186D01*
X102000500Y-111065892D01*
X102000500Y-110934108D01*
X106999500Y-110934108D01*
X106999500Y-111065891D01*
X107033608Y-111193187D01*
X107066554Y-111250250D01*
X107099500Y-111307314D01*
X107192686Y-111400500D01*
X107306814Y-111466392D01*
X107434108Y-111500500D01*
X107434110Y-111500500D01*
X107565890Y-111500500D01*
X107565892Y-111500500D01*
X107693186Y-111466392D01*
X107807314Y-111400500D01*
X107900500Y-111307314D01*
X107966392Y-111193186D01*
X108000500Y-111065892D01*
X108000500Y-110934108D01*
X125999500Y-110934108D01*
X125999500Y-111065891D01*
X126033608Y-111193187D01*
X126066554Y-111250250D01*
X126099500Y-111307314D01*
X126192686Y-111400500D01*
X126306814Y-111466392D01*
X126434108Y-111500500D01*
X126434110Y-111500500D01*
X126565890Y-111500500D01*
X126565892Y-111500500D01*
X126693186Y-111466392D01*
X126807314Y-111400500D01*
X126900500Y-111307314D01*
X126966392Y-111193186D01*
X127000500Y-111065892D01*
X127000500Y-110934108D01*
X130499500Y-110934108D01*
X130499500Y-111065891D01*
X130533608Y-111193187D01*
X130566554Y-111250250D01*
X130599500Y-111307314D01*
X130692686Y-111400500D01*
X130806814Y-111466392D01*
X130934108Y-111500500D01*
X130934110Y-111500500D01*
X131065890Y-111500500D01*
X131065892Y-111500500D01*
X131193186Y-111466392D01*
X131307314Y-111400500D01*
X131400500Y-111307314D01*
X131466392Y-111193186D01*
X131500500Y-111065892D01*
X131500500Y-110934108D01*
X131476819Y-110845730D01*
X168799500Y-110845730D01*
X168799500Y-112154269D01*
X168802353Y-112184699D01*
X168802353Y-112184701D01*
X168847206Y-112312880D01*
X168847207Y-112312882D01*
X168927850Y-112422150D01*
X169037118Y-112502793D01*
X169079845Y-112517744D01*
X169165299Y-112547646D01*
X169195730Y-112550500D01*
X169195734Y-112550500D01*
X170804270Y-112550500D01*
X170834699Y-112547646D01*
X170834701Y-112547646D01*
X170898790Y-112525219D01*
X170962882Y-112502793D01*
X171072150Y-112422150D01*
X171152793Y-112312882D01*
X171175219Y-112248790D01*
X171197646Y-112184701D01*
X171197646Y-112184699D01*
X171200500Y-112154269D01*
X171200500Y-110845730D01*
X171197646Y-110815300D01*
X171197646Y-110815298D01*
X171152793Y-110687119D01*
X171152792Y-110687117D01*
X171072150Y-110577850D01*
X170962882Y-110497207D01*
X170962880Y-110497206D01*
X170834700Y-110452353D01*
X170804270Y-110449500D01*
X170804266Y-110449500D01*
X169195734Y-110449500D01*
X169195730Y-110449500D01*
X169165300Y-110452353D01*
X169165298Y-110452353D01*
X169037119Y-110497206D01*
X169037117Y-110497207D01*
X168927850Y-110577850D01*
X168847207Y-110687117D01*
X168847206Y-110687119D01*
X168802353Y-110815298D01*
X168802353Y-110815300D01*
X168799500Y-110845730D01*
X131476819Y-110845730D01*
X131466392Y-110806814D01*
X131400500Y-110692686D01*
X131307314Y-110599500D01*
X131250250Y-110566554D01*
X131193187Y-110533608D01*
X131129539Y-110516554D01*
X131065892Y-110499500D01*
X130934108Y-110499500D01*
X130806812Y-110533608D01*
X130692686Y-110599500D01*
X130692683Y-110599502D01*
X130599502Y-110692683D01*
X130599500Y-110692686D01*
X130533608Y-110806812D01*
X130499500Y-110934108D01*
X127000500Y-110934108D01*
X126966392Y-110806814D01*
X126900500Y-110692686D01*
X126807314Y-110599500D01*
X126750250Y-110566554D01*
X126693187Y-110533608D01*
X126629539Y-110516554D01*
X126565892Y-110499500D01*
X126434108Y-110499500D01*
X126306812Y-110533608D01*
X126192686Y-110599500D01*
X126192683Y-110599502D01*
X126099502Y-110692683D01*
X126099500Y-110692686D01*
X126033608Y-110806812D01*
X125999500Y-110934108D01*
X108000500Y-110934108D01*
X107966392Y-110806814D01*
X107900500Y-110692686D01*
X107807314Y-110599500D01*
X107750250Y-110566554D01*
X107693187Y-110533608D01*
X107629539Y-110516554D01*
X107565892Y-110499500D01*
X107434108Y-110499500D01*
X107306812Y-110533608D01*
X107192686Y-110599500D01*
X107192683Y-110599502D01*
X107099502Y-110692683D01*
X107099500Y-110692686D01*
X107033608Y-110806812D01*
X106999500Y-110934108D01*
X102000500Y-110934108D01*
X101966392Y-110806814D01*
X101900500Y-110692686D01*
X101807314Y-110599500D01*
X101750250Y-110566554D01*
X101693187Y-110533608D01*
X101629539Y-110516554D01*
X101565892Y-110499500D01*
X101434108Y-110499500D01*
X101306812Y-110533608D01*
X101192686Y-110599500D01*
X101192683Y-110599502D01*
X101099502Y-110692683D01*
X101099500Y-110692686D01*
X101033608Y-110806812D01*
X100999500Y-110934108D01*
X81678377Y-110934108D01*
X80493746Y-109737731D01*
X80479311Y-109710982D01*
X80462882Y-109685418D01*
X80461925Y-109678766D01*
X80460564Y-109676243D01*
X80457859Y-109650483D01*
X80457859Y-109434108D01*
X96999500Y-109434108D01*
X96999500Y-109565891D01*
X97033608Y-109693187D01*
X97059326Y-109737731D01*
X97099500Y-109807314D01*
X97192686Y-109900500D01*
X97306814Y-109966392D01*
X97434108Y-110000500D01*
X97434110Y-110000500D01*
X97565890Y-110000500D01*
X97565892Y-110000500D01*
X97693186Y-109966392D01*
X97807314Y-109900500D01*
X97900500Y-109807314D01*
X97966392Y-109693186D01*
X98000500Y-109565892D01*
X98000500Y-109434108D01*
X106999500Y-109434108D01*
X106999500Y-109565891D01*
X107033608Y-109693187D01*
X107059326Y-109737731D01*
X107099500Y-109807314D01*
X107192686Y-109900500D01*
X107306814Y-109966392D01*
X107434108Y-110000500D01*
X107434110Y-110000500D01*
X107565890Y-110000500D01*
X107565892Y-110000500D01*
X107693186Y-109966392D01*
X107807314Y-109900500D01*
X107900500Y-109807314D01*
X107966392Y-109693186D01*
X108000500Y-109565892D01*
X108000500Y-109434108D01*
X120999500Y-109434108D01*
X120999500Y-109565891D01*
X121033608Y-109693187D01*
X121059326Y-109737731D01*
X121099500Y-109807314D01*
X121192686Y-109900500D01*
X121306814Y-109966392D01*
X121434108Y-110000500D01*
X121434110Y-110000500D01*
X121565890Y-110000500D01*
X121565892Y-110000500D01*
X121693186Y-109966392D01*
X121807314Y-109900500D01*
X121900500Y-109807314D01*
X121966392Y-109693186D01*
X122000500Y-109565892D01*
X122000500Y-109434108D01*
X130499500Y-109434108D01*
X130499500Y-109565891D01*
X130533608Y-109693187D01*
X130559326Y-109737731D01*
X130599500Y-109807314D01*
X130692686Y-109900500D01*
X130806814Y-109966392D01*
X130934108Y-110000500D01*
X130934110Y-110000500D01*
X131065890Y-110000500D01*
X131065892Y-110000500D01*
X131193186Y-109966392D01*
X131307314Y-109900500D01*
X131400500Y-109807314D01*
X131466392Y-109693186D01*
X131500500Y-109565892D01*
X131500500Y-109434108D01*
X131466392Y-109306814D01*
X131400500Y-109192686D01*
X131307314Y-109099500D01*
X131250250Y-109066554D01*
X131193187Y-109033608D01*
X131158284Y-109024256D01*
X131065892Y-108999500D01*
X130934108Y-108999500D01*
X130806812Y-109033608D01*
X130692686Y-109099500D01*
X130692683Y-109099502D01*
X130599502Y-109192683D01*
X130599500Y-109192686D01*
X130533608Y-109306812D01*
X130499500Y-109434108D01*
X122000500Y-109434108D01*
X121966392Y-109306814D01*
X121900500Y-109192686D01*
X121807314Y-109099500D01*
X121750250Y-109066554D01*
X121693187Y-109033608D01*
X121629539Y-109016554D01*
X121565892Y-108999500D01*
X121434108Y-108999500D01*
X121306812Y-109033608D01*
X121192686Y-109099500D01*
X121192683Y-109099502D01*
X121099502Y-109192683D01*
X121099500Y-109192686D01*
X121033608Y-109306812D01*
X120999500Y-109434108D01*
X108000500Y-109434108D01*
X107966392Y-109306814D01*
X107900500Y-109192686D01*
X107807314Y-109099500D01*
X107750250Y-109066554D01*
X107693187Y-109033608D01*
X107629539Y-109016554D01*
X107565892Y-108999500D01*
X107434108Y-108999500D01*
X107306812Y-109033608D01*
X107192686Y-109099500D01*
X107192683Y-109099502D01*
X107099502Y-109192683D01*
X107099500Y-109192686D01*
X107033608Y-109306812D01*
X106999500Y-109434108D01*
X98000500Y-109434108D01*
X97966392Y-109306814D01*
X97900500Y-109192686D01*
X97807314Y-109099500D01*
X97750250Y-109066554D01*
X97693187Y-109033608D01*
X97629539Y-109016554D01*
X97565892Y-108999500D01*
X97434108Y-108999500D01*
X97306812Y-109033608D01*
X97192686Y-109099500D01*
X97192683Y-109099502D01*
X97099502Y-109192683D01*
X97099500Y-109192686D01*
X97033608Y-109306812D01*
X96999500Y-109434108D01*
X80457859Y-109434108D01*
X80457859Y-108896530D01*
X168799500Y-108896530D01*
X168799500Y-109103469D01*
X168839868Y-109306412D01*
X168839870Y-109306420D01*
X168919058Y-109497596D01*
X169034024Y-109669657D01*
X169180342Y-109815975D01*
X169180345Y-109815977D01*
X169352402Y-109930941D01*
X169543580Y-110010130D01*
X169746530Y-110050499D01*
X169746534Y-110050500D01*
X169746535Y-110050500D01*
X170253466Y-110050500D01*
X170253467Y-110050499D01*
X170456420Y-110010130D01*
X170647598Y-109930941D01*
X170819655Y-109815977D01*
X170965977Y-109669655D01*
X171080941Y-109497598D01*
X171160130Y-109306420D01*
X171200500Y-109103465D01*
X171200500Y-108896535D01*
X171160130Y-108693580D01*
X171080941Y-108502402D01*
X170965977Y-108330345D01*
X170965975Y-108330342D01*
X170819657Y-108184024D01*
X170733626Y-108126541D01*
X170647598Y-108069059D01*
X170639952Y-108065892D01*
X170456420Y-107989870D01*
X170456412Y-107989868D01*
X170253469Y-107949500D01*
X170253465Y-107949500D01*
X169746535Y-107949500D01*
X169746530Y-107949500D01*
X169543587Y-107989868D01*
X169543579Y-107989870D01*
X169352403Y-108069058D01*
X169180342Y-108184024D01*
X169034024Y-108330342D01*
X168919058Y-108502403D01*
X168839870Y-108693579D01*
X168839868Y-108693587D01*
X168799500Y-108896530D01*
X80457859Y-108896530D01*
X80457859Y-107934108D01*
X93499500Y-107934108D01*
X93499500Y-108065892D01*
X93500349Y-108069059D01*
X93533608Y-108193187D01*
X93566554Y-108250250D01*
X93599500Y-108307314D01*
X93692686Y-108400500D01*
X93806814Y-108466392D01*
X93934108Y-108500500D01*
X93934110Y-108500500D01*
X94065890Y-108500500D01*
X94065892Y-108500500D01*
X94193186Y-108466392D01*
X94307314Y-108400500D01*
X94400500Y-108307314D01*
X94466392Y-108193186D01*
X94500500Y-108065892D01*
X94500500Y-107934108D01*
X106999500Y-107934108D01*
X106999500Y-108065892D01*
X107000349Y-108069059D01*
X107033608Y-108193187D01*
X107066554Y-108250250D01*
X107099500Y-108307314D01*
X107192686Y-108400500D01*
X107306814Y-108466392D01*
X107434108Y-108500500D01*
X107434110Y-108500500D01*
X107565890Y-108500500D01*
X107565892Y-108500500D01*
X107693186Y-108466392D01*
X107807314Y-108400500D01*
X107900500Y-108307314D01*
X107966392Y-108193186D01*
X108000500Y-108065892D01*
X108000500Y-107934108D01*
X116999500Y-107934108D01*
X116999500Y-108065892D01*
X117000349Y-108069059D01*
X117033608Y-108193187D01*
X117066554Y-108250250D01*
X117099500Y-108307314D01*
X117192686Y-108400500D01*
X117306814Y-108466392D01*
X117434108Y-108500500D01*
X117434110Y-108500500D01*
X117565890Y-108500500D01*
X117565892Y-108500500D01*
X117693186Y-108466392D01*
X117807314Y-108400500D01*
X117900500Y-108307314D01*
X117966392Y-108193186D01*
X118000500Y-108065892D01*
X118000500Y-107934108D01*
X130499500Y-107934108D01*
X130499500Y-108065892D01*
X130500349Y-108069059D01*
X130533608Y-108193187D01*
X130566554Y-108250250D01*
X130599500Y-108307314D01*
X130692686Y-108400500D01*
X130806814Y-108466392D01*
X130934108Y-108500500D01*
X130934110Y-108500500D01*
X131065890Y-108500500D01*
X131065892Y-108500500D01*
X131193186Y-108466392D01*
X131307314Y-108400500D01*
X131400500Y-108307314D01*
X131466392Y-108193186D01*
X131500500Y-108065892D01*
X131500500Y-107934108D01*
X131466392Y-107806814D01*
X131400500Y-107692686D01*
X131307314Y-107599500D01*
X131250250Y-107566554D01*
X131193187Y-107533608D01*
X131129539Y-107516554D01*
X131065892Y-107499500D01*
X130934108Y-107499500D01*
X130806812Y-107533608D01*
X130692686Y-107599500D01*
X130692683Y-107599502D01*
X130599502Y-107692683D01*
X130599500Y-107692686D01*
X130533608Y-107806812D01*
X130499500Y-107934108D01*
X118000500Y-107934108D01*
X117966392Y-107806814D01*
X117900500Y-107692686D01*
X117807314Y-107599500D01*
X117750250Y-107566554D01*
X117693187Y-107533608D01*
X117629539Y-107516554D01*
X117565892Y-107499500D01*
X117434108Y-107499500D01*
X117306812Y-107533608D01*
X117192686Y-107599500D01*
X117192683Y-107599502D01*
X117099502Y-107692683D01*
X117099500Y-107692686D01*
X117033608Y-107806812D01*
X116999500Y-107934108D01*
X108000500Y-107934108D01*
X107966392Y-107806814D01*
X107900500Y-107692686D01*
X107807314Y-107599500D01*
X107750250Y-107566554D01*
X107693187Y-107533608D01*
X107629539Y-107516554D01*
X107565892Y-107499500D01*
X107434108Y-107499500D01*
X107306812Y-107533608D01*
X107192686Y-107599500D01*
X107192683Y-107599502D01*
X107099502Y-107692683D01*
X107099500Y-107692686D01*
X107033608Y-107806812D01*
X106999500Y-107934108D01*
X94500500Y-107934108D01*
X94466392Y-107806814D01*
X94400500Y-107692686D01*
X94307314Y-107599500D01*
X94250250Y-107566554D01*
X94193187Y-107533608D01*
X94129539Y-107516554D01*
X94065892Y-107499500D01*
X93934108Y-107499500D01*
X93806812Y-107533608D01*
X93692686Y-107599500D01*
X93692683Y-107599502D01*
X93599502Y-107692683D01*
X93599500Y-107692686D01*
X93533608Y-107806812D01*
X93499500Y-107934108D01*
X80457859Y-107934108D01*
X80457859Y-104220730D01*
X86949500Y-104220730D01*
X86949500Y-105779269D01*
X86952353Y-105809699D01*
X86952353Y-105809701D01*
X86997206Y-105937880D01*
X86997207Y-105937882D01*
X87077850Y-106047150D01*
X87187118Y-106127793D01*
X87208089Y-106135131D01*
X87315299Y-106172646D01*
X87345730Y-106175500D01*
X87345734Y-106175500D01*
X88654270Y-106175500D01*
X88684699Y-106172646D01*
X88684701Y-106172646D01*
X88748790Y-106150219D01*
X88812882Y-106127793D01*
X88922150Y-106047150D01*
X89002793Y-105937882D01*
X89039648Y-105832557D01*
X89047646Y-105809701D01*
X89047646Y-105809699D01*
X89050500Y-105779269D01*
X89050500Y-105770323D01*
X89070185Y-105703284D01*
X89122989Y-105657529D01*
X89192147Y-105647585D01*
X89255703Y-105676610D01*
X89284985Y-105714028D01*
X89345379Y-105832557D01*
X89470272Y-106004459D01*
X89470276Y-106004464D01*
X89620535Y-106154723D01*
X89620540Y-106154727D01*
X89792442Y-106279620D01*
X89981782Y-106376095D01*
X90183871Y-106441757D01*
X90250000Y-106452231D01*
X90250000Y-105404145D01*
X90316657Y-105442630D01*
X90437465Y-105475000D01*
X90562535Y-105475000D01*
X90683343Y-105442630D01*
X90750000Y-105404145D01*
X90750000Y-106452230D01*
X90816126Y-106441757D01*
X90816129Y-106441757D01*
X91018217Y-106376095D01*
X91207557Y-106279620D01*
X91379459Y-106154727D01*
X91379464Y-106154723D01*
X91529723Y-106004464D01*
X91529727Y-106004459D01*
X91654620Y-105832557D01*
X91751095Y-105643217D01*
X91790759Y-105521144D01*
X91830196Y-105463469D01*
X91894555Y-105436270D01*
X91963401Y-105448184D01*
X92014877Y-105495428D01*
X92023251Y-105512009D01*
X92069057Y-105622596D01*
X92184024Y-105794657D01*
X92330342Y-105940975D01*
X92330345Y-105940977D01*
X92502402Y-106055941D01*
X92693580Y-106135130D01*
X92882187Y-106172646D01*
X92896530Y-106175499D01*
X92896534Y-106175500D01*
X92896535Y-106175500D01*
X93103466Y-106175500D01*
X93103467Y-106175499D01*
X93306420Y-106135130D01*
X93497598Y-106055941D01*
X93669655Y-105940977D01*
X93815977Y-105794655D01*
X93930941Y-105622598D01*
X94010130Y-105431420D01*
X94050500Y-105228465D01*
X94050500Y-104771535D01*
X94050499Y-104771530D01*
X94449500Y-104771530D01*
X94449500Y-105228469D01*
X94489868Y-105431412D01*
X94489870Y-105431420D01*
X94507921Y-105475000D01*
X94569059Y-105622598D01*
X94622971Y-105703284D01*
X94684024Y-105794657D01*
X94830342Y-105940975D01*
X94830345Y-105940977D01*
X95002402Y-106055941D01*
X95193580Y-106135130D01*
X95382187Y-106172646D01*
X95396530Y-106175499D01*
X95396534Y-106175500D01*
X95396535Y-106175500D01*
X95603466Y-106175500D01*
X95603467Y-106175499D01*
X95806420Y-106135130D01*
X95997598Y-106055941D01*
X96169655Y-105940977D01*
X96315977Y-105794655D01*
X96430941Y-105622598D01*
X96510130Y-105431420D01*
X96550500Y-105228465D01*
X96550500Y-104771535D01*
X96550499Y-104771530D01*
X96949500Y-104771530D01*
X96949500Y-105228469D01*
X96989868Y-105431412D01*
X96989870Y-105431420D01*
X97007921Y-105475000D01*
X97069059Y-105622598D01*
X97122971Y-105703284D01*
X97184024Y-105794657D01*
X97330342Y-105940975D01*
X97330345Y-105940977D01*
X97502402Y-106055941D01*
X97693580Y-106135130D01*
X97882187Y-106172646D01*
X97896530Y-106175499D01*
X97896534Y-106175500D01*
X97896535Y-106175500D01*
X98103466Y-106175500D01*
X98103467Y-106175499D01*
X98306420Y-106135130D01*
X98497598Y-106055941D01*
X98669655Y-105940977D01*
X98815977Y-105794655D01*
X98930941Y-105622598D01*
X99010130Y-105431420D01*
X99050500Y-105228465D01*
X99050500Y-104771535D01*
X99050499Y-104771530D01*
X99449500Y-104771530D01*
X99449500Y-105228469D01*
X99489868Y-105431412D01*
X99489870Y-105431420D01*
X99507921Y-105475000D01*
X99569059Y-105622598D01*
X99622971Y-105703284D01*
X99684024Y-105794657D01*
X99830342Y-105940975D01*
X99830345Y-105940977D01*
X100002402Y-106055941D01*
X100193580Y-106135130D01*
X100382187Y-106172646D01*
X100396530Y-106175499D01*
X100396534Y-106175500D01*
X100396535Y-106175500D01*
X100603466Y-106175500D01*
X100603467Y-106175499D01*
X100806420Y-106135130D01*
X100997598Y-106055941D01*
X101169655Y-105940977D01*
X101315977Y-105794655D01*
X101430941Y-105622598D01*
X101510130Y-105431420D01*
X101550500Y-105228465D01*
X101550500Y-104771535D01*
X101550499Y-104771530D01*
X101949500Y-104771530D01*
X101949500Y-105228469D01*
X101989868Y-105431412D01*
X101989870Y-105431420D01*
X102007921Y-105475000D01*
X102069059Y-105622598D01*
X102122971Y-105703284D01*
X102184024Y-105794657D01*
X102330342Y-105940975D01*
X102330345Y-105940977D01*
X102502402Y-106055941D01*
X102693580Y-106135130D01*
X102882187Y-106172646D01*
X102896530Y-106175499D01*
X102896534Y-106175500D01*
X102896535Y-106175500D01*
X103103466Y-106175500D01*
X103103467Y-106175499D01*
X103306420Y-106135130D01*
X103497598Y-106055941D01*
X103669655Y-105940977D01*
X103815977Y-105794655D01*
X103930941Y-105622598D01*
X104010130Y-105431420D01*
X104050500Y-105228465D01*
X104050500Y-104771535D01*
X104050499Y-104771530D01*
X104449500Y-104771530D01*
X104449500Y-105228469D01*
X104489868Y-105431412D01*
X104489870Y-105431420D01*
X104507921Y-105475000D01*
X104569059Y-105622598D01*
X104622971Y-105703284D01*
X104684024Y-105794657D01*
X104830342Y-105940975D01*
X104830345Y-105940977D01*
X105002402Y-106055941D01*
X105193580Y-106135130D01*
X105382187Y-106172646D01*
X105396530Y-106175499D01*
X105396534Y-106175500D01*
X105396535Y-106175500D01*
X105603466Y-106175500D01*
X105603467Y-106175499D01*
X105806420Y-106135130D01*
X105997598Y-106055941D01*
X106169655Y-105940977D01*
X106315977Y-105794655D01*
X106430941Y-105622598D01*
X106510130Y-105431420D01*
X106550500Y-105228465D01*
X106550500Y-104771535D01*
X106510130Y-104568580D01*
X106430941Y-104377402D01*
X106370353Y-104286725D01*
X106370352Y-104286722D01*
X106326257Y-104220730D01*
X110449500Y-104220730D01*
X110449500Y-105779269D01*
X110452353Y-105809699D01*
X110452353Y-105809701D01*
X110497206Y-105937880D01*
X110497207Y-105937882D01*
X110577850Y-106047150D01*
X110687118Y-106127793D01*
X110708089Y-106135131D01*
X110815299Y-106172646D01*
X110845730Y-106175500D01*
X110845734Y-106175500D01*
X112154270Y-106175500D01*
X112184699Y-106172646D01*
X112184701Y-106172646D01*
X112248790Y-106150219D01*
X112312882Y-106127793D01*
X112422150Y-106047150D01*
X112502793Y-105937882D01*
X112539648Y-105832557D01*
X112547646Y-105809701D01*
X112547646Y-105809699D01*
X112550500Y-105779269D01*
X112550500Y-105770323D01*
X112570185Y-105703284D01*
X112622989Y-105657529D01*
X112692147Y-105647585D01*
X112755703Y-105676610D01*
X112784985Y-105714028D01*
X112845379Y-105832557D01*
X112970272Y-106004459D01*
X112970276Y-106004464D01*
X113120535Y-106154723D01*
X113120540Y-106154727D01*
X113292442Y-106279620D01*
X113481782Y-106376095D01*
X113683871Y-106441757D01*
X113750000Y-106452231D01*
X113750000Y-105404145D01*
X113816657Y-105442630D01*
X113937465Y-105475000D01*
X114062535Y-105475000D01*
X114183343Y-105442630D01*
X114250000Y-105404145D01*
X114250000Y-106452230D01*
X114316126Y-106441757D01*
X114316129Y-106441757D01*
X114518217Y-106376095D01*
X114707557Y-106279620D01*
X114879459Y-106154727D01*
X114879464Y-106154723D01*
X115029723Y-106004464D01*
X115029727Y-106004459D01*
X115154620Y-105832557D01*
X115251095Y-105643217D01*
X115290759Y-105521144D01*
X115330196Y-105463469D01*
X115394555Y-105436270D01*
X115463401Y-105448184D01*
X115514877Y-105495428D01*
X115523251Y-105512009D01*
X115569057Y-105622596D01*
X115684024Y-105794657D01*
X115830342Y-105940975D01*
X115830345Y-105940977D01*
X116002402Y-106055941D01*
X116193580Y-106135130D01*
X116382187Y-106172646D01*
X116396530Y-106175499D01*
X116396534Y-106175500D01*
X116396535Y-106175500D01*
X116603466Y-106175500D01*
X116603467Y-106175499D01*
X116806420Y-106135130D01*
X116997598Y-106055941D01*
X117169655Y-105940977D01*
X117315977Y-105794655D01*
X117430941Y-105622598D01*
X117510130Y-105431420D01*
X117550500Y-105228465D01*
X117550500Y-104771535D01*
X117550499Y-104771530D01*
X117949500Y-104771530D01*
X117949500Y-105228469D01*
X117989868Y-105431412D01*
X117989870Y-105431420D01*
X118007921Y-105475000D01*
X118069059Y-105622598D01*
X118122971Y-105703284D01*
X118184024Y-105794657D01*
X118330342Y-105940975D01*
X118330345Y-105940977D01*
X118502402Y-106055941D01*
X118693580Y-106135130D01*
X118882187Y-106172646D01*
X118896530Y-106175499D01*
X118896534Y-106175500D01*
X118896535Y-106175500D01*
X119103466Y-106175500D01*
X119103467Y-106175499D01*
X119306420Y-106135130D01*
X119497598Y-106055941D01*
X119669655Y-105940977D01*
X119815977Y-105794655D01*
X119930941Y-105622598D01*
X120010130Y-105431420D01*
X120050500Y-105228465D01*
X120050500Y-104771535D01*
X120050499Y-104771530D01*
X120449500Y-104771530D01*
X120449500Y-105228469D01*
X120489868Y-105431412D01*
X120489870Y-105431420D01*
X120507921Y-105475000D01*
X120569059Y-105622598D01*
X120622971Y-105703284D01*
X120684024Y-105794657D01*
X120830342Y-105940975D01*
X120830345Y-105940977D01*
X121002402Y-106055941D01*
X121193580Y-106135130D01*
X121382187Y-106172646D01*
X121396530Y-106175499D01*
X121396534Y-106175500D01*
X121396535Y-106175500D01*
X121603466Y-106175500D01*
X121603467Y-106175499D01*
X121806420Y-106135130D01*
X121997598Y-106055941D01*
X122169655Y-105940977D01*
X122315977Y-105794655D01*
X122430941Y-105622598D01*
X122510130Y-105431420D01*
X122550500Y-105228465D01*
X122550500Y-104771535D01*
X122550499Y-104771530D01*
X122949500Y-104771530D01*
X122949500Y-105228469D01*
X122989868Y-105431412D01*
X122989870Y-105431420D01*
X123007921Y-105475000D01*
X123069059Y-105622598D01*
X123122971Y-105703284D01*
X123184024Y-105794657D01*
X123330342Y-105940975D01*
X123330345Y-105940977D01*
X123502402Y-106055941D01*
X123693580Y-106135130D01*
X123882187Y-106172646D01*
X123896530Y-106175499D01*
X123896534Y-106175500D01*
X123896535Y-106175500D01*
X124103466Y-106175500D01*
X124103467Y-106175499D01*
X124306420Y-106135130D01*
X124497598Y-106055941D01*
X124669655Y-105940977D01*
X124815977Y-105794655D01*
X124930941Y-105622598D01*
X125010130Y-105431420D01*
X125050500Y-105228465D01*
X125050500Y-104771535D01*
X125050499Y-104771530D01*
X125449500Y-104771530D01*
X125449500Y-105228469D01*
X125489868Y-105431412D01*
X125489870Y-105431420D01*
X125507921Y-105475000D01*
X125569059Y-105622598D01*
X125622971Y-105703284D01*
X125684024Y-105794657D01*
X125830342Y-105940975D01*
X125830345Y-105940977D01*
X126002402Y-106055941D01*
X126193580Y-106135130D01*
X126382187Y-106172646D01*
X126396530Y-106175499D01*
X126396534Y-106175500D01*
X126396535Y-106175500D01*
X126603466Y-106175500D01*
X126603467Y-106175499D01*
X126806420Y-106135130D01*
X126997598Y-106055941D01*
X127169655Y-105940977D01*
X127315977Y-105794655D01*
X127430941Y-105622598D01*
X127510130Y-105431420D01*
X127550500Y-105228465D01*
X127550500Y-104771535D01*
X127550499Y-104771530D01*
X127949500Y-104771530D01*
X127949500Y-105228469D01*
X127989868Y-105431412D01*
X127989870Y-105431420D01*
X128007921Y-105475000D01*
X128069059Y-105622598D01*
X128122971Y-105703284D01*
X128184024Y-105794657D01*
X128330342Y-105940975D01*
X128330345Y-105940977D01*
X128502402Y-106055941D01*
X128693580Y-106135130D01*
X128882187Y-106172646D01*
X128896530Y-106175499D01*
X128896534Y-106175500D01*
X128896535Y-106175500D01*
X129103466Y-106175500D01*
X129103467Y-106175499D01*
X129306420Y-106135130D01*
X129497598Y-106055941D01*
X129669655Y-105940977D01*
X129815977Y-105794655D01*
X129930941Y-105622598D01*
X130010130Y-105431420D01*
X130050500Y-105228465D01*
X130050500Y-104771535D01*
X130010130Y-104568580D01*
X129930941Y-104377402D01*
X129870353Y-104286725D01*
X129870352Y-104286722D01*
X129826257Y-104220730D01*
X133949500Y-104220730D01*
X133949500Y-105779269D01*
X133952353Y-105809699D01*
X133952353Y-105809701D01*
X133997206Y-105937880D01*
X133997207Y-105937882D01*
X134077850Y-106047150D01*
X134187118Y-106127793D01*
X134208089Y-106135131D01*
X134315299Y-106172646D01*
X134345730Y-106175500D01*
X134345734Y-106175500D01*
X135654270Y-106175500D01*
X135684699Y-106172646D01*
X135684701Y-106172646D01*
X135748790Y-106150219D01*
X135812882Y-106127793D01*
X135922150Y-106047150D01*
X136002793Y-105937882D01*
X136039648Y-105832557D01*
X136047646Y-105809701D01*
X136047646Y-105809699D01*
X136050500Y-105779269D01*
X136050500Y-105770323D01*
X136070185Y-105703284D01*
X136122989Y-105657529D01*
X136192147Y-105647585D01*
X136255703Y-105676610D01*
X136284985Y-105714028D01*
X136345379Y-105832557D01*
X136470272Y-106004459D01*
X136470276Y-106004464D01*
X136620535Y-106154723D01*
X136620540Y-106154727D01*
X136792442Y-106279620D01*
X136981782Y-106376095D01*
X137183871Y-106441757D01*
X137250000Y-106452231D01*
X137250000Y-105404145D01*
X137316657Y-105442630D01*
X137437465Y-105475000D01*
X137562535Y-105475000D01*
X137683343Y-105442630D01*
X137750000Y-105404145D01*
X137750000Y-106452230D01*
X137816126Y-106441757D01*
X137816129Y-106441757D01*
X138018217Y-106376095D01*
X138207557Y-106279620D01*
X138379459Y-106154727D01*
X138379464Y-106154723D01*
X138529723Y-106004464D01*
X138529727Y-106004459D01*
X138654620Y-105832557D01*
X138751095Y-105643217D01*
X138790759Y-105521144D01*
X138830196Y-105463469D01*
X138894555Y-105436270D01*
X138963401Y-105448184D01*
X139014877Y-105495428D01*
X139023251Y-105512009D01*
X139069057Y-105622596D01*
X139184024Y-105794657D01*
X139330342Y-105940975D01*
X139330345Y-105940977D01*
X139502402Y-106055941D01*
X139693580Y-106135130D01*
X139882187Y-106172646D01*
X139896530Y-106175499D01*
X139896534Y-106175500D01*
X139896535Y-106175500D01*
X140103466Y-106175500D01*
X140103467Y-106175499D01*
X140306420Y-106135130D01*
X140497598Y-106055941D01*
X140669655Y-105940977D01*
X140815977Y-105794655D01*
X140930941Y-105622598D01*
X141010130Y-105431420D01*
X141050500Y-105228465D01*
X141050500Y-104771535D01*
X141050499Y-104771530D01*
X141449500Y-104771530D01*
X141449500Y-105228469D01*
X141489868Y-105431412D01*
X141489870Y-105431420D01*
X141507921Y-105475000D01*
X141569059Y-105622598D01*
X141622971Y-105703284D01*
X141684024Y-105794657D01*
X141830342Y-105940975D01*
X141830345Y-105940977D01*
X142002402Y-106055941D01*
X142193580Y-106135130D01*
X142382187Y-106172646D01*
X142396530Y-106175499D01*
X142396534Y-106175500D01*
X142396535Y-106175500D01*
X142603466Y-106175500D01*
X142603467Y-106175499D01*
X142806420Y-106135130D01*
X142997598Y-106055941D01*
X143169655Y-105940977D01*
X143315977Y-105794655D01*
X143430941Y-105622598D01*
X143510130Y-105431420D01*
X143550500Y-105228465D01*
X143550500Y-104771535D01*
X143550499Y-104771530D01*
X143949500Y-104771530D01*
X143949500Y-105228469D01*
X143989868Y-105431412D01*
X143989870Y-105431420D01*
X144007921Y-105475000D01*
X144069059Y-105622598D01*
X144122971Y-105703284D01*
X144184024Y-105794657D01*
X144330342Y-105940975D01*
X144330345Y-105940977D01*
X144502402Y-106055941D01*
X144693580Y-106135130D01*
X144882187Y-106172646D01*
X144896530Y-106175499D01*
X144896534Y-106175500D01*
X144896535Y-106175500D01*
X145103466Y-106175500D01*
X145103467Y-106175499D01*
X145306420Y-106135130D01*
X145497598Y-106055941D01*
X145669655Y-105940977D01*
X145815977Y-105794655D01*
X145930941Y-105622598D01*
X146010130Y-105431420D01*
X146050500Y-105228465D01*
X146050500Y-104771535D01*
X146050499Y-104771530D01*
X146449500Y-104771530D01*
X146449500Y-105228469D01*
X146489868Y-105431412D01*
X146489870Y-105431420D01*
X146507921Y-105475000D01*
X146569059Y-105622598D01*
X146622971Y-105703284D01*
X146684024Y-105794657D01*
X146830342Y-105940975D01*
X146830345Y-105940977D01*
X147002402Y-106055941D01*
X147193580Y-106135130D01*
X147382187Y-106172646D01*
X147396530Y-106175499D01*
X147396534Y-106175500D01*
X147396535Y-106175500D01*
X147603466Y-106175500D01*
X147603467Y-106175499D01*
X147806420Y-106135130D01*
X147997598Y-106055941D01*
X148169655Y-105940977D01*
X148315977Y-105794655D01*
X148430941Y-105622598D01*
X148510130Y-105431420D01*
X148550500Y-105228465D01*
X148550500Y-104771535D01*
X148550499Y-104771530D01*
X148949500Y-104771530D01*
X148949500Y-105228469D01*
X148989868Y-105431412D01*
X148989870Y-105431420D01*
X149007921Y-105475000D01*
X149069059Y-105622598D01*
X149122971Y-105703284D01*
X149184024Y-105794657D01*
X149330342Y-105940975D01*
X149330345Y-105940977D01*
X149502402Y-106055941D01*
X149693580Y-106135130D01*
X149882187Y-106172646D01*
X149896530Y-106175499D01*
X149896534Y-106175500D01*
X149896535Y-106175500D01*
X150103466Y-106175500D01*
X150103467Y-106175499D01*
X150306420Y-106135130D01*
X150497598Y-106055941D01*
X150669655Y-105940977D01*
X150815977Y-105794655D01*
X150930941Y-105622598D01*
X151010130Y-105431420D01*
X151050500Y-105228465D01*
X151050500Y-104771535D01*
X151050499Y-104771530D01*
X151449500Y-104771530D01*
X151449500Y-105228469D01*
X151489868Y-105431412D01*
X151489870Y-105431420D01*
X151507921Y-105475000D01*
X151569059Y-105622598D01*
X151622971Y-105703284D01*
X151684024Y-105794657D01*
X151830342Y-105940975D01*
X151830345Y-105940977D01*
X152002402Y-106055941D01*
X152193580Y-106135130D01*
X152382187Y-106172646D01*
X152396530Y-106175499D01*
X152396534Y-106175500D01*
X152396535Y-106175500D01*
X152603466Y-106175500D01*
X152603467Y-106175499D01*
X152806420Y-106135130D01*
X152997598Y-106055941D01*
X153169655Y-105940977D01*
X153315977Y-105794655D01*
X153430941Y-105622598D01*
X153510130Y-105431420D01*
X153550500Y-105228465D01*
X153550500Y-104771535D01*
X153510130Y-104568580D01*
X153430941Y-104377402D01*
X153315977Y-104205345D01*
X153315975Y-104205342D01*
X153169657Y-104059024D01*
X153074638Y-103995535D01*
X152997598Y-103944059D01*
X152806420Y-103864870D01*
X152806412Y-103864868D01*
X152603469Y-103824500D01*
X152603465Y-103824500D01*
X152396535Y-103824500D01*
X152396530Y-103824500D01*
X152193587Y-103864868D01*
X152193579Y-103864870D01*
X152002403Y-103944058D01*
X151830342Y-104059024D01*
X151684024Y-104205342D01*
X151569058Y-104377403D01*
X151489870Y-104568579D01*
X151489868Y-104568587D01*
X151449500Y-104771530D01*
X151050499Y-104771530D01*
X151010130Y-104568580D01*
X150930941Y-104377402D01*
X150815977Y-104205345D01*
X150815975Y-104205342D01*
X150669657Y-104059024D01*
X150574638Y-103995535D01*
X150497598Y-103944059D01*
X150306420Y-103864870D01*
X150306412Y-103864868D01*
X150103469Y-103824500D01*
X150103465Y-103824500D01*
X149896535Y-103824500D01*
X149896530Y-103824500D01*
X149693587Y-103864868D01*
X149693579Y-103864870D01*
X149502403Y-103944058D01*
X149330342Y-104059024D01*
X149184024Y-104205342D01*
X149069058Y-104377403D01*
X148989870Y-104568579D01*
X148989868Y-104568587D01*
X148949500Y-104771530D01*
X148550499Y-104771530D01*
X148510130Y-104568580D01*
X148430941Y-104377402D01*
X148315977Y-104205345D01*
X148315975Y-104205342D01*
X148169657Y-104059024D01*
X148074638Y-103995535D01*
X147997598Y-103944059D01*
X147806420Y-103864870D01*
X147806412Y-103864868D01*
X147603469Y-103824500D01*
X147603465Y-103824500D01*
X147396535Y-103824500D01*
X147396530Y-103824500D01*
X147193587Y-103864868D01*
X147193579Y-103864870D01*
X147002403Y-103944058D01*
X146830342Y-104059024D01*
X146684024Y-104205342D01*
X146569058Y-104377403D01*
X146489870Y-104568579D01*
X146489868Y-104568587D01*
X146449500Y-104771530D01*
X146050499Y-104771530D01*
X146010130Y-104568580D01*
X145930941Y-104377402D01*
X145815977Y-104205345D01*
X145815975Y-104205342D01*
X145669657Y-104059024D01*
X145574638Y-103995535D01*
X145497598Y-103944059D01*
X145306420Y-103864870D01*
X145306412Y-103864868D01*
X145103469Y-103824500D01*
X145103465Y-103824500D01*
X144896535Y-103824500D01*
X144896530Y-103824500D01*
X144693587Y-103864868D01*
X144693579Y-103864870D01*
X144502403Y-103944058D01*
X144330342Y-104059024D01*
X144184024Y-104205342D01*
X144069058Y-104377403D01*
X143989870Y-104568579D01*
X143989868Y-104568587D01*
X143949500Y-104771530D01*
X143550499Y-104771530D01*
X143510130Y-104568580D01*
X143430941Y-104377402D01*
X143315977Y-104205345D01*
X143315975Y-104205342D01*
X143169657Y-104059024D01*
X143074638Y-103995535D01*
X142997598Y-103944059D01*
X142806420Y-103864870D01*
X142806412Y-103864868D01*
X142603469Y-103824500D01*
X142603465Y-103824500D01*
X142396535Y-103824500D01*
X142396530Y-103824500D01*
X142193587Y-103864868D01*
X142193579Y-103864870D01*
X142002403Y-103944058D01*
X141830342Y-104059024D01*
X141684024Y-104205342D01*
X141569058Y-104377403D01*
X141489870Y-104568579D01*
X141489868Y-104568587D01*
X141449500Y-104771530D01*
X141050499Y-104771530D01*
X141010130Y-104568580D01*
X140930941Y-104377402D01*
X140815977Y-104205345D01*
X140815975Y-104205342D01*
X140669657Y-104059024D01*
X140574638Y-103995535D01*
X140497598Y-103944059D01*
X140306420Y-103864870D01*
X140306412Y-103864868D01*
X140103469Y-103824500D01*
X140103465Y-103824500D01*
X139896535Y-103824500D01*
X139896530Y-103824500D01*
X139693587Y-103864868D01*
X139693579Y-103864870D01*
X139502403Y-103944058D01*
X139330342Y-104059024D01*
X139184024Y-104205342D01*
X139069057Y-104377404D01*
X139023251Y-104487990D01*
X138979409Y-104542394D01*
X138913115Y-104564458D01*
X138845416Y-104547178D01*
X138797806Y-104496041D01*
X138790759Y-104478855D01*
X138751095Y-104356782D01*
X138654620Y-104167442D01*
X138529727Y-103995540D01*
X138529723Y-103995535D01*
X138379464Y-103845276D01*
X138379459Y-103845272D01*
X138207557Y-103720379D01*
X138018215Y-103623903D01*
X137816124Y-103558241D01*
X137750000Y-103547768D01*
X137750000Y-104595854D01*
X137683343Y-104557370D01*
X137562535Y-104525000D01*
X137437465Y-104525000D01*
X137316657Y-104557370D01*
X137250000Y-104595854D01*
X137250000Y-103547768D01*
X137249999Y-103547768D01*
X137183875Y-103558241D01*
X136981784Y-103623903D01*
X136792442Y-103720379D01*
X136620540Y-103845272D01*
X136620535Y-103845276D01*
X136470276Y-103995535D01*
X136470272Y-103995540D01*
X136345379Y-104167442D01*
X136284985Y-104285971D01*
X136237010Y-104336767D01*
X136169189Y-104353562D01*
X136103054Y-104331024D01*
X136059603Y-104276309D01*
X136050500Y-104229676D01*
X136050500Y-104220730D01*
X136047646Y-104190300D01*
X136047646Y-104190298D01*
X136002793Y-104062119D01*
X136002792Y-104062117D01*
X135922150Y-103952850D01*
X135812882Y-103872207D01*
X135812880Y-103872206D01*
X135684700Y-103827353D01*
X135654270Y-103824500D01*
X135654266Y-103824500D01*
X134345734Y-103824500D01*
X134345730Y-103824500D01*
X134315300Y-103827353D01*
X134315298Y-103827353D01*
X134187119Y-103872206D01*
X134187117Y-103872207D01*
X134077850Y-103952850D01*
X133997207Y-104062117D01*
X133997206Y-104062119D01*
X133952353Y-104190298D01*
X133952353Y-104190300D01*
X133949500Y-104220730D01*
X129826257Y-104220730D01*
X129815980Y-104205349D01*
X129815974Y-104205341D01*
X129669657Y-104059024D01*
X129574638Y-103995535D01*
X129497598Y-103944059D01*
X129306420Y-103864870D01*
X129306412Y-103864868D01*
X129103469Y-103824500D01*
X129103465Y-103824500D01*
X128896535Y-103824500D01*
X128896530Y-103824500D01*
X128693587Y-103864868D01*
X128693579Y-103864870D01*
X128502403Y-103944058D01*
X128330342Y-104059024D01*
X128184024Y-104205342D01*
X128069058Y-104377403D01*
X127989870Y-104568579D01*
X127989868Y-104568587D01*
X127949500Y-104771530D01*
X127550499Y-104771530D01*
X127510130Y-104568580D01*
X127430941Y-104377402D01*
X127315977Y-104205345D01*
X127315975Y-104205342D01*
X127169657Y-104059024D01*
X127074638Y-103995535D01*
X126997598Y-103944059D01*
X126806420Y-103864870D01*
X126806412Y-103864868D01*
X126603469Y-103824500D01*
X126603465Y-103824500D01*
X126396535Y-103824500D01*
X126396530Y-103824500D01*
X126193587Y-103864868D01*
X126193579Y-103864870D01*
X126002403Y-103944058D01*
X125830342Y-104059024D01*
X125684024Y-104205342D01*
X125569058Y-104377403D01*
X125489870Y-104568579D01*
X125489868Y-104568587D01*
X125449500Y-104771530D01*
X125050499Y-104771530D01*
X125010130Y-104568580D01*
X124930941Y-104377402D01*
X124815977Y-104205345D01*
X124815975Y-104205342D01*
X124669657Y-104059024D01*
X124574638Y-103995535D01*
X124497598Y-103944059D01*
X124306420Y-103864870D01*
X124306412Y-103864868D01*
X124103469Y-103824500D01*
X124103465Y-103824500D01*
X123896535Y-103824500D01*
X123896530Y-103824500D01*
X123693587Y-103864868D01*
X123693579Y-103864870D01*
X123502403Y-103944058D01*
X123330342Y-104059024D01*
X123184024Y-104205342D01*
X123069058Y-104377403D01*
X122989870Y-104568579D01*
X122989868Y-104568587D01*
X122949500Y-104771530D01*
X122550499Y-104771530D01*
X122510130Y-104568580D01*
X122430941Y-104377402D01*
X122315977Y-104205345D01*
X122315975Y-104205342D01*
X122169657Y-104059024D01*
X122074638Y-103995535D01*
X121997598Y-103944059D01*
X121806420Y-103864870D01*
X121806412Y-103864868D01*
X121603469Y-103824500D01*
X121603465Y-103824500D01*
X121396535Y-103824500D01*
X121396530Y-103824500D01*
X121193587Y-103864868D01*
X121193579Y-103864870D01*
X121002403Y-103944058D01*
X120830342Y-104059024D01*
X120684024Y-104205342D01*
X120569058Y-104377403D01*
X120489870Y-104568579D01*
X120489868Y-104568587D01*
X120449500Y-104771530D01*
X120050499Y-104771530D01*
X120010130Y-104568580D01*
X119930941Y-104377402D01*
X119815977Y-104205345D01*
X119815975Y-104205342D01*
X119669657Y-104059024D01*
X119574638Y-103995535D01*
X119497598Y-103944059D01*
X119306420Y-103864870D01*
X119306412Y-103864868D01*
X119103469Y-103824500D01*
X119103465Y-103824500D01*
X118896535Y-103824500D01*
X118896530Y-103824500D01*
X118693587Y-103864868D01*
X118693579Y-103864870D01*
X118502403Y-103944058D01*
X118330342Y-104059024D01*
X118184024Y-104205342D01*
X118069058Y-104377403D01*
X117989870Y-104568579D01*
X117989868Y-104568587D01*
X117949500Y-104771530D01*
X117550499Y-104771530D01*
X117510130Y-104568580D01*
X117430941Y-104377402D01*
X117315977Y-104205345D01*
X117315975Y-104205342D01*
X117169657Y-104059024D01*
X117074638Y-103995535D01*
X116997598Y-103944059D01*
X116806420Y-103864870D01*
X116806412Y-103864868D01*
X116603469Y-103824500D01*
X116603465Y-103824500D01*
X116396535Y-103824500D01*
X116396530Y-103824500D01*
X116193587Y-103864868D01*
X116193579Y-103864870D01*
X116002403Y-103944058D01*
X115830342Y-104059024D01*
X115684024Y-104205342D01*
X115569057Y-104377404D01*
X115523251Y-104487990D01*
X115479409Y-104542394D01*
X115413115Y-104564458D01*
X115345416Y-104547178D01*
X115297806Y-104496041D01*
X115290759Y-104478855D01*
X115251095Y-104356782D01*
X115154620Y-104167442D01*
X115029727Y-103995540D01*
X115029723Y-103995535D01*
X114879464Y-103845276D01*
X114879459Y-103845272D01*
X114707557Y-103720379D01*
X114518215Y-103623903D01*
X114316124Y-103558241D01*
X114250000Y-103547768D01*
X114250000Y-104595854D01*
X114183343Y-104557370D01*
X114062535Y-104525000D01*
X113937465Y-104525000D01*
X113816657Y-104557370D01*
X113750000Y-104595854D01*
X113750000Y-103547768D01*
X113749999Y-103547768D01*
X113683875Y-103558241D01*
X113481784Y-103623903D01*
X113292442Y-103720379D01*
X113120540Y-103845272D01*
X113120535Y-103845276D01*
X112970276Y-103995535D01*
X112970272Y-103995540D01*
X112845379Y-104167442D01*
X112784985Y-104285971D01*
X112737010Y-104336767D01*
X112669189Y-104353562D01*
X112603054Y-104331024D01*
X112559603Y-104276309D01*
X112550500Y-104229676D01*
X112550500Y-104220730D01*
X112547646Y-104190300D01*
X112547646Y-104190298D01*
X112502793Y-104062119D01*
X112502792Y-104062117D01*
X112422150Y-103952850D01*
X112312882Y-103872207D01*
X112312880Y-103872206D01*
X112184700Y-103827353D01*
X112154270Y-103824500D01*
X112154266Y-103824500D01*
X110845734Y-103824500D01*
X110845730Y-103824500D01*
X110815300Y-103827353D01*
X110815298Y-103827353D01*
X110687119Y-103872206D01*
X110687117Y-103872207D01*
X110577850Y-103952850D01*
X110497207Y-104062117D01*
X110497206Y-104062119D01*
X110452353Y-104190298D01*
X110452353Y-104190300D01*
X110449500Y-104220730D01*
X106326257Y-104220730D01*
X106315980Y-104205349D01*
X106315974Y-104205341D01*
X106169657Y-104059024D01*
X106074638Y-103995535D01*
X105997598Y-103944059D01*
X105806420Y-103864870D01*
X105806412Y-103864868D01*
X105603469Y-103824500D01*
X105603465Y-103824500D01*
X105396535Y-103824500D01*
X105396530Y-103824500D01*
X105193587Y-103864868D01*
X105193579Y-103864870D01*
X105002403Y-103944058D01*
X104830342Y-104059024D01*
X104684024Y-104205342D01*
X104569058Y-104377403D01*
X104489870Y-104568579D01*
X104489868Y-104568587D01*
X104449500Y-104771530D01*
X104050499Y-104771530D01*
X104010130Y-104568580D01*
X103930941Y-104377402D01*
X103815977Y-104205345D01*
X103815975Y-104205342D01*
X103669657Y-104059024D01*
X103574638Y-103995535D01*
X103497598Y-103944059D01*
X103306420Y-103864870D01*
X103306412Y-103864868D01*
X103103469Y-103824500D01*
X103103465Y-103824500D01*
X102896535Y-103824500D01*
X102896530Y-103824500D01*
X102693587Y-103864868D01*
X102693579Y-103864870D01*
X102502403Y-103944058D01*
X102330342Y-104059024D01*
X102184024Y-104205342D01*
X102069058Y-104377403D01*
X101989870Y-104568579D01*
X101989868Y-104568587D01*
X101949500Y-104771530D01*
X101550499Y-104771530D01*
X101510130Y-104568580D01*
X101430941Y-104377402D01*
X101315977Y-104205345D01*
X101315975Y-104205342D01*
X101169657Y-104059024D01*
X101074638Y-103995535D01*
X100997598Y-103944059D01*
X100806420Y-103864870D01*
X100806412Y-103864868D01*
X100603469Y-103824500D01*
X100603465Y-103824500D01*
X100396535Y-103824500D01*
X100396530Y-103824500D01*
X100193587Y-103864868D01*
X100193579Y-103864870D01*
X100002403Y-103944058D01*
X99830342Y-104059024D01*
X99684024Y-104205342D01*
X99569058Y-104377403D01*
X99489870Y-104568579D01*
X99489868Y-104568587D01*
X99449500Y-104771530D01*
X99050499Y-104771530D01*
X99010130Y-104568580D01*
X98930941Y-104377402D01*
X98815977Y-104205345D01*
X98815975Y-104205342D01*
X98669657Y-104059024D01*
X98574638Y-103995535D01*
X98497598Y-103944059D01*
X98306420Y-103864870D01*
X98306412Y-103864868D01*
X98103469Y-103824500D01*
X98103465Y-103824500D01*
X97896535Y-103824500D01*
X97896530Y-103824500D01*
X97693587Y-103864868D01*
X97693579Y-103864870D01*
X97502403Y-103944058D01*
X97330342Y-104059024D01*
X97184024Y-104205342D01*
X97069058Y-104377403D01*
X96989870Y-104568579D01*
X96989868Y-104568587D01*
X96949500Y-104771530D01*
X96550499Y-104771530D01*
X96510130Y-104568580D01*
X96430941Y-104377402D01*
X96315977Y-104205345D01*
X96315975Y-104205342D01*
X96169657Y-104059024D01*
X96074638Y-103995535D01*
X95997598Y-103944059D01*
X95806420Y-103864870D01*
X95806412Y-103864868D01*
X95603469Y-103824500D01*
X95603465Y-103824500D01*
X95396535Y-103824500D01*
X95396530Y-103824500D01*
X95193587Y-103864868D01*
X95193579Y-103864870D01*
X95002403Y-103944058D01*
X94830342Y-104059024D01*
X94684024Y-104205342D01*
X94569058Y-104377403D01*
X94489870Y-104568579D01*
X94489868Y-104568587D01*
X94449500Y-104771530D01*
X94050499Y-104771530D01*
X94010130Y-104568580D01*
X93930941Y-104377402D01*
X93815977Y-104205345D01*
X93815975Y-104205342D01*
X93669657Y-104059024D01*
X93574638Y-103995535D01*
X93497598Y-103944059D01*
X93306420Y-103864870D01*
X93306412Y-103864868D01*
X93103469Y-103824500D01*
X93103465Y-103824500D01*
X92896535Y-103824500D01*
X92896530Y-103824500D01*
X92693587Y-103864868D01*
X92693579Y-103864870D01*
X92502403Y-103944058D01*
X92330342Y-104059024D01*
X92184024Y-104205342D01*
X92069057Y-104377404D01*
X92023251Y-104487990D01*
X91979409Y-104542394D01*
X91913115Y-104564458D01*
X91845416Y-104547178D01*
X91797806Y-104496041D01*
X91790759Y-104478855D01*
X91751095Y-104356782D01*
X91654620Y-104167442D01*
X91529727Y-103995540D01*
X91529723Y-103995535D01*
X91379464Y-103845276D01*
X91379459Y-103845272D01*
X91207557Y-103720379D01*
X91018215Y-103623903D01*
X90816124Y-103558241D01*
X90750000Y-103547768D01*
X90750000Y-104595854D01*
X90683343Y-104557370D01*
X90562535Y-104525000D01*
X90437465Y-104525000D01*
X90316657Y-104557370D01*
X90250000Y-104595854D01*
X90250000Y-103547768D01*
X90249999Y-103547768D01*
X90183875Y-103558241D01*
X89981784Y-103623903D01*
X89792442Y-103720379D01*
X89620540Y-103845272D01*
X89620535Y-103845276D01*
X89470276Y-103995535D01*
X89470272Y-103995540D01*
X89345379Y-104167442D01*
X89284985Y-104285971D01*
X89237010Y-104336767D01*
X89169189Y-104353562D01*
X89103054Y-104331024D01*
X89059603Y-104276309D01*
X89050500Y-104229676D01*
X89050500Y-104220730D01*
X89047646Y-104190300D01*
X89047646Y-104190298D01*
X89002793Y-104062119D01*
X89002792Y-104062117D01*
X88922150Y-103952850D01*
X88812882Y-103872207D01*
X88812880Y-103872206D01*
X88684700Y-103827353D01*
X88654270Y-103824500D01*
X88654266Y-103824500D01*
X87345734Y-103824500D01*
X87345730Y-103824500D01*
X87315300Y-103827353D01*
X87315298Y-103827353D01*
X87187119Y-103872206D01*
X87187117Y-103872207D01*
X87077850Y-103952850D01*
X86997207Y-104062117D01*
X86997206Y-104062119D01*
X86952353Y-104190298D01*
X86952353Y-104190300D01*
X86949500Y-104220730D01*
X80457859Y-104220730D01*
X80457859Y-102934108D01*
X87499500Y-102934108D01*
X87499500Y-103065891D01*
X87533608Y-103193187D01*
X87566554Y-103250250D01*
X87599500Y-103307314D01*
X87692686Y-103400500D01*
X87806814Y-103466392D01*
X87934108Y-103500500D01*
X87934110Y-103500500D01*
X88065890Y-103500500D01*
X88065892Y-103500500D01*
X88193186Y-103466392D01*
X88307314Y-103400500D01*
X88400500Y-103307314D01*
X88466392Y-103193186D01*
X88500500Y-103065892D01*
X88500500Y-102934108D01*
X110999500Y-102934108D01*
X110999500Y-103065891D01*
X111033608Y-103193187D01*
X111066554Y-103250250D01*
X111099500Y-103307314D01*
X111192686Y-103400500D01*
X111306814Y-103466392D01*
X111434108Y-103500500D01*
X111434110Y-103500500D01*
X111565890Y-103500500D01*
X111565892Y-103500500D01*
X111693186Y-103466392D01*
X111807314Y-103400500D01*
X111900500Y-103307314D01*
X111966392Y-103193186D01*
X112000500Y-103065892D01*
X112000500Y-102934108D01*
X134499500Y-102934108D01*
X134499500Y-103065891D01*
X134533608Y-103193187D01*
X134566554Y-103250250D01*
X134599500Y-103307314D01*
X134692686Y-103400500D01*
X134806814Y-103466392D01*
X134934108Y-103500500D01*
X134934110Y-103500500D01*
X135065890Y-103500500D01*
X135065892Y-103500500D01*
X135193186Y-103466392D01*
X135307314Y-103400500D01*
X135400500Y-103307314D01*
X135466392Y-103193186D01*
X135500500Y-103065892D01*
X135500500Y-102934108D01*
X135466392Y-102806814D01*
X135400500Y-102692686D01*
X135307314Y-102599500D01*
X135250250Y-102566554D01*
X135193187Y-102533608D01*
X135129539Y-102516554D01*
X135065892Y-102499500D01*
X134934108Y-102499500D01*
X134806812Y-102533608D01*
X134692686Y-102599500D01*
X134692683Y-102599502D01*
X134599502Y-102692683D01*
X134599500Y-102692686D01*
X134533608Y-102806812D01*
X134499500Y-102934108D01*
X112000500Y-102934108D01*
X111966392Y-102806814D01*
X111900500Y-102692686D01*
X111807314Y-102599500D01*
X111750250Y-102566554D01*
X111693187Y-102533608D01*
X111629539Y-102516554D01*
X111565892Y-102499500D01*
X111434108Y-102499500D01*
X111306812Y-102533608D01*
X111192686Y-102599500D01*
X111192683Y-102599502D01*
X111099502Y-102692683D01*
X111099500Y-102692686D01*
X111033608Y-102806812D01*
X110999500Y-102934108D01*
X88500500Y-102934108D01*
X88466392Y-102806814D01*
X88400500Y-102692686D01*
X88307314Y-102599500D01*
X88250250Y-102566554D01*
X88193187Y-102533608D01*
X88129539Y-102516554D01*
X88065892Y-102499500D01*
X87934108Y-102499500D01*
X87806812Y-102533608D01*
X87692686Y-102599500D01*
X87692683Y-102599502D01*
X87599502Y-102692683D01*
X87599500Y-102692686D01*
X87533608Y-102806812D01*
X87499500Y-102934108D01*
X80457859Y-102934108D01*
X80457859Y-102184108D01*
X157249500Y-102184108D01*
X157249500Y-102315891D01*
X157283608Y-102443187D01*
X157316121Y-102499500D01*
X157349500Y-102557314D01*
X157442686Y-102650500D01*
X157556814Y-102716392D01*
X157684108Y-102750500D01*
X157684110Y-102750500D01*
X157815890Y-102750500D01*
X157815892Y-102750500D01*
X157943186Y-102716392D01*
X158057314Y-102650500D01*
X158150500Y-102557314D01*
X158216392Y-102443186D01*
X158250500Y-102315892D01*
X158250500Y-102184108D01*
X159249500Y-102184108D01*
X159249500Y-102315891D01*
X159283608Y-102443187D01*
X159316121Y-102499500D01*
X159349500Y-102557314D01*
X159442686Y-102650500D01*
X159556814Y-102716392D01*
X159684108Y-102750500D01*
X159684110Y-102750500D01*
X159815890Y-102750500D01*
X159815892Y-102750500D01*
X159943186Y-102716392D01*
X160057314Y-102650500D01*
X160150500Y-102557314D01*
X160216392Y-102443186D01*
X160250500Y-102315892D01*
X160250500Y-102184108D01*
X160216392Y-102056814D01*
X160150500Y-101942686D01*
X160057314Y-101849500D01*
X160000250Y-101816554D01*
X159943187Y-101783608D01*
X159879539Y-101766554D01*
X159815892Y-101749500D01*
X159684108Y-101749500D01*
X159556812Y-101783608D01*
X159442686Y-101849500D01*
X159442683Y-101849502D01*
X159349502Y-101942683D01*
X159349500Y-101942686D01*
X159283608Y-102056812D01*
X159249500Y-102184108D01*
X158250500Y-102184108D01*
X158216392Y-102056814D01*
X158150500Y-101942686D01*
X158057314Y-101849500D01*
X158000250Y-101816554D01*
X157943187Y-101783608D01*
X157879539Y-101766554D01*
X157815892Y-101749500D01*
X157684108Y-101749500D01*
X157556812Y-101783608D01*
X157442686Y-101849500D01*
X157442683Y-101849502D01*
X157349502Y-101942683D01*
X157349500Y-101942686D01*
X157283608Y-102056812D01*
X157249500Y-102184108D01*
X80457859Y-102184108D01*
X80457859Y-100934108D01*
X127249500Y-100934108D01*
X127249500Y-101065891D01*
X127283608Y-101193187D01*
X127297005Y-101216391D01*
X127349500Y-101307314D01*
X127442686Y-101400500D01*
X127556814Y-101466392D01*
X127684108Y-101500500D01*
X127684110Y-101500500D01*
X127815890Y-101500500D01*
X127815892Y-101500500D01*
X127943186Y-101466392D01*
X128057314Y-101400500D01*
X128150500Y-101307314D01*
X128216392Y-101193186D01*
X128250500Y-101065892D01*
X128250500Y-100934108D01*
X128216392Y-100806814D01*
X128150500Y-100692686D01*
X128141922Y-100684108D01*
X139749500Y-100684108D01*
X139749500Y-100815891D01*
X139783608Y-100943187D01*
X139816554Y-101000250D01*
X139849500Y-101057314D01*
X139942686Y-101150500D01*
X140056814Y-101216392D01*
X140184108Y-101250500D01*
X140184110Y-101250500D01*
X140315890Y-101250500D01*
X140315892Y-101250500D01*
X140443186Y-101216392D01*
X140557314Y-101150500D01*
X140577567Y-101130247D01*
X176699500Y-101130247D01*
X176699500Y-102869752D01*
X176711131Y-102928229D01*
X176711132Y-102928230D01*
X176755447Y-102994552D01*
X176821769Y-103038867D01*
X176821770Y-103038868D01*
X176880247Y-103050499D01*
X176880250Y-103050500D01*
X176880252Y-103050500D01*
X178619750Y-103050500D01*
X178619751Y-103050499D01*
X178634568Y-103047552D01*
X178678229Y-103038868D01*
X178678229Y-103038867D01*
X178678231Y-103038867D01*
X178744552Y-102994552D01*
X178788867Y-102928231D01*
X178788867Y-102928229D01*
X178788868Y-102928229D01*
X178800499Y-102869752D01*
X178800500Y-102869750D01*
X178800500Y-101130249D01*
X178800499Y-101130247D01*
X178788868Y-101071770D01*
X178788867Y-101071769D01*
X178744552Y-101005447D01*
X178678230Y-100961132D01*
X178678229Y-100961131D01*
X178619752Y-100949500D01*
X178619748Y-100949500D01*
X176880252Y-100949500D01*
X176880247Y-100949500D01*
X176821770Y-100961131D01*
X176821769Y-100961132D01*
X176755447Y-101005447D01*
X176711132Y-101071769D01*
X176711131Y-101071770D01*
X176699500Y-101130247D01*
X140577567Y-101130247D01*
X140650500Y-101057314D01*
X140716392Y-100943186D01*
X140750500Y-100815892D01*
X140750500Y-100684108D01*
X140716392Y-100556814D01*
X140650500Y-100442686D01*
X140557314Y-100349500D01*
X140500250Y-100316554D01*
X140443187Y-100283608D01*
X140379539Y-100266554D01*
X140315892Y-100249500D01*
X140184108Y-100249500D01*
X140056812Y-100283608D01*
X139942686Y-100349500D01*
X139942683Y-100349502D01*
X139849502Y-100442683D01*
X139849500Y-100442686D01*
X139783608Y-100556812D01*
X139749500Y-100684108D01*
X128141922Y-100684108D01*
X128057314Y-100599500D01*
X127983380Y-100556814D01*
X127943187Y-100533608D01*
X127879539Y-100516554D01*
X127815892Y-100499500D01*
X127684108Y-100499500D01*
X127556812Y-100533608D01*
X127442686Y-100599500D01*
X127442683Y-100599502D01*
X127349502Y-100692683D01*
X127349500Y-100692686D01*
X127283608Y-100806812D01*
X127249500Y-100934108D01*
X80457859Y-100934108D01*
X80457859Y-99684108D01*
X126249500Y-99684108D01*
X126249500Y-99815891D01*
X126283608Y-99943187D01*
X126316554Y-100000250D01*
X126349500Y-100057314D01*
X126442686Y-100150500D01*
X126556814Y-100216392D01*
X126684108Y-100250500D01*
X126684110Y-100250500D01*
X126815890Y-100250500D01*
X126815892Y-100250500D01*
X126943186Y-100216392D01*
X127057314Y-100150500D01*
X127150500Y-100057314D01*
X127216392Y-99943186D01*
X127250500Y-99815892D01*
X127250500Y-99684108D01*
X127216392Y-99556814D01*
X127150500Y-99442686D01*
X127057314Y-99349500D01*
X127000250Y-99316554D01*
X126943187Y-99283608D01*
X126879539Y-99266554D01*
X126815892Y-99249500D01*
X126684108Y-99249500D01*
X126556812Y-99283608D01*
X126442686Y-99349500D01*
X126442683Y-99349502D01*
X126349502Y-99442683D01*
X126349500Y-99442686D01*
X126283608Y-99556812D01*
X126249500Y-99684108D01*
X80457859Y-99684108D01*
X80457859Y-96934108D01*
X126249500Y-96934108D01*
X126249500Y-97065892D01*
X126250349Y-97069059D01*
X126283608Y-97193187D01*
X126301687Y-97224500D01*
X126349500Y-97307314D01*
X126442686Y-97400500D01*
X126556814Y-97466392D01*
X126684108Y-97500500D01*
X126684110Y-97500500D01*
X126815890Y-97500500D01*
X126815892Y-97500500D01*
X126943186Y-97466392D01*
X126999103Y-97434108D01*
X132249500Y-97434108D01*
X132249500Y-97565891D01*
X132283608Y-97693187D01*
X132316554Y-97750250D01*
X132349500Y-97807314D01*
X132442686Y-97900500D01*
X132556814Y-97966392D01*
X132684108Y-98000500D01*
X132684110Y-98000500D01*
X132815890Y-98000500D01*
X132815892Y-98000500D01*
X132943186Y-97966392D01*
X133057314Y-97900500D01*
X133150500Y-97807314D01*
X133216392Y-97693186D01*
X133250500Y-97565892D01*
X133250500Y-97559108D01*
X157124500Y-97559108D01*
X157124500Y-97690891D01*
X157158608Y-97818187D01*
X157164529Y-97828442D01*
X157224500Y-97932314D01*
X157317686Y-98025500D01*
X157431814Y-98091392D01*
X157559108Y-98125500D01*
X157559110Y-98125500D01*
X157690890Y-98125500D01*
X157690892Y-98125500D01*
X157818186Y-98091392D01*
X157932314Y-98025500D01*
X158025500Y-97932314D01*
X158046160Y-97896530D01*
X164039500Y-97896530D01*
X164039500Y-98103469D01*
X164079868Y-98306412D01*
X164079870Y-98306420D01*
X164159058Y-98497596D01*
X164274024Y-98669657D01*
X164420342Y-98815975D01*
X164420345Y-98815977D01*
X164592402Y-98930941D01*
X164783580Y-99010130D01*
X164928052Y-99038867D01*
X164986530Y-99050499D01*
X164986534Y-99050500D01*
X164986535Y-99050500D01*
X165193466Y-99050500D01*
X165193467Y-99050499D01*
X165396420Y-99010130D01*
X165587598Y-98930941D01*
X165759655Y-98815977D01*
X165905977Y-98669655D01*
X166020941Y-98497598D01*
X166100130Y-98306420D01*
X166140500Y-98103465D01*
X166140500Y-97896535D01*
X166140499Y-97896530D01*
X166579500Y-97896530D01*
X166579500Y-98103469D01*
X166619868Y-98306412D01*
X166619870Y-98306420D01*
X166699058Y-98497596D01*
X166814024Y-98669657D01*
X166960342Y-98815975D01*
X166960345Y-98815977D01*
X167132402Y-98930941D01*
X167323580Y-99010130D01*
X167468052Y-99038867D01*
X167526530Y-99050499D01*
X167526534Y-99050500D01*
X167526535Y-99050500D01*
X167733466Y-99050500D01*
X167733467Y-99050499D01*
X167936420Y-99010130D01*
X168127598Y-98930941D01*
X168299655Y-98815977D01*
X168445977Y-98669655D01*
X168560941Y-98497598D01*
X168640130Y-98306420D01*
X168680500Y-98103465D01*
X168680500Y-97896535D01*
X168680499Y-97896530D01*
X169119500Y-97896530D01*
X169119500Y-98103469D01*
X169159868Y-98306412D01*
X169159870Y-98306420D01*
X169239058Y-98497596D01*
X169354024Y-98669657D01*
X169500342Y-98815975D01*
X169500345Y-98815977D01*
X169672402Y-98930941D01*
X169863580Y-99010130D01*
X170008052Y-99038867D01*
X170066530Y-99050499D01*
X170066534Y-99050500D01*
X170066535Y-99050500D01*
X170273466Y-99050500D01*
X170273467Y-99050499D01*
X170476420Y-99010130D01*
X170667598Y-98930941D01*
X170839655Y-98815977D01*
X170985977Y-98669655D01*
X171100941Y-98497598D01*
X171180130Y-98306420D01*
X171220500Y-98103465D01*
X171220500Y-97896535D01*
X171220499Y-97896530D01*
X171659500Y-97896530D01*
X171659500Y-98103469D01*
X171699868Y-98306412D01*
X171699870Y-98306420D01*
X171779058Y-98497596D01*
X171894024Y-98669657D01*
X172040342Y-98815975D01*
X172040345Y-98815977D01*
X172212402Y-98930941D01*
X172403580Y-99010130D01*
X172548052Y-99038867D01*
X172606530Y-99050499D01*
X172606534Y-99050500D01*
X172606535Y-99050500D01*
X172813466Y-99050500D01*
X172813467Y-99050499D01*
X173016420Y-99010130D01*
X173207598Y-98930941D01*
X173379655Y-98815977D01*
X173525977Y-98669655D01*
X173640941Y-98497598D01*
X173720130Y-98306420D01*
X173760500Y-98103465D01*
X173760500Y-97896535D01*
X173760499Y-97896530D01*
X174199500Y-97896530D01*
X174199500Y-98103469D01*
X174239868Y-98306412D01*
X174239870Y-98306420D01*
X174319058Y-98497596D01*
X174434024Y-98669657D01*
X174580342Y-98815975D01*
X174580345Y-98815977D01*
X174752402Y-98930941D01*
X174943580Y-99010130D01*
X175088052Y-99038867D01*
X175146530Y-99050499D01*
X175146534Y-99050500D01*
X175146535Y-99050500D01*
X175353466Y-99050500D01*
X175353467Y-99050499D01*
X175556420Y-99010130D01*
X175747598Y-98930941D01*
X175919655Y-98815977D01*
X176065977Y-98669655D01*
X176180941Y-98497598D01*
X176260130Y-98306420D01*
X176300500Y-98103465D01*
X176300500Y-97896535D01*
X176260130Y-97693580D01*
X176180941Y-97502402D01*
X176065977Y-97330345D01*
X176065975Y-97330342D01*
X175919657Y-97184024D01*
X175839173Y-97130247D01*
X176739500Y-97130247D01*
X176739500Y-98869752D01*
X176751131Y-98928229D01*
X176751132Y-98928230D01*
X176795447Y-98994552D01*
X176861769Y-99038867D01*
X176861770Y-99038868D01*
X176920247Y-99050499D01*
X176920250Y-99050500D01*
X176920252Y-99050500D01*
X178659750Y-99050500D01*
X178659751Y-99050499D01*
X178674568Y-99047552D01*
X178718229Y-99038868D01*
X178718229Y-99038867D01*
X178718231Y-99038867D01*
X178784552Y-98994552D01*
X178828867Y-98928231D01*
X178828867Y-98928229D01*
X178828868Y-98928229D01*
X178840499Y-98869752D01*
X178840500Y-98869750D01*
X178840500Y-97130249D01*
X178840499Y-97130247D01*
X178828868Y-97071770D01*
X178828867Y-97071769D01*
X178784552Y-97005447D01*
X178718230Y-96961132D01*
X178718229Y-96961131D01*
X178659752Y-96949500D01*
X178659748Y-96949500D01*
X176920252Y-96949500D01*
X176920247Y-96949500D01*
X176861770Y-96961131D01*
X176861769Y-96961132D01*
X176795447Y-97005447D01*
X176751132Y-97071769D01*
X176751131Y-97071770D01*
X176739500Y-97130247D01*
X175839173Y-97130247D01*
X175751655Y-97071770D01*
X175747598Y-97069059D01*
X175739952Y-97065892D01*
X175556420Y-96989870D01*
X175556412Y-96989868D01*
X175353469Y-96949500D01*
X175353465Y-96949500D01*
X175146535Y-96949500D01*
X175146530Y-96949500D01*
X174943587Y-96989868D01*
X174943579Y-96989870D01*
X174752403Y-97069058D01*
X174580342Y-97184024D01*
X174434024Y-97330342D01*
X174319058Y-97502403D01*
X174239870Y-97693579D01*
X174239868Y-97693587D01*
X174199500Y-97896530D01*
X173760499Y-97896530D01*
X173720130Y-97693580D01*
X173640941Y-97502402D01*
X173525977Y-97330345D01*
X173525975Y-97330342D01*
X173379657Y-97184024D01*
X173211655Y-97071770D01*
X173207598Y-97069059D01*
X173199952Y-97065892D01*
X173016420Y-96989870D01*
X173016412Y-96989868D01*
X172813469Y-96949500D01*
X172813465Y-96949500D01*
X172606535Y-96949500D01*
X172606530Y-96949500D01*
X172403587Y-96989868D01*
X172403579Y-96989870D01*
X172212403Y-97069058D01*
X172040342Y-97184024D01*
X171894024Y-97330342D01*
X171779058Y-97502403D01*
X171699870Y-97693579D01*
X171699868Y-97693587D01*
X171659500Y-97896530D01*
X171220499Y-97896530D01*
X171180130Y-97693580D01*
X171100941Y-97502402D01*
X170985977Y-97330345D01*
X170985975Y-97330342D01*
X170839657Y-97184024D01*
X170671655Y-97071770D01*
X170667598Y-97069059D01*
X170659952Y-97065892D01*
X170476420Y-96989870D01*
X170476412Y-96989868D01*
X170273469Y-96949500D01*
X170273465Y-96949500D01*
X170066535Y-96949500D01*
X170066530Y-96949500D01*
X169863587Y-96989868D01*
X169863579Y-96989870D01*
X169672403Y-97069058D01*
X169500342Y-97184024D01*
X169354024Y-97330342D01*
X169239058Y-97502403D01*
X169159870Y-97693579D01*
X169159868Y-97693587D01*
X169119500Y-97896530D01*
X168680499Y-97896530D01*
X168640130Y-97693580D01*
X168560941Y-97502402D01*
X168445977Y-97330345D01*
X168445975Y-97330342D01*
X168299657Y-97184024D01*
X168131655Y-97071770D01*
X168127598Y-97069059D01*
X168119952Y-97065892D01*
X167936420Y-96989870D01*
X167936412Y-96989868D01*
X167733469Y-96949500D01*
X167733465Y-96949500D01*
X167526535Y-96949500D01*
X167526530Y-96949500D01*
X167323587Y-96989868D01*
X167323579Y-96989870D01*
X167132403Y-97069058D01*
X166960342Y-97184024D01*
X166814024Y-97330342D01*
X166699058Y-97502403D01*
X166619870Y-97693579D01*
X166619868Y-97693587D01*
X166579500Y-97896530D01*
X166140499Y-97896530D01*
X166100130Y-97693580D01*
X166020941Y-97502402D01*
X165905977Y-97330345D01*
X165905975Y-97330342D01*
X165759657Y-97184024D01*
X165591655Y-97071770D01*
X165587598Y-97069059D01*
X165579952Y-97065892D01*
X165396420Y-96989870D01*
X165396412Y-96989868D01*
X165193469Y-96949500D01*
X165193465Y-96949500D01*
X164986535Y-96949500D01*
X164986530Y-96949500D01*
X164783587Y-96989868D01*
X164783579Y-96989870D01*
X164592403Y-97069058D01*
X164420342Y-97184024D01*
X164274024Y-97330342D01*
X164159058Y-97502403D01*
X164079870Y-97693579D01*
X164079868Y-97693587D01*
X164039500Y-97896530D01*
X158046160Y-97896530D01*
X158091392Y-97818186D01*
X158125500Y-97690892D01*
X158125500Y-97559108D01*
X158091392Y-97431814D01*
X158025500Y-97317686D01*
X157932314Y-97224500D01*
X157862206Y-97184023D01*
X157818187Y-97158608D01*
X157754539Y-97141554D01*
X157690892Y-97124500D01*
X157559108Y-97124500D01*
X157431812Y-97158608D01*
X157317686Y-97224500D01*
X157317683Y-97224502D01*
X157224502Y-97317683D01*
X157224500Y-97317686D01*
X157158608Y-97431812D01*
X157124500Y-97559108D01*
X133250500Y-97559108D01*
X133250500Y-97434108D01*
X133216392Y-97306814D01*
X133150500Y-97192686D01*
X133057314Y-97099500D01*
X132999100Y-97065890D01*
X132943187Y-97033608D01*
X132838090Y-97005448D01*
X132815892Y-96999500D01*
X132684108Y-96999500D01*
X132556812Y-97033608D01*
X132442686Y-97099500D01*
X132442683Y-97099502D01*
X132349502Y-97192683D01*
X132349500Y-97192686D01*
X132283608Y-97306812D01*
X132249500Y-97434108D01*
X126999103Y-97434108D01*
X127057314Y-97400500D01*
X127150500Y-97307314D01*
X127216392Y-97193186D01*
X127250500Y-97065892D01*
X127250500Y-96934108D01*
X127216392Y-96806814D01*
X127150500Y-96692686D01*
X127057314Y-96599500D01*
X127000250Y-96566554D01*
X126943187Y-96533608D01*
X126879539Y-96516554D01*
X126815892Y-96499500D01*
X126684108Y-96499500D01*
X126556812Y-96533608D01*
X126442686Y-96599500D01*
X126442683Y-96599502D01*
X126349502Y-96692683D01*
X126349500Y-96692686D01*
X126283608Y-96806812D01*
X126249500Y-96934108D01*
X80457859Y-96934108D01*
X80457859Y-95903591D01*
X91593540Y-95903591D01*
X91627112Y-95926023D01*
X91745401Y-95975020D01*
X91745409Y-95975022D01*
X91870976Y-95999999D01*
X91870980Y-96000000D01*
X91999020Y-96000000D01*
X91999023Y-95999999D01*
X92124590Y-95975022D01*
X92124594Y-95975021D01*
X92242891Y-95926020D01*
X92242898Y-95926016D01*
X92276458Y-95903591D01*
X92893540Y-95903591D01*
X92927112Y-95926023D01*
X93045401Y-95975020D01*
X93045409Y-95975022D01*
X93170976Y-95999999D01*
X93170980Y-96000000D01*
X93299020Y-96000000D01*
X93299023Y-95999999D01*
X93424590Y-95975022D01*
X93424594Y-95975021D01*
X93542891Y-95926020D01*
X93542898Y-95926016D01*
X93576458Y-95903591D01*
X94193540Y-95903591D01*
X94227112Y-95926023D01*
X94345401Y-95975020D01*
X94345409Y-95975022D01*
X94470976Y-95999999D01*
X94470980Y-96000000D01*
X94599020Y-96000000D01*
X94599023Y-95999999D01*
X94724590Y-95975022D01*
X94724594Y-95975021D01*
X94842891Y-95926020D01*
X94842898Y-95926016D01*
X94876458Y-95903591D01*
X95493540Y-95903591D01*
X95527112Y-95926023D01*
X95645401Y-95975020D01*
X95645409Y-95975022D01*
X95770976Y-95999999D01*
X95770980Y-96000000D01*
X95899020Y-96000000D01*
X95899023Y-95999999D01*
X96024590Y-95975022D01*
X96024594Y-95975021D01*
X96142891Y-95926020D01*
X96142898Y-95926016D01*
X96176458Y-95903591D01*
X96176459Y-95903590D01*
X95835001Y-95562132D01*
X95835000Y-95562132D01*
X95493540Y-95903591D01*
X94876458Y-95903591D01*
X94876459Y-95903590D01*
X94535001Y-95562132D01*
X94535000Y-95562132D01*
X94193540Y-95903591D01*
X93576458Y-95903591D01*
X93576459Y-95903590D01*
X93235001Y-95562132D01*
X93235000Y-95562132D01*
X92893540Y-95903591D01*
X92276458Y-95903591D01*
X92276459Y-95903590D01*
X91935001Y-95562132D01*
X91935000Y-95562132D01*
X91593540Y-95903591D01*
X80457859Y-95903591D01*
X80457859Y-95285976D01*
X91285000Y-95285976D01*
X91285000Y-95414023D01*
X91309977Y-95539590D01*
X91309979Y-95539598D01*
X91358976Y-95657886D01*
X91358981Y-95657896D01*
X91381407Y-95691458D01*
X91381408Y-95691458D01*
X91722868Y-95350000D01*
X91722868Y-95349999D01*
X91702978Y-95330109D01*
X91835000Y-95330109D01*
X91835000Y-95369891D01*
X91850224Y-95406645D01*
X91878355Y-95434776D01*
X91915109Y-95450000D01*
X91954891Y-95450000D01*
X91991645Y-95434776D01*
X92019776Y-95406645D01*
X92035000Y-95369891D01*
X92035000Y-95349999D01*
X92147132Y-95349999D01*
X92147132Y-95350001D01*
X92480411Y-95683280D01*
X92530883Y-95658799D01*
X92533484Y-95658363D01*
X92535509Y-95656671D01*
X92567753Y-95652621D01*
X92599792Y-95647253D01*
X92602216Y-95648292D01*
X92604834Y-95647964D01*
X92634149Y-95661989D01*
X92664004Y-95674794D01*
X92665480Y-95676978D01*
X92667862Y-95678118D01*
X92679235Y-95691244D01*
X92681408Y-95691458D01*
X93022868Y-95350000D01*
X93022868Y-95349999D01*
X93002978Y-95330109D01*
X93135000Y-95330109D01*
X93135000Y-95369891D01*
X93150224Y-95406645D01*
X93178355Y-95434776D01*
X93215109Y-95450000D01*
X93254891Y-95450000D01*
X93291645Y-95434776D01*
X93319776Y-95406645D01*
X93335000Y-95369891D01*
X93335000Y-95349999D01*
X93447132Y-95349999D01*
X93447132Y-95350001D01*
X93780411Y-95683280D01*
X93830883Y-95658799D01*
X93833484Y-95658363D01*
X93835509Y-95656671D01*
X93867753Y-95652621D01*
X93899792Y-95647253D01*
X93902216Y-95648292D01*
X93904834Y-95647964D01*
X93934149Y-95661989D01*
X93964004Y-95674794D01*
X93965480Y-95676978D01*
X93967862Y-95678118D01*
X93979235Y-95691244D01*
X93981408Y-95691458D01*
X94322868Y-95350000D01*
X94322868Y-95349999D01*
X94302978Y-95330109D01*
X94435000Y-95330109D01*
X94435000Y-95369891D01*
X94450224Y-95406645D01*
X94478355Y-95434776D01*
X94515109Y-95450000D01*
X94554891Y-95450000D01*
X94591645Y-95434776D01*
X94619776Y-95406645D01*
X94635000Y-95369891D01*
X94635000Y-95349999D01*
X94747132Y-95349999D01*
X94747132Y-95350001D01*
X95080411Y-95683280D01*
X95130883Y-95658799D01*
X95133484Y-95658363D01*
X95135509Y-95656671D01*
X95167753Y-95652621D01*
X95199792Y-95647253D01*
X95202216Y-95648292D01*
X95204834Y-95647964D01*
X95234149Y-95661989D01*
X95264004Y-95674794D01*
X95265480Y-95676978D01*
X95267862Y-95678118D01*
X95279235Y-95691244D01*
X95281408Y-95691458D01*
X95622868Y-95350000D01*
X95622868Y-95349999D01*
X95602978Y-95330109D01*
X95735000Y-95330109D01*
X95735000Y-95369891D01*
X95750224Y-95406645D01*
X95778355Y-95434776D01*
X95815109Y-95450000D01*
X95854891Y-95450000D01*
X95891645Y-95434776D01*
X95919776Y-95406645D01*
X95935000Y-95369891D01*
X95935000Y-95349999D01*
X96047132Y-95349999D01*
X96047132Y-95350001D01*
X96388590Y-95691459D01*
X96388591Y-95691458D01*
X96393502Y-95684108D01*
X172249500Y-95684108D01*
X172249500Y-95815891D01*
X172283608Y-95943187D01*
X172316409Y-95999999D01*
X172349500Y-96057314D01*
X172442686Y-96150500D01*
X172556814Y-96216392D01*
X172684108Y-96250500D01*
X172684110Y-96250500D01*
X172815890Y-96250500D01*
X172815892Y-96250500D01*
X172943186Y-96216392D01*
X173057314Y-96150500D01*
X173150500Y-96057314D01*
X173216392Y-95943186D01*
X173250500Y-95815892D01*
X173250500Y-95684108D01*
X174749500Y-95684108D01*
X174749500Y-95815891D01*
X174783608Y-95943187D01*
X174816409Y-95999999D01*
X174849500Y-96057314D01*
X174942686Y-96150500D01*
X175056814Y-96216392D01*
X175184108Y-96250500D01*
X175184110Y-96250500D01*
X175315890Y-96250500D01*
X175315892Y-96250500D01*
X175443186Y-96216392D01*
X175557314Y-96150500D01*
X175650500Y-96057314D01*
X175716392Y-95943186D01*
X175750500Y-95815892D01*
X175750500Y-95684108D01*
X177249500Y-95684108D01*
X177249500Y-95815891D01*
X177283608Y-95943187D01*
X177316409Y-95999999D01*
X177349500Y-96057314D01*
X177442686Y-96150500D01*
X177556814Y-96216392D01*
X177684108Y-96250500D01*
X177684110Y-96250500D01*
X177815890Y-96250500D01*
X177815892Y-96250500D01*
X177943186Y-96216392D01*
X178057314Y-96150500D01*
X178150500Y-96057314D01*
X178216392Y-95943186D01*
X178250500Y-95815892D01*
X178250500Y-95684108D01*
X178216392Y-95556814D01*
X178150500Y-95442686D01*
X178057314Y-95349500D01*
X178000250Y-95316554D01*
X177943187Y-95283608D01*
X177874575Y-95265224D01*
X177815892Y-95249500D01*
X177684108Y-95249500D01*
X177556812Y-95283608D01*
X177442686Y-95349500D01*
X177442683Y-95349502D01*
X177349502Y-95442683D01*
X177349500Y-95442686D01*
X177283608Y-95556812D01*
X177249500Y-95684108D01*
X175750500Y-95684108D01*
X175716392Y-95556814D01*
X175650500Y-95442686D01*
X175557314Y-95349500D01*
X175500250Y-95316554D01*
X175443187Y-95283608D01*
X175374575Y-95265224D01*
X175315892Y-95249500D01*
X175184108Y-95249500D01*
X175056812Y-95283608D01*
X174942686Y-95349500D01*
X174942683Y-95349502D01*
X174849502Y-95442683D01*
X174849500Y-95442686D01*
X174783608Y-95556812D01*
X174749500Y-95684108D01*
X173250500Y-95684108D01*
X173216392Y-95556814D01*
X173150500Y-95442686D01*
X173057314Y-95349500D01*
X173000250Y-95316554D01*
X172943187Y-95283608D01*
X172874575Y-95265224D01*
X172815892Y-95249500D01*
X172684108Y-95249500D01*
X172556812Y-95283608D01*
X172442686Y-95349500D01*
X172442683Y-95349502D01*
X172349502Y-95442683D01*
X172349500Y-95442686D01*
X172283608Y-95556812D01*
X172249500Y-95684108D01*
X96393502Y-95684108D01*
X96411016Y-95657898D01*
X96411022Y-95657887D01*
X96423184Y-95628528D01*
X96423184Y-95628527D01*
X96460021Y-95539594D01*
X96460022Y-95539590D01*
X96484999Y-95414023D01*
X96485000Y-95414020D01*
X96485000Y-95285980D01*
X96484999Y-95285976D01*
X96460022Y-95160409D01*
X96460020Y-95160401D01*
X96411023Y-95042112D01*
X96388591Y-95008540D01*
X96047132Y-95349999D01*
X95935000Y-95349999D01*
X95935000Y-95330109D01*
X95919776Y-95293355D01*
X95891645Y-95265224D01*
X95854891Y-95250000D01*
X95815109Y-95250000D01*
X95778355Y-95265224D01*
X95750224Y-95293355D01*
X95735000Y-95330109D01*
X95602978Y-95330109D01*
X95289586Y-95016717D01*
X95239115Y-95041199D01*
X95170206Y-95052745D01*
X95105993Y-95025204D01*
X95091173Y-95008794D01*
X95088591Y-95008539D01*
X94747132Y-95349999D01*
X94635000Y-95349999D01*
X94635000Y-95330109D01*
X94619776Y-95293355D01*
X94591645Y-95265224D01*
X94554891Y-95250000D01*
X94515109Y-95250000D01*
X94478355Y-95265224D01*
X94450224Y-95293355D01*
X94435000Y-95330109D01*
X94302978Y-95330109D01*
X93989586Y-95016717D01*
X93939115Y-95041199D01*
X93870206Y-95052745D01*
X93805993Y-95025204D01*
X93791173Y-95008794D01*
X93788591Y-95008539D01*
X93447132Y-95349999D01*
X93335000Y-95349999D01*
X93335000Y-95330109D01*
X93319776Y-95293355D01*
X93291645Y-95265224D01*
X93254891Y-95250000D01*
X93215109Y-95250000D01*
X93178355Y-95265224D01*
X93150224Y-95293355D01*
X93135000Y-95330109D01*
X93002978Y-95330109D01*
X92689586Y-95016717D01*
X92639115Y-95041199D01*
X92570206Y-95052745D01*
X92505993Y-95025204D01*
X92491173Y-95008794D01*
X92488591Y-95008539D01*
X92147132Y-95349999D01*
X92035000Y-95349999D01*
X92035000Y-95330109D01*
X92019776Y-95293355D01*
X91991645Y-95265224D01*
X91954891Y-95250000D01*
X91915109Y-95250000D01*
X91878355Y-95265224D01*
X91850224Y-95293355D01*
X91835000Y-95330109D01*
X91702978Y-95330109D01*
X91381408Y-95008539D01*
X91381407Y-95008540D01*
X91358978Y-95042109D01*
X91309979Y-95160401D01*
X91309977Y-95160409D01*
X91285000Y-95285976D01*
X80457859Y-95285976D01*
X80457859Y-94603591D01*
X91593539Y-94603591D01*
X91594130Y-94609591D01*
X91628327Y-94650509D01*
X91637034Y-94719833D01*
X91631586Y-94741201D01*
X91607292Y-94810161D01*
X91935000Y-95137868D01*
X91935001Y-95137868D01*
X92276458Y-94796408D01*
X92275867Y-94790407D01*
X92241671Y-94749489D01*
X92232964Y-94680165D01*
X92263118Y-94617137D01*
X92276245Y-94605762D01*
X92276459Y-94603591D01*
X92893539Y-94603591D01*
X92894130Y-94609591D01*
X92928327Y-94650509D01*
X92937034Y-94719833D01*
X92906880Y-94782861D01*
X92893754Y-94794234D01*
X92893539Y-94796408D01*
X93235000Y-95137868D01*
X93235001Y-95137868D01*
X93576458Y-94796408D01*
X93575867Y-94790407D01*
X93541671Y-94749489D01*
X93532964Y-94680165D01*
X93563118Y-94617137D01*
X93576245Y-94605762D01*
X93576459Y-94603591D01*
X94193539Y-94603591D01*
X94194130Y-94609591D01*
X94228327Y-94650509D01*
X94237034Y-94719833D01*
X94206880Y-94782861D01*
X94193754Y-94794234D01*
X94193539Y-94796408D01*
X94535000Y-95137868D01*
X94535001Y-95137868D01*
X94876458Y-94796408D01*
X94875867Y-94790407D01*
X94841671Y-94749489D01*
X94832964Y-94680165D01*
X94863118Y-94617137D01*
X94876245Y-94605762D01*
X94876459Y-94603591D01*
X95493539Y-94603591D01*
X95494130Y-94609591D01*
X95528327Y-94650509D01*
X95537034Y-94719833D01*
X95506880Y-94782861D01*
X95493754Y-94794234D01*
X95493539Y-94796408D01*
X95835000Y-95137868D01*
X95835001Y-95137868D01*
X96176458Y-94796408D01*
X96175867Y-94790407D01*
X96165436Y-94777925D01*
X96143510Y-94753516D01*
X96143142Y-94751250D01*
X96141671Y-94749489D01*
X96137581Y-94716932D01*
X96132334Y-94684546D01*
X96132524Y-94684108D01*
X130999500Y-94684108D01*
X130999500Y-94815891D01*
X131033608Y-94943187D01*
X131047005Y-94966391D01*
X131099500Y-95057314D01*
X131192686Y-95150500D01*
X131306814Y-95216392D01*
X131434108Y-95250500D01*
X131434110Y-95250500D01*
X131565890Y-95250500D01*
X131565892Y-95250500D01*
X131693186Y-95216392D01*
X131807314Y-95150500D01*
X131900500Y-95057314D01*
X131966392Y-94943186D01*
X132000500Y-94815892D01*
X132000500Y-94684108D01*
X131966392Y-94556814D01*
X131900500Y-94442686D01*
X131891922Y-94434108D01*
X138999500Y-94434108D01*
X138999500Y-94565891D01*
X139033608Y-94693187D01*
X139066115Y-94749489D01*
X139099500Y-94807314D01*
X139192686Y-94900500D01*
X139306814Y-94966392D01*
X139434108Y-95000500D01*
X139434110Y-95000500D01*
X139565890Y-95000500D01*
X139565892Y-95000500D01*
X139693186Y-94966392D01*
X139807314Y-94900500D01*
X139900500Y-94807314D01*
X139966392Y-94693186D01*
X140000500Y-94565892D01*
X140000500Y-94434108D01*
X165999500Y-94434108D01*
X165999500Y-94565891D01*
X166033608Y-94693187D01*
X166066115Y-94749489D01*
X166099500Y-94807314D01*
X166192686Y-94900500D01*
X166306814Y-94966392D01*
X166434108Y-95000500D01*
X166434110Y-95000500D01*
X166565890Y-95000500D01*
X166565892Y-95000500D01*
X166693186Y-94966392D01*
X166807314Y-94900500D01*
X166900500Y-94807314D01*
X166966392Y-94693186D01*
X167000500Y-94565892D01*
X167000500Y-94434108D01*
X168499500Y-94434108D01*
X168499500Y-94565891D01*
X168533608Y-94693187D01*
X168566115Y-94749489D01*
X168599500Y-94807314D01*
X168692686Y-94900500D01*
X168806814Y-94966392D01*
X168934108Y-95000500D01*
X168934110Y-95000500D01*
X169065890Y-95000500D01*
X169065892Y-95000500D01*
X169193186Y-94966392D01*
X169307314Y-94900500D01*
X169400500Y-94807314D01*
X169466392Y-94693186D01*
X169500500Y-94565892D01*
X169500500Y-94434108D01*
X169466392Y-94306814D01*
X169400500Y-94192686D01*
X169307314Y-94099500D01*
X169250250Y-94066554D01*
X169193187Y-94033608D01*
X169129539Y-94016554D01*
X169065892Y-93999500D01*
X168934108Y-93999500D01*
X168806812Y-94033608D01*
X168692686Y-94099500D01*
X168692683Y-94099502D01*
X168599502Y-94192683D01*
X168599500Y-94192686D01*
X168533608Y-94306812D01*
X168499500Y-94434108D01*
X167000500Y-94434108D01*
X166966392Y-94306814D01*
X166900500Y-94192686D01*
X166807314Y-94099500D01*
X166750250Y-94066554D01*
X166693187Y-94033608D01*
X166629539Y-94016554D01*
X166565892Y-93999500D01*
X166434108Y-93999500D01*
X166306812Y-94033608D01*
X166192686Y-94099500D01*
X166192683Y-94099502D01*
X166099502Y-94192683D01*
X166099500Y-94192686D01*
X166033608Y-94306812D01*
X165999500Y-94434108D01*
X140000500Y-94434108D01*
X139966392Y-94306814D01*
X139900500Y-94192686D01*
X139807314Y-94099500D01*
X139750250Y-94066554D01*
X139693187Y-94033608D01*
X139629539Y-94016554D01*
X139565892Y-93999500D01*
X139434108Y-93999500D01*
X139306812Y-94033608D01*
X139192686Y-94099500D01*
X139192683Y-94099502D01*
X139099502Y-94192683D01*
X139099500Y-94192686D01*
X139033608Y-94306812D01*
X138999500Y-94434108D01*
X131891922Y-94434108D01*
X131807314Y-94349500D01*
X131733380Y-94306814D01*
X131693187Y-94283608D01*
X131629539Y-94266554D01*
X131565892Y-94249500D01*
X131434108Y-94249500D01*
X131306812Y-94283608D01*
X131192686Y-94349500D01*
X131192683Y-94349502D01*
X131099502Y-94442683D01*
X131099500Y-94442686D01*
X131033608Y-94556812D01*
X130999500Y-94684108D01*
X96132524Y-94684108D01*
X96133249Y-94682441D01*
X96132964Y-94680165D01*
X96147120Y-94650575D01*
X96160219Y-94620482D01*
X96162496Y-94618436D01*
X96163118Y-94617137D01*
X96176245Y-94605762D01*
X96176459Y-94603590D01*
X95835001Y-94262132D01*
X95835000Y-94262132D01*
X95493539Y-94603591D01*
X94876459Y-94603591D01*
X94876459Y-94603590D01*
X94535001Y-94262132D01*
X94535000Y-94262132D01*
X94193539Y-94603591D01*
X93576459Y-94603591D01*
X93576459Y-94603590D01*
X93235001Y-94262132D01*
X93235000Y-94262132D01*
X92893539Y-94603591D01*
X92276459Y-94603591D01*
X92276459Y-94603590D01*
X91935001Y-94262132D01*
X91935000Y-94262132D01*
X91593539Y-94603591D01*
X80457859Y-94603591D01*
X80457859Y-93985976D01*
X91285000Y-93985976D01*
X91285000Y-94114023D01*
X91309977Y-94239590D01*
X91309979Y-94239598D01*
X91358976Y-94357886D01*
X91358981Y-94357896D01*
X91381407Y-94391458D01*
X91381408Y-94391458D01*
X91722868Y-94050000D01*
X91722868Y-94049999D01*
X91702978Y-94030109D01*
X91835000Y-94030109D01*
X91835000Y-94069891D01*
X91850224Y-94106645D01*
X91878355Y-94134776D01*
X91915109Y-94150000D01*
X91954891Y-94150000D01*
X91991645Y-94134776D01*
X92019776Y-94106645D01*
X92035000Y-94069891D01*
X92035000Y-94049999D01*
X92147132Y-94049999D01*
X92147132Y-94050001D01*
X92488590Y-94391459D01*
X92494589Y-94390868D01*
X92535509Y-94356671D01*
X92604834Y-94347964D01*
X92667862Y-94378118D01*
X92679235Y-94391244D01*
X92681408Y-94391458D01*
X93022868Y-94050000D01*
X93022868Y-94049999D01*
X93002978Y-94030109D01*
X93135000Y-94030109D01*
X93135000Y-94069891D01*
X93150224Y-94106645D01*
X93178355Y-94134776D01*
X93215109Y-94150000D01*
X93254891Y-94150000D01*
X93291645Y-94134776D01*
X93319776Y-94106645D01*
X93335000Y-94069891D01*
X93335000Y-94049999D01*
X93447132Y-94049999D01*
X93447132Y-94050001D01*
X93788590Y-94391459D01*
X93794589Y-94390868D01*
X93835509Y-94356671D01*
X93904834Y-94347964D01*
X93967862Y-94378118D01*
X93979235Y-94391244D01*
X93981408Y-94391458D01*
X94322868Y-94050000D01*
X94322868Y-94049999D01*
X94302978Y-94030109D01*
X94435000Y-94030109D01*
X94435000Y-94069891D01*
X94450224Y-94106645D01*
X94478355Y-94134776D01*
X94515109Y-94150000D01*
X94554891Y-94150000D01*
X94591645Y-94134776D01*
X94619776Y-94106645D01*
X94635000Y-94069891D01*
X94635000Y-94049999D01*
X94747132Y-94049999D01*
X94747132Y-94050001D01*
X95088590Y-94391459D01*
X95094589Y-94390868D01*
X95135509Y-94356671D01*
X95204834Y-94347964D01*
X95267862Y-94378118D01*
X95279235Y-94391244D01*
X95281408Y-94391458D01*
X95622868Y-94050000D01*
X95622868Y-94049999D01*
X95602978Y-94030109D01*
X95735000Y-94030109D01*
X95735000Y-94069891D01*
X95750224Y-94106645D01*
X95778355Y-94134776D01*
X95815109Y-94150000D01*
X95854891Y-94150000D01*
X95891645Y-94134776D01*
X95919776Y-94106645D01*
X95935000Y-94069891D01*
X95935000Y-94049999D01*
X96047132Y-94049999D01*
X96047132Y-94050001D01*
X96388590Y-94391459D01*
X96388591Y-94391458D01*
X96411016Y-94357898D01*
X96411020Y-94357891D01*
X96460021Y-94239594D01*
X96460022Y-94239590D01*
X96484999Y-94114023D01*
X96485000Y-94114020D01*
X96485000Y-93985980D01*
X96484999Y-93985976D01*
X96460022Y-93860409D01*
X96460020Y-93860401D01*
X96411023Y-93742112D01*
X96388591Y-93708540D01*
X96047132Y-94049999D01*
X95935000Y-94049999D01*
X95935000Y-94030109D01*
X95919776Y-93993355D01*
X95891645Y-93965224D01*
X95854891Y-93950000D01*
X95815109Y-93950000D01*
X95778355Y-93965224D01*
X95750224Y-93993355D01*
X95735000Y-94030109D01*
X95602978Y-94030109D01*
X95289586Y-93716717D01*
X95239115Y-93741199D01*
X95170206Y-93752745D01*
X95105993Y-93725204D01*
X95091173Y-93708794D01*
X95088591Y-93708539D01*
X94747132Y-94049999D01*
X94635000Y-94049999D01*
X94635000Y-94030109D01*
X94619776Y-93993355D01*
X94591645Y-93965224D01*
X94554891Y-93950000D01*
X94515109Y-93950000D01*
X94478355Y-93965224D01*
X94450224Y-93993355D01*
X94435000Y-94030109D01*
X94302978Y-94030109D01*
X93989586Y-93716717D01*
X93939115Y-93741199D01*
X93870206Y-93752745D01*
X93805993Y-93725204D01*
X93791173Y-93708794D01*
X93788591Y-93708539D01*
X93447132Y-94049999D01*
X93335000Y-94049999D01*
X93335000Y-94030109D01*
X93319776Y-93993355D01*
X93291645Y-93965224D01*
X93254891Y-93950000D01*
X93215109Y-93950000D01*
X93178355Y-93965224D01*
X93150224Y-93993355D01*
X93135000Y-94030109D01*
X93002978Y-94030109D01*
X92689586Y-93716717D01*
X92639115Y-93741199D01*
X92570206Y-93752745D01*
X92505993Y-93725204D01*
X92491173Y-93708794D01*
X92488591Y-93708539D01*
X92147132Y-94049999D01*
X92035000Y-94049999D01*
X92035000Y-94030109D01*
X92019776Y-93993355D01*
X91991645Y-93965224D01*
X91954891Y-93950000D01*
X91915109Y-93950000D01*
X91878355Y-93965224D01*
X91850224Y-93993355D01*
X91835000Y-94030109D01*
X91702978Y-94030109D01*
X91381408Y-93708539D01*
X91381407Y-93708540D01*
X91358978Y-93742109D01*
X91309979Y-93860401D01*
X91309977Y-93860409D01*
X91285000Y-93985976D01*
X80457859Y-93985976D01*
X80457859Y-93496408D01*
X91593539Y-93496408D01*
X91935000Y-93837868D01*
X91935001Y-93837868D01*
X92276458Y-93496408D01*
X92893539Y-93496408D01*
X93235000Y-93837868D01*
X93235001Y-93837868D01*
X93576458Y-93496408D01*
X94193539Y-93496408D01*
X94535000Y-93837868D01*
X94535001Y-93837868D01*
X94876458Y-93496408D01*
X95493539Y-93496408D01*
X95835000Y-93837868D01*
X95835001Y-93837868D01*
X96176458Y-93496408D01*
X96176458Y-93496407D01*
X96142896Y-93473981D01*
X96142886Y-93473976D01*
X96024598Y-93424979D01*
X96024590Y-93424977D01*
X95899023Y-93400000D01*
X95770976Y-93400000D01*
X95645409Y-93424977D01*
X95645401Y-93424979D01*
X95527109Y-93473978D01*
X95493540Y-93496407D01*
X95493539Y-93496408D01*
X94876458Y-93496408D01*
X94876458Y-93496407D01*
X94842896Y-93473981D01*
X94842886Y-93473976D01*
X94724598Y-93424979D01*
X94724590Y-93424977D01*
X94599023Y-93400000D01*
X94470976Y-93400000D01*
X94345409Y-93424977D01*
X94345401Y-93424979D01*
X94227109Y-93473978D01*
X94193540Y-93496407D01*
X94193539Y-93496408D01*
X93576458Y-93496408D01*
X93576458Y-93496407D01*
X93542896Y-93473981D01*
X93542886Y-93473976D01*
X93424598Y-93424979D01*
X93424590Y-93424977D01*
X93299023Y-93400000D01*
X93170976Y-93400000D01*
X93045409Y-93424977D01*
X93045401Y-93424979D01*
X92927109Y-93473978D01*
X92893540Y-93496407D01*
X92893539Y-93496408D01*
X92276458Y-93496408D01*
X92276458Y-93496407D01*
X92242896Y-93473981D01*
X92242886Y-93473976D01*
X92124598Y-93424979D01*
X92124590Y-93424977D01*
X91999023Y-93400000D01*
X91870976Y-93400000D01*
X91745409Y-93424977D01*
X91745401Y-93424979D01*
X91627109Y-93473978D01*
X91593540Y-93496407D01*
X91593539Y-93496408D01*
X80457859Y-93496408D01*
X80457859Y-91434108D01*
X147499500Y-91434108D01*
X147499500Y-91565891D01*
X147533608Y-91693187D01*
X147566554Y-91750250D01*
X147599500Y-91807314D01*
X147692686Y-91900500D01*
X147806814Y-91966392D01*
X147934108Y-92000500D01*
X147934110Y-92000500D01*
X148065890Y-92000500D01*
X148065892Y-92000500D01*
X148193186Y-91966392D01*
X148307314Y-91900500D01*
X148400500Y-91807314D01*
X148466392Y-91693186D01*
X148500500Y-91565892D01*
X148500500Y-91434108D01*
X154499500Y-91434108D01*
X154499500Y-91565891D01*
X154533608Y-91693187D01*
X154566554Y-91750250D01*
X154599500Y-91807314D01*
X154692686Y-91900500D01*
X154806814Y-91966392D01*
X154934108Y-92000500D01*
X154934110Y-92000500D01*
X155065890Y-92000500D01*
X155065892Y-92000500D01*
X155193186Y-91966392D01*
X155307314Y-91900500D01*
X155400500Y-91807314D01*
X155466392Y-91693186D01*
X155500500Y-91565892D01*
X155500500Y-91434108D01*
X155466392Y-91306814D01*
X155400500Y-91192686D01*
X155307314Y-91099500D01*
X155250250Y-91066554D01*
X155193187Y-91033608D01*
X155129539Y-91016554D01*
X155065892Y-90999500D01*
X154934108Y-90999500D01*
X154806812Y-91033608D01*
X154692686Y-91099500D01*
X154692683Y-91099502D01*
X154599502Y-91192683D01*
X154599500Y-91192686D01*
X154533608Y-91306812D01*
X154499500Y-91434108D01*
X148500500Y-91434108D01*
X148466392Y-91306814D01*
X148400500Y-91192686D01*
X148307314Y-91099500D01*
X148250250Y-91066554D01*
X148193187Y-91033608D01*
X148129539Y-91016554D01*
X148065892Y-90999500D01*
X147934108Y-90999500D01*
X147806812Y-91033608D01*
X147692686Y-91099500D01*
X147692683Y-91099502D01*
X147599502Y-91192683D01*
X147599500Y-91192686D01*
X147533608Y-91306812D01*
X147499500Y-91434108D01*
X80457859Y-91434108D01*
X80457859Y-90684108D01*
X127249500Y-90684108D01*
X127249500Y-90815891D01*
X127283608Y-90943187D01*
X127316121Y-90999500D01*
X127349500Y-91057314D01*
X127442686Y-91150500D01*
X127556814Y-91216392D01*
X127684108Y-91250500D01*
X127684110Y-91250500D01*
X127815890Y-91250500D01*
X127815892Y-91250500D01*
X127943186Y-91216392D01*
X128057314Y-91150500D01*
X128150500Y-91057314D01*
X128216392Y-90943186D01*
X128250500Y-90815892D01*
X128250500Y-90684108D01*
X128216392Y-90556814D01*
X128150500Y-90442686D01*
X128057314Y-90349500D01*
X127976031Y-90302571D01*
X127943187Y-90283608D01*
X127879539Y-90266554D01*
X127815892Y-90249500D01*
X127684108Y-90249500D01*
X127556812Y-90283608D01*
X127442686Y-90349500D01*
X127442683Y-90349502D01*
X127349502Y-90442683D01*
X127349500Y-90442686D01*
X127283608Y-90556812D01*
X127249500Y-90684108D01*
X80457859Y-90684108D01*
X80457859Y-86832944D01*
X82099500Y-86832944D01*
X82099500Y-87167056D01*
X82102074Y-87193186D01*
X82132247Y-87499548D01*
X82132250Y-87499565D01*
X82197425Y-87827230D01*
X82197428Y-87827241D01*
X82294418Y-88146977D01*
X82422278Y-88455656D01*
X82422280Y-88455661D01*
X82579769Y-88750303D01*
X82579780Y-88750321D01*
X82765393Y-89028109D01*
X82765403Y-89028123D01*
X82977361Y-89286395D01*
X83213604Y-89522638D01*
X83213609Y-89522642D01*
X83213610Y-89522643D01*
X83471882Y-89734601D01*
X83749685Y-89920224D01*
X83749694Y-89920229D01*
X83749696Y-89920230D01*
X84044338Y-90077719D01*
X84044340Y-90077719D01*
X84044346Y-90077723D01*
X84353024Y-90205582D01*
X84672749Y-90302569D01*
X84672755Y-90302570D01*
X84672758Y-90302571D01*
X84672769Y-90302574D01*
X84878243Y-90343444D01*
X85000441Y-90367751D01*
X85332944Y-90400500D01*
X85332947Y-90400500D01*
X85667053Y-90400500D01*
X85667056Y-90400500D01*
X85999559Y-90367751D01*
X86161757Y-90335487D01*
X86327230Y-90302574D01*
X86327241Y-90302571D01*
X86327241Y-90302570D01*
X86327251Y-90302569D01*
X86646976Y-90205582D01*
X86955654Y-90077723D01*
X87250315Y-89920224D01*
X87528118Y-89734601D01*
X87589644Y-89684108D01*
X129999500Y-89684108D01*
X129999500Y-89815891D01*
X130033608Y-89943187D01*
X130066554Y-90000250D01*
X130099500Y-90057314D01*
X130192686Y-90150500D01*
X130306814Y-90216392D01*
X130434108Y-90250500D01*
X130434110Y-90250500D01*
X130565890Y-90250500D01*
X130565892Y-90250500D01*
X130693186Y-90216392D01*
X130807314Y-90150500D01*
X130900500Y-90057314D01*
X130966392Y-89943186D01*
X131000500Y-89815892D01*
X131000500Y-89684108D01*
X130966392Y-89556814D01*
X130900500Y-89442686D01*
X130807314Y-89349500D01*
X130750250Y-89316554D01*
X130693187Y-89283608D01*
X130629539Y-89266554D01*
X130565892Y-89249500D01*
X130434108Y-89249500D01*
X130306812Y-89283608D01*
X130192686Y-89349500D01*
X130192683Y-89349502D01*
X130099502Y-89442683D01*
X130099500Y-89442686D01*
X130033608Y-89556812D01*
X129999500Y-89684108D01*
X87589644Y-89684108D01*
X87786390Y-89522643D01*
X88022643Y-89286390D01*
X88234601Y-89028118D01*
X88297417Y-88934108D01*
X151499500Y-88934108D01*
X151499500Y-89065892D01*
X151515472Y-89125500D01*
X151533608Y-89193187D01*
X151566121Y-89249500D01*
X151599500Y-89307314D01*
X151692686Y-89400500D01*
X151806814Y-89466392D01*
X151934108Y-89500500D01*
X151934110Y-89500500D01*
X152065890Y-89500500D01*
X152065892Y-89500500D01*
X152193186Y-89466392D01*
X152307314Y-89400500D01*
X152400500Y-89307314D01*
X152466392Y-89193186D01*
X152500500Y-89065892D01*
X152500500Y-88934108D01*
X152466392Y-88806814D01*
X152400500Y-88692686D01*
X152307314Y-88599500D01*
X152237353Y-88559108D01*
X152874500Y-88559108D01*
X152874500Y-88690891D01*
X152908608Y-88818187D01*
X152931069Y-88857090D01*
X152974500Y-88932314D01*
X153067686Y-89025500D01*
X153181814Y-89091392D01*
X153309108Y-89125500D01*
X153309110Y-89125500D01*
X153440890Y-89125500D01*
X153440892Y-89125500D01*
X153568186Y-89091392D01*
X153682314Y-89025500D01*
X153775500Y-88932314D01*
X153841392Y-88818186D01*
X153875500Y-88690892D01*
X153875500Y-88559108D01*
X153841392Y-88431814D01*
X153775500Y-88317686D01*
X153682314Y-88224500D01*
X153625250Y-88191554D01*
X153568187Y-88158608D01*
X153504539Y-88141554D01*
X153440892Y-88124500D01*
X153309108Y-88124500D01*
X153181812Y-88158608D01*
X153067686Y-88224500D01*
X153067683Y-88224502D01*
X152974502Y-88317683D01*
X152974500Y-88317686D01*
X152908608Y-88431812D01*
X152874500Y-88559108D01*
X152237353Y-88559108D01*
X152193187Y-88533608D01*
X152129539Y-88516554D01*
X152065892Y-88499500D01*
X151934108Y-88499500D01*
X151806812Y-88533608D01*
X151692686Y-88599500D01*
X151692683Y-88599502D01*
X151599502Y-88692683D01*
X151599500Y-88692686D01*
X151533608Y-88806812D01*
X151499981Y-88932313D01*
X151499500Y-88934108D01*
X88297417Y-88934108D01*
X88420224Y-88750315D01*
X88577723Y-88455654D01*
X88705582Y-88146976D01*
X88802569Y-87827251D01*
X88802571Y-87827241D01*
X88802574Y-87827230D01*
X88835487Y-87661757D01*
X88867751Y-87499559D01*
X88900500Y-87167056D01*
X88900500Y-86934108D01*
X110749500Y-86934108D01*
X110749500Y-87065891D01*
X110783608Y-87193187D01*
X110816554Y-87250250D01*
X110849500Y-87307314D01*
X110942686Y-87400500D01*
X111056814Y-87466392D01*
X111184108Y-87500500D01*
X111184110Y-87500500D01*
X111315890Y-87500500D01*
X111315892Y-87500500D01*
X111443186Y-87466392D01*
X111499103Y-87434108D01*
X129999500Y-87434108D01*
X129999500Y-87565891D01*
X130033608Y-87693187D01*
X130066554Y-87750250D01*
X130099500Y-87807314D01*
X130192686Y-87900500D01*
X130306814Y-87966392D01*
X130434108Y-88000500D01*
X130434110Y-88000500D01*
X130565890Y-88000500D01*
X130565892Y-88000500D01*
X130693186Y-87966392D01*
X130807314Y-87900500D01*
X130900500Y-87807314D01*
X130966392Y-87693186D01*
X131000500Y-87565892D01*
X131000500Y-87434108D01*
X130966392Y-87306814D01*
X130900500Y-87192686D01*
X130807314Y-87099500D01*
X130749100Y-87065890D01*
X130693187Y-87033608D01*
X130629539Y-87016554D01*
X130565892Y-86999500D01*
X130434108Y-86999500D01*
X130306812Y-87033608D01*
X130192686Y-87099500D01*
X130192683Y-87099502D01*
X130099502Y-87192683D01*
X130099500Y-87192686D01*
X130033608Y-87306812D01*
X129999500Y-87434108D01*
X111499103Y-87434108D01*
X111557314Y-87400500D01*
X111650500Y-87307314D01*
X111716392Y-87193186D01*
X111750500Y-87065892D01*
X111750500Y-86934108D01*
X111716392Y-86806814D01*
X111650500Y-86692686D01*
X111557314Y-86599500D01*
X111500250Y-86566554D01*
X111443187Y-86533608D01*
X111379539Y-86516554D01*
X111315892Y-86499500D01*
X111184108Y-86499500D01*
X111056812Y-86533608D01*
X110942686Y-86599500D01*
X110942683Y-86599502D01*
X110849502Y-86692683D01*
X110849500Y-86692686D01*
X110783608Y-86806812D01*
X110749500Y-86934108D01*
X88900500Y-86934108D01*
X88900500Y-86832944D01*
X88867751Y-86500441D01*
X88829336Y-86307314D01*
X88802574Y-86172769D01*
X88802571Y-86172758D01*
X88802570Y-86172755D01*
X88802569Y-86172749D01*
X88730178Y-85934108D01*
X104499500Y-85934108D01*
X104499500Y-86065891D01*
X104533608Y-86193187D01*
X104547005Y-86216391D01*
X104599500Y-86307314D01*
X104692686Y-86400500D01*
X104806814Y-86466392D01*
X104934108Y-86500500D01*
X104934110Y-86500500D01*
X105065890Y-86500500D01*
X105065892Y-86500500D01*
X105193186Y-86466392D01*
X105307314Y-86400500D01*
X105400500Y-86307314D01*
X105466392Y-86193186D01*
X105500500Y-86065892D01*
X105500500Y-85934108D01*
X105749500Y-85934108D01*
X105749500Y-86065891D01*
X105783608Y-86193187D01*
X105797005Y-86216391D01*
X105849500Y-86307314D01*
X105942686Y-86400500D01*
X106056814Y-86466392D01*
X106184108Y-86500500D01*
X106184110Y-86500500D01*
X106315890Y-86500500D01*
X106315892Y-86500500D01*
X106443186Y-86466392D01*
X106557314Y-86400500D01*
X106650500Y-86307314D01*
X106716392Y-86193186D01*
X106750500Y-86065892D01*
X106750500Y-85934108D01*
X106999500Y-85934108D01*
X106999500Y-86065891D01*
X107033608Y-86193187D01*
X107047005Y-86216391D01*
X107099500Y-86307314D01*
X107192686Y-86400500D01*
X107306814Y-86466392D01*
X107434108Y-86500500D01*
X107434110Y-86500500D01*
X107565890Y-86500500D01*
X107565892Y-86500500D01*
X107693186Y-86466392D01*
X107807314Y-86400500D01*
X107900500Y-86307314D01*
X107966392Y-86193186D01*
X108000500Y-86065892D01*
X108000500Y-85934108D01*
X107966392Y-85806814D01*
X107900500Y-85692686D01*
X107891922Y-85684108D01*
X110749500Y-85684108D01*
X110749500Y-85815892D01*
X110766554Y-85879539D01*
X110783608Y-85943187D01*
X110794456Y-85961976D01*
X110849500Y-86057314D01*
X110942686Y-86150500D01*
X111056814Y-86216392D01*
X111184108Y-86250500D01*
X111184110Y-86250500D01*
X111315890Y-86250500D01*
X111315892Y-86250500D01*
X111443186Y-86216392D01*
X111557314Y-86150500D01*
X111650500Y-86057314D01*
X111716392Y-85943186D01*
X111750500Y-85815892D01*
X111750500Y-85684108D01*
X111716392Y-85556814D01*
X111650500Y-85442686D01*
X111557314Y-85349500D01*
X111472444Y-85300500D01*
X111443187Y-85283608D01*
X111379539Y-85266554D01*
X111315892Y-85249500D01*
X111184108Y-85249500D01*
X111056812Y-85283608D01*
X110942686Y-85349500D01*
X110942683Y-85349502D01*
X110849502Y-85442683D01*
X110849500Y-85442686D01*
X110783608Y-85556812D01*
X110772170Y-85599500D01*
X110749500Y-85684108D01*
X107891922Y-85684108D01*
X107807314Y-85599500D01*
X107733380Y-85556814D01*
X107693187Y-85533608D01*
X107629539Y-85516554D01*
X107565892Y-85499500D01*
X107434108Y-85499500D01*
X107306812Y-85533608D01*
X107192686Y-85599500D01*
X107192683Y-85599502D01*
X107099502Y-85692683D01*
X107099500Y-85692686D01*
X107033608Y-85806812D01*
X106999500Y-85934108D01*
X106750500Y-85934108D01*
X106716392Y-85806814D01*
X106650500Y-85692686D01*
X106557314Y-85599500D01*
X106483380Y-85556814D01*
X106443187Y-85533608D01*
X106379539Y-85516554D01*
X106315892Y-85499500D01*
X106184108Y-85499500D01*
X106056812Y-85533608D01*
X105942686Y-85599500D01*
X105942683Y-85599502D01*
X105849502Y-85692683D01*
X105849500Y-85692686D01*
X105783608Y-85806812D01*
X105749500Y-85934108D01*
X105500500Y-85934108D01*
X105466392Y-85806814D01*
X105400500Y-85692686D01*
X105307314Y-85599500D01*
X105233380Y-85556814D01*
X105193187Y-85533608D01*
X105129539Y-85516554D01*
X105065892Y-85499500D01*
X104934108Y-85499500D01*
X104806812Y-85533608D01*
X104692686Y-85599500D01*
X104692683Y-85599502D01*
X104599502Y-85692683D01*
X104599500Y-85692686D01*
X104533608Y-85806812D01*
X104499500Y-85934108D01*
X88730178Y-85934108D01*
X88705582Y-85853024D01*
X88577723Y-85544346D01*
X88571983Y-85533608D01*
X88420230Y-85249696D01*
X88420229Y-85249694D01*
X88420224Y-85249685D01*
X88234601Y-84971882D01*
X88022643Y-84713610D01*
X88022641Y-84713608D01*
X88022637Y-84713603D01*
X87993142Y-84684108D01*
X104499500Y-84684108D01*
X104499500Y-84815891D01*
X104533608Y-84943187D01*
X104550180Y-84971890D01*
X104599500Y-85057314D01*
X104692686Y-85150500D01*
X104806814Y-85216392D01*
X104934108Y-85250500D01*
X104934110Y-85250500D01*
X105065890Y-85250500D01*
X105065892Y-85250500D01*
X105193186Y-85216392D01*
X105307314Y-85150500D01*
X105400500Y-85057314D01*
X105466392Y-84943186D01*
X105500500Y-84815892D01*
X105500500Y-84684108D01*
X105749500Y-84684108D01*
X105749500Y-84815891D01*
X105783608Y-84943187D01*
X105800180Y-84971890D01*
X105849500Y-85057314D01*
X105942686Y-85150500D01*
X106056814Y-85216392D01*
X106184108Y-85250500D01*
X106184110Y-85250500D01*
X106315890Y-85250500D01*
X106315892Y-85250500D01*
X106443186Y-85216392D01*
X106557314Y-85150500D01*
X106650500Y-85057314D01*
X106716392Y-84943186D01*
X106750500Y-84815892D01*
X106750500Y-84684108D01*
X106999500Y-84684108D01*
X106999500Y-84815891D01*
X107033608Y-84943187D01*
X107050180Y-84971890D01*
X107099500Y-85057314D01*
X107192686Y-85150500D01*
X107306814Y-85216392D01*
X107434108Y-85250500D01*
X107434110Y-85250500D01*
X107565890Y-85250500D01*
X107565892Y-85250500D01*
X107693186Y-85216392D01*
X107807314Y-85150500D01*
X107900500Y-85057314D01*
X107966392Y-84943186D01*
X108000500Y-84815892D01*
X108000500Y-84684108D01*
X107966392Y-84556814D01*
X107900500Y-84442686D01*
X107807314Y-84349500D01*
X107733378Y-84306813D01*
X107693187Y-84283608D01*
X107625206Y-84265393D01*
X107565892Y-84249500D01*
X107434108Y-84249500D01*
X107306812Y-84283608D01*
X107192686Y-84349500D01*
X107192683Y-84349502D01*
X107099502Y-84442683D01*
X107099500Y-84442686D01*
X107033608Y-84556812D01*
X106999500Y-84684108D01*
X106750500Y-84684108D01*
X106716392Y-84556814D01*
X106650500Y-84442686D01*
X106557314Y-84349500D01*
X106483378Y-84306813D01*
X106443187Y-84283608D01*
X106375206Y-84265393D01*
X106315892Y-84249500D01*
X106184108Y-84249500D01*
X106056812Y-84283608D01*
X105942686Y-84349500D01*
X105942683Y-84349502D01*
X105849502Y-84442683D01*
X105849500Y-84442686D01*
X105783608Y-84556812D01*
X105749500Y-84684108D01*
X105500500Y-84684108D01*
X105466392Y-84556814D01*
X105400500Y-84442686D01*
X105307314Y-84349500D01*
X105233378Y-84306813D01*
X105193187Y-84283608D01*
X105125206Y-84265393D01*
X105065892Y-84249500D01*
X104934108Y-84249500D01*
X104806812Y-84283608D01*
X104692686Y-84349500D01*
X104692683Y-84349502D01*
X104599502Y-84442683D01*
X104599500Y-84442686D01*
X104533608Y-84556812D01*
X104499500Y-84684108D01*
X87993142Y-84684108D01*
X87786395Y-84477361D01*
X87528123Y-84265403D01*
X87528122Y-84265402D01*
X87528118Y-84265399D01*
X87250315Y-84079776D01*
X87250310Y-84079773D01*
X87250303Y-84079769D01*
X86955661Y-83922280D01*
X86955656Y-83922278D01*
X86908866Y-83902897D01*
X86865247Y-83884829D01*
X86646977Y-83794418D01*
X86327241Y-83697428D01*
X86327230Y-83697425D01*
X85999565Y-83632250D01*
X85999548Y-83632247D01*
X85748108Y-83607483D01*
X85667056Y-83599500D01*
X85332944Y-83599500D01*
X85257982Y-83606883D01*
X85000451Y-83632247D01*
X85000434Y-83632250D01*
X84672769Y-83697425D01*
X84672758Y-83697428D01*
X84353022Y-83794418D01*
X84044343Y-83922278D01*
X84044338Y-83922280D01*
X83749696Y-84079769D01*
X83749678Y-84079780D01*
X83471890Y-84265393D01*
X83471876Y-84265403D01*
X83213604Y-84477361D01*
X82977361Y-84713604D01*
X82765403Y-84971876D01*
X82765393Y-84971890D01*
X82579780Y-85249678D01*
X82579769Y-85249696D01*
X82422280Y-85544338D01*
X82422278Y-85544343D01*
X82294418Y-85853022D01*
X82197428Y-86172758D01*
X82197425Y-86172769D01*
X82132250Y-86500434D01*
X82132247Y-86500451D01*
X82113314Y-86692686D01*
X82099500Y-86832944D01*
X80457859Y-86832944D01*
X80457859Y-83434108D01*
X102999500Y-83434108D01*
X102999500Y-83565891D01*
X103033608Y-83693187D01*
X103066121Y-83749500D01*
X103099500Y-83807314D01*
X103192686Y-83900500D01*
X103306814Y-83966392D01*
X103434108Y-84000500D01*
X103434110Y-84000500D01*
X103565890Y-84000500D01*
X103565892Y-84000500D01*
X103693186Y-83966392D01*
X103807314Y-83900500D01*
X103900500Y-83807314D01*
X103966392Y-83693186D01*
X104000500Y-83565892D01*
X104000500Y-83434108D01*
X104499500Y-83434108D01*
X104499500Y-83565891D01*
X104533608Y-83693187D01*
X104566121Y-83749500D01*
X104599500Y-83807314D01*
X104692686Y-83900500D01*
X104806814Y-83966392D01*
X104934108Y-84000500D01*
X104934110Y-84000500D01*
X105065890Y-84000500D01*
X105065892Y-84000500D01*
X105193186Y-83966392D01*
X105307314Y-83900500D01*
X105400500Y-83807314D01*
X105466392Y-83693186D01*
X105500500Y-83565892D01*
X105500500Y-83434108D01*
X105749500Y-83434108D01*
X105749500Y-83565891D01*
X105783608Y-83693187D01*
X105816121Y-83749500D01*
X105849500Y-83807314D01*
X105942686Y-83900500D01*
X106056814Y-83966392D01*
X106184108Y-84000500D01*
X106184110Y-84000500D01*
X106315890Y-84000500D01*
X106315892Y-84000500D01*
X106443186Y-83966392D01*
X106557314Y-83900500D01*
X106650500Y-83807314D01*
X106716392Y-83693186D01*
X106750500Y-83565892D01*
X106750500Y-83434108D01*
X106999500Y-83434108D01*
X106999500Y-83565891D01*
X107033608Y-83693187D01*
X107066121Y-83749500D01*
X107099500Y-83807314D01*
X107192686Y-83900500D01*
X107306814Y-83966392D01*
X107434108Y-84000500D01*
X107434110Y-84000500D01*
X107565890Y-84000500D01*
X107565892Y-84000500D01*
X107693186Y-83966392D01*
X107807314Y-83900500D01*
X107900500Y-83807314D01*
X107966392Y-83693186D01*
X108000500Y-83565892D01*
X108000500Y-83434108D01*
X110749500Y-83434108D01*
X110749500Y-83565891D01*
X110783608Y-83693187D01*
X110816121Y-83749500D01*
X110849500Y-83807314D01*
X110849502Y-83807316D01*
X110942687Y-83900501D01*
X110944158Y-83901630D01*
X110945083Y-83902897D01*
X110948433Y-83906247D01*
X110947910Y-83906769D01*
X110985356Y-83958060D01*
X110989506Y-84027807D01*
X110955289Y-84088725D01*
X110944158Y-84098370D01*
X110942687Y-84099498D01*
X110849502Y-84192683D01*
X110849500Y-84192686D01*
X110783608Y-84306812D01*
X110749500Y-84434108D01*
X110749500Y-84565891D01*
X110783608Y-84693187D01*
X110797005Y-84716391D01*
X110849500Y-84807314D01*
X110942686Y-84900500D01*
X111056814Y-84966392D01*
X111184108Y-85000500D01*
X111184110Y-85000500D01*
X111315890Y-85000500D01*
X111315892Y-85000500D01*
X111443186Y-84966392D01*
X111557314Y-84900500D01*
X111650500Y-84807314D01*
X111716392Y-84693186D01*
X111750500Y-84565892D01*
X111750500Y-84434108D01*
X111716392Y-84306814D01*
X111650500Y-84192686D01*
X111641922Y-84184108D01*
X161999500Y-84184108D01*
X161999500Y-84315891D01*
X162033608Y-84443187D01*
X162053339Y-84477361D01*
X162099500Y-84557314D01*
X162192686Y-84650500D01*
X162306814Y-84716392D01*
X162434108Y-84750500D01*
X162434110Y-84750500D01*
X162565890Y-84750500D01*
X162565892Y-84750500D01*
X162693186Y-84716392D01*
X162807314Y-84650500D01*
X162900500Y-84557314D01*
X162966392Y-84443186D01*
X163000500Y-84315892D01*
X163000500Y-84184108D01*
X162966392Y-84056814D01*
X162900500Y-83942686D01*
X162807314Y-83849500D01*
X162750250Y-83816554D01*
X162693187Y-83783608D01*
X162629539Y-83766554D01*
X162565892Y-83749500D01*
X162434108Y-83749500D01*
X162306812Y-83783608D01*
X162192686Y-83849500D01*
X162192683Y-83849502D01*
X162099502Y-83942683D01*
X162099500Y-83942686D01*
X162033608Y-84056812D01*
X161999500Y-84184108D01*
X111641922Y-84184108D01*
X111557314Y-84099500D01*
X111549669Y-84095086D01*
X111537679Y-84081268D01*
X111528151Y-84060445D01*
X111514645Y-84041947D01*
X111513890Y-84029274D01*
X111508609Y-84017732D01*
X111511852Y-83995062D01*
X111510491Y-83972201D01*
X111516707Y-83961132D01*
X111518505Y-83948567D01*
X111533489Y-83931249D01*
X111544704Y-83911281D01*
X111555847Y-83901625D01*
X111557306Y-83900504D01*
X111557314Y-83900500D01*
X111650500Y-83807314D01*
X111716392Y-83693186D01*
X111742505Y-83595730D01*
X168874500Y-83595730D01*
X168874500Y-84904269D01*
X168877353Y-84934699D01*
X168877353Y-84934701D01*
X168920259Y-85057316D01*
X168922207Y-85062882D01*
X169002850Y-85172150D01*
X169112118Y-85252793D01*
X169154845Y-85267744D01*
X169240299Y-85297646D01*
X169270730Y-85300500D01*
X169270734Y-85300500D01*
X170829270Y-85300500D01*
X170859699Y-85297646D01*
X170859701Y-85297646D01*
X170923790Y-85275219D01*
X170987882Y-85252793D01*
X171097150Y-85172150D01*
X171177793Y-85062882D01*
X171200219Y-84998790D01*
X171222646Y-84934701D01*
X171222646Y-84934699D01*
X171225500Y-84904269D01*
X171225500Y-83595730D01*
X171222646Y-83565300D01*
X171222646Y-83565298D01*
X171177793Y-83437119D01*
X171177792Y-83437117D01*
X171175573Y-83434110D01*
X171097150Y-83327850D01*
X170987882Y-83247207D01*
X170987880Y-83247206D01*
X170859700Y-83202353D01*
X170829270Y-83199500D01*
X170829266Y-83199500D01*
X169270734Y-83199500D01*
X169270730Y-83199500D01*
X169240300Y-83202353D01*
X169240298Y-83202353D01*
X169112119Y-83247206D01*
X169112117Y-83247207D01*
X169002850Y-83327850D01*
X168922207Y-83437117D01*
X168922206Y-83437119D01*
X168877353Y-83565298D01*
X168877353Y-83565300D01*
X168874500Y-83595730D01*
X111742505Y-83595730D01*
X111750500Y-83565892D01*
X111750500Y-83434108D01*
X111716392Y-83306814D01*
X111650500Y-83192686D01*
X111557314Y-83099500D01*
X111500250Y-83066554D01*
X111443187Y-83033608D01*
X111379539Y-83016554D01*
X111315892Y-82999500D01*
X111184108Y-82999500D01*
X111056812Y-83033608D01*
X110942686Y-83099500D01*
X110942683Y-83099502D01*
X110849502Y-83192683D01*
X110849500Y-83192686D01*
X110783608Y-83306812D01*
X110749500Y-83434108D01*
X108000500Y-83434108D01*
X107966392Y-83306814D01*
X107900500Y-83192686D01*
X107807314Y-83099500D01*
X107750250Y-83066554D01*
X107693187Y-83033608D01*
X107629539Y-83016554D01*
X107565892Y-82999500D01*
X107434108Y-82999500D01*
X107306812Y-83033608D01*
X107192686Y-83099500D01*
X107192683Y-83099502D01*
X107099502Y-83192683D01*
X107099500Y-83192686D01*
X107033608Y-83306812D01*
X106999500Y-83434108D01*
X106750500Y-83434108D01*
X106716392Y-83306814D01*
X106650500Y-83192686D01*
X106557314Y-83099500D01*
X106500250Y-83066554D01*
X106443187Y-83033608D01*
X106379539Y-83016554D01*
X106315892Y-82999500D01*
X106184108Y-82999500D01*
X106056812Y-83033608D01*
X105942686Y-83099500D01*
X105942683Y-83099502D01*
X105849502Y-83192683D01*
X105849500Y-83192686D01*
X105783608Y-83306812D01*
X105749500Y-83434108D01*
X105500500Y-83434108D01*
X105466392Y-83306814D01*
X105400500Y-83192686D01*
X105307314Y-83099500D01*
X105250250Y-83066554D01*
X105193187Y-83033608D01*
X105129539Y-83016554D01*
X105065892Y-82999500D01*
X104934108Y-82999500D01*
X104806812Y-83033608D01*
X104692686Y-83099500D01*
X104692683Y-83099502D01*
X104599502Y-83192683D01*
X104599500Y-83192686D01*
X104533608Y-83306812D01*
X104499500Y-83434108D01*
X104000500Y-83434108D01*
X103966392Y-83306814D01*
X103900500Y-83192686D01*
X103807314Y-83099500D01*
X103750250Y-83066554D01*
X103693187Y-83033608D01*
X103629539Y-83016554D01*
X103565892Y-82999500D01*
X103434108Y-82999500D01*
X103306812Y-83033608D01*
X103192686Y-83099500D01*
X103192683Y-83099502D01*
X103099502Y-83192683D01*
X103099500Y-83192686D01*
X103033608Y-83306812D01*
X102999500Y-83434108D01*
X80457859Y-83434108D01*
X80457859Y-81684108D01*
X161999500Y-81684108D01*
X161999500Y-81815891D01*
X162033608Y-81943187D01*
X162066554Y-82000250D01*
X162099500Y-82057314D01*
X162192686Y-82150500D01*
X162306814Y-82216392D01*
X162434108Y-82250500D01*
X162434110Y-82250500D01*
X162565890Y-82250500D01*
X162565892Y-82250500D01*
X162693186Y-82216392D01*
X162807314Y-82150500D01*
X162900500Y-82057314D01*
X162966392Y-81943186D01*
X163000500Y-81815892D01*
X163000500Y-81684108D01*
X162990431Y-81646530D01*
X168874500Y-81646530D01*
X168874500Y-81853469D01*
X168914868Y-82056412D01*
X168914870Y-82056420D01*
X168981132Y-82216391D01*
X168994059Y-82247598D01*
X168995998Y-82250500D01*
X169109024Y-82419657D01*
X169255342Y-82565975D01*
X169255345Y-82565977D01*
X169427402Y-82680941D01*
X169618580Y-82760130D01*
X169821530Y-82800499D01*
X169821534Y-82800500D01*
X169821535Y-82800500D01*
X170278466Y-82800500D01*
X170278467Y-82800499D01*
X170481420Y-82760130D01*
X170672598Y-82680941D01*
X170844655Y-82565977D01*
X170990977Y-82419655D01*
X171105941Y-82247598D01*
X171185130Y-82056420D01*
X171225500Y-81853465D01*
X171225500Y-81646535D01*
X171185130Y-81443580D01*
X171105941Y-81252402D01*
X170990977Y-81080345D01*
X170990975Y-81080342D01*
X170844657Y-80934024D01*
X170758626Y-80876541D01*
X170672598Y-80819059D01*
X170481420Y-80739870D01*
X170481412Y-80739868D01*
X170278469Y-80699500D01*
X170278465Y-80699500D01*
X169821535Y-80699500D01*
X169821530Y-80699500D01*
X169618587Y-80739868D01*
X169618579Y-80739870D01*
X169427403Y-80819058D01*
X169255342Y-80934024D01*
X169109024Y-81080342D01*
X168994058Y-81252403D01*
X168914870Y-81443579D01*
X168914868Y-81443587D01*
X168874500Y-81646530D01*
X162990431Y-81646530D01*
X162966392Y-81556814D01*
X162900500Y-81442686D01*
X162807314Y-81349500D01*
X162750250Y-81316554D01*
X162693187Y-81283608D01*
X162629539Y-81266554D01*
X162565892Y-81249500D01*
X162434108Y-81249500D01*
X162306812Y-81283608D01*
X162192686Y-81349500D01*
X162192683Y-81349502D01*
X162099502Y-81442683D01*
X162099500Y-81442686D01*
X162033608Y-81556812D01*
X161999500Y-81684108D01*
X80457859Y-81684108D01*
X80457859Y-79434108D01*
X95999500Y-79434108D01*
X95999500Y-79565891D01*
X96033608Y-79693187D01*
X96047005Y-79716391D01*
X96099500Y-79807314D01*
X96192686Y-79900500D01*
X96306814Y-79966392D01*
X96434108Y-80000500D01*
X96434110Y-80000500D01*
X96565890Y-80000500D01*
X96565892Y-80000500D01*
X96693186Y-79966392D01*
X96807314Y-79900500D01*
X96900500Y-79807314D01*
X96966392Y-79693186D01*
X97000500Y-79565892D01*
X97000500Y-79434108D01*
X98999500Y-79434108D01*
X98999500Y-79565891D01*
X99033608Y-79693187D01*
X99047005Y-79716391D01*
X99099500Y-79807314D01*
X99192686Y-79900500D01*
X99306814Y-79966392D01*
X99434108Y-80000500D01*
X99434110Y-80000500D01*
X99565890Y-80000500D01*
X99565892Y-80000500D01*
X99693186Y-79966392D01*
X99807314Y-79900500D01*
X99900500Y-79807314D01*
X99966392Y-79693186D01*
X100000500Y-79565892D01*
X100000500Y-79434108D01*
X99966392Y-79306814D01*
X99900500Y-79192686D01*
X99891922Y-79184108D01*
X148999500Y-79184108D01*
X148999500Y-79315891D01*
X149033608Y-79443187D01*
X149066554Y-79500250D01*
X149099500Y-79557314D01*
X149192686Y-79650500D01*
X149306814Y-79716392D01*
X149434108Y-79750500D01*
X149434110Y-79750500D01*
X149565890Y-79750500D01*
X149565892Y-79750500D01*
X149693186Y-79716392D01*
X149807314Y-79650500D01*
X149900500Y-79557314D01*
X149966392Y-79443186D01*
X150000500Y-79315892D01*
X150000500Y-79184108D01*
X161999500Y-79184108D01*
X161999500Y-79315891D01*
X162033608Y-79443187D01*
X162066554Y-79500250D01*
X162099500Y-79557314D01*
X162192686Y-79650500D01*
X162306814Y-79716392D01*
X162434108Y-79750500D01*
X162434110Y-79750500D01*
X162565890Y-79750500D01*
X162565892Y-79750500D01*
X162693186Y-79716392D01*
X162807314Y-79650500D01*
X162900500Y-79557314D01*
X162966392Y-79443186D01*
X163000500Y-79315892D01*
X163000500Y-79184108D01*
X162990431Y-79146530D01*
X168874500Y-79146530D01*
X168874500Y-79353469D01*
X168914868Y-79556412D01*
X168914870Y-79556420D01*
X168981132Y-79716391D01*
X168994059Y-79747598D01*
X168995998Y-79750500D01*
X169109024Y-79919657D01*
X169255342Y-80065975D01*
X169255345Y-80065977D01*
X169427402Y-80180941D01*
X169618580Y-80260130D01*
X169821530Y-80300499D01*
X169821534Y-80300500D01*
X169821535Y-80300500D01*
X170278466Y-80300500D01*
X170278467Y-80300499D01*
X170481420Y-80260130D01*
X170672598Y-80180941D01*
X170844655Y-80065977D01*
X170990977Y-79919655D01*
X171105941Y-79747598D01*
X171185130Y-79556420D01*
X171225500Y-79353465D01*
X171225500Y-79146535D01*
X171185130Y-78943580D01*
X171105941Y-78752402D01*
X170990977Y-78580345D01*
X170990975Y-78580342D01*
X170844657Y-78434024D01*
X170758626Y-78376541D01*
X170672598Y-78319059D01*
X170643031Y-78306812D01*
X170481420Y-78239870D01*
X170481412Y-78239868D01*
X170278469Y-78199500D01*
X170278465Y-78199500D01*
X169821535Y-78199500D01*
X169821530Y-78199500D01*
X169618587Y-78239868D01*
X169618579Y-78239870D01*
X169427403Y-78319058D01*
X169255342Y-78434024D01*
X169109024Y-78580342D01*
X168994058Y-78752403D01*
X168914870Y-78943579D01*
X168914868Y-78943587D01*
X168874500Y-79146530D01*
X162990431Y-79146530D01*
X162966392Y-79056814D01*
X162900500Y-78942686D01*
X162807314Y-78849500D01*
X162750250Y-78816554D01*
X162693187Y-78783608D01*
X162629539Y-78766554D01*
X162565892Y-78749500D01*
X162434108Y-78749500D01*
X162306812Y-78783608D01*
X162192686Y-78849500D01*
X162192683Y-78849502D01*
X162099502Y-78942683D01*
X162099500Y-78942686D01*
X162033608Y-79056812D01*
X161999500Y-79184108D01*
X150000500Y-79184108D01*
X149966392Y-79056814D01*
X149900500Y-78942686D01*
X149807314Y-78849500D01*
X149750250Y-78816554D01*
X149693187Y-78783608D01*
X149629539Y-78766554D01*
X149565892Y-78749500D01*
X149434108Y-78749500D01*
X149306812Y-78783608D01*
X149192686Y-78849500D01*
X149192683Y-78849502D01*
X149099502Y-78942683D01*
X149099500Y-78942686D01*
X149033608Y-79056812D01*
X148999500Y-79184108D01*
X99891922Y-79184108D01*
X99807314Y-79099500D01*
X99733380Y-79056814D01*
X99693187Y-79033608D01*
X99629539Y-79016554D01*
X99565892Y-78999500D01*
X99434108Y-78999500D01*
X99306812Y-79033608D01*
X99192686Y-79099500D01*
X99192683Y-79099502D01*
X99099502Y-79192683D01*
X99099500Y-79192686D01*
X99033608Y-79306812D01*
X98999500Y-79434108D01*
X97000500Y-79434108D01*
X96966392Y-79306814D01*
X96900500Y-79192686D01*
X96807314Y-79099500D01*
X96733380Y-79056814D01*
X96693187Y-79033608D01*
X96629539Y-79016554D01*
X96565892Y-78999500D01*
X96434108Y-78999500D01*
X96306812Y-79033608D01*
X96192686Y-79099500D01*
X96192683Y-79099502D01*
X96099502Y-79192683D01*
X96099500Y-79192686D01*
X96033608Y-79306812D01*
X95999500Y-79434108D01*
X80457859Y-79434108D01*
X80457859Y-78434108D01*
X94249500Y-78434108D01*
X94249500Y-78565891D01*
X94283608Y-78693187D01*
X94316121Y-78749500D01*
X94349500Y-78807314D01*
X94442686Y-78900500D01*
X94556814Y-78966392D01*
X94684108Y-79000500D01*
X94684110Y-79000500D01*
X94815890Y-79000500D01*
X94815892Y-79000500D01*
X94943186Y-78966392D01*
X95057314Y-78900500D01*
X95150500Y-78807314D01*
X95216392Y-78693186D01*
X95250500Y-78565892D01*
X95250500Y-78434108D01*
X100499500Y-78434108D01*
X100499500Y-78565891D01*
X100533608Y-78693187D01*
X100566121Y-78749500D01*
X100599500Y-78807314D01*
X100692686Y-78900500D01*
X100806814Y-78966392D01*
X100934108Y-79000500D01*
X100934110Y-79000500D01*
X101065890Y-79000500D01*
X101065892Y-79000500D01*
X101193186Y-78966392D01*
X101307314Y-78900500D01*
X101400500Y-78807314D01*
X101466392Y-78693186D01*
X101500500Y-78565892D01*
X101500500Y-78434108D01*
X101466392Y-78306814D01*
X101400500Y-78192686D01*
X101307314Y-78099500D01*
X101250250Y-78066554D01*
X101193187Y-78033608D01*
X101129539Y-78016554D01*
X101065892Y-77999500D01*
X100934108Y-77999500D01*
X100806812Y-78033608D01*
X100692686Y-78099500D01*
X100692683Y-78099502D01*
X100599502Y-78192683D01*
X100599500Y-78192686D01*
X100533608Y-78306812D01*
X100499500Y-78434108D01*
X95250500Y-78434108D01*
X95216392Y-78306814D01*
X95150500Y-78192686D01*
X95057314Y-78099500D01*
X95000250Y-78066554D01*
X94943187Y-78033608D01*
X94879539Y-78016554D01*
X94815892Y-77999500D01*
X94684108Y-77999500D01*
X94556812Y-78033608D01*
X94442686Y-78099500D01*
X94442683Y-78099502D01*
X94349502Y-78192683D01*
X94349500Y-78192686D01*
X94283608Y-78306812D01*
X94249500Y-78434108D01*
X80457859Y-78434108D01*
X80457859Y-76684108D01*
X94249500Y-76684108D01*
X94249500Y-76815891D01*
X94283608Y-76943187D01*
X94297005Y-76966391D01*
X94349500Y-77057314D01*
X94442686Y-77150500D01*
X94556814Y-77216392D01*
X94684108Y-77250500D01*
X94684110Y-77250500D01*
X94815890Y-77250500D01*
X94815892Y-77250500D01*
X94943186Y-77216392D01*
X95057314Y-77150500D01*
X95150500Y-77057314D01*
X95216392Y-76943186D01*
X95250500Y-76815892D01*
X95250500Y-76684108D01*
X100499500Y-76684108D01*
X100499500Y-76815891D01*
X100533608Y-76943187D01*
X100547005Y-76966391D01*
X100599500Y-77057314D01*
X100692686Y-77150500D01*
X100806814Y-77216392D01*
X100934108Y-77250500D01*
X100934110Y-77250500D01*
X101065890Y-77250500D01*
X101065892Y-77250500D01*
X101193186Y-77216392D01*
X101307314Y-77150500D01*
X101400500Y-77057314D01*
X101466392Y-76943186D01*
X101500500Y-76815892D01*
X101500500Y-76684108D01*
X101466392Y-76556814D01*
X101400500Y-76442686D01*
X101391922Y-76434108D01*
X152999500Y-76434108D01*
X152999500Y-76565891D01*
X153033608Y-76693187D01*
X153066554Y-76750250D01*
X153099500Y-76807314D01*
X153192686Y-76900500D01*
X153306814Y-76966392D01*
X153434108Y-77000500D01*
X153434110Y-77000500D01*
X153565890Y-77000500D01*
X153565892Y-77000500D01*
X153693186Y-76966392D01*
X153807314Y-76900500D01*
X153900500Y-76807314D01*
X153966392Y-76693186D01*
X154000500Y-76565892D01*
X154000500Y-76434108D01*
X153966392Y-76306814D01*
X153900500Y-76192686D01*
X153807314Y-76099500D01*
X153750250Y-76066554D01*
X153693187Y-76033608D01*
X153629539Y-76016554D01*
X153565892Y-75999500D01*
X153434108Y-75999500D01*
X153306812Y-76033608D01*
X153192686Y-76099500D01*
X153192683Y-76099502D01*
X153099502Y-76192683D01*
X153099500Y-76192686D01*
X153033608Y-76306812D01*
X152999500Y-76434108D01*
X101391922Y-76434108D01*
X101307314Y-76349500D01*
X101233380Y-76306814D01*
X101193187Y-76283608D01*
X101129539Y-76266554D01*
X101065892Y-76249500D01*
X100934108Y-76249500D01*
X100806812Y-76283608D01*
X100692686Y-76349500D01*
X100692683Y-76349502D01*
X100599502Y-76442683D01*
X100599500Y-76442686D01*
X100533608Y-76556812D01*
X100499500Y-76684108D01*
X95250500Y-76684108D01*
X95216392Y-76556814D01*
X95150500Y-76442686D01*
X95057314Y-76349500D01*
X94983380Y-76306814D01*
X94943187Y-76283608D01*
X94879539Y-76266554D01*
X94815892Y-76249500D01*
X94684108Y-76249500D01*
X94556812Y-76283608D01*
X94442686Y-76349500D01*
X94442683Y-76349502D01*
X94349502Y-76442683D01*
X94349500Y-76442686D01*
X94283608Y-76556812D01*
X94249500Y-76684108D01*
X80457859Y-76684108D01*
X80457859Y-73934108D01*
X137249500Y-73934108D01*
X137249500Y-74065891D01*
X137283608Y-74193187D01*
X137316554Y-74250250D01*
X137349500Y-74307314D01*
X137442686Y-74400500D01*
X137556814Y-74466392D01*
X137684108Y-74500500D01*
X137684110Y-74500500D01*
X137815890Y-74500500D01*
X137815892Y-74500500D01*
X137943186Y-74466392D01*
X138057314Y-74400500D01*
X138150500Y-74307314D01*
X138216392Y-74193186D01*
X138250500Y-74065892D01*
X138250500Y-73934108D01*
X138216392Y-73806814D01*
X138150500Y-73692686D01*
X138057314Y-73599500D01*
X138000250Y-73566554D01*
X137943187Y-73533608D01*
X137879539Y-73516554D01*
X137815892Y-73499500D01*
X137684108Y-73499500D01*
X137556812Y-73533608D01*
X137442686Y-73599500D01*
X137442683Y-73599502D01*
X137349502Y-73692683D01*
X137349500Y-73692686D01*
X137283608Y-73806812D01*
X137249500Y-73934108D01*
X80457859Y-73934108D01*
X80457859Y-73184108D01*
X135999500Y-73184108D01*
X135999500Y-73315891D01*
X136033608Y-73443187D01*
X136066121Y-73499500D01*
X136099500Y-73557314D01*
X136192686Y-73650500D01*
X136306814Y-73716392D01*
X136434108Y-73750500D01*
X136434110Y-73750500D01*
X136565890Y-73750500D01*
X136565892Y-73750500D01*
X136693186Y-73716392D01*
X136807314Y-73650500D01*
X136900500Y-73557314D01*
X136966392Y-73443186D01*
X137000500Y-73315892D01*
X137000500Y-73184108D01*
X136966392Y-73056814D01*
X136900500Y-72942686D01*
X136807314Y-72849500D01*
X136750250Y-72816554D01*
X136693187Y-72783608D01*
X136629539Y-72766554D01*
X136565892Y-72749500D01*
X136434108Y-72749500D01*
X136306812Y-72783608D01*
X136192686Y-72849500D01*
X136192683Y-72849502D01*
X136099502Y-72942683D01*
X136099500Y-72942686D01*
X136033608Y-73056812D01*
X135999500Y-73184108D01*
X80457859Y-73184108D01*
X80457859Y-72595730D01*
X168849500Y-72595730D01*
X168849500Y-73904269D01*
X168852353Y-73934699D01*
X168852353Y-73934701D01*
X168897206Y-74062880D01*
X168897207Y-74062882D01*
X168977850Y-74172150D01*
X169087118Y-74252793D01*
X169129845Y-74267744D01*
X169215299Y-74297646D01*
X169245730Y-74300500D01*
X169245734Y-74300500D01*
X170854270Y-74300500D01*
X170884699Y-74297646D01*
X170884701Y-74297646D01*
X170948790Y-74275219D01*
X171012882Y-74252793D01*
X171122150Y-74172150D01*
X171202793Y-74062882D01*
X171225219Y-73998790D01*
X171247646Y-73934701D01*
X171247646Y-73934699D01*
X171250500Y-73904269D01*
X171250500Y-72595730D01*
X171247646Y-72565300D01*
X171247646Y-72565298D01*
X171202793Y-72437119D01*
X171202792Y-72437117D01*
X171122150Y-72327850D01*
X171012882Y-72247207D01*
X171012880Y-72247206D01*
X170884700Y-72202353D01*
X170854270Y-72199500D01*
X170854266Y-72199500D01*
X169245734Y-72199500D01*
X169245730Y-72199500D01*
X169215300Y-72202353D01*
X169215298Y-72202353D01*
X169087119Y-72247206D01*
X169087117Y-72247207D01*
X168977850Y-72327850D01*
X168897207Y-72437117D01*
X168897206Y-72437119D01*
X168852353Y-72565298D01*
X168852353Y-72565300D01*
X168849500Y-72595730D01*
X80457859Y-72595730D01*
X80457859Y-70434108D01*
X134499500Y-70434108D01*
X134499500Y-70565892D01*
X134516554Y-70629539D01*
X134533608Y-70693187D01*
X134566554Y-70750250D01*
X134599500Y-70807314D01*
X134692686Y-70900500D01*
X134806814Y-70966392D01*
X134934108Y-71000500D01*
X134934110Y-71000500D01*
X135065890Y-71000500D01*
X135065892Y-71000500D01*
X135193186Y-70966392D01*
X135307314Y-70900500D01*
X135400500Y-70807314D01*
X135466392Y-70693186D01*
X135478893Y-70646530D01*
X168849500Y-70646530D01*
X168849500Y-70853469D01*
X168889868Y-71056412D01*
X168889870Y-71056420D01*
X168969058Y-71247596D01*
X169084024Y-71419657D01*
X169230342Y-71565975D01*
X169230345Y-71565977D01*
X169402402Y-71680941D01*
X169593580Y-71760130D01*
X169796530Y-71800499D01*
X169796534Y-71800500D01*
X169796535Y-71800500D01*
X170303466Y-71800500D01*
X170303467Y-71800499D01*
X170506420Y-71760130D01*
X170697598Y-71680941D01*
X170869655Y-71565977D01*
X171015977Y-71419655D01*
X171130941Y-71247598D01*
X171210130Y-71056420D01*
X171250500Y-70853465D01*
X171250500Y-70646535D01*
X171210130Y-70443580D01*
X171130941Y-70252402D01*
X171015977Y-70080345D01*
X171015975Y-70080342D01*
X170869657Y-69934024D01*
X170783626Y-69876541D01*
X170697598Y-69819059D01*
X170506420Y-69739870D01*
X170506412Y-69739868D01*
X170303469Y-69699500D01*
X170303465Y-69699500D01*
X169796535Y-69699500D01*
X169796530Y-69699500D01*
X169593587Y-69739868D01*
X169593579Y-69739870D01*
X169402403Y-69819058D01*
X169230342Y-69934024D01*
X169084024Y-70080342D01*
X168969058Y-70252403D01*
X168889870Y-70443579D01*
X168889868Y-70443587D01*
X168849500Y-70646530D01*
X135478893Y-70646530D01*
X135500500Y-70565892D01*
X135500500Y-70434108D01*
X135466392Y-70306814D01*
X135400500Y-70192686D01*
X135307314Y-70099500D01*
X135250250Y-70066554D01*
X135193187Y-70033608D01*
X135129539Y-70016554D01*
X135065892Y-69999500D01*
X134934108Y-69999500D01*
X134806812Y-70033608D01*
X134692686Y-70099500D01*
X134692683Y-70099502D01*
X134599502Y-70192683D01*
X134599500Y-70192686D01*
X134533608Y-70306812D01*
X134499500Y-70434108D01*
X80457859Y-70434108D01*
X80457859Y-67684108D01*
X132249500Y-67684108D01*
X132249500Y-67815891D01*
X132283608Y-67943187D01*
X132316554Y-68000250D01*
X132349500Y-68057314D01*
X132442686Y-68150500D01*
X132556814Y-68216392D01*
X132684108Y-68250500D01*
X132684110Y-68250500D01*
X132815890Y-68250500D01*
X132815892Y-68250500D01*
X132943186Y-68216392D01*
X133057314Y-68150500D01*
X133150500Y-68057314D01*
X133216392Y-67943186D01*
X133250500Y-67815892D01*
X133250500Y-67684108D01*
X133999500Y-67684108D01*
X133999500Y-67815891D01*
X134033608Y-67943187D01*
X134066554Y-68000250D01*
X134099500Y-68057314D01*
X134192686Y-68150500D01*
X134306814Y-68216392D01*
X134434108Y-68250500D01*
X134434110Y-68250500D01*
X134565890Y-68250500D01*
X134565892Y-68250500D01*
X134693186Y-68216392D01*
X134807314Y-68150500D01*
X134900500Y-68057314D01*
X134966392Y-67943186D01*
X135000500Y-67815892D01*
X135000500Y-67684108D01*
X134966392Y-67556814D01*
X134900500Y-67442686D01*
X134807314Y-67349500D01*
X134750250Y-67316554D01*
X134693187Y-67283608D01*
X134629539Y-67266554D01*
X134565892Y-67249500D01*
X134434108Y-67249500D01*
X134306812Y-67283608D01*
X134192686Y-67349500D01*
X134192683Y-67349502D01*
X134099502Y-67442683D01*
X134099500Y-67442686D01*
X134033608Y-67556812D01*
X133999500Y-67684108D01*
X133250500Y-67684108D01*
X133216392Y-67556814D01*
X133150500Y-67442686D01*
X133057314Y-67349500D01*
X133000250Y-67316554D01*
X132943187Y-67283608D01*
X132879539Y-67266554D01*
X132815892Y-67249500D01*
X132684108Y-67249500D01*
X132556812Y-67283608D01*
X132442686Y-67349500D01*
X132442683Y-67349502D01*
X132349502Y-67442683D01*
X132349500Y-67442686D01*
X132283608Y-67556812D01*
X132249500Y-67684108D01*
X80457859Y-67684108D01*
X80457859Y-66984108D01*
X146049500Y-66984108D01*
X146049500Y-67115891D01*
X146083608Y-67243187D01*
X146087253Y-67249500D01*
X146149500Y-67357314D01*
X146149502Y-67357316D01*
X146242687Y-67450501D01*
X146244158Y-67451630D01*
X146245083Y-67452897D01*
X146248433Y-67456247D01*
X146247910Y-67456769D01*
X146285356Y-67508060D01*
X146289506Y-67577807D01*
X146255289Y-67638725D01*
X146244158Y-67648370D01*
X146242687Y-67649498D01*
X146149502Y-67742683D01*
X146149500Y-67742686D01*
X146083608Y-67856812D01*
X146049500Y-67984108D01*
X146049500Y-68115891D01*
X146083608Y-68243187D01*
X146116554Y-68300250D01*
X146149500Y-68357314D01*
X146242686Y-68450500D01*
X146356814Y-68516392D01*
X146484108Y-68550500D01*
X146484110Y-68550500D01*
X146615890Y-68550500D01*
X146615892Y-68550500D01*
X146743186Y-68516392D01*
X146857314Y-68450500D01*
X146950500Y-68357314D01*
X147016392Y-68243186D01*
X147050500Y-68115892D01*
X147050500Y-67984108D01*
X147016392Y-67856814D01*
X146950500Y-67742686D01*
X146857314Y-67649500D01*
X146857311Y-67649498D01*
X146855847Y-67648375D01*
X146854921Y-67647107D01*
X146851567Y-67643753D01*
X146852090Y-67643229D01*
X146814645Y-67591947D01*
X146810491Y-67522201D01*
X146844704Y-67461281D01*
X146855847Y-67451625D01*
X146857306Y-67450504D01*
X146857314Y-67450500D01*
X146950500Y-67357314D01*
X147016392Y-67243186D01*
X147050500Y-67115892D01*
X147050500Y-66984108D01*
X147016392Y-66856814D01*
X146950500Y-66742686D01*
X146857314Y-66649500D01*
X146800250Y-66616554D01*
X146743187Y-66583608D01*
X146679539Y-66566554D01*
X146615892Y-66549500D01*
X146484108Y-66549500D01*
X146356812Y-66583608D01*
X146242686Y-66649500D01*
X146242683Y-66649502D01*
X146149502Y-66742683D01*
X146149500Y-66742686D01*
X146083608Y-66856812D01*
X146049500Y-66984108D01*
X80457859Y-66984108D01*
X80457859Y-65017615D01*
X80477544Y-64950576D01*
X80483109Y-64942619D01*
X80515099Y-64900497D01*
X80707355Y-64647344D01*
X81059158Y-64184108D01*
X132249500Y-64184108D01*
X132249500Y-64315891D01*
X132283608Y-64443187D01*
X132303438Y-64477533D01*
X132349500Y-64557314D01*
X132442686Y-64650500D01*
X132556814Y-64716392D01*
X132684108Y-64750500D01*
X132684110Y-64750500D01*
X132815890Y-64750500D01*
X132815892Y-64750500D01*
X132943186Y-64716392D01*
X133057314Y-64650500D01*
X133150500Y-64557314D01*
X133216392Y-64443186D01*
X133218824Y-64434108D01*
X149499500Y-64434108D01*
X149499500Y-64565891D01*
X149533608Y-64693187D01*
X149543728Y-64710715D01*
X149599500Y-64807314D01*
X149692686Y-64900500D01*
X149806814Y-64966392D01*
X149934108Y-65000500D01*
X149934110Y-65000500D01*
X150065890Y-65000500D01*
X150065892Y-65000500D01*
X150193186Y-64966392D01*
X150307314Y-64900500D01*
X150400500Y-64807314D01*
X150466392Y-64693186D01*
X150500500Y-64565892D01*
X150500500Y-64434108D01*
X150466392Y-64306814D01*
X150400500Y-64192686D01*
X150307827Y-64100013D01*
X168575000Y-64100013D01*
X168575000Y-64500000D01*
X169645854Y-64500000D01*
X169607370Y-64566657D01*
X169575000Y-64687465D01*
X169575000Y-64812535D01*
X169607370Y-64933343D01*
X169645854Y-65000000D01*
X168575001Y-65000000D01*
X168575001Y-65399986D01*
X168585494Y-65502697D01*
X168640641Y-65669119D01*
X168640643Y-65669124D01*
X168732684Y-65818345D01*
X168856654Y-65942315D01*
X169005875Y-66034356D01*
X169005880Y-66034358D01*
X169172302Y-66089505D01*
X169172309Y-66089506D01*
X169275019Y-66099999D01*
X169799999Y-66099999D01*
X169800000Y-66099998D01*
X169800000Y-65154145D01*
X169866657Y-65192630D01*
X169987465Y-65225000D01*
X170112535Y-65225000D01*
X170233343Y-65192630D01*
X170300000Y-65154145D01*
X170300000Y-66099999D01*
X170824972Y-66099999D01*
X170824986Y-66099998D01*
X170927697Y-66089505D01*
X171094119Y-66034358D01*
X171094124Y-66034356D01*
X171243345Y-65942315D01*
X171367315Y-65818345D01*
X171459356Y-65669124D01*
X171459358Y-65669119D01*
X171514505Y-65502697D01*
X171514506Y-65502690D01*
X171524999Y-65399986D01*
X171525000Y-65399973D01*
X171525000Y-65000000D01*
X170454146Y-65000000D01*
X170492630Y-64933343D01*
X170525000Y-64812535D01*
X170525000Y-64687465D01*
X170492630Y-64566657D01*
X170454146Y-64500000D01*
X171524999Y-64500000D01*
X171524999Y-64100028D01*
X171524998Y-64100013D01*
X171514505Y-63997302D01*
X171459358Y-63830880D01*
X171459356Y-63830875D01*
X171367315Y-63681654D01*
X171243345Y-63557684D01*
X171094124Y-63465643D01*
X171094119Y-63465641D01*
X170927697Y-63410494D01*
X170927690Y-63410493D01*
X170824986Y-63400000D01*
X170753526Y-63400000D01*
X170686487Y-63380315D01*
X170640732Y-63327511D01*
X170630788Y-63258353D01*
X170659813Y-63194797D01*
X170684633Y-63172899D01*
X170844655Y-63065977D01*
X170990977Y-62919655D01*
X171105941Y-62747598D01*
X171185130Y-62556420D01*
X171225500Y-62353465D01*
X171225500Y-62146535D01*
X171185130Y-61943580D01*
X171105941Y-61752402D01*
X170990977Y-61580345D01*
X170990975Y-61580342D01*
X170844657Y-61434024D01*
X170758626Y-61376541D01*
X170672598Y-61319059D01*
X170643031Y-61306812D01*
X170481420Y-61239870D01*
X170481412Y-61239868D01*
X170278469Y-61199500D01*
X170278465Y-61199500D01*
X169821535Y-61199500D01*
X169821530Y-61199500D01*
X169618587Y-61239868D01*
X169618579Y-61239870D01*
X169427403Y-61319058D01*
X169255342Y-61434024D01*
X169109024Y-61580342D01*
X168994058Y-61752403D01*
X168914870Y-61943579D01*
X168914868Y-61943587D01*
X168874500Y-62146530D01*
X168874500Y-62353469D01*
X168914868Y-62556412D01*
X168914870Y-62556420D01*
X168981132Y-62716391D01*
X168994059Y-62747598D01*
X168995998Y-62750500D01*
X169109024Y-62919657D01*
X169255342Y-63065975D01*
X169255345Y-63065977D01*
X169415367Y-63172899D01*
X169460170Y-63226509D01*
X169468878Y-63295834D01*
X169438724Y-63358862D01*
X169379282Y-63395581D01*
X169346477Y-63400000D01*
X169275029Y-63400000D01*
X169275012Y-63400001D01*
X169172302Y-63410494D01*
X169005880Y-63465641D01*
X169005875Y-63465643D01*
X168856654Y-63557684D01*
X168732684Y-63681654D01*
X168640643Y-63830875D01*
X168640641Y-63830880D01*
X168585494Y-63997302D01*
X168585493Y-63997309D01*
X168575000Y-64100013D01*
X150307827Y-64100013D01*
X150307314Y-64099500D01*
X150233380Y-64056814D01*
X150193187Y-64033608D01*
X150129539Y-64016554D01*
X150065892Y-63999500D01*
X149934108Y-63999500D01*
X149806812Y-64033608D01*
X149692686Y-64099500D01*
X149692683Y-64099502D01*
X149599502Y-64192683D01*
X149599500Y-64192686D01*
X149533608Y-64306812D01*
X149499500Y-64434108D01*
X133218824Y-64434108D01*
X133250500Y-64315892D01*
X133250500Y-64184108D01*
X133216392Y-64056814D01*
X133150500Y-63942686D01*
X133057314Y-63849500D01*
X133000250Y-63816554D01*
X132943187Y-63783608D01*
X132879539Y-63766554D01*
X132815892Y-63749500D01*
X132684108Y-63749500D01*
X132556812Y-63783608D01*
X132442686Y-63849500D01*
X132442683Y-63849502D01*
X132349502Y-63942683D01*
X132349500Y-63942686D01*
X132283608Y-64056812D01*
X132249500Y-64184108D01*
X81059158Y-64184108D01*
X81122286Y-64100985D01*
X82578052Y-62184108D01*
X99999500Y-62184108D01*
X99999500Y-62315891D01*
X100033608Y-62443187D01*
X100047005Y-62466391D01*
X100099500Y-62557314D01*
X100192686Y-62650500D01*
X100306814Y-62716392D01*
X100434108Y-62750500D01*
X100434110Y-62750500D01*
X100565890Y-62750500D01*
X100565892Y-62750500D01*
X100693186Y-62716392D01*
X100749103Y-62684108D01*
X103749500Y-62684108D01*
X103749500Y-62815891D01*
X103783608Y-62943187D01*
X103816554Y-63000250D01*
X103849500Y-63057314D01*
X103942686Y-63150500D01*
X104056814Y-63216392D01*
X104184108Y-63250500D01*
X104184110Y-63250500D01*
X104315890Y-63250500D01*
X104315892Y-63250500D01*
X104443186Y-63216392D01*
X104557314Y-63150500D01*
X104650500Y-63057314D01*
X104716392Y-62943186D01*
X104750500Y-62815892D01*
X104750500Y-62684108D01*
X108249500Y-62684108D01*
X108249500Y-62815891D01*
X108283608Y-62943187D01*
X108316554Y-63000250D01*
X108349500Y-63057314D01*
X108442686Y-63150500D01*
X108556814Y-63216392D01*
X108684108Y-63250500D01*
X108684110Y-63250500D01*
X108815890Y-63250500D01*
X108815892Y-63250500D01*
X108943186Y-63216392D01*
X109057314Y-63150500D01*
X109150500Y-63057314D01*
X109216392Y-62943186D01*
X109218824Y-62934108D01*
X150999500Y-62934108D01*
X150999500Y-63065892D01*
X150999523Y-63065977D01*
X151033608Y-63193187D01*
X151034538Y-63194797D01*
X151099500Y-63307314D01*
X151192686Y-63400500D01*
X151291521Y-63457563D01*
X151305516Y-63465643D01*
X151306814Y-63466392D01*
X151434108Y-63500500D01*
X151434110Y-63500500D01*
X151565890Y-63500500D01*
X151565892Y-63500500D01*
X151693186Y-63466392D01*
X151807314Y-63400500D01*
X151900500Y-63307314D01*
X151966392Y-63193186D01*
X152000500Y-63065892D01*
X152000500Y-62934108D01*
X151966392Y-62806814D01*
X151900500Y-62692686D01*
X151807314Y-62599500D01*
X151750250Y-62566554D01*
X151693187Y-62533608D01*
X151616417Y-62513038D01*
X151565892Y-62499500D01*
X151434108Y-62499500D01*
X151306812Y-62533608D01*
X151192686Y-62599500D01*
X151192683Y-62599502D01*
X151099502Y-62692683D01*
X151099500Y-62692686D01*
X151033608Y-62806812D01*
X151010277Y-62893886D01*
X150999500Y-62934108D01*
X109218824Y-62934108D01*
X109250500Y-62815892D01*
X109250500Y-62684108D01*
X109238882Y-62640748D01*
X109240544Y-62570901D01*
X109279705Y-62513038D01*
X109343934Y-62485533D01*
X109390747Y-62488881D01*
X109434108Y-62500500D01*
X109434110Y-62500500D01*
X109565890Y-62500500D01*
X109565892Y-62500500D01*
X109693186Y-62466392D01*
X109807314Y-62400500D01*
X109900500Y-62307314D01*
X109966392Y-62193186D01*
X110000500Y-62065892D01*
X110000500Y-61934108D01*
X129999500Y-61934108D01*
X129999500Y-62065891D01*
X130033608Y-62193187D01*
X130058882Y-62236962D01*
X130099500Y-62307314D01*
X130192686Y-62400500D01*
X130306814Y-62466392D01*
X130434108Y-62500500D01*
X130434110Y-62500500D01*
X130565890Y-62500500D01*
X130565892Y-62500500D01*
X130693186Y-62466392D01*
X130807314Y-62400500D01*
X130900500Y-62307314D01*
X130966392Y-62193186D01*
X130968824Y-62184108D01*
X142499500Y-62184108D01*
X142499500Y-62315891D01*
X142533608Y-62443187D01*
X142547005Y-62466391D01*
X142599500Y-62557314D01*
X142692686Y-62650500D01*
X142806814Y-62716392D01*
X142934108Y-62750500D01*
X142934110Y-62750500D01*
X143065890Y-62750500D01*
X143065892Y-62750500D01*
X143193186Y-62716392D01*
X143307314Y-62650500D01*
X143400500Y-62557314D01*
X143466392Y-62443186D01*
X143500500Y-62315892D01*
X143500500Y-62184108D01*
X143466392Y-62056814D01*
X143400500Y-61942686D01*
X143307314Y-61849500D01*
X143250250Y-61816554D01*
X143193187Y-61783608D01*
X143129539Y-61766554D01*
X143065892Y-61749500D01*
X142934108Y-61749500D01*
X142806812Y-61783608D01*
X142692686Y-61849500D01*
X142692683Y-61849502D01*
X142599502Y-61942683D01*
X142599500Y-61942686D01*
X142533608Y-62056812D01*
X142499500Y-62184108D01*
X130968824Y-62184108D01*
X131000500Y-62065892D01*
X131000500Y-61934108D01*
X130966392Y-61806814D01*
X130900500Y-61692686D01*
X130807314Y-61599500D01*
X130693186Y-61533608D01*
X130565892Y-61499500D01*
X130434108Y-61499500D01*
X130306812Y-61533608D01*
X130192686Y-61599500D01*
X130192683Y-61599502D01*
X130099502Y-61692683D01*
X130099500Y-61692686D01*
X130033608Y-61806812D01*
X129999500Y-61934108D01*
X110000500Y-61934108D01*
X109966392Y-61806814D01*
X109900500Y-61692686D01*
X109807314Y-61599500D01*
X109749100Y-61565890D01*
X109693187Y-61533608D01*
X109629539Y-61516554D01*
X109565892Y-61499500D01*
X109434108Y-61499500D01*
X109306812Y-61533608D01*
X109192686Y-61599500D01*
X109192683Y-61599502D01*
X109099502Y-61692683D01*
X109099500Y-61692686D01*
X109033608Y-61806812D01*
X108999500Y-61934108D01*
X108999500Y-62065891D01*
X109011118Y-62109250D01*
X109009455Y-62179100D01*
X108970292Y-62236962D01*
X108906064Y-62264466D01*
X108859251Y-62261118D01*
X108815892Y-62249500D01*
X108684108Y-62249500D01*
X108556812Y-62283608D01*
X108442686Y-62349500D01*
X108442683Y-62349502D01*
X108349502Y-62442683D01*
X108349500Y-62442686D01*
X108283608Y-62556812D01*
X108249500Y-62684108D01*
X104750500Y-62684108D01*
X104716392Y-62556814D01*
X104650500Y-62442686D01*
X104557314Y-62349500D01*
X104499100Y-62315890D01*
X104443187Y-62283608D01*
X104359251Y-62261118D01*
X104315892Y-62249500D01*
X104184108Y-62249500D01*
X104056812Y-62283608D01*
X103942686Y-62349500D01*
X103942683Y-62349502D01*
X103849502Y-62442683D01*
X103849500Y-62442686D01*
X103783608Y-62556812D01*
X103749500Y-62684108D01*
X100749103Y-62684108D01*
X100807314Y-62650500D01*
X100900500Y-62557314D01*
X100966392Y-62443186D01*
X101000500Y-62315892D01*
X101000500Y-62184108D01*
X100966392Y-62056814D01*
X100900500Y-61942686D01*
X100891922Y-61934108D01*
X104999500Y-61934108D01*
X104999500Y-62065891D01*
X105033608Y-62193187D01*
X105058882Y-62236962D01*
X105099500Y-62307314D01*
X105192686Y-62400500D01*
X105306814Y-62466392D01*
X105434108Y-62500500D01*
X105434110Y-62500500D01*
X105565890Y-62500500D01*
X105565892Y-62500500D01*
X105693186Y-62466392D01*
X105807314Y-62400500D01*
X105900500Y-62307314D01*
X105966392Y-62193186D01*
X106000500Y-62065892D01*
X106000500Y-61934108D01*
X105966392Y-61806814D01*
X105900500Y-61692686D01*
X105807314Y-61599500D01*
X105749100Y-61565890D01*
X105693187Y-61533608D01*
X105629539Y-61516554D01*
X105565892Y-61499500D01*
X105434108Y-61499500D01*
X105306812Y-61533608D01*
X105192686Y-61599500D01*
X105192683Y-61599502D01*
X105099502Y-61692683D01*
X105099500Y-61692686D01*
X105033608Y-61806812D01*
X104999500Y-61934108D01*
X100891922Y-61934108D01*
X100807314Y-61849500D01*
X100750250Y-61816554D01*
X100693187Y-61783608D01*
X100629539Y-61766554D01*
X100565892Y-61749500D01*
X100434108Y-61749500D01*
X100306812Y-61783608D01*
X100192686Y-61849500D01*
X100192683Y-61849502D01*
X100099502Y-61942683D01*
X100099500Y-61942686D01*
X100033608Y-62056812D01*
X99999500Y-62184108D01*
X82578052Y-62184108D01*
X82641180Y-62100985D01*
X83147638Y-61434108D01*
X150999500Y-61434108D01*
X150999500Y-61565891D01*
X151033608Y-61693187D01*
X151066121Y-61749500D01*
X151099500Y-61807314D01*
X151192686Y-61900500D01*
X151306814Y-61966392D01*
X151434108Y-62000500D01*
X151434110Y-62000500D01*
X151565890Y-62000500D01*
X151565892Y-62000500D01*
X151693186Y-61966392D01*
X151807314Y-61900500D01*
X151900500Y-61807314D01*
X151966392Y-61693186D01*
X152000500Y-61565892D01*
X152000500Y-61434108D01*
X151966392Y-61306814D01*
X151900500Y-61192686D01*
X151807314Y-61099500D01*
X151750250Y-61066554D01*
X151693187Y-61033608D01*
X151629539Y-61016554D01*
X151565892Y-60999500D01*
X151434108Y-60999500D01*
X151306812Y-61033608D01*
X151192686Y-61099500D01*
X151192683Y-61099502D01*
X151099502Y-61192683D01*
X151099500Y-61192686D01*
X151033608Y-61306812D01*
X150999500Y-61434108D01*
X83147638Y-61434108D01*
X84476670Y-59684108D01*
X167499500Y-59684108D01*
X167499500Y-59815891D01*
X167533608Y-59943187D01*
X167566554Y-60000250D01*
X167599500Y-60057314D01*
X167692686Y-60150500D01*
X167806814Y-60216392D01*
X167934108Y-60250500D01*
X167934110Y-60250500D01*
X168065890Y-60250500D01*
X168065892Y-60250500D01*
X168193186Y-60216392D01*
X168307314Y-60150500D01*
X168400500Y-60057314D01*
X168466392Y-59943186D01*
X168500500Y-59815892D01*
X168500500Y-59684108D01*
X168490431Y-59646530D01*
X168874500Y-59646530D01*
X168874500Y-59853469D01*
X168914868Y-60056412D01*
X168914870Y-60056420D01*
X168981132Y-60216391D01*
X168994059Y-60247598D01*
X168995998Y-60250500D01*
X169109024Y-60419657D01*
X169255342Y-60565975D01*
X169255345Y-60565977D01*
X169427402Y-60680941D01*
X169618580Y-60760130D01*
X169821530Y-60800499D01*
X169821534Y-60800500D01*
X169821535Y-60800500D01*
X170278466Y-60800500D01*
X170278467Y-60800499D01*
X170481420Y-60760130D01*
X170672598Y-60680941D01*
X170844655Y-60565977D01*
X170990977Y-60419655D01*
X171105941Y-60247598D01*
X171185130Y-60056420D01*
X171225500Y-59853465D01*
X171225500Y-59646535D01*
X171185130Y-59443580D01*
X171105941Y-59252402D01*
X170990977Y-59080345D01*
X170990975Y-59080342D01*
X170844657Y-58934024D01*
X170729851Y-58857314D01*
X170672598Y-58819059D01*
X170489425Y-58743186D01*
X170481420Y-58739870D01*
X170481412Y-58739868D01*
X170278469Y-58699500D01*
X170278465Y-58699500D01*
X169821535Y-58699500D01*
X169821530Y-58699500D01*
X169618587Y-58739868D01*
X169618579Y-58739870D01*
X169427403Y-58819058D01*
X169255342Y-58934024D01*
X169109024Y-59080342D01*
X168994058Y-59252403D01*
X168914870Y-59443579D01*
X168914868Y-59443587D01*
X168874500Y-59646530D01*
X168490431Y-59646530D01*
X168466392Y-59556814D01*
X168400500Y-59442686D01*
X168307314Y-59349500D01*
X168250250Y-59316554D01*
X168193187Y-59283608D01*
X168129539Y-59266554D01*
X168065892Y-59249500D01*
X167934108Y-59249500D01*
X167806812Y-59283608D01*
X167692686Y-59349500D01*
X167692683Y-59349502D01*
X167599502Y-59442683D01*
X167599500Y-59442686D01*
X167533608Y-59556812D01*
X167499500Y-59684108D01*
X84476670Y-59684108D01*
X84539798Y-59600985D01*
X85388007Y-58484108D01*
X125049500Y-58484108D01*
X125049500Y-58615891D01*
X125083608Y-58743187D01*
X125116554Y-58800250D01*
X125149500Y-58857314D01*
X125242686Y-58950500D01*
X125356814Y-59016392D01*
X125484108Y-59050500D01*
X125484110Y-59050500D01*
X125615890Y-59050500D01*
X125615892Y-59050500D01*
X125743186Y-59016392D01*
X125857314Y-58950500D01*
X125950500Y-58857314D01*
X126016392Y-58743186D01*
X126050500Y-58615892D01*
X126050500Y-58484108D01*
X126016392Y-58356814D01*
X125950500Y-58242686D01*
X125857314Y-58149500D01*
X125800250Y-58116554D01*
X125743187Y-58083608D01*
X125679539Y-58066554D01*
X125615892Y-58049500D01*
X125484108Y-58049500D01*
X125356812Y-58083608D01*
X125242686Y-58149500D01*
X125242683Y-58149502D01*
X125149502Y-58242683D01*
X125149500Y-58242686D01*
X125083608Y-58356812D01*
X125049500Y-58484108D01*
X85388007Y-58484108D01*
X85451134Y-58400985D01*
X87679803Y-55466391D01*
X88084044Y-54934108D01*
X97499500Y-54934108D01*
X97499500Y-55065891D01*
X97533608Y-55193187D01*
X97547005Y-55216391D01*
X97599500Y-55307314D01*
X97692686Y-55400500D01*
X97806814Y-55466392D01*
X97934108Y-55500500D01*
X97934110Y-55500500D01*
X98065890Y-55500500D01*
X98065892Y-55500500D01*
X98193186Y-55466392D01*
X98307314Y-55400500D01*
X98400500Y-55307314D01*
X98466392Y-55193186D01*
X98500500Y-55065892D01*
X98500500Y-54934108D01*
X98466392Y-54806814D01*
X98400500Y-54692686D01*
X98391922Y-54684108D01*
X102249500Y-54684108D01*
X102249500Y-54815891D01*
X102283608Y-54943187D01*
X102316554Y-55000250D01*
X102349500Y-55057314D01*
X102442686Y-55150500D01*
X102556814Y-55216392D01*
X102684108Y-55250500D01*
X102684110Y-55250500D01*
X102815890Y-55250500D01*
X102815892Y-55250500D01*
X102943186Y-55216392D01*
X103057314Y-55150500D01*
X103150500Y-55057314D01*
X103216392Y-54943186D01*
X103250500Y-54815892D01*
X103250500Y-54684108D01*
X103216392Y-54556814D01*
X103150500Y-54442686D01*
X103057314Y-54349500D01*
X103000250Y-54316554D01*
X102943187Y-54283608D01*
X102879539Y-54266554D01*
X102815892Y-54249500D01*
X102684108Y-54249500D01*
X102556812Y-54283608D01*
X102442686Y-54349500D01*
X102442683Y-54349502D01*
X102349502Y-54442683D01*
X102349500Y-54442686D01*
X102283608Y-54556812D01*
X102249500Y-54684108D01*
X98391922Y-54684108D01*
X98307314Y-54599500D01*
X98243890Y-54562882D01*
X98193187Y-54533608D01*
X98129539Y-54516554D01*
X98065892Y-54499500D01*
X97934108Y-54499500D01*
X97806812Y-54533608D01*
X97692686Y-54599500D01*
X97692683Y-54599502D01*
X97599502Y-54692683D01*
X97599500Y-54692686D01*
X97533608Y-54806812D01*
X97499500Y-54934108D01*
X88084044Y-54934108D01*
X89277626Y-53362462D01*
X90085541Y-52298642D01*
X90671939Y-51526504D01*
X95180000Y-51526504D01*
X95180000Y-51925000D01*
X95880000Y-51925000D01*
X95880000Y-52425000D01*
X95180000Y-52425000D01*
X95180000Y-52823495D01*
X95218427Y-53016681D01*
X95218430Y-53016693D01*
X95293807Y-53198671D01*
X95293814Y-53198684D01*
X95403248Y-53362462D01*
X95403251Y-53362466D01*
X95542533Y-53501748D01*
X95542537Y-53501751D01*
X95706315Y-53611185D01*
X95706328Y-53611192D01*
X95888308Y-53686569D01*
X95930000Y-53694862D01*
X95930000Y-52891988D01*
X95939940Y-52909205D01*
X95995795Y-52965060D01*
X96064204Y-53004556D01*
X96140504Y-53025000D01*
X96219496Y-53025000D01*
X96295796Y-53004556D01*
X96364205Y-52965060D01*
X96420060Y-52909205D01*
X96430000Y-52891988D01*
X96430000Y-53694862D01*
X96471690Y-53686569D01*
X96471692Y-53686569D01*
X96653671Y-53611192D01*
X96653684Y-53611185D01*
X96817462Y-53501751D01*
X96817466Y-53501748D01*
X96956748Y-53362466D01*
X96956751Y-53362462D01*
X97066185Y-53198684D01*
X97066192Y-53198671D01*
X97141569Y-53016693D01*
X97141572Y-53016681D01*
X97179999Y-52823495D01*
X97180000Y-52823492D01*
X97180000Y-52413622D01*
X97199685Y-52346583D01*
X97252489Y-52300828D01*
X97321647Y-52290884D01*
X97351448Y-52299059D01*
X97412964Y-52324540D01*
X97412968Y-52324540D01*
X97412969Y-52324541D01*
X97543466Y-52350500D01*
X97543469Y-52350500D01*
X97676533Y-52350500D01*
X97764325Y-52333035D01*
X97807036Y-52324540D01*
X97929969Y-52273620D01*
X98040606Y-52199695D01*
X98134695Y-52105606D01*
X98208620Y-51994969D01*
X98259540Y-51872036D01*
X98283716Y-51750499D01*
X98285500Y-51741533D01*
X102714499Y-51741533D01*
X102740458Y-51872030D01*
X102740461Y-51872040D01*
X102791376Y-51994961D01*
X102791386Y-51994979D01*
X102865301Y-52105601D01*
X102865307Y-52105609D01*
X102959390Y-52199692D01*
X102959398Y-52199698D01*
X103070020Y-52273613D01*
X103070023Y-52273614D01*
X103070031Y-52273620D01*
X103070037Y-52273622D01*
X103070038Y-52273623D01*
X103188925Y-52322867D01*
X103192964Y-52324540D01*
X103192968Y-52324540D01*
X103192969Y-52324541D01*
X103323466Y-52350500D01*
X103323469Y-52350500D01*
X103456533Y-52350500D01*
X103544325Y-52333035D01*
X103587036Y-52324540D01*
X103648548Y-52299060D01*
X103718016Y-52291592D01*
X103780496Y-52322867D01*
X103816148Y-52382956D01*
X103820000Y-52413622D01*
X103820000Y-52823495D01*
X103858427Y-53016681D01*
X103858430Y-53016693D01*
X103933807Y-53198671D01*
X103933814Y-53198684D01*
X104043248Y-53362462D01*
X104043251Y-53362466D01*
X104182533Y-53501748D01*
X104182537Y-53501751D01*
X104346315Y-53611185D01*
X104346328Y-53611192D01*
X104528308Y-53686569D01*
X104570000Y-53694862D01*
X104570000Y-52891988D01*
X104579940Y-52909205D01*
X104635795Y-52965060D01*
X104704204Y-53004556D01*
X104780504Y-53025000D01*
X104859496Y-53025000D01*
X104935796Y-53004556D01*
X105004205Y-52965060D01*
X105060060Y-52909205D01*
X105070000Y-52891988D01*
X105070000Y-53694862D01*
X105111690Y-53686569D01*
X105111692Y-53686569D01*
X105293671Y-53611192D01*
X105293684Y-53611185D01*
X105457462Y-53501751D01*
X105457466Y-53501748D01*
X105596748Y-53362466D01*
X105596751Y-53362462D01*
X105706185Y-53198684D01*
X105706192Y-53198671D01*
X105748832Y-53095730D01*
X168849500Y-53095730D01*
X168849500Y-54404269D01*
X168852353Y-54434699D01*
X168852353Y-54434701D01*
X168897206Y-54562880D01*
X168897207Y-54562882D01*
X168977850Y-54672150D01*
X169087118Y-54752793D01*
X169129845Y-54767744D01*
X169215299Y-54797646D01*
X169245730Y-54800500D01*
X169245734Y-54800500D01*
X170854270Y-54800500D01*
X170884699Y-54797646D01*
X170884701Y-54797646D01*
X170948790Y-54775219D01*
X171012882Y-54752793D01*
X171122150Y-54672150D01*
X171202793Y-54562882D01*
X171225219Y-54498790D01*
X171247646Y-54434701D01*
X171247646Y-54434699D01*
X171250500Y-54404269D01*
X171250500Y-53095730D01*
X171247646Y-53065300D01*
X171247646Y-53065298D01*
X171202793Y-52937119D01*
X171202792Y-52937117D01*
X171182192Y-52909205D01*
X171122150Y-52827850D01*
X171012882Y-52747207D01*
X171012880Y-52747206D01*
X170884700Y-52702353D01*
X170854270Y-52699500D01*
X170854266Y-52699500D01*
X169245734Y-52699500D01*
X169245730Y-52699500D01*
X169215300Y-52702353D01*
X169215298Y-52702353D01*
X169087119Y-52747206D01*
X169087117Y-52747207D01*
X168977850Y-52827850D01*
X168897207Y-52937117D01*
X168897206Y-52937119D01*
X168852353Y-53065298D01*
X168852353Y-53065300D01*
X168849500Y-53095730D01*
X105748832Y-53095730D01*
X105769686Y-53045383D01*
X105781569Y-53016693D01*
X105781572Y-53016681D01*
X105819999Y-52823495D01*
X105820000Y-52823492D01*
X105820000Y-52425000D01*
X105120000Y-52425000D01*
X105120000Y-51925000D01*
X105820000Y-51925000D01*
X105820000Y-51526508D01*
X105819999Y-51526504D01*
X105781572Y-51333318D01*
X105781569Y-51333306D01*
X105736059Y-51223433D01*
X105719770Y-51184108D01*
X160999500Y-51184108D01*
X160999500Y-51315892D01*
X161009568Y-51353465D01*
X161033608Y-51443187D01*
X161034898Y-51445421D01*
X161099500Y-51557314D01*
X161192686Y-51650500D01*
X161306814Y-51716392D01*
X161434108Y-51750500D01*
X161434110Y-51750500D01*
X161565890Y-51750500D01*
X161565892Y-51750500D01*
X161693186Y-51716392D01*
X161807314Y-51650500D01*
X161900500Y-51557314D01*
X161966392Y-51443186D01*
X162000500Y-51315892D01*
X162000500Y-51184108D01*
X161990431Y-51146530D01*
X168849500Y-51146530D01*
X168849500Y-51353469D01*
X168889868Y-51556412D01*
X168889870Y-51556420D01*
X168956132Y-51716391D01*
X168969059Y-51747598D01*
X168970998Y-51750500D01*
X169084024Y-51919657D01*
X169230342Y-52065975D01*
X169230345Y-52065977D01*
X169402402Y-52180941D01*
X169593580Y-52260130D01*
X169787194Y-52298642D01*
X169796530Y-52300499D01*
X169796534Y-52300500D01*
X169796535Y-52300500D01*
X170303466Y-52300500D01*
X170303467Y-52300499D01*
X170506420Y-52260130D01*
X170697598Y-52180941D01*
X170869655Y-52065977D01*
X171015977Y-51919655D01*
X171130941Y-51747598D01*
X171210130Y-51556420D01*
X171250500Y-51353465D01*
X171250500Y-51146535D01*
X171210130Y-50943580D01*
X171130941Y-50752402D01*
X171015977Y-50580345D01*
X171015975Y-50580342D01*
X170869657Y-50434024D01*
X170783626Y-50376541D01*
X170697598Y-50319059D01*
X170506420Y-50239870D01*
X170506412Y-50239868D01*
X170303469Y-50199500D01*
X170303465Y-50199500D01*
X169796535Y-50199500D01*
X169796530Y-50199500D01*
X169593587Y-50239868D01*
X169593579Y-50239870D01*
X169402403Y-50319058D01*
X169230342Y-50434024D01*
X169084024Y-50580342D01*
X168969058Y-50752403D01*
X168889870Y-50943579D01*
X168889868Y-50943587D01*
X168849500Y-51146530D01*
X161990431Y-51146530D01*
X161966392Y-51056814D01*
X161900500Y-50942686D01*
X161807314Y-50849500D01*
X161750250Y-50816554D01*
X161693187Y-50783608D01*
X161629539Y-50766554D01*
X161565892Y-50749500D01*
X161434108Y-50749500D01*
X161306812Y-50783608D01*
X161192686Y-50849500D01*
X161192683Y-50849502D01*
X161099502Y-50942683D01*
X161099500Y-50942686D01*
X161033608Y-51056812D01*
X161008558Y-51150301D01*
X160999500Y-51184108D01*
X105719770Y-51184108D01*
X105706190Y-51151324D01*
X105706185Y-51151315D01*
X105596751Y-50987537D01*
X105596748Y-50987533D01*
X105457466Y-50848251D01*
X105457462Y-50848248D01*
X105293684Y-50738814D01*
X105293671Y-50738807D01*
X105111691Y-50663429D01*
X105111683Y-50663427D01*
X105070000Y-50655135D01*
X105070000Y-51458011D01*
X105060060Y-51440795D01*
X105004205Y-51384940D01*
X104935796Y-51345444D01*
X104859496Y-51325000D01*
X104780504Y-51325000D01*
X104704204Y-51345444D01*
X104635795Y-51384940D01*
X104579940Y-51440795D01*
X104570000Y-51458011D01*
X104570000Y-50655136D01*
X104569999Y-50655135D01*
X104528316Y-50663427D01*
X104528308Y-50663429D01*
X104346328Y-50738807D01*
X104346315Y-50738814D01*
X104182537Y-50848248D01*
X104182533Y-50848251D01*
X104043251Y-50987533D01*
X104043248Y-50987537D01*
X103968229Y-51099810D01*
X103914616Y-51144615D01*
X103845291Y-51153322D01*
X103796237Y-51134022D01*
X103709972Y-51076382D01*
X103709971Y-51076381D01*
X103709969Y-51076380D01*
X103709966Y-51076378D01*
X103709961Y-51076376D01*
X103587040Y-51025461D01*
X103587030Y-51025458D01*
X103456533Y-50999500D01*
X103456531Y-50999500D01*
X103323469Y-50999500D01*
X103323467Y-50999500D01*
X103192969Y-51025458D01*
X103192959Y-51025461D01*
X103070038Y-51076376D01*
X103070020Y-51076386D01*
X102959398Y-51150301D01*
X102959390Y-51150307D01*
X102865307Y-51244390D01*
X102865301Y-51244398D01*
X102791386Y-51355020D01*
X102791376Y-51355038D01*
X102740461Y-51477959D01*
X102740458Y-51477969D01*
X102714500Y-51608466D01*
X102714500Y-51608469D01*
X102714500Y-51741531D01*
X102714500Y-51741533D01*
X102714499Y-51741533D01*
X98285500Y-51741533D01*
X98285500Y-51608466D01*
X98259541Y-51477969D01*
X98259540Y-51477968D01*
X98259540Y-51477964D01*
X98208620Y-51355031D01*
X98207576Y-51353469D01*
X98134698Y-51244398D01*
X98134692Y-51244390D01*
X98040609Y-51150307D01*
X98040601Y-51150301D01*
X97929979Y-51076386D01*
X97929972Y-51076382D01*
X97929969Y-51076380D01*
X97929965Y-51076378D01*
X97929961Y-51076376D01*
X97807040Y-51025461D01*
X97807030Y-51025458D01*
X97676533Y-50999500D01*
X97676531Y-50999500D01*
X97543469Y-50999500D01*
X97543467Y-50999500D01*
X97412969Y-51025458D01*
X97412959Y-51025461D01*
X97290038Y-51076376D01*
X97290027Y-51076382D01*
X97203762Y-51134022D01*
X97137084Y-51154899D01*
X97069704Y-51136414D01*
X97031770Y-51099810D01*
X96956751Y-50987537D01*
X96956748Y-50987533D01*
X96817466Y-50848251D01*
X96817462Y-50848248D01*
X96653684Y-50738814D01*
X96653671Y-50738807D01*
X96471691Y-50663429D01*
X96471683Y-50663427D01*
X96430000Y-50655135D01*
X96430000Y-51458011D01*
X96420060Y-51440795D01*
X96364205Y-51384940D01*
X96295796Y-51345444D01*
X96219496Y-51325000D01*
X96140504Y-51325000D01*
X96064204Y-51345444D01*
X95995795Y-51384940D01*
X95939940Y-51440795D01*
X95930000Y-51458011D01*
X95930000Y-50655136D01*
X95929999Y-50655135D01*
X95888316Y-50663427D01*
X95888308Y-50663429D01*
X95706328Y-50738807D01*
X95706315Y-50738814D01*
X95542537Y-50848248D01*
X95542533Y-50848251D01*
X95403251Y-50987533D01*
X95403248Y-50987537D01*
X95293814Y-51151315D01*
X95293807Y-51151328D01*
X95218430Y-51333306D01*
X95218427Y-51333318D01*
X95180000Y-51526504D01*
X90671939Y-51526504D01*
X90733517Y-51445421D01*
X93260030Y-48118642D01*
X93732511Y-47496504D01*
X95180000Y-47496504D01*
X95180000Y-47745000D01*
X95880000Y-47745000D01*
X95880000Y-48245000D01*
X95180000Y-48245000D01*
X95180000Y-48493495D01*
X95218427Y-48686681D01*
X95218430Y-48686693D01*
X95293807Y-48868671D01*
X95293814Y-48868684D01*
X95403248Y-49032462D01*
X95403251Y-49032466D01*
X95542533Y-49171748D01*
X95542537Y-49171751D01*
X95706315Y-49281185D01*
X95706328Y-49281192D01*
X95888308Y-49356569D01*
X95930000Y-49364862D01*
X95930000Y-48561988D01*
X95939940Y-48579205D01*
X95995795Y-48635060D01*
X96064204Y-48674556D01*
X96140504Y-48695000D01*
X96219496Y-48695000D01*
X96295796Y-48674556D01*
X96364205Y-48635060D01*
X96420060Y-48579205D01*
X96430000Y-48561988D01*
X96430000Y-49364862D01*
X96471690Y-49356569D01*
X96471692Y-49356569D01*
X96653671Y-49281192D01*
X96653684Y-49281185D01*
X96817462Y-49171751D01*
X96817466Y-49171748D01*
X96956748Y-49032466D01*
X96956751Y-49032462D01*
X97066185Y-48868684D01*
X97066192Y-48868671D01*
X97141569Y-48686693D01*
X97141572Y-48686681D01*
X97179999Y-48493495D01*
X97180000Y-48493492D01*
X97180000Y-48245000D01*
X96480000Y-48245000D01*
X96480000Y-47745000D01*
X97180000Y-47745000D01*
X97180000Y-47496508D01*
X97179999Y-47496504D01*
X103820000Y-47496504D01*
X103820000Y-47745000D01*
X104520000Y-47745000D01*
X104520000Y-48245000D01*
X103820000Y-48245000D01*
X103820000Y-48493495D01*
X103858427Y-48686681D01*
X103858430Y-48686693D01*
X103933807Y-48868671D01*
X103933814Y-48868684D01*
X104043248Y-49032462D01*
X104043251Y-49032466D01*
X104182533Y-49171748D01*
X104182537Y-49171751D01*
X104346315Y-49281185D01*
X104346328Y-49281192D01*
X104528308Y-49356569D01*
X104570000Y-49364862D01*
X104570000Y-48561988D01*
X104579940Y-48579205D01*
X104635795Y-48635060D01*
X104704204Y-48674556D01*
X104780504Y-48695000D01*
X104859496Y-48695000D01*
X104935796Y-48674556D01*
X105004205Y-48635060D01*
X105060060Y-48579205D01*
X105070000Y-48561988D01*
X105070000Y-49364862D01*
X105111690Y-49356569D01*
X105111692Y-49356569D01*
X105293671Y-49281192D01*
X105293684Y-49281185D01*
X105457462Y-49171751D01*
X105457466Y-49171748D01*
X105462986Y-49166228D01*
X120599500Y-49166228D01*
X120599500Y-49333771D01*
X120632182Y-49498074D01*
X120632184Y-49498082D01*
X120696295Y-49652860D01*
X120789373Y-49792162D01*
X120907837Y-49910626D01*
X120991296Y-49966391D01*
X121047137Y-50003703D01*
X121201918Y-50067816D01*
X121366228Y-50100499D01*
X121366232Y-50100500D01*
X121366233Y-50100500D01*
X121533768Y-50100500D01*
X121533769Y-50100499D01*
X121698082Y-50067816D01*
X121852863Y-50003703D01*
X121992162Y-49910626D01*
X122110626Y-49792162D01*
X122203703Y-49652863D01*
X122267816Y-49498082D01*
X122300500Y-49333767D01*
X122300500Y-49166233D01*
X122300499Y-49166228D01*
X128599500Y-49166228D01*
X128599500Y-49333771D01*
X128632182Y-49498074D01*
X128632184Y-49498082D01*
X128696295Y-49652860D01*
X128789373Y-49792162D01*
X128907837Y-49910626D01*
X128991296Y-49966391D01*
X129047137Y-50003703D01*
X129201918Y-50067816D01*
X129366228Y-50100499D01*
X129366232Y-50100500D01*
X129366233Y-50100500D01*
X129533768Y-50100500D01*
X129533769Y-50100499D01*
X129698082Y-50067816D01*
X129852863Y-50003703D01*
X129992162Y-49910626D01*
X130110626Y-49792162D01*
X130203703Y-49652863D01*
X130267816Y-49498082D01*
X130280541Y-49434108D01*
X162499500Y-49434108D01*
X162499500Y-49565891D01*
X162533608Y-49693187D01*
X162566554Y-49750250D01*
X162599500Y-49807314D01*
X162692686Y-49900500D01*
X162806814Y-49966392D01*
X162934108Y-50000500D01*
X162934110Y-50000500D01*
X163065890Y-50000500D01*
X163065892Y-50000500D01*
X163193186Y-49966392D01*
X163307314Y-49900500D01*
X163400500Y-49807314D01*
X163466392Y-49693186D01*
X163500500Y-49565892D01*
X163500500Y-49434108D01*
X163466392Y-49306814D01*
X163400500Y-49192686D01*
X163307314Y-49099500D01*
X163250250Y-49066554D01*
X163193187Y-49033608D01*
X163129539Y-49016554D01*
X163065892Y-48999500D01*
X162934108Y-48999500D01*
X162806812Y-49033608D01*
X162692686Y-49099500D01*
X162692683Y-49099502D01*
X162599502Y-49192683D01*
X162599500Y-49192686D01*
X162533608Y-49306812D01*
X162499500Y-49434108D01*
X130280541Y-49434108D01*
X130300500Y-49333767D01*
X130300500Y-49166233D01*
X130267816Y-49001918D01*
X130203703Y-48847137D01*
X130172537Y-48800494D01*
X130110626Y-48707837D01*
X129992162Y-48589373D01*
X129852860Y-48496295D01*
X129698082Y-48432184D01*
X129698074Y-48432182D01*
X129533771Y-48399500D01*
X129533767Y-48399500D01*
X129366233Y-48399500D01*
X129366228Y-48399500D01*
X129201925Y-48432182D01*
X129201917Y-48432184D01*
X129047139Y-48496295D01*
X128907837Y-48589373D01*
X128789373Y-48707837D01*
X128696295Y-48847139D01*
X128632184Y-49001917D01*
X128632182Y-49001925D01*
X128599500Y-49166228D01*
X122300499Y-49166228D01*
X122267816Y-49001918D01*
X122203703Y-48847137D01*
X122172537Y-48800494D01*
X122110626Y-48707837D01*
X121992162Y-48589373D01*
X121852860Y-48496295D01*
X121698082Y-48432184D01*
X121698074Y-48432182D01*
X121533771Y-48399500D01*
X121533767Y-48399500D01*
X121366233Y-48399500D01*
X121366228Y-48399500D01*
X121201925Y-48432182D01*
X121201917Y-48432184D01*
X121047139Y-48496295D01*
X120907837Y-48589373D01*
X120789373Y-48707837D01*
X120696295Y-48847139D01*
X120632184Y-49001917D01*
X120632182Y-49001925D01*
X120599500Y-49166228D01*
X105462986Y-49166228D01*
X105556755Y-49072460D01*
X105596748Y-49032466D01*
X105596751Y-49032462D01*
X105706185Y-48868684D01*
X105706192Y-48868671D01*
X105781569Y-48686693D01*
X105781572Y-48686681D01*
X105819999Y-48493495D01*
X105820000Y-48493492D01*
X105820000Y-48245000D01*
X105120000Y-48245000D01*
X105120000Y-47745000D01*
X105820000Y-47745000D01*
X105820000Y-47496508D01*
X105819999Y-47496504D01*
X105781572Y-47303318D01*
X105781569Y-47303306D01*
X105706192Y-47121328D01*
X105706185Y-47121315D01*
X105596751Y-46957537D01*
X105596748Y-46957533D01*
X105457466Y-46818251D01*
X105457462Y-46818248D01*
X105293684Y-46708814D01*
X105293671Y-46708807D01*
X105111691Y-46633429D01*
X105111683Y-46633427D01*
X105070000Y-46625135D01*
X105070000Y-47428011D01*
X105060060Y-47410795D01*
X105004205Y-47354940D01*
X104935796Y-47315444D01*
X104859496Y-47295000D01*
X104780504Y-47295000D01*
X104704204Y-47315444D01*
X104635795Y-47354940D01*
X104579940Y-47410795D01*
X104570000Y-47428011D01*
X104570000Y-46625136D01*
X104569999Y-46625135D01*
X104528316Y-46633427D01*
X104528308Y-46633429D01*
X104346328Y-46708807D01*
X104346315Y-46708814D01*
X104182537Y-46818248D01*
X104182533Y-46818251D01*
X104043251Y-46957533D01*
X104043248Y-46957537D01*
X103933814Y-47121315D01*
X103933807Y-47121328D01*
X103858430Y-47303306D01*
X103858427Y-47303318D01*
X103820000Y-47496504D01*
X97179999Y-47496504D01*
X97141572Y-47303318D01*
X97141569Y-47303306D01*
X97066192Y-47121328D01*
X97066185Y-47121315D01*
X96956751Y-46957537D01*
X96956748Y-46957533D01*
X96817466Y-46818251D01*
X96817462Y-46818248D01*
X96653684Y-46708814D01*
X96653671Y-46708807D01*
X96471691Y-46633429D01*
X96471683Y-46633427D01*
X96430000Y-46625135D01*
X96430000Y-47428011D01*
X96420060Y-47410795D01*
X96364205Y-47354940D01*
X96295796Y-47315444D01*
X96219496Y-47295000D01*
X96140504Y-47295000D01*
X96064204Y-47315444D01*
X95995795Y-47354940D01*
X95939940Y-47410795D01*
X95930000Y-47428011D01*
X95930000Y-46625136D01*
X95929999Y-46625135D01*
X95888316Y-46633427D01*
X95888308Y-46633429D01*
X95706328Y-46708807D01*
X95706315Y-46708814D01*
X95542537Y-46818248D01*
X95542533Y-46818251D01*
X95403251Y-46957533D01*
X95403248Y-46957537D01*
X95293814Y-47121315D01*
X95293807Y-47121328D01*
X95218430Y-47303306D01*
X95218427Y-47303318D01*
X95180000Y-47496504D01*
X93732511Y-47496504D01*
X93794089Y-47415421D01*
X95211154Y-45549504D01*
X95267376Y-45508021D01*
X95309904Y-45500500D01*
X179375500Y-45500500D01*
X179442539Y-45520185D01*
G37*
%TD.AperFunction*%
%TD*%
M02*
