%TF.GenerationSoftware,KiCad,Pcbnew,8.0.5*%
%TF.CreationDate,2024-10-16T13:31:43+02:00*%
%TF.ProjectId,Leiterkarte-v2,4c656974-6572-46b6-9172-74652d76322e,rev?*%
%TF.SameCoordinates,Original*%
%TF.FileFunction,Soldermask,Bot*%
%TF.FilePolarity,Negative*%
%FSLAX46Y46*%
G04 Gerber Fmt 4.6, Leading zero omitted, Abs format (unit mm)*
G04 Created by KiCad (PCBNEW 8.0.5) date 2024-10-16 13:31:43*
%MOMM*%
%LPD*%
G01*
G04 APERTURE LIST*
G04 Aperture macros list*
%AMRoundRect*
0 Rectangle with rounded corners*
0 $1 Rounding radius*
0 $2 $3 $4 $5 $6 $7 $8 $9 X,Y pos of 4 corners*
0 Add a 4 corners polygon primitive as box body*
4,1,4,$2,$3,$4,$5,$6,$7,$8,$9,$2,$3,0*
0 Add four circle primitives for the rounded corners*
1,1,$1+$1,$2,$3*
1,1,$1+$1,$4,$5*
1,1,$1+$1,$6,$7*
1,1,$1+$1,$8,$9*
0 Add four rect primitives between the rounded corners*
20,1,$1+$1,$2,$3,$4,$5,0*
20,1,$1+$1,$4,$5,$6,$7,0*
20,1,$1+$1,$6,$7,$8,$9,0*
20,1,$1+$1,$8,$9,$2,$3,0*%
G04 Aperture macros list end*
%ADD10C,1.000000*%
%ADD11R,1.700000X1.700000*%
%ADD12O,1.700000X1.700000*%
%ADD13C,0.650000*%
%ADD14O,1.204000X2.304000*%
%ADD15O,1.204000X2.004000*%
%ADD16C,6.400000*%
%ADD17RoundRect,0.250000X-0.250000X-0.475000X0.250000X-0.475000X0.250000X0.475000X-0.250000X0.475000X0*%
%ADD18R,1.550000X0.600000*%
%ADD19R,2.600000X3.100000*%
%ADD20RoundRect,0.250000X0.475000X-0.250000X0.475000X0.250000X-0.475000X0.250000X-0.475000X-0.250000X0*%
%ADD21RoundRect,0.200000X0.275000X-0.200000X0.275000X0.200000X-0.275000X0.200000X-0.275000X-0.200000X0*%
%ADD22RoundRect,0.200000X-0.200000X-0.275000X0.200000X-0.275000X0.200000X0.275000X-0.200000X0.275000X0*%
%ADD23RoundRect,0.250000X-0.850000X-0.350000X0.850000X-0.350000X0.850000X0.350000X-0.850000X0.350000X0*%
%ADD24RoundRect,0.249997X-2.950003X-2.650003X2.950003X-2.650003X2.950003X2.650003X-2.950003X2.650003X0*%
%ADD25RoundRect,0.250000X0.250000X0.475000X-0.250000X0.475000X-0.250000X-0.475000X0.250000X-0.475000X0*%
%ADD26RoundRect,0.250000X1.000000X0.650000X-1.000000X0.650000X-1.000000X-0.650000X1.000000X-0.650000X0*%
%ADD27RoundRect,0.102000X-0.925000X-1.700000X0.925000X-1.700000X0.925000X1.700000X-0.925000X1.700000X0*%
G04 APERTURE END LIST*
D10*
%TO.C,SD1*%
X124000000Y-52762500D03*
X116000000Y-52762500D03*
%TD*%
D11*
%TO.C,Buttons1*%
X151100000Y-103400000D03*
D12*
X151100000Y-105940000D03*
X151100000Y-108480000D03*
X151100000Y-111020000D03*
X151100000Y-113560000D03*
X151100000Y-116100000D03*
%TD*%
D13*
%TO.C,USBC1*%
X108090000Y-54880000D03*
X102310000Y-54880000D03*
D14*
X109520000Y-55380000D03*
X100880000Y-55380000D03*
D15*
X109520000Y-51200000D03*
X100880000Y-51200000D03*
%TD*%
D16*
%TO.C,Vcc1*%
X90300000Y-90250000D03*
%TD*%
%TO.C,GND1*%
X122100000Y-90250000D03*
%TD*%
D11*
%TO.C,RPM1*%
X151100000Y-99500000D03*
%TD*%
D17*
%TO.C,Cboot1*%
X100300000Y-98050000D03*
X102200000Y-98050000D03*
%TD*%
D18*
%TO.C,5V1*%
X101850000Y-100645000D03*
X101850000Y-101915000D03*
X101850000Y-103185000D03*
X101850000Y-104455000D03*
X96450000Y-104455000D03*
X96450000Y-103185000D03*
X96450000Y-101915000D03*
X96450000Y-100645000D03*
D19*
X99150000Y-102550000D03*
%TD*%
D20*
%TO.C,Cin2*%
X108150000Y-103200000D03*
X108150000Y-101300000D03*
%TD*%
%TO.C,Cout1*%
X108150000Y-99600000D03*
X108150000Y-97700000D03*
%TD*%
D21*
%TO.C,Rfbt1*%
X104350000Y-102675000D03*
X104350000Y-101025000D03*
%TD*%
D22*
%TO.C,Rfbb1*%
X104325000Y-104450000D03*
X105975000Y-104450000D03*
%TD*%
D23*
%TO.C,3.3V1*%
X110650000Y-104280000D03*
X110650000Y-102000000D03*
D24*
X116950000Y-102000000D03*
D23*
X110650000Y-99720000D03*
%TD*%
D25*
%TO.C,Cin1*%
X91250000Y-101900000D03*
X89350000Y-101900000D03*
%TD*%
D26*
%TO.C,D1*%
X93350000Y-98600000D03*
X89350000Y-98600000D03*
%TD*%
D27*
%TO.C,L1*%
X100325000Y-93400000D03*
X105875000Y-93400000D03*
%TD*%
M02*
