%TF.GenerationSoftware,KiCad,Pcbnew,8.0.5*%
%TF.CreationDate,2024-09-29T17:29:23+02:00*%
%TF.ProjectId,Leiterkarte-v2,4c656974-6572-46b6-9172-74652d76322e,rev?*%
%TF.SameCoordinates,Original*%
%TF.FileFunction,Legend,Top*%
%TF.FilePolarity,Positive*%
%FSLAX46Y46*%
G04 Gerber Fmt 4.6, Leading zero omitted, Abs format (unit mm)*
G04 Created by KiCad (PCBNEW 8.0.5) date 2024-09-29 17:29:23*
%MOMM*%
%LPD*%
G01*
G04 APERTURE LIST*
G04 Aperture macros list*
%AMRoundRect*
0 Rectangle with rounded corners*
0 $1 Rounding radius*
0 $2 $3 $4 $5 $6 $7 $8 $9 X,Y pos of 4 corners*
0 Add a 4 corners polygon primitive as box body*
4,1,4,$2,$3,$4,$5,$6,$7,$8,$9,$2,$3,0*
0 Add four circle primitives for the rounded corners*
1,1,$1+$1,$2,$3*
1,1,$1+$1,$4,$5*
1,1,$1+$1,$6,$7*
1,1,$1+$1,$8,$9*
0 Add four rect primitives between the rounded corners*
20,1,$1+$1,$2,$3,$4,$5,0*
20,1,$1+$1,$4,$5,$6,$7,0*
20,1,$1+$1,$6,$7,$8,$9,0*
20,1,$1+$1,$8,$9,$2,$3,0*%
G04 Aperture macros list end*
%ADD10C,0.150000*%
%ADD11C,0.300000*%
%ADD12C,0.120000*%
%ADD13C,0.152400*%
%ADD14C,0.000000*%
%ADD15C,0.200000*%
%ADD16C,0.127000*%
%ADD17C,0.010000*%
%ADD18RoundRect,0.150000X-0.625000X0.150000X-0.625000X-0.150000X0.625000X-0.150000X0.625000X0.150000X0*%
%ADD19RoundRect,0.250000X-0.650000X0.350000X-0.650000X-0.350000X0.650000X-0.350000X0.650000X0.350000X0*%
%ADD20RoundRect,0.200000X-0.200000X-0.275000X0.200000X-0.275000X0.200000X0.275000X-0.200000X0.275000X0*%
%ADD21RoundRect,0.250000X0.475000X-0.250000X0.475000X0.250000X-0.475000X0.250000X-0.475000X-0.250000X0*%
%ADD22RoundRect,0.150000X0.625000X-0.150000X0.625000X0.150000X-0.625000X0.150000X-0.625000X-0.150000X0*%
%ADD23RoundRect,0.250000X0.650000X-0.350000X0.650000X0.350000X-0.650000X0.350000X-0.650000X-0.350000X0*%
%ADD24RoundRect,0.200000X0.275000X-0.200000X0.275000X0.200000X-0.275000X0.200000X-0.275000X-0.200000X0*%
%ADD25R,1.700000X1.700000*%
%ADD26RoundRect,0.250000X-0.475000X0.250000X-0.475000X-0.250000X0.475000X-0.250000X0.475000X0.250000X0*%
%ADD27R,1.100000X1.800000*%
%ADD28RoundRect,0.250000X-0.250000X-0.475000X0.250000X-0.475000X0.250000X0.475000X-0.250000X0.475000X0*%
%ADD29R,0.900000X1.500000*%
%ADD30R,1.500000X0.900000*%
%ADD31C,0.600000*%
%ADD32R,3.900000X3.900000*%
%ADD33RoundRect,0.250000X0.450000X-0.262500X0.450000X0.262500X-0.450000X0.262500X-0.450000X-0.262500X0*%
%ADD34RoundRect,0.200000X0.200000X0.275000X-0.200000X0.275000X-0.200000X-0.275000X0.200000X-0.275000X0*%
%ADD35RoundRect,0.250000X0.550000X-1.500000X0.550000X1.500000X-0.550000X1.500000X-0.550000X-1.500000X0*%
%ADD36RoundRect,0.150000X-0.587500X-0.150000X0.587500X-0.150000X0.587500X0.150000X-0.587500X0.150000X0*%
%ADD37RoundRect,0.150000X-0.150000X-0.625000X0.150000X-0.625000X0.150000X0.625000X-0.150000X0.625000X0*%
%ADD38RoundRect,0.250000X-0.350000X-0.650000X0.350000X-0.650000X0.350000X0.650000X-0.350000X0.650000X0*%
%ADD39C,0.650000*%
%ADD40O,2.304000X1.204000*%
%ADD41O,2.004000X1.204000*%
%ADD42O,1.700000X1.700000*%
%ADD43RoundRect,0.250000X-0.450000X0.262500X-0.450000X-0.262500X0.450000X-0.262500X0.450000X0.262500X0*%
%ADD44RoundRect,0.200000X-0.275000X0.200000X-0.275000X-0.200000X0.275000X-0.200000X0.275000X0.200000X0*%
%ADD45C,1.000000*%
%ADD46RoundRect,0.102000X0.800000X-0.350000X0.800000X0.350000X-0.800000X0.350000X-0.800000X-0.350000X0*%
%ADD47RoundRect,0.102000X1.200000X-0.600000X1.200000X0.600000X-1.200000X0.600000X-1.200000X-0.600000X0*%
%ADD48RoundRect,0.102000X0.750000X-0.800000X0.750000X0.800000X-0.750000X0.800000X-0.750000X-0.800000X0*%
%ADD49RoundRect,0.102000X1.100000X-0.600000X1.100000X0.600000X-1.100000X0.600000X-1.100000X-0.600000X0*%
%ADD50RoundRect,0.060500X-0.776500X-0.181500X0.776500X-0.181500X0.776500X0.181500X-0.776500X0.181500X0*%
%ADD51RoundRect,0.150000X0.150000X0.625000X-0.150000X0.625000X-0.150000X-0.625000X0.150000X-0.625000X0*%
%ADD52RoundRect,0.250000X0.350000X0.650000X-0.350000X0.650000X-0.350000X-0.650000X0.350000X-0.650000X0*%
G04 APERTURE END LIST*
D10*
X169636779Y-51749931D02*
X169636779Y-51083264D01*
X169636779Y-51178502D02*
X169684398Y-51130883D01*
X169684398Y-51130883D02*
X169779636Y-51083264D01*
X169779636Y-51083264D02*
X169922493Y-51083264D01*
X169922493Y-51083264D02*
X170017731Y-51130883D01*
X170017731Y-51130883D02*
X170065350Y-51226121D01*
X170065350Y-51226121D02*
X170065350Y-51749931D01*
X170065350Y-51226121D02*
X170112969Y-51130883D01*
X170112969Y-51130883D02*
X170208207Y-51083264D01*
X170208207Y-51083264D02*
X170351064Y-51083264D01*
X170351064Y-51083264D02*
X170446303Y-51130883D01*
X170446303Y-51130883D02*
X170493922Y-51226121D01*
X170493922Y-51226121D02*
X170493922Y-51749931D01*
X171398683Y-51749931D02*
X171398683Y-51226121D01*
X171398683Y-51226121D02*
X171351064Y-51130883D01*
X171351064Y-51130883D02*
X171255826Y-51083264D01*
X171255826Y-51083264D02*
X171065350Y-51083264D01*
X171065350Y-51083264D02*
X170970112Y-51130883D01*
X171398683Y-51702312D02*
X171303445Y-51749931D01*
X171303445Y-51749931D02*
X171065350Y-51749931D01*
X171065350Y-51749931D02*
X170970112Y-51702312D01*
X170970112Y-51702312D02*
X170922493Y-51607073D01*
X170922493Y-51607073D02*
X170922493Y-51511835D01*
X170922493Y-51511835D02*
X170970112Y-51416597D01*
X170970112Y-51416597D02*
X171065350Y-51368978D01*
X171065350Y-51368978D02*
X171303445Y-51368978D01*
X171303445Y-51368978D02*
X171398683Y-51321359D01*
X172303445Y-51749931D02*
X172303445Y-50749931D01*
X172303445Y-51702312D02*
X172208207Y-51749931D01*
X172208207Y-51749931D02*
X172017731Y-51749931D01*
X172017731Y-51749931D02*
X171922493Y-51702312D01*
X171922493Y-51702312D02*
X171874874Y-51654692D01*
X171874874Y-51654692D02*
X171827255Y-51559454D01*
X171827255Y-51559454D02*
X171827255Y-51273740D01*
X171827255Y-51273740D02*
X171874874Y-51178502D01*
X171874874Y-51178502D02*
X171922493Y-51130883D01*
X171922493Y-51130883D02*
X172017731Y-51083264D01*
X172017731Y-51083264D02*
X172208207Y-51083264D01*
X172208207Y-51083264D02*
X172303445Y-51130883D01*
X173160588Y-51702312D02*
X173065350Y-51749931D01*
X173065350Y-51749931D02*
X172874874Y-51749931D01*
X172874874Y-51749931D02*
X172779636Y-51702312D01*
X172779636Y-51702312D02*
X172732017Y-51607073D01*
X172732017Y-51607073D02*
X172732017Y-51226121D01*
X172732017Y-51226121D02*
X172779636Y-51130883D01*
X172779636Y-51130883D02*
X172874874Y-51083264D01*
X172874874Y-51083264D02*
X173065350Y-51083264D01*
X173065350Y-51083264D02*
X173160588Y-51130883D01*
X173160588Y-51130883D02*
X173208207Y-51226121D01*
X173208207Y-51226121D02*
X173208207Y-51321359D01*
X173208207Y-51321359D02*
X172732017Y-51416597D01*
X174398684Y-51749931D02*
X174398684Y-50749931D01*
X174398684Y-51130883D02*
X174493922Y-51083264D01*
X174493922Y-51083264D02*
X174684398Y-51083264D01*
X174684398Y-51083264D02*
X174779636Y-51130883D01*
X174779636Y-51130883D02*
X174827255Y-51178502D01*
X174827255Y-51178502D02*
X174874874Y-51273740D01*
X174874874Y-51273740D02*
X174874874Y-51559454D01*
X174874874Y-51559454D02*
X174827255Y-51654692D01*
X174827255Y-51654692D02*
X174779636Y-51702312D01*
X174779636Y-51702312D02*
X174684398Y-51749931D01*
X174684398Y-51749931D02*
X174493922Y-51749931D01*
X174493922Y-51749931D02*
X174398684Y-51702312D01*
X175208208Y-51083264D02*
X175446303Y-51749931D01*
X175684398Y-51083264D02*
X175446303Y-51749931D01*
X175446303Y-51749931D02*
X175351065Y-51988026D01*
X175351065Y-51988026D02*
X175303446Y-52035645D01*
X175303446Y-52035645D02*
X175208208Y-52083264D01*
X169493922Y-52359875D02*
X169827255Y-53359875D01*
X169827255Y-53359875D02*
X170160588Y-52359875D01*
X170636779Y-53359875D02*
X170541541Y-53312256D01*
X170541541Y-53312256D02*
X170493922Y-53264636D01*
X170493922Y-53264636D02*
X170446303Y-53169398D01*
X170446303Y-53169398D02*
X170446303Y-52883684D01*
X170446303Y-52883684D02*
X170493922Y-52788446D01*
X170493922Y-52788446D02*
X170541541Y-52740827D01*
X170541541Y-52740827D02*
X170636779Y-52693208D01*
X170636779Y-52693208D02*
X170779636Y-52693208D01*
X170779636Y-52693208D02*
X170874874Y-52740827D01*
X170874874Y-52740827D02*
X170922493Y-52788446D01*
X170922493Y-52788446D02*
X170970112Y-52883684D01*
X170970112Y-52883684D02*
X170970112Y-53169398D01*
X170970112Y-53169398D02*
X170922493Y-53264636D01*
X170922493Y-53264636D02*
X170874874Y-53312256D01*
X170874874Y-53312256D02*
X170779636Y-53359875D01*
X170779636Y-53359875D02*
X170636779Y-53359875D01*
X171827255Y-52693208D02*
X171827255Y-53502732D01*
X171827255Y-53502732D02*
X171779636Y-53597970D01*
X171779636Y-53597970D02*
X171732017Y-53645589D01*
X171732017Y-53645589D02*
X171636779Y-53693208D01*
X171636779Y-53693208D02*
X171493922Y-53693208D01*
X171493922Y-53693208D02*
X171398684Y-53645589D01*
X171827255Y-53312256D02*
X171732017Y-53359875D01*
X171732017Y-53359875D02*
X171541541Y-53359875D01*
X171541541Y-53359875D02*
X171446303Y-53312256D01*
X171446303Y-53312256D02*
X171398684Y-53264636D01*
X171398684Y-53264636D02*
X171351065Y-53169398D01*
X171351065Y-53169398D02*
X171351065Y-52883684D01*
X171351065Y-52883684D02*
X171398684Y-52788446D01*
X171398684Y-52788446D02*
X171446303Y-52740827D01*
X171446303Y-52740827D02*
X171541541Y-52693208D01*
X171541541Y-52693208D02*
X171732017Y-52693208D01*
X171732017Y-52693208D02*
X171827255Y-52740827D01*
X172684398Y-53312256D02*
X172589160Y-53359875D01*
X172589160Y-53359875D02*
X172398684Y-53359875D01*
X172398684Y-53359875D02*
X172303446Y-53312256D01*
X172303446Y-53312256D02*
X172255827Y-53217017D01*
X172255827Y-53217017D02*
X172255827Y-52836065D01*
X172255827Y-52836065D02*
X172303446Y-52740827D01*
X172303446Y-52740827D02*
X172398684Y-52693208D01*
X172398684Y-52693208D02*
X172589160Y-52693208D01*
X172589160Y-52693208D02*
X172684398Y-52740827D01*
X172684398Y-52740827D02*
X172732017Y-52836065D01*
X172732017Y-52836065D02*
X172732017Y-52931303D01*
X172732017Y-52931303D02*
X172255827Y-53026541D01*
X173303446Y-53359875D02*
X173208208Y-53312256D01*
X173208208Y-53312256D02*
X173160589Y-53217017D01*
X173160589Y-53217017D02*
X173160589Y-52359875D01*
X173684399Y-53359875D02*
X173684399Y-52359875D01*
X173684399Y-52359875D02*
X174065351Y-52359875D01*
X174065351Y-52359875D02*
X174160589Y-52407494D01*
X174160589Y-52407494D02*
X174208208Y-52455113D01*
X174208208Y-52455113D02*
X174255827Y-52550351D01*
X174255827Y-52550351D02*
X174255827Y-52693208D01*
X174255827Y-52693208D02*
X174208208Y-52788446D01*
X174208208Y-52788446D02*
X174160589Y-52836065D01*
X174160589Y-52836065D02*
X174065351Y-52883684D01*
X174065351Y-52883684D02*
X173684399Y-52883684D01*
X175112970Y-53359875D02*
X175112970Y-52836065D01*
X175112970Y-52836065D02*
X175065351Y-52740827D01*
X175065351Y-52740827D02*
X174970113Y-52693208D01*
X174970113Y-52693208D02*
X174779637Y-52693208D01*
X174779637Y-52693208D02*
X174684399Y-52740827D01*
X175112970Y-53312256D02*
X175017732Y-53359875D01*
X175017732Y-53359875D02*
X174779637Y-53359875D01*
X174779637Y-53359875D02*
X174684399Y-53312256D01*
X174684399Y-53312256D02*
X174636780Y-53217017D01*
X174636780Y-53217017D02*
X174636780Y-53121779D01*
X174636780Y-53121779D02*
X174684399Y-53026541D01*
X174684399Y-53026541D02*
X174779637Y-52978922D01*
X174779637Y-52978922D02*
X175017732Y-52978922D01*
X175017732Y-52978922D02*
X175112970Y-52931303D01*
X175589161Y-52693208D02*
X175589161Y-53693208D01*
X175589161Y-52740827D02*
X175684399Y-52693208D01*
X175684399Y-52693208D02*
X175874875Y-52693208D01*
X175874875Y-52693208D02*
X175970113Y-52740827D01*
X175970113Y-52740827D02*
X176017732Y-52788446D01*
X176017732Y-52788446D02*
X176065351Y-52883684D01*
X176065351Y-52883684D02*
X176065351Y-53169398D01*
X176065351Y-53169398D02*
X176017732Y-53264636D01*
X176017732Y-53264636D02*
X175970113Y-53312256D01*
X175970113Y-53312256D02*
X175874875Y-53359875D01*
X175874875Y-53359875D02*
X175684399Y-53359875D01*
X175684399Y-53359875D02*
X175589161Y-53312256D01*
X176922494Y-53359875D02*
X176922494Y-52836065D01*
X176922494Y-52836065D02*
X176874875Y-52740827D01*
X176874875Y-52740827D02*
X176779637Y-52693208D01*
X176779637Y-52693208D02*
X176589161Y-52693208D01*
X176589161Y-52693208D02*
X176493923Y-52740827D01*
X176922494Y-53312256D02*
X176827256Y-53359875D01*
X176827256Y-53359875D02*
X176589161Y-53359875D01*
X176589161Y-53359875D02*
X176493923Y-53312256D01*
X176493923Y-53312256D02*
X176446304Y-53217017D01*
X176446304Y-53217017D02*
X176446304Y-53121779D01*
X176446304Y-53121779D02*
X176493923Y-53026541D01*
X176493923Y-53026541D02*
X176589161Y-52978922D01*
X176589161Y-52978922D02*
X176827256Y-52978922D01*
X176827256Y-52978922D02*
X176922494Y-52931303D01*
X177732018Y-52836065D02*
X177398685Y-52836065D01*
X177398685Y-53359875D02*
X177398685Y-52359875D01*
X177398685Y-52359875D02*
X177874875Y-52359875D01*
X178255828Y-53359875D02*
X178255828Y-52693208D01*
X178255828Y-52359875D02*
X178208209Y-52407494D01*
X178208209Y-52407494D02*
X178255828Y-52455113D01*
X178255828Y-52455113D02*
X178303447Y-52407494D01*
X178303447Y-52407494D02*
X178255828Y-52359875D01*
X178255828Y-52359875D02*
X178255828Y-52455113D01*
X178732018Y-52693208D02*
X178732018Y-53359875D01*
X178732018Y-52788446D02*
X178779637Y-52740827D01*
X178779637Y-52740827D02*
X178874875Y-52693208D01*
X178874875Y-52693208D02*
X179017732Y-52693208D01*
X179017732Y-52693208D02*
X179112970Y-52740827D01*
X179112970Y-52740827D02*
X179160589Y-52836065D01*
X179160589Y-52836065D02*
X179160589Y-53359875D01*
X179636780Y-52693208D02*
X179636780Y-53359875D01*
X179636780Y-52788446D02*
X179684399Y-52740827D01*
X179684399Y-52740827D02*
X179779637Y-52693208D01*
X179779637Y-52693208D02*
X179922494Y-52693208D01*
X179922494Y-52693208D02*
X180017732Y-52740827D01*
X180017732Y-52740827D02*
X180065351Y-52836065D01*
X180065351Y-52836065D02*
X180065351Y-53359875D01*
X182112971Y-53359875D02*
X182065352Y-53359875D01*
X182065352Y-53359875D02*
X181970113Y-53312256D01*
X181970113Y-53312256D02*
X181827256Y-53169398D01*
X181827256Y-53169398D02*
X181589161Y-52883684D01*
X181589161Y-52883684D02*
X181493923Y-52740827D01*
X181493923Y-52740827D02*
X181446304Y-52597970D01*
X181446304Y-52597970D02*
X181446304Y-52502732D01*
X181446304Y-52502732D02*
X181493923Y-52407494D01*
X181493923Y-52407494D02*
X181589161Y-52359875D01*
X181589161Y-52359875D02*
X181636780Y-52359875D01*
X181636780Y-52359875D02*
X181732018Y-52407494D01*
X181732018Y-52407494D02*
X181779637Y-52502732D01*
X181779637Y-52502732D02*
X181779637Y-52550351D01*
X181779637Y-52550351D02*
X181732018Y-52645589D01*
X181732018Y-52645589D02*
X181684399Y-52693208D01*
X181684399Y-52693208D02*
X181398685Y-52883684D01*
X181398685Y-52883684D02*
X181351066Y-52931303D01*
X181351066Y-52931303D02*
X181303447Y-53026541D01*
X181303447Y-53026541D02*
X181303447Y-53169398D01*
X181303447Y-53169398D02*
X181351066Y-53264636D01*
X181351066Y-53264636D02*
X181398685Y-53312256D01*
X181398685Y-53312256D02*
X181493923Y-53359875D01*
X181493923Y-53359875D02*
X181636780Y-53359875D01*
X181636780Y-53359875D02*
X181732018Y-53312256D01*
X181732018Y-53312256D02*
X181779637Y-53264636D01*
X181779637Y-53264636D02*
X181922494Y-53074160D01*
X181922494Y-53074160D02*
X181970113Y-52931303D01*
X181970113Y-52931303D02*
X181970113Y-52836065D01*
X169589160Y-54922200D02*
X169732017Y-54969819D01*
X169732017Y-54969819D02*
X169970112Y-54969819D01*
X169970112Y-54969819D02*
X170065350Y-54922200D01*
X170065350Y-54922200D02*
X170112969Y-54874580D01*
X170112969Y-54874580D02*
X170160588Y-54779342D01*
X170160588Y-54779342D02*
X170160588Y-54684104D01*
X170160588Y-54684104D02*
X170112969Y-54588866D01*
X170112969Y-54588866D02*
X170065350Y-54541247D01*
X170065350Y-54541247D02*
X169970112Y-54493628D01*
X169970112Y-54493628D02*
X169779636Y-54446009D01*
X169779636Y-54446009D02*
X169684398Y-54398390D01*
X169684398Y-54398390D02*
X169636779Y-54350771D01*
X169636779Y-54350771D02*
X169589160Y-54255533D01*
X169589160Y-54255533D02*
X169589160Y-54160295D01*
X169589160Y-54160295D02*
X169636779Y-54065057D01*
X169636779Y-54065057D02*
X169684398Y-54017438D01*
X169684398Y-54017438D02*
X169779636Y-53969819D01*
X169779636Y-53969819D02*
X170017731Y-53969819D01*
X170017731Y-53969819D02*
X170160588Y-54017438D01*
X170446303Y-54303152D02*
X170827255Y-54303152D01*
X170589160Y-53969819D02*
X170589160Y-54826961D01*
X170589160Y-54826961D02*
X170636779Y-54922200D01*
X170636779Y-54922200D02*
X170732017Y-54969819D01*
X170732017Y-54969819D02*
X170827255Y-54969819D01*
X171160589Y-54969819D02*
X171160589Y-54303152D01*
X171160589Y-54493628D02*
X171208208Y-54398390D01*
X171208208Y-54398390D02*
X171255827Y-54350771D01*
X171255827Y-54350771D02*
X171351065Y-54303152D01*
X171351065Y-54303152D02*
X171446303Y-54303152D01*
X172160589Y-54922200D02*
X172065351Y-54969819D01*
X172065351Y-54969819D02*
X171874875Y-54969819D01*
X171874875Y-54969819D02*
X171779637Y-54922200D01*
X171779637Y-54922200D02*
X171732018Y-54826961D01*
X171732018Y-54826961D02*
X171732018Y-54446009D01*
X171732018Y-54446009D02*
X171779637Y-54350771D01*
X171779637Y-54350771D02*
X171874875Y-54303152D01*
X171874875Y-54303152D02*
X172065351Y-54303152D01*
X172065351Y-54303152D02*
X172160589Y-54350771D01*
X172160589Y-54350771D02*
X172208208Y-54446009D01*
X172208208Y-54446009D02*
X172208208Y-54541247D01*
X172208208Y-54541247D02*
X171732018Y-54636485D01*
X173017732Y-54922200D02*
X172922494Y-54969819D01*
X172922494Y-54969819D02*
X172732018Y-54969819D01*
X172732018Y-54969819D02*
X172636780Y-54922200D01*
X172636780Y-54922200D02*
X172589161Y-54826961D01*
X172589161Y-54826961D02*
X172589161Y-54446009D01*
X172589161Y-54446009D02*
X172636780Y-54350771D01*
X172636780Y-54350771D02*
X172732018Y-54303152D01*
X172732018Y-54303152D02*
X172922494Y-54303152D01*
X172922494Y-54303152D02*
X173017732Y-54350771D01*
X173017732Y-54350771D02*
X173065351Y-54446009D01*
X173065351Y-54446009D02*
X173065351Y-54541247D01*
X173065351Y-54541247D02*
X172589161Y-54636485D01*
X173351066Y-54303152D02*
X173732018Y-54303152D01*
X173493923Y-53969819D02*
X173493923Y-54826961D01*
X173493923Y-54826961D02*
X173541542Y-54922200D01*
X173541542Y-54922200D02*
X173636780Y-54969819D01*
X173636780Y-54969819D02*
X173732018Y-54969819D01*
X174208209Y-54969819D02*
X174112971Y-54922200D01*
X174112971Y-54922200D02*
X174065352Y-54826961D01*
X174065352Y-54826961D02*
X174065352Y-53969819D01*
X175017733Y-54969819D02*
X175017733Y-54446009D01*
X175017733Y-54446009D02*
X174970114Y-54350771D01*
X174970114Y-54350771D02*
X174874876Y-54303152D01*
X174874876Y-54303152D02*
X174684400Y-54303152D01*
X174684400Y-54303152D02*
X174589162Y-54350771D01*
X175017733Y-54922200D02*
X174922495Y-54969819D01*
X174922495Y-54969819D02*
X174684400Y-54969819D01*
X174684400Y-54969819D02*
X174589162Y-54922200D01*
X174589162Y-54922200D02*
X174541543Y-54826961D01*
X174541543Y-54826961D02*
X174541543Y-54731723D01*
X174541543Y-54731723D02*
X174589162Y-54636485D01*
X174589162Y-54636485D02*
X174684400Y-54588866D01*
X174684400Y-54588866D02*
X174922495Y-54588866D01*
X174922495Y-54588866D02*
X175017733Y-54541247D01*
X175493924Y-54969819D02*
X175493924Y-54303152D01*
X175493924Y-54398390D02*
X175541543Y-54350771D01*
X175541543Y-54350771D02*
X175636781Y-54303152D01*
X175636781Y-54303152D02*
X175779638Y-54303152D01*
X175779638Y-54303152D02*
X175874876Y-54350771D01*
X175874876Y-54350771D02*
X175922495Y-54446009D01*
X175922495Y-54446009D02*
X175922495Y-54969819D01*
X175922495Y-54446009D02*
X175970114Y-54350771D01*
X175970114Y-54350771D02*
X176065352Y-54303152D01*
X176065352Y-54303152D02*
X176208209Y-54303152D01*
X176208209Y-54303152D02*
X176303448Y-54350771D01*
X176303448Y-54350771D02*
X176351067Y-54446009D01*
X176351067Y-54446009D02*
X176351067Y-54969819D01*
X176827257Y-54303152D02*
X176827257Y-55303152D01*
X176827257Y-54350771D02*
X176922495Y-54303152D01*
X176922495Y-54303152D02*
X177112971Y-54303152D01*
X177112971Y-54303152D02*
X177208209Y-54350771D01*
X177208209Y-54350771D02*
X177255828Y-54398390D01*
X177255828Y-54398390D02*
X177303447Y-54493628D01*
X177303447Y-54493628D02*
X177303447Y-54779342D01*
X177303447Y-54779342D02*
X177255828Y-54874580D01*
X177255828Y-54874580D02*
X177208209Y-54922200D01*
X177208209Y-54922200D02*
X177112971Y-54969819D01*
X177112971Y-54969819D02*
X176922495Y-54969819D01*
X176922495Y-54969819D02*
X176827257Y-54922200D01*
D11*
X182500000Y-109870600D02*
X181357143Y-109870600D01*
X180642857Y-109870600D02*
X179500000Y-109870600D01*
X180071428Y-109299171D02*
X180071428Y-110442028D01*
X152179400Y-96035714D02*
X152179400Y-94892857D01*
X151250828Y-93892856D02*
X151250828Y-93607142D01*
X151250828Y-93607142D02*
X151322257Y-93464285D01*
X151322257Y-93464285D02*
X151465114Y-93321428D01*
X151465114Y-93321428D02*
X151750828Y-93249999D01*
X151750828Y-93249999D02*
X152250828Y-93249999D01*
X152250828Y-93249999D02*
X152536542Y-93321428D01*
X152536542Y-93321428D02*
X152679400Y-93464285D01*
X152679400Y-93464285D02*
X152750828Y-93607142D01*
X152750828Y-93607142D02*
X152750828Y-93892856D01*
X152750828Y-93892856D02*
X152679400Y-94035714D01*
X152679400Y-94035714D02*
X152536542Y-94178571D01*
X152536542Y-94178571D02*
X152250828Y-94249999D01*
X152250828Y-94249999D02*
X151750828Y-94249999D01*
X151750828Y-94249999D02*
X151465114Y-94178571D01*
X151465114Y-94178571D02*
X151322257Y-94035714D01*
X151322257Y-94035714D02*
X151250828Y-93892856D01*
X152179400Y-92607142D02*
X152179400Y-91464285D01*
X152750828Y-92035713D02*
X151607971Y-92035713D01*
D10*
X146741541Y-51003152D02*
X146979636Y-51669819D01*
X146979636Y-51669819D02*
X147217731Y-51003152D01*
X147551065Y-50765057D02*
X147598684Y-50717438D01*
X147598684Y-50717438D02*
X147693922Y-50669819D01*
X147693922Y-50669819D02*
X147932017Y-50669819D01*
X147932017Y-50669819D02*
X148027255Y-50717438D01*
X148027255Y-50717438D02*
X148074874Y-50765057D01*
X148074874Y-50765057D02*
X148122493Y-50860295D01*
X148122493Y-50860295D02*
X148122493Y-50955533D01*
X148122493Y-50955533D02*
X148074874Y-51098390D01*
X148074874Y-51098390D02*
X147503446Y-51669819D01*
X147503446Y-51669819D02*
X148122493Y-51669819D01*
X148551065Y-51574580D02*
X148598684Y-51622200D01*
X148598684Y-51622200D02*
X148551065Y-51669819D01*
X148551065Y-51669819D02*
X148503446Y-51622200D01*
X148503446Y-51622200D02*
X148551065Y-51574580D01*
X148551065Y-51574580D02*
X148551065Y-51669819D01*
X149217731Y-50669819D02*
X149312969Y-50669819D01*
X149312969Y-50669819D02*
X149408207Y-50717438D01*
X149408207Y-50717438D02*
X149455826Y-50765057D01*
X149455826Y-50765057D02*
X149503445Y-50860295D01*
X149503445Y-50860295D02*
X149551064Y-51050771D01*
X149551064Y-51050771D02*
X149551064Y-51288866D01*
X149551064Y-51288866D02*
X149503445Y-51479342D01*
X149503445Y-51479342D02*
X149455826Y-51574580D01*
X149455826Y-51574580D02*
X149408207Y-51622200D01*
X149408207Y-51622200D02*
X149312969Y-51669819D01*
X149312969Y-51669819D02*
X149217731Y-51669819D01*
X149217731Y-51669819D02*
X149122493Y-51622200D01*
X149122493Y-51622200D02*
X149074874Y-51574580D01*
X149074874Y-51574580D02*
X149027255Y-51479342D01*
X149027255Y-51479342D02*
X148979636Y-51288866D01*
X148979636Y-51288866D02*
X148979636Y-51050771D01*
X148979636Y-51050771D02*
X149027255Y-50860295D01*
X149027255Y-50860295D02*
X149074874Y-50765057D01*
X149074874Y-50765057D02*
X149122493Y-50717438D01*
X149122493Y-50717438D02*
X149217731Y-50669819D01*
X150741541Y-51288866D02*
X151503446Y-51288866D01*
X152693922Y-50765057D02*
X152741541Y-50717438D01*
X152741541Y-50717438D02*
X152836779Y-50669819D01*
X152836779Y-50669819D02*
X153074874Y-50669819D01*
X153074874Y-50669819D02*
X153170112Y-50717438D01*
X153170112Y-50717438D02*
X153217731Y-50765057D01*
X153217731Y-50765057D02*
X153265350Y-50860295D01*
X153265350Y-50860295D02*
X153265350Y-50955533D01*
X153265350Y-50955533D02*
X153217731Y-51098390D01*
X153217731Y-51098390D02*
X152646303Y-51669819D01*
X152646303Y-51669819D02*
X153265350Y-51669819D01*
X153884398Y-50669819D02*
X153979636Y-50669819D01*
X153979636Y-50669819D02*
X154074874Y-50717438D01*
X154074874Y-50717438D02*
X154122493Y-50765057D01*
X154122493Y-50765057D02*
X154170112Y-50860295D01*
X154170112Y-50860295D02*
X154217731Y-51050771D01*
X154217731Y-51050771D02*
X154217731Y-51288866D01*
X154217731Y-51288866D02*
X154170112Y-51479342D01*
X154170112Y-51479342D02*
X154122493Y-51574580D01*
X154122493Y-51574580D02*
X154074874Y-51622200D01*
X154074874Y-51622200D02*
X153979636Y-51669819D01*
X153979636Y-51669819D02*
X153884398Y-51669819D01*
X153884398Y-51669819D02*
X153789160Y-51622200D01*
X153789160Y-51622200D02*
X153741541Y-51574580D01*
X153741541Y-51574580D02*
X153693922Y-51479342D01*
X153693922Y-51479342D02*
X153646303Y-51288866D01*
X153646303Y-51288866D02*
X153646303Y-51050771D01*
X153646303Y-51050771D02*
X153693922Y-50860295D01*
X153693922Y-50860295D02*
X153741541Y-50765057D01*
X153741541Y-50765057D02*
X153789160Y-50717438D01*
X153789160Y-50717438D02*
X153884398Y-50669819D01*
X154646303Y-51574580D02*
X154693922Y-51622200D01*
X154693922Y-51622200D02*
X154646303Y-51669819D01*
X154646303Y-51669819D02*
X154598684Y-51622200D01*
X154598684Y-51622200D02*
X154646303Y-51574580D01*
X154646303Y-51574580D02*
X154646303Y-51669819D01*
X155312969Y-50669819D02*
X155408207Y-50669819D01*
X155408207Y-50669819D02*
X155503445Y-50717438D01*
X155503445Y-50717438D02*
X155551064Y-50765057D01*
X155551064Y-50765057D02*
X155598683Y-50860295D01*
X155598683Y-50860295D02*
X155646302Y-51050771D01*
X155646302Y-51050771D02*
X155646302Y-51288866D01*
X155646302Y-51288866D02*
X155598683Y-51479342D01*
X155598683Y-51479342D02*
X155551064Y-51574580D01*
X155551064Y-51574580D02*
X155503445Y-51622200D01*
X155503445Y-51622200D02*
X155408207Y-51669819D01*
X155408207Y-51669819D02*
X155312969Y-51669819D01*
X155312969Y-51669819D02*
X155217731Y-51622200D01*
X155217731Y-51622200D02*
X155170112Y-51574580D01*
X155170112Y-51574580D02*
X155122493Y-51479342D01*
X155122493Y-51479342D02*
X155074874Y-51288866D01*
X155074874Y-51288866D02*
X155074874Y-51050771D01*
X155074874Y-51050771D02*
X155122493Y-50860295D01*
X155122493Y-50860295D02*
X155170112Y-50765057D01*
X155170112Y-50765057D02*
X155217731Y-50717438D01*
X155217731Y-50717438D02*
X155312969Y-50669819D01*
X156122493Y-51669819D02*
X156312969Y-51669819D01*
X156312969Y-51669819D02*
X156408207Y-51622200D01*
X156408207Y-51622200D02*
X156455826Y-51574580D01*
X156455826Y-51574580D02*
X156551064Y-51431723D01*
X156551064Y-51431723D02*
X156598683Y-51241247D01*
X156598683Y-51241247D02*
X156598683Y-50860295D01*
X156598683Y-50860295D02*
X156551064Y-50765057D01*
X156551064Y-50765057D02*
X156503445Y-50717438D01*
X156503445Y-50717438D02*
X156408207Y-50669819D01*
X156408207Y-50669819D02*
X156217731Y-50669819D01*
X156217731Y-50669819D02*
X156122493Y-50717438D01*
X156122493Y-50717438D02*
X156074874Y-50765057D01*
X156074874Y-50765057D02*
X156027255Y-50860295D01*
X156027255Y-50860295D02*
X156027255Y-51098390D01*
X156027255Y-51098390D02*
X156074874Y-51193628D01*
X156074874Y-51193628D02*
X156122493Y-51241247D01*
X156122493Y-51241247D02*
X156217731Y-51288866D01*
X156217731Y-51288866D02*
X156408207Y-51288866D01*
X156408207Y-51288866D02*
X156503445Y-51241247D01*
X156503445Y-51241247D02*
X156551064Y-51193628D01*
X156551064Y-51193628D02*
X156598683Y-51098390D01*
X157027255Y-51574580D02*
X157074874Y-51622200D01*
X157074874Y-51622200D02*
X157027255Y-51669819D01*
X157027255Y-51669819D02*
X156979636Y-51622200D01*
X156979636Y-51622200D02*
X157027255Y-51574580D01*
X157027255Y-51574580D02*
X157027255Y-51669819D01*
X157455826Y-50765057D02*
X157503445Y-50717438D01*
X157503445Y-50717438D02*
X157598683Y-50669819D01*
X157598683Y-50669819D02*
X157836778Y-50669819D01*
X157836778Y-50669819D02*
X157932016Y-50717438D01*
X157932016Y-50717438D02*
X157979635Y-50765057D01*
X157979635Y-50765057D02*
X158027254Y-50860295D01*
X158027254Y-50860295D02*
X158027254Y-50955533D01*
X158027254Y-50955533D02*
X157979635Y-51098390D01*
X157979635Y-51098390D02*
X157408207Y-51669819D01*
X157408207Y-51669819D02*
X158027254Y-51669819D01*
X158646302Y-50669819D02*
X158741540Y-50669819D01*
X158741540Y-50669819D02*
X158836778Y-50717438D01*
X158836778Y-50717438D02*
X158884397Y-50765057D01*
X158884397Y-50765057D02*
X158932016Y-50860295D01*
X158932016Y-50860295D02*
X158979635Y-51050771D01*
X158979635Y-51050771D02*
X158979635Y-51288866D01*
X158979635Y-51288866D02*
X158932016Y-51479342D01*
X158932016Y-51479342D02*
X158884397Y-51574580D01*
X158884397Y-51574580D02*
X158836778Y-51622200D01*
X158836778Y-51622200D02*
X158741540Y-51669819D01*
X158741540Y-51669819D02*
X158646302Y-51669819D01*
X158646302Y-51669819D02*
X158551064Y-51622200D01*
X158551064Y-51622200D02*
X158503445Y-51574580D01*
X158503445Y-51574580D02*
X158455826Y-51479342D01*
X158455826Y-51479342D02*
X158408207Y-51288866D01*
X158408207Y-51288866D02*
X158408207Y-51050771D01*
X158408207Y-51050771D02*
X158455826Y-50860295D01*
X158455826Y-50860295D02*
X158503445Y-50765057D01*
X158503445Y-50765057D02*
X158551064Y-50717438D01*
X158551064Y-50717438D02*
X158646302Y-50669819D01*
X159360588Y-50765057D02*
X159408207Y-50717438D01*
X159408207Y-50717438D02*
X159503445Y-50669819D01*
X159503445Y-50669819D02*
X159741540Y-50669819D01*
X159741540Y-50669819D02*
X159836778Y-50717438D01*
X159836778Y-50717438D02*
X159884397Y-50765057D01*
X159884397Y-50765057D02*
X159932016Y-50860295D01*
X159932016Y-50860295D02*
X159932016Y-50955533D01*
X159932016Y-50955533D02*
X159884397Y-51098390D01*
X159884397Y-51098390D02*
X159312969Y-51669819D01*
X159312969Y-51669819D02*
X159932016Y-51669819D01*
X160789159Y-51003152D02*
X160789159Y-51669819D01*
X160551064Y-50622200D02*
X160312969Y-51336485D01*
X160312969Y-51336485D02*
X160932016Y-51336485D01*
D11*
X181842857Y-118900828D02*
X181128571Y-118900828D01*
X181128571Y-118900828D02*
X181128571Y-117400828D01*
X184342857Y-118900828D02*
X183842857Y-118186542D01*
X183485714Y-118900828D02*
X183485714Y-117400828D01*
X183485714Y-117400828D02*
X184057143Y-117400828D01*
X184057143Y-117400828D02*
X184200000Y-117472257D01*
X184200000Y-117472257D02*
X184271429Y-117543685D01*
X184271429Y-117543685D02*
X184342857Y-117686542D01*
X184342857Y-117686542D02*
X184342857Y-117900828D01*
X184342857Y-117900828D02*
X184271429Y-118043685D01*
X184271429Y-118043685D02*
X184200000Y-118115114D01*
X184200000Y-118115114D02*
X184057143Y-118186542D01*
X184057143Y-118186542D02*
X183485714Y-118186542D01*
D10*
X145276190Y-114507200D02*
X145419047Y-114554819D01*
X145419047Y-114554819D02*
X145657142Y-114554819D01*
X145657142Y-114554819D02*
X145752380Y-114507200D01*
X145752380Y-114507200D02*
X145799999Y-114459580D01*
X145799999Y-114459580D02*
X145847618Y-114364342D01*
X145847618Y-114364342D02*
X145847618Y-114269104D01*
X145847618Y-114269104D02*
X145799999Y-114173866D01*
X145799999Y-114173866D02*
X145752380Y-114126247D01*
X145752380Y-114126247D02*
X145657142Y-114078628D01*
X145657142Y-114078628D02*
X145466666Y-114031009D01*
X145466666Y-114031009D02*
X145371428Y-113983390D01*
X145371428Y-113983390D02*
X145323809Y-113935771D01*
X145323809Y-113935771D02*
X145276190Y-113840533D01*
X145276190Y-113840533D02*
X145276190Y-113745295D01*
X145276190Y-113745295D02*
X145323809Y-113650057D01*
X145323809Y-113650057D02*
X145371428Y-113602438D01*
X145371428Y-113602438D02*
X145466666Y-113554819D01*
X145466666Y-113554819D02*
X145704761Y-113554819D01*
X145704761Y-113554819D02*
X145847618Y-113602438D01*
X146276190Y-113888152D02*
X146276190Y-114888152D01*
X146276190Y-113935771D02*
X146371428Y-113888152D01*
X146371428Y-113888152D02*
X146561904Y-113888152D01*
X146561904Y-113888152D02*
X146657142Y-113935771D01*
X146657142Y-113935771D02*
X146704761Y-113983390D01*
X146704761Y-113983390D02*
X146752380Y-114078628D01*
X146752380Y-114078628D02*
X146752380Y-114364342D01*
X146752380Y-114364342D02*
X146704761Y-114459580D01*
X146704761Y-114459580D02*
X146657142Y-114507200D01*
X146657142Y-114507200D02*
X146561904Y-114554819D01*
X146561904Y-114554819D02*
X146371428Y-114554819D01*
X146371428Y-114554819D02*
X146276190Y-114507200D01*
X147561904Y-114507200D02*
X147466666Y-114554819D01*
X147466666Y-114554819D02*
X147276190Y-114554819D01*
X147276190Y-114554819D02*
X147180952Y-114507200D01*
X147180952Y-114507200D02*
X147133333Y-114411961D01*
X147133333Y-114411961D02*
X147133333Y-114031009D01*
X147133333Y-114031009D02*
X147180952Y-113935771D01*
X147180952Y-113935771D02*
X147276190Y-113888152D01*
X147276190Y-113888152D02*
X147466666Y-113888152D01*
X147466666Y-113888152D02*
X147561904Y-113935771D01*
X147561904Y-113935771D02*
X147609523Y-114031009D01*
X147609523Y-114031009D02*
X147609523Y-114126247D01*
X147609523Y-114126247D02*
X147133333Y-114221485D01*
X148419047Y-114507200D02*
X148323809Y-114554819D01*
X148323809Y-114554819D02*
X148133333Y-114554819D01*
X148133333Y-114554819D02*
X148038095Y-114507200D01*
X148038095Y-114507200D02*
X147990476Y-114411961D01*
X147990476Y-114411961D02*
X147990476Y-114031009D01*
X147990476Y-114031009D02*
X148038095Y-113935771D01*
X148038095Y-113935771D02*
X148133333Y-113888152D01*
X148133333Y-113888152D02*
X148323809Y-113888152D01*
X148323809Y-113888152D02*
X148419047Y-113935771D01*
X148419047Y-113935771D02*
X148466666Y-114031009D01*
X148466666Y-114031009D02*
X148466666Y-114126247D01*
X148466666Y-114126247D02*
X147990476Y-114221485D01*
X149323809Y-114554819D02*
X149323809Y-113554819D01*
X149323809Y-114507200D02*
X149228571Y-114554819D01*
X149228571Y-114554819D02*
X149038095Y-114554819D01*
X149038095Y-114554819D02*
X148942857Y-114507200D01*
X148942857Y-114507200D02*
X148895238Y-114459580D01*
X148895238Y-114459580D02*
X148847619Y-114364342D01*
X148847619Y-114364342D02*
X148847619Y-114078628D01*
X148847619Y-114078628D02*
X148895238Y-113983390D01*
X148895238Y-113983390D02*
X148942857Y-113935771D01*
X148942857Y-113935771D02*
X149038095Y-113888152D01*
X149038095Y-113888152D02*
X149228571Y-113888152D01*
X149228571Y-113888152D02*
X149323809Y-113935771D01*
X150323809Y-114554819D02*
X149752381Y-114554819D01*
X150038095Y-114554819D02*
X150038095Y-113554819D01*
X150038095Y-113554819D02*
X149942857Y-113697676D01*
X149942857Y-113697676D02*
X149847619Y-113792914D01*
X149847619Y-113792914D02*
X149752381Y-113840533D01*
X145404761Y-90454819D02*
X145071428Y-89978628D01*
X144833333Y-90454819D02*
X144833333Y-89454819D01*
X144833333Y-89454819D02*
X145214285Y-89454819D01*
X145214285Y-89454819D02*
X145309523Y-89502438D01*
X145309523Y-89502438D02*
X145357142Y-89550057D01*
X145357142Y-89550057D02*
X145404761Y-89645295D01*
X145404761Y-89645295D02*
X145404761Y-89788152D01*
X145404761Y-89788152D02*
X145357142Y-89883390D01*
X145357142Y-89883390D02*
X145309523Y-89931009D01*
X145309523Y-89931009D02*
X145214285Y-89978628D01*
X145214285Y-89978628D02*
X144833333Y-89978628D01*
X145833333Y-90454819D02*
X145833333Y-89788152D01*
X145833333Y-89978628D02*
X145880952Y-89883390D01*
X145880952Y-89883390D02*
X145928571Y-89835771D01*
X145928571Y-89835771D02*
X146023809Y-89788152D01*
X146023809Y-89788152D02*
X146119047Y-89788152D01*
X146452381Y-89788152D02*
X146452381Y-90788152D01*
X146452381Y-89835771D02*
X146547619Y-89788152D01*
X146547619Y-89788152D02*
X146738095Y-89788152D01*
X146738095Y-89788152D02*
X146833333Y-89835771D01*
X146833333Y-89835771D02*
X146880952Y-89883390D01*
X146880952Y-89883390D02*
X146928571Y-89978628D01*
X146928571Y-89978628D02*
X146928571Y-90264342D01*
X146928571Y-90264342D02*
X146880952Y-90359580D01*
X146880952Y-90359580D02*
X146833333Y-90407200D01*
X146833333Y-90407200D02*
X146738095Y-90454819D01*
X146738095Y-90454819D02*
X146547619Y-90454819D01*
X146547619Y-90454819D02*
X146452381Y-90407200D01*
X147357143Y-90454819D02*
X147357143Y-89788152D01*
X147357143Y-89883390D02*
X147404762Y-89835771D01*
X147404762Y-89835771D02*
X147500000Y-89788152D01*
X147500000Y-89788152D02*
X147642857Y-89788152D01*
X147642857Y-89788152D02*
X147738095Y-89835771D01*
X147738095Y-89835771D02*
X147785714Y-89931009D01*
X147785714Y-89931009D02*
X147785714Y-90454819D01*
X147785714Y-89931009D02*
X147833333Y-89835771D01*
X147833333Y-89835771D02*
X147928571Y-89788152D01*
X147928571Y-89788152D02*
X148071428Y-89788152D01*
X148071428Y-89788152D02*
X148166667Y-89835771D01*
X148166667Y-89835771D02*
X148214286Y-89931009D01*
X148214286Y-89931009D02*
X148214286Y-90454819D01*
X148642857Y-89550057D02*
X148690476Y-89502438D01*
X148690476Y-89502438D02*
X148785714Y-89454819D01*
X148785714Y-89454819D02*
X149023809Y-89454819D01*
X149023809Y-89454819D02*
X149119047Y-89502438D01*
X149119047Y-89502438D02*
X149166666Y-89550057D01*
X149166666Y-89550057D02*
X149214285Y-89645295D01*
X149214285Y-89645295D02*
X149214285Y-89740533D01*
X149214285Y-89740533D02*
X149166666Y-89883390D01*
X149166666Y-89883390D02*
X148595238Y-90454819D01*
X148595238Y-90454819D02*
X149214285Y-90454819D01*
X145054819Y-98742856D02*
X145054819Y-98171428D01*
X146054819Y-98457142D02*
X145054819Y-98457142D01*
X145531009Y-97838094D02*
X145531009Y-97504761D01*
X146054819Y-97361904D02*
X146054819Y-97838094D01*
X146054819Y-97838094D02*
X145054819Y-97838094D01*
X145054819Y-97838094D02*
X145054819Y-97361904D01*
X146054819Y-96933332D02*
X145054819Y-96933332D01*
X145054819Y-96933332D02*
X145769104Y-96599999D01*
X145769104Y-96599999D02*
X145054819Y-96266666D01*
X145054819Y-96266666D02*
X146054819Y-96266666D01*
X146054819Y-95790475D02*
X145054819Y-95790475D01*
X145054819Y-95790475D02*
X145054819Y-95409523D01*
X145054819Y-95409523D02*
X145102438Y-95314285D01*
X145102438Y-95314285D02*
X145150057Y-95266666D01*
X145150057Y-95266666D02*
X145245295Y-95219047D01*
X145245295Y-95219047D02*
X145388152Y-95219047D01*
X145388152Y-95219047D02*
X145483390Y-95266666D01*
X145483390Y-95266666D02*
X145531009Y-95314285D01*
X145531009Y-95314285D02*
X145578628Y-95409523D01*
X145578628Y-95409523D02*
X145578628Y-95790475D01*
X146150057Y-95028571D02*
X146150057Y-94266666D01*
X146007200Y-94076189D02*
X146054819Y-93933332D01*
X146054819Y-93933332D02*
X146054819Y-93695237D01*
X146054819Y-93695237D02*
X146007200Y-93599999D01*
X146007200Y-93599999D02*
X145959580Y-93552380D01*
X145959580Y-93552380D02*
X145864342Y-93504761D01*
X145864342Y-93504761D02*
X145769104Y-93504761D01*
X145769104Y-93504761D02*
X145673866Y-93552380D01*
X145673866Y-93552380D02*
X145626247Y-93599999D01*
X145626247Y-93599999D02*
X145578628Y-93695237D01*
X145578628Y-93695237D02*
X145531009Y-93885713D01*
X145531009Y-93885713D02*
X145483390Y-93980951D01*
X145483390Y-93980951D02*
X145435771Y-94028570D01*
X145435771Y-94028570D02*
X145340533Y-94076189D01*
X145340533Y-94076189D02*
X145245295Y-94076189D01*
X145245295Y-94076189D02*
X145150057Y-94028570D01*
X145150057Y-94028570D02*
X145102438Y-93980951D01*
X145102438Y-93980951D02*
X145054819Y-93885713D01*
X145054819Y-93885713D02*
X145054819Y-93647618D01*
X145054819Y-93647618D02*
X145102438Y-93504761D01*
X146054819Y-92552380D02*
X146054819Y-93123808D01*
X146054819Y-92838094D02*
X145054819Y-92838094D01*
X145054819Y-92838094D02*
X145197676Y-92933332D01*
X145197676Y-92933332D02*
X145292914Y-93028570D01*
X145292914Y-93028570D02*
X145340533Y-93123808D01*
X163423809Y-105554819D02*
X163090476Y-105078628D01*
X162852381Y-105554819D02*
X162852381Y-104554819D01*
X162852381Y-104554819D02*
X163233333Y-104554819D01*
X163233333Y-104554819D02*
X163328571Y-104602438D01*
X163328571Y-104602438D02*
X163376190Y-104650057D01*
X163376190Y-104650057D02*
X163423809Y-104745295D01*
X163423809Y-104745295D02*
X163423809Y-104888152D01*
X163423809Y-104888152D02*
X163376190Y-104983390D01*
X163376190Y-104983390D02*
X163328571Y-105031009D01*
X163328571Y-105031009D02*
X163233333Y-105078628D01*
X163233333Y-105078628D02*
X162852381Y-105078628D01*
X163804762Y-105507200D02*
X163900000Y-105554819D01*
X163900000Y-105554819D02*
X164090476Y-105554819D01*
X164090476Y-105554819D02*
X164185714Y-105507200D01*
X164185714Y-105507200D02*
X164233333Y-105411961D01*
X164233333Y-105411961D02*
X164233333Y-105364342D01*
X164233333Y-105364342D02*
X164185714Y-105269104D01*
X164185714Y-105269104D02*
X164090476Y-105221485D01*
X164090476Y-105221485D02*
X163947619Y-105221485D01*
X163947619Y-105221485D02*
X163852381Y-105173866D01*
X163852381Y-105173866D02*
X163804762Y-105078628D01*
X163804762Y-105078628D02*
X163804762Y-105031009D01*
X163804762Y-105031009D02*
X163852381Y-104935771D01*
X163852381Y-104935771D02*
X163947619Y-104888152D01*
X163947619Y-104888152D02*
X164090476Y-104888152D01*
X164090476Y-104888152D02*
X164185714Y-104935771D01*
X164661905Y-104888152D02*
X164661905Y-105888152D01*
X164661905Y-104935771D02*
X164757143Y-104888152D01*
X164757143Y-104888152D02*
X164947619Y-104888152D01*
X164947619Y-104888152D02*
X165042857Y-104935771D01*
X165042857Y-104935771D02*
X165090476Y-104983390D01*
X165090476Y-104983390D02*
X165138095Y-105078628D01*
X165138095Y-105078628D02*
X165138095Y-105364342D01*
X165138095Y-105364342D02*
X165090476Y-105459580D01*
X165090476Y-105459580D02*
X165042857Y-105507200D01*
X165042857Y-105507200D02*
X164947619Y-105554819D01*
X164947619Y-105554819D02*
X164757143Y-105554819D01*
X164757143Y-105554819D02*
X164661905Y-105507200D01*
X165995238Y-105554819D02*
X165995238Y-104554819D01*
X165995238Y-105507200D02*
X165900000Y-105554819D01*
X165900000Y-105554819D02*
X165709524Y-105554819D01*
X165709524Y-105554819D02*
X165614286Y-105507200D01*
X165614286Y-105507200D02*
X165566667Y-105459580D01*
X165566667Y-105459580D02*
X165519048Y-105364342D01*
X165519048Y-105364342D02*
X165519048Y-105078628D01*
X165519048Y-105078628D02*
X165566667Y-104983390D01*
X165566667Y-104983390D02*
X165614286Y-104935771D01*
X165614286Y-104935771D02*
X165709524Y-104888152D01*
X165709524Y-104888152D02*
X165900000Y-104888152D01*
X165900000Y-104888152D02*
X165995238Y-104935771D01*
X166423810Y-104650057D02*
X166471429Y-104602438D01*
X166471429Y-104602438D02*
X166566667Y-104554819D01*
X166566667Y-104554819D02*
X166804762Y-104554819D01*
X166804762Y-104554819D02*
X166900000Y-104602438D01*
X166900000Y-104602438D02*
X166947619Y-104650057D01*
X166947619Y-104650057D02*
X166995238Y-104745295D01*
X166995238Y-104745295D02*
X166995238Y-104840533D01*
X166995238Y-104840533D02*
X166947619Y-104983390D01*
X166947619Y-104983390D02*
X166376191Y-105554819D01*
X166376191Y-105554819D02*
X166995238Y-105554819D01*
X177533333Y-118854819D02*
X177866666Y-119854819D01*
X177866666Y-119854819D02*
X178199999Y-118854819D01*
X178961904Y-119807200D02*
X178866666Y-119854819D01*
X178866666Y-119854819D02*
X178676190Y-119854819D01*
X178676190Y-119854819D02*
X178580952Y-119807200D01*
X178580952Y-119807200D02*
X178533333Y-119759580D01*
X178533333Y-119759580D02*
X178485714Y-119664342D01*
X178485714Y-119664342D02*
X178485714Y-119378628D01*
X178485714Y-119378628D02*
X178533333Y-119283390D01*
X178533333Y-119283390D02*
X178580952Y-119235771D01*
X178580952Y-119235771D02*
X178676190Y-119188152D01*
X178676190Y-119188152D02*
X178866666Y-119188152D01*
X178866666Y-119188152D02*
X178961904Y-119235771D01*
X179819047Y-119807200D02*
X179723809Y-119854819D01*
X179723809Y-119854819D02*
X179533333Y-119854819D01*
X179533333Y-119854819D02*
X179438095Y-119807200D01*
X179438095Y-119807200D02*
X179390476Y-119759580D01*
X179390476Y-119759580D02*
X179342857Y-119664342D01*
X179342857Y-119664342D02*
X179342857Y-119378628D01*
X179342857Y-119378628D02*
X179390476Y-119283390D01*
X179390476Y-119283390D02*
X179438095Y-119235771D01*
X179438095Y-119235771D02*
X179533333Y-119188152D01*
X179533333Y-119188152D02*
X179723809Y-119188152D01*
X179723809Y-119188152D02*
X179819047Y-119235771D01*
X180771428Y-119854819D02*
X180200000Y-119854819D01*
X180485714Y-119854819D02*
X180485714Y-118854819D01*
X180485714Y-118854819D02*
X180390476Y-118997676D01*
X180390476Y-118997676D02*
X180295238Y-119092914D01*
X180295238Y-119092914D02*
X180200000Y-119140533D01*
X145347618Y-105888152D02*
X145347618Y-106697676D01*
X145347618Y-106697676D02*
X145299999Y-106792914D01*
X145299999Y-106792914D02*
X145252380Y-106840533D01*
X145252380Y-106840533D02*
X145157142Y-106888152D01*
X145157142Y-106888152D02*
X145014285Y-106888152D01*
X145014285Y-106888152D02*
X144919047Y-106840533D01*
X145347618Y-106507200D02*
X145252380Y-106554819D01*
X145252380Y-106554819D02*
X145061904Y-106554819D01*
X145061904Y-106554819D02*
X144966666Y-106507200D01*
X144966666Y-106507200D02*
X144919047Y-106459580D01*
X144919047Y-106459580D02*
X144871428Y-106364342D01*
X144871428Y-106364342D02*
X144871428Y-106078628D01*
X144871428Y-106078628D02*
X144919047Y-105983390D01*
X144919047Y-105983390D02*
X144966666Y-105935771D01*
X144966666Y-105935771D02*
X145061904Y-105888152D01*
X145061904Y-105888152D02*
X145252380Y-105888152D01*
X145252380Y-105888152D02*
X145347618Y-105935771D01*
X146252380Y-106554819D02*
X146252380Y-106031009D01*
X146252380Y-106031009D02*
X146204761Y-105935771D01*
X146204761Y-105935771D02*
X146109523Y-105888152D01*
X146109523Y-105888152D02*
X145919047Y-105888152D01*
X145919047Y-105888152D02*
X145823809Y-105935771D01*
X146252380Y-106507200D02*
X146157142Y-106554819D01*
X146157142Y-106554819D02*
X145919047Y-106554819D01*
X145919047Y-106554819D02*
X145823809Y-106507200D01*
X145823809Y-106507200D02*
X145776190Y-106411961D01*
X145776190Y-106411961D02*
X145776190Y-106316723D01*
X145776190Y-106316723D02*
X145823809Y-106221485D01*
X145823809Y-106221485D02*
X145919047Y-106173866D01*
X145919047Y-106173866D02*
X146157142Y-106173866D01*
X146157142Y-106173866D02*
X146252380Y-106126247D01*
X147157142Y-105888152D02*
X147157142Y-106554819D01*
X146728571Y-105888152D02*
X146728571Y-106411961D01*
X146728571Y-106411961D02*
X146776190Y-106507200D01*
X146776190Y-106507200D02*
X146871428Y-106554819D01*
X146871428Y-106554819D02*
X147014285Y-106554819D01*
X147014285Y-106554819D02*
X147109523Y-106507200D01*
X147109523Y-106507200D02*
X147157142Y-106459580D01*
X148061904Y-105888152D02*
X148061904Y-106697676D01*
X148061904Y-106697676D02*
X148014285Y-106792914D01*
X148014285Y-106792914D02*
X147966666Y-106840533D01*
X147966666Y-106840533D02*
X147871428Y-106888152D01*
X147871428Y-106888152D02*
X147728571Y-106888152D01*
X147728571Y-106888152D02*
X147633333Y-106840533D01*
X148061904Y-106507200D02*
X147966666Y-106554819D01*
X147966666Y-106554819D02*
X147776190Y-106554819D01*
X147776190Y-106554819D02*
X147680952Y-106507200D01*
X147680952Y-106507200D02*
X147633333Y-106459580D01*
X147633333Y-106459580D02*
X147585714Y-106364342D01*
X147585714Y-106364342D02*
X147585714Y-106078628D01*
X147585714Y-106078628D02*
X147633333Y-105983390D01*
X147633333Y-105983390D02*
X147680952Y-105935771D01*
X147680952Y-105935771D02*
X147776190Y-105888152D01*
X147776190Y-105888152D02*
X147966666Y-105888152D01*
X147966666Y-105888152D02*
X148061904Y-105935771D01*
X148919047Y-106507200D02*
X148823809Y-106554819D01*
X148823809Y-106554819D02*
X148633333Y-106554819D01*
X148633333Y-106554819D02*
X148538095Y-106507200D01*
X148538095Y-106507200D02*
X148490476Y-106411961D01*
X148490476Y-106411961D02*
X148490476Y-106031009D01*
X148490476Y-106031009D02*
X148538095Y-105935771D01*
X148538095Y-105935771D02*
X148633333Y-105888152D01*
X148633333Y-105888152D02*
X148823809Y-105888152D01*
X148823809Y-105888152D02*
X148919047Y-105935771D01*
X148919047Y-105935771D02*
X148966666Y-106031009D01*
X148966666Y-106031009D02*
X148966666Y-106126247D01*
X148966666Y-106126247D02*
X148490476Y-106221485D01*
X149347619Y-106507200D02*
X149442857Y-106554819D01*
X149442857Y-106554819D02*
X149633333Y-106554819D01*
X149633333Y-106554819D02*
X149728571Y-106507200D01*
X149728571Y-106507200D02*
X149776190Y-106411961D01*
X149776190Y-106411961D02*
X149776190Y-106364342D01*
X149776190Y-106364342D02*
X149728571Y-106269104D01*
X149728571Y-106269104D02*
X149633333Y-106221485D01*
X149633333Y-106221485D02*
X149490476Y-106221485D01*
X149490476Y-106221485D02*
X149395238Y-106173866D01*
X149395238Y-106173866D02*
X149347619Y-106078628D01*
X149347619Y-106078628D02*
X149347619Y-106031009D01*
X149347619Y-106031009D02*
X149395238Y-105935771D01*
X149395238Y-105935771D02*
X149490476Y-105888152D01*
X149490476Y-105888152D02*
X149633333Y-105888152D01*
X149633333Y-105888152D02*
X149728571Y-105935771D01*
X150728571Y-106554819D02*
X150157143Y-106554819D01*
X150442857Y-106554819D02*
X150442857Y-105554819D01*
X150442857Y-105554819D02*
X150347619Y-105697676D01*
X150347619Y-105697676D02*
X150252381Y-105792914D01*
X150252381Y-105792914D02*
X150157143Y-105840533D01*
X145824819Y-85238095D02*
X145348628Y-85571428D01*
X145824819Y-85809523D02*
X144824819Y-85809523D01*
X144824819Y-85809523D02*
X144824819Y-85428571D01*
X144824819Y-85428571D02*
X144872438Y-85333333D01*
X144872438Y-85333333D02*
X144920057Y-85285714D01*
X144920057Y-85285714D02*
X145015295Y-85238095D01*
X145015295Y-85238095D02*
X145158152Y-85238095D01*
X145158152Y-85238095D02*
X145253390Y-85285714D01*
X145253390Y-85285714D02*
X145301009Y-85333333D01*
X145301009Y-85333333D02*
X145348628Y-85428571D01*
X145348628Y-85428571D02*
X145348628Y-85809523D01*
X145824819Y-84809523D02*
X144824819Y-84809523D01*
X144824819Y-84809523D02*
X144824819Y-84428571D01*
X144824819Y-84428571D02*
X144872438Y-84333333D01*
X144872438Y-84333333D02*
X144920057Y-84285714D01*
X144920057Y-84285714D02*
X145015295Y-84238095D01*
X145015295Y-84238095D02*
X145158152Y-84238095D01*
X145158152Y-84238095D02*
X145253390Y-84285714D01*
X145253390Y-84285714D02*
X145301009Y-84333333D01*
X145301009Y-84333333D02*
X145348628Y-84428571D01*
X145348628Y-84428571D02*
X145348628Y-84809523D01*
X145824819Y-83809523D02*
X144824819Y-83809523D01*
X144824819Y-83809523D02*
X145539104Y-83476190D01*
X145539104Y-83476190D02*
X144824819Y-83142857D01*
X144824819Y-83142857D02*
X145824819Y-83142857D01*
X145824819Y-82142857D02*
X145824819Y-82714285D01*
X145824819Y-82428571D02*
X144824819Y-82428571D01*
X144824819Y-82428571D02*
X144967676Y-82523809D01*
X144967676Y-82523809D02*
X145062914Y-82619047D01*
X145062914Y-82619047D02*
X145110533Y-82714285D01*
X159361904Y-57259580D02*
X159314285Y-57307200D01*
X159314285Y-57307200D02*
X159171428Y-57354819D01*
X159171428Y-57354819D02*
X159076190Y-57354819D01*
X159076190Y-57354819D02*
X158933333Y-57307200D01*
X158933333Y-57307200D02*
X158838095Y-57211961D01*
X158838095Y-57211961D02*
X158790476Y-57116723D01*
X158790476Y-57116723D02*
X158742857Y-56926247D01*
X158742857Y-56926247D02*
X158742857Y-56783390D01*
X158742857Y-56783390D02*
X158790476Y-56592914D01*
X158790476Y-56592914D02*
X158838095Y-56497676D01*
X158838095Y-56497676D02*
X158933333Y-56402438D01*
X158933333Y-56402438D02*
X159076190Y-56354819D01*
X159076190Y-56354819D02*
X159171428Y-56354819D01*
X159171428Y-56354819D02*
X159314285Y-56402438D01*
X159314285Y-56402438D02*
X159361904Y-56450057D01*
X159742857Y-57307200D02*
X159838095Y-57354819D01*
X159838095Y-57354819D02*
X160028571Y-57354819D01*
X160028571Y-57354819D02*
X160123809Y-57307200D01*
X160123809Y-57307200D02*
X160171428Y-57211961D01*
X160171428Y-57211961D02*
X160171428Y-57164342D01*
X160171428Y-57164342D02*
X160123809Y-57069104D01*
X160123809Y-57069104D02*
X160028571Y-57021485D01*
X160028571Y-57021485D02*
X159885714Y-57021485D01*
X159885714Y-57021485D02*
X159790476Y-56973866D01*
X159790476Y-56973866D02*
X159742857Y-56878628D01*
X159742857Y-56878628D02*
X159742857Y-56831009D01*
X159742857Y-56831009D02*
X159790476Y-56735771D01*
X159790476Y-56735771D02*
X159885714Y-56688152D01*
X159885714Y-56688152D02*
X160028571Y-56688152D01*
X160028571Y-56688152D02*
X160123809Y-56735771D01*
X160600000Y-57354819D02*
X160600000Y-56354819D01*
X161028571Y-57354819D02*
X161028571Y-56831009D01*
X161028571Y-56831009D02*
X160980952Y-56735771D01*
X160980952Y-56735771D02*
X160885714Y-56688152D01*
X160885714Y-56688152D02*
X160742857Y-56688152D01*
X160742857Y-56688152D02*
X160647619Y-56735771D01*
X160647619Y-56735771D02*
X160600000Y-56783390D01*
X161647619Y-57354819D02*
X161552381Y-57307200D01*
X161552381Y-57307200D02*
X161504762Y-57211961D01*
X161504762Y-57211961D02*
X161504762Y-56354819D01*
X162457143Y-57354819D02*
X162457143Y-56354819D01*
X162457143Y-57307200D02*
X162361905Y-57354819D01*
X162361905Y-57354819D02*
X162171429Y-57354819D01*
X162171429Y-57354819D02*
X162076191Y-57307200D01*
X162076191Y-57307200D02*
X162028572Y-57259580D01*
X162028572Y-57259580D02*
X161980953Y-57164342D01*
X161980953Y-57164342D02*
X161980953Y-56878628D01*
X161980953Y-56878628D02*
X162028572Y-56783390D01*
X162028572Y-56783390D02*
X162076191Y-56735771D01*
X162076191Y-56735771D02*
X162171429Y-56688152D01*
X162171429Y-56688152D02*
X162361905Y-56688152D01*
X162361905Y-56688152D02*
X162457143Y-56735771D01*
X163457143Y-57354819D02*
X162885715Y-57354819D01*
X163171429Y-57354819D02*
X163171429Y-56354819D01*
X163171429Y-56354819D02*
X163076191Y-56497676D01*
X163076191Y-56497676D02*
X162980953Y-56592914D01*
X162980953Y-56592914D02*
X162885715Y-56640533D01*
X175154819Y-107919047D02*
X174678628Y-108252380D01*
X175154819Y-108490475D02*
X174154819Y-108490475D01*
X174154819Y-108490475D02*
X174154819Y-108109523D01*
X174154819Y-108109523D02*
X174202438Y-108014285D01*
X174202438Y-108014285D02*
X174250057Y-107966666D01*
X174250057Y-107966666D02*
X174345295Y-107919047D01*
X174345295Y-107919047D02*
X174488152Y-107919047D01*
X174488152Y-107919047D02*
X174583390Y-107966666D01*
X174583390Y-107966666D02*
X174631009Y-108014285D01*
X174631009Y-108014285D02*
X174678628Y-108109523D01*
X174678628Y-108109523D02*
X174678628Y-108490475D01*
X175154819Y-107490475D02*
X174488152Y-107490475D01*
X174678628Y-107490475D02*
X174583390Y-107442856D01*
X174583390Y-107442856D02*
X174535771Y-107395237D01*
X174535771Y-107395237D02*
X174488152Y-107299999D01*
X174488152Y-107299999D02*
X174488152Y-107204761D01*
X175154819Y-106871427D02*
X174488152Y-106871427D01*
X174154819Y-106871427D02*
X174202438Y-106919046D01*
X174202438Y-106919046D02*
X174250057Y-106871427D01*
X174250057Y-106871427D02*
X174202438Y-106823808D01*
X174202438Y-106823808D02*
X174154819Y-106871427D01*
X174154819Y-106871427D02*
X174250057Y-106871427D01*
X174488152Y-106395237D02*
X175154819Y-106395237D01*
X174583390Y-106395237D02*
X174535771Y-106347618D01*
X174535771Y-106347618D02*
X174488152Y-106252380D01*
X174488152Y-106252380D02*
X174488152Y-106109523D01*
X174488152Y-106109523D02*
X174535771Y-106014285D01*
X174535771Y-106014285D02*
X174631009Y-105966666D01*
X174631009Y-105966666D02*
X175154819Y-105966666D01*
X175154819Y-105061904D02*
X174154819Y-105061904D01*
X175107200Y-105061904D02*
X175154819Y-105157142D01*
X175154819Y-105157142D02*
X175154819Y-105347618D01*
X175154819Y-105347618D02*
X175107200Y-105442856D01*
X175107200Y-105442856D02*
X175059580Y-105490475D01*
X175059580Y-105490475D02*
X174964342Y-105538094D01*
X174964342Y-105538094D02*
X174678628Y-105538094D01*
X174678628Y-105538094D02*
X174583390Y-105490475D01*
X174583390Y-105490475D02*
X174535771Y-105442856D01*
X174535771Y-105442856D02*
X174488152Y-105347618D01*
X174488152Y-105347618D02*
X174488152Y-105157142D01*
X174488152Y-105157142D02*
X174535771Y-105061904D01*
X175154819Y-104061904D02*
X175154819Y-104633332D01*
X175154819Y-104347618D02*
X174154819Y-104347618D01*
X174154819Y-104347618D02*
X174297676Y-104442856D01*
X174297676Y-104442856D02*
X174392914Y-104538094D01*
X174392914Y-104538094D02*
X174440533Y-104633332D01*
X155093333Y-76581009D02*
X155426666Y-76581009D01*
X155569523Y-77104819D02*
X155093333Y-77104819D01*
X155093333Y-77104819D02*
X155093333Y-76104819D01*
X155093333Y-76104819D02*
X155569523Y-76104819D01*
X155950476Y-77057200D02*
X156093333Y-77104819D01*
X156093333Y-77104819D02*
X156331428Y-77104819D01*
X156331428Y-77104819D02*
X156426666Y-77057200D01*
X156426666Y-77057200D02*
X156474285Y-77009580D01*
X156474285Y-77009580D02*
X156521904Y-76914342D01*
X156521904Y-76914342D02*
X156521904Y-76819104D01*
X156521904Y-76819104D02*
X156474285Y-76723866D01*
X156474285Y-76723866D02*
X156426666Y-76676247D01*
X156426666Y-76676247D02*
X156331428Y-76628628D01*
X156331428Y-76628628D02*
X156140952Y-76581009D01*
X156140952Y-76581009D02*
X156045714Y-76533390D01*
X156045714Y-76533390D02*
X155998095Y-76485771D01*
X155998095Y-76485771D02*
X155950476Y-76390533D01*
X155950476Y-76390533D02*
X155950476Y-76295295D01*
X155950476Y-76295295D02*
X155998095Y-76200057D01*
X155998095Y-76200057D02*
X156045714Y-76152438D01*
X156045714Y-76152438D02*
X156140952Y-76104819D01*
X156140952Y-76104819D02*
X156379047Y-76104819D01*
X156379047Y-76104819D02*
X156521904Y-76152438D01*
X156950476Y-77104819D02*
X156950476Y-76104819D01*
X156950476Y-76104819D02*
X157331428Y-76104819D01*
X157331428Y-76104819D02*
X157426666Y-76152438D01*
X157426666Y-76152438D02*
X157474285Y-76200057D01*
X157474285Y-76200057D02*
X157521904Y-76295295D01*
X157521904Y-76295295D02*
X157521904Y-76438152D01*
X157521904Y-76438152D02*
X157474285Y-76533390D01*
X157474285Y-76533390D02*
X157426666Y-76581009D01*
X157426666Y-76581009D02*
X157331428Y-76628628D01*
X157331428Y-76628628D02*
X156950476Y-76628628D01*
X158474285Y-77104819D02*
X157902857Y-77104819D01*
X158188571Y-77104819D02*
X158188571Y-76104819D01*
X158188571Y-76104819D02*
X158093333Y-76247676D01*
X158093333Y-76247676D02*
X157998095Y-76342914D01*
X157998095Y-76342914D02*
X157902857Y-76390533D01*
X176454819Y-112371428D02*
X175978628Y-112704761D01*
X176454819Y-112942856D02*
X175454819Y-112942856D01*
X175454819Y-112942856D02*
X175454819Y-112561904D01*
X175454819Y-112561904D02*
X175502438Y-112466666D01*
X175502438Y-112466666D02*
X175550057Y-112419047D01*
X175550057Y-112419047D02*
X175645295Y-112371428D01*
X175645295Y-112371428D02*
X175788152Y-112371428D01*
X175788152Y-112371428D02*
X175883390Y-112419047D01*
X175883390Y-112419047D02*
X175931009Y-112466666D01*
X175931009Y-112466666D02*
X175978628Y-112561904D01*
X175978628Y-112561904D02*
X175978628Y-112942856D01*
X176454819Y-111799999D02*
X176407200Y-111895237D01*
X176407200Y-111895237D02*
X176311961Y-111942856D01*
X176311961Y-111942856D02*
X175454819Y-111942856D01*
X176454819Y-111419046D02*
X175788152Y-111419046D01*
X175454819Y-111419046D02*
X175502438Y-111466665D01*
X175502438Y-111466665D02*
X175550057Y-111419046D01*
X175550057Y-111419046D02*
X175502438Y-111371427D01*
X175502438Y-111371427D02*
X175454819Y-111419046D01*
X175454819Y-111419046D02*
X175550057Y-111419046D01*
X175788152Y-110942856D02*
X176454819Y-110942856D01*
X175883390Y-110942856D02*
X175835771Y-110895237D01*
X175835771Y-110895237D02*
X175788152Y-110799999D01*
X175788152Y-110799999D02*
X175788152Y-110657142D01*
X175788152Y-110657142D02*
X175835771Y-110561904D01*
X175835771Y-110561904D02*
X175931009Y-110514285D01*
X175931009Y-110514285D02*
X176454819Y-110514285D01*
X176454819Y-109609523D02*
X175454819Y-109609523D01*
X176407200Y-109609523D02*
X176454819Y-109704761D01*
X176454819Y-109704761D02*
X176454819Y-109895237D01*
X176454819Y-109895237D02*
X176407200Y-109990475D01*
X176407200Y-109990475D02*
X176359580Y-110038094D01*
X176359580Y-110038094D02*
X176264342Y-110085713D01*
X176264342Y-110085713D02*
X175978628Y-110085713D01*
X175978628Y-110085713D02*
X175883390Y-110038094D01*
X175883390Y-110038094D02*
X175835771Y-109990475D01*
X175835771Y-109990475D02*
X175788152Y-109895237D01*
X175788152Y-109895237D02*
X175788152Y-109704761D01*
X175788152Y-109704761D02*
X175835771Y-109609523D01*
X176454819Y-108609523D02*
X176454819Y-109180951D01*
X176454819Y-108895237D02*
X175454819Y-108895237D01*
X175454819Y-108895237D02*
X175597676Y-108990475D01*
X175597676Y-108990475D02*
X175692914Y-109085713D01*
X175692914Y-109085713D02*
X175740533Y-109180951D01*
X153654819Y-107866666D02*
X153178628Y-108199999D01*
X153654819Y-108438094D02*
X152654819Y-108438094D01*
X152654819Y-108438094D02*
X152654819Y-108057142D01*
X152654819Y-108057142D02*
X152702438Y-107961904D01*
X152702438Y-107961904D02*
X152750057Y-107914285D01*
X152750057Y-107914285D02*
X152845295Y-107866666D01*
X152845295Y-107866666D02*
X152988152Y-107866666D01*
X152988152Y-107866666D02*
X153083390Y-107914285D01*
X153083390Y-107914285D02*
X153131009Y-107961904D01*
X153131009Y-107961904D02*
X153178628Y-108057142D01*
X153178628Y-108057142D02*
X153178628Y-108438094D01*
X152750057Y-107485713D02*
X152702438Y-107438094D01*
X152702438Y-107438094D02*
X152654819Y-107342856D01*
X152654819Y-107342856D02*
X152654819Y-107104761D01*
X152654819Y-107104761D02*
X152702438Y-107009523D01*
X152702438Y-107009523D02*
X152750057Y-106961904D01*
X152750057Y-106961904D02*
X152845295Y-106914285D01*
X152845295Y-106914285D02*
X152940533Y-106914285D01*
X152940533Y-106914285D02*
X153083390Y-106961904D01*
X153083390Y-106961904D02*
X153654819Y-107533332D01*
X153654819Y-107533332D02*
X153654819Y-106914285D01*
X157414285Y-104754819D02*
X157080952Y-104278628D01*
X156842857Y-104754819D02*
X156842857Y-103754819D01*
X156842857Y-103754819D02*
X157223809Y-103754819D01*
X157223809Y-103754819D02*
X157319047Y-103802438D01*
X157319047Y-103802438D02*
X157366666Y-103850057D01*
X157366666Y-103850057D02*
X157414285Y-103945295D01*
X157414285Y-103945295D02*
X157414285Y-104088152D01*
X157414285Y-104088152D02*
X157366666Y-104183390D01*
X157366666Y-104183390D02*
X157319047Y-104231009D01*
X157319047Y-104231009D02*
X157223809Y-104278628D01*
X157223809Y-104278628D02*
X156842857Y-104278628D01*
X157747619Y-104088152D02*
X157938095Y-104754819D01*
X157938095Y-104754819D02*
X158128571Y-104278628D01*
X158128571Y-104278628D02*
X158319047Y-104754819D01*
X158319047Y-104754819D02*
X158509523Y-104088152D01*
X158747619Y-104088152D02*
X159128571Y-104088152D01*
X158890476Y-103754819D02*
X158890476Y-104611961D01*
X158890476Y-104611961D02*
X158938095Y-104707200D01*
X158938095Y-104707200D02*
X159033333Y-104754819D01*
X159033333Y-104754819D02*
X159128571Y-104754819D01*
X159461905Y-104754819D02*
X159461905Y-104088152D01*
X159461905Y-104278628D02*
X159509524Y-104183390D01*
X159509524Y-104183390D02*
X159557143Y-104135771D01*
X159557143Y-104135771D02*
X159652381Y-104088152D01*
X159652381Y-104088152D02*
X159747619Y-104088152D01*
X160604762Y-104754819D02*
X160033334Y-104754819D01*
X160319048Y-104754819D02*
X160319048Y-103754819D01*
X160319048Y-103754819D02*
X160223810Y-103897676D01*
X160223810Y-103897676D02*
X160128572Y-103992914D01*
X160128572Y-103992914D02*
X160033334Y-104040533D01*
X183950057Y-99185714D02*
X183902438Y-99280952D01*
X183902438Y-99280952D02*
X183807200Y-99376190D01*
X183807200Y-99376190D02*
X183664342Y-99519047D01*
X183664342Y-99519047D02*
X183616723Y-99614285D01*
X183616723Y-99614285D02*
X183616723Y-99709523D01*
X183854819Y-99661904D02*
X183807200Y-99757142D01*
X183807200Y-99757142D02*
X183711961Y-99852380D01*
X183711961Y-99852380D02*
X183521485Y-99899999D01*
X183521485Y-99899999D02*
X183188152Y-99899999D01*
X183188152Y-99899999D02*
X182997676Y-99852380D01*
X182997676Y-99852380D02*
X182902438Y-99757142D01*
X182902438Y-99757142D02*
X182854819Y-99661904D01*
X182854819Y-99661904D02*
X182854819Y-99471428D01*
X182854819Y-99471428D02*
X182902438Y-99376190D01*
X182902438Y-99376190D02*
X182997676Y-99280952D01*
X182997676Y-99280952D02*
X183188152Y-99233333D01*
X183188152Y-99233333D02*
X183521485Y-99233333D01*
X183521485Y-99233333D02*
X183711961Y-99280952D01*
X183711961Y-99280952D02*
X183807200Y-99376190D01*
X183807200Y-99376190D02*
X183854819Y-99471428D01*
X183854819Y-99471428D02*
X183854819Y-99661904D01*
X183188152Y-98947618D02*
X183188152Y-98566666D01*
X183854819Y-98804761D02*
X182997676Y-98804761D01*
X182997676Y-98804761D02*
X182902438Y-98757142D01*
X182902438Y-98757142D02*
X182854819Y-98661904D01*
X182854819Y-98661904D02*
X182854819Y-98566666D01*
X183854819Y-97804761D02*
X183331009Y-97804761D01*
X183331009Y-97804761D02*
X183235771Y-97852380D01*
X183235771Y-97852380D02*
X183188152Y-97947618D01*
X183188152Y-97947618D02*
X183188152Y-98138094D01*
X183188152Y-98138094D02*
X183235771Y-98233332D01*
X183807200Y-97804761D02*
X183854819Y-97899999D01*
X183854819Y-97899999D02*
X183854819Y-98138094D01*
X183854819Y-98138094D02*
X183807200Y-98233332D01*
X183807200Y-98233332D02*
X183711961Y-98280951D01*
X183711961Y-98280951D02*
X183616723Y-98280951D01*
X183616723Y-98280951D02*
X183521485Y-98233332D01*
X183521485Y-98233332D02*
X183473866Y-98138094D01*
X183473866Y-98138094D02*
X183473866Y-97899999D01*
X183473866Y-97899999D02*
X183426247Y-97804761D01*
X183188152Y-97328570D02*
X183854819Y-97328570D01*
X183283390Y-97328570D02*
X183235771Y-97280951D01*
X183235771Y-97280951D02*
X183188152Y-97185713D01*
X183188152Y-97185713D02*
X183188152Y-97042856D01*
X183188152Y-97042856D02*
X183235771Y-96947618D01*
X183235771Y-96947618D02*
X183331009Y-96899999D01*
X183331009Y-96899999D02*
X183854819Y-96899999D01*
X183854819Y-95899999D02*
X183854819Y-96471427D01*
X183854819Y-96185713D02*
X182854819Y-96185713D01*
X182854819Y-96185713D02*
X182997676Y-96280951D01*
X182997676Y-96280951D02*
X183092914Y-96376189D01*
X183092914Y-96376189D02*
X183140533Y-96471427D01*
X178647619Y-111729819D02*
X178647619Y-110729819D01*
X179123809Y-111063152D02*
X179123809Y-111729819D01*
X179123809Y-111158390D02*
X179171428Y-111110771D01*
X179171428Y-111110771D02*
X179266666Y-111063152D01*
X179266666Y-111063152D02*
X179409523Y-111063152D01*
X179409523Y-111063152D02*
X179504761Y-111110771D01*
X179504761Y-111110771D02*
X179552380Y-111206009D01*
X179552380Y-111206009D02*
X179552380Y-111729819D01*
X180457142Y-111729819D02*
X180457142Y-110729819D01*
X180457142Y-111682200D02*
X180361904Y-111729819D01*
X180361904Y-111729819D02*
X180171428Y-111729819D01*
X180171428Y-111729819D02*
X180076190Y-111682200D01*
X180076190Y-111682200D02*
X180028571Y-111634580D01*
X180028571Y-111634580D02*
X179980952Y-111539342D01*
X179980952Y-111539342D02*
X179980952Y-111253628D01*
X179980952Y-111253628D02*
X180028571Y-111158390D01*
X180028571Y-111158390D02*
X180076190Y-111110771D01*
X180076190Y-111110771D02*
X180171428Y-111063152D01*
X180171428Y-111063152D02*
X180361904Y-111063152D01*
X180361904Y-111063152D02*
X180457142Y-111110771D01*
X180933333Y-111729819D02*
X180933333Y-111063152D01*
X180933333Y-110729819D02*
X180885714Y-110777438D01*
X180885714Y-110777438D02*
X180933333Y-110825057D01*
X180933333Y-110825057D02*
X180980952Y-110777438D01*
X180980952Y-110777438D02*
X180933333Y-110729819D01*
X180933333Y-110729819D02*
X180933333Y-110825057D01*
X181838094Y-111682200D02*
X181742856Y-111729819D01*
X181742856Y-111729819D02*
X181552380Y-111729819D01*
X181552380Y-111729819D02*
X181457142Y-111682200D01*
X181457142Y-111682200D02*
X181409523Y-111634580D01*
X181409523Y-111634580D02*
X181361904Y-111539342D01*
X181361904Y-111539342D02*
X181361904Y-111253628D01*
X181361904Y-111253628D02*
X181409523Y-111158390D01*
X181409523Y-111158390D02*
X181457142Y-111110771D01*
X181457142Y-111110771D02*
X181552380Y-111063152D01*
X181552380Y-111063152D02*
X181742856Y-111063152D01*
X181742856Y-111063152D02*
X181838094Y-111110771D01*
X182219047Y-111682200D02*
X182314285Y-111729819D01*
X182314285Y-111729819D02*
X182504761Y-111729819D01*
X182504761Y-111729819D02*
X182599999Y-111682200D01*
X182599999Y-111682200D02*
X182647618Y-111586961D01*
X182647618Y-111586961D02*
X182647618Y-111539342D01*
X182647618Y-111539342D02*
X182599999Y-111444104D01*
X182599999Y-111444104D02*
X182504761Y-111396485D01*
X182504761Y-111396485D02*
X182361904Y-111396485D01*
X182361904Y-111396485D02*
X182266666Y-111348866D01*
X182266666Y-111348866D02*
X182219047Y-111253628D01*
X182219047Y-111253628D02*
X182219047Y-111206009D01*
X182219047Y-111206009D02*
X182266666Y-111110771D01*
X182266666Y-111110771D02*
X182361904Y-111063152D01*
X182361904Y-111063152D02*
X182504761Y-111063152D01*
X182504761Y-111063152D02*
X182599999Y-111110771D01*
X183599999Y-111729819D02*
X183028571Y-111729819D01*
X183314285Y-111729819D02*
X183314285Y-110729819D01*
X183314285Y-110729819D02*
X183219047Y-110872676D01*
X183219047Y-110872676D02*
X183123809Y-110967914D01*
X183123809Y-110967914D02*
X183028571Y-111015533D01*
X161428571Y-111154819D02*
X161095238Y-110678628D01*
X160857143Y-111154819D02*
X160857143Y-110154819D01*
X160857143Y-110154819D02*
X161238095Y-110154819D01*
X161238095Y-110154819D02*
X161333333Y-110202438D01*
X161333333Y-110202438D02*
X161380952Y-110250057D01*
X161380952Y-110250057D02*
X161428571Y-110345295D01*
X161428571Y-110345295D02*
X161428571Y-110488152D01*
X161428571Y-110488152D02*
X161380952Y-110583390D01*
X161380952Y-110583390D02*
X161333333Y-110631009D01*
X161333333Y-110631009D02*
X161238095Y-110678628D01*
X161238095Y-110678628D02*
X160857143Y-110678628D01*
X162285714Y-110488152D02*
X162285714Y-111154819D01*
X161857143Y-110488152D02*
X161857143Y-111011961D01*
X161857143Y-111011961D02*
X161904762Y-111107200D01*
X161904762Y-111107200D02*
X162000000Y-111154819D01*
X162000000Y-111154819D02*
X162142857Y-111154819D01*
X162142857Y-111154819D02*
X162238095Y-111107200D01*
X162238095Y-111107200D02*
X162285714Y-111059580D01*
X162761905Y-110488152D02*
X162761905Y-111488152D01*
X162761905Y-110535771D02*
X162857143Y-110488152D01*
X162857143Y-110488152D02*
X163047619Y-110488152D01*
X163047619Y-110488152D02*
X163142857Y-110535771D01*
X163142857Y-110535771D02*
X163190476Y-110583390D01*
X163190476Y-110583390D02*
X163238095Y-110678628D01*
X163238095Y-110678628D02*
X163238095Y-110964342D01*
X163238095Y-110964342D02*
X163190476Y-111059580D01*
X163190476Y-111059580D02*
X163142857Y-111107200D01*
X163142857Y-111107200D02*
X163047619Y-111154819D01*
X163047619Y-111154819D02*
X162857143Y-111154819D01*
X162857143Y-111154819D02*
X162761905Y-111107200D01*
X164190476Y-111154819D02*
X163619048Y-111154819D01*
X163904762Y-111154819D02*
X163904762Y-110154819D01*
X163904762Y-110154819D02*
X163809524Y-110297676D01*
X163809524Y-110297676D02*
X163714286Y-110392914D01*
X163714286Y-110392914D02*
X163619048Y-110440533D01*
X162157143Y-99554819D02*
X162728571Y-99554819D01*
X162442857Y-100554819D02*
X162442857Y-99554819D01*
X163061905Y-100031009D02*
X163395238Y-100031009D01*
X163538095Y-100554819D02*
X163061905Y-100554819D01*
X163061905Y-100554819D02*
X163061905Y-99554819D01*
X163061905Y-99554819D02*
X163538095Y-99554819D01*
X163966667Y-100554819D02*
X163966667Y-99554819D01*
X163966667Y-99554819D02*
X164300000Y-100269104D01*
X164300000Y-100269104D02*
X164633333Y-99554819D01*
X164633333Y-99554819D02*
X164633333Y-100554819D01*
X165109524Y-100554819D02*
X165109524Y-99554819D01*
X165109524Y-99554819D02*
X165490476Y-99554819D01*
X165490476Y-99554819D02*
X165585714Y-99602438D01*
X165585714Y-99602438D02*
X165633333Y-99650057D01*
X165633333Y-99650057D02*
X165680952Y-99745295D01*
X165680952Y-99745295D02*
X165680952Y-99888152D01*
X165680952Y-99888152D02*
X165633333Y-99983390D01*
X165633333Y-99983390D02*
X165585714Y-100031009D01*
X165585714Y-100031009D02*
X165490476Y-100078628D01*
X165490476Y-100078628D02*
X165109524Y-100078628D01*
X165871429Y-100650057D02*
X166633333Y-100650057D01*
X166823810Y-100507200D02*
X166966667Y-100554819D01*
X166966667Y-100554819D02*
X167204762Y-100554819D01*
X167204762Y-100554819D02*
X167300000Y-100507200D01*
X167300000Y-100507200D02*
X167347619Y-100459580D01*
X167347619Y-100459580D02*
X167395238Y-100364342D01*
X167395238Y-100364342D02*
X167395238Y-100269104D01*
X167395238Y-100269104D02*
X167347619Y-100173866D01*
X167347619Y-100173866D02*
X167300000Y-100126247D01*
X167300000Y-100126247D02*
X167204762Y-100078628D01*
X167204762Y-100078628D02*
X167014286Y-100031009D01*
X167014286Y-100031009D02*
X166919048Y-99983390D01*
X166919048Y-99983390D02*
X166871429Y-99935771D01*
X166871429Y-99935771D02*
X166823810Y-99840533D01*
X166823810Y-99840533D02*
X166823810Y-99745295D01*
X166823810Y-99745295D02*
X166871429Y-99650057D01*
X166871429Y-99650057D02*
X166919048Y-99602438D01*
X166919048Y-99602438D02*
X167014286Y-99554819D01*
X167014286Y-99554819D02*
X167252381Y-99554819D01*
X167252381Y-99554819D02*
X167395238Y-99602438D01*
X167776191Y-99650057D02*
X167823810Y-99602438D01*
X167823810Y-99602438D02*
X167919048Y-99554819D01*
X167919048Y-99554819D02*
X168157143Y-99554819D01*
X168157143Y-99554819D02*
X168252381Y-99602438D01*
X168252381Y-99602438D02*
X168300000Y-99650057D01*
X168300000Y-99650057D02*
X168347619Y-99745295D01*
X168347619Y-99745295D02*
X168347619Y-99840533D01*
X168347619Y-99840533D02*
X168300000Y-99983390D01*
X168300000Y-99983390D02*
X167728572Y-100554819D01*
X167728572Y-100554819D02*
X168347619Y-100554819D01*
X157380952Y-103154819D02*
X157047619Y-102678628D01*
X156809524Y-103154819D02*
X156809524Y-102154819D01*
X156809524Y-102154819D02*
X157190476Y-102154819D01*
X157190476Y-102154819D02*
X157285714Y-102202438D01*
X157285714Y-102202438D02*
X157333333Y-102250057D01*
X157333333Y-102250057D02*
X157380952Y-102345295D01*
X157380952Y-102345295D02*
X157380952Y-102488152D01*
X157380952Y-102488152D02*
X157333333Y-102583390D01*
X157333333Y-102583390D02*
X157285714Y-102631009D01*
X157285714Y-102631009D02*
X157190476Y-102678628D01*
X157190476Y-102678628D02*
X156809524Y-102678628D01*
X157952381Y-103154819D02*
X157857143Y-103107200D01*
X157857143Y-103107200D02*
X157809524Y-103059580D01*
X157809524Y-103059580D02*
X157761905Y-102964342D01*
X157761905Y-102964342D02*
X157761905Y-102678628D01*
X157761905Y-102678628D02*
X157809524Y-102583390D01*
X157809524Y-102583390D02*
X157857143Y-102535771D01*
X157857143Y-102535771D02*
X157952381Y-102488152D01*
X157952381Y-102488152D02*
X158095238Y-102488152D01*
X158095238Y-102488152D02*
X158190476Y-102535771D01*
X158190476Y-102535771D02*
X158238095Y-102583390D01*
X158238095Y-102583390D02*
X158285714Y-102678628D01*
X158285714Y-102678628D02*
X158285714Y-102964342D01*
X158285714Y-102964342D02*
X158238095Y-103059580D01*
X158238095Y-103059580D02*
X158190476Y-103107200D01*
X158190476Y-103107200D02*
X158095238Y-103154819D01*
X158095238Y-103154819D02*
X157952381Y-103154819D01*
X158714286Y-103154819D02*
X158714286Y-102488152D01*
X158714286Y-102154819D02*
X158666667Y-102202438D01*
X158666667Y-102202438D02*
X158714286Y-102250057D01*
X158714286Y-102250057D02*
X158761905Y-102202438D01*
X158761905Y-102202438D02*
X158714286Y-102154819D01*
X158714286Y-102154819D02*
X158714286Y-102250057D01*
X159333333Y-103154819D02*
X159238095Y-103107200D01*
X159238095Y-103107200D02*
X159190476Y-103011961D01*
X159190476Y-103011961D02*
X159190476Y-102154819D01*
X160238095Y-103154819D02*
X159666667Y-103154819D01*
X159952381Y-103154819D02*
X159952381Y-102154819D01*
X159952381Y-102154819D02*
X159857143Y-102297676D01*
X159857143Y-102297676D02*
X159761905Y-102392914D01*
X159761905Y-102392914D02*
X159666667Y-102440533D01*
X157404761Y-101554819D02*
X157071428Y-101078628D01*
X156833333Y-101554819D02*
X156833333Y-100554819D01*
X156833333Y-100554819D02*
X157214285Y-100554819D01*
X157214285Y-100554819D02*
X157309523Y-100602438D01*
X157309523Y-100602438D02*
X157357142Y-100650057D01*
X157357142Y-100650057D02*
X157404761Y-100745295D01*
X157404761Y-100745295D02*
X157404761Y-100888152D01*
X157404761Y-100888152D02*
X157357142Y-100983390D01*
X157357142Y-100983390D02*
X157309523Y-101031009D01*
X157309523Y-101031009D02*
X157214285Y-101078628D01*
X157214285Y-101078628D02*
X156833333Y-101078628D01*
X157690476Y-100888152D02*
X158071428Y-100888152D01*
X157833333Y-101554819D02*
X157833333Y-100697676D01*
X157833333Y-100697676D02*
X157880952Y-100602438D01*
X157880952Y-100602438D02*
X157976190Y-100554819D01*
X157976190Y-100554819D02*
X158071428Y-100554819D01*
X158833333Y-100888152D02*
X158833333Y-101554819D01*
X158404762Y-100888152D02*
X158404762Y-101411961D01*
X158404762Y-101411961D02*
X158452381Y-101507200D01*
X158452381Y-101507200D02*
X158547619Y-101554819D01*
X158547619Y-101554819D02*
X158690476Y-101554819D01*
X158690476Y-101554819D02*
X158785714Y-101507200D01*
X158785714Y-101507200D02*
X158833333Y-101459580D01*
X159690476Y-101507200D02*
X159595238Y-101554819D01*
X159595238Y-101554819D02*
X159404762Y-101554819D01*
X159404762Y-101554819D02*
X159309524Y-101507200D01*
X159309524Y-101507200D02*
X159261905Y-101411961D01*
X159261905Y-101411961D02*
X159261905Y-101031009D01*
X159261905Y-101031009D02*
X159309524Y-100935771D01*
X159309524Y-100935771D02*
X159404762Y-100888152D01*
X159404762Y-100888152D02*
X159595238Y-100888152D01*
X159595238Y-100888152D02*
X159690476Y-100935771D01*
X159690476Y-100935771D02*
X159738095Y-101031009D01*
X159738095Y-101031009D02*
X159738095Y-101126247D01*
X159738095Y-101126247D02*
X159261905Y-101221485D01*
X160309524Y-101554819D02*
X160214286Y-101507200D01*
X160214286Y-101507200D02*
X160166667Y-101411961D01*
X160166667Y-101411961D02*
X160166667Y-100554819D01*
X161214286Y-101554819D02*
X160642858Y-101554819D01*
X160928572Y-101554819D02*
X160928572Y-100554819D01*
X160928572Y-100554819D02*
X160833334Y-100697676D01*
X160833334Y-100697676D02*
X160738096Y-100792914D01*
X160738096Y-100792914D02*
X160642858Y-100840533D01*
X179611905Y-73854819D02*
X179611905Y-74664342D01*
X179611905Y-74664342D02*
X179659524Y-74759580D01*
X179659524Y-74759580D02*
X179707143Y-74807200D01*
X179707143Y-74807200D02*
X179802381Y-74854819D01*
X179802381Y-74854819D02*
X179992857Y-74854819D01*
X179992857Y-74854819D02*
X180088095Y-74807200D01*
X180088095Y-74807200D02*
X180135714Y-74759580D01*
X180135714Y-74759580D02*
X180183333Y-74664342D01*
X180183333Y-74664342D02*
X180183333Y-73854819D01*
X180611905Y-74807200D02*
X180754762Y-74854819D01*
X180754762Y-74854819D02*
X180992857Y-74854819D01*
X180992857Y-74854819D02*
X181088095Y-74807200D01*
X181088095Y-74807200D02*
X181135714Y-74759580D01*
X181135714Y-74759580D02*
X181183333Y-74664342D01*
X181183333Y-74664342D02*
X181183333Y-74569104D01*
X181183333Y-74569104D02*
X181135714Y-74473866D01*
X181135714Y-74473866D02*
X181088095Y-74426247D01*
X181088095Y-74426247D02*
X180992857Y-74378628D01*
X180992857Y-74378628D02*
X180802381Y-74331009D01*
X180802381Y-74331009D02*
X180707143Y-74283390D01*
X180707143Y-74283390D02*
X180659524Y-74235771D01*
X180659524Y-74235771D02*
X180611905Y-74140533D01*
X180611905Y-74140533D02*
X180611905Y-74045295D01*
X180611905Y-74045295D02*
X180659524Y-73950057D01*
X180659524Y-73950057D02*
X180707143Y-73902438D01*
X180707143Y-73902438D02*
X180802381Y-73854819D01*
X180802381Y-73854819D02*
X181040476Y-73854819D01*
X181040476Y-73854819D02*
X181183333Y-73902438D01*
X181945238Y-74331009D02*
X182088095Y-74378628D01*
X182088095Y-74378628D02*
X182135714Y-74426247D01*
X182135714Y-74426247D02*
X182183333Y-74521485D01*
X182183333Y-74521485D02*
X182183333Y-74664342D01*
X182183333Y-74664342D02*
X182135714Y-74759580D01*
X182135714Y-74759580D02*
X182088095Y-74807200D01*
X182088095Y-74807200D02*
X181992857Y-74854819D01*
X181992857Y-74854819D02*
X181611905Y-74854819D01*
X181611905Y-74854819D02*
X181611905Y-73854819D01*
X181611905Y-73854819D02*
X181945238Y-73854819D01*
X181945238Y-73854819D02*
X182040476Y-73902438D01*
X182040476Y-73902438D02*
X182088095Y-73950057D01*
X182088095Y-73950057D02*
X182135714Y-74045295D01*
X182135714Y-74045295D02*
X182135714Y-74140533D01*
X182135714Y-74140533D02*
X182088095Y-74235771D01*
X182088095Y-74235771D02*
X182040476Y-74283390D01*
X182040476Y-74283390D02*
X181945238Y-74331009D01*
X181945238Y-74331009D02*
X181611905Y-74331009D01*
X183183333Y-74759580D02*
X183135714Y-74807200D01*
X183135714Y-74807200D02*
X182992857Y-74854819D01*
X182992857Y-74854819D02*
X182897619Y-74854819D01*
X182897619Y-74854819D02*
X182754762Y-74807200D01*
X182754762Y-74807200D02*
X182659524Y-74711961D01*
X182659524Y-74711961D02*
X182611905Y-74616723D01*
X182611905Y-74616723D02*
X182564286Y-74426247D01*
X182564286Y-74426247D02*
X182564286Y-74283390D01*
X182564286Y-74283390D02*
X182611905Y-74092914D01*
X182611905Y-74092914D02*
X182659524Y-73997676D01*
X182659524Y-73997676D02*
X182754762Y-73902438D01*
X182754762Y-73902438D02*
X182897619Y-73854819D01*
X182897619Y-73854819D02*
X182992857Y-73854819D01*
X182992857Y-73854819D02*
X183135714Y-73902438D01*
X183135714Y-73902438D02*
X183183333Y-73950057D01*
X184135714Y-74854819D02*
X183564286Y-74854819D01*
X183850000Y-74854819D02*
X183850000Y-73854819D01*
X183850000Y-73854819D02*
X183754762Y-73997676D01*
X183754762Y-73997676D02*
X183659524Y-74092914D01*
X183659524Y-74092914D02*
X183564286Y-74140533D01*
X179331009Y-101938095D02*
X179378628Y-101795238D01*
X179378628Y-101795238D02*
X179426247Y-101747619D01*
X179426247Y-101747619D02*
X179521485Y-101700000D01*
X179521485Y-101700000D02*
X179664342Y-101700000D01*
X179664342Y-101700000D02*
X179759580Y-101747619D01*
X179759580Y-101747619D02*
X179807200Y-101795238D01*
X179807200Y-101795238D02*
X179854819Y-101890476D01*
X179854819Y-101890476D02*
X179854819Y-102271428D01*
X179854819Y-102271428D02*
X178854819Y-102271428D01*
X178854819Y-102271428D02*
X178854819Y-101938095D01*
X178854819Y-101938095D02*
X178902438Y-101842857D01*
X178902438Y-101842857D02*
X178950057Y-101795238D01*
X178950057Y-101795238D02*
X179045295Y-101747619D01*
X179045295Y-101747619D02*
X179140533Y-101747619D01*
X179140533Y-101747619D02*
X179235771Y-101795238D01*
X179235771Y-101795238D02*
X179283390Y-101842857D01*
X179283390Y-101842857D02*
X179331009Y-101938095D01*
X179331009Y-101938095D02*
X179331009Y-102271428D01*
X179188152Y-100842857D02*
X179854819Y-100842857D01*
X179188152Y-101271428D02*
X179711961Y-101271428D01*
X179711961Y-101271428D02*
X179807200Y-101223809D01*
X179807200Y-101223809D02*
X179854819Y-101128571D01*
X179854819Y-101128571D02*
X179854819Y-100985714D01*
X179854819Y-100985714D02*
X179807200Y-100890476D01*
X179807200Y-100890476D02*
X179759580Y-100842857D01*
X179188152Y-100509523D02*
X179188152Y-100128571D01*
X178854819Y-100366666D02*
X179711961Y-100366666D01*
X179711961Y-100366666D02*
X179807200Y-100319047D01*
X179807200Y-100319047D02*
X179854819Y-100223809D01*
X179854819Y-100223809D02*
X179854819Y-100128571D01*
X179188152Y-99938094D02*
X179188152Y-99557142D01*
X178854819Y-99795237D02*
X179711961Y-99795237D01*
X179711961Y-99795237D02*
X179807200Y-99747618D01*
X179807200Y-99747618D02*
X179854819Y-99652380D01*
X179854819Y-99652380D02*
X179854819Y-99557142D01*
X179854819Y-99080951D02*
X179807200Y-99176189D01*
X179807200Y-99176189D02*
X179759580Y-99223808D01*
X179759580Y-99223808D02*
X179664342Y-99271427D01*
X179664342Y-99271427D02*
X179378628Y-99271427D01*
X179378628Y-99271427D02*
X179283390Y-99223808D01*
X179283390Y-99223808D02*
X179235771Y-99176189D01*
X179235771Y-99176189D02*
X179188152Y-99080951D01*
X179188152Y-99080951D02*
X179188152Y-98938094D01*
X179188152Y-98938094D02*
X179235771Y-98842856D01*
X179235771Y-98842856D02*
X179283390Y-98795237D01*
X179283390Y-98795237D02*
X179378628Y-98747618D01*
X179378628Y-98747618D02*
X179664342Y-98747618D01*
X179664342Y-98747618D02*
X179759580Y-98795237D01*
X179759580Y-98795237D02*
X179807200Y-98842856D01*
X179807200Y-98842856D02*
X179854819Y-98938094D01*
X179854819Y-98938094D02*
X179854819Y-99080951D01*
X179188152Y-98319046D02*
X179854819Y-98319046D01*
X179283390Y-98319046D02*
X179235771Y-98271427D01*
X179235771Y-98271427D02*
X179188152Y-98176189D01*
X179188152Y-98176189D02*
X179188152Y-98033332D01*
X179188152Y-98033332D02*
X179235771Y-97938094D01*
X179235771Y-97938094D02*
X179331009Y-97890475D01*
X179331009Y-97890475D02*
X179854819Y-97890475D01*
X179807200Y-97461903D02*
X179854819Y-97366665D01*
X179854819Y-97366665D02*
X179854819Y-97176189D01*
X179854819Y-97176189D02*
X179807200Y-97080951D01*
X179807200Y-97080951D02*
X179711961Y-97033332D01*
X179711961Y-97033332D02*
X179664342Y-97033332D01*
X179664342Y-97033332D02*
X179569104Y-97080951D01*
X179569104Y-97080951D02*
X179521485Y-97176189D01*
X179521485Y-97176189D02*
X179521485Y-97319046D01*
X179521485Y-97319046D02*
X179473866Y-97414284D01*
X179473866Y-97414284D02*
X179378628Y-97461903D01*
X179378628Y-97461903D02*
X179331009Y-97461903D01*
X179331009Y-97461903D02*
X179235771Y-97414284D01*
X179235771Y-97414284D02*
X179188152Y-97319046D01*
X179188152Y-97319046D02*
X179188152Y-97176189D01*
X179188152Y-97176189D02*
X179235771Y-97080951D01*
X179854819Y-96080951D02*
X179854819Y-96652379D01*
X179854819Y-96366665D02*
X178854819Y-96366665D01*
X178854819Y-96366665D02*
X178997676Y-96461903D01*
X178997676Y-96461903D02*
X179092914Y-96557141D01*
X179092914Y-96557141D02*
X179140533Y-96652379D01*
X161023809Y-106754819D02*
X160690476Y-106278628D01*
X160452381Y-106754819D02*
X160452381Y-105754819D01*
X160452381Y-105754819D02*
X160833333Y-105754819D01*
X160833333Y-105754819D02*
X160928571Y-105802438D01*
X160928571Y-105802438D02*
X160976190Y-105850057D01*
X160976190Y-105850057D02*
X161023809Y-105945295D01*
X161023809Y-105945295D02*
X161023809Y-106088152D01*
X161023809Y-106088152D02*
X160976190Y-106183390D01*
X160976190Y-106183390D02*
X160928571Y-106231009D01*
X160928571Y-106231009D02*
X160833333Y-106278628D01*
X160833333Y-106278628D02*
X160452381Y-106278628D01*
X161404762Y-106707200D02*
X161500000Y-106754819D01*
X161500000Y-106754819D02*
X161690476Y-106754819D01*
X161690476Y-106754819D02*
X161785714Y-106707200D01*
X161785714Y-106707200D02*
X161833333Y-106611961D01*
X161833333Y-106611961D02*
X161833333Y-106564342D01*
X161833333Y-106564342D02*
X161785714Y-106469104D01*
X161785714Y-106469104D02*
X161690476Y-106421485D01*
X161690476Y-106421485D02*
X161547619Y-106421485D01*
X161547619Y-106421485D02*
X161452381Y-106373866D01*
X161452381Y-106373866D02*
X161404762Y-106278628D01*
X161404762Y-106278628D02*
X161404762Y-106231009D01*
X161404762Y-106231009D02*
X161452381Y-106135771D01*
X161452381Y-106135771D02*
X161547619Y-106088152D01*
X161547619Y-106088152D02*
X161690476Y-106088152D01*
X161690476Y-106088152D02*
X161785714Y-106135771D01*
X162261905Y-106088152D02*
X162261905Y-107088152D01*
X162261905Y-106135771D02*
X162357143Y-106088152D01*
X162357143Y-106088152D02*
X162547619Y-106088152D01*
X162547619Y-106088152D02*
X162642857Y-106135771D01*
X162642857Y-106135771D02*
X162690476Y-106183390D01*
X162690476Y-106183390D02*
X162738095Y-106278628D01*
X162738095Y-106278628D02*
X162738095Y-106564342D01*
X162738095Y-106564342D02*
X162690476Y-106659580D01*
X162690476Y-106659580D02*
X162642857Y-106707200D01*
X162642857Y-106707200D02*
X162547619Y-106754819D01*
X162547619Y-106754819D02*
X162357143Y-106754819D01*
X162357143Y-106754819D02*
X162261905Y-106707200D01*
X163595238Y-106754819D02*
X163595238Y-105754819D01*
X163595238Y-106707200D02*
X163500000Y-106754819D01*
X163500000Y-106754819D02*
X163309524Y-106754819D01*
X163309524Y-106754819D02*
X163214286Y-106707200D01*
X163214286Y-106707200D02*
X163166667Y-106659580D01*
X163166667Y-106659580D02*
X163119048Y-106564342D01*
X163119048Y-106564342D02*
X163119048Y-106278628D01*
X163119048Y-106278628D02*
X163166667Y-106183390D01*
X163166667Y-106183390D02*
X163214286Y-106135771D01*
X163214286Y-106135771D02*
X163309524Y-106088152D01*
X163309524Y-106088152D02*
X163500000Y-106088152D01*
X163500000Y-106088152D02*
X163595238Y-106135771D01*
X164595238Y-106754819D02*
X164023810Y-106754819D01*
X164309524Y-106754819D02*
X164309524Y-105754819D01*
X164309524Y-105754819D02*
X164214286Y-105897676D01*
X164214286Y-105897676D02*
X164119048Y-105992914D01*
X164119048Y-105992914D02*
X164023810Y-106040533D01*
X146400000Y-57807200D02*
X146542857Y-57854819D01*
X146542857Y-57854819D02*
X146780952Y-57854819D01*
X146780952Y-57854819D02*
X146876190Y-57807200D01*
X146876190Y-57807200D02*
X146923809Y-57759580D01*
X146923809Y-57759580D02*
X146971428Y-57664342D01*
X146971428Y-57664342D02*
X146971428Y-57569104D01*
X146971428Y-57569104D02*
X146923809Y-57473866D01*
X146923809Y-57473866D02*
X146876190Y-57426247D01*
X146876190Y-57426247D02*
X146780952Y-57378628D01*
X146780952Y-57378628D02*
X146590476Y-57331009D01*
X146590476Y-57331009D02*
X146495238Y-57283390D01*
X146495238Y-57283390D02*
X146447619Y-57235771D01*
X146447619Y-57235771D02*
X146400000Y-57140533D01*
X146400000Y-57140533D02*
X146400000Y-57045295D01*
X146400000Y-57045295D02*
X146447619Y-56950057D01*
X146447619Y-56950057D02*
X146495238Y-56902438D01*
X146495238Y-56902438D02*
X146590476Y-56854819D01*
X146590476Y-56854819D02*
X146828571Y-56854819D01*
X146828571Y-56854819D02*
X146971428Y-56902438D01*
X147400000Y-57854819D02*
X147400000Y-56854819D01*
X147400000Y-56854819D02*
X147780952Y-56854819D01*
X147780952Y-56854819D02*
X147876190Y-56902438D01*
X147876190Y-56902438D02*
X147923809Y-56950057D01*
X147923809Y-56950057D02*
X147971428Y-57045295D01*
X147971428Y-57045295D02*
X147971428Y-57188152D01*
X147971428Y-57188152D02*
X147923809Y-57283390D01*
X147923809Y-57283390D02*
X147876190Y-57331009D01*
X147876190Y-57331009D02*
X147780952Y-57378628D01*
X147780952Y-57378628D02*
X147400000Y-57378628D01*
X148400000Y-57854819D02*
X148400000Y-56854819D01*
X148828571Y-56950057D02*
X148876190Y-56902438D01*
X148876190Y-56902438D02*
X148971428Y-56854819D01*
X148971428Y-56854819D02*
X149209523Y-56854819D01*
X149209523Y-56854819D02*
X149304761Y-56902438D01*
X149304761Y-56902438D02*
X149352380Y-56950057D01*
X149352380Y-56950057D02*
X149399999Y-57045295D01*
X149399999Y-57045295D02*
X149399999Y-57140533D01*
X149399999Y-57140533D02*
X149352380Y-57283390D01*
X149352380Y-57283390D02*
X148780952Y-57854819D01*
X148780952Y-57854819D02*
X149399999Y-57854819D01*
X153704819Y-113654166D02*
X153228628Y-113987499D01*
X153704819Y-114225594D02*
X152704819Y-114225594D01*
X152704819Y-114225594D02*
X152704819Y-113844642D01*
X152704819Y-113844642D02*
X152752438Y-113749404D01*
X152752438Y-113749404D02*
X152800057Y-113701785D01*
X152800057Y-113701785D02*
X152895295Y-113654166D01*
X152895295Y-113654166D02*
X153038152Y-113654166D01*
X153038152Y-113654166D02*
X153133390Y-113701785D01*
X153133390Y-113701785D02*
X153181009Y-113749404D01*
X153181009Y-113749404D02*
X153228628Y-113844642D01*
X153228628Y-113844642D02*
X153228628Y-114225594D01*
X153704819Y-112701785D02*
X153704819Y-113273213D01*
X153704819Y-112987499D02*
X152704819Y-112987499D01*
X152704819Y-112987499D02*
X152847676Y-113082737D01*
X152847676Y-113082737D02*
X152942914Y-113177975D01*
X152942914Y-113177975D02*
X152990533Y-113273213D01*
X173454819Y-112271428D02*
X172978628Y-112604761D01*
X173454819Y-112842856D02*
X172454819Y-112842856D01*
X172454819Y-112842856D02*
X172454819Y-112461904D01*
X172454819Y-112461904D02*
X172502438Y-112366666D01*
X172502438Y-112366666D02*
X172550057Y-112319047D01*
X172550057Y-112319047D02*
X172645295Y-112271428D01*
X172645295Y-112271428D02*
X172788152Y-112271428D01*
X172788152Y-112271428D02*
X172883390Y-112319047D01*
X172883390Y-112319047D02*
X172931009Y-112366666D01*
X172931009Y-112366666D02*
X172978628Y-112461904D01*
X172978628Y-112461904D02*
X172978628Y-112842856D01*
X173454819Y-111699999D02*
X173407200Y-111795237D01*
X173407200Y-111795237D02*
X173311961Y-111842856D01*
X173311961Y-111842856D02*
X172454819Y-111842856D01*
X173454819Y-111319046D02*
X172788152Y-111319046D01*
X172454819Y-111319046D02*
X172502438Y-111366665D01*
X172502438Y-111366665D02*
X172550057Y-111319046D01*
X172550057Y-111319046D02*
X172502438Y-111271427D01*
X172502438Y-111271427D02*
X172454819Y-111319046D01*
X172454819Y-111319046D02*
X172550057Y-111319046D01*
X172788152Y-110842856D02*
X173454819Y-110842856D01*
X172883390Y-110842856D02*
X172835771Y-110795237D01*
X172835771Y-110795237D02*
X172788152Y-110699999D01*
X172788152Y-110699999D02*
X172788152Y-110557142D01*
X172788152Y-110557142D02*
X172835771Y-110461904D01*
X172835771Y-110461904D02*
X172931009Y-110414285D01*
X172931009Y-110414285D02*
X173454819Y-110414285D01*
X173454819Y-109509523D02*
X172454819Y-109509523D01*
X173407200Y-109509523D02*
X173454819Y-109604761D01*
X173454819Y-109604761D02*
X173454819Y-109795237D01*
X173454819Y-109795237D02*
X173407200Y-109890475D01*
X173407200Y-109890475D02*
X173359580Y-109938094D01*
X173359580Y-109938094D02*
X173264342Y-109985713D01*
X173264342Y-109985713D02*
X172978628Y-109985713D01*
X172978628Y-109985713D02*
X172883390Y-109938094D01*
X172883390Y-109938094D02*
X172835771Y-109890475D01*
X172835771Y-109890475D02*
X172788152Y-109795237D01*
X172788152Y-109795237D02*
X172788152Y-109604761D01*
X172788152Y-109604761D02*
X172835771Y-109509523D01*
X172550057Y-109080951D02*
X172502438Y-109033332D01*
X172502438Y-109033332D02*
X172454819Y-108938094D01*
X172454819Y-108938094D02*
X172454819Y-108699999D01*
X172454819Y-108699999D02*
X172502438Y-108604761D01*
X172502438Y-108604761D02*
X172550057Y-108557142D01*
X172550057Y-108557142D02*
X172645295Y-108509523D01*
X172645295Y-108509523D02*
X172740533Y-108509523D01*
X172740533Y-108509523D02*
X172883390Y-108557142D01*
X172883390Y-108557142D02*
X173454819Y-109128570D01*
X173454819Y-109128570D02*
X173454819Y-108509523D01*
X151607200Y-81699999D02*
X151654819Y-81557142D01*
X151654819Y-81557142D02*
X151654819Y-81319047D01*
X151654819Y-81319047D02*
X151607200Y-81223809D01*
X151607200Y-81223809D02*
X151559580Y-81176190D01*
X151559580Y-81176190D02*
X151464342Y-81128571D01*
X151464342Y-81128571D02*
X151369104Y-81128571D01*
X151369104Y-81128571D02*
X151273866Y-81176190D01*
X151273866Y-81176190D02*
X151226247Y-81223809D01*
X151226247Y-81223809D02*
X151178628Y-81319047D01*
X151178628Y-81319047D02*
X151131009Y-81509523D01*
X151131009Y-81509523D02*
X151083390Y-81604761D01*
X151083390Y-81604761D02*
X151035771Y-81652380D01*
X151035771Y-81652380D02*
X150940533Y-81699999D01*
X150940533Y-81699999D02*
X150845295Y-81699999D01*
X150845295Y-81699999D02*
X150750057Y-81652380D01*
X150750057Y-81652380D02*
X150702438Y-81604761D01*
X150702438Y-81604761D02*
X150654819Y-81509523D01*
X150654819Y-81509523D02*
X150654819Y-81271428D01*
X150654819Y-81271428D02*
X150702438Y-81128571D01*
X151654819Y-80699999D02*
X150654819Y-80699999D01*
X150654819Y-80699999D02*
X150654819Y-80319047D01*
X150654819Y-80319047D02*
X150702438Y-80223809D01*
X150702438Y-80223809D02*
X150750057Y-80176190D01*
X150750057Y-80176190D02*
X150845295Y-80128571D01*
X150845295Y-80128571D02*
X150988152Y-80128571D01*
X150988152Y-80128571D02*
X151083390Y-80176190D01*
X151083390Y-80176190D02*
X151131009Y-80223809D01*
X151131009Y-80223809D02*
X151178628Y-80319047D01*
X151178628Y-80319047D02*
X151178628Y-80699999D01*
X151654819Y-79699999D02*
X150654819Y-79699999D01*
X151654819Y-78700000D02*
X151654819Y-79271428D01*
X151654819Y-78985714D02*
X150654819Y-78985714D01*
X150654819Y-78985714D02*
X150797676Y-79080952D01*
X150797676Y-79080952D02*
X150892914Y-79176190D01*
X150892914Y-79176190D02*
X150940533Y-79271428D01*
X176138095Y-57907200D02*
X176280952Y-57954819D01*
X176280952Y-57954819D02*
X176519047Y-57954819D01*
X176519047Y-57954819D02*
X176614285Y-57907200D01*
X176614285Y-57907200D02*
X176661904Y-57859580D01*
X176661904Y-57859580D02*
X176709523Y-57764342D01*
X176709523Y-57764342D02*
X176709523Y-57669104D01*
X176709523Y-57669104D02*
X176661904Y-57573866D01*
X176661904Y-57573866D02*
X176614285Y-57526247D01*
X176614285Y-57526247D02*
X176519047Y-57478628D01*
X176519047Y-57478628D02*
X176328571Y-57431009D01*
X176328571Y-57431009D02*
X176233333Y-57383390D01*
X176233333Y-57383390D02*
X176185714Y-57335771D01*
X176185714Y-57335771D02*
X176138095Y-57240533D01*
X176138095Y-57240533D02*
X176138095Y-57145295D01*
X176138095Y-57145295D02*
X176185714Y-57050057D01*
X176185714Y-57050057D02*
X176233333Y-57002438D01*
X176233333Y-57002438D02*
X176328571Y-56954819D01*
X176328571Y-56954819D02*
X176566666Y-56954819D01*
X176566666Y-56954819D02*
X176709523Y-57002438D01*
X177138095Y-57954819D02*
X177138095Y-56954819D01*
X177138095Y-56954819D02*
X177376190Y-56954819D01*
X177376190Y-56954819D02*
X177519047Y-57002438D01*
X177519047Y-57002438D02*
X177614285Y-57097676D01*
X177614285Y-57097676D02*
X177661904Y-57192914D01*
X177661904Y-57192914D02*
X177709523Y-57383390D01*
X177709523Y-57383390D02*
X177709523Y-57526247D01*
X177709523Y-57526247D02*
X177661904Y-57716723D01*
X177661904Y-57716723D02*
X177614285Y-57811961D01*
X177614285Y-57811961D02*
X177519047Y-57907200D01*
X177519047Y-57907200D02*
X177376190Y-57954819D01*
X177376190Y-57954819D02*
X177138095Y-57954819D01*
X178661904Y-57954819D02*
X178090476Y-57954819D01*
X178376190Y-57954819D02*
X178376190Y-56954819D01*
X178376190Y-56954819D02*
X178280952Y-57097676D01*
X178280952Y-57097676D02*
X178185714Y-57192914D01*
X178185714Y-57192914D02*
X178090476Y-57240533D01*
X163009523Y-120254819D02*
X162676190Y-119778628D01*
X162438095Y-120254819D02*
X162438095Y-119254819D01*
X162438095Y-119254819D02*
X162819047Y-119254819D01*
X162819047Y-119254819D02*
X162914285Y-119302438D01*
X162914285Y-119302438D02*
X162961904Y-119350057D01*
X162961904Y-119350057D02*
X163009523Y-119445295D01*
X163009523Y-119445295D02*
X163009523Y-119588152D01*
X163009523Y-119588152D02*
X162961904Y-119683390D01*
X162961904Y-119683390D02*
X162914285Y-119731009D01*
X162914285Y-119731009D02*
X162819047Y-119778628D01*
X162819047Y-119778628D02*
X162438095Y-119778628D01*
X163295238Y-119588152D02*
X163676190Y-119588152D01*
X163438095Y-120254819D02*
X163438095Y-119397676D01*
X163438095Y-119397676D02*
X163485714Y-119302438D01*
X163485714Y-119302438D02*
X163580952Y-119254819D01*
X163580952Y-119254819D02*
X163676190Y-119254819D01*
X164009524Y-120254819D02*
X164009524Y-119254819D01*
X164009524Y-119635771D02*
X164104762Y-119588152D01*
X164104762Y-119588152D02*
X164295238Y-119588152D01*
X164295238Y-119588152D02*
X164390476Y-119635771D01*
X164390476Y-119635771D02*
X164438095Y-119683390D01*
X164438095Y-119683390D02*
X164485714Y-119778628D01*
X164485714Y-119778628D02*
X164485714Y-120064342D01*
X164485714Y-120064342D02*
X164438095Y-120159580D01*
X164438095Y-120159580D02*
X164390476Y-120207200D01*
X164390476Y-120207200D02*
X164295238Y-120254819D01*
X164295238Y-120254819D02*
X164104762Y-120254819D01*
X164104762Y-120254819D02*
X164009524Y-120207200D01*
X164771429Y-119588152D02*
X165152381Y-119588152D01*
X164914286Y-119254819D02*
X164914286Y-120111961D01*
X164914286Y-120111961D02*
X164961905Y-120207200D01*
X164961905Y-120207200D02*
X165057143Y-120254819D01*
X165057143Y-120254819D02*
X165152381Y-120254819D01*
X166009524Y-120254819D02*
X165438096Y-120254819D01*
X165723810Y-120254819D02*
X165723810Y-119254819D01*
X165723810Y-119254819D02*
X165628572Y-119397676D01*
X165628572Y-119397676D02*
X165533334Y-119492914D01*
X165533334Y-119492914D02*
X165438096Y-119540533D01*
X174261904Y-118902438D02*
X174166666Y-118854819D01*
X174166666Y-118854819D02*
X174023809Y-118854819D01*
X174023809Y-118854819D02*
X173880952Y-118902438D01*
X173880952Y-118902438D02*
X173785714Y-118997676D01*
X173785714Y-118997676D02*
X173738095Y-119092914D01*
X173738095Y-119092914D02*
X173690476Y-119283390D01*
X173690476Y-119283390D02*
X173690476Y-119426247D01*
X173690476Y-119426247D02*
X173738095Y-119616723D01*
X173738095Y-119616723D02*
X173785714Y-119711961D01*
X173785714Y-119711961D02*
X173880952Y-119807200D01*
X173880952Y-119807200D02*
X174023809Y-119854819D01*
X174023809Y-119854819D02*
X174119047Y-119854819D01*
X174119047Y-119854819D02*
X174261904Y-119807200D01*
X174261904Y-119807200D02*
X174309523Y-119759580D01*
X174309523Y-119759580D02*
X174309523Y-119426247D01*
X174309523Y-119426247D02*
X174119047Y-119426247D01*
X174738095Y-119854819D02*
X174738095Y-118854819D01*
X174738095Y-118854819D02*
X175309523Y-119854819D01*
X175309523Y-119854819D02*
X175309523Y-118854819D01*
X175785714Y-119854819D02*
X175785714Y-118854819D01*
X175785714Y-118854819D02*
X176023809Y-118854819D01*
X176023809Y-118854819D02*
X176166666Y-118902438D01*
X176166666Y-118902438D02*
X176261904Y-118997676D01*
X176261904Y-118997676D02*
X176309523Y-119092914D01*
X176309523Y-119092914D02*
X176357142Y-119283390D01*
X176357142Y-119283390D02*
X176357142Y-119426247D01*
X176357142Y-119426247D02*
X176309523Y-119616723D01*
X176309523Y-119616723D02*
X176261904Y-119711961D01*
X176261904Y-119711961D02*
X176166666Y-119807200D01*
X176166666Y-119807200D02*
X176023809Y-119854819D01*
X176023809Y-119854819D02*
X175785714Y-119854819D01*
X177309523Y-119854819D02*
X176738095Y-119854819D01*
X177023809Y-119854819D02*
X177023809Y-118854819D01*
X177023809Y-118854819D02*
X176928571Y-118997676D01*
X176928571Y-118997676D02*
X176833333Y-119092914D01*
X176833333Y-119092914D02*
X176738095Y-119140533D01*
X153633333Y-110354819D02*
X153966666Y-111354819D01*
X153966666Y-111354819D02*
X154299999Y-110354819D01*
X155204761Y-111354819D02*
X154871428Y-110878628D01*
X154633333Y-111354819D02*
X154633333Y-110354819D01*
X154633333Y-110354819D02*
X155014285Y-110354819D01*
X155014285Y-110354819D02*
X155109523Y-110402438D01*
X155109523Y-110402438D02*
X155157142Y-110450057D01*
X155157142Y-110450057D02*
X155204761Y-110545295D01*
X155204761Y-110545295D02*
X155204761Y-110688152D01*
X155204761Y-110688152D02*
X155157142Y-110783390D01*
X155157142Y-110783390D02*
X155109523Y-110831009D01*
X155109523Y-110831009D02*
X155014285Y-110878628D01*
X155014285Y-110878628D02*
X154633333Y-110878628D01*
X156204761Y-111259580D02*
X156157142Y-111307200D01*
X156157142Y-111307200D02*
X156014285Y-111354819D01*
X156014285Y-111354819D02*
X155919047Y-111354819D01*
X155919047Y-111354819D02*
X155776190Y-111307200D01*
X155776190Y-111307200D02*
X155680952Y-111211961D01*
X155680952Y-111211961D02*
X155633333Y-111116723D01*
X155633333Y-111116723D02*
X155585714Y-110926247D01*
X155585714Y-110926247D02*
X155585714Y-110783390D01*
X155585714Y-110783390D02*
X155633333Y-110592914D01*
X155633333Y-110592914D02*
X155680952Y-110497676D01*
X155680952Y-110497676D02*
X155776190Y-110402438D01*
X155776190Y-110402438D02*
X155919047Y-110354819D01*
X155919047Y-110354819D02*
X156014285Y-110354819D01*
X156014285Y-110354819D02*
X156157142Y-110402438D01*
X156157142Y-110402438D02*
X156204761Y-110450057D01*
X156776190Y-111354819D02*
X156680952Y-111307200D01*
X156680952Y-111307200D02*
X156633333Y-111259580D01*
X156633333Y-111259580D02*
X156585714Y-111164342D01*
X156585714Y-111164342D02*
X156585714Y-110878628D01*
X156585714Y-110878628D02*
X156633333Y-110783390D01*
X156633333Y-110783390D02*
X156680952Y-110735771D01*
X156680952Y-110735771D02*
X156776190Y-110688152D01*
X156776190Y-110688152D02*
X156919047Y-110688152D01*
X156919047Y-110688152D02*
X157014285Y-110735771D01*
X157014285Y-110735771D02*
X157061904Y-110783390D01*
X157061904Y-110783390D02*
X157109523Y-110878628D01*
X157109523Y-110878628D02*
X157109523Y-111164342D01*
X157109523Y-111164342D02*
X157061904Y-111259580D01*
X157061904Y-111259580D02*
X157014285Y-111307200D01*
X157014285Y-111307200D02*
X156919047Y-111354819D01*
X156919047Y-111354819D02*
X156776190Y-111354819D01*
X157538095Y-110688152D02*
X157538095Y-111354819D01*
X157538095Y-110783390D02*
X157585714Y-110735771D01*
X157585714Y-110735771D02*
X157680952Y-110688152D01*
X157680952Y-110688152D02*
X157823809Y-110688152D01*
X157823809Y-110688152D02*
X157919047Y-110735771D01*
X157919047Y-110735771D02*
X157966666Y-110831009D01*
X157966666Y-110831009D02*
X157966666Y-111354819D01*
X158871428Y-111354819D02*
X158871428Y-110354819D01*
X158871428Y-111307200D02*
X158776190Y-111354819D01*
X158776190Y-111354819D02*
X158585714Y-111354819D01*
X158585714Y-111354819D02*
X158490476Y-111307200D01*
X158490476Y-111307200D02*
X158442857Y-111259580D01*
X158442857Y-111259580D02*
X158395238Y-111164342D01*
X158395238Y-111164342D02*
X158395238Y-110878628D01*
X158395238Y-110878628D02*
X158442857Y-110783390D01*
X158442857Y-110783390D02*
X158490476Y-110735771D01*
X158490476Y-110735771D02*
X158585714Y-110688152D01*
X158585714Y-110688152D02*
X158776190Y-110688152D01*
X158776190Y-110688152D02*
X158871428Y-110735771D01*
X159871428Y-111354819D02*
X159300000Y-111354819D01*
X159585714Y-111354819D02*
X159585714Y-110354819D01*
X159585714Y-110354819D02*
X159490476Y-110497676D01*
X159490476Y-110497676D02*
X159395238Y-110592914D01*
X159395238Y-110592914D02*
X159300000Y-110640533D01*
X162842856Y-115054819D02*
X162509523Y-114578628D01*
X162271428Y-115054819D02*
X162271428Y-114054819D01*
X162271428Y-114054819D02*
X162652380Y-114054819D01*
X162652380Y-114054819D02*
X162747618Y-114102438D01*
X162747618Y-114102438D02*
X162795237Y-114150057D01*
X162795237Y-114150057D02*
X162842856Y-114245295D01*
X162842856Y-114245295D02*
X162842856Y-114388152D01*
X162842856Y-114388152D02*
X162795237Y-114483390D01*
X162795237Y-114483390D02*
X162747618Y-114531009D01*
X162747618Y-114531009D02*
X162652380Y-114578628D01*
X162652380Y-114578628D02*
X162271428Y-114578628D01*
X163128571Y-114388152D02*
X163509523Y-114388152D01*
X163271428Y-115054819D02*
X163271428Y-114197676D01*
X163271428Y-114197676D02*
X163319047Y-114102438D01*
X163319047Y-114102438D02*
X163414285Y-114054819D01*
X163414285Y-114054819D02*
X163509523Y-114054819D01*
X163842857Y-115054819D02*
X163842857Y-114054819D01*
X163842857Y-114435771D02*
X163938095Y-114388152D01*
X163938095Y-114388152D02*
X164128571Y-114388152D01*
X164128571Y-114388152D02*
X164223809Y-114435771D01*
X164223809Y-114435771D02*
X164271428Y-114483390D01*
X164271428Y-114483390D02*
X164319047Y-114578628D01*
X164319047Y-114578628D02*
X164319047Y-114864342D01*
X164319047Y-114864342D02*
X164271428Y-114959580D01*
X164271428Y-114959580D02*
X164223809Y-115007200D01*
X164223809Y-115007200D02*
X164128571Y-115054819D01*
X164128571Y-115054819D02*
X163938095Y-115054819D01*
X163938095Y-115054819D02*
X163842857Y-115007200D01*
X164747619Y-115054819D02*
X164747619Y-114054819D01*
X164747619Y-114435771D02*
X164842857Y-114388152D01*
X164842857Y-114388152D02*
X165033333Y-114388152D01*
X165033333Y-114388152D02*
X165128571Y-114435771D01*
X165128571Y-114435771D02*
X165176190Y-114483390D01*
X165176190Y-114483390D02*
X165223809Y-114578628D01*
X165223809Y-114578628D02*
X165223809Y-114864342D01*
X165223809Y-114864342D02*
X165176190Y-114959580D01*
X165176190Y-114959580D02*
X165128571Y-115007200D01*
X165128571Y-115007200D02*
X165033333Y-115054819D01*
X165033333Y-115054819D02*
X164842857Y-115054819D01*
X164842857Y-115054819D02*
X164747619Y-115007200D01*
X166176190Y-115054819D02*
X165604762Y-115054819D01*
X165890476Y-115054819D02*
X165890476Y-114054819D01*
X165890476Y-114054819D02*
X165795238Y-114197676D01*
X165795238Y-114197676D02*
X165700000Y-114292914D01*
X165700000Y-114292914D02*
X165604762Y-114340533D01*
X172254819Y-108319047D02*
X171778628Y-108652380D01*
X172254819Y-108890475D02*
X171254819Y-108890475D01*
X171254819Y-108890475D02*
X171254819Y-108509523D01*
X171254819Y-108509523D02*
X171302438Y-108414285D01*
X171302438Y-108414285D02*
X171350057Y-108366666D01*
X171350057Y-108366666D02*
X171445295Y-108319047D01*
X171445295Y-108319047D02*
X171588152Y-108319047D01*
X171588152Y-108319047D02*
X171683390Y-108366666D01*
X171683390Y-108366666D02*
X171731009Y-108414285D01*
X171731009Y-108414285D02*
X171778628Y-108509523D01*
X171778628Y-108509523D02*
X171778628Y-108890475D01*
X172254819Y-107890475D02*
X171588152Y-107890475D01*
X171778628Y-107890475D02*
X171683390Y-107842856D01*
X171683390Y-107842856D02*
X171635771Y-107795237D01*
X171635771Y-107795237D02*
X171588152Y-107699999D01*
X171588152Y-107699999D02*
X171588152Y-107604761D01*
X172254819Y-107271427D02*
X171588152Y-107271427D01*
X171254819Y-107271427D02*
X171302438Y-107319046D01*
X171302438Y-107319046D02*
X171350057Y-107271427D01*
X171350057Y-107271427D02*
X171302438Y-107223808D01*
X171302438Y-107223808D02*
X171254819Y-107271427D01*
X171254819Y-107271427D02*
X171350057Y-107271427D01*
X171588152Y-106795237D02*
X172254819Y-106795237D01*
X171683390Y-106795237D02*
X171635771Y-106747618D01*
X171635771Y-106747618D02*
X171588152Y-106652380D01*
X171588152Y-106652380D02*
X171588152Y-106509523D01*
X171588152Y-106509523D02*
X171635771Y-106414285D01*
X171635771Y-106414285D02*
X171731009Y-106366666D01*
X171731009Y-106366666D02*
X172254819Y-106366666D01*
X172254819Y-105461904D02*
X171254819Y-105461904D01*
X172207200Y-105461904D02*
X172254819Y-105557142D01*
X172254819Y-105557142D02*
X172254819Y-105747618D01*
X172254819Y-105747618D02*
X172207200Y-105842856D01*
X172207200Y-105842856D02*
X172159580Y-105890475D01*
X172159580Y-105890475D02*
X172064342Y-105938094D01*
X172064342Y-105938094D02*
X171778628Y-105938094D01*
X171778628Y-105938094D02*
X171683390Y-105890475D01*
X171683390Y-105890475D02*
X171635771Y-105842856D01*
X171635771Y-105842856D02*
X171588152Y-105747618D01*
X171588152Y-105747618D02*
X171588152Y-105557142D01*
X171588152Y-105557142D02*
X171635771Y-105461904D01*
X171350057Y-105033332D02*
X171302438Y-104985713D01*
X171302438Y-104985713D02*
X171254819Y-104890475D01*
X171254819Y-104890475D02*
X171254819Y-104652380D01*
X171254819Y-104652380D02*
X171302438Y-104557142D01*
X171302438Y-104557142D02*
X171350057Y-104509523D01*
X171350057Y-104509523D02*
X171445295Y-104461904D01*
X171445295Y-104461904D02*
X171540533Y-104461904D01*
X171540533Y-104461904D02*
X171683390Y-104509523D01*
X171683390Y-104509523D02*
X172254819Y-105080951D01*
X172254819Y-105080951D02*
X172254819Y-104461904D01*
X153000000Y-57907200D02*
X153142857Y-57954819D01*
X153142857Y-57954819D02*
X153380952Y-57954819D01*
X153380952Y-57954819D02*
X153476190Y-57907200D01*
X153476190Y-57907200D02*
X153523809Y-57859580D01*
X153523809Y-57859580D02*
X153571428Y-57764342D01*
X153571428Y-57764342D02*
X153571428Y-57669104D01*
X153571428Y-57669104D02*
X153523809Y-57573866D01*
X153523809Y-57573866D02*
X153476190Y-57526247D01*
X153476190Y-57526247D02*
X153380952Y-57478628D01*
X153380952Y-57478628D02*
X153190476Y-57431009D01*
X153190476Y-57431009D02*
X153095238Y-57383390D01*
X153095238Y-57383390D02*
X153047619Y-57335771D01*
X153047619Y-57335771D02*
X153000000Y-57240533D01*
X153000000Y-57240533D02*
X153000000Y-57145295D01*
X153000000Y-57145295D02*
X153047619Y-57050057D01*
X153047619Y-57050057D02*
X153095238Y-57002438D01*
X153095238Y-57002438D02*
X153190476Y-56954819D01*
X153190476Y-56954819D02*
X153428571Y-56954819D01*
X153428571Y-56954819D02*
X153571428Y-57002438D01*
X154000000Y-57954819D02*
X154000000Y-56954819D01*
X154000000Y-56954819D02*
X154380952Y-56954819D01*
X154380952Y-56954819D02*
X154476190Y-57002438D01*
X154476190Y-57002438D02*
X154523809Y-57050057D01*
X154523809Y-57050057D02*
X154571428Y-57145295D01*
X154571428Y-57145295D02*
X154571428Y-57288152D01*
X154571428Y-57288152D02*
X154523809Y-57383390D01*
X154523809Y-57383390D02*
X154476190Y-57431009D01*
X154476190Y-57431009D02*
X154380952Y-57478628D01*
X154380952Y-57478628D02*
X154000000Y-57478628D01*
X155000000Y-57954819D02*
X155000000Y-56954819D01*
X155380952Y-56954819D02*
X155999999Y-56954819D01*
X155999999Y-56954819D02*
X155666666Y-57335771D01*
X155666666Y-57335771D02*
X155809523Y-57335771D01*
X155809523Y-57335771D02*
X155904761Y-57383390D01*
X155904761Y-57383390D02*
X155952380Y-57431009D01*
X155952380Y-57431009D02*
X155999999Y-57526247D01*
X155999999Y-57526247D02*
X155999999Y-57764342D01*
X155999999Y-57764342D02*
X155952380Y-57859580D01*
X155952380Y-57859580D02*
X155904761Y-57907200D01*
X155904761Y-57907200D02*
X155809523Y-57954819D01*
X155809523Y-57954819D02*
X155523809Y-57954819D01*
X155523809Y-57954819D02*
X155428571Y-57907200D01*
X155428571Y-57907200D02*
X155380952Y-57859580D01*
X155542856Y-116559580D02*
X155495237Y-116607200D01*
X155495237Y-116607200D02*
X155352380Y-116654819D01*
X155352380Y-116654819D02*
X155257142Y-116654819D01*
X155257142Y-116654819D02*
X155114285Y-116607200D01*
X155114285Y-116607200D02*
X155019047Y-116511961D01*
X155019047Y-116511961D02*
X154971428Y-116416723D01*
X154971428Y-116416723D02*
X154923809Y-116226247D01*
X154923809Y-116226247D02*
X154923809Y-116083390D01*
X154923809Y-116083390D02*
X154971428Y-115892914D01*
X154971428Y-115892914D02*
X155019047Y-115797676D01*
X155019047Y-115797676D02*
X155114285Y-115702438D01*
X155114285Y-115702438D02*
X155257142Y-115654819D01*
X155257142Y-115654819D02*
X155352380Y-115654819D01*
X155352380Y-115654819D02*
X155495237Y-115702438D01*
X155495237Y-115702438D02*
X155542856Y-115750057D01*
X156114285Y-116654819D02*
X156019047Y-116607200D01*
X156019047Y-116607200D02*
X155971428Y-116559580D01*
X155971428Y-116559580D02*
X155923809Y-116464342D01*
X155923809Y-116464342D02*
X155923809Y-116178628D01*
X155923809Y-116178628D02*
X155971428Y-116083390D01*
X155971428Y-116083390D02*
X156019047Y-116035771D01*
X156019047Y-116035771D02*
X156114285Y-115988152D01*
X156114285Y-115988152D02*
X156257142Y-115988152D01*
X156257142Y-115988152D02*
X156352380Y-116035771D01*
X156352380Y-116035771D02*
X156399999Y-116083390D01*
X156399999Y-116083390D02*
X156447618Y-116178628D01*
X156447618Y-116178628D02*
X156447618Y-116464342D01*
X156447618Y-116464342D02*
X156399999Y-116559580D01*
X156399999Y-116559580D02*
X156352380Y-116607200D01*
X156352380Y-116607200D02*
X156257142Y-116654819D01*
X156257142Y-116654819D02*
X156114285Y-116654819D01*
X157304761Y-115988152D02*
X157304761Y-116654819D01*
X156876190Y-115988152D02*
X156876190Y-116511961D01*
X156876190Y-116511961D02*
X156923809Y-116607200D01*
X156923809Y-116607200D02*
X157019047Y-116654819D01*
X157019047Y-116654819D02*
X157161904Y-116654819D01*
X157161904Y-116654819D02*
X157257142Y-116607200D01*
X157257142Y-116607200D02*
X157304761Y-116559580D01*
X157638095Y-115988152D02*
X158019047Y-115988152D01*
X157780952Y-115654819D02*
X157780952Y-116511961D01*
X157780952Y-116511961D02*
X157828571Y-116607200D01*
X157828571Y-116607200D02*
X157923809Y-116654819D01*
X157923809Y-116654819D02*
X158019047Y-116654819D01*
X158876190Y-116654819D02*
X158304762Y-116654819D01*
X158590476Y-116654819D02*
X158590476Y-115654819D01*
X158590476Y-115654819D02*
X158495238Y-115797676D01*
X158495238Y-115797676D02*
X158400000Y-115892914D01*
X158400000Y-115892914D02*
X158304762Y-115940533D01*
D12*
%TO.C,Speed1*%
X146690000Y-108290000D02*
X146690000Y-109340000D01*
X146690000Y-109340000D02*
X145700000Y-109340000D01*
X146690000Y-112510000D02*
X146690000Y-111460000D01*
X147840000Y-108290000D02*
X146690000Y-108290000D01*
X147840000Y-112510000D02*
X146690000Y-112510000D01*
X149810000Y-109460000D02*
X149810000Y-111340000D01*
%TO.C,Rrpm2*%
X147162742Y-87777500D02*
X147637258Y-87777500D01*
X147162742Y-88822500D02*
X147637258Y-88822500D01*
%TO.C,Cen1*%
X182665000Y-91061252D02*
X182665000Y-90538748D01*
X184135000Y-91061252D02*
X184135000Y-90538748D01*
%TO.C,Resp1*%
X180012742Y-89327500D02*
X180487258Y-89327500D01*
X180012742Y-90372500D02*
X180487258Y-90372500D01*
%TO.C,TEMP_S1*%
X146890000Y-97040000D02*
X146890000Y-94160000D01*
X148860000Y-92990000D02*
X150010000Y-92990000D01*
X148860000Y-98210000D02*
X150010000Y-98210000D01*
X150010000Y-92990000D02*
X150010000Y-94040000D01*
X150010000Y-97160000D02*
X151000000Y-97160000D01*
X150010000Y-98210000D02*
X150010000Y-97160000D01*
%TO.C,Rspd2*%
X161177500Y-104237258D02*
X161177500Y-103762742D01*
X162222500Y-104237258D02*
X162222500Y-103762742D01*
%TO.C,Vcc1*%
X177870000Y-120470000D02*
X179200000Y-120470000D01*
X177870000Y-121800000D02*
X177870000Y-120470000D01*
X177870000Y-123070000D02*
X177870000Y-123130000D01*
X177870000Y-123070000D02*
X180530000Y-123070000D01*
X177870000Y-123130000D02*
X180530000Y-123130000D01*
X180530000Y-123070000D02*
X180530000Y-123130000D01*
%TO.C,gauges1*%
X146690000Y-100090000D02*
X146690000Y-101140000D01*
X146690000Y-101140000D02*
X145700000Y-101140000D01*
X146690000Y-105310000D02*
X146690000Y-104260000D01*
X147840000Y-100090000D02*
X146690000Y-100090000D01*
X147840000Y-105310000D02*
X146690000Y-105310000D01*
X149810000Y-101260000D02*
X149810000Y-104140000D01*
%TO.C,RPM1*%
X146370000Y-85330000D02*
X146370000Y-84000000D01*
X147700000Y-85330000D02*
X146370000Y-85330000D01*
X148970000Y-82670000D02*
X149030000Y-82670000D01*
X148970000Y-85330000D02*
X148970000Y-82670000D01*
X148970000Y-85330000D02*
X149030000Y-85330000D01*
X149030000Y-85330000D02*
X149030000Y-82670000D01*
%TO.C,Cshld1*%
X160365000Y-59038748D02*
X160365000Y-59561252D01*
X161835000Y-59038748D02*
X161835000Y-59561252D01*
D13*
%TO.C,ESP_BOOT1*%
X156873000Y-97273000D02*
X156873000Y-97467260D01*
X156873000Y-99832740D02*
X156873000Y-100027000D01*
X156873000Y-100027000D02*
X160127000Y-100027000D01*
X160127000Y-97273000D02*
X156873000Y-97273000D01*
X160127000Y-97467260D02*
X160127000Y-97273000D01*
X160127000Y-100027000D02*
X160127000Y-99832740D01*
D12*
%TO.C,Rrind1*%
X175577500Y-106937258D02*
X175577500Y-106462742D01*
X176622500Y-106937258D02*
X176622500Y-106462742D01*
%TO.C,Cesp1*%
X180288748Y-94065000D02*
X180811252Y-94065000D01*
X180288748Y-95535000D02*
X180811252Y-95535000D01*
%TO.C,ESP1*%
X155210000Y-77950000D02*
X155210000Y-79450000D01*
X155210000Y-96350000D02*
X155210000Y-94850000D01*
X155210000Y-96350000D02*
X156210000Y-96350000D01*
X156210000Y-77950000D02*
X155210000Y-77950000D01*
X174810000Y-77950000D02*
X174810000Y-96350000D01*
X174810000Y-96350000D02*
X174110000Y-96350000D01*
X174560000Y-77950000D02*
X174060000Y-77950000D01*
X174060000Y-77450000D01*
X174560000Y-77950000D01*
G36*
X174560000Y-77950000D02*
G01*
X174060000Y-77950000D01*
X174060000Y-77450000D01*
X174560000Y-77950000D01*
G37*
%TO.C,Rlind1*%
X176777500Y-111737258D02*
X176777500Y-111262742D01*
X177822500Y-111737258D02*
X177822500Y-111262742D01*
%TO.C,R2*%
X150865000Y-106714564D02*
X150865000Y-106260436D01*
X152335000Y-106714564D02*
X152335000Y-106260436D01*
%TO.C,Rwtr1*%
X154337258Y-103777500D02*
X153862742Y-103777500D01*
X154337258Y-104822500D02*
X153862742Y-104822500D01*
%TO.C,Cout2*%
X166490000Y-118190000D02*
X168840000Y-118190000D01*
X166490000Y-123945563D02*
X166490000Y-118190000D01*
X167554437Y-125010000D02*
X166490000Y-123945563D01*
X167554437Y-125010000D02*
X168840000Y-125010000D01*
X167658750Y-125643750D02*
X168446250Y-125643750D01*
X168052500Y-126037500D02*
X168052500Y-125250000D01*
X172245563Y-125010000D02*
X170960000Y-125010000D01*
X172245563Y-125010000D02*
X173310000Y-123945563D01*
X173310000Y-118190000D02*
X170960000Y-118190000D01*
X173310000Y-123945563D02*
X173310000Y-118190000D01*
%TO.C,Qfan1*%
X182212500Y-100340000D02*
X181562500Y-100340000D01*
X182212500Y-100340000D02*
X182862500Y-100340000D01*
X182212500Y-103460000D02*
X181562500Y-103460000D01*
X182212500Y-103460000D02*
X182862500Y-103460000D01*
X181050000Y-100390000D02*
X180810000Y-100060000D01*
X181290000Y-100060000D01*
X181050000Y-100390000D01*
G36*
X181050000Y-100390000D02*
G01*
X180810000Y-100060000D01*
X181290000Y-100060000D01*
X181050000Y-100390000D01*
G37*
%TO.C,Indics1*%
X178990000Y-114535000D02*
X178990000Y-115685000D01*
X178990000Y-115685000D02*
X180040000Y-115685000D01*
X180040000Y-115685000D02*
X180040000Y-116675000D01*
X180160000Y-112565000D02*
X182040000Y-112565000D01*
X183210000Y-114535000D02*
X183210000Y-115685000D01*
X183210000Y-115685000D02*
X182160000Y-115685000D01*
%TO.C,Cmax1*%
X150865000Y-110261252D02*
X150865000Y-109738748D01*
X152335000Y-110261252D02*
X152335000Y-109738748D01*
%TO.C,Rup1*%
X161662742Y-108877500D02*
X162137258Y-108877500D01*
X161662742Y-109922500D02*
X162137258Y-109922500D01*
%TO.C,TEMP_S2*%
X165300000Y-101140000D02*
X164650000Y-101140000D01*
X165300000Y-101140000D02*
X165950000Y-101140000D01*
X165300000Y-104260000D02*
X164650000Y-104260000D01*
X165300000Y-104260000D02*
X165950000Y-104260000D01*
X164137500Y-101190000D02*
X163897500Y-100860000D01*
X164377500Y-100860000D01*
X164137500Y-101190000D01*
G36*
X164137500Y-101190000D02*
G01*
X163897500Y-100860000D01*
X164377500Y-100860000D01*
X164137500Y-101190000D01*
G37*
D14*
%TO.C,G\u002A\u002A\u002A*%
G36*
X158838709Y-55354371D02*
G01*
X158827155Y-55374875D01*
X158816086Y-55380460D01*
X158798597Y-55374012D01*
X158799685Y-55364060D01*
X158816933Y-55342063D01*
X158822748Y-55340997D01*
X158838709Y-55354371D01*
G37*
G36*
X146823779Y-55481137D02*
G01*
X146824375Y-55486037D01*
X146808774Y-55505942D01*
X146803874Y-55506538D01*
X146783970Y-55490937D01*
X146783374Y-55486037D01*
X146798974Y-55466133D01*
X146803874Y-55465537D01*
X146823779Y-55481137D01*
G37*
G36*
X147074148Y-55464138D02*
G01*
X147085757Y-55486246D01*
X147066024Y-55503417D01*
X147041337Y-55506538D01*
X146998351Y-55495794D01*
X146988378Y-55474361D01*
X147003902Y-55449914D01*
X147032898Y-55448736D01*
X147074148Y-55464138D01*
G37*
G36*
X159306808Y-55338639D02*
G01*
X159309120Y-55352785D01*
X159298051Y-55380066D01*
X159288620Y-55383535D01*
X159270433Y-55366931D01*
X159268120Y-55352785D01*
X159279189Y-55325503D01*
X159288620Y-55322034D01*
X159306808Y-55338639D01*
G37*
G36*
X150408636Y-55024535D02*
G01*
X150414259Y-55029142D01*
X150425737Y-55061469D01*
X150410785Y-55090045D01*
X150391445Y-55096530D01*
X150365152Y-55081596D01*
X150359590Y-55074243D01*
X150357196Y-55042978D01*
X150378885Y-55022003D01*
X150408636Y-55024535D01*
G37*
G36*
X159114888Y-55332944D02*
G01*
X159124617Y-55352785D01*
X159107755Y-55374274D01*
X159069970Y-55384211D01*
X159030461Y-55379482D01*
X159015839Y-55370426D01*
X159009996Y-55346077D01*
X159036203Y-55327619D01*
X159074576Y-55322034D01*
X159114888Y-55332944D01*
G37*
G36*
X150441334Y-54960500D02*
G01*
X150490261Y-55010084D01*
X150499708Y-55065870D01*
X150469054Y-55122978D01*
X150462800Y-55129540D01*
X150421243Y-55166374D01*
X150389761Y-55175401D01*
X150352212Y-55160338D01*
X150345570Y-55156529D01*
X150295084Y-55108615D01*
X150280396Y-55051416D01*
X150287775Y-55031394D01*
X150312947Y-55031394D01*
X150312994Y-55094854D01*
X150338131Y-55127699D01*
X150391777Y-55134121D01*
X150396429Y-55133715D01*
X150441409Y-55125317D01*
X150459763Y-55102974D01*
X150463196Y-55055529D01*
X150460023Y-55007439D01*
X150442118Y-54987717D01*
X150396906Y-54983786D01*
X150391445Y-54983777D01*
X150341287Y-54988646D01*
X150318697Y-55008428D01*
X150312947Y-55031394D01*
X150287775Y-55031394D01*
X150301176Y-54995031D01*
X150352289Y-54952040D01*
X150395878Y-54940999D01*
X150441334Y-54960500D01*
G37*
G36*
X149044713Y-54805054D02*
G01*
X149266865Y-54872839D01*
X149363759Y-54915158D01*
X149514581Y-55004777D01*
X149662381Y-55123764D01*
X149795758Y-55261349D01*
X149903306Y-55406764D01*
X149927010Y-55447007D01*
X149972068Y-55531180D01*
X149995365Y-55581006D01*
X149997364Y-55596128D01*
X149978526Y-55576189D01*
X149939311Y-55520834D01*
X149903014Y-55465537D01*
X149760625Y-55279891D01*
X149592626Y-55122862D01*
X149403437Y-54996926D01*
X149197480Y-54904560D01*
X148979174Y-54848239D01*
X148769053Y-54830380D01*
X148530525Y-54847984D01*
X148308787Y-54901168D01*
X148106304Y-54988563D01*
X147925541Y-55108800D01*
X147768964Y-55260509D01*
X147639038Y-55442321D01*
X147625669Y-55465537D01*
X147589303Y-55527518D01*
X147563670Y-55565911D01*
X147552271Y-55575768D01*
X147553113Y-55568039D01*
X147596812Y-55458309D01*
X147667947Y-55337765D01*
X147758772Y-55216651D01*
X147861542Y-55105210D01*
X147968513Y-55013685D01*
X147976784Y-55007698D01*
X148167625Y-54896097D01*
X148374949Y-54819691D01*
X148593645Y-54778821D01*
X148818603Y-54773829D01*
X149044713Y-54805054D01*
G37*
G36*
X156961824Y-53756624D02*
G01*
X157033443Y-53761517D01*
X157131882Y-53765662D01*
X157242959Y-53768559D01*
X157330832Y-53769639D01*
X157431972Y-53770931D01*
X157493878Y-53773661D01*
X157518295Y-53778009D01*
X157506972Y-53784161D01*
X157494835Y-53786783D01*
X157419967Y-53796708D01*
X157329544Y-53802113D01*
X157235327Y-53803094D01*
X157149080Y-53799744D01*
X157082565Y-53792159D01*
X157051679Y-53783221D01*
X157014544Y-53773773D01*
X156955325Y-53776480D01*
X156866109Y-53791792D01*
X156853148Y-53794469D01*
X156755961Y-53811034D01*
X156639488Y-53825399D01*
X156525441Y-53834987D01*
X156500565Y-53836304D01*
X156305811Y-53845109D01*
X156490315Y-53815457D01*
X156584264Y-53799540D01*
X156673023Y-53783098D01*
X156732435Y-53770837D01*
X156794404Y-53770837D01*
X156797218Y-53783024D01*
X156808071Y-53784504D01*
X156824945Y-53777003D01*
X156821738Y-53770837D01*
X156797409Y-53768383D01*
X156794404Y-53770837D01*
X156732435Y-53770837D01*
X156741404Y-53768986D01*
X156756820Y-53765350D01*
X156824392Y-53755890D01*
X156909147Y-53753715D01*
X156961824Y-53756624D01*
G37*
G36*
X157466383Y-54735113D02*
G01*
X157642898Y-54758992D01*
X157803808Y-54801797D01*
X157960514Y-54865806D01*
X157966344Y-54868594D01*
X158144752Y-54971172D01*
X158288802Y-55092508D01*
X158402481Y-55236841D01*
X158489775Y-55408413D01*
X158501017Y-55437229D01*
X158531651Y-55524483D01*
X158545076Y-55575036D01*
X158542750Y-55588696D01*
X158526129Y-55565268D01*
X158496671Y-55504558D01*
X158469847Y-55441383D01*
X158378193Y-55269376D01*
X158253626Y-55121083D01*
X158097328Y-54997443D01*
X157910480Y-54899395D01*
X157699839Y-54829289D01*
X157588550Y-54808649D01*
X157450446Y-54794567D01*
X157299241Y-54787417D01*
X157148651Y-54787575D01*
X157012393Y-54795415D01*
X156920281Y-54807972D01*
X156720710Y-54863632D01*
X156544899Y-54950069D01*
X156390850Y-55068962D01*
X156256562Y-55221992D01*
X156140034Y-55410835D01*
X156096901Y-55499060D01*
X156063903Y-55567611D01*
X156043927Y-55601759D01*
X156038094Y-55600695D01*
X156047524Y-55563610D01*
X156060380Y-55525413D01*
X156153808Y-55321778D01*
X156283965Y-55134607D01*
X156366689Y-55043648D01*
X156489205Y-54934409D01*
X156617049Y-54851112D01*
X156757191Y-54791302D01*
X156916600Y-54752523D01*
X157102247Y-54732319D01*
X157262865Y-54727878D01*
X157466383Y-54735113D01*
G37*
G36*
X159180530Y-55262142D02*
G01*
X159260333Y-55268150D01*
X159311110Y-55280326D01*
X159338806Y-55300439D01*
X159349364Y-55330260D01*
X159350121Y-55345170D01*
X159343820Y-55384559D01*
X159321213Y-55412386D01*
X159276743Y-55430474D01*
X159204852Y-55440641D01*
X159099984Y-55444709D01*
X159045251Y-55445036D01*
X158918689Y-55442726D01*
X158832082Y-55435815D01*
X158785779Y-55424337D01*
X158780210Y-55420436D01*
X158757029Y-55372631D01*
X158763386Y-55348830D01*
X158774843Y-55348830D01*
X158781334Y-55388005D01*
X158782454Y-55390999D01*
X158793663Y-55405546D01*
X158818644Y-55415267D01*
X158864300Y-55421067D01*
X158937535Y-55423854D01*
X159037872Y-55424536D01*
X159165314Y-55422243D01*
X159252499Y-55415378D01*
X159299209Y-55403960D01*
X159305020Y-55399936D01*
X159328447Y-55355776D01*
X159319239Y-55314335D01*
X159283495Y-55290822D01*
X159244053Y-55286536D01*
X159174783Y-55284210D01*
X159086821Y-55284082D01*
X159024294Y-55285306D01*
X158911747Y-55291089D01*
X158835613Y-55302311D01*
X158791458Y-55320912D01*
X158774843Y-55348830D01*
X158763386Y-55348830D01*
X158770980Y-55320397D01*
X158793099Y-55294461D01*
X158817881Y-55279099D01*
X158856864Y-55269002D01*
X158917710Y-55263215D01*
X159008078Y-55260786D01*
X159065755Y-55260533D01*
X159180530Y-55262142D01*
G37*
G36*
X147140181Y-55386476D02*
G01*
X147218352Y-55396884D01*
X147266321Y-55417139D01*
X147289329Y-55449621D01*
X147292615Y-55496709D01*
X147291872Y-55503990D01*
X147285634Y-55557789D01*
X147039197Y-55563507D01*
X146918888Y-55564612D01*
X146835564Y-55561245D01*
X146785426Y-55553134D01*
X146767567Y-55544032D01*
X146744652Y-55497607D01*
X146745117Y-55492077D01*
X146765584Y-55492077D01*
X146769218Y-55514001D01*
X146780626Y-55528748D01*
X146806056Y-55538527D01*
X146852513Y-55544284D01*
X146927006Y-55546967D01*
X147017275Y-55547538D01*
X147116335Y-55545824D01*
X147195811Y-55541103D01*
X147248063Y-55534007D01*
X147265133Y-55527038D01*
X147260486Y-55509488D01*
X147245843Y-55506538D01*
X147217794Y-55495834D01*
X147213882Y-55486037D01*
X147230652Y-55468252D01*
X147247143Y-55465537D01*
X147268926Y-55460350D01*
X147257832Y-55438411D01*
X147254333Y-55434124D01*
X147220730Y-55418576D01*
X147158018Y-55408942D01*
X147077026Y-55404920D01*
X146988583Y-55406210D01*
X146903516Y-55412511D01*
X146832654Y-55423523D01*
X146786825Y-55438944D01*
X146777169Y-55447375D01*
X146765584Y-55492077D01*
X146745117Y-55492077D01*
X146749040Y-55445467D01*
X146778754Y-55406643D01*
X146782026Y-55404757D01*
X146818882Y-55395667D01*
X146885664Y-55388522D01*
X146971307Y-55384284D01*
X147026567Y-55383535D01*
X147140181Y-55386476D01*
G37*
G36*
X154874756Y-54431715D02*
G01*
X154924743Y-54450182D01*
X154951982Y-54484503D01*
X154962320Y-54537444D01*
X154963035Y-54563519D01*
X154959642Y-54614379D01*
X154945780Y-54651916D01*
X154915924Y-54678530D01*
X154864551Y-54696621D01*
X154786136Y-54708589D01*
X154675154Y-54716835D01*
X154601729Y-54720494D01*
X154486274Y-54725221D01*
X154404653Y-54726817D01*
X154349784Y-54724793D01*
X154314585Y-54718658D01*
X154291976Y-54707924D01*
X154280722Y-54698294D01*
X154255412Y-54670944D01*
X154249410Y-54648865D01*
X154254699Y-54638387D01*
X154288454Y-54638387D01*
X154295556Y-54664054D01*
X154320515Y-54673113D01*
X154375833Y-54679960D01*
X154450920Y-54684440D01*
X154535186Y-54686392D01*
X154618041Y-54685660D01*
X154688894Y-54682085D01*
X154737156Y-54675509D01*
X154749837Y-54670832D01*
X154777242Y-54641371D01*
X154793977Y-54614770D01*
X154801529Y-54597346D01*
X154798122Y-54585975D01*
X154777478Y-54579663D01*
X154733320Y-54577419D01*
X154659371Y-54578248D01*
X154576667Y-54580398D01*
X154449907Y-54586691D01*
X154361344Y-54597940D01*
X154308390Y-54614915D01*
X154288454Y-54638387D01*
X154254699Y-54638387D01*
X154264523Y-54618927D01*
X154297793Y-54574253D01*
X154347357Y-54520899D01*
X154407065Y-54482711D01*
X154485219Y-54456606D01*
X154590126Y-54439505D01*
X154683138Y-54431296D01*
X154796171Y-54426341D01*
X154874756Y-54431715D01*
G37*
G36*
X152998527Y-52701574D02*
G01*
X153048558Y-52735154D01*
X153115285Y-52792587D01*
X153152106Y-52826268D01*
X153212463Y-52887871D01*
X153237163Y-52933398D01*
X153224991Y-52969017D01*
X153174732Y-53000896D01*
X153112873Y-53025502D01*
X153025664Y-53060912D01*
X152936509Y-53103473D01*
X152885642Y-53131624D01*
X152837040Y-53163990D01*
X152765090Y-53215762D01*
X152674085Y-53283543D01*
X152568318Y-53363937D01*
X152452081Y-53453546D01*
X152329668Y-53548976D01*
X152205372Y-53646829D01*
X152083486Y-53743710D01*
X151968303Y-53836221D01*
X151864116Y-53920966D01*
X151775218Y-53994549D01*
X151705902Y-54053574D01*
X151660461Y-54094643D01*
X151643188Y-54114362D01*
X151643148Y-54114611D01*
X151661957Y-54122267D01*
X151720036Y-54130641D01*
X151817772Y-54139767D01*
X151955553Y-54149679D01*
X152133766Y-54160409D01*
X152226231Y-54165460D01*
X152472236Y-54178550D01*
X152537253Y-54032702D01*
X152569593Y-53957877D01*
X152586286Y-53908895D01*
X152589201Y-53874529D01*
X152580204Y-53843549D01*
X152571701Y-53825576D01*
X152554042Y-53770759D01*
X152553998Y-53735974D01*
X152576982Y-53735974D01*
X152584665Y-53794730D01*
X152587683Y-53803922D01*
X152610387Y-53869051D01*
X152659158Y-53823233D01*
X152690802Y-53789717D01*
X152693956Y-53766422D01*
X152674032Y-53739958D01*
X152627769Y-53704067D01*
X152593385Y-53704246D01*
X152576982Y-53735974D01*
X152553998Y-53735974D01*
X152553983Y-53723824D01*
X152554191Y-53723150D01*
X152581985Y-53690088D01*
X152625920Y-53683512D01*
X152670958Y-53703279D01*
X152690156Y-53724424D01*
X152712350Y-53751657D01*
X152736770Y-53754426D01*
X152779783Y-53734801D01*
X152843808Y-53711606D01*
X152904430Y-53702628D01*
X152950832Y-53695790D01*
X152976966Y-53667430D01*
X152989047Y-53635876D01*
X153004548Y-53590045D01*
X153030313Y-53516341D01*
X153062591Y-53425420D01*
X153093358Y-53339747D01*
X153128091Y-53242901D01*
X153149772Y-53178677D01*
X153159352Y-53141160D01*
X153157784Y-53124438D01*
X153146021Y-53122596D01*
X153127317Y-53128845D01*
X153064129Y-53155569D01*
X152997264Y-53189899D01*
X152923160Y-53234405D01*
X152838251Y-53291655D01*
X152738974Y-53364218D01*
X152621765Y-53454665D01*
X152483059Y-53565563D01*
X152319293Y-53699481D01*
X152208269Y-53791332D01*
X152062297Y-53910787D01*
X151945810Y-54002352D01*
X151858470Y-54066277D01*
X151799939Y-54102809D01*
X151772635Y-54112510D01*
X151735352Y-54105935D01*
X151723971Y-54094201D01*
X151739424Y-54076474D01*
X151783023Y-54036863D01*
X151850624Y-53978756D01*
X151938086Y-53905538D01*
X152041266Y-53820598D01*
X152156023Y-53727322D01*
X152278214Y-53629096D01*
X152403696Y-53529308D01*
X152528328Y-53431345D01*
X152647968Y-53338593D01*
X152650021Y-53337014D01*
X152814754Y-53218796D01*
X152965749Y-53127416D01*
X153099446Y-53064780D01*
X153212285Y-53032793D01*
X153220652Y-53031569D01*
X153302695Y-53020564D01*
X153229720Y-53223156D01*
X153193340Y-53324500D01*
X153156719Y-53427098D01*
X153125525Y-53515046D01*
X153113668Y-53548749D01*
X153086589Y-53617169D01*
X153059601Y-53671085D01*
X153041629Y-53695547D01*
X153025651Y-53715702D01*
X153045411Y-53729537D01*
X153055629Y-53732977D01*
X153106600Y-53768106D01*
X153150084Y-53831427D01*
X153180522Y-53910178D01*
X153192358Y-53991598D01*
X153188068Y-54037125D01*
X153158244Y-54093589D01*
X153110917Y-54134425D01*
X153046247Y-54173858D01*
X153251251Y-54174516D01*
X153322207Y-54173618D01*
X153427377Y-54170764D01*
X153560034Y-54166211D01*
X153713453Y-54160214D01*
X153880907Y-54153031D01*
X154055668Y-54144918D01*
X154153269Y-54140112D01*
X154342381Y-54130438D01*
X154494902Y-54122134D01*
X154615200Y-54114756D01*
X154707644Y-54107861D01*
X154776604Y-54101006D01*
X154781253Y-54100329D01*
X154901765Y-54100329D01*
X154913294Y-54109356D01*
X154933961Y-54104453D01*
X154971727Y-54097202D01*
X155034261Y-54091824D01*
X155082589Y-54090042D01*
X155198790Y-54088074D01*
X155096288Y-54063248D01*
X155004843Y-54049406D01*
X154947660Y-54058257D01*
X154914273Y-54079746D01*
X154901765Y-54100329D01*
X154781253Y-54100329D01*
X154826447Y-54093748D01*
X154861545Y-54085645D01*
X154886264Y-54076252D01*
X154904975Y-54065127D01*
X154907009Y-54063665D01*
X154942390Y-54032928D01*
X154944617Y-54013524D01*
X154935382Y-54006413D01*
X154904549Y-53971986D01*
X154871923Y-53908104D01*
X154841586Y-53825892D01*
X154817619Y-53736473D01*
X154804102Y-53650972D01*
X154803843Y-53647866D01*
X154805695Y-53595482D01*
X154828456Y-53595482D01*
X154833401Y-53686898D01*
X154857664Y-53796249D01*
X154873335Y-53848719D01*
X154908743Y-53933499D01*
X154956592Y-53987386D01*
X155027120Y-54020430D01*
X155056314Y-54028282D01*
X155136618Y-54043454D01*
X155188465Y-54039941D01*
X155221490Y-54014224D01*
X155245329Y-53962786D01*
X155246694Y-53958757D01*
X155263328Y-53861867D01*
X155260077Y-53744436D01*
X155239573Y-53620192D01*
X155204443Y-53502861D01*
X155157317Y-53406170D01*
X155134960Y-53375468D01*
X155073233Y-53325631D01*
X155008587Y-53313510D01*
X154946363Y-53336662D01*
X154891900Y-53392643D01*
X154850539Y-53479009D01*
X154841681Y-53509695D01*
X154828456Y-53595482D01*
X154805695Y-53595482D01*
X154808183Y-53525076D01*
X154840068Y-53419948D01*
X154896628Y-53339075D01*
X154956753Y-53296723D01*
X155007492Y-53276183D01*
X155043687Y-53276128D01*
X155081833Y-53293690D01*
X155163248Y-53362734D01*
X155223585Y-53465999D01*
X155262371Y-53602261D01*
X155279137Y-53770296D01*
X155279808Y-53807921D01*
X155278729Y-53899394D01*
X155273110Y-53960002D01*
X155261213Y-53999786D01*
X155241624Y-54028426D01*
X155214796Y-54062631D01*
X155217215Y-54078982D01*
X155253004Y-54081121D01*
X155296166Y-54076607D01*
X155350192Y-54062923D01*
X155372836Y-54041356D01*
X155373043Y-54038907D01*
X155390413Y-54012855D01*
X155419169Y-53999883D01*
X155502914Y-53981294D01*
X155609601Y-53959383D01*
X155729663Y-53935923D01*
X155853531Y-53912687D01*
X155971638Y-53891448D01*
X156074416Y-53873980D01*
X156152297Y-53862058D01*
X156182809Y-53858331D01*
X156212362Y-53857056D01*
X156204050Y-53862360D01*
X156160357Y-53873530D01*
X156083763Y-53889852D01*
X156049556Y-53896666D01*
X155865649Y-53932914D01*
X155718271Y-53962405D01*
X155603684Y-53986088D01*
X155518147Y-54004915D01*
X155457921Y-54019833D01*
X155419265Y-54031792D01*
X155398439Y-54041741D01*
X155391704Y-54050630D01*
X155395319Y-54059408D01*
X155397809Y-54062108D01*
X155420092Y-54063162D01*
X155478197Y-54061185D01*
X155567086Y-54056551D01*
X155681722Y-54049633D01*
X155817067Y-54040804D01*
X155968084Y-54030438D01*
X156129735Y-54018907D01*
X156296982Y-54006585D01*
X156464789Y-53993844D01*
X156628117Y-53981059D01*
X156781929Y-53968602D01*
X156921188Y-53956847D01*
X157040855Y-53946166D01*
X157135895Y-53936932D01*
X157201268Y-53929520D01*
X157216477Y-53927384D01*
X157355236Y-53904071D01*
X157461074Y-53882133D01*
X157531601Y-53862166D01*
X157564431Y-53844769D01*
X157566586Y-53839756D01*
X157586077Y-53832436D01*
X157640755Y-53828065D01*
X157724929Y-53826424D01*
X157832909Y-53827291D01*
X157959004Y-53830446D01*
X158097523Y-53835669D01*
X158242775Y-53842738D01*
X158389071Y-53851434D01*
X158530718Y-53861535D01*
X158662026Y-53872821D01*
X158777304Y-53885070D01*
X158796610Y-53887449D01*
X158930916Y-53902268D01*
X159091738Y-53916615D01*
X159264599Y-53929400D01*
X159435019Y-53939531D01*
X159560201Y-53945002D01*
X159704151Y-53950311D01*
X159812789Y-53955310D01*
X159891794Y-53960677D01*
X159946844Y-53967086D01*
X159983617Y-53975213D01*
X160007791Y-53985731D01*
X160025043Y-53999318D01*
X160026147Y-54000409D01*
X160049373Y-54037402D01*
X160074747Y-54098767D01*
X160099231Y-54173500D01*
X160119786Y-54250598D01*
X160133374Y-54319056D01*
X160136954Y-54367871D01*
X160132138Y-54384214D01*
X160127276Y-54413468D01*
X160137307Y-54466060D01*
X160144223Y-54487909D01*
X160161799Y-54581266D01*
X160161870Y-54706845D01*
X160144519Y-54859833D01*
X160137011Y-54904363D01*
X160133319Y-54939960D01*
X160142562Y-54966298D01*
X160172012Y-54992203D01*
X160228940Y-55026498D01*
X160245208Y-55035672D01*
X160330644Y-55085145D01*
X160386017Y-55123302D01*
X160417705Y-55157618D01*
X160432088Y-55195566D01*
X160435545Y-55244620D01*
X160435461Y-55258585D01*
X160430654Y-55339015D01*
X160420241Y-55419346D01*
X160417318Y-55434786D01*
X160409279Y-55467931D01*
X160403945Y-55472011D01*
X160400629Y-55443565D01*
X160398641Y-55379130D01*
X160397999Y-55337755D01*
X160395642Y-55158722D01*
X160288015Y-55104496D01*
X160218772Y-55067831D01*
X160156931Y-55032107D01*
X160129137Y-55014180D01*
X160093672Y-54994400D01*
X160053517Y-54987481D01*
X159994522Y-54992119D01*
X159954883Y-54998145D01*
X159803103Y-55012044D01*
X159658066Y-55005065D01*
X159527747Y-54978786D01*
X159420123Y-54934786D01*
X159345778Y-54877581D01*
X159282865Y-54780880D01*
X159252478Y-54672504D01*
X159252550Y-54665652D01*
X159333918Y-54665652D01*
X159348338Y-54732368D01*
X159398214Y-54823236D01*
X159479894Y-54888836D01*
X159569911Y-54923912D01*
X159651393Y-54939427D01*
X159748197Y-54948470D01*
X159847340Y-54950854D01*
X159935837Y-54946394D01*
X160000704Y-54934902D01*
X160013159Y-54930266D01*
X160060686Y-54895065D01*
X160090761Y-54837256D01*
X160105667Y-54750604D01*
X160108299Y-54670182D01*
X160095177Y-54540734D01*
X160057265Y-54440077D01*
X159995686Y-54370453D01*
X159944060Y-54343099D01*
X159875691Y-54330025D01*
X159781704Y-54327155D01*
X159676045Y-54333948D01*
X159572664Y-54349863D01*
X159533648Y-54359039D01*
X159444091Y-54402251D01*
X159378228Y-54473243D01*
X159340142Y-54563786D01*
X159333918Y-54665652D01*
X159252550Y-54665652D01*
X159253639Y-54561302D01*
X159285373Y-54456128D01*
X159346706Y-54365831D01*
X159407730Y-54315576D01*
X159451907Y-54286497D01*
X159473063Y-54266250D01*
X159467465Y-54251741D01*
X159431378Y-54239877D01*
X159361068Y-54227565D01*
X159288620Y-54216897D01*
X158998945Y-54178446D01*
X158714106Y-54148065D01*
X158429136Y-54125721D01*
X158139070Y-54111380D01*
X157838941Y-54105010D01*
X157523783Y-54106575D01*
X157188630Y-54116044D01*
X156828515Y-54133381D01*
X156438472Y-54158554D01*
X156013535Y-54191529D01*
X155977805Y-54194509D01*
X155773435Y-54210464D01*
X155540277Y-54226632D01*
X155284418Y-54242730D01*
X155011949Y-54258475D01*
X154728959Y-54273584D01*
X154441535Y-54287773D01*
X154155768Y-54300759D01*
X153877747Y-54312258D01*
X153613559Y-54321987D01*
X153369294Y-54329663D01*
X153151042Y-54335002D01*
X152964891Y-54337721D01*
X152894242Y-54338015D01*
X152740739Y-54336985D01*
X152556367Y-54334068D01*
X152351201Y-54329525D01*
X152135317Y-54323617D01*
X151918790Y-54316605D01*
X151711695Y-54308749D01*
X151632435Y-54305370D01*
X151413055Y-54297031D01*
X151174168Y-54290377D01*
X150920608Y-54285377D01*
X150657209Y-54282000D01*
X150388806Y-54280214D01*
X150120234Y-54279989D01*
X149856327Y-54281293D01*
X149601919Y-54284095D01*
X149361846Y-54288364D01*
X149140941Y-54294069D01*
X148944040Y-54301178D01*
X148775976Y-54309660D01*
X148641584Y-54319485D01*
X148587409Y-54325020D01*
X148288195Y-54365713D01*
X147989127Y-54417344D01*
X147700425Y-54477776D01*
X147432307Y-54544873D01*
X147196975Y-54615833D01*
X147184304Y-54630485D01*
X147199684Y-54662098D01*
X147212351Y-54678980D01*
X147247509Y-54754377D01*
X147254084Y-54845087D01*
X147234790Y-54939936D01*
X147192342Y-55027750D01*
X147129453Y-55097358D01*
X147106893Y-55113089D01*
X147041742Y-55145576D01*
X146966255Y-55173494D01*
X146951292Y-55177772D01*
X146858452Y-55197516D01*
X146735961Y-55216471D01*
X146595168Y-55233442D01*
X146447421Y-55247234D01*
X146304068Y-55256652D01*
X146176459Y-55260500D01*
X146165272Y-55260533D01*
X145945370Y-55260533D01*
X145933938Y-55347660D01*
X145925008Y-55423261D01*
X145917852Y-55496356D01*
X145917034Y-55506538D01*
X145913340Y-55546715D01*
X145909288Y-55553378D01*
X145902591Y-55523926D01*
X145895348Y-55481881D01*
X145889407Y-55346877D01*
X145916985Y-55223969D01*
X145944953Y-55166507D01*
X146018249Y-55071329D01*
X146021617Y-55068115D01*
X146311841Y-55068115D01*
X146325346Y-55116790D01*
X146347740Y-55137364D01*
X146389327Y-55148587D01*
X146461637Y-55153964D01*
X146554892Y-55154022D01*
X146659313Y-55149286D01*
X146765122Y-55140285D01*
X146862539Y-55127542D01*
X146941785Y-55111585D01*
X146967395Y-55104019D01*
X147068734Y-55052956D01*
X147136883Y-54981442D01*
X147169580Y-54892251D01*
X147172230Y-54852618D01*
X147155630Y-54767959D01*
X147107991Y-54709495D01*
X147029966Y-54677410D01*
X146922206Y-54671886D01*
X146785366Y-54693107D01*
X146691637Y-54718130D01*
X146595053Y-54757056D01*
X146506030Y-54810758D01*
X146428882Y-54873976D01*
X146367924Y-54941448D01*
X146327472Y-55007914D01*
X146311841Y-55068115D01*
X146021617Y-55068115D01*
X146125374Y-54969089D01*
X146260579Y-54863423D01*
X146418113Y-54757968D01*
X146592225Y-54656360D01*
X146777165Y-54562237D01*
X146967182Y-54479233D01*
X147121689Y-54422375D01*
X147223896Y-54389843D01*
X147356270Y-54350215D01*
X147509159Y-54306160D01*
X147672909Y-54260347D01*
X147837868Y-54215446D01*
X147994383Y-54174127D01*
X148132800Y-54139058D01*
X148228652Y-54116242D01*
X148490836Y-54066264D01*
X148782427Y-54027947D01*
X149093238Y-54002290D01*
X149413084Y-53990297D01*
X149517481Y-53989508D01*
X149639740Y-53987921D01*
X149786250Y-53983573D01*
X149940399Y-53977088D01*
X150085576Y-53969087D01*
X150115861Y-53967104D01*
X150279144Y-53957941D01*
X150402597Y-53955334D01*
X150486863Y-53959279D01*
X150519882Y-53965062D01*
X150544967Y-53970637D01*
X150570746Y-53971377D01*
X150602300Y-53965196D01*
X150644712Y-53950009D01*
X150703066Y-53923729D01*
X150782443Y-53884272D01*
X150887927Y-53829553D01*
X151020422Y-53759696D01*
X151502635Y-53497891D01*
X151970504Y-53230500D01*
X152411284Y-52964811D01*
X152416365Y-52961658D01*
X152514236Y-52901461D01*
X152600137Y-52849690D01*
X152667990Y-52809924D01*
X152711715Y-52785742D01*
X152724975Y-52779984D01*
X152751677Y-52794823D01*
X152790671Y-52831164D01*
X152830992Y-52876743D01*
X152861674Y-52919298D01*
X152871994Y-52944400D01*
X152863499Y-52953816D01*
X152840192Y-52928207D01*
X152810329Y-52889312D01*
X152781234Y-52865541D01*
X152746833Y-52858048D01*
X152701052Y-52867988D01*
X152637819Y-52896515D01*
X152551060Y-52944783D01*
X152455863Y-53001246D01*
X152231090Y-53133504D01*
X151979412Y-53277181D01*
X151711170Y-53426549D01*
X151436704Y-53575881D01*
X151166354Y-53719450D01*
X151046221Y-53781981D01*
X150929720Y-53843316D01*
X150830195Y-53897907D01*
X150752119Y-53943123D01*
X150699969Y-53976337D01*
X150678219Y-53994918D01*
X150679063Y-53997675D01*
X150715381Y-54005805D01*
X150783210Y-54017331D01*
X150873330Y-54030968D01*
X150976520Y-54045431D01*
X151083559Y-54059432D01*
X151185225Y-54071687D01*
X151272299Y-54080909D01*
X151283212Y-54081923D01*
X151426715Y-54094941D01*
X151755125Y-53832095D01*
X151885925Y-53728942D01*
X152035893Y-53613154D01*
X152191097Y-53495335D01*
X152337609Y-53386092D01*
X152421388Y-53324846D01*
X152564814Y-53220295D01*
X152677537Y-53136086D01*
X152762754Y-53069495D01*
X152823659Y-53017799D01*
X152863449Y-52978274D01*
X152885318Y-52948196D01*
X152892463Y-52924842D01*
X152892494Y-52923301D01*
X152878556Y-52888994D01*
X152843827Y-52844261D01*
X152830993Y-52831235D01*
X152792661Y-52791465D01*
X152771169Y-52763256D01*
X152769492Y-52758433D01*
X152786877Y-52743733D01*
X152831147Y-52721819D01*
X152862382Y-52709078D01*
X152914062Y-52692024D01*
X152956570Y-52688360D01*
X152998527Y-52701574D01*
G37*
D12*
%TO.C,Roil1*%
X154337258Y-102177500D02*
X153862742Y-102177500D01*
X154337258Y-103222500D02*
X153862742Y-103222500D01*
%TO.C,Rfuel1*%
X154337258Y-100577500D02*
X153862742Y-100577500D01*
X154337258Y-101622500D02*
X153862742Y-101622500D01*
D15*
%TO.C,USBC1*%
X178950000Y-75630000D02*
X180200000Y-75630000D01*
X178950000Y-84570000D02*
X180200000Y-84570000D01*
X182920000Y-84570000D02*
X184200000Y-84570000D01*
X184200000Y-75630000D02*
X182920000Y-75630000D01*
X175700000Y-83350000D02*
G75*
G02*
X175500000Y-83350000I-100000J0D01*
G01*
X175500000Y-83350000D02*
G75*
G02*
X175700000Y-83350000I100000J0D01*
G01*
D12*
%TO.C,Buttons1*%
X175570000Y-86590000D02*
X176900000Y-86590000D01*
X175570000Y-87920000D02*
X175570000Y-86590000D01*
X175570000Y-89190000D02*
X175570000Y-101950000D01*
X175570000Y-89190000D02*
X178230000Y-89190000D01*
X175570000Y-101950000D02*
X178230000Y-101950000D01*
X178230000Y-89190000D02*
X178230000Y-101950000D01*
%TO.C,Rspd1*%
X161662742Y-107277500D02*
X162137258Y-107277500D01*
X161662742Y-108322500D02*
X162137258Y-108322500D01*
%TO.C,SPI2*%
X146790000Y-58890000D02*
X146790000Y-59940000D01*
X146790000Y-59940000D02*
X145800000Y-59940000D01*
X146790000Y-69110000D02*
X146790000Y-68060000D01*
X147940000Y-58890000D02*
X146790000Y-58890000D01*
X147940000Y-69110000D02*
X146790000Y-69110000D01*
X149910000Y-60060000D02*
X149910000Y-67940000D01*
%TO.C,R1*%
X150865000Y-113260436D02*
X150865000Y-113714564D01*
X152335000Y-113260436D02*
X152335000Y-113714564D01*
%TO.C,Cesp2*%
X180288748Y-91965000D02*
X180811252Y-91965000D01*
X180288748Y-93435000D02*
X180811252Y-93435000D01*
D13*
%TO.C,ESP_RST1*%
X180043900Y-85853400D02*
X180043900Y-86047660D01*
X180043900Y-88413140D02*
X180043900Y-88607400D01*
X180043900Y-88607400D02*
X183297900Y-88607400D01*
X183297900Y-85853400D02*
X180043900Y-85853400D01*
X183297900Y-86047660D02*
X183297900Y-85853400D01*
X183297900Y-88607400D02*
X183297900Y-88413140D01*
D12*
%TO.C,Rlind2*%
X173777500Y-110337258D02*
X173777500Y-109862742D01*
X174822500Y-110337258D02*
X174822500Y-109862742D01*
%TO.C,Rboot1*%
X152527500Y-98412742D02*
X152527500Y-98887258D01*
X153572500Y-98412742D02*
X153572500Y-98887258D01*
%TO.C,SPI1*%
X146790000Y-70790000D02*
X146790000Y-71840000D01*
X146790000Y-71840000D02*
X145800000Y-71840000D01*
X146790000Y-81010000D02*
X146790000Y-79960000D01*
X147940000Y-70790000D02*
X146790000Y-70790000D01*
X147940000Y-81010000D02*
X146790000Y-81010000D01*
X149910000Y-71960000D02*
X149910000Y-79840000D01*
D16*
%TO.C,SD1*%
X163850000Y-60470000D02*
X163850000Y-63280000D01*
X165470000Y-58775000D02*
X172530000Y-58775000D01*
X165870000Y-73625000D02*
X172530000Y-73625000D01*
X175370000Y-58775000D02*
X178350000Y-58775000D01*
X175370000Y-73625000D02*
X178350000Y-73625000D01*
X178350000Y-73625000D02*
X178350000Y-58775000D01*
D15*
X162100000Y-63950000D02*
G75*
G02*
X161900000Y-63950000I-100000J0D01*
G01*
X161900000Y-63950000D02*
G75*
G02*
X162100000Y-63950000I100000J0D01*
G01*
D12*
%TO.C,Rfbt1*%
X163962742Y-117777500D02*
X164437258Y-117777500D01*
X163962742Y-118822500D02*
X164437258Y-118822500D01*
%TO.C,GND1*%
X174170000Y-120470000D02*
X175500000Y-120470000D01*
X174170000Y-121800000D02*
X174170000Y-120470000D01*
X174170000Y-123070000D02*
X174170000Y-123130000D01*
X174170000Y-123070000D02*
X176830000Y-123070000D01*
X174170000Y-123130000D02*
X176830000Y-123130000D01*
X176830000Y-123070000D02*
X176830000Y-123130000D01*
D16*
%TO.C,VRCond1*%
X155305000Y-106275000D02*
X158355000Y-106275000D01*
X155305000Y-109325000D02*
X158355000Y-109325000D01*
D15*
X153310000Y-106520000D02*
G75*
G02*
X153110000Y-106520000I-100000J0D01*
G01*
X153110000Y-106520000D02*
G75*
G02*
X153310000Y-106520000I100000J0D01*
G01*
D12*
%TO.C,Fan1*%
X178890000Y-105390000D02*
X179940000Y-105390000D01*
X178890000Y-106540000D02*
X178890000Y-105390000D01*
X181940000Y-108510000D02*
X180060000Y-108510000D01*
X182060000Y-105390000D02*
X182060000Y-104400000D01*
X183110000Y-105390000D02*
X182060000Y-105390000D01*
X183110000Y-106540000D02*
X183110000Y-105390000D01*
%TO.C,Rfbb1*%
X163962742Y-115777500D02*
X164437258Y-115777500D01*
X163962742Y-116822500D02*
X164437258Y-116822500D01*
%TO.C,Rrind2*%
X172677500Y-106937258D02*
X172677500Y-106462742D01*
X173722500Y-106937258D02*
X173722500Y-106462742D01*
%TO.C,SPI3*%
X153390000Y-58890000D02*
X153390000Y-59940000D01*
X153390000Y-59940000D02*
X152400000Y-59940000D01*
X153390000Y-69110000D02*
X153390000Y-68060000D01*
X154540000Y-58890000D02*
X153390000Y-58890000D01*
X154540000Y-69110000D02*
X153390000Y-69110000D01*
X156510000Y-60060000D02*
X156510000Y-67940000D01*
%TO.C,Rrpm1*%
X147637258Y-86177500D02*
X147162742Y-86177500D01*
X147637258Y-87222500D02*
X147162742Y-87222500D01*
%TD*%
%LPC*%
D17*
%TO.C,USBC1*%
X177470000Y-77250000D02*
X176220000Y-77250000D01*
X176220000Y-76550000D01*
X177470000Y-76550000D01*
X177470000Y-77250000D01*
G36*
X177470000Y-77250000D02*
G01*
X176220000Y-77250000D01*
X176220000Y-76550000D01*
X177470000Y-76550000D01*
X177470000Y-77250000D01*
G37*
X177470000Y-78050000D02*
X176220000Y-78050000D01*
X176220000Y-77350000D01*
X177470000Y-77350000D01*
X177470000Y-78050000D01*
G36*
X177470000Y-78050000D02*
G01*
X176220000Y-78050000D01*
X176220000Y-77350000D01*
X177470000Y-77350000D01*
X177470000Y-78050000D01*
G37*
X177470000Y-78550000D02*
X176220000Y-78550000D01*
X176220000Y-78150000D01*
X177470000Y-78150000D01*
X177470000Y-78550000D01*
G36*
X177470000Y-78550000D02*
G01*
X176220000Y-78550000D01*
X176220000Y-78150000D01*
X177470000Y-78150000D01*
X177470000Y-78550000D01*
G37*
X177470000Y-79050000D02*
X176220000Y-79050000D01*
X176220000Y-78650000D01*
X177470000Y-78650000D01*
X177470000Y-79050000D01*
G36*
X177470000Y-79050000D02*
G01*
X176220000Y-79050000D01*
X176220000Y-78650000D01*
X177470000Y-78650000D01*
X177470000Y-79050000D01*
G37*
X177470000Y-79550000D02*
X176220000Y-79550000D01*
X176220000Y-79150000D01*
X177470000Y-79150000D01*
X177470000Y-79550000D01*
G36*
X177470000Y-79550000D02*
G01*
X176220000Y-79550000D01*
X176220000Y-79150000D01*
X177470000Y-79150000D01*
X177470000Y-79550000D01*
G37*
X177470000Y-80050000D02*
X176220000Y-80050000D01*
X176220000Y-79650000D01*
X177470000Y-79650000D01*
X177470000Y-80050000D01*
G36*
X177470000Y-80050000D02*
G01*
X176220000Y-80050000D01*
X176220000Y-79650000D01*
X177470000Y-79650000D01*
X177470000Y-80050000D01*
G37*
X177470000Y-80550000D02*
X176220000Y-80550000D01*
X176220000Y-80150000D01*
X177470000Y-80150000D01*
X177470000Y-80550000D01*
G36*
X177470000Y-80550000D02*
G01*
X176220000Y-80550000D01*
X176220000Y-80150000D01*
X177470000Y-80150000D01*
X177470000Y-80550000D01*
G37*
X177470000Y-81050000D02*
X176220000Y-81050000D01*
X176220000Y-80650000D01*
X177470000Y-80650000D01*
X177470000Y-81050000D01*
G36*
X177470000Y-81050000D02*
G01*
X176220000Y-81050000D01*
X176220000Y-80650000D01*
X177470000Y-80650000D01*
X177470000Y-81050000D01*
G37*
X177470000Y-81550000D02*
X176220000Y-81550000D01*
X176220000Y-81150000D01*
X177470000Y-81150000D01*
X177470000Y-81550000D01*
G36*
X177470000Y-81550000D02*
G01*
X176220000Y-81550000D01*
X176220000Y-81150000D01*
X177470000Y-81150000D01*
X177470000Y-81550000D01*
G37*
X177470000Y-82050000D02*
X176220000Y-82050000D01*
X176220000Y-81650000D01*
X177470000Y-81650000D01*
X177470000Y-82050000D01*
G36*
X177470000Y-82050000D02*
G01*
X176220000Y-82050000D01*
X176220000Y-81650000D01*
X177470000Y-81650000D01*
X177470000Y-82050000D01*
G37*
X177470000Y-82850000D02*
X176220000Y-82850000D01*
X176220000Y-82150000D01*
X177470000Y-82150000D01*
X177470000Y-82850000D01*
G36*
X177470000Y-82850000D02*
G01*
X176220000Y-82850000D01*
X176220000Y-82150000D01*
X177470000Y-82150000D01*
X177470000Y-82850000D01*
G37*
X177470000Y-83650000D02*
X176220000Y-83650000D01*
X176220000Y-82950000D01*
X177470000Y-82950000D01*
X177470000Y-83650000D01*
G36*
X177470000Y-83650000D02*
G01*
X176220000Y-83650000D01*
X176220000Y-82950000D01*
X177470000Y-82950000D01*
X177470000Y-83650000D01*
G37*
%TD*%
D18*
%TO.C,Speed1*%
X146475000Y-109900000D03*
X146475000Y-110900000D03*
D19*
X149000000Y-108600000D03*
X149000000Y-112200000D03*
%TD*%
D20*
%TO.C,Rrpm2*%
X146575000Y-88300000D03*
X148225000Y-88300000D03*
%TD*%
D21*
%TO.C,Cen1*%
X183400000Y-91750000D03*
X183400000Y-89850000D03*
%TD*%
D20*
%TO.C,Resp1*%
X179425000Y-89850000D03*
X181075000Y-89850000D03*
%TD*%
D22*
%TO.C,TEMP_S1*%
X150225000Y-96600000D03*
X150225000Y-95600000D03*
X150225000Y-94600000D03*
D23*
X147700000Y-97900000D03*
X147700000Y-93300000D03*
%TD*%
D24*
%TO.C,Rspd2*%
X161700000Y-104825000D03*
X161700000Y-103175000D03*
%TD*%
D25*
%TO.C,Vcc1*%
X179200000Y-121800000D03*
%TD*%
D18*
%TO.C,gauges1*%
X146475000Y-101700000D03*
X146475000Y-102700000D03*
X146475000Y-103700000D03*
D19*
X149000000Y-100400000D03*
X149000000Y-105000000D03*
%TD*%
D25*
%TO.C,RPM1*%
X147700000Y-84000000D03*
%TD*%
D26*
%TO.C,Cshld1*%
X161100000Y-58350000D03*
X161100000Y-60250000D03*
%TD*%
D27*
%TO.C,ESP_BOOT1*%
X156700000Y-98650000D03*
X160300000Y-98650000D03*
%TD*%
D24*
%TO.C,Rrind1*%
X176100000Y-107525000D03*
X176100000Y-105875000D03*
%TD*%
D28*
%TO.C,Cesp1*%
X179600000Y-94800000D03*
X181500000Y-94800000D03*
%TD*%
D29*
%TO.C,ESP1*%
X173420000Y-78400000D03*
X172150000Y-78400000D03*
X170880000Y-78400000D03*
X169610000Y-78400000D03*
X168340000Y-78400000D03*
X167070000Y-78400000D03*
X165800000Y-78400000D03*
X164530000Y-78400000D03*
X163260000Y-78400000D03*
X161990000Y-78400000D03*
X160720000Y-78400000D03*
X159450000Y-78400000D03*
X158180000Y-78400000D03*
X156910000Y-78400000D03*
D30*
X155660000Y-80165000D03*
X155660000Y-81435000D03*
X155660000Y-82705000D03*
X155660000Y-83975000D03*
X155660000Y-85245000D03*
X155660000Y-86515000D03*
X155660000Y-87785000D03*
X155660000Y-89055000D03*
X155660000Y-90325000D03*
X155660000Y-91595000D03*
X155660000Y-92865000D03*
X155660000Y-94135000D03*
D29*
X156910000Y-95900000D03*
X158180000Y-95900000D03*
X159450000Y-95900000D03*
X160720000Y-95900000D03*
X161990000Y-95900000D03*
X163260000Y-95900000D03*
X164530000Y-95900000D03*
X165800000Y-95900000D03*
X167070000Y-95900000D03*
X168340000Y-95900000D03*
X169610000Y-95900000D03*
X170880000Y-95900000D03*
X172150000Y-95900000D03*
X173420000Y-95900000D03*
D31*
X166400000Y-84250000D03*
X165000000Y-84250000D03*
X167100000Y-84950000D03*
X165700000Y-84950000D03*
X164300000Y-84950000D03*
X166400000Y-85650000D03*
D32*
X165700000Y-85650000D03*
D31*
X165000000Y-85650000D03*
X167100000Y-86350000D03*
X165700000Y-86350000D03*
X164300000Y-86350000D03*
X166400000Y-87050000D03*
X165000000Y-87050000D03*
%TD*%
D24*
%TO.C,Rlind1*%
X177300000Y-112325000D03*
X177300000Y-110675000D03*
%TD*%
D33*
%TO.C,R2*%
X151600000Y-107400000D03*
X151600000Y-105575000D03*
%TD*%
D34*
%TO.C,Rwtr1*%
X154925000Y-104300000D03*
X153275000Y-104300000D03*
%TD*%
D35*
%TO.C,Cout2*%
X169900000Y-124400000D03*
X169900000Y-118800000D03*
%TD*%
D36*
%TO.C,Qfan1*%
X181275000Y-100950000D03*
X181275000Y-102850000D03*
X183150000Y-101900000D03*
%TD*%
D37*
%TO.C,Indics1*%
X180600000Y-115900000D03*
X181600000Y-115900000D03*
D38*
X179300000Y-113375000D03*
X182900000Y-113375000D03*
%TD*%
D21*
%TO.C,Cmax1*%
X151600000Y-110950000D03*
X151600000Y-109050000D03*
%TD*%
D20*
%TO.C,Rup1*%
X161075000Y-109400000D03*
X162725000Y-109400000D03*
%TD*%
D36*
%TO.C,TEMP_S2*%
X164362500Y-101750000D03*
X164362500Y-103650000D03*
X166237500Y-102700000D03*
%TD*%
D34*
%TO.C,Roil1*%
X154925000Y-102700000D03*
X153275000Y-102700000D03*
%TD*%
%TO.C,Rfuel1*%
X154925000Y-101100000D03*
X153275000Y-101100000D03*
%TD*%
D39*
%TO.C,USBC1*%
X177920000Y-82990000D03*
X177920000Y-77210000D03*
D40*
X177420000Y-84420000D03*
X177420000Y-75780000D03*
D41*
X181600000Y-84420000D03*
X181600000Y-75780000D03*
%TD*%
D25*
%TO.C,Buttons1*%
X176900000Y-87920000D03*
D42*
X176900000Y-90460000D03*
X176900000Y-93000000D03*
X176900000Y-95540000D03*
X176900000Y-98080000D03*
X176900000Y-100620000D03*
%TD*%
D20*
%TO.C,Rspd1*%
X161075000Y-107800000D03*
X162725000Y-107800000D03*
%TD*%
D18*
%TO.C,SPI2*%
X146575000Y-60500000D03*
X146575000Y-61500000D03*
X146575000Y-62500000D03*
X146575000Y-63500000D03*
X146575000Y-64500000D03*
X146575000Y-65500000D03*
X146575000Y-66500000D03*
X146575000Y-67500000D03*
D19*
X149100000Y-59200000D03*
X149100000Y-68800000D03*
%TD*%
D43*
%TO.C,R1*%
X151600000Y-112575000D03*
X151600000Y-114400000D03*
%TD*%
D28*
%TO.C,Cesp2*%
X179600000Y-92700000D03*
X181500000Y-92700000D03*
%TD*%
D27*
%TO.C,ESP_RST1*%
X183470900Y-87230400D03*
X179870900Y-87230400D03*
%TD*%
D24*
%TO.C,Rlind2*%
X174300000Y-110925000D03*
X174300000Y-109275000D03*
%TD*%
D44*
%TO.C,Rboot1*%
X153050000Y-97825000D03*
X153050000Y-99475000D03*
%TD*%
D18*
%TO.C,SPI1*%
X146575000Y-72400000D03*
X146575000Y-73400000D03*
X146575000Y-74400000D03*
X146575000Y-75400000D03*
X146575000Y-76400000D03*
X146575000Y-77400000D03*
X146575000Y-78400000D03*
X146575000Y-79400000D03*
D19*
X149100000Y-71100000D03*
X149100000Y-80700000D03*
%TD*%
D45*
%TO.C,SD1*%
X174350000Y-71150000D03*
X174350000Y-63150000D03*
D46*
X163350000Y-63950000D03*
X163350000Y-65050000D03*
X163350000Y-66150000D03*
X163350000Y-67250000D03*
X163350000Y-68350000D03*
X163350000Y-69450000D03*
X163350000Y-70550000D03*
X163350000Y-71650000D03*
X163350000Y-72750000D03*
D47*
X164350000Y-73950000D03*
D48*
X164400000Y-59350000D03*
D49*
X173950000Y-73950000D03*
X173950000Y-58450000D03*
%TD*%
D20*
%TO.C,Rfbt1*%
X163375000Y-118300000D03*
X165025000Y-118300000D03*
%TD*%
D25*
%TO.C,GND1*%
X175500000Y-121800000D03*
%TD*%
D50*
%TO.C,VRCond1*%
X154680000Y-106800000D03*
X154680000Y-107300000D03*
X154680000Y-107800000D03*
X154680000Y-108300000D03*
X154680000Y-108800000D03*
X158980000Y-108800000D03*
X158980000Y-108300000D03*
X158980000Y-107800000D03*
X158980000Y-107300000D03*
X158980000Y-106800000D03*
%TD*%
D51*
%TO.C,Fan1*%
X181500000Y-105175000D03*
X180500000Y-105175000D03*
D52*
X182800000Y-107700000D03*
X179200000Y-107700000D03*
%TD*%
D20*
%TO.C,Rfbb1*%
X163375000Y-116300000D03*
X165025000Y-116300000D03*
%TD*%
D24*
%TO.C,Rrind2*%
X173200000Y-107525000D03*
X173200000Y-105875000D03*
%TD*%
D18*
%TO.C,SPI3*%
X153175000Y-60500000D03*
X153175000Y-61500000D03*
X153175000Y-62500000D03*
X153175000Y-63500000D03*
X153175000Y-64500000D03*
X153175000Y-65500000D03*
X153175000Y-66500000D03*
X153175000Y-67500000D03*
D19*
X155700000Y-59200000D03*
X155700000Y-68800000D03*
%TD*%
D34*
%TO.C,Rrpm1*%
X148225000Y-86700000D03*
X146575000Y-86700000D03*
%TD*%
%LPD*%
M02*
