M48
; DRILL file {KiCad 8.0.2} date 2024-08-05T00:03:35+0200
; FORMAT={-:-/ absolute / inch / decimal}
; #@! TF.CreationDate,2024-08-05T00:03:35+02:00
; #@! TF.GenerationSoftware,Kicad,Pcbnew,8.0.2
; #@! TF.FileFunction,Plated,1,2,PTH
FMAT,2
INCH
; #@! TA.AperFunction,Plated,PTH,ComponentDrill
T1C0.0394
; #@! TA.AperFunction,Plated,PTH,ComponentDrill
T2C0.0610
%
G90
G05
T1
X2.9563Y-1.0512
X2.9563Y-1.2343
X2.9563Y-1.4173
X2.9563Y-1.6004
X2.9563Y-1.7835
X3.1394Y-1.0512
X3.1394Y-1.2343
X3.1394Y-1.4173
X3.1394Y-1.6004
X3.1394Y-1.7835
X4.685Y-2.8346
X4.7244Y-2.5984
X4.8819Y-2.6378
X4.8819Y-2.8346
X7.0472Y-1.122
X7.0472Y-1.2697
X7.0472Y-1.4173
X7.0472Y-1.565
X7.0472Y-1.7126
X7.0472Y-1.8602
X7.0472Y-2.0079
X7.0472Y-2.1555
X7.1949Y-1.122
X7.1949Y-1.2697
X7.1949Y-1.4173
X7.1949Y-1.565
X7.1949Y-1.7126
X7.1949Y-1.8602
X7.1949Y-2.0079
X7.1949Y-2.1555
X7.3425Y-1.122
X7.3425Y-1.2697
X7.3425Y-1.4173
X7.3425Y-1.565
X7.3425Y-1.7126
X7.3425Y-1.8602
X7.3425Y-2.0079
X7.3425Y-2.1555
T2
X6.3976Y-1.122
X6.6043Y-1.122
M30
