%TF.GenerationSoftware,KiCad,Pcbnew,8.0.5*%
%TF.CreationDate,2024-09-23T19:59:45+02:00*%
%TF.ProjectId,Leiterkarte-v2,4c656974-6572-46b6-9172-74652d76322e,rev?*%
%TF.SameCoordinates,Original*%
%TF.FileFunction,Soldermask,Top*%
%TF.FilePolarity,Negative*%
%FSLAX46Y46*%
G04 Gerber Fmt 4.6, Leading zero omitted, Abs format (unit mm)*
G04 Created by KiCad (PCBNEW 8.0.5) date 2024-09-23 19:59:45*
%MOMM*%
%LPD*%
G01*
G04 APERTURE LIST*
G04 Aperture macros list*
%AMRoundRect*
0 Rectangle with rounded corners*
0 $1 Rounding radius*
0 $2 $3 $4 $5 $6 $7 $8 $9 X,Y pos of 4 corners*
0 Add a 4 corners polygon primitive as box body*
4,1,4,$2,$3,$4,$5,$6,$7,$8,$9,$2,$3,0*
0 Add four circle primitives for the rounded corners*
1,1,$1+$1,$2,$3*
1,1,$1+$1,$4,$5*
1,1,$1+$1,$6,$7*
1,1,$1+$1,$8,$9*
0 Add four rect primitives between the rounded corners*
20,1,$1+$1,$2,$3,$4,$5,0*
20,1,$1+$1,$4,$5,$6,$7,0*
20,1,$1+$1,$6,$7,$8,$9,0*
20,1,$1+$1,$8,$9,$2,$3,0*%
G04 Aperture macros list end*
%ADD10RoundRect,0.150000X-0.625000X0.150000X-0.625000X-0.150000X0.625000X-0.150000X0.625000X0.150000X0*%
%ADD11RoundRect,0.250000X-0.650000X0.350000X-0.650000X-0.350000X0.650000X-0.350000X0.650000X0.350000X0*%
%ADD12RoundRect,0.200000X-0.200000X-0.275000X0.200000X-0.275000X0.200000X0.275000X-0.200000X0.275000X0*%
%ADD13R,1.700000X1.700000*%
%ADD14O,1.700000X1.700000*%
%ADD15RoundRect,0.150000X0.625000X-0.150000X0.625000X0.150000X-0.625000X0.150000X-0.625000X-0.150000X0*%
%ADD16RoundRect,0.250000X0.650000X-0.350000X0.650000X0.350000X-0.650000X0.350000X-0.650000X-0.350000X0*%
%ADD17RoundRect,0.200000X0.275000X-0.200000X0.275000X0.200000X-0.275000X0.200000X-0.275000X-0.200000X0*%
%ADD18RoundRect,0.250000X-0.475000X0.250000X-0.475000X-0.250000X0.475000X-0.250000X0.475000X0.250000X0*%
%ADD19RoundRect,0.250000X0.450000X-0.262500X0.450000X0.262500X-0.450000X0.262500X-0.450000X-0.262500X0*%
%ADD20RoundRect,0.200000X0.200000X0.275000X-0.200000X0.275000X-0.200000X-0.275000X0.200000X-0.275000X0*%
%ADD21RoundRect,0.250000X0.550000X-1.500000X0.550000X1.500000X-0.550000X1.500000X-0.550000X-1.500000X0*%
%ADD22RoundRect,0.150000X-0.587500X-0.150000X0.587500X-0.150000X0.587500X0.150000X-0.587500X0.150000X0*%
%ADD23RoundRect,0.150000X-0.150000X-0.625000X0.150000X-0.625000X0.150000X0.625000X-0.150000X0.625000X0*%
%ADD24RoundRect,0.250000X-0.350000X-0.650000X0.350000X-0.650000X0.350000X0.650000X-0.350000X0.650000X0*%
%ADD25RoundRect,0.250000X0.475000X-0.250000X0.475000X0.250000X-0.475000X0.250000X-0.475000X-0.250000X0*%
%ADD26RoundRect,0.250000X0.250000X0.475000X-0.250000X0.475000X-0.250000X-0.475000X0.250000X-0.475000X0*%
%ADD27RoundRect,0.075000X-0.725000X-0.075000X0.725000X-0.075000X0.725000X0.075000X-0.725000X0.075000X0*%
%ADD28RoundRect,0.075000X-0.075000X-0.725000X0.075000X-0.725000X0.075000X0.725000X-0.075000X0.725000X0*%
%ADD29RoundRect,0.218750X0.256250X-0.218750X0.256250X0.218750X-0.256250X0.218750X-0.256250X-0.218750X0*%
%ADD30RoundRect,0.250000X-0.450000X0.262500X-0.450000X-0.262500X0.450000X-0.262500X0.450000X0.262500X0*%
%ADD31C,1.000000*%
%ADD32RoundRect,0.102000X0.800000X-0.350000X0.800000X0.350000X-0.800000X0.350000X-0.800000X-0.350000X0*%
%ADD33RoundRect,0.102000X1.200000X-0.600000X1.200000X0.600000X-1.200000X0.600000X-1.200000X-0.600000X0*%
%ADD34RoundRect,0.102000X0.750000X-0.800000X0.750000X0.800000X-0.750000X0.800000X-0.750000X-0.800000X0*%
%ADD35RoundRect,0.102000X1.100000X-0.600000X1.100000X0.600000X-1.100000X0.600000X-1.100000X-0.600000X0*%
%ADD36RoundRect,0.060500X-0.776500X-0.181500X0.776500X-0.181500X0.776500X0.181500X-0.776500X0.181500X0*%
%ADD37RoundRect,0.150000X0.150000X0.625000X-0.150000X0.625000X-0.150000X-0.625000X0.150000X-0.625000X0*%
%ADD38RoundRect,0.250000X0.350000X0.650000X-0.350000X0.650000X-0.350000X-0.650000X0.350000X-0.650000X0*%
G04 APERTURE END LIST*
D10*
%TO.C,Speed1*%
X146475000Y-109900000D03*
X146475000Y-110900000D03*
D11*
X149000000Y-108600000D03*
X149000000Y-112200000D03*
%TD*%
D12*
%TO.C,Rrpm2*%
X146575000Y-88300000D03*
X148225000Y-88300000D03*
%TD*%
D13*
%TO.C,SWD1*%
X180700000Y-83000000D03*
D14*
X180700000Y-85540000D03*
X180700000Y-88080000D03*
X180700000Y-90620000D03*
%TD*%
D15*
%TO.C,TEMP_S1*%
X150225000Y-96600000D03*
X150225000Y-95600000D03*
X150225000Y-94600000D03*
D16*
X147700000Y-97900000D03*
X147700000Y-93300000D03*
%TD*%
D17*
%TO.C,Rspd2*%
X161700000Y-104825000D03*
X161700000Y-103175000D03*
%TD*%
D13*
%TO.C,Vcc1*%
X179200000Y-121800000D03*
%TD*%
D10*
%TO.C,gauges1*%
X146475000Y-101700000D03*
X146475000Y-102700000D03*
X146475000Y-103700000D03*
D11*
X149000000Y-100400000D03*
X149000000Y-105000000D03*
%TD*%
D17*
%TO.C,Rg1*%
X177100000Y-103625000D03*
X177100000Y-101975000D03*
%TD*%
D13*
%TO.C,RPM1*%
X147700000Y-84000000D03*
%TD*%
D18*
%TO.C,Cshld1*%
X161100000Y-58350000D03*
X161100000Y-60250000D03*
%TD*%
D17*
%TO.C,Rrind1*%
X176100000Y-107525000D03*
X176100000Y-105875000D03*
%TD*%
%TO.C,Rlind1*%
X177300000Y-112325000D03*
X177300000Y-110675000D03*
%TD*%
D19*
%TO.C,R2*%
X151600000Y-107400000D03*
X151600000Y-105575000D03*
%TD*%
D20*
%TO.C,Rwtr1*%
X154925000Y-104300000D03*
X153275000Y-104300000D03*
%TD*%
D21*
%TO.C,Cout2*%
X169900000Y-124400000D03*
X169900000Y-118800000D03*
%TD*%
D22*
%TO.C,Qfan1*%
X179062500Y-100950000D03*
X179062500Y-102850000D03*
X180937500Y-101900000D03*
%TD*%
D23*
%TO.C,Indics1*%
X180600000Y-115900000D03*
X181600000Y-115900000D03*
D24*
X179300000Y-113375000D03*
X182900000Y-113375000D03*
%TD*%
D25*
%TO.C,Cmax1*%
X151600000Y-110950000D03*
X151600000Y-109050000D03*
%TD*%
D12*
%TO.C,Rup1*%
X161075000Y-109400000D03*
X162725000Y-109400000D03*
%TD*%
D22*
%TO.C,TEMP_S2*%
X164362500Y-101750000D03*
X164362500Y-103650000D03*
X166237500Y-102700000D03*
%TD*%
D26*
%TO.C,Cnrst1*%
X152700000Y-90300000D03*
X150800000Y-90300000D03*
%TD*%
D20*
%TO.C,Roil1*%
X154925000Y-102700000D03*
X153275000Y-102700000D03*
%TD*%
%TO.C,Rfuel1*%
X154925000Y-101100000D03*
X153275000Y-101100000D03*
%TD*%
D27*
%TO.C,STM1*%
X154925000Y-83800000D03*
X154925000Y-84300000D03*
X154925000Y-84800000D03*
X154925000Y-85300000D03*
X154925000Y-85800000D03*
X154925000Y-86300000D03*
X154925000Y-86800000D03*
X154925000Y-87300000D03*
X154925000Y-87800000D03*
X154925000Y-88300000D03*
X154925000Y-88800000D03*
X154925000Y-89300000D03*
X154925000Y-89800000D03*
X154925000Y-90300000D03*
X154925000Y-90800000D03*
X154925000Y-91300000D03*
X154925000Y-91800000D03*
X154925000Y-92300000D03*
X154925000Y-92800000D03*
X154925000Y-93300000D03*
X154925000Y-93800000D03*
X154925000Y-94300000D03*
X154925000Y-94800000D03*
X154925000Y-95300000D03*
X154925000Y-95800000D03*
D28*
X156600000Y-97475000D03*
X157100000Y-97475000D03*
X157600000Y-97475000D03*
X158100000Y-97475000D03*
X158600000Y-97475000D03*
X159100000Y-97475000D03*
X159600000Y-97475000D03*
X160100000Y-97475000D03*
X160600000Y-97475000D03*
X161100000Y-97475000D03*
X161600000Y-97475000D03*
X162100000Y-97475000D03*
X162600000Y-97475000D03*
X163100000Y-97475000D03*
X163600000Y-97475000D03*
X164100000Y-97475000D03*
X164600000Y-97475000D03*
X165100000Y-97475000D03*
X165600000Y-97475000D03*
X166100000Y-97475000D03*
X166600000Y-97475000D03*
X167100000Y-97475000D03*
X167600000Y-97475000D03*
X168100000Y-97475000D03*
X168600000Y-97475000D03*
D27*
X170275000Y-95800000D03*
X170275000Y-95300000D03*
X170275000Y-94800000D03*
X170275000Y-94300000D03*
X170275000Y-93800000D03*
X170275000Y-93300000D03*
X170275000Y-92800000D03*
X170275000Y-92300000D03*
X170275000Y-91800000D03*
X170275000Y-91300000D03*
X170275000Y-90800000D03*
X170275000Y-90300000D03*
X170275000Y-89800000D03*
X170275000Y-89300000D03*
X170275000Y-88800000D03*
X170275000Y-88300000D03*
X170275000Y-87800000D03*
X170275000Y-87300000D03*
X170275000Y-86800000D03*
X170275000Y-86300000D03*
X170275000Y-85800000D03*
X170275000Y-85300000D03*
X170275000Y-84800000D03*
X170275000Y-84300000D03*
X170275000Y-83800000D03*
D28*
X168600000Y-82125000D03*
X168100000Y-82125000D03*
X167600000Y-82125000D03*
X167100000Y-82125000D03*
X166600000Y-82125000D03*
X166100000Y-82125000D03*
X165600000Y-82125000D03*
X165100000Y-82125000D03*
X164600000Y-82125000D03*
X164100000Y-82125000D03*
X163600000Y-82125000D03*
X163100000Y-82125000D03*
X162600000Y-82125000D03*
X162100000Y-82125000D03*
X161600000Y-82125000D03*
X161100000Y-82125000D03*
X160600000Y-82125000D03*
X160100000Y-82125000D03*
X159600000Y-82125000D03*
X159100000Y-82125000D03*
X158600000Y-82125000D03*
X158100000Y-82125000D03*
X157600000Y-82125000D03*
X157100000Y-82125000D03*
X156600000Y-82125000D03*
%TD*%
D29*
%TO.C,LED3*%
X177100000Y-100387500D03*
X177100000Y-98812500D03*
%TD*%
D13*
%TO.C,Buttons1*%
X176900000Y-83000000D03*
D14*
X176900000Y-85540000D03*
X176900000Y-88080000D03*
X176900000Y-90620000D03*
X176900000Y-93160000D03*
X176900000Y-95700000D03*
%TD*%
D12*
%TO.C,Rspd1*%
X161075000Y-107800000D03*
X162725000Y-107800000D03*
%TD*%
D10*
%TO.C,SPI2*%
X146575000Y-60500000D03*
X146575000Y-61500000D03*
X146575000Y-62500000D03*
X146575000Y-63500000D03*
X146575000Y-64500000D03*
X146575000Y-65500000D03*
X146575000Y-66500000D03*
X146575000Y-67500000D03*
D11*
X149100000Y-59200000D03*
X149100000Y-68800000D03*
%TD*%
D29*
%TO.C,LED1*%
X171900000Y-100387500D03*
X171900000Y-98812500D03*
%TD*%
D12*
%TO.C,Rbooto1*%
X157875000Y-79500000D03*
X159525000Y-79500000D03*
%TD*%
D30*
%TO.C,R1*%
X151600000Y-112575000D03*
X151600000Y-114400000D03*
%TD*%
D17*
%TO.C,Rr1*%
X171900000Y-103625000D03*
X171900000Y-101975000D03*
%TD*%
%TO.C,Rlind2*%
X174300000Y-110925000D03*
X174300000Y-109275000D03*
%TD*%
D29*
%TO.C,LED2*%
X174500000Y-100387500D03*
X174500000Y-98812500D03*
%TD*%
D10*
%TO.C,SPI1*%
X146575000Y-72400000D03*
X146575000Y-73400000D03*
X146575000Y-74400000D03*
X146575000Y-75400000D03*
X146575000Y-76400000D03*
X146575000Y-77400000D03*
X146575000Y-78400000D03*
X146575000Y-79400000D03*
D11*
X149100000Y-71100000D03*
X149100000Y-80700000D03*
%TD*%
D31*
%TO.C,SD1*%
X174350000Y-71150000D03*
X174350000Y-63150000D03*
D32*
X163350000Y-63950000D03*
X163350000Y-65050000D03*
X163350000Y-66150000D03*
X163350000Y-67250000D03*
X163350000Y-68350000D03*
X163350000Y-69450000D03*
X163350000Y-70550000D03*
X163350000Y-71650000D03*
X163350000Y-72750000D03*
D33*
X164350000Y-73950000D03*
D34*
X164400000Y-59350000D03*
D35*
X173950000Y-73950000D03*
X173950000Y-58450000D03*
%TD*%
D12*
%TO.C,Rfbt1*%
X163375000Y-118300000D03*
X165025000Y-118300000D03*
%TD*%
D13*
%TO.C,GND1*%
X175500000Y-121800000D03*
%TD*%
D36*
%TO.C,VRCond1*%
X154680000Y-106800000D03*
X154680000Y-107300000D03*
X154680000Y-107800000D03*
X154680000Y-108300000D03*
X154680000Y-108800000D03*
X158980000Y-108800000D03*
X158980000Y-108300000D03*
X158980000Y-107800000D03*
X158980000Y-107300000D03*
X158980000Y-106800000D03*
%TD*%
D37*
%TO.C,Fan1*%
X181500000Y-105175000D03*
X180500000Y-105175000D03*
D38*
X182800000Y-107700000D03*
X179200000Y-107700000D03*
%TD*%
D12*
%TO.C,Rfbb1*%
X163375000Y-116300000D03*
X165025000Y-116300000D03*
%TD*%
D17*
%TO.C,Rrind2*%
X173200000Y-107525000D03*
X173200000Y-105875000D03*
%TD*%
D10*
%TO.C,SPI3*%
X153175000Y-60500000D03*
X153175000Y-61500000D03*
X153175000Y-62500000D03*
X153175000Y-63500000D03*
X153175000Y-64500000D03*
X153175000Y-65500000D03*
X153175000Y-66500000D03*
X153175000Y-67500000D03*
D11*
X155700000Y-59200000D03*
X155700000Y-68800000D03*
%TD*%
D17*
%TO.C,Ro1*%
X174500000Y-103625000D03*
X174500000Y-101975000D03*
%TD*%
D20*
%TO.C,Rrpm1*%
X148225000Y-86700000D03*
X146575000Y-86700000D03*
%TD*%
M02*
