%TF.GenerationSoftware,KiCad,Pcbnew,8.0.5*%
%TF.CreationDate,2024-09-29T17:29:23+02:00*%
%TF.ProjectId,Leiterkarte-v2,4c656974-6572-46b6-9172-74652d76322e,rev?*%
%TF.SameCoordinates,Original*%
%TF.FileFunction,Soldermask,Top*%
%TF.FilePolarity,Negative*%
%FSLAX46Y46*%
G04 Gerber Fmt 4.6, Leading zero omitted, Abs format (unit mm)*
G04 Created by KiCad (PCBNEW 8.0.5) date 2024-09-29 17:29:23*
%MOMM*%
%LPD*%
G01*
G04 APERTURE LIST*
G04 Aperture macros list*
%AMRoundRect*
0 Rectangle with rounded corners*
0 $1 Rounding radius*
0 $2 $3 $4 $5 $6 $7 $8 $9 X,Y pos of 4 corners*
0 Add a 4 corners polygon primitive as box body*
4,1,4,$2,$3,$4,$5,$6,$7,$8,$9,$2,$3,0*
0 Add four circle primitives for the rounded corners*
1,1,$1+$1,$2,$3*
1,1,$1+$1,$4,$5*
1,1,$1+$1,$6,$7*
1,1,$1+$1,$8,$9*
0 Add four rect primitives between the rounded corners*
20,1,$1+$1,$2,$3,$4,$5,0*
20,1,$1+$1,$4,$5,$6,$7,0*
20,1,$1+$1,$6,$7,$8,$9,0*
20,1,$1+$1,$8,$9,$2,$3,0*%
G04 Aperture macros list end*
%ADD10C,0.010000*%
%ADD11RoundRect,0.150000X-0.625000X0.150000X-0.625000X-0.150000X0.625000X-0.150000X0.625000X0.150000X0*%
%ADD12RoundRect,0.250000X-0.650000X0.350000X-0.650000X-0.350000X0.650000X-0.350000X0.650000X0.350000X0*%
%ADD13RoundRect,0.200000X-0.200000X-0.275000X0.200000X-0.275000X0.200000X0.275000X-0.200000X0.275000X0*%
%ADD14RoundRect,0.250000X0.475000X-0.250000X0.475000X0.250000X-0.475000X0.250000X-0.475000X-0.250000X0*%
%ADD15RoundRect,0.150000X0.625000X-0.150000X0.625000X0.150000X-0.625000X0.150000X-0.625000X-0.150000X0*%
%ADD16RoundRect,0.250000X0.650000X-0.350000X0.650000X0.350000X-0.650000X0.350000X-0.650000X-0.350000X0*%
%ADD17RoundRect,0.200000X0.275000X-0.200000X0.275000X0.200000X-0.275000X0.200000X-0.275000X-0.200000X0*%
%ADD18R,1.700000X1.700000*%
%ADD19RoundRect,0.250000X-0.475000X0.250000X-0.475000X-0.250000X0.475000X-0.250000X0.475000X0.250000X0*%
%ADD20R,1.100000X1.800000*%
%ADD21RoundRect,0.250000X-0.250000X-0.475000X0.250000X-0.475000X0.250000X0.475000X-0.250000X0.475000X0*%
%ADD22R,0.900000X1.500000*%
%ADD23R,1.500000X0.900000*%
%ADD24C,0.600000*%
%ADD25R,3.900000X3.900000*%
%ADD26RoundRect,0.250000X0.450000X-0.262500X0.450000X0.262500X-0.450000X0.262500X-0.450000X-0.262500X0*%
%ADD27RoundRect,0.200000X0.200000X0.275000X-0.200000X0.275000X-0.200000X-0.275000X0.200000X-0.275000X0*%
%ADD28RoundRect,0.250000X0.550000X-1.500000X0.550000X1.500000X-0.550000X1.500000X-0.550000X-1.500000X0*%
%ADD29RoundRect,0.150000X-0.587500X-0.150000X0.587500X-0.150000X0.587500X0.150000X-0.587500X0.150000X0*%
%ADD30RoundRect,0.150000X-0.150000X-0.625000X0.150000X-0.625000X0.150000X0.625000X-0.150000X0.625000X0*%
%ADD31RoundRect,0.250000X-0.350000X-0.650000X0.350000X-0.650000X0.350000X0.650000X-0.350000X0.650000X0*%
%ADD32C,0.650000*%
%ADD33O,2.304000X1.204000*%
%ADD34O,2.004000X1.204000*%
%ADD35O,1.700000X1.700000*%
%ADD36RoundRect,0.250000X-0.450000X0.262500X-0.450000X-0.262500X0.450000X-0.262500X0.450000X0.262500X0*%
%ADD37RoundRect,0.200000X-0.275000X0.200000X-0.275000X-0.200000X0.275000X-0.200000X0.275000X0.200000X0*%
%ADD38C,1.000000*%
%ADD39RoundRect,0.102000X0.800000X-0.350000X0.800000X0.350000X-0.800000X0.350000X-0.800000X-0.350000X0*%
%ADD40RoundRect,0.102000X1.200000X-0.600000X1.200000X0.600000X-1.200000X0.600000X-1.200000X-0.600000X0*%
%ADD41RoundRect,0.102000X0.750000X-0.800000X0.750000X0.800000X-0.750000X0.800000X-0.750000X-0.800000X0*%
%ADD42RoundRect,0.102000X1.100000X-0.600000X1.100000X0.600000X-1.100000X0.600000X-1.100000X-0.600000X0*%
%ADD43RoundRect,0.060500X-0.776500X-0.181500X0.776500X-0.181500X0.776500X0.181500X-0.776500X0.181500X0*%
%ADD44RoundRect,0.150000X0.150000X0.625000X-0.150000X0.625000X-0.150000X-0.625000X0.150000X-0.625000X0*%
%ADD45RoundRect,0.250000X0.350000X0.650000X-0.350000X0.650000X-0.350000X-0.650000X0.350000X-0.650000X0*%
G04 APERTURE END LIST*
D10*
%TO.C,USBC1*%
X177470000Y-77250000D02*
X176220000Y-77250000D01*
X176220000Y-76550000D01*
X177470000Y-76550000D01*
X177470000Y-77250000D01*
G36*
X177470000Y-77250000D02*
G01*
X176220000Y-77250000D01*
X176220000Y-76550000D01*
X177470000Y-76550000D01*
X177470000Y-77250000D01*
G37*
X177470000Y-78050000D02*
X176220000Y-78050000D01*
X176220000Y-77350000D01*
X177470000Y-77350000D01*
X177470000Y-78050000D01*
G36*
X177470000Y-78050000D02*
G01*
X176220000Y-78050000D01*
X176220000Y-77350000D01*
X177470000Y-77350000D01*
X177470000Y-78050000D01*
G37*
X177470000Y-78550000D02*
X176220000Y-78550000D01*
X176220000Y-78150000D01*
X177470000Y-78150000D01*
X177470000Y-78550000D01*
G36*
X177470000Y-78550000D02*
G01*
X176220000Y-78550000D01*
X176220000Y-78150000D01*
X177470000Y-78150000D01*
X177470000Y-78550000D01*
G37*
X177470000Y-79050000D02*
X176220000Y-79050000D01*
X176220000Y-78650000D01*
X177470000Y-78650000D01*
X177470000Y-79050000D01*
G36*
X177470000Y-79050000D02*
G01*
X176220000Y-79050000D01*
X176220000Y-78650000D01*
X177470000Y-78650000D01*
X177470000Y-79050000D01*
G37*
X177470000Y-79550000D02*
X176220000Y-79550000D01*
X176220000Y-79150000D01*
X177470000Y-79150000D01*
X177470000Y-79550000D01*
G36*
X177470000Y-79550000D02*
G01*
X176220000Y-79550000D01*
X176220000Y-79150000D01*
X177470000Y-79150000D01*
X177470000Y-79550000D01*
G37*
X177470000Y-80050000D02*
X176220000Y-80050000D01*
X176220000Y-79650000D01*
X177470000Y-79650000D01*
X177470000Y-80050000D01*
G36*
X177470000Y-80050000D02*
G01*
X176220000Y-80050000D01*
X176220000Y-79650000D01*
X177470000Y-79650000D01*
X177470000Y-80050000D01*
G37*
X177470000Y-80550000D02*
X176220000Y-80550000D01*
X176220000Y-80150000D01*
X177470000Y-80150000D01*
X177470000Y-80550000D01*
G36*
X177470000Y-80550000D02*
G01*
X176220000Y-80550000D01*
X176220000Y-80150000D01*
X177470000Y-80150000D01*
X177470000Y-80550000D01*
G37*
X177470000Y-81050000D02*
X176220000Y-81050000D01*
X176220000Y-80650000D01*
X177470000Y-80650000D01*
X177470000Y-81050000D01*
G36*
X177470000Y-81050000D02*
G01*
X176220000Y-81050000D01*
X176220000Y-80650000D01*
X177470000Y-80650000D01*
X177470000Y-81050000D01*
G37*
X177470000Y-81550000D02*
X176220000Y-81550000D01*
X176220000Y-81150000D01*
X177470000Y-81150000D01*
X177470000Y-81550000D01*
G36*
X177470000Y-81550000D02*
G01*
X176220000Y-81550000D01*
X176220000Y-81150000D01*
X177470000Y-81150000D01*
X177470000Y-81550000D01*
G37*
X177470000Y-82050000D02*
X176220000Y-82050000D01*
X176220000Y-81650000D01*
X177470000Y-81650000D01*
X177470000Y-82050000D01*
G36*
X177470000Y-82050000D02*
G01*
X176220000Y-82050000D01*
X176220000Y-81650000D01*
X177470000Y-81650000D01*
X177470000Y-82050000D01*
G37*
X177470000Y-82850000D02*
X176220000Y-82850000D01*
X176220000Y-82150000D01*
X177470000Y-82150000D01*
X177470000Y-82850000D01*
G36*
X177470000Y-82850000D02*
G01*
X176220000Y-82850000D01*
X176220000Y-82150000D01*
X177470000Y-82150000D01*
X177470000Y-82850000D01*
G37*
X177470000Y-83650000D02*
X176220000Y-83650000D01*
X176220000Y-82950000D01*
X177470000Y-82950000D01*
X177470000Y-83650000D01*
G36*
X177470000Y-83650000D02*
G01*
X176220000Y-83650000D01*
X176220000Y-82950000D01*
X177470000Y-82950000D01*
X177470000Y-83650000D01*
G37*
%TD*%
D11*
%TO.C,Speed1*%
X146475000Y-109900000D03*
X146475000Y-110900000D03*
D12*
X149000000Y-108600000D03*
X149000000Y-112200000D03*
%TD*%
D13*
%TO.C,Rrpm2*%
X146575000Y-88300000D03*
X148225000Y-88300000D03*
%TD*%
D14*
%TO.C,Cen1*%
X183400000Y-91750000D03*
X183400000Y-89850000D03*
%TD*%
D13*
%TO.C,Resp1*%
X179425000Y-89850000D03*
X181075000Y-89850000D03*
%TD*%
D15*
%TO.C,TEMP_S1*%
X150225000Y-96600000D03*
X150225000Y-95600000D03*
X150225000Y-94600000D03*
D16*
X147700000Y-97900000D03*
X147700000Y-93300000D03*
%TD*%
D17*
%TO.C,Rspd2*%
X161700000Y-104825000D03*
X161700000Y-103175000D03*
%TD*%
D18*
%TO.C,Vcc1*%
X179200000Y-121800000D03*
%TD*%
D11*
%TO.C,gauges1*%
X146475000Y-101700000D03*
X146475000Y-102700000D03*
X146475000Y-103700000D03*
D12*
X149000000Y-100400000D03*
X149000000Y-105000000D03*
%TD*%
D18*
%TO.C,RPM1*%
X147700000Y-84000000D03*
%TD*%
D19*
%TO.C,Cshld1*%
X161100000Y-58350000D03*
X161100000Y-60250000D03*
%TD*%
D20*
%TO.C,ESP_BOOT1*%
X156700000Y-98650000D03*
X160300000Y-98650000D03*
%TD*%
D17*
%TO.C,Rrind1*%
X176100000Y-107525000D03*
X176100000Y-105875000D03*
%TD*%
D21*
%TO.C,Cesp1*%
X179600000Y-94800000D03*
X181500000Y-94800000D03*
%TD*%
D22*
%TO.C,ESP1*%
X173420000Y-78400000D03*
X172150000Y-78400000D03*
X170880000Y-78400000D03*
X169610000Y-78400000D03*
X168340000Y-78400000D03*
X167070000Y-78400000D03*
X165800000Y-78400000D03*
X164530000Y-78400000D03*
X163260000Y-78400000D03*
X161990000Y-78400000D03*
X160720000Y-78400000D03*
X159450000Y-78400000D03*
X158180000Y-78400000D03*
X156910000Y-78400000D03*
D23*
X155660000Y-80165000D03*
X155660000Y-81435000D03*
X155660000Y-82705000D03*
X155660000Y-83975000D03*
X155660000Y-85245000D03*
X155660000Y-86515000D03*
X155660000Y-87785000D03*
X155660000Y-89055000D03*
X155660000Y-90325000D03*
X155660000Y-91595000D03*
X155660000Y-92865000D03*
X155660000Y-94135000D03*
D22*
X156910000Y-95900000D03*
X158180000Y-95900000D03*
X159450000Y-95900000D03*
X160720000Y-95900000D03*
X161990000Y-95900000D03*
X163260000Y-95900000D03*
X164530000Y-95900000D03*
X165800000Y-95900000D03*
X167070000Y-95900000D03*
X168340000Y-95900000D03*
X169610000Y-95900000D03*
X170880000Y-95900000D03*
X172150000Y-95900000D03*
X173420000Y-95900000D03*
D24*
X166400000Y-84250000D03*
X165000000Y-84250000D03*
X167100000Y-84950000D03*
X165700000Y-84950000D03*
X164300000Y-84950000D03*
X166400000Y-85650000D03*
D25*
X165700000Y-85650000D03*
D24*
X165000000Y-85650000D03*
X167100000Y-86350000D03*
X165700000Y-86350000D03*
X164300000Y-86350000D03*
X166400000Y-87050000D03*
X165000000Y-87050000D03*
%TD*%
D17*
%TO.C,Rlind1*%
X177300000Y-112325000D03*
X177300000Y-110675000D03*
%TD*%
D26*
%TO.C,R2*%
X151600000Y-107400000D03*
X151600000Y-105575000D03*
%TD*%
D27*
%TO.C,Rwtr1*%
X154925000Y-104300000D03*
X153275000Y-104300000D03*
%TD*%
D28*
%TO.C,Cout2*%
X169900000Y-124400000D03*
X169900000Y-118800000D03*
%TD*%
D29*
%TO.C,Qfan1*%
X181275000Y-100950000D03*
X181275000Y-102850000D03*
X183150000Y-101900000D03*
%TD*%
D30*
%TO.C,Indics1*%
X180600000Y-115900000D03*
X181600000Y-115900000D03*
D31*
X179300000Y-113375000D03*
X182900000Y-113375000D03*
%TD*%
D14*
%TO.C,Cmax1*%
X151600000Y-110950000D03*
X151600000Y-109050000D03*
%TD*%
D13*
%TO.C,Rup1*%
X161075000Y-109400000D03*
X162725000Y-109400000D03*
%TD*%
D29*
%TO.C,TEMP_S2*%
X164362500Y-101750000D03*
X164362500Y-103650000D03*
X166237500Y-102700000D03*
%TD*%
D27*
%TO.C,Roil1*%
X154925000Y-102700000D03*
X153275000Y-102700000D03*
%TD*%
%TO.C,Rfuel1*%
X154925000Y-101100000D03*
X153275000Y-101100000D03*
%TD*%
D32*
%TO.C,USBC1*%
X177920000Y-82990000D03*
X177920000Y-77210000D03*
D33*
X177420000Y-84420000D03*
X177420000Y-75780000D03*
D34*
X181600000Y-84420000D03*
X181600000Y-75780000D03*
%TD*%
D18*
%TO.C,Buttons1*%
X176900000Y-87920000D03*
D35*
X176900000Y-90460000D03*
X176900000Y-93000000D03*
X176900000Y-95540000D03*
X176900000Y-98080000D03*
X176900000Y-100620000D03*
%TD*%
D13*
%TO.C,Rspd1*%
X161075000Y-107800000D03*
X162725000Y-107800000D03*
%TD*%
D11*
%TO.C,SPI2*%
X146575000Y-60500000D03*
X146575000Y-61500000D03*
X146575000Y-62500000D03*
X146575000Y-63500000D03*
X146575000Y-64500000D03*
X146575000Y-65500000D03*
X146575000Y-66500000D03*
X146575000Y-67500000D03*
D12*
X149100000Y-59200000D03*
X149100000Y-68800000D03*
%TD*%
D36*
%TO.C,R1*%
X151600000Y-112575000D03*
X151600000Y-114400000D03*
%TD*%
D21*
%TO.C,Cesp2*%
X179600000Y-92700000D03*
X181500000Y-92700000D03*
%TD*%
D20*
%TO.C,ESP_RST1*%
X183470900Y-87230400D03*
X179870900Y-87230400D03*
%TD*%
D17*
%TO.C,Rlind2*%
X174300000Y-110925000D03*
X174300000Y-109275000D03*
%TD*%
D37*
%TO.C,Rboot1*%
X153050000Y-97825000D03*
X153050000Y-99475000D03*
%TD*%
D11*
%TO.C,SPI1*%
X146575000Y-72400000D03*
X146575000Y-73400000D03*
X146575000Y-74400000D03*
X146575000Y-75400000D03*
X146575000Y-76400000D03*
X146575000Y-77400000D03*
X146575000Y-78400000D03*
X146575000Y-79400000D03*
D12*
X149100000Y-71100000D03*
X149100000Y-80700000D03*
%TD*%
D38*
%TO.C,SD1*%
X174350000Y-71150000D03*
X174350000Y-63150000D03*
D39*
X163350000Y-63950000D03*
X163350000Y-65050000D03*
X163350000Y-66150000D03*
X163350000Y-67250000D03*
X163350000Y-68350000D03*
X163350000Y-69450000D03*
X163350000Y-70550000D03*
X163350000Y-71650000D03*
X163350000Y-72750000D03*
D40*
X164350000Y-73950000D03*
D41*
X164400000Y-59350000D03*
D42*
X173950000Y-73950000D03*
X173950000Y-58450000D03*
%TD*%
D13*
%TO.C,Rfbt1*%
X163375000Y-118300000D03*
X165025000Y-118300000D03*
%TD*%
D18*
%TO.C,GND1*%
X175500000Y-121800000D03*
%TD*%
D43*
%TO.C,VRCond1*%
X154680000Y-106800000D03*
X154680000Y-107300000D03*
X154680000Y-107800000D03*
X154680000Y-108300000D03*
X154680000Y-108800000D03*
X158980000Y-108800000D03*
X158980000Y-108300000D03*
X158980000Y-107800000D03*
X158980000Y-107300000D03*
X158980000Y-106800000D03*
%TD*%
D44*
%TO.C,Fan1*%
X181500000Y-105175000D03*
X180500000Y-105175000D03*
D45*
X182800000Y-107700000D03*
X179200000Y-107700000D03*
%TD*%
D13*
%TO.C,Rfbb1*%
X163375000Y-116300000D03*
X165025000Y-116300000D03*
%TD*%
D17*
%TO.C,Rrind2*%
X173200000Y-107525000D03*
X173200000Y-105875000D03*
%TD*%
D11*
%TO.C,SPI3*%
X153175000Y-60500000D03*
X153175000Y-61500000D03*
X153175000Y-62500000D03*
X153175000Y-63500000D03*
X153175000Y-64500000D03*
X153175000Y-65500000D03*
X153175000Y-66500000D03*
X153175000Y-67500000D03*
D12*
X155700000Y-59200000D03*
X155700000Y-68800000D03*
%TD*%
D27*
%TO.C,Rrpm1*%
X148225000Y-86700000D03*
X146575000Y-86700000D03*
%TD*%
M02*
