%TF.GenerationSoftware,KiCad,Pcbnew,8.0.2*%
%TF.CreationDate,2024-08-05T00:03:35+02:00*%
%TF.ProjectId,Leiterkarte-v2,4c656974-6572-46b6-9172-74652d76322e,rev?*%
%TF.SameCoordinates,Original*%
%TF.FileFunction,Soldermask,Top*%
%TF.FilePolarity,Negative*%
%FSLAX46Y46*%
G04 Gerber Fmt 4.6, Leading zero omitted, Abs format (unit mm)*
G04 Created by KiCad (PCBNEW 8.0.2) date 2024-08-05 00:03:35*
%MOMM*%
%LPD*%
G01*
G04 APERTURE LIST*
G04 Aperture macros list*
%AMRoundRect*
0 Rectangle with rounded corners*
0 $1 Rounding radius*
0 $2 $3 $4 $5 $6 $7 $8 $9 X,Y pos of 4 corners*
0 Add a 4 corners polygon primitive as box body*
4,1,4,$2,$3,$4,$5,$6,$7,$8,$9,$2,$3,0*
0 Add four circle primitives for the rounded corners*
1,1,$1+$1,$2,$3*
1,1,$1+$1,$4,$5*
1,1,$1+$1,$6,$7*
1,1,$1+$1,$8,$9*
0 Add four rect primitives between the rounded corners*
20,1,$1+$1,$2,$3,$4,$5,0*
20,1,$1+$1,$4,$5,$6,$7,0*
20,1,$1+$1,$6,$7,$8,$9,0*
20,1,$1+$1,$8,$9,$2,$3,0*%
G04 Aperture macros list end*
%ADD10RoundRect,0.250000X-0.262500X-0.450000X0.262500X-0.450000X0.262500X0.450000X-0.262500X0.450000X0*%
%ADD11RoundRect,0.250002X-1.499998X-1.499998X1.499998X-1.499998X1.499998X1.499998X-1.499998X1.499998X0*%
%ADD12R,1.700000X1.700000*%
%ADD13RoundRect,0.075000X-0.725000X-0.075000X0.725000X-0.075000X0.725000X0.075000X-0.725000X0.075000X0*%
%ADD14RoundRect,0.075000X-0.075000X-0.725000X0.075000X-0.725000X0.075000X0.725000X-0.075000X0.725000X0*%
%ADD15RoundRect,0.250000X-0.325000X-1.100000X0.325000X-1.100000X0.325000X1.100000X-0.325000X1.100000X0*%
%ADD16RoundRect,0.243750X-0.243750X-0.456250X0.243750X-0.456250X0.243750X0.456250X-0.243750X0.456250X0*%
%ADD17RoundRect,0.100000X-0.225000X-0.100000X0.225000X-0.100000X0.225000X0.100000X-0.225000X0.100000X0*%
%ADD18RoundRect,0.060500X-0.776500X-0.181500X0.776500X-0.181500X0.776500X0.181500X-0.776500X0.181500X0*%
%ADD19RoundRect,0.250000X2.050000X0.300000X-2.050000X0.300000X-2.050000X-0.300000X2.050000X-0.300000X0*%
%ADD20RoundRect,0.250002X4.449998X5.149998X-4.449998X5.149998X-4.449998X-5.149998X4.449998X-5.149998X0*%
%ADD21RoundRect,0.218750X-0.218750X-0.256250X0.218750X-0.256250X0.218750X0.256250X-0.218750X0.256250X0*%
%ADD22R,1.500000X0.800000*%
%ADD23R,2.000000X1.450000*%
%ADD24RoundRect,0.250000X-0.375000X-0.625000X0.375000X-0.625000X0.375000X0.625000X-0.375000X0.625000X0*%
G04 APERTURE END LIST*
D10*
%TO.C,R5*%
X83357500Y-50000000D03*
X85182500Y-50000000D03*
%TD*%
D11*
%TO.C,GND_1*%
X167750000Y-28500000D03*
%TD*%
D12*
%TO.C,VCC_SPI_2*%
X182750000Y-28500000D03*
%TD*%
%TO.C,SCK_SPI3*%
X186500000Y-39750000D03*
%TD*%
%TO.C,GND_SPI_2*%
X182750000Y-32250000D03*
%TD*%
%TO.C,RPM1*%
X79740000Y-31350000D03*
%TD*%
D10*
%TO.C,R10*%
X87767500Y-50000000D03*
X89592500Y-50000000D03*
%TD*%
%TO.C,R2*%
X83357500Y-41150000D03*
X85182500Y-41150000D03*
%TD*%
%TO.C,UP1*%
X92177500Y-47050000D03*
X94002500Y-47050000D03*
%TD*%
D13*
%TO.C,U1*%
X132650000Y-42000000D03*
X132650000Y-42500000D03*
X132650000Y-43000000D03*
X132650000Y-43500000D03*
X132650000Y-44000000D03*
X132650000Y-44500000D03*
X132650000Y-45000000D03*
X132650000Y-45500000D03*
X132650000Y-46000000D03*
X132650000Y-46500000D03*
X132650000Y-47000000D03*
X132650000Y-47500000D03*
X132650000Y-48000000D03*
X132650000Y-48500000D03*
X132650000Y-49000000D03*
X132650000Y-49500000D03*
X132650000Y-50000000D03*
X132650000Y-50500000D03*
X132650000Y-51000000D03*
X132650000Y-51500000D03*
X132650000Y-52000000D03*
X132650000Y-52500000D03*
X132650000Y-53000000D03*
X132650000Y-53500000D03*
X132650000Y-54000000D03*
D14*
X134325000Y-55675000D03*
X134825000Y-55675000D03*
X135325000Y-55675000D03*
X135825000Y-55675000D03*
X136325000Y-55675000D03*
X136825000Y-55675000D03*
X137325000Y-55675000D03*
X137825000Y-55675000D03*
X138325000Y-55675000D03*
X138825000Y-55675000D03*
X139325000Y-55675000D03*
X139825000Y-55675000D03*
X140325000Y-55675000D03*
X140825000Y-55675000D03*
X141325000Y-55675000D03*
X141825000Y-55675000D03*
X142325000Y-55675000D03*
X142825000Y-55675000D03*
X143325000Y-55675000D03*
X143825000Y-55675000D03*
X144325000Y-55675000D03*
X144825000Y-55675000D03*
X145325000Y-55675000D03*
X145825000Y-55675000D03*
X146325000Y-55675000D03*
D13*
X148000000Y-54000000D03*
X148000000Y-53500000D03*
X148000000Y-53000000D03*
X148000000Y-52500000D03*
X148000000Y-52000000D03*
X148000000Y-51500000D03*
X148000000Y-51000000D03*
X148000000Y-50500000D03*
X148000000Y-50000000D03*
X148000000Y-49500000D03*
X148000000Y-49000000D03*
X148000000Y-48500000D03*
X148000000Y-48000000D03*
X148000000Y-47500000D03*
X148000000Y-47000000D03*
X148000000Y-46500000D03*
X148000000Y-46000000D03*
X148000000Y-45500000D03*
X148000000Y-45000000D03*
X148000000Y-44500000D03*
X148000000Y-44000000D03*
X148000000Y-43500000D03*
X148000000Y-43000000D03*
X148000000Y-42500000D03*
X148000000Y-42000000D03*
D14*
X146325000Y-40325000D03*
X145825000Y-40325000D03*
X145325000Y-40325000D03*
X144825000Y-40325000D03*
X144325000Y-40325000D03*
X143825000Y-40325000D03*
X143325000Y-40325000D03*
X142825000Y-40325000D03*
X142325000Y-40325000D03*
X141825000Y-40325000D03*
X141325000Y-40325000D03*
X140825000Y-40325000D03*
X140325000Y-40325000D03*
X139825000Y-40325000D03*
X139325000Y-40325000D03*
X138825000Y-40325000D03*
X138325000Y-40325000D03*
X137825000Y-40325000D03*
X137325000Y-40325000D03*
X136825000Y-40325000D03*
X136325000Y-40325000D03*
X135825000Y-40325000D03*
X135325000Y-40325000D03*
X134825000Y-40325000D03*
X134325000Y-40325000D03*
%TD*%
D10*
%TO.C,R3*%
X83357500Y-44100000D03*
X85182500Y-44100000D03*
%TD*%
D12*
%TO.C,Speed-1*%
X79740000Y-40650000D03*
%TD*%
D15*
%TO.C,Cout_1*%
X96645000Y-51600000D03*
X99595000Y-51600000D03*
%TD*%
D16*
%TO.C,D4*%
X102252500Y-47365000D03*
X104127500Y-47365000D03*
%TD*%
D12*
%TO.C,VCC_SPI_1*%
X179000000Y-28500000D03*
%TD*%
%TO.C,RST_SPI2*%
X182750000Y-51000000D03*
%TD*%
D10*
%TO.C,R1*%
X83357500Y-38200000D03*
X85182500Y-38200000D03*
%TD*%
D17*
%TO.C,U4*%
X73940000Y-52265000D03*
X73940000Y-52915000D03*
X73940000Y-53565000D03*
X75840000Y-53565000D03*
X75840000Y-52915000D03*
X75840000Y-52265000D03*
%TD*%
D12*
%TO.C,LINDIC1*%
X75090000Y-40650000D03*
%TD*%
%TO.C,RST_SPI3*%
X186500000Y-51000000D03*
%TD*%
%TO.C,Oil1*%
X75090000Y-45300000D03*
%TD*%
%TO.C,SCK_SPI1*%
X179000000Y-39750000D03*
%TD*%
%TO.C,BL_SPI1*%
X179000000Y-54750000D03*
%TD*%
%TO.C,Fan-1*%
X75090000Y-31350000D03*
%TD*%
D10*
%TO.C,BOOT0_R1*%
X40617500Y-58400000D03*
X42442500Y-58400000D03*
%TD*%
D15*
%TO.C,MAX_IN1*%
X96645000Y-55850000D03*
X99595000Y-55850000D03*
%TD*%
D12*
%TO.C,CS_SPI3*%
X186500000Y-43500000D03*
%TD*%
D10*
%TO.C,R8*%
X87767500Y-44100000D03*
X89592500Y-44100000D03*
%TD*%
D12*
%TO.C,SW33V1*%
X120000000Y-66000000D03*
%TD*%
D10*
%TO.C,R12*%
X92177500Y-41150000D03*
X94002500Y-41150000D03*
%TD*%
%TO.C,R7*%
X87767500Y-41150000D03*
X89592500Y-41150000D03*
%TD*%
D12*
%TO.C,SCK_SPI2*%
X182750000Y-39750000D03*
%TD*%
D18*
%TO.C,U2*%
X84235000Y-52775000D03*
X84235000Y-53275000D03*
X84235000Y-53775000D03*
X84235000Y-54275000D03*
X84235000Y-54775000D03*
X88535000Y-54775000D03*
X88535000Y-54275000D03*
X88535000Y-53775000D03*
X88535000Y-53275000D03*
X88535000Y-52775000D03*
%TD*%
D12*
%TO.C,BL_SPI3*%
X186500000Y-54750000D03*
%TD*%
%TO.C,Fan+1*%
X75090000Y-26700000D03*
%TD*%
D16*
%TO.C,D3*%
X102252500Y-44325000D03*
X104127500Y-44325000D03*
%TD*%
D10*
%TO.C,R13*%
X92177500Y-44100000D03*
X94002500Y-44100000D03*
%TD*%
D19*
%TO.C,U3*%
X104225000Y-27625000D03*
X104225000Y-25925000D03*
X104225000Y-24225000D03*
D20*
X95075000Y-24225000D03*
D19*
X104225000Y-22525000D03*
X104225000Y-20825000D03*
%TD*%
D12*
%TO.C,DC_SPI2*%
X182750000Y-47250000D03*
%TD*%
D15*
%TO.C,SD_SHIELD_C1*%
X35025000Y-63300000D03*
X37975000Y-63300000D03*
%TD*%
D12*
%TO.C,MOSI_SPI3*%
X186500000Y-36000000D03*
%TD*%
%TO.C,VCC_SPI_3*%
X186500000Y-28500000D03*
%TD*%
D15*
%TO.C,NRST_C1*%
X35025000Y-59050000D03*
X37975000Y-59050000D03*
%TD*%
%TO.C,BCC2*%
X96645000Y-43100000D03*
X99595000Y-43100000D03*
%TD*%
D11*
%TO.C,VIN_1*%
X162500000Y-28500000D03*
%TD*%
D12*
%TO.C,SWDIO1*%
X124000000Y-67000000D03*
%TD*%
%TO.C,Speed+1*%
X79740000Y-36000000D03*
%TD*%
D15*
%TO.C,BCC1*%
X96645000Y-38850000D03*
X99595000Y-38850000D03*
%TD*%
D12*
%TO.C,DC_SPI3*%
X186500000Y-47250000D03*
%TD*%
%TO.C,CS_SPI2*%
X182750000Y-43500000D03*
%TD*%
%TO.C,CS_SPI1*%
X179000000Y-43500000D03*
%TD*%
D10*
%TO.C,R6*%
X87767500Y-38200000D03*
X89592500Y-38200000D03*
%TD*%
D12*
%TO.C,MOSI_SPI2*%
X182750000Y-36000000D03*
%TD*%
D21*
%TO.C,L3*%
X91262500Y-55240000D03*
X92837500Y-55240000D03*
%TD*%
D12*
%TO.C,BL_SPI2*%
X182750000Y-54750000D03*
%TD*%
D10*
%TO.C,R11*%
X92177500Y-38200000D03*
X94002500Y-38200000D03*
%TD*%
D12*
%TO.C,GND_SPI_1*%
X179000000Y-32250000D03*
%TD*%
%TO.C,GND_SPI_3*%
X186500000Y-32250000D03*
%TD*%
D10*
%TO.C,R4*%
X83357500Y-47050000D03*
X85182500Y-47050000D03*
%TD*%
D12*
%TO.C,SWCLK1*%
X119000000Y-72000000D03*
%TD*%
D22*
%TO.C,J1*%
X185400000Y-61550000D03*
X185400000Y-62650000D03*
X185400000Y-63750000D03*
X185400000Y-64850000D03*
X185400000Y-65950000D03*
X185400000Y-67050000D03*
X185400000Y-68150000D03*
X185400000Y-69250000D03*
D23*
X188000000Y-57875000D03*
X179700000Y-57875000D03*
X188000000Y-71625000D03*
X179700000Y-71625000D03*
%TD*%
D24*
%TO.C,F1*%
X74170000Y-49270000D03*
X76970000Y-49270000D03*
%TD*%
D12*
%TO.C,RST_SPI1*%
X179000000Y-51000000D03*
%TD*%
D21*
%TO.C,L1*%
X91262500Y-52730000D03*
X92837500Y-52730000D03*
%TD*%
D10*
%TO.C,R9*%
X87767500Y-47050000D03*
X89592500Y-47050000D03*
%TD*%
D12*
%TO.C,SWGND1*%
X124000000Y-72000000D03*
%TD*%
%TO.C,Fuel1*%
X75090000Y-36000000D03*
%TD*%
%TO.C,MOSI_SPI1*%
X179000000Y-36000000D03*
%TD*%
%TO.C,DC_SPI1*%
X179000000Y-47250000D03*
%TD*%
D15*
%TO.C,Cin_1*%
X96645000Y-47350000D03*
X99595000Y-47350000D03*
%TD*%
D16*
%TO.C,D2*%
X102252500Y-41285000D03*
X104127500Y-41285000D03*
%TD*%
%TO.C,D1*%
X102252500Y-38245000D03*
X104127500Y-38245000D03*
%TD*%
D12*
%TO.C,RINDIC2*%
X79740000Y-26700000D03*
%TD*%
%TO.C,Temp1*%
X79740000Y-45300000D03*
%TD*%
M02*
