%TF.GenerationSoftware,KiCad,Pcbnew,8.0.5*%
%TF.CreationDate,2024-09-23T19:59:45+02:00*%
%TF.ProjectId,Leiterkarte-v2,4c656974-6572-46b6-9172-74652d76322e,rev?*%
%TF.SameCoordinates,Original*%
%TF.FileFunction,Copper,L2,Inr*%
%TF.FilePolarity,Positive*%
%FSLAX46Y46*%
G04 Gerber Fmt 4.6, Leading zero omitted, Abs format (unit mm)*
G04 Created by KiCad (PCBNEW 8.0.5) date 2024-09-23 19:59:45*
%MOMM*%
%LPD*%
G01*
G04 APERTURE LIST*
%TA.AperFunction,ComponentPad*%
%ADD10R,1.700000X1.700000*%
%TD*%
%TA.AperFunction,ComponentPad*%
%ADD11O,1.700000X1.700000*%
%TD*%
%TA.AperFunction,ComponentPad*%
%ADD12C,0.600000*%
%TD*%
%TA.AperFunction,ViaPad*%
%ADD13C,0.600000*%
%TD*%
G04 APERTURE END LIST*
D10*
%TO.N,SWDIO*%
%TO.C,SWD1*%
X180700000Y-83000000D03*
D11*
%TO.N,SWCLK*%
X180700000Y-85540000D03*
%TO.N,+3.3V*%
X180700000Y-88080000D03*
%TO.N,GND*%
X180700000Y-90620000D03*
%TD*%
D10*
%TO.N,Net-(Vcc1-Pin_1)*%
%TO.C,Vcc1*%
X179200000Y-121800000D03*
%TD*%
%TO.N,Net-(RPM1-Pin_1)*%
%TO.C,RPM1*%
X147700000Y-84000000D03*
%TD*%
%TO.N,+3.3V*%
%TO.C,Buttons1*%
X176900000Y-83000000D03*
D11*
X176900000Y-85540000D03*
X176900000Y-88080000D03*
%TO.N,Button1*%
X176900000Y-90620000D03*
%TO.N,Button2*%
X176900000Y-93160000D03*
%TO.N,Button3*%
X176900000Y-95700000D03*
%TD*%
D10*
%TO.N,GND*%
%TO.C,GND1*%
X175500000Y-121800000D03*
%TD*%
D12*
%TO.N,GND*%
%TO.C,5V1*%
X170600000Y-112800000D03*
X169500000Y-112800000D03*
X168200000Y-112800000D03*
X167000000Y-112800000D03*
X170600000Y-114000000D03*
X169500000Y-114000000D03*
X168200000Y-114000000D03*
X167000000Y-114000000D03*
%TD*%
D13*
%TO.N,GND*%
X183300000Y-90100000D03*
X160000000Y-117800000D03*
X175900000Y-77400000D03*
X156400000Y-91500000D03*
X164400000Y-80000000D03*
X157700000Y-83700000D03*
X159300000Y-57900000D03*
X165900000Y-80000000D03*
X156800000Y-87900000D03*
X161100000Y-62300000D03*
X161700000Y-102200000D03*
X168500000Y-84300000D03*
X152600000Y-73400000D03*
X155700000Y-73600000D03*
X149600000Y-90300000D03*
X167700000Y-103700000D03*
X161700000Y-69500000D03*
X167300000Y-95700000D03*
X155700000Y-97500000D03*
X157700000Y-66600000D03*
X154700000Y-78200000D03*
X163500000Y-89300000D03*
X183300000Y-91200000D03*
X173195789Y-103623544D03*
X160000000Y-116900000D03*
X174500000Y-113100000D03*
X163400000Y-93100000D03*
X169900000Y-121400000D03*
X156600000Y-75300000D03*
X183300000Y-92200000D03*
X157500000Y-110100000D03*
X160000000Y-116000000D03*
X175500000Y-109300000D03*
X146600000Y-89400000D03*
X175815613Y-103623544D03*
X156400000Y-110100000D03*
X181800000Y-58400000D03*
X153200000Y-71400000D03*
X151200000Y-64300000D03*
X160000000Y-118700000D03*
X151200000Y-69500000D03*
X159300000Y-58800000D03*
X183200000Y-77400000D03*
X152100000Y-96600000D03*
%TO.N,Net-(5V1-VSENSE)*%
X169900000Y-108700000D03*
%TO.N,+3.3V*%
X161600000Y-67200000D03*
X156600000Y-84100000D03*
X172200000Y-83800000D03*
X158300000Y-88800000D03*
X156200000Y-79500000D03*
X156300000Y-101100000D03*
X153200000Y-93300000D03*
X156300000Y-102700000D03*
X168600000Y-95600000D03*
X154800000Y-98400000D03*
%TO.N,SD_DAT0*%
X174100000Y-81300000D03*
X172500000Y-78000000D03*
X161300000Y-70600000D03*
X172700000Y-88300000D03*
%TO.N,SD_DAT3*%
X163300000Y-77900000D03*
X167200000Y-77900000D03*
%TO.N,SD_DAT1*%
X161900000Y-71600000D03*
X173200000Y-81700000D03*
X173200000Y-79800000D03*
X171900000Y-87700000D03*
%TO.N,SD_DAT2*%
X167900000Y-79000000D03*
X163200000Y-78900000D03*
%TO.N,+5V*%
X157400000Y-120700000D03*
X156500000Y-120700000D03*
X151300000Y-72400000D03*
X168600000Y-102300000D03*
X164100000Y-108500000D03*
X146000000Y-58600000D03*
X158300000Y-120700000D03*
X159000000Y-105700000D03*
X179200000Y-104400000D03*
X145600000Y-119500000D03*
X145600000Y-94600000D03*
%TO.N,CLK*%
X158400000Y-78200000D03*
X162800000Y-84300000D03*
X162800000Y-86400000D03*
X158600000Y-63500000D03*
%TO.N,DIN*%
X159200000Y-62500000D03*
X163100000Y-83500000D03*
X159500000Y-78200000D03*
%TO.N,BL*%
X162000000Y-84400000D03*
X153900000Y-73600000D03*
X157100000Y-70600000D03*
X145300000Y-79400000D03*
X151100000Y-79400000D03*
%TO.N,WTemp*%
X158600000Y-99700000D03*
X153300000Y-105500000D03*
%TO.N,RPM*%
X157100000Y-92400000D03*
X149300000Y-88300000D03*
%TO.N,Speed*%
X160400000Y-100100000D03*
X160100000Y-96100000D03*
%TO.N,CS2*%
X151000000Y-65400000D03*
X161100000Y-80200000D03*
%TO.N,RST2*%
X160100000Y-84200000D03*
X151000000Y-67500000D03*
%TO.N,DC2*%
X151000000Y-66400000D03*
X161000000Y-84000000D03*
%TO.N,SWCLK*%
X168600000Y-80500000D03*
%TO.N,TEMP1*%
X161600000Y-100000000D03*
X157200000Y-95300000D03*
%TO.N,FANCTRL*%
X172200000Y-92800000D03*
X179000000Y-99100000D03*
%TD*%
%TA.AperFunction,Conductor*%
%TO.N,GND*%
G36*
X184142539Y-57019685D02*
G01*
X184188294Y-57072489D01*
X184199500Y-57124000D01*
X184199500Y-125593472D01*
X184179815Y-125660511D01*
X184127011Y-125706266D01*
X184075500Y-125717472D01*
X145024500Y-125717472D01*
X144957461Y-125697787D01*
X144911706Y-125644983D01*
X144900500Y-125593472D01*
X144900500Y-120700000D01*
X155994353Y-120700000D01*
X156014834Y-120842456D01*
X156054930Y-120930252D01*
X156074623Y-120973373D01*
X156168872Y-121082143D01*
X156289947Y-121159953D01*
X156289950Y-121159954D01*
X156289949Y-121159954D01*
X156428036Y-121200499D01*
X156428038Y-121200500D01*
X156428039Y-121200500D01*
X156571962Y-121200500D01*
X156571962Y-121200499D01*
X156710053Y-121159953D01*
X156831128Y-121082143D01*
X156856288Y-121053106D01*
X156915065Y-121015333D01*
X156984935Y-121015333D01*
X157043711Y-121053106D01*
X157068872Y-121082143D01*
X157189947Y-121159953D01*
X157189950Y-121159954D01*
X157189949Y-121159954D01*
X157328036Y-121200499D01*
X157328038Y-121200500D01*
X157328039Y-121200500D01*
X157471962Y-121200500D01*
X157471962Y-121200499D01*
X157610053Y-121159953D01*
X157731128Y-121082143D01*
X157756288Y-121053106D01*
X157815065Y-121015333D01*
X157884935Y-121015333D01*
X157943711Y-121053106D01*
X157968872Y-121082143D01*
X158089947Y-121159953D01*
X158089950Y-121159954D01*
X158089949Y-121159954D01*
X158228036Y-121200499D01*
X158228038Y-121200500D01*
X158228039Y-121200500D01*
X158371962Y-121200500D01*
X158371962Y-121200499D01*
X158510053Y-121159953D01*
X158631128Y-121082143D01*
X158725377Y-120973373D01*
X158757902Y-120902155D01*
X174150000Y-120902155D01*
X174150000Y-121550000D01*
X175066988Y-121550000D01*
X175034075Y-121607007D01*
X175000000Y-121734174D01*
X175000000Y-121865826D01*
X175034075Y-121992993D01*
X175066988Y-122050000D01*
X174150000Y-122050000D01*
X174150000Y-122697844D01*
X174156401Y-122757372D01*
X174156403Y-122757379D01*
X174206645Y-122892086D01*
X174206649Y-122892093D01*
X174292809Y-123007187D01*
X174292812Y-123007190D01*
X174407906Y-123093350D01*
X174407913Y-123093354D01*
X174542620Y-123143596D01*
X174542627Y-123143598D01*
X174602155Y-123149999D01*
X174602172Y-123150000D01*
X175250000Y-123150000D01*
X175250000Y-122233012D01*
X175307007Y-122265925D01*
X175434174Y-122300000D01*
X175565826Y-122300000D01*
X175692993Y-122265925D01*
X175750000Y-122233012D01*
X175750000Y-123150000D01*
X176397828Y-123150000D01*
X176397844Y-123149999D01*
X176457372Y-123143598D01*
X176457379Y-123143596D01*
X176592086Y-123093354D01*
X176592093Y-123093350D01*
X176707187Y-123007190D01*
X176707190Y-123007187D01*
X176793350Y-122892093D01*
X176793354Y-122892086D01*
X176843596Y-122757379D01*
X176843598Y-122757372D01*
X176849999Y-122697844D01*
X176850000Y-122697827D01*
X176850000Y-122050000D01*
X175933012Y-122050000D01*
X175965925Y-121992993D01*
X176000000Y-121865826D01*
X176000000Y-121734174D01*
X175965925Y-121607007D01*
X175933012Y-121550000D01*
X176850000Y-121550000D01*
X176850000Y-120930247D01*
X178149500Y-120930247D01*
X178149500Y-122669752D01*
X178161131Y-122728229D01*
X178161132Y-122728230D01*
X178205447Y-122794552D01*
X178271769Y-122838867D01*
X178271770Y-122838868D01*
X178330247Y-122850499D01*
X178330250Y-122850500D01*
X178330252Y-122850500D01*
X180069750Y-122850500D01*
X180069751Y-122850499D01*
X180084568Y-122847552D01*
X180128229Y-122838868D01*
X180128229Y-122838867D01*
X180128231Y-122838867D01*
X180194552Y-122794552D01*
X180238867Y-122728231D01*
X180238867Y-122728229D01*
X180238868Y-122728229D01*
X180250499Y-122669752D01*
X180250500Y-122669750D01*
X180250500Y-120930249D01*
X180250499Y-120930247D01*
X180238868Y-120871770D01*
X180238867Y-120871769D01*
X180194552Y-120805447D01*
X180128230Y-120761132D01*
X180128229Y-120761131D01*
X180069752Y-120749500D01*
X180069748Y-120749500D01*
X178330252Y-120749500D01*
X178330247Y-120749500D01*
X178271770Y-120761131D01*
X178271769Y-120761132D01*
X178205447Y-120805447D01*
X178161132Y-120871769D01*
X178161131Y-120871770D01*
X178149500Y-120930247D01*
X176850000Y-120930247D01*
X176850000Y-120902172D01*
X176849999Y-120902155D01*
X176843598Y-120842627D01*
X176843596Y-120842620D01*
X176793354Y-120707913D01*
X176793350Y-120707906D01*
X176707190Y-120592812D01*
X176707187Y-120592809D01*
X176592093Y-120506649D01*
X176592086Y-120506645D01*
X176457379Y-120456403D01*
X176457372Y-120456401D01*
X176397844Y-120450000D01*
X175750000Y-120450000D01*
X175750000Y-121366988D01*
X175692993Y-121334075D01*
X175565826Y-121300000D01*
X175434174Y-121300000D01*
X175307007Y-121334075D01*
X175250000Y-121366988D01*
X175250000Y-120450000D01*
X174602155Y-120450000D01*
X174542627Y-120456401D01*
X174542620Y-120456403D01*
X174407913Y-120506645D01*
X174407906Y-120506649D01*
X174292812Y-120592809D01*
X174292809Y-120592812D01*
X174206649Y-120707906D01*
X174206645Y-120707913D01*
X174156403Y-120842620D01*
X174156401Y-120842627D01*
X174150000Y-120902155D01*
X158757902Y-120902155D01*
X158785165Y-120842457D01*
X158805647Y-120700000D01*
X158785165Y-120557543D01*
X158725377Y-120426627D01*
X158631128Y-120317857D01*
X158510053Y-120240047D01*
X158510051Y-120240046D01*
X158510049Y-120240045D01*
X158510050Y-120240045D01*
X158371963Y-120199500D01*
X158371961Y-120199500D01*
X158228039Y-120199500D01*
X158228036Y-120199500D01*
X158089949Y-120240045D01*
X157968872Y-120317856D01*
X157943712Y-120346893D01*
X157884933Y-120384667D01*
X157815064Y-120384666D01*
X157756288Y-120346893D01*
X157731127Y-120317856D01*
X157684502Y-120287892D01*
X157610053Y-120240047D01*
X157610051Y-120240046D01*
X157610049Y-120240045D01*
X157610050Y-120240045D01*
X157471963Y-120199500D01*
X157471961Y-120199500D01*
X157328039Y-120199500D01*
X157328036Y-120199500D01*
X157189949Y-120240045D01*
X157068872Y-120317856D01*
X157043712Y-120346893D01*
X156984933Y-120384667D01*
X156915064Y-120384666D01*
X156856288Y-120346893D01*
X156831127Y-120317856D01*
X156784502Y-120287892D01*
X156710053Y-120240047D01*
X156710051Y-120240046D01*
X156710049Y-120240045D01*
X156710050Y-120240045D01*
X156571963Y-120199500D01*
X156571961Y-120199500D01*
X156428039Y-120199500D01*
X156428036Y-120199500D01*
X156289949Y-120240045D01*
X156168873Y-120317856D01*
X156074623Y-120426626D01*
X156074622Y-120426628D01*
X156014834Y-120557543D01*
X155994353Y-120700000D01*
X144900500Y-120700000D01*
X144900500Y-119743146D01*
X144920185Y-119676107D01*
X144972989Y-119630352D01*
X145042147Y-119620408D01*
X145105703Y-119649433D01*
X145137294Y-119691635D01*
X145174620Y-119773369D01*
X145174623Y-119773373D01*
X145268872Y-119882143D01*
X145389947Y-119959953D01*
X145389950Y-119959954D01*
X145389949Y-119959954D01*
X145528036Y-120000499D01*
X145528038Y-120000500D01*
X145528039Y-120000500D01*
X145671962Y-120000500D01*
X145671962Y-120000499D01*
X145810053Y-119959953D01*
X145931128Y-119882143D01*
X146025377Y-119773373D01*
X146085165Y-119642457D01*
X146105647Y-119500000D01*
X146085165Y-119357543D01*
X146025377Y-119226627D01*
X145931128Y-119117857D01*
X145810053Y-119040047D01*
X145810051Y-119040046D01*
X145810049Y-119040045D01*
X145810050Y-119040045D01*
X145671963Y-118999500D01*
X145671961Y-118999500D01*
X145528039Y-118999500D01*
X145528036Y-118999500D01*
X145389949Y-119040045D01*
X145268873Y-119117856D01*
X145174623Y-119226626D01*
X145174622Y-119226628D01*
X145137294Y-119308365D01*
X145091539Y-119361169D01*
X145024500Y-119380853D01*
X144957460Y-119361168D01*
X144911705Y-119308364D01*
X144900500Y-119256853D01*
X144900500Y-114716660D01*
X166636892Y-114716660D01*
X166636892Y-114716661D01*
X166650692Y-114725333D01*
X166650691Y-114725333D01*
X166820861Y-114784878D01*
X166999997Y-114805062D01*
X167000003Y-114805062D01*
X167179138Y-114784878D01*
X167179141Y-114784877D01*
X167349305Y-114725334D01*
X167349306Y-114725334D01*
X167363106Y-114716661D01*
X167363106Y-114716660D01*
X167836892Y-114716660D01*
X167836892Y-114716661D01*
X167850692Y-114725333D01*
X167850691Y-114725333D01*
X168020861Y-114784878D01*
X168199997Y-114805062D01*
X168200003Y-114805062D01*
X168379138Y-114784878D01*
X168379141Y-114784877D01*
X168549305Y-114725334D01*
X168549306Y-114725334D01*
X168563106Y-114716661D01*
X168563106Y-114716660D01*
X169136892Y-114716660D01*
X169136892Y-114716661D01*
X169150692Y-114725333D01*
X169150691Y-114725333D01*
X169320861Y-114784878D01*
X169499997Y-114805062D01*
X169500003Y-114805062D01*
X169679138Y-114784878D01*
X169679141Y-114784877D01*
X169849305Y-114725334D01*
X169849306Y-114725334D01*
X169863106Y-114716661D01*
X169863106Y-114716660D01*
X170236892Y-114716660D01*
X170236892Y-114716661D01*
X170250692Y-114725333D01*
X170250691Y-114725333D01*
X170420861Y-114784878D01*
X170599997Y-114805062D01*
X170600003Y-114805062D01*
X170779138Y-114784878D01*
X170779141Y-114784877D01*
X170949305Y-114725334D01*
X170949306Y-114725334D01*
X170963106Y-114716661D01*
X170963106Y-114716660D01*
X170600001Y-114353553D01*
X170600000Y-114353553D01*
X170236892Y-114716660D01*
X169863106Y-114716660D01*
X169500001Y-114353553D01*
X169500000Y-114353553D01*
X169136892Y-114716660D01*
X168563106Y-114716660D01*
X168200001Y-114353553D01*
X168200000Y-114353553D01*
X167836892Y-114716660D01*
X167363106Y-114716660D01*
X167000001Y-114353553D01*
X167000000Y-114353553D01*
X166636892Y-114716660D01*
X144900500Y-114716660D01*
X144900500Y-113999997D01*
X166194938Y-113999997D01*
X166194938Y-114000002D01*
X166215121Y-114179138D01*
X166274665Y-114349304D01*
X166283338Y-114363107D01*
X166646446Y-114000000D01*
X166646446Y-113999999D01*
X166616610Y-113970163D01*
X166850000Y-113970163D01*
X166850000Y-114029837D01*
X166872836Y-114084968D01*
X166915032Y-114127164D01*
X166970163Y-114150000D01*
X167029837Y-114150000D01*
X167084968Y-114127164D01*
X167127164Y-114084968D01*
X167150000Y-114029837D01*
X167150000Y-113970163D01*
X167127164Y-113915032D01*
X167084968Y-113872836D01*
X167029837Y-113850000D01*
X166970163Y-113850000D01*
X166915032Y-113872836D01*
X166872836Y-113915032D01*
X166850000Y-113970163D01*
X166616610Y-113970163D01*
X166283338Y-113636891D01*
X166283337Y-113636891D01*
X166274667Y-113650691D01*
X166274662Y-113650701D01*
X166215122Y-113820858D01*
X166215121Y-113820861D01*
X166194938Y-113999997D01*
X144900500Y-113999997D01*
X144900500Y-113400000D01*
X166753553Y-113400000D01*
X167000000Y-113646447D01*
X167599999Y-114246445D01*
X167876282Y-113970163D01*
X168050000Y-113970163D01*
X168050000Y-114029837D01*
X168072836Y-114084968D01*
X168115032Y-114127164D01*
X168170163Y-114150000D01*
X168229837Y-114150000D01*
X168284968Y-114127164D01*
X168327164Y-114084968D01*
X168350000Y-114029837D01*
X168350000Y-113970163D01*
X168327164Y-113915032D01*
X168284968Y-113872836D01*
X168229837Y-113850000D01*
X168170163Y-113850000D01*
X168115032Y-113872836D01*
X168072836Y-113915032D01*
X168050000Y-113970163D01*
X167876282Y-113970163D01*
X168112318Y-113734127D01*
X168173641Y-113700642D01*
X168243332Y-113705626D01*
X168287680Y-113734127D01*
X168849999Y-114296446D01*
X169176283Y-113970163D01*
X169350000Y-113970163D01*
X169350000Y-114029837D01*
X169372836Y-114084968D01*
X169415032Y-114127164D01*
X169470163Y-114150000D01*
X169529837Y-114150000D01*
X169584968Y-114127164D01*
X169627164Y-114084968D01*
X169650000Y-114029837D01*
X169650000Y-113999999D01*
X169853553Y-113999999D01*
X170050000Y-114196446D01*
X170246446Y-114000001D01*
X170246446Y-114000000D01*
X170216609Y-113970163D01*
X170450000Y-113970163D01*
X170450000Y-114029837D01*
X170472836Y-114084968D01*
X170515032Y-114127164D01*
X170570163Y-114150000D01*
X170629837Y-114150000D01*
X170684968Y-114127164D01*
X170727164Y-114084968D01*
X170750000Y-114029837D01*
X170750000Y-114000000D01*
X170953553Y-114000000D01*
X171316660Y-114363106D01*
X171316661Y-114363106D01*
X171325334Y-114349306D01*
X171325334Y-114349305D01*
X171384877Y-114179141D01*
X171384878Y-114179138D01*
X171405062Y-114000002D01*
X171405062Y-113999997D01*
X171384878Y-113820861D01*
X171325333Y-113650692D01*
X171316661Y-113636892D01*
X171316660Y-113636892D01*
X170953553Y-114000000D01*
X170750000Y-114000000D01*
X170750000Y-113970163D01*
X170727164Y-113915032D01*
X170684968Y-113872836D01*
X170629837Y-113850000D01*
X170570163Y-113850000D01*
X170515032Y-113872836D01*
X170472836Y-113915032D01*
X170450000Y-113970163D01*
X170216609Y-113970163D01*
X170050000Y-113803553D01*
X169853553Y-113999999D01*
X169650000Y-113999999D01*
X169650000Y-113970163D01*
X169627164Y-113915032D01*
X169584968Y-113872836D01*
X169529837Y-113850000D01*
X169470163Y-113850000D01*
X169415032Y-113872836D01*
X169372836Y-113915032D01*
X169350000Y-113970163D01*
X169176283Y-113970163D01*
X169500000Y-113646447D01*
X169746446Y-113400000D01*
X169746446Y-113399999D01*
X170353553Y-113399999D01*
X170600000Y-113646446D01*
X170846446Y-113400001D01*
X170846446Y-113400000D01*
X170600000Y-113153553D01*
X170353553Y-113399999D01*
X169746446Y-113399999D01*
X169116610Y-112770163D01*
X169350000Y-112770163D01*
X169350000Y-112829837D01*
X169372836Y-112884968D01*
X169415032Y-112927164D01*
X169470163Y-112950000D01*
X169529837Y-112950000D01*
X169584968Y-112927164D01*
X169627164Y-112884968D01*
X169650000Y-112829837D01*
X169650000Y-112799999D01*
X169853553Y-112799999D01*
X170050000Y-112996446D01*
X170246446Y-112800001D01*
X170246446Y-112800000D01*
X170216609Y-112770163D01*
X170450000Y-112770163D01*
X170450000Y-112829837D01*
X170472836Y-112884968D01*
X170515032Y-112927164D01*
X170570163Y-112950000D01*
X170629837Y-112950000D01*
X170684968Y-112927164D01*
X170727164Y-112884968D01*
X170750000Y-112829837D01*
X170750000Y-112800000D01*
X170953553Y-112800000D01*
X171316660Y-113163106D01*
X171316661Y-113163106D01*
X171325334Y-113149306D01*
X171325334Y-113149305D01*
X171384877Y-112979141D01*
X171384878Y-112979138D01*
X171405062Y-112800002D01*
X171405062Y-112799997D01*
X171384878Y-112620861D01*
X171325333Y-112450692D01*
X171316661Y-112436892D01*
X171316660Y-112436892D01*
X170953553Y-112800000D01*
X170750000Y-112800000D01*
X170750000Y-112770163D01*
X170727164Y-112715032D01*
X170684968Y-112672836D01*
X170629837Y-112650000D01*
X170570163Y-112650000D01*
X170515032Y-112672836D01*
X170472836Y-112715032D01*
X170450000Y-112770163D01*
X170216609Y-112770163D01*
X170050000Y-112603553D01*
X169853553Y-112799999D01*
X169650000Y-112799999D01*
X169650000Y-112770163D01*
X169627164Y-112715032D01*
X169584968Y-112672836D01*
X169529837Y-112650000D01*
X169470163Y-112650000D01*
X169415032Y-112672836D01*
X169372836Y-112715032D01*
X169350000Y-112770163D01*
X169116610Y-112770163D01*
X168850000Y-112503553D01*
X168287681Y-113065872D01*
X168226358Y-113099357D01*
X168156666Y-113094373D01*
X168112319Y-113065872D01*
X167816610Y-112770163D01*
X168050000Y-112770163D01*
X168050000Y-112829837D01*
X168072836Y-112884968D01*
X168115032Y-112927164D01*
X168170163Y-112950000D01*
X168229837Y-112950000D01*
X168284968Y-112927164D01*
X168327164Y-112884968D01*
X168350000Y-112829837D01*
X168350000Y-112770163D01*
X168327164Y-112715032D01*
X168284968Y-112672836D01*
X168229837Y-112650000D01*
X168170163Y-112650000D01*
X168115032Y-112672836D01*
X168072836Y-112715032D01*
X168050000Y-112770163D01*
X167816610Y-112770163D01*
X167600000Y-112553553D01*
X166753553Y-113400000D01*
X144900500Y-113400000D01*
X144900500Y-112799997D01*
X166194938Y-112799997D01*
X166194938Y-112800002D01*
X166215121Y-112979138D01*
X166274665Y-113149304D01*
X166283338Y-113163107D01*
X166646446Y-112800000D01*
X166646446Y-112799999D01*
X166616610Y-112770163D01*
X166850000Y-112770163D01*
X166850000Y-112829837D01*
X166872836Y-112884968D01*
X166915032Y-112927164D01*
X166970163Y-112950000D01*
X167029837Y-112950000D01*
X167084968Y-112927164D01*
X167127164Y-112884968D01*
X167150000Y-112829837D01*
X167150000Y-112770163D01*
X167127164Y-112715032D01*
X167084968Y-112672836D01*
X167029837Y-112650000D01*
X166970163Y-112650000D01*
X166915032Y-112672836D01*
X166872836Y-112715032D01*
X166850000Y-112770163D01*
X166616610Y-112770163D01*
X166283338Y-112436891D01*
X166283337Y-112436891D01*
X166274667Y-112450691D01*
X166274662Y-112450701D01*
X166215122Y-112620858D01*
X166215121Y-112620861D01*
X166194938Y-112799997D01*
X144900500Y-112799997D01*
X144900500Y-112083337D01*
X166636891Y-112083337D01*
X166636891Y-112083338D01*
X167000000Y-112446446D01*
X167000001Y-112446446D01*
X167363107Y-112083338D01*
X167363105Y-112083337D01*
X167836891Y-112083337D01*
X167836891Y-112083338D01*
X168200000Y-112446446D01*
X168200001Y-112446446D01*
X168563107Y-112083338D01*
X168563105Y-112083337D01*
X169136891Y-112083337D01*
X169136891Y-112083338D01*
X169500000Y-112446446D01*
X169500001Y-112446446D01*
X169863107Y-112083338D01*
X169863105Y-112083337D01*
X170236891Y-112083337D01*
X170236891Y-112083338D01*
X170600000Y-112446446D01*
X170600001Y-112446446D01*
X170963107Y-112083338D01*
X170949304Y-112074665D01*
X170779138Y-112015121D01*
X170600003Y-111994938D01*
X170599997Y-111994938D01*
X170420861Y-112015121D01*
X170420858Y-112015122D01*
X170250701Y-112074662D01*
X170250691Y-112074667D01*
X170236891Y-112083337D01*
X169863105Y-112083337D01*
X169849304Y-112074665D01*
X169679138Y-112015121D01*
X169500003Y-111994938D01*
X169499997Y-111994938D01*
X169320861Y-112015121D01*
X169320858Y-112015122D01*
X169150701Y-112074662D01*
X169150691Y-112074667D01*
X169136891Y-112083337D01*
X168563105Y-112083337D01*
X168549304Y-112074665D01*
X168379138Y-112015121D01*
X168200003Y-111994938D01*
X168199997Y-111994938D01*
X168020861Y-112015121D01*
X168020858Y-112015122D01*
X167850701Y-112074662D01*
X167850691Y-112074667D01*
X167836891Y-112083337D01*
X167363105Y-112083337D01*
X167349304Y-112074665D01*
X167179138Y-112015121D01*
X167000003Y-111994938D01*
X166999997Y-111994938D01*
X166820861Y-112015121D01*
X166820858Y-112015122D01*
X166650701Y-112074662D01*
X166650691Y-112074667D01*
X166636891Y-112083337D01*
X144900500Y-112083337D01*
X144900500Y-108500000D01*
X163594353Y-108500000D01*
X163614834Y-108642456D01*
X163641114Y-108700000D01*
X163674623Y-108773373D01*
X163768872Y-108882143D01*
X163889947Y-108959953D01*
X163889950Y-108959954D01*
X163889949Y-108959954D01*
X164028036Y-109000499D01*
X164028038Y-109000500D01*
X164028039Y-109000500D01*
X164171962Y-109000500D01*
X164171962Y-109000499D01*
X164310053Y-108959953D01*
X164431128Y-108882143D01*
X164525377Y-108773373D01*
X164558886Y-108700000D01*
X169394353Y-108700000D01*
X169414834Y-108842456D01*
X169432959Y-108882143D01*
X169474623Y-108973373D01*
X169568872Y-109082143D01*
X169689947Y-109159953D01*
X169689950Y-109159954D01*
X169689949Y-109159954D01*
X169828036Y-109200499D01*
X169828038Y-109200500D01*
X169828039Y-109200500D01*
X169971962Y-109200500D01*
X169971962Y-109200499D01*
X170110053Y-109159953D01*
X170231128Y-109082143D01*
X170325377Y-108973373D01*
X170385165Y-108842457D01*
X170405647Y-108700000D01*
X170385165Y-108557543D01*
X170325377Y-108426627D01*
X170231128Y-108317857D01*
X170110053Y-108240047D01*
X170110051Y-108240046D01*
X170110049Y-108240045D01*
X170110050Y-108240045D01*
X169971963Y-108199500D01*
X169971961Y-108199500D01*
X169828039Y-108199500D01*
X169828036Y-108199500D01*
X169689949Y-108240045D01*
X169568873Y-108317856D01*
X169474623Y-108426626D01*
X169474622Y-108426628D01*
X169414834Y-108557543D01*
X169394353Y-108700000D01*
X164558886Y-108700000D01*
X164585165Y-108642457D01*
X164605647Y-108500000D01*
X164585165Y-108357543D01*
X164525377Y-108226627D01*
X164431128Y-108117857D01*
X164310053Y-108040047D01*
X164310051Y-108040046D01*
X164310049Y-108040045D01*
X164310050Y-108040045D01*
X164171963Y-107999500D01*
X164171961Y-107999500D01*
X164028039Y-107999500D01*
X164028036Y-107999500D01*
X163889949Y-108040045D01*
X163768873Y-108117856D01*
X163674623Y-108226626D01*
X163674622Y-108226628D01*
X163614834Y-108357543D01*
X163594353Y-108500000D01*
X144900500Y-108500000D01*
X144900500Y-105500000D01*
X152794353Y-105500000D01*
X152814834Y-105642456D01*
X152841114Y-105700000D01*
X152874623Y-105773373D01*
X152968872Y-105882143D01*
X153089947Y-105959953D01*
X153089950Y-105959954D01*
X153089949Y-105959954D01*
X153228036Y-106000499D01*
X153228038Y-106000500D01*
X153228039Y-106000500D01*
X153371962Y-106000500D01*
X153371962Y-106000499D01*
X153510053Y-105959953D01*
X153631128Y-105882143D01*
X153725377Y-105773373D01*
X153758886Y-105700000D01*
X158494353Y-105700000D01*
X158514834Y-105842456D01*
X158532959Y-105882143D01*
X158574623Y-105973373D01*
X158668872Y-106082143D01*
X158789947Y-106159953D01*
X158789950Y-106159954D01*
X158789949Y-106159954D01*
X158928036Y-106200499D01*
X158928038Y-106200500D01*
X158928039Y-106200500D01*
X159071962Y-106200500D01*
X159071962Y-106200499D01*
X159210053Y-106159953D01*
X159331128Y-106082143D01*
X159425377Y-105973373D01*
X159485165Y-105842457D01*
X159505647Y-105700000D01*
X159485165Y-105557543D01*
X159425377Y-105426627D01*
X159331128Y-105317857D01*
X159210053Y-105240047D01*
X159210051Y-105240046D01*
X159210049Y-105240045D01*
X159210050Y-105240045D01*
X159071963Y-105199500D01*
X159071961Y-105199500D01*
X158928039Y-105199500D01*
X158928036Y-105199500D01*
X158789949Y-105240045D01*
X158668873Y-105317856D01*
X158574623Y-105426626D01*
X158574622Y-105426628D01*
X158514834Y-105557543D01*
X158494353Y-105700000D01*
X153758886Y-105700000D01*
X153785165Y-105642457D01*
X153805647Y-105500000D01*
X153785165Y-105357543D01*
X153725377Y-105226627D01*
X153631128Y-105117857D01*
X153510053Y-105040047D01*
X153510051Y-105040046D01*
X153510049Y-105040045D01*
X153510050Y-105040045D01*
X153371963Y-104999500D01*
X153371961Y-104999500D01*
X153228039Y-104999500D01*
X153228036Y-104999500D01*
X153089949Y-105040045D01*
X152968873Y-105117856D01*
X152874623Y-105226626D01*
X152874622Y-105226628D01*
X152814834Y-105357543D01*
X152794353Y-105500000D01*
X144900500Y-105500000D01*
X144900500Y-104400000D01*
X178694353Y-104400000D01*
X178714834Y-104542456D01*
X178774622Y-104673371D01*
X178774623Y-104673373D01*
X178868872Y-104782143D01*
X178989947Y-104859953D01*
X178989950Y-104859954D01*
X178989949Y-104859954D01*
X179128036Y-104900499D01*
X179128038Y-104900500D01*
X179128039Y-104900500D01*
X179271962Y-104900500D01*
X179271962Y-104900499D01*
X179410053Y-104859953D01*
X179531128Y-104782143D01*
X179625377Y-104673373D01*
X179685165Y-104542457D01*
X179705647Y-104400000D01*
X179685165Y-104257543D01*
X179625377Y-104126627D01*
X179531128Y-104017857D01*
X179410053Y-103940047D01*
X179410051Y-103940046D01*
X179410049Y-103940045D01*
X179410050Y-103940045D01*
X179271963Y-103899500D01*
X179271961Y-103899500D01*
X179128039Y-103899500D01*
X179128036Y-103899500D01*
X178989949Y-103940045D01*
X178868873Y-104017856D01*
X178774623Y-104126626D01*
X178774622Y-104126628D01*
X178714834Y-104257543D01*
X178694353Y-104400000D01*
X144900500Y-104400000D01*
X144900500Y-102700000D01*
X155794353Y-102700000D01*
X155814834Y-102842456D01*
X155874622Y-102973371D01*
X155874623Y-102973373D01*
X155968872Y-103082143D01*
X156089947Y-103159953D01*
X156089950Y-103159954D01*
X156089949Y-103159954D01*
X156228036Y-103200499D01*
X156228038Y-103200500D01*
X156228039Y-103200500D01*
X156371962Y-103200500D01*
X156371962Y-103200499D01*
X156510053Y-103159953D01*
X156631128Y-103082143D01*
X156725377Y-102973373D01*
X156785165Y-102842457D01*
X156805647Y-102700000D01*
X156785165Y-102557543D01*
X156725377Y-102426627D01*
X156631128Y-102317857D01*
X156603342Y-102300000D01*
X168094353Y-102300000D01*
X168114834Y-102442456D01*
X168174622Y-102573371D01*
X168174623Y-102573373D01*
X168268872Y-102682143D01*
X168389947Y-102759953D01*
X168389950Y-102759954D01*
X168389949Y-102759954D01*
X168528036Y-102800499D01*
X168528038Y-102800500D01*
X168528039Y-102800500D01*
X168671962Y-102800500D01*
X168671962Y-102800499D01*
X168810053Y-102759953D01*
X168931128Y-102682143D01*
X169025377Y-102573373D01*
X169085165Y-102442457D01*
X169105647Y-102300000D01*
X169085165Y-102157543D01*
X169025377Y-102026627D01*
X168931128Y-101917857D01*
X168810053Y-101840047D01*
X168810051Y-101840046D01*
X168810049Y-101840045D01*
X168810050Y-101840045D01*
X168671963Y-101799500D01*
X168671961Y-101799500D01*
X168528039Y-101799500D01*
X168528036Y-101799500D01*
X168389949Y-101840045D01*
X168268873Y-101917856D01*
X168174623Y-102026626D01*
X168174622Y-102026628D01*
X168114834Y-102157543D01*
X168094353Y-102300000D01*
X156603342Y-102300000D01*
X156510053Y-102240047D01*
X156510051Y-102240046D01*
X156510049Y-102240045D01*
X156510050Y-102240045D01*
X156371963Y-102199500D01*
X156371961Y-102199500D01*
X156228039Y-102199500D01*
X156228036Y-102199500D01*
X156089949Y-102240045D01*
X155968873Y-102317856D01*
X155874623Y-102426626D01*
X155874622Y-102426628D01*
X155814834Y-102557543D01*
X155794353Y-102700000D01*
X144900500Y-102700000D01*
X144900500Y-101100000D01*
X155794353Y-101100000D01*
X155814834Y-101242456D01*
X155874622Y-101373371D01*
X155874623Y-101373373D01*
X155968872Y-101482143D01*
X156089947Y-101559953D01*
X156089950Y-101559954D01*
X156089949Y-101559954D01*
X156228036Y-101600499D01*
X156228038Y-101600500D01*
X156228039Y-101600500D01*
X156371962Y-101600500D01*
X156371962Y-101600499D01*
X156510053Y-101559953D01*
X156631128Y-101482143D01*
X156725377Y-101373373D01*
X156785165Y-101242457D01*
X156805647Y-101100000D01*
X156785165Y-100957543D01*
X156725377Y-100826627D01*
X156631128Y-100717857D01*
X156510053Y-100640047D01*
X156510051Y-100640046D01*
X156510049Y-100640045D01*
X156510050Y-100640045D01*
X156371963Y-100599500D01*
X156371961Y-100599500D01*
X156228039Y-100599500D01*
X156228036Y-100599500D01*
X156089949Y-100640045D01*
X155968873Y-100717856D01*
X155874623Y-100826626D01*
X155874622Y-100826628D01*
X155814834Y-100957543D01*
X155794353Y-101100000D01*
X144900500Y-101100000D01*
X144900500Y-99700000D01*
X158094353Y-99700000D01*
X158114834Y-99842456D01*
X158169262Y-99961635D01*
X158174623Y-99973373D01*
X158268872Y-100082143D01*
X158389947Y-100159953D01*
X158389950Y-100159954D01*
X158389949Y-100159954D01*
X158528036Y-100200499D01*
X158528038Y-100200500D01*
X158528039Y-100200500D01*
X158671962Y-100200500D01*
X158671962Y-100200499D01*
X158810053Y-100159953D01*
X158903342Y-100100000D01*
X159894353Y-100100000D01*
X159914834Y-100242456D01*
X159928953Y-100273371D01*
X159974623Y-100373373D01*
X160068872Y-100482143D01*
X160189947Y-100559953D01*
X160189950Y-100559954D01*
X160189949Y-100559954D01*
X160297107Y-100591417D01*
X160324633Y-100599500D01*
X160328036Y-100600499D01*
X160328038Y-100600500D01*
X160328039Y-100600500D01*
X160471962Y-100600500D01*
X160471962Y-100600499D01*
X160610053Y-100559953D01*
X160731128Y-100482143D01*
X160825377Y-100373373D01*
X160885165Y-100242457D01*
X160890993Y-100201919D01*
X160920017Y-100138364D01*
X160978795Y-100100589D01*
X161048664Y-100100588D01*
X161107443Y-100138362D01*
X161126525Y-100168054D01*
X161160503Y-100242456D01*
X161174623Y-100273373D01*
X161268872Y-100382143D01*
X161389947Y-100459953D01*
X161389950Y-100459954D01*
X161389949Y-100459954D01*
X161528036Y-100500499D01*
X161528038Y-100500500D01*
X161528039Y-100500500D01*
X161671962Y-100500500D01*
X161671962Y-100500499D01*
X161810053Y-100459953D01*
X161931128Y-100382143D01*
X162025377Y-100273373D01*
X162085165Y-100142457D01*
X162105647Y-100000000D01*
X162085165Y-99857543D01*
X162025377Y-99726627D01*
X161931128Y-99617857D01*
X161810053Y-99540047D01*
X161810051Y-99540046D01*
X161810049Y-99540045D01*
X161810050Y-99540045D01*
X161671963Y-99499500D01*
X161671961Y-99499500D01*
X161528039Y-99499500D01*
X161528036Y-99499500D01*
X161389949Y-99540045D01*
X161268873Y-99617856D01*
X161174623Y-99726626D01*
X161174622Y-99726628D01*
X161114834Y-99857543D01*
X161109006Y-99898081D01*
X161079980Y-99961637D01*
X161021201Y-99999411D01*
X160951332Y-99999410D01*
X160892554Y-99961635D01*
X160873474Y-99931944D01*
X160825379Y-99826630D01*
X160825376Y-99826626D01*
X160731128Y-99717857D01*
X160610053Y-99640047D01*
X160610051Y-99640046D01*
X160610049Y-99640045D01*
X160610050Y-99640045D01*
X160471963Y-99599500D01*
X160471961Y-99599500D01*
X160328039Y-99599500D01*
X160328036Y-99599500D01*
X160189949Y-99640045D01*
X160068873Y-99717856D01*
X159974623Y-99826626D01*
X159974622Y-99826628D01*
X159914834Y-99957543D01*
X159894353Y-100100000D01*
X158903342Y-100100000D01*
X158931128Y-100082143D01*
X159025377Y-99973373D01*
X159085165Y-99842457D01*
X159105647Y-99700000D01*
X159085165Y-99557543D01*
X159025377Y-99426627D01*
X158931128Y-99317857D01*
X158810053Y-99240047D01*
X158810051Y-99240046D01*
X158810049Y-99240045D01*
X158810050Y-99240045D01*
X158671963Y-99199500D01*
X158671961Y-99199500D01*
X158528039Y-99199500D01*
X158528036Y-99199500D01*
X158389949Y-99240045D01*
X158268873Y-99317856D01*
X158174623Y-99426626D01*
X158174622Y-99426628D01*
X158114834Y-99557543D01*
X158094353Y-99700000D01*
X144900500Y-99700000D01*
X144900500Y-99100000D01*
X178494353Y-99100000D01*
X178514834Y-99242456D01*
X178549269Y-99317856D01*
X178574623Y-99373373D01*
X178668872Y-99482143D01*
X178789947Y-99559953D01*
X178789950Y-99559954D01*
X178789949Y-99559954D01*
X178897107Y-99591417D01*
X178924633Y-99599500D01*
X178928036Y-99600499D01*
X178928038Y-99600500D01*
X178928039Y-99600500D01*
X179071962Y-99600500D01*
X179071962Y-99600499D01*
X179210053Y-99559953D01*
X179331128Y-99482143D01*
X179425377Y-99373373D01*
X179485165Y-99242457D01*
X179505647Y-99100000D01*
X179485165Y-98957543D01*
X179425377Y-98826627D01*
X179331128Y-98717857D01*
X179210053Y-98640047D01*
X179210051Y-98640046D01*
X179210049Y-98640045D01*
X179210050Y-98640045D01*
X179071963Y-98599500D01*
X179071961Y-98599500D01*
X178928039Y-98599500D01*
X178928036Y-98599500D01*
X178789949Y-98640045D01*
X178668873Y-98717856D01*
X178574623Y-98826626D01*
X178574622Y-98826628D01*
X178514834Y-98957543D01*
X178494353Y-99100000D01*
X144900500Y-99100000D01*
X144900500Y-98400000D01*
X154294353Y-98400000D01*
X154314834Y-98542456D01*
X154340886Y-98599500D01*
X154374623Y-98673373D01*
X154468872Y-98782143D01*
X154589947Y-98859953D01*
X154589950Y-98859954D01*
X154589949Y-98859954D01*
X154728036Y-98900499D01*
X154728038Y-98900500D01*
X154728039Y-98900500D01*
X154871962Y-98900500D01*
X154871962Y-98900499D01*
X155010053Y-98859953D01*
X155131128Y-98782143D01*
X155225377Y-98673373D01*
X155285165Y-98542457D01*
X155305647Y-98400000D01*
X155285165Y-98257543D01*
X155225377Y-98126627D01*
X155131128Y-98017857D01*
X155010053Y-97940047D01*
X155010051Y-97940046D01*
X155010049Y-97940045D01*
X155010050Y-97940045D01*
X154871963Y-97899500D01*
X154871961Y-97899500D01*
X154728039Y-97899500D01*
X154728036Y-97899500D01*
X154589949Y-97940045D01*
X154468873Y-98017856D01*
X154374623Y-98126626D01*
X154374622Y-98126628D01*
X154314834Y-98257543D01*
X154294353Y-98400000D01*
X144900500Y-98400000D01*
X144900500Y-96100000D01*
X159594353Y-96100000D01*
X159614834Y-96242456D01*
X159634926Y-96286450D01*
X159674623Y-96373373D01*
X159768872Y-96482143D01*
X159889947Y-96559953D01*
X159889950Y-96559954D01*
X159889949Y-96559954D01*
X160028036Y-96600499D01*
X160028038Y-96600500D01*
X160028039Y-96600500D01*
X160171962Y-96600500D01*
X160171962Y-96600499D01*
X160310053Y-96559953D01*
X160431128Y-96482143D01*
X160525377Y-96373373D01*
X160585165Y-96242457D01*
X160605647Y-96100000D01*
X160585165Y-95957543D01*
X160525377Y-95826627D01*
X160431128Y-95717857D01*
X160310053Y-95640047D01*
X160310051Y-95640046D01*
X160310049Y-95640045D01*
X160310050Y-95640045D01*
X160173666Y-95600000D01*
X168094353Y-95600000D01*
X168114834Y-95742456D01*
X168153275Y-95826628D01*
X168174623Y-95873373D01*
X168268872Y-95982143D01*
X168389947Y-96059953D01*
X168389950Y-96059954D01*
X168389949Y-96059954D01*
X168497107Y-96091417D01*
X168526336Y-96100000D01*
X168528036Y-96100499D01*
X168528038Y-96100500D01*
X168528039Y-96100500D01*
X168671962Y-96100500D01*
X168671962Y-96100499D01*
X168810053Y-96059953D01*
X168931128Y-95982143D01*
X169025377Y-95873373D01*
X169085165Y-95742457D01*
X169091269Y-95700000D01*
X175844417Y-95700000D01*
X175864699Y-95905932D01*
X175864700Y-95905934D01*
X175924768Y-96103954D01*
X176022315Y-96286450D01*
X176022317Y-96286452D01*
X176153589Y-96446410D01*
X176250209Y-96525702D01*
X176313550Y-96577685D01*
X176496046Y-96675232D01*
X176694066Y-96735300D01*
X176694065Y-96735300D01*
X176712529Y-96737118D01*
X176900000Y-96755583D01*
X177105934Y-96735300D01*
X177303954Y-96675232D01*
X177486450Y-96577685D01*
X177646410Y-96446410D01*
X177777685Y-96286450D01*
X177875232Y-96103954D01*
X177935300Y-95905934D01*
X177955583Y-95700000D01*
X177935300Y-95494066D01*
X177875232Y-95296046D01*
X177777685Y-95113550D01*
X177725702Y-95050209D01*
X177646410Y-94953589D01*
X177511833Y-94843146D01*
X177486450Y-94822315D01*
X177303954Y-94724768D01*
X177105934Y-94664700D01*
X177105932Y-94664699D01*
X177105934Y-94664699D01*
X176900000Y-94644417D01*
X176694067Y-94664699D01*
X176496043Y-94724769D01*
X176462954Y-94742456D01*
X176313550Y-94822315D01*
X176313548Y-94822316D01*
X176313547Y-94822317D01*
X176153589Y-94953589D01*
X176022317Y-95113547D01*
X175924769Y-95296043D01*
X175864699Y-95494067D01*
X175844417Y-95700000D01*
X169091269Y-95700000D01*
X169105647Y-95600000D01*
X169085165Y-95457543D01*
X169025377Y-95326627D01*
X168931128Y-95217857D01*
X168810053Y-95140047D01*
X168810051Y-95140046D01*
X168810049Y-95140045D01*
X168810050Y-95140045D01*
X168671963Y-95099500D01*
X168671961Y-95099500D01*
X168528039Y-95099500D01*
X168528036Y-95099500D01*
X168389949Y-95140045D01*
X168268873Y-95217856D01*
X168174623Y-95326626D01*
X168174622Y-95326628D01*
X168114834Y-95457543D01*
X168094353Y-95600000D01*
X160173666Y-95600000D01*
X160171963Y-95599500D01*
X160171961Y-95599500D01*
X160028039Y-95599500D01*
X160028036Y-95599500D01*
X159889949Y-95640045D01*
X159768873Y-95717856D01*
X159674623Y-95826626D01*
X159674622Y-95826628D01*
X159614834Y-95957543D01*
X159594353Y-96100000D01*
X144900500Y-96100000D01*
X144900500Y-95300000D01*
X156694353Y-95300000D01*
X156714834Y-95442456D01*
X156774622Y-95573371D01*
X156774623Y-95573373D01*
X156868872Y-95682143D01*
X156989947Y-95759953D01*
X156989950Y-95759954D01*
X156989949Y-95759954D01*
X157128036Y-95800499D01*
X157128038Y-95800500D01*
X157128039Y-95800500D01*
X157271962Y-95800500D01*
X157271962Y-95800499D01*
X157410053Y-95759953D01*
X157531128Y-95682143D01*
X157625377Y-95573373D01*
X157685165Y-95442457D01*
X157705647Y-95300000D01*
X157685165Y-95157543D01*
X157625377Y-95026627D01*
X157531128Y-94917857D01*
X157410053Y-94840047D01*
X157410051Y-94840046D01*
X157410049Y-94840045D01*
X157410050Y-94840045D01*
X157271963Y-94799500D01*
X157271961Y-94799500D01*
X157128039Y-94799500D01*
X157128036Y-94799500D01*
X156989949Y-94840045D01*
X156868873Y-94917856D01*
X156774623Y-95026626D01*
X156774622Y-95026628D01*
X156714834Y-95157543D01*
X156694353Y-95300000D01*
X144900500Y-95300000D01*
X144900500Y-94843146D01*
X144920185Y-94776107D01*
X144972989Y-94730352D01*
X145042147Y-94720408D01*
X145105703Y-94749433D01*
X145137294Y-94791635D01*
X145174620Y-94873369D01*
X145174623Y-94873373D01*
X145268872Y-94982143D01*
X145389947Y-95059953D01*
X145389950Y-95059954D01*
X145389949Y-95059954D01*
X145497107Y-95091417D01*
X145524633Y-95099500D01*
X145528036Y-95100499D01*
X145528038Y-95100500D01*
X145528039Y-95100500D01*
X145671962Y-95100500D01*
X145671962Y-95100499D01*
X145810053Y-95059953D01*
X145931128Y-94982143D01*
X146025377Y-94873373D01*
X146085165Y-94742457D01*
X146105647Y-94600000D01*
X146085165Y-94457543D01*
X146025377Y-94326627D01*
X145931128Y-94217857D01*
X145810053Y-94140047D01*
X145810051Y-94140046D01*
X145810049Y-94140045D01*
X145810050Y-94140045D01*
X145671963Y-94099500D01*
X145671961Y-94099500D01*
X145528039Y-94099500D01*
X145528036Y-94099500D01*
X145389949Y-94140045D01*
X145268873Y-94217856D01*
X145174623Y-94326626D01*
X145174622Y-94326628D01*
X145137294Y-94408365D01*
X145091539Y-94461169D01*
X145024500Y-94480853D01*
X144957460Y-94461168D01*
X144911705Y-94408364D01*
X144900500Y-94356853D01*
X144900500Y-93300000D01*
X152694353Y-93300000D01*
X152714834Y-93442456D01*
X152770321Y-93563954D01*
X152774623Y-93573373D01*
X152868872Y-93682143D01*
X152989947Y-93759953D01*
X152989950Y-93759954D01*
X152989949Y-93759954D01*
X153128036Y-93800499D01*
X153128038Y-93800500D01*
X153128039Y-93800500D01*
X153271962Y-93800500D01*
X153271962Y-93800499D01*
X153410053Y-93759953D01*
X153531128Y-93682143D01*
X153625377Y-93573373D01*
X153685165Y-93442457D01*
X153705647Y-93300000D01*
X153685165Y-93157543D01*
X153625377Y-93026627D01*
X153531128Y-92917857D01*
X153410053Y-92840047D01*
X153410051Y-92840046D01*
X153410049Y-92840045D01*
X153410050Y-92840045D01*
X153271963Y-92799500D01*
X153271961Y-92799500D01*
X153128039Y-92799500D01*
X153128036Y-92799500D01*
X152989949Y-92840045D01*
X152868873Y-92917856D01*
X152774623Y-93026626D01*
X152774622Y-93026628D01*
X152714834Y-93157543D01*
X152694353Y-93300000D01*
X144900500Y-93300000D01*
X144900500Y-92400000D01*
X156594353Y-92400000D01*
X156614834Y-92542456D01*
X156674622Y-92673371D01*
X156674623Y-92673373D01*
X156768872Y-92782143D01*
X156889947Y-92859953D01*
X156889950Y-92859954D01*
X156889949Y-92859954D01*
X157028036Y-92900499D01*
X157028038Y-92900500D01*
X157028039Y-92900500D01*
X157171962Y-92900500D01*
X157171962Y-92900499D01*
X157310053Y-92859953D01*
X157403342Y-92800000D01*
X171694353Y-92800000D01*
X171714834Y-92942456D01*
X171753275Y-93026628D01*
X171774623Y-93073373D01*
X171868872Y-93182143D01*
X171989947Y-93259953D01*
X171989950Y-93259954D01*
X171989949Y-93259954D01*
X172097107Y-93291417D01*
X172126336Y-93300000D01*
X172128036Y-93300499D01*
X172128038Y-93300500D01*
X172128039Y-93300500D01*
X172271962Y-93300500D01*
X172271962Y-93300499D01*
X172410053Y-93259953D01*
X172531128Y-93182143D01*
X172550315Y-93160000D01*
X175844417Y-93160000D01*
X175864699Y-93365932D01*
X175864700Y-93365934D01*
X175924768Y-93563954D01*
X176022315Y-93746450D01*
X176056969Y-93788677D01*
X176153589Y-93906410D01*
X176250209Y-93985702D01*
X176313550Y-94037685D01*
X176496046Y-94135232D01*
X176694066Y-94195300D01*
X176694065Y-94195300D01*
X176712529Y-94197118D01*
X176900000Y-94215583D01*
X177105934Y-94195300D01*
X177303954Y-94135232D01*
X177486450Y-94037685D01*
X177646410Y-93906410D01*
X177777685Y-93746450D01*
X177875232Y-93563954D01*
X177935300Y-93365934D01*
X177955583Y-93160000D01*
X177935300Y-92954066D01*
X177875232Y-92756046D01*
X177777685Y-92573550D01*
X177725702Y-92510209D01*
X177646410Y-92413589D01*
X177486452Y-92282317D01*
X177486453Y-92282317D01*
X177486450Y-92282315D01*
X177303954Y-92184768D01*
X177105934Y-92124700D01*
X177105932Y-92124699D01*
X177105934Y-92124699D01*
X176900000Y-92104417D01*
X176694067Y-92124699D01*
X176496043Y-92184769D01*
X176385898Y-92243643D01*
X176313550Y-92282315D01*
X176313548Y-92282316D01*
X176313547Y-92282317D01*
X176153589Y-92413589D01*
X176022317Y-92573547D01*
X175924769Y-92756043D01*
X175864699Y-92954067D01*
X175844417Y-93160000D01*
X172550315Y-93160000D01*
X172625377Y-93073373D01*
X172685165Y-92942457D01*
X172705647Y-92800000D01*
X172685165Y-92657543D01*
X172625377Y-92526627D01*
X172531128Y-92417857D01*
X172410053Y-92340047D01*
X172410051Y-92340046D01*
X172410049Y-92340045D01*
X172410050Y-92340045D01*
X172271963Y-92299500D01*
X172271961Y-92299500D01*
X172128039Y-92299500D01*
X172128036Y-92299500D01*
X171989949Y-92340045D01*
X171868873Y-92417856D01*
X171774623Y-92526626D01*
X171774622Y-92526628D01*
X171714834Y-92657543D01*
X171694353Y-92800000D01*
X157403342Y-92800000D01*
X157431128Y-92782143D01*
X157525377Y-92673373D01*
X157585165Y-92542457D01*
X157605647Y-92400000D01*
X157585165Y-92257543D01*
X157525377Y-92126627D01*
X157431128Y-92017857D01*
X157310053Y-91940047D01*
X157310051Y-91940046D01*
X157310049Y-91940045D01*
X157310050Y-91940045D01*
X157171963Y-91899500D01*
X157171961Y-91899500D01*
X157028039Y-91899500D01*
X157028036Y-91899500D01*
X156889949Y-91940045D01*
X156768873Y-92017856D01*
X156674623Y-92126626D01*
X156674622Y-92126628D01*
X156614834Y-92257543D01*
X156594353Y-92400000D01*
X144900500Y-92400000D01*
X144900500Y-90620000D01*
X175844417Y-90620000D01*
X175864699Y-90825932D01*
X175864700Y-90825934D01*
X175924768Y-91023954D01*
X176022315Y-91206450D01*
X176022317Y-91206452D01*
X176153589Y-91366410D01*
X176250209Y-91445702D01*
X176313550Y-91497685D01*
X176496046Y-91595232D01*
X176694066Y-91655300D01*
X176694065Y-91655300D01*
X176712529Y-91657118D01*
X176900000Y-91675583D01*
X177105934Y-91655300D01*
X177303954Y-91595232D01*
X177486450Y-91497685D01*
X177646410Y-91366410D01*
X177777685Y-91206450D01*
X177875232Y-91023954D01*
X177935300Y-90825934D01*
X177955583Y-90620000D01*
X177935300Y-90414066D01*
X177921933Y-90369999D01*
X179369364Y-90369999D01*
X179369364Y-90370000D01*
X180266988Y-90370000D01*
X180234075Y-90427007D01*
X180200000Y-90554174D01*
X180200000Y-90685826D01*
X180234075Y-90812993D01*
X180266988Y-90870000D01*
X179369364Y-90870000D01*
X179426567Y-91083486D01*
X179426570Y-91083492D01*
X179526399Y-91297578D01*
X179661894Y-91491082D01*
X179828917Y-91658105D01*
X180022421Y-91793600D01*
X180236507Y-91893429D01*
X180236516Y-91893433D01*
X180450000Y-91950634D01*
X180450000Y-91053012D01*
X180507007Y-91085925D01*
X180634174Y-91120000D01*
X180765826Y-91120000D01*
X180892993Y-91085925D01*
X180950000Y-91053012D01*
X180950000Y-91950633D01*
X181163483Y-91893433D01*
X181163492Y-91893429D01*
X181377578Y-91793600D01*
X181571082Y-91658105D01*
X181738105Y-91491082D01*
X181873600Y-91297578D01*
X181973429Y-91083492D01*
X181973432Y-91083486D01*
X182030636Y-90870000D01*
X181133012Y-90870000D01*
X181165925Y-90812993D01*
X181200000Y-90685826D01*
X181200000Y-90554174D01*
X181165925Y-90427007D01*
X181133012Y-90370000D01*
X182030636Y-90370000D01*
X182030635Y-90369999D01*
X181973432Y-90156513D01*
X181973429Y-90156507D01*
X181873600Y-89942422D01*
X181873599Y-89942420D01*
X181738113Y-89748926D01*
X181738108Y-89748920D01*
X181571082Y-89581894D01*
X181377578Y-89446399D01*
X181163492Y-89346570D01*
X181163486Y-89346567D01*
X181041349Y-89313841D01*
X180981689Y-89277476D01*
X180951160Y-89214629D01*
X180959455Y-89145253D01*
X181003940Y-89091375D01*
X181037444Y-89075407D01*
X181103954Y-89055232D01*
X181286450Y-88957685D01*
X181446410Y-88826410D01*
X181577685Y-88666450D01*
X181675232Y-88483954D01*
X181735300Y-88285934D01*
X181755583Y-88080000D01*
X181735300Y-87874066D01*
X181675232Y-87676046D01*
X181577685Y-87493550D01*
X181522762Y-87426626D01*
X181446410Y-87333589D01*
X181286452Y-87202317D01*
X181286453Y-87202317D01*
X181286450Y-87202315D01*
X181103954Y-87104768D01*
X180905934Y-87044700D01*
X180905932Y-87044699D01*
X180905934Y-87044699D01*
X180700000Y-87024417D01*
X180494067Y-87044699D01*
X180296043Y-87104769D01*
X180185898Y-87163643D01*
X180113550Y-87202315D01*
X180113548Y-87202316D01*
X180113547Y-87202317D01*
X179953589Y-87333589D01*
X179822317Y-87493547D01*
X179724769Y-87676043D01*
X179664699Y-87874067D01*
X179644417Y-88080000D01*
X179664699Y-88285932D01*
X179681114Y-88340045D01*
X179724768Y-88483954D01*
X179822315Y-88666450D01*
X179822317Y-88666452D01*
X179953589Y-88826410D01*
X180050209Y-88905702D01*
X180113550Y-88957685D01*
X180296046Y-89055232D01*
X180362551Y-89075405D01*
X180420989Y-89113702D01*
X180449446Y-89177514D01*
X180438887Y-89246581D01*
X180392663Y-89298975D01*
X180358650Y-89313841D01*
X180236514Y-89346567D01*
X180236507Y-89346570D01*
X180022422Y-89446399D01*
X180022420Y-89446400D01*
X179828926Y-89581886D01*
X179828920Y-89581891D01*
X179661891Y-89748920D01*
X179661886Y-89748926D01*
X179526400Y-89942420D01*
X179526399Y-89942422D01*
X179426570Y-90156507D01*
X179426567Y-90156513D01*
X179369364Y-90369999D01*
X177921933Y-90369999D01*
X177875232Y-90216046D01*
X177777685Y-90033550D01*
X177702897Y-89942420D01*
X177646410Y-89873589D01*
X177528677Y-89776969D01*
X177486450Y-89742315D01*
X177303954Y-89644768D01*
X177105934Y-89584700D01*
X177105932Y-89584699D01*
X177105934Y-89584699D01*
X176900000Y-89564417D01*
X176694067Y-89584699D01*
X176496043Y-89644769D01*
X176385898Y-89703643D01*
X176313550Y-89742315D01*
X176313548Y-89742316D01*
X176313547Y-89742317D01*
X176153589Y-89873589D01*
X176022317Y-90033547D01*
X175924769Y-90216043D01*
X175864699Y-90414067D01*
X175844417Y-90620000D01*
X144900500Y-90620000D01*
X144900500Y-88300000D01*
X148794353Y-88300000D01*
X148814834Y-88442456D01*
X148853275Y-88526628D01*
X148874623Y-88573373D01*
X148968872Y-88682143D01*
X149089947Y-88759953D01*
X149089950Y-88759954D01*
X149089949Y-88759954D01*
X149197107Y-88791417D01*
X149226336Y-88800000D01*
X149228036Y-88800499D01*
X149228038Y-88800500D01*
X149228039Y-88800500D01*
X149371962Y-88800500D01*
X149371962Y-88800499D01*
X149373661Y-88800000D01*
X157794353Y-88800000D01*
X157814834Y-88942456D01*
X157821788Y-88957682D01*
X157874623Y-89073373D01*
X157968872Y-89182143D01*
X158089947Y-89259953D01*
X158089950Y-89259954D01*
X158089949Y-89259954D01*
X158197107Y-89291417D01*
X158222845Y-89298975D01*
X158228036Y-89300499D01*
X158228038Y-89300500D01*
X158228039Y-89300500D01*
X158371962Y-89300500D01*
X158371962Y-89300499D01*
X158510053Y-89259953D01*
X158631128Y-89182143D01*
X158725377Y-89073373D01*
X158785165Y-88942457D01*
X158805647Y-88800000D01*
X158785165Y-88657543D01*
X158725377Y-88526627D01*
X158631128Y-88417857D01*
X158510053Y-88340047D01*
X158510051Y-88340046D01*
X158510049Y-88340045D01*
X158510050Y-88340045D01*
X158371963Y-88299500D01*
X158371961Y-88299500D01*
X158228039Y-88299500D01*
X158228036Y-88299500D01*
X158089949Y-88340045D01*
X157968873Y-88417856D01*
X157874623Y-88526626D01*
X157874622Y-88526628D01*
X157814834Y-88657543D01*
X157794353Y-88800000D01*
X149373661Y-88800000D01*
X149510053Y-88759953D01*
X149631128Y-88682143D01*
X149725377Y-88573373D01*
X149785165Y-88442457D01*
X149805647Y-88300000D01*
X149785165Y-88157543D01*
X149725377Y-88026627D01*
X149631128Y-87917857D01*
X149510053Y-87840047D01*
X149510051Y-87840046D01*
X149510049Y-87840045D01*
X149510050Y-87840045D01*
X149371963Y-87799500D01*
X149371961Y-87799500D01*
X149228039Y-87799500D01*
X149228036Y-87799500D01*
X149089949Y-87840045D01*
X148968873Y-87917856D01*
X148874623Y-88026626D01*
X148874622Y-88026628D01*
X148814834Y-88157543D01*
X148794353Y-88300000D01*
X144900500Y-88300000D01*
X144900500Y-87700000D01*
X171394353Y-87700000D01*
X171414834Y-87842456D01*
X171429271Y-87874067D01*
X171474623Y-87973373D01*
X171568872Y-88082143D01*
X171689947Y-88159953D01*
X171689950Y-88159954D01*
X171689949Y-88159954D01*
X171828036Y-88200499D01*
X171828038Y-88200500D01*
X171828039Y-88200500D01*
X171971961Y-88200500D01*
X172035420Y-88181867D01*
X172105287Y-88181867D01*
X172164065Y-88219641D01*
X172193091Y-88283196D01*
X172194232Y-88299163D01*
X172214834Y-88442456D01*
X172253275Y-88526628D01*
X172274623Y-88573373D01*
X172368872Y-88682143D01*
X172489947Y-88759953D01*
X172489950Y-88759954D01*
X172489949Y-88759954D01*
X172597107Y-88791417D01*
X172626336Y-88800000D01*
X172628036Y-88800499D01*
X172628038Y-88800500D01*
X172628039Y-88800500D01*
X172771962Y-88800500D01*
X172771962Y-88800499D01*
X172910053Y-88759953D01*
X173031128Y-88682143D01*
X173125377Y-88573373D01*
X173185165Y-88442457D01*
X173205647Y-88300000D01*
X173185165Y-88157543D01*
X173149752Y-88080000D01*
X175844417Y-88080000D01*
X175864699Y-88285932D01*
X175881114Y-88340045D01*
X175924768Y-88483954D01*
X176022315Y-88666450D01*
X176022317Y-88666452D01*
X176153589Y-88826410D01*
X176250209Y-88905702D01*
X176313550Y-88957685D01*
X176496046Y-89055232D01*
X176694066Y-89115300D01*
X176694065Y-89115300D01*
X176712529Y-89117118D01*
X176900000Y-89135583D01*
X177105934Y-89115300D01*
X177303954Y-89055232D01*
X177486450Y-88957685D01*
X177646410Y-88826410D01*
X177777685Y-88666450D01*
X177875232Y-88483954D01*
X177935300Y-88285934D01*
X177955583Y-88080000D01*
X177935300Y-87874066D01*
X177875232Y-87676046D01*
X177777685Y-87493550D01*
X177722762Y-87426626D01*
X177646410Y-87333589D01*
X177486452Y-87202317D01*
X177486453Y-87202317D01*
X177486450Y-87202315D01*
X177303954Y-87104768D01*
X177105934Y-87044700D01*
X177105932Y-87044699D01*
X177105934Y-87044699D01*
X176900000Y-87024417D01*
X176694067Y-87044699D01*
X176496043Y-87104769D01*
X176385898Y-87163643D01*
X176313550Y-87202315D01*
X176313548Y-87202316D01*
X176313547Y-87202317D01*
X176153589Y-87333589D01*
X176022317Y-87493547D01*
X175924769Y-87676043D01*
X175864699Y-87874067D01*
X175844417Y-88080000D01*
X173149752Y-88080000D01*
X173125377Y-88026627D01*
X173031128Y-87917857D01*
X172910053Y-87840047D01*
X172910051Y-87840046D01*
X172910049Y-87840045D01*
X172910050Y-87840045D01*
X172771963Y-87799500D01*
X172771961Y-87799500D01*
X172628039Y-87799500D01*
X172628036Y-87799500D01*
X172564581Y-87818132D01*
X172494712Y-87818132D01*
X172435934Y-87780357D01*
X172406909Y-87716801D01*
X172405767Y-87700837D01*
X172402202Y-87676043D01*
X172385165Y-87557543D01*
X172325377Y-87426627D01*
X172231128Y-87317857D01*
X172110053Y-87240047D01*
X172110051Y-87240046D01*
X172110049Y-87240045D01*
X172110050Y-87240045D01*
X171971963Y-87199500D01*
X171971961Y-87199500D01*
X171828039Y-87199500D01*
X171828036Y-87199500D01*
X171689949Y-87240045D01*
X171568873Y-87317856D01*
X171474623Y-87426626D01*
X171474622Y-87426628D01*
X171414834Y-87557543D01*
X171394353Y-87700000D01*
X144900500Y-87700000D01*
X144900500Y-86400000D01*
X162294353Y-86400000D01*
X162314834Y-86542456D01*
X162339097Y-86595583D01*
X162374623Y-86673373D01*
X162468872Y-86782143D01*
X162589947Y-86859953D01*
X162589950Y-86859954D01*
X162589949Y-86859954D01*
X162728036Y-86900499D01*
X162728038Y-86900500D01*
X162728039Y-86900500D01*
X162871962Y-86900500D01*
X162871962Y-86900499D01*
X163010053Y-86859953D01*
X163131128Y-86782143D01*
X163225377Y-86673373D01*
X163285165Y-86542457D01*
X163305647Y-86400000D01*
X163285165Y-86257543D01*
X163225377Y-86126627D01*
X163131128Y-86017857D01*
X163010053Y-85940047D01*
X163010051Y-85940046D01*
X163010049Y-85940045D01*
X163010050Y-85940045D01*
X162871963Y-85899500D01*
X162871961Y-85899500D01*
X162728039Y-85899500D01*
X162728036Y-85899500D01*
X162589949Y-85940045D01*
X162468873Y-86017856D01*
X162374623Y-86126626D01*
X162374622Y-86126628D01*
X162314834Y-86257543D01*
X162294353Y-86400000D01*
X144900500Y-86400000D01*
X144900500Y-85540000D01*
X175844417Y-85540000D01*
X175864699Y-85745932D01*
X175864700Y-85745934D01*
X175924768Y-85943954D01*
X176022315Y-86126450D01*
X176022461Y-86126628D01*
X176153589Y-86286410D01*
X176250209Y-86365702D01*
X176313550Y-86417685D01*
X176496046Y-86515232D01*
X176694066Y-86575300D01*
X176694065Y-86575300D01*
X176712529Y-86577118D01*
X176900000Y-86595583D01*
X177105934Y-86575300D01*
X177303954Y-86515232D01*
X177486450Y-86417685D01*
X177646410Y-86286410D01*
X177777685Y-86126450D01*
X177875232Y-85943954D01*
X177935300Y-85745934D01*
X177955583Y-85540000D01*
X179644417Y-85540000D01*
X179664699Y-85745932D01*
X179664700Y-85745934D01*
X179724768Y-85943954D01*
X179822315Y-86126450D01*
X179822461Y-86126628D01*
X179953589Y-86286410D01*
X180050209Y-86365702D01*
X180113550Y-86417685D01*
X180296046Y-86515232D01*
X180494066Y-86575300D01*
X180494065Y-86575300D01*
X180512529Y-86577118D01*
X180700000Y-86595583D01*
X180905934Y-86575300D01*
X181103954Y-86515232D01*
X181286450Y-86417685D01*
X181446410Y-86286410D01*
X181577685Y-86126450D01*
X181675232Y-85943954D01*
X181735300Y-85745934D01*
X181755583Y-85540000D01*
X181735300Y-85334066D01*
X181675232Y-85136046D01*
X181577685Y-84953550D01*
X181500873Y-84859954D01*
X181446410Y-84793589D01*
X181328677Y-84696969D01*
X181286450Y-84662315D01*
X181103954Y-84564768D01*
X180905934Y-84504700D01*
X180905932Y-84504699D01*
X180905934Y-84504699D01*
X180700000Y-84484417D01*
X180494067Y-84504699D01*
X180296043Y-84564769D01*
X180185898Y-84623643D01*
X180113550Y-84662315D01*
X180113548Y-84662316D01*
X180113547Y-84662317D01*
X179953589Y-84793589D01*
X179822317Y-84953547D01*
X179724769Y-85136043D01*
X179664699Y-85334067D01*
X179644417Y-85540000D01*
X177955583Y-85540000D01*
X177935300Y-85334066D01*
X177875232Y-85136046D01*
X177777685Y-84953550D01*
X177700873Y-84859954D01*
X177646410Y-84793589D01*
X177528677Y-84696969D01*
X177486450Y-84662315D01*
X177303954Y-84564768D01*
X177105934Y-84504700D01*
X177105932Y-84504699D01*
X177105934Y-84504699D01*
X176900000Y-84484417D01*
X176694067Y-84504699D01*
X176496043Y-84564769D01*
X176385898Y-84623643D01*
X176313550Y-84662315D01*
X176313548Y-84662316D01*
X176313547Y-84662317D01*
X176153589Y-84793589D01*
X176022317Y-84953547D01*
X175924769Y-85136043D01*
X175864699Y-85334067D01*
X175844417Y-85540000D01*
X144900500Y-85540000D01*
X144900500Y-83130247D01*
X146649500Y-83130247D01*
X146649500Y-84869752D01*
X146661131Y-84928229D01*
X146661132Y-84928230D01*
X146705447Y-84994552D01*
X146771769Y-85038867D01*
X146771770Y-85038868D01*
X146830247Y-85050499D01*
X146830250Y-85050500D01*
X146830252Y-85050500D01*
X148569750Y-85050500D01*
X148569751Y-85050499D01*
X148584568Y-85047552D01*
X148628229Y-85038868D01*
X148628229Y-85038867D01*
X148628231Y-85038867D01*
X148694552Y-84994552D01*
X148738867Y-84928231D01*
X148738867Y-84928229D01*
X148738868Y-84928229D01*
X148750499Y-84869752D01*
X148750500Y-84869750D01*
X148750500Y-84100000D01*
X156094353Y-84100000D01*
X156114834Y-84242456D01*
X156160504Y-84342457D01*
X156174623Y-84373373D01*
X156268872Y-84482143D01*
X156389947Y-84559953D01*
X156389950Y-84559954D01*
X156389949Y-84559954D01*
X156528036Y-84600499D01*
X156528038Y-84600500D01*
X156528039Y-84600500D01*
X156671962Y-84600500D01*
X156671962Y-84600499D01*
X156793651Y-84564769D01*
X156810050Y-84559954D01*
X156810050Y-84559953D01*
X156810053Y-84559953D01*
X156931128Y-84482143D01*
X157025377Y-84373373D01*
X157085165Y-84242457D01*
X157091269Y-84200000D01*
X159594353Y-84200000D01*
X159614834Y-84342456D01*
X159660504Y-84442457D01*
X159674623Y-84473373D01*
X159768872Y-84582143D01*
X159889947Y-84659953D01*
X159889950Y-84659954D01*
X159889949Y-84659954D01*
X160028036Y-84700499D01*
X160028038Y-84700500D01*
X160028039Y-84700500D01*
X160171962Y-84700500D01*
X160171962Y-84700499D01*
X160310053Y-84659953D01*
X160431128Y-84582143D01*
X160525377Y-84473373D01*
X160530698Y-84461721D01*
X160576449Y-84408919D01*
X160643488Y-84389232D01*
X160710528Y-84408914D01*
X160710531Y-84408916D01*
X160789949Y-84459954D01*
X160928036Y-84500499D01*
X160928038Y-84500500D01*
X160928039Y-84500500D01*
X161071962Y-84500500D01*
X161071962Y-84500499D01*
X161179121Y-84469035D01*
X161210050Y-84459954D01*
X161210051Y-84459954D01*
X161289464Y-84408919D01*
X161315877Y-84391943D01*
X161382917Y-84372259D01*
X161449956Y-84391943D01*
X161495711Y-84444747D01*
X161505655Y-84478611D01*
X161514834Y-84542456D01*
X161562233Y-84646244D01*
X161574623Y-84673373D01*
X161668872Y-84782143D01*
X161789947Y-84859953D01*
X161789950Y-84859954D01*
X161789949Y-84859954D01*
X161928036Y-84900499D01*
X161928038Y-84900500D01*
X161928039Y-84900500D01*
X162071962Y-84900500D01*
X162071962Y-84900499D01*
X162210053Y-84859953D01*
X162331128Y-84782143D01*
X162365691Y-84742254D01*
X162424466Y-84704480D01*
X162494336Y-84704479D01*
X162526442Y-84719141D01*
X162589947Y-84759953D01*
X162589950Y-84759954D01*
X162589949Y-84759954D01*
X162665520Y-84782143D01*
X162704505Y-84793590D01*
X162728036Y-84800499D01*
X162728038Y-84800500D01*
X162728039Y-84800500D01*
X162871962Y-84800500D01*
X162871962Y-84800499D01*
X163010053Y-84759953D01*
X163131128Y-84682143D01*
X163225377Y-84573373D01*
X163285165Y-84442457D01*
X163305647Y-84300000D01*
X163285165Y-84157543D01*
X163265685Y-84114888D01*
X163255741Y-84045729D01*
X163284766Y-83982173D01*
X163311436Y-83959063D01*
X163431128Y-83882143D01*
X163502305Y-83800000D01*
X171694353Y-83800000D01*
X171714834Y-83942456D01*
X171774622Y-84073371D01*
X171774623Y-84073373D01*
X171868872Y-84182143D01*
X171989947Y-84259953D01*
X171989950Y-84259954D01*
X171989949Y-84259954D01*
X172097107Y-84291417D01*
X172126336Y-84300000D01*
X172128036Y-84300499D01*
X172128038Y-84300500D01*
X172128039Y-84300500D01*
X172271962Y-84300500D01*
X172271962Y-84300499D01*
X172410053Y-84259953D01*
X172531128Y-84182143D01*
X172625377Y-84073373D01*
X172685165Y-83942457D01*
X172705647Y-83800000D01*
X172685165Y-83657543D01*
X172625377Y-83526627D01*
X172531128Y-83417857D01*
X172410053Y-83340047D01*
X172410051Y-83340046D01*
X172410049Y-83340045D01*
X172410050Y-83340045D01*
X172271963Y-83299500D01*
X172271961Y-83299500D01*
X172128039Y-83299500D01*
X172128036Y-83299500D01*
X171989949Y-83340045D01*
X171868873Y-83417856D01*
X171774623Y-83526626D01*
X171774622Y-83526628D01*
X171714834Y-83657543D01*
X171694353Y-83800000D01*
X163502305Y-83800000D01*
X163525377Y-83773373D01*
X163585165Y-83642457D01*
X163605647Y-83500000D01*
X163585165Y-83357543D01*
X163525377Y-83226627D01*
X163431128Y-83117857D01*
X163310053Y-83040047D01*
X163310051Y-83040046D01*
X163310049Y-83040045D01*
X163310050Y-83040045D01*
X163171963Y-82999500D01*
X163171961Y-82999500D01*
X163028039Y-82999500D01*
X163028036Y-82999500D01*
X162889949Y-83040045D01*
X162768873Y-83117856D01*
X162674623Y-83226626D01*
X162674622Y-83226628D01*
X162614834Y-83357543D01*
X162594353Y-83500000D01*
X162614834Y-83642457D01*
X162614835Y-83642458D01*
X162634314Y-83685111D01*
X162644258Y-83754269D01*
X162615233Y-83817825D01*
X162588560Y-83840937D01*
X162468874Y-83917855D01*
X162468869Y-83917859D01*
X162434308Y-83957745D01*
X162375530Y-83995519D01*
X162305660Y-83995519D01*
X162273557Y-83980858D01*
X162210050Y-83940045D01*
X162071963Y-83899500D01*
X162071961Y-83899500D01*
X161928039Y-83899500D01*
X161928036Y-83899500D01*
X161789949Y-83940045D01*
X161789946Y-83940046D01*
X161684120Y-84008056D01*
X161617081Y-84027740D01*
X161550042Y-84008055D01*
X161504287Y-83955250D01*
X161494344Y-83921386D01*
X161485165Y-83857543D01*
X161471046Y-83826627D01*
X161425377Y-83726627D01*
X161331128Y-83617857D01*
X161210053Y-83540047D01*
X161210051Y-83540046D01*
X161210049Y-83540045D01*
X161210050Y-83540045D01*
X161071963Y-83499500D01*
X161071961Y-83499500D01*
X160928039Y-83499500D01*
X160928036Y-83499500D01*
X160789949Y-83540045D01*
X160668873Y-83617856D01*
X160574623Y-83726626D01*
X160574622Y-83726628D01*
X160569301Y-83738280D01*
X160523546Y-83791084D01*
X160456506Y-83810768D01*
X160389468Y-83791084D01*
X160361906Y-83773371D01*
X160310053Y-83740047D01*
X160310051Y-83740046D01*
X160310049Y-83740045D01*
X160310050Y-83740045D01*
X160171963Y-83699500D01*
X160171961Y-83699500D01*
X160028039Y-83699500D01*
X160028036Y-83699500D01*
X159889949Y-83740045D01*
X159768873Y-83817856D01*
X159674623Y-83926626D01*
X159674622Y-83926628D01*
X159614834Y-84057543D01*
X159594353Y-84200000D01*
X157091269Y-84200000D01*
X157105647Y-84100000D01*
X157085165Y-83957543D01*
X157025377Y-83826627D01*
X156931128Y-83717857D01*
X156810053Y-83640047D01*
X156810051Y-83640046D01*
X156810049Y-83640045D01*
X156810050Y-83640045D01*
X156671963Y-83599500D01*
X156671961Y-83599500D01*
X156528039Y-83599500D01*
X156528036Y-83599500D01*
X156389949Y-83640045D01*
X156268873Y-83717856D01*
X156174623Y-83826626D01*
X156174622Y-83826628D01*
X156114834Y-83957543D01*
X156094353Y-84100000D01*
X148750500Y-84100000D01*
X148750500Y-83130249D01*
X148750499Y-83130247D01*
X148738868Y-83071770D01*
X148738867Y-83071769D01*
X148694552Y-83005447D01*
X148628230Y-82961132D01*
X148628229Y-82961131D01*
X148569752Y-82949500D01*
X148569748Y-82949500D01*
X146830252Y-82949500D01*
X146830247Y-82949500D01*
X146771770Y-82961131D01*
X146771769Y-82961132D01*
X146705447Y-83005447D01*
X146661132Y-83071769D01*
X146661131Y-83071770D01*
X146649500Y-83130247D01*
X144900500Y-83130247D01*
X144900500Y-81700000D01*
X172694353Y-81700000D01*
X172714834Y-81842456D01*
X172763720Y-81949500D01*
X172774623Y-81973373D01*
X172868872Y-82082143D01*
X172989947Y-82159953D01*
X172989950Y-82159954D01*
X172989949Y-82159954D01*
X173128036Y-82200499D01*
X173128038Y-82200500D01*
X173128039Y-82200500D01*
X173271962Y-82200500D01*
X173271962Y-82200499D01*
X173410053Y-82159953D01*
X173456277Y-82130247D01*
X175849500Y-82130247D01*
X175849500Y-83869752D01*
X175861131Y-83928229D01*
X175861132Y-83928230D01*
X175905447Y-83994552D01*
X175971769Y-84038867D01*
X175971770Y-84038868D01*
X176030247Y-84050499D01*
X176030250Y-84050500D01*
X176030252Y-84050500D01*
X177769750Y-84050500D01*
X177769751Y-84050499D01*
X177784568Y-84047552D01*
X177828229Y-84038868D01*
X177828229Y-84038867D01*
X177828231Y-84038867D01*
X177894552Y-83994552D01*
X177938867Y-83928231D01*
X177938867Y-83928229D01*
X177938868Y-83928229D01*
X177950499Y-83869752D01*
X177950500Y-83869750D01*
X177950500Y-82130249D01*
X177950499Y-82130247D01*
X179649500Y-82130247D01*
X179649500Y-83869752D01*
X179661131Y-83928229D01*
X179661132Y-83928230D01*
X179705447Y-83994552D01*
X179771769Y-84038867D01*
X179771770Y-84038868D01*
X179830247Y-84050499D01*
X179830250Y-84050500D01*
X179830252Y-84050500D01*
X181569750Y-84050500D01*
X181569751Y-84050499D01*
X181584568Y-84047552D01*
X181628229Y-84038868D01*
X181628229Y-84038867D01*
X181628231Y-84038867D01*
X181694552Y-83994552D01*
X181738867Y-83928231D01*
X181738867Y-83928229D01*
X181738868Y-83928229D01*
X181750499Y-83869752D01*
X181750500Y-83869750D01*
X181750500Y-82130249D01*
X181750499Y-82130247D01*
X181738868Y-82071770D01*
X181738867Y-82071769D01*
X181694552Y-82005447D01*
X181628230Y-81961132D01*
X181628229Y-81961131D01*
X181569752Y-81949500D01*
X181569748Y-81949500D01*
X179830252Y-81949500D01*
X179830247Y-81949500D01*
X179771770Y-81961131D01*
X179771769Y-81961132D01*
X179705447Y-82005447D01*
X179661132Y-82071769D01*
X179661131Y-82071770D01*
X179649500Y-82130247D01*
X177950499Y-82130247D01*
X177938868Y-82071770D01*
X177938867Y-82071769D01*
X177894552Y-82005447D01*
X177828230Y-81961132D01*
X177828229Y-81961131D01*
X177769752Y-81949500D01*
X177769748Y-81949500D01*
X176030252Y-81949500D01*
X176030247Y-81949500D01*
X175971770Y-81961131D01*
X175971769Y-81961132D01*
X175905447Y-82005447D01*
X175861132Y-82071769D01*
X175861131Y-82071770D01*
X175849500Y-82130247D01*
X173456277Y-82130247D01*
X173531128Y-82082143D01*
X173625377Y-81973373D01*
X173685165Y-81842457D01*
X173685886Y-81837443D01*
X173714910Y-81773887D01*
X173773688Y-81736112D01*
X173843558Y-81736112D01*
X173875663Y-81750774D01*
X173889944Y-81759952D01*
X173889949Y-81759954D01*
X174028036Y-81800499D01*
X174028038Y-81800500D01*
X174028039Y-81800500D01*
X174171962Y-81800500D01*
X174171962Y-81800499D01*
X174310053Y-81759953D01*
X174431128Y-81682143D01*
X174525377Y-81573373D01*
X174585165Y-81442457D01*
X174605647Y-81300000D01*
X174585165Y-81157543D01*
X174525377Y-81026627D01*
X174431128Y-80917857D01*
X174310053Y-80840047D01*
X174310051Y-80840046D01*
X174310049Y-80840045D01*
X174310050Y-80840045D01*
X174171963Y-80799500D01*
X174171961Y-80799500D01*
X174028039Y-80799500D01*
X174028036Y-80799500D01*
X173889949Y-80840045D01*
X173768873Y-80917856D01*
X173674623Y-81026626D01*
X173674622Y-81026628D01*
X173614834Y-81157544D01*
X173614834Y-81157545D01*
X173614112Y-81162566D01*
X173585082Y-81226119D01*
X173526301Y-81263890D01*
X173456432Y-81263885D01*
X173424337Y-81249226D01*
X173410053Y-81240047D01*
X173410050Y-81240045D01*
X173271963Y-81199500D01*
X173271961Y-81199500D01*
X173128039Y-81199500D01*
X173128036Y-81199500D01*
X172989949Y-81240045D01*
X172868873Y-81317856D01*
X172774623Y-81426626D01*
X172774622Y-81426628D01*
X172714834Y-81557543D01*
X172694353Y-81700000D01*
X144900500Y-81700000D01*
X144900500Y-80200000D01*
X160594353Y-80200000D01*
X160614834Y-80342456D01*
X160674622Y-80473371D01*
X160674623Y-80473373D01*
X160768872Y-80582143D01*
X160889947Y-80659953D01*
X160889950Y-80659954D01*
X160889949Y-80659954D01*
X161028036Y-80700499D01*
X161028038Y-80700500D01*
X161028039Y-80700500D01*
X161171962Y-80700500D01*
X161171962Y-80700499D01*
X161310053Y-80659953D01*
X161431128Y-80582143D01*
X161502305Y-80500000D01*
X168094353Y-80500000D01*
X168114834Y-80642456D01*
X168174622Y-80773371D01*
X168174623Y-80773373D01*
X168268872Y-80882143D01*
X168389947Y-80959953D01*
X168389950Y-80959954D01*
X168389949Y-80959954D01*
X168528036Y-81000499D01*
X168528038Y-81000500D01*
X168528039Y-81000500D01*
X168671962Y-81000500D01*
X168671962Y-81000499D01*
X168810053Y-80959953D01*
X168931128Y-80882143D01*
X169025377Y-80773373D01*
X169085165Y-80642457D01*
X169105647Y-80500000D01*
X169085165Y-80357543D01*
X169025377Y-80226627D01*
X168931128Y-80117857D01*
X168810053Y-80040047D01*
X168810051Y-80040046D01*
X168810049Y-80040045D01*
X168810050Y-80040045D01*
X168671963Y-79999500D01*
X168671961Y-79999500D01*
X168528039Y-79999500D01*
X168528036Y-79999500D01*
X168389949Y-80040045D01*
X168268873Y-80117856D01*
X168174623Y-80226626D01*
X168174622Y-80226628D01*
X168114834Y-80357543D01*
X168094353Y-80500000D01*
X161502305Y-80500000D01*
X161525377Y-80473373D01*
X161585165Y-80342457D01*
X161605647Y-80200000D01*
X161585165Y-80057543D01*
X161525377Y-79926627D01*
X161431128Y-79817857D01*
X161403342Y-79800000D01*
X172694353Y-79800000D01*
X172714834Y-79942456D01*
X172774622Y-80073371D01*
X172774623Y-80073373D01*
X172868872Y-80182143D01*
X172989947Y-80259953D01*
X172989950Y-80259954D01*
X172989949Y-80259954D01*
X173128036Y-80300499D01*
X173128038Y-80300500D01*
X173128039Y-80300500D01*
X173271962Y-80300500D01*
X173271962Y-80300499D01*
X173410053Y-80259953D01*
X173531128Y-80182143D01*
X173625377Y-80073373D01*
X173685165Y-79942457D01*
X173705647Y-79800000D01*
X173685165Y-79657543D01*
X173625377Y-79526627D01*
X173531128Y-79417857D01*
X173410053Y-79340047D01*
X173410051Y-79340046D01*
X173410049Y-79340045D01*
X173410050Y-79340045D01*
X173271963Y-79299500D01*
X173271961Y-79299500D01*
X173128039Y-79299500D01*
X173128036Y-79299500D01*
X172989949Y-79340045D01*
X172868873Y-79417856D01*
X172774623Y-79526626D01*
X172774622Y-79526628D01*
X172714834Y-79657543D01*
X172694353Y-79800000D01*
X161403342Y-79800000D01*
X161310053Y-79740047D01*
X161310051Y-79740046D01*
X161310049Y-79740045D01*
X161310050Y-79740045D01*
X161171963Y-79699500D01*
X161171961Y-79699500D01*
X161028039Y-79699500D01*
X161028036Y-79699500D01*
X160889949Y-79740045D01*
X160768873Y-79817856D01*
X160674623Y-79926626D01*
X160674622Y-79926628D01*
X160614834Y-80057543D01*
X160594353Y-80200000D01*
X144900500Y-80200000D01*
X144900500Y-79965291D01*
X144920185Y-79898252D01*
X144972989Y-79852497D01*
X145042147Y-79842553D01*
X145081450Y-79857215D01*
X145081882Y-79856270D01*
X145089949Y-79859954D01*
X145228036Y-79900499D01*
X145228038Y-79900500D01*
X145228039Y-79900500D01*
X145371962Y-79900500D01*
X145371962Y-79900499D01*
X145510053Y-79859953D01*
X145631128Y-79782143D01*
X145725377Y-79673373D01*
X145785165Y-79542457D01*
X145805647Y-79400000D01*
X150594353Y-79400000D01*
X150614834Y-79542456D01*
X150674622Y-79673371D01*
X150674623Y-79673373D01*
X150768872Y-79782143D01*
X150889947Y-79859953D01*
X150889950Y-79859954D01*
X150889949Y-79859954D01*
X151028036Y-79900499D01*
X151028038Y-79900500D01*
X151028039Y-79900500D01*
X151171962Y-79900500D01*
X151171962Y-79900499D01*
X151310053Y-79859953D01*
X151431128Y-79782143D01*
X151525377Y-79673373D01*
X151585165Y-79542457D01*
X151591269Y-79500000D01*
X155694353Y-79500000D01*
X155714834Y-79642456D01*
X155728953Y-79673371D01*
X155774623Y-79773373D01*
X155868872Y-79882143D01*
X155989947Y-79959953D01*
X155989950Y-79959954D01*
X155989949Y-79959954D01*
X156097107Y-79991417D01*
X156124633Y-79999500D01*
X156128036Y-80000499D01*
X156128038Y-80000500D01*
X156128039Y-80000500D01*
X156271962Y-80000500D01*
X156271962Y-80000499D01*
X156410053Y-79959953D01*
X156531128Y-79882143D01*
X156625377Y-79773373D01*
X156685165Y-79642457D01*
X156705647Y-79500000D01*
X156685165Y-79357543D01*
X156625377Y-79226627D01*
X156531128Y-79117857D01*
X156410053Y-79040047D01*
X156410051Y-79040046D01*
X156410049Y-79040045D01*
X156410050Y-79040045D01*
X156271963Y-78999500D01*
X156271961Y-78999500D01*
X156128039Y-78999500D01*
X156128036Y-78999500D01*
X155989949Y-79040045D01*
X155868873Y-79117856D01*
X155774623Y-79226626D01*
X155774622Y-79226628D01*
X155714834Y-79357543D01*
X155694353Y-79500000D01*
X151591269Y-79500000D01*
X151605647Y-79400000D01*
X151585165Y-79257543D01*
X151525377Y-79126627D01*
X151431128Y-79017857D01*
X151310053Y-78940047D01*
X151310051Y-78940046D01*
X151310049Y-78940045D01*
X151310050Y-78940045D01*
X151173666Y-78900000D01*
X162694353Y-78900000D01*
X162714834Y-79042456D01*
X162760504Y-79142457D01*
X162774623Y-79173373D01*
X162868872Y-79282143D01*
X162989947Y-79359953D01*
X162989950Y-79359954D01*
X162989949Y-79359954D01*
X163065520Y-79382143D01*
X163126336Y-79400000D01*
X163128036Y-79400499D01*
X163128038Y-79400500D01*
X163128039Y-79400500D01*
X163271962Y-79400500D01*
X163271962Y-79400499D01*
X163410053Y-79359953D01*
X163531128Y-79282143D01*
X163625377Y-79173373D01*
X163685165Y-79042457D01*
X163691269Y-79000000D01*
X167394353Y-79000000D01*
X167414834Y-79142456D01*
X167474622Y-79273371D01*
X167474623Y-79273373D01*
X167568872Y-79382143D01*
X167689947Y-79459953D01*
X167689950Y-79459954D01*
X167689949Y-79459954D01*
X167797107Y-79491417D01*
X167826336Y-79500000D01*
X167828036Y-79500499D01*
X167828038Y-79500500D01*
X167828039Y-79500500D01*
X167971962Y-79500500D01*
X167971962Y-79500499D01*
X168110053Y-79459953D01*
X168231128Y-79382143D01*
X168325377Y-79273373D01*
X168385165Y-79142457D01*
X168405647Y-79000000D01*
X168385165Y-78857543D01*
X168325377Y-78726627D01*
X168231128Y-78617857D01*
X168110053Y-78540047D01*
X168110051Y-78540046D01*
X168110049Y-78540045D01*
X168110050Y-78540045D01*
X167971963Y-78499500D01*
X167971961Y-78499500D01*
X167828039Y-78499500D01*
X167828036Y-78499500D01*
X167689949Y-78540045D01*
X167568873Y-78617856D01*
X167474623Y-78726626D01*
X167474622Y-78726628D01*
X167414834Y-78857543D01*
X167394353Y-79000000D01*
X163691269Y-79000000D01*
X163705647Y-78900000D01*
X163685165Y-78757543D01*
X163625377Y-78626627D01*
X163531128Y-78517857D01*
X163531129Y-78517857D01*
X163529418Y-78515883D01*
X163500393Y-78452328D01*
X163510337Y-78383169D01*
X163556090Y-78330366D01*
X163631128Y-78282143D01*
X163725377Y-78173373D01*
X163785165Y-78042457D01*
X163805647Y-77900000D01*
X166694353Y-77900000D01*
X166714834Y-78042456D01*
X166760504Y-78142457D01*
X166774623Y-78173373D01*
X166868872Y-78282143D01*
X166989947Y-78359953D01*
X166989950Y-78359954D01*
X166989949Y-78359954D01*
X167065520Y-78382143D01*
X167124633Y-78399500D01*
X167128036Y-78400499D01*
X167128038Y-78400500D01*
X167128039Y-78400500D01*
X167271962Y-78400500D01*
X167271962Y-78400499D01*
X167410053Y-78359953D01*
X167531128Y-78282143D01*
X167625377Y-78173373D01*
X167685165Y-78042457D01*
X167691269Y-78000000D01*
X171994353Y-78000000D01*
X172014834Y-78142456D01*
X172041114Y-78200000D01*
X172074623Y-78273373D01*
X172168872Y-78382143D01*
X172289947Y-78459953D01*
X172289950Y-78459954D01*
X172289949Y-78459954D01*
X172397107Y-78491417D01*
X172424633Y-78499500D01*
X172428036Y-78500499D01*
X172428038Y-78500500D01*
X172428039Y-78500500D01*
X172571962Y-78500500D01*
X172571962Y-78500499D01*
X172710053Y-78459953D01*
X172831128Y-78382143D01*
X172925377Y-78273373D01*
X172985165Y-78142457D01*
X173005647Y-78000000D01*
X172985165Y-77857543D01*
X172925377Y-77726627D01*
X172831128Y-77617857D01*
X172710053Y-77540047D01*
X172710051Y-77540046D01*
X172710049Y-77540045D01*
X172710050Y-77540045D01*
X172571963Y-77499500D01*
X172571961Y-77499500D01*
X172428039Y-77499500D01*
X172428036Y-77499500D01*
X172289949Y-77540045D01*
X172168873Y-77617856D01*
X172074623Y-77726626D01*
X172074622Y-77726628D01*
X172014834Y-77857543D01*
X171994353Y-78000000D01*
X167691269Y-78000000D01*
X167705647Y-77900000D01*
X167685165Y-77757543D01*
X167625377Y-77626627D01*
X167531128Y-77517857D01*
X167410053Y-77440047D01*
X167410051Y-77440046D01*
X167410049Y-77440045D01*
X167410050Y-77440045D01*
X167271963Y-77399500D01*
X167271961Y-77399500D01*
X167128039Y-77399500D01*
X167128036Y-77399500D01*
X166989949Y-77440045D01*
X166868873Y-77517856D01*
X166774623Y-77626626D01*
X166774622Y-77626628D01*
X166714834Y-77757543D01*
X166694353Y-77900000D01*
X163805647Y-77900000D01*
X163785165Y-77757543D01*
X163725377Y-77626627D01*
X163631128Y-77517857D01*
X163510053Y-77440047D01*
X163510051Y-77440046D01*
X163510049Y-77440045D01*
X163510050Y-77440045D01*
X163371963Y-77399500D01*
X163371961Y-77399500D01*
X163228039Y-77399500D01*
X163228036Y-77399500D01*
X163089949Y-77440045D01*
X162968873Y-77517856D01*
X162874623Y-77626626D01*
X162874622Y-77626628D01*
X162814834Y-77757543D01*
X162794353Y-77900000D01*
X162814834Y-78042456D01*
X162874622Y-78173371D01*
X162874625Y-78173377D01*
X162970581Y-78284116D01*
X162999606Y-78347671D01*
X162989662Y-78416830D01*
X162943908Y-78469633D01*
X162868874Y-78517855D01*
X162774623Y-78626626D01*
X162774622Y-78626628D01*
X162714834Y-78757543D01*
X162694353Y-78900000D01*
X151173666Y-78900000D01*
X151171963Y-78899500D01*
X151171961Y-78899500D01*
X151028039Y-78899500D01*
X151028036Y-78899500D01*
X150889949Y-78940045D01*
X150768873Y-79017856D01*
X150674623Y-79126626D01*
X150674622Y-79126628D01*
X150614834Y-79257543D01*
X150594353Y-79400000D01*
X145805647Y-79400000D01*
X145785165Y-79257543D01*
X145725377Y-79126627D01*
X145631128Y-79017857D01*
X145510053Y-78940047D01*
X145510051Y-78940046D01*
X145510049Y-78940045D01*
X145510050Y-78940045D01*
X145371963Y-78899500D01*
X145371961Y-78899500D01*
X145228039Y-78899500D01*
X145228036Y-78899500D01*
X145089949Y-78940045D01*
X145081882Y-78943730D01*
X145081128Y-78942081D01*
X145024498Y-78958708D01*
X144957459Y-78939022D01*
X144911705Y-78886218D01*
X144900500Y-78834708D01*
X144900500Y-78200000D01*
X157894353Y-78200000D01*
X157914834Y-78342456D01*
X157948800Y-78416830D01*
X157974623Y-78473373D01*
X158068872Y-78582143D01*
X158189947Y-78659953D01*
X158189950Y-78659954D01*
X158189949Y-78659954D01*
X158328036Y-78700499D01*
X158328038Y-78700500D01*
X158328039Y-78700500D01*
X158471962Y-78700500D01*
X158471962Y-78700499D01*
X158610053Y-78659953D01*
X158731128Y-78582143D01*
X158825377Y-78473373D01*
X158837206Y-78447470D01*
X158882960Y-78394668D01*
X158950000Y-78374983D01*
X159017039Y-78394667D01*
X159062793Y-78447470D01*
X159074623Y-78473373D01*
X159168872Y-78582143D01*
X159289947Y-78659953D01*
X159289950Y-78659954D01*
X159289949Y-78659954D01*
X159428036Y-78700499D01*
X159428038Y-78700500D01*
X159428039Y-78700500D01*
X159571962Y-78700500D01*
X159571962Y-78700499D01*
X159710053Y-78659953D01*
X159831128Y-78582143D01*
X159925377Y-78473373D01*
X159985165Y-78342457D01*
X160005647Y-78200000D01*
X159985165Y-78057543D01*
X159925377Y-77926627D01*
X159831128Y-77817857D01*
X159710053Y-77740047D01*
X159710051Y-77740046D01*
X159710049Y-77740045D01*
X159710050Y-77740045D01*
X159571963Y-77699500D01*
X159571961Y-77699500D01*
X159428039Y-77699500D01*
X159428036Y-77699500D01*
X159289949Y-77740045D01*
X159168873Y-77817856D01*
X159074623Y-77926626D01*
X159074622Y-77926628D01*
X159062794Y-77952528D01*
X159017039Y-78005332D01*
X158949999Y-78025016D01*
X158882960Y-78005331D01*
X158837206Y-77952528D01*
X158825377Y-77926628D01*
X158825376Y-77926626D01*
X158731128Y-77817857D01*
X158610053Y-77740047D01*
X158610051Y-77740046D01*
X158610049Y-77740045D01*
X158610050Y-77740045D01*
X158471963Y-77699500D01*
X158471961Y-77699500D01*
X158328039Y-77699500D01*
X158328036Y-77699500D01*
X158189949Y-77740045D01*
X158068873Y-77817856D01*
X157974623Y-77926626D01*
X157974622Y-77926628D01*
X157914834Y-78057543D01*
X157894353Y-78200000D01*
X144900500Y-78200000D01*
X144900500Y-73600000D01*
X153394353Y-73600000D01*
X153414834Y-73742456D01*
X153474622Y-73873371D01*
X153474623Y-73873373D01*
X153568872Y-73982143D01*
X153689947Y-74059953D01*
X153689950Y-74059954D01*
X153689949Y-74059954D01*
X153828036Y-74100499D01*
X153828038Y-74100500D01*
X153828039Y-74100500D01*
X153971962Y-74100500D01*
X153971962Y-74100499D01*
X154110053Y-74059953D01*
X154231128Y-73982143D01*
X154325377Y-73873373D01*
X154385165Y-73742457D01*
X154405647Y-73600000D01*
X154385165Y-73457543D01*
X154325377Y-73326627D01*
X154231128Y-73217857D01*
X154110053Y-73140047D01*
X154110051Y-73140046D01*
X154110049Y-73140045D01*
X154110050Y-73140045D01*
X153971963Y-73099500D01*
X153971961Y-73099500D01*
X153828039Y-73099500D01*
X153828036Y-73099500D01*
X153689949Y-73140045D01*
X153568873Y-73217856D01*
X153474623Y-73326626D01*
X153474622Y-73326628D01*
X153414834Y-73457543D01*
X153394353Y-73600000D01*
X144900500Y-73600000D01*
X144900500Y-72400000D01*
X150794353Y-72400000D01*
X150814834Y-72542456D01*
X150874622Y-72673371D01*
X150874623Y-72673373D01*
X150968872Y-72782143D01*
X151089947Y-72859953D01*
X151089950Y-72859954D01*
X151089949Y-72859954D01*
X151228036Y-72900499D01*
X151228038Y-72900500D01*
X151228039Y-72900500D01*
X151371962Y-72900500D01*
X151371962Y-72900499D01*
X151510053Y-72859953D01*
X151631128Y-72782143D01*
X151725377Y-72673373D01*
X151785165Y-72542457D01*
X151805647Y-72400000D01*
X151785165Y-72257543D01*
X151725377Y-72126627D01*
X151631128Y-72017857D01*
X151510053Y-71940047D01*
X151510051Y-71940046D01*
X151510049Y-71940045D01*
X151510050Y-71940045D01*
X151371963Y-71899500D01*
X151371961Y-71899500D01*
X151228039Y-71899500D01*
X151228036Y-71899500D01*
X151089949Y-71940045D01*
X150968873Y-72017856D01*
X150874623Y-72126626D01*
X150874622Y-72126628D01*
X150814834Y-72257543D01*
X150794353Y-72400000D01*
X144900500Y-72400000D01*
X144900500Y-70600000D01*
X156594353Y-70600000D01*
X156614834Y-70742456D01*
X156616972Y-70747137D01*
X156674623Y-70873373D01*
X156768872Y-70982143D01*
X156889947Y-71059953D01*
X156889950Y-71059954D01*
X156889949Y-71059954D01*
X156997107Y-71091417D01*
X157024633Y-71099500D01*
X157028036Y-71100499D01*
X157028038Y-71100500D01*
X157028039Y-71100500D01*
X157171962Y-71100500D01*
X157171962Y-71100499D01*
X157288665Y-71066233D01*
X157310050Y-71059954D01*
X157310050Y-71059953D01*
X157310053Y-71059953D01*
X157431128Y-70982143D01*
X157525377Y-70873373D01*
X157585165Y-70742457D01*
X157605647Y-70600000D01*
X160794353Y-70600000D01*
X160814834Y-70742456D01*
X160816972Y-70747137D01*
X160874623Y-70873373D01*
X160968872Y-70982143D01*
X161089947Y-71059953D01*
X161089950Y-71059954D01*
X161089949Y-71059954D01*
X161197107Y-71091417D01*
X161224633Y-71099500D01*
X161228036Y-71100499D01*
X161228038Y-71100500D01*
X161228039Y-71100500D01*
X161371962Y-71100500D01*
X161380740Y-71099238D01*
X161381120Y-71101883D01*
X161437103Y-71101871D01*
X161495891Y-71139631D01*
X161524931Y-71203180D01*
X161515004Y-71272341D01*
X161495912Y-71302056D01*
X161474625Y-71326622D01*
X161474622Y-71326628D01*
X161414834Y-71457543D01*
X161394353Y-71600000D01*
X161414834Y-71742456D01*
X161445967Y-71810626D01*
X161474623Y-71873373D01*
X161568872Y-71982143D01*
X161689947Y-72059953D01*
X161689950Y-72059954D01*
X161689949Y-72059954D01*
X161828036Y-72100499D01*
X161828038Y-72100500D01*
X161828039Y-72100500D01*
X161971962Y-72100500D01*
X161971962Y-72100499D01*
X162110053Y-72059953D01*
X162231128Y-71982143D01*
X162325377Y-71873373D01*
X162385165Y-71742457D01*
X162405647Y-71600000D01*
X162385165Y-71457543D01*
X162325377Y-71326627D01*
X162231128Y-71217857D01*
X162110053Y-71140047D01*
X162110051Y-71140046D01*
X162110049Y-71140045D01*
X162110050Y-71140045D01*
X161971963Y-71099500D01*
X161971961Y-71099500D01*
X161828039Y-71099500D01*
X161828038Y-71099500D01*
X161819260Y-71100762D01*
X161818880Y-71098122D01*
X161762858Y-71098118D01*
X161713245Y-71066228D01*
X173499500Y-71066228D01*
X173499500Y-71233771D01*
X173532182Y-71398074D01*
X173532184Y-71398082D01*
X173596295Y-71552860D01*
X173689373Y-71692162D01*
X173807837Y-71810626D01*
X173900494Y-71872537D01*
X173947137Y-71903703D01*
X174101918Y-71967816D01*
X174266228Y-72000499D01*
X174266232Y-72000500D01*
X174266233Y-72000500D01*
X174433768Y-72000500D01*
X174433769Y-72000499D01*
X174598082Y-71967816D01*
X174752863Y-71903703D01*
X174892162Y-71810626D01*
X175010626Y-71692162D01*
X175103703Y-71552863D01*
X175167816Y-71398082D01*
X175200500Y-71233767D01*
X175200500Y-71066233D01*
X175167816Y-70901918D01*
X175103703Y-70747137D01*
X175072537Y-70700494D01*
X175010626Y-70607837D01*
X174892162Y-70489373D01*
X174752860Y-70396295D01*
X174598082Y-70332184D01*
X174598074Y-70332182D01*
X174433771Y-70299500D01*
X174433767Y-70299500D01*
X174266233Y-70299500D01*
X174266228Y-70299500D01*
X174101925Y-70332182D01*
X174101917Y-70332184D01*
X173947139Y-70396295D01*
X173807837Y-70489373D01*
X173689373Y-70607837D01*
X173596295Y-70747139D01*
X173532184Y-70901917D01*
X173532182Y-70901925D01*
X173499500Y-71066228D01*
X161713245Y-71066228D01*
X161704083Y-71060339D01*
X161675063Y-70996781D01*
X161685011Y-70927623D01*
X161704090Y-70897940D01*
X161725374Y-70873377D01*
X161725374Y-70873375D01*
X161725377Y-70873373D01*
X161785165Y-70742457D01*
X161805647Y-70600000D01*
X161785165Y-70457543D01*
X161725377Y-70326627D01*
X161631128Y-70217857D01*
X161510053Y-70140047D01*
X161510051Y-70140046D01*
X161510049Y-70140045D01*
X161510050Y-70140045D01*
X161371963Y-70099500D01*
X161371961Y-70099500D01*
X161228039Y-70099500D01*
X161228036Y-70099500D01*
X161089949Y-70140045D01*
X160968873Y-70217856D01*
X160874623Y-70326626D01*
X160874622Y-70326628D01*
X160814834Y-70457543D01*
X160794353Y-70600000D01*
X157605647Y-70600000D01*
X157585165Y-70457543D01*
X157525377Y-70326627D01*
X157431128Y-70217857D01*
X157310053Y-70140047D01*
X157310051Y-70140046D01*
X157310049Y-70140045D01*
X157310050Y-70140045D01*
X157171963Y-70099500D01*
X157171961Y-70099500D01*
X157028039Y-70099500D01*
X157028036Y-70099500D01*
X156889949Y-70140045D01*
X156768873Y-70217856D01*
X156674623Y-70326626D01*
X156674622Y-70326628D01*
X156614834Y-70457543D01*
X156594353Y-70600000D01*
X144900500Y-70600000D01*
X144900500Y-65400000D01*
X150494353Y-65400000D01*
X150514834Y-65542456D01*
X150574622Y-65673371D01*
X150574623Y-65673373D01*
X150668872Y-65782143D01*
X150676324Y-65786932D01*
X150689943Y-65795685D01*
X150735698Y-65848489D01*
X150745641Y-65917648D01*
X150716615Y-65981203D01*
X150689943Y-66004315D01*
X150668874Y-66017855D01*
X150574623Y-66126626D01*
X150574622Y-66126628D01*
X150514834Y-66257543D01*
X150494353Y-66400000D01*
X150514834Y-66542456D01*
X150574622Y-66673371D01*
X150574623Y-66673373D01*
X150668872Y-66782143D01*
X150668874Y-66782144D01*
X150668876Y-66782146D01*
X150767744Y-66845685D01*
X150813499Y-66898488D01*
X150823443Y-66967647D01*
X150794418Y-67031203D01*
X150767744Y-67054315D01*
X150668876Y-67117853D01*
X150668874Y-67117855D01*
X150574623Y-67226626D01*
X150574622Y-67226628D01*
X150514834Y-67357543D01*
X150494353Y-67500000D01*
X150514834Y-67642456D01*
X150574622Y-67773371D01*
X150574623Y-67773373D01*
X150668872Y-67882143D01*
X150789947Y-67959953D01*
X150789950Y-67959954D01*
X150789949Y-67959954D01*
X150928036Y-68000499D01*
X150928038Y-68000500D01*
X150928039Y-68000500D01*
X151071962Y-68000500D01*
X151071962Y-68000499D01*
X151210053Y-67959953D01*
X151331128Y-67882143D01*
X151425377Y-67773373D01*
X151485165Y-67642457D01*
X151505647Y-67500000D01*
X151485165Y-67357543D01*
X151425377Y-67226627D01*
X151402305Y-67200000D01*
X161094353Y-67200000D01*
X161114834Y-67342456D01*
X161174622Y-67473371D01*
X161174623Y-67473373D01*
X161268872Y-67582143D01*
X161389947Y-67659953D01*
X161389950Y-67659954D01*
X161389949Y-67659954D01*
X161528036Y-67700499D01*
X161528038Y-67700500D01*
X161528039Y-67700500D01*
X161671962Y-67700500D01*
X161671962Y-67700499D01*
X161810053Y-67659953D01*
X161931128Y-67582143D01*
X162025377Y-67473373D01*
X162085165Y-67342457D01*
X162105647Y-67200000D01*
X162085165Y-67057543D01*
X162025377Y-66926627D01*
X161931128Y-66817857D01*
X161810053Y-66740047D01*
X161810051Y-66740046D01*
X161810049Y-66740045D01*
X161810050Y-66740045D01*
X161671963Y-66699500D01*
X161671961Y-66699500D01*
X161528039Y-66699500D01*
X161528036Y-66699500D01*
X161389949Y-66740045D01*
X161268873Y-66817856D01*
X161174623Y-66926626D01*
X161174622Y-66926628D01*
X161114834Y-67057543D01*
X161094353Y-67200000D01*
X151402305Y-67200000D01*
X151331128Y-67117857D01*
X151232253Y-67054314D01*
X151186500Y-67001512D01*
X151176556Y-66932354D01*
X151205581Y-66868798D01*
X151232254Y-66845685D01*
X151331128Y-66782143D01*
X151425377Y-66673373D01*
X151485165Y-66542457D01*
X151505647Y-66400000D01*
X151485165Y-66257543D01*
X151425377Y-66126627D01*
X151331128Y-66017857D01*
X151331125Y-66017855D01*
X151331125Y-66017854D01*
X151310058Y-66004316D01*
X151264302Y-65951513D01*
X151254358Y-65882354D01*
X151283382Y-65818798D01*
X151310058Y-65795684D01*
X151331125Y-65782145D01*
X151331125Y-65782144D01*
X151331128Y-65782143D01*
X151425377Y-65673373D01*
X151485165Y-65542457D01*
X151505647Y-65400000D01*
X151485165Y-65257543D01*
X151425377Y-65126627D01*
X151331128Y-65017857D01*
X151210053Y-64940047D01*
X151210051Y-64940046D01*
X151210049Y-64940045D01*
X151210050Y-64940045D01*
X151071963Y-64899500D01*
X151071961Y-64899500D01*
X150928039Y-64899500D01*
X150928036Y-64899500D01*
X150789949Y-64940045D01*
X150668873Y-65017856D01*
X150574623Y-65126626D01*
X150574622Y-65126628D01*
X150514834Y-65257543D01*
X150494353Y-65400000D01*
X144900500Y-65400000D01*
X144900500Y-63500000D01*
X158094353Y-63500000D01*
X158114834Y-63642456D01*
X158174622Y-63773371D01*
X158174623Y-63773373D01*
X158268872Y-63882143D01*
X158389947Y-63959953D01*
X158389950Y-63959954D01*
X158389949Y-63959954D01*
X158528036Y-64000499D01*
X158528038Y-64000500D01*
X158528039Y-64000500D01*
X158671962Y-64000500D01*
X158671962Y-64000499D01*
X158810053Y-63959953D01*
X158931128Y-63882143D01*
X159025377Y-63773373D01*
X159085165Y-63642457D01*
X159105647Y-63500000D01*
X159085165Y-63357543D01*
X159025377Y-63226627D01*
X159004087Y-63202057D01*
X158975064Y-63138502D01*
X158985008Y-63069344D01*
X158987708Y-63066228D01*
X173499500Y-63066228D01*
X173499500Y-63233771D01*
X173532182Y-63398074D01*
X173532184Y-63398082D01*
X173596295Y-63552860D01*
X173689373Y-63692162D01*
X173807837Y-63810626D01*
X173900494Y-63872537D01*
X173947137Y-63903703D01*
X174101918Y-63967816D01*
X174266228Y-64000499D01*
X174266232Y-64000500D01*
X174266233Y-64000500D01*
X174433768Y-64000500D01*
X174433769Y-64000499D01*
X174598082Y-63967816D01*
X174752863Y-63903703D01*
X174892162Y-63810626D01*
X175010626Y-63692162D01*
X175103703Y-63552863D01*
X175167816Y-63398082D01*
X175200500Y-63233767D01*
X175200500Y-63066233D01*
X175167816Y-62901918D01*
X175103703Y-62747137D01*
X175033758Y-62642457D01*
X175010626Y-62607837D01*
X174892162Y-62489373D01*
X174752860Y-62396295D01*
X174598082Y-62332184D01*
X174598074Y-62332182D01*
X174433771Y-62299500D01*
X174433767Y-62299500D01*
X174266233Y-62299500D01*
X174266228Y-62299500D01*
X174101925Y-62332182D01*
X174101917Y-62332184D01*
X173947139Y-62396295D01*
X173807837Y-62489373D01*
X173689373Y-62607837D01*
X173596295Y-62747139D01*
X173532184Y-62901917D01*
X173532182Y-62901925D01*
X173499500Y-63066228D01*
X158987708Y-63066228D01*
X159030763Y-63016540D01*
X159097803Y-62996856D01*
X159119160Y-62999928D01*
X159119260Y-62999238D01*
X159128038Y-63000500D01*
X159128039Y-63000500D01*
X159271962Y-63000500D01*
X159271962Y-63000499D01*
X159410053Y-62959953D01*
X159531128Y-62882143D01*
X159625377Y-62773373D01*
X159685165Y-62642457D01*
X159705647Y-62500000D01*
X159685165Y-62357543D01*
X159625377Y-62226627D01*
X159531128Y-62117857D01*
X159410053Y-62040047D01*
X159410051Y-62040046D01*
X159410049Y-62040045D01*
X159410050Y-62040045D01*
X159271963Y-61999500D01*
X159271961Y-61999500D01*
X159128039Y-61999500D01*
X159128036Y-61999500D01*
X158989949Y-62040045D01*
X158868873Y-62117856D01*
X158774623Y-62226626D01*
X158774622Y-62226628D01*
X158714834Y-62357543D01*
X158694353Y-62500000D01*
X158714834Y-62642456D01*
X158762641Y-62747137D01*
X158774623Y-62773373D01*
X158793214Y-62794828D01*
X158795911Y-62797941D01*
X158824935Y-62861497D01*
X158814991Y-62930656D01*
X158769235Y-62983459D01*
X158702196Y-63003143D01*
X158680839Y-63000072D01*
X158680740Y-63000762D01*
X158671962Y-62999500D01*
X158671961Y-62999500D01*
X158528039Y-62999500D01*
X158528036Y-62999500D01*
X158389949Y-63040045D01*
X158268873Y-63117856D01*
X158174623Y-63226626D01*
X158174622Y-63226628D01*
X158114834Y-63357543D01*
X158094353Y-63500000D01*
X144900500Y-63500000D01*
X144900500Y-58600000D01*
X145494353Y-58600000D01*
X145514834Y-58742456D01*
X145574622Y-58873371D01*
X145574623Y-58873373D01*
X145668872Y-58982143D01*
X145789947Y-59059953D01*
X145789950Y-59059954D01*
X145789949Y-59059954D01*
X145928036Y-59100499D01*
X145928038Y-59100500D01*
X145928039Y-59100500D01*
X146071962Y-59100500D01*
X146071962Y-59100499D01*
X146210053Y-59059953D01*
X146331128Y-58982143D01*
X146425377Y-58873373D01*
X146485165Y-58742457D01*
X146505647Y-58600000D01*
X146485165Y-58457543D01*
X146425377Y-58326627D01*
X146331128Y-58217857D01*
X146210053Y-58140047D01*
X146210051Y-58140046D01*
X146210049Y-58140045D01*
X146210050Y-58140045D01*
X146071963Y-58099500D01*
X146071961Y-58099500D01*
X145928039Y-58099500D01*
X145928036Y-58099500D01*
X145789949Y-58140045D01*
X145668873Y-58217856D01*
X145574623Y-58326626D01*
X145574622Y-58326628D01*
X145514834Y-58457543D01*
X145494353Y-58600000D01*
X144900500Y-58600000D01*
X144900500Y-57124000D01*
X144920185Y-57056961D01*
X144972989Y-57011206D01*
X145024500Y-57000000D01*
X184075500Y-57000000D01*
X184142539Y-57019685D01*
G37*
%TD.AperFunction*%
%TD*%
M02*
