%TF.GenerationSoftware,KiCad,Pcbnew,8.0.2*%
%TF.CreationDate,2024-06-28T22:02:35+02:00*%
%TF.ProjectId,Leiterkarte,4c656974-6572-46b6-9172-74652e6b6963,rev?*%
%TF.SameCoordinates,Original*%
%TF.FileFunction,Copper,L2,Bot*%
%TF.FilePolarity,Positive*%
%FSLAX46Y46*%
G04 Gerber Fmt 4.6, Leading zero omitted, Abs format (unit mm)*
G04 Created by KiCad (PCBNEW 8.0.2) date 2024-06-28 22:02:35*
%MOMM*%
%LPD*%
G01*
G04 APERTURE LIST*
G04 Aperture macros list*
%AMRoundRect*
0 Rectangle with rounded corners*
0 $1 Rounding radius*
0 $2 $3 $4 $5 $6 $7 $8 $9 X,Y pos of 4 corners*
0 Add a 4 corners polygon primitive as box body*
4,1,4,$2,$3,$4,$5,$6,$7,$8,$9,$2,$3,0*
0 Add four circle primitives for the rounded corners*
1,1,$1+$1,$2,$3*
1,1,$1+$1,$4,$5*
1,1,$1+$1,$6,$7*
1,1,$1+$1,$8,$9*
0 Add four rect primitives between the rounded corners*
20,1,$1+$1,$2,$3,$4,$5,0*
20,1,$1+$1,$4,$5,$6,$7,0*
20,1,$1+$1,$6,$7,$8,$9,0*
20,1,$1+$1,$8,$9,$2,$3,0*%
G04 Aperture macros list end*
%TA.AperFunction,ComponentPad*%
%ADD10R,2.400000X2.400000*%
%TD*%
%TA.AperFunction,ComponentPad*%
%ADD11O,2.400000X2.400000*%
%TD*%
%TA.AperFunction,ComponentPad*%
%ADD12RoundRect,0.250002X-1.499998X-1.499998X1.499998X-1.499998X1.499998X1.499998X-1.499998X1.499998X0*%
%TD*%
%TA.AperFunction,ComponentPad*%
%ADD13RoundRect,0.250002X1.499998X1.499998X-1.499998X1.499998X-1.499998X-1.499998X1.499998X-1.499998X0*%
%TD*%
%TA.AperFunction,ComponentPad*%
%ADD14O,1.700000X1.700000*%
%TD*%
%TA.AperFunction,ComponentPad*%
%ADD15R,1.700000X1.700000*%
%TD*%
%TA.AperFunction,ViaPad*%
%ADD16C,0.600000*%
%TD*%
%TA.AperFunction,Conductor*%
%ADD17C,1.100000*%
%TD*%
%TA.AperFunction,Conductor*%
%ADD18C,0.400000*%
%TD*%
%TA.AperFunction,Conductor*%
%ADD19C,0.200000*%
%TD*%
G04 APERTURE END LIST*
D10*
%TO.P,D2,1,K*%
%TO.N,Net-(D2-K)*%
X139850000Y-83200000D03*
D11*
%TO.P,D2,2,A*%
%TO.N,BRD_GND*%
X152550000Y-83200000D03*
%TD*%
D12*
%TO.P,RBLINK_1,1,Pin_1*%
%TO.N,RBLINK_In*%
X181200000Y-98100000D03*
%TD*%
%TO.P,VIN1,1,Pin_1*%
%TO.N,BOARD_VIN*%
X128000000Y-71800000D03*
%TD*%
%TO.P,GND1,1,Pin_1*%
%TO.N,BRD_GND*%
X128000000Y-77700000D03*
%TD*%
%TO.P,J27,1,Pin_1*%
%TO.N,Net-(J27-Pin_1)*%
X97200000Y-143300000D03*
%TD*%
%TO.P,J26,1,Pin_1*%
%TO.N,Net-(J26-Pin_1)*%
X97200000Y-138700000D03*
%TD*%
%TO.P,J25,1,Pin_1*%
%TO.N,Net-(J25-Pin_1)*%
X97200000Y-134100000D03*
%TD*%
%TO.P,J24,1,Pin_1*%
%TO.N,Net-(J24-Pin_1)*%
X97200000Y-119500000D03*
%TD*%
%TO.P,J23,1,Pin_1*%
%TO.N,Net-(J23-Pin_1)*%
X97200000Y-106900000D03*
%TD*%
%TO.P,J21,1,Pin_1*%
%TO.N,5V_OUT*%
X97300000Y-94700000D03*
%TD*%
%TO.P,J20,1,Pin_1*%
%TO.N,Net-(J20-Pin_1)*%
X102300000Y-140000000D03*
%TD*%
%TO.P,J19,1,Pin_1*%
%TO.N,Net-(J19-Pin_1)*%
X102300000Y-134900000D03*
%TD*%
%TO.P,J18,1,Pin_1*%
%TO.N,Net-(J18-Pin_1)*%
X102300000Y-130300000D03*
%TD*%
%TO.P,J17,1,Pin_1*%
%TO.N,Net-(J17-Pin_1)*%
X102300000Y-125700000D03*
%TD*%
%TO.P,J16,1,Pin_1*%
%TO.N,Net-(J16-Pin_1)*%
X102300000Y-112600000D03*
%TD*%
%TO.P,J15,1,Pin_1*%
%TO.N,Net-(J15-Pin_1)*%
X102300000Y-108000000D03*
%TD*%
%TO.P,RPM_1,1,Pin_1*%
%TO.N,RPM_In*%
X165800000Y-62800000D03*
%TD*%
%TO.P,FUEL_1,1,Pin_1*%
%TO.N,FUEL_In*%
X171300000Y-62800000D03*
%TD*%
%TO.P,OIL_1,1,Pin_1*%
%TO.N,OIL_In*%
X176800000Y-62800000D03*
%TD*%
%TO.P,TEMP_1,1,Pin_1*%
%TO.N,TEMP_In*%
X182300000Y-62800000D03*
%TD*%
%TO.P,LBLINK_1,1,Pin_1*%
%TO.N,LBLINK_In*%
X181170000Y-93500000D03*
%TD*%
%TO.P,SPEED-_1,1,Pin_1*%
%TO.N,SPEED-_In*%
X101470000Y-65090000D03*
%TD*%
D13*
%TO.P,SPEED+_1,1,Pin_1*%
%TO.N,SPEED+_In*%
X101450000Y-70070000D03*
%TD*%
D14*
%TO.P,J12,4,Pin_4*%
%TO.N,5V_OUT*%
X115170000Y-71795000D03*
%TO.P,J12,3,Pin_3*%
%TO.N,BRD_GND*%
X115170000Y-69255000D03*
%TO.P,J12,2,Pin_2*%
%TO.N,unconnected-(J12-Pin_2-Pad2)*%
X115170000Y-66715000D03*
D15*
%TO.P,J12,1,Pin_1*%
%TO.N,SPEED_Out*%
X115170000Y-64175000D03*
%TD*%
%TO.P,J5,1,Pin_1*%
%TO.N,unconnected-(J5-Pin_1-Pad1)*%
X111570000Y-94175000D03*
D14*
%TO.P,J5,2,Pin_2*%
%TO.N,5V_OUT*%
X109030000Y-94175000D03*
%TO.P,J5,3,Pin_3*%
%TO.N,unconnected-(J5-Pin_3-Pad3)*%
X111570000Y-96715000D03*
%TO.P,J5,4,Pin_4*%
%TO.N,unconnected-(J5-Pin_4-Pad4)*%
X109030000Y-96715000D03*
%TO.P,J5,5,Pin_5*%
%TO.N,unconnected-(J5-Pin_5-Pad5)*%
X111570000Y-99255000D03*
%TO.P,J5,6,Pin_6*%
%TO.N,unconnected-(J5-Pin_6-Pad6)*%
X109030000Y-99255000D03*
%TO.P,J5,7,Pin_7*%
%TO.N,unconnected-(J5-Pin_7-Pad7)*%
X111570000Y-101795000D03*
%TO.P,J5,8,Pin_8*%
%TO.N,unconnected-(J5-Pin_8-Pad8)*%
X109030000Y-101795000D03*
%TO.P,J5,9,Pin_9*%
%TO.N,BRD_GND*%
X111570000Y-104335000D03*
%TO.P,J5,10,Pin_10*%
%TO.N,unconnected-(J5-Pin_10-Pad10)*%
X109030000Y-104335000D03*
%TO.P,J5,11,Pin_11*%
%TO.N,Net-(J15-Pin_1)*%
X111570000Y-106875000D03*
%TO.P,J5,12,Pin_12*%
%TO.N,Net-(J23-Pin_1)*%
X109030000Y-106875000D03*
%TO.P,J5,13,Pin_13*%
%TO.N,Net-(J16-Pin_1)*%
X111570000Y-109415000D03*
%TO.P,J5,14,Pin_14*%
%TO.N,unconnected-(J5-Pin_14-Pad14)*%
X109030000Y-109415000D03*
%TO.P,J5,15,Pin_15*%
%TO.N,unconnected-(J5-Pin_15-Pad15)*%
X111570000Y-111955000D03*
%TO.P,J5,16,Pin_16*%
%TO.N,unconnected-(J5-Pin_16-Pad16)*%
X109030000Y-111955000D03*
%TO.P,J5,17,Pin_17*%
%TO.N,unconnected-(J5-Pin_17-Pad17)*%
X111570000Y-114495000D03*
%TO.P,J5,18,Pin_18*%
%TO.N,unconnected-(J5-Pin_18-Pad18)*%
X109030000Y-114495000D03*
%TO.P,J5,19,Pin_19*%
%TO.N,unconnected-(J5-Pin_19-Pad19)*%
X111570000Y-117035000D03*
%TO.P,J5,20,Pin_20*%
%TO.N,unconnected-(J5-Pin_20-Pad20)*%
X109030000Y-117035000D03*
%TO.P,J5,21,Pin_21*%
%TO.N,unconnected-(J5-Pin_21-Pad21)*%
X111570000Y-119575000D03*
%TO.P,J5,22,Pin_22*%
%TO.N,Net-(J24-Pin_1)*%
X109030000Y-119575000D03*
%TO.P,J5,23,Pin_23*%
%TO.N,unconnected-(J5-Pin_23-Pad23)*%
X111570000Y-122115000D03*
%TO.P,J5,24,Pin_24*%
%TO.N,unconnected-(J5-Pin_24-Pad24)*%
X109030000Y-122115000D03*
%TO.P,J5,25,Pin_25*%
%TO.N,unconnected-(J5-Pin_25-Pad25)*%
X111570000Y-124655000D03*
%TO.P,J5,26,Pin_26*%
%TO.N,unconnected-(J5-Pin_26-Pad26)*%
X109030000Y-124655000D03*
%TO.P,J5,27,Pin_27*%
%TO.N,unconnected-(J5-Pin_27-Pad27)*%
X111570000Y-127195000D03*
%TO.P,J5,28,Pin_28*%
%TO.N,unconnected-(J5-Pin_28-Pad28)*%
X109030000Y-127195000D03*
%TO.P,J5,29,Pin_29*%
%TO.N,Net-(J17-Pin_1)*%
X111570000Y-129735000D03*
%TO.P,J5,30,Pin_30*%
%TO.N,unconnected-(J5-Pin_30-Pad30)*%
X109030000Y-129735000D03*
%TO.P,J5,31,Pin_31*%
%TO.N,Net-(J18-Pin_1)*%
X111570000Y-132275000D03*
%TO.P,J5,32,Pin_32*%
%TO.N,unconnected-(J5-Pin_32-Pad32)*%
X109030000Y-132275000D03*
%TO.P,J5,33,Pin_33*%
%TO.N,Net-(J19-Pin_1)*%
X111570000Y-134815000D03*
%TO.P,J5,34,Pin_34*%
%TO.N,unconnected-(J5-Pin_34-Pad34)*%
X109030000Y-134815000D03*
%TO.P,J5,35,Pin_35*%
%TO.N,unconnected-(J5-Pin_35-Pad35)*%
X111570000Y-137355000D03*
%TO.P,J5,36,Pin_36*%
%TO.N,Net-(J25-Pin_1)*%
X109030000Y-137355000D03*
%TO.P,J5,37,Pin_37*%
%TO.N,Net-(J20-Pin_1)*%
X111570000Y-139895000D03*
%TO.P,J5,38,Pin_38*%
%TO.N,Net-(J26-Pin_1)*%
X109030000Y-139895000D03*
%TO.P,J5,39,Pin_39*%
%TO.N,unconnected-(J5-Pin_39-Pad39)*%
X111570000Y-142435000D03*
%TO.P,J5,40,Pin_40*%
%TO.N,Net-(J27-Pin_1)*%
X109030000Y-142435000D03*
%TD*%
%TO.P,J3,8,Pin_8*%
%TO.N,unconnected-(J3-Pin_8-Pad8)*%
X166320000Y-129205000D03*
%TO.P,J3,7,Pin_7*%
%TO.N,BRD_GND*%
X166320000Y-126665000D03*
%TO.P,J3,6,Pin_6*%
%TO.N,unconnected-(J3-Pin_6-Pad6)*%
X166320000Y-124125000D03*
%TO.P,J3,5,Pin_5*%
%TO.N,unconnected-(J3-Pin_5-Pad5)*%
X166320000Y-121585000D03*
%TO.P,J3,4,Pin_4*%
%TO.N,unconnected-(J3-Pin_4-Pad4)*%
X166320000Y-119045000D03*
%TO.P,J3,3,Pin_3*%
%TO.N,unconnected-(J3-Pin_3-Pad3)*%
X166320000Y-116505000D03*
%TO.P,J3,2,Pin_2*%
%TO.N,ARD_5V*%
X166320000Y-113965000D03*
D15*
%TO.P,J3,1,Pin_1*%
%TO.N,unconnected-(J3-Pin_1-Pad1)*%
X166320000Y-111425000D03*
%TD*%
D14*
%TO.P,J2,8,Pin_8*%
%TO.N,unconnected-(J2-Pin_8-Pad8)*%
X117820000Y-111955000D03*
%TO.P,J2,7,Pin_7*%
%TO.N,unconnected-(J2-Pin_7-Pad7)*%
X117820000Y-109415000D03*
%TO.P,J2,6,Pin_6*%
%TO.N,unconnected-(J2-Pin_6-Pad6)*%
X117820000Y-106875000D03*
%TO.P,J2,5,Pin_5*%
%TO.N,SPEED_Out*%
X117820000Y-104335000D03*
%TO.P,J2,4,Pin_4*%
%TO.N,unconnected-(J2-Pin_4-Pad4)*%
X117820000Y-101795000D03*
%TO.P,J2,3,Pin_3*%
%TO.N,unconnected-(J2-Pin_3-Pad3)*%
X117820000Y-99255000D03*
%TO.P,J2,2,Pin_2*%
%TO.N,unconnected-(J2-Pin_2-Pad2)*%
X117820000Y-96715000D03*
D15*
%TO.P,J2,1,Pin_1*%
%TO.N,unconnected-(J2-Pin_1-Pad1)*%
X117820000Y-94175000D03*
%TD*%
D14*
%TO.P,J4,6,Pin_6*%
%TO.N,unconnected-(J4-Pin_6-Pad6)*%
X166320000Y-106875000D03*
%TO.P,J4,5,Pin_5*%
%TO.N,unconnected-(J4-Pin_5-Pad5)*%
X166320000Y-104335000D03*
%TO.P,J4,4,Pin_4*%
%TO.N,unconnected-(J4-Pin_4-Pad4)*%
X166320000Y-101795000D03*
%TO.P,J4,3,Pin_3*%
%TO.N,TEMP_In*%
X166320000Y-99255000D03*
%TO.P,J4,2,Pin_2*%
%TO.N,OIL_In*%
X166320000Y-96715000D03*
D15*
%TO.P,J4,1,Pin_1*%
%TO.N,FUEL_In*%
X166320000Y-94175000D03*
%TD*%
D14*
%TO.P,J1,10,Pin_10*%
%TO.N,unconnected-(J1-Pin_10-Pad10)*%
X117820000Y-138535000D03*
%TO.P,J1,9,Pin_9*%
%TO.N,RBLINK_Out*%
X117820000Y-135995000D03*
%TO.P,J1,8,Pin_8*%
%TO.N,unconnected-(J1-Pin_8-Pad8)*%
X117820000Y-133455000D03*
%TO.P,J1,7,Pin_7*%
%TO.N,LBLINK_Out*%
X117820000Y-130915000D03*
%TO.P,J1,6,Pin_6*%
%TO.N,unconnected-(J1-Pin_6-Pad6)*%
X117820000Y-128375000D03*
%TO.P,J1,5,Pin_5*%
%TO.N,RPM_Out*%
X117820000Y-125835000D03*
%TO.P,J1,4,Pin_4*%
%TO.N,unconnected-(J1-Pin_4-Pad4)*%
X117820000Y-123295000D03*
%TO.P,J1,3,Pin_3*%
%TO.N,unconnected-(J1-Pin_3-Pad3)*%
X117820000Y-120755000D03*
%TO.P,J1,2,Pin_2*%
%TO.N,unconnected-(J1-Pin_2-Pad2)*%
X117820000Y-118215000D03*
D15*
%TO.P,J1,1,Pin_1*%
%TO.N,unconnected-(J1-Pin_1-Pad1)*%
X117820000Y-115675000D03*
%TD*%
D14*
%TO.P,J11,4,Pin_4*%
%TO.N,unconnected-(J11-Pin_4-Pad4)*%
X107420000Y-71795000D03*
%TO.P,J11,3,Pin_3*%
%TO.N,unconnected-(J11-Pin_3-Pad3)*%
X107420000Y-69255000D03*
%TO.P,J11,2,Pin_2*%
%TO.N,SPEED+_In*%
X107420000Y-66715000D03*
D15*
%TO.P,J11,1,Pin_1*%
%TO.N,SPEED-_In*%
X107420000Y-64175000D03*
%TD*%
D16*
%TO.N,Net-(D2-K)*%
X152900000Y-71500000D03*
X176700000Y-70300000D03*
%TO.N,5V_OUT*%
X172900000Y-87200000D03*
X136900000Y-72900000D03*
%TO.N,Net-(U1-VIN)*%
X133900000Y-68400000D03*
X148000000Y-74100000D03*
%TO.N,5V_OUT*%
X156100000Y-78700000D03*
%TO.N,BRD_GND*%
X157970000Y-81475000D03*
%TO.N,LBLINK_Out*%
X174620000Y-98110000D03*
%TO.N,RBLINK_Out*%
X181160000Y-109320000D03*
%TO.N,TEMP_In*%
X180190000Y-66590000D03*
%TO.N,OIL_In*%
X174410000Y-66600000D03*
%TD*%
D17*
%TO.N,BRD_GND*%
X154275000Y-81475000D02*
X152550000Y-83200000D01*
X157970000Y-81475000D02*
X154275000Y-81475000D01*
%TO.N,Net-(D2-K)*%
X158850000Y-65550000D02*
X152900000Y-71500000D01*
X174844925Y-65550000D02*
X158850000Y-65550000D01*
X176700000Y-70300000D02*
X175460000Y-69060000D01*
X175460000Y-69060000D02*
X175460000Y-66165075D01*
X175460000Y-66165075D02*
X174844925Y-65550000D01*
%TO.N,5V_OUT*%
X164400000Y-78700000D02*
X172900000Y-87200000D01*
X156100000Y-78700000D02*
X164400000Y-78700000D01*
X155150000Y-77750000D02*
X156100000Y-78700000D01*
X139680000Y-77750000D02*
X155150000Y-77750000D01*
X137005000Y-73005000D02*
X136900000Y-72900000D01*
X137005000Y-75075000D02*
X137005000Y-73005000D01*
%TO.N,Net-(U1-VIN)*%
X142300000Y-68400000D02*
X133900000Y-68400000D01*
X148000000Y-74100000D02*
X142300000Y-68400000D01*
%TO.N,BRD_GND*%
X157970000Y-83120000D02*
X157970000Y-81475000D01*
X163375000Y-88525000D02*
X157970000Y-83120000D01*
X157970000Y-93930000D02*
X163375000Y-88525000D01*
X157970000Y-118315000D02*
X157970000Y-93930000D01*
X114665000Y-81597258D02*
X118687258Y-77575000D01*
X114665000Y-104335000D02*
X114665000Y-81597258D01*
X111570000Y-104335000D02*
X114665000Y-104335000D01*
X127970000Y-77575000D02*
X118687258Y-77575000D01*
D18*
%TO.N,LBLINK_Out*%
X166797767Y-127955000D02*
X120780000Y-127955000D01*
X120780000Y-127955000D02*
X117820000Y-130915000D01*
X169545000Y-125207767D02*
X166797767Y-127955000D01*
X169545000Y-103185000D02*
X169545000Y-125207767D01*
X174620000Y-98110000D02*
X169545000Y-103185000D01*
D17*
%TO.N,BRD_GND*%
X113570000Y-70855000D02*
X115170000Y-69255000D01*
X113570000Y-72457742D02*
X113570000Y-70855000D01*
X118687258Y-77575000D02*
X113570000Y-72457742D01*
%TO.N,5V_OUT*%
X118450000Y-75075000D02*
X115170000Y-71795000D01*
X137005000Y-75075000D02*
X118450000Y-75075000D01*
X139680000Y-77750000D02*
X137005000Y-75075000D01*
%TO.N,BRD_GND*%
X157970000Y-118315000D02*
X166320000Y-126665000D01*
D19*
%TO.N,unconnected-(J5-Pin_6-Pad6)*%
X109030000Y-99255000D02*
X109943654Y-99255000D01*
D18*
%TO.N,TEMP_In*%
X180190000Y-85385000D02*
X166320000Y-99255000D01*
X180190000Y-66590000D02*
X180190000Y-85385000D01*
%TO.N,OIL_In*%
X174410000Y-66600000D02*
X174410000Y-88625000D01*
X174410000Y-88625000D02*
X166320000Y-96715000D01*
%TO.N,RBLINK_Out*%
X181160000Y-109320000D02*
X181160000Y-116132767D01*
X161297767Y-135995000D02*
X117820000Y-135995000D01*
X181160000Y-116132767D02*
X161297767Y-135995000D01*
%TD*%
M02*
