M48
; DRILL file {KiCad 8.0.5} date 2024-09-23T19:59:45+0200
; FORMAT={-:-/ absolute / inch / decimal}
; #@! TF.CreationDate,2024-09-23T19:59:45+02:00
; #@! TF.GenerationSoftware,Kicad,Pcbnew,8.0.5
; #@! TF.FileFunction,Plated,1,4,PTH
FMAT,2
INCH
; #@! TA.AperFunction,Plated,PTH,ViaDrill
T1C0.0118
; #@! TA.AperFunction,Plated,PTH,ComponentDrill
T2C0.0118
; #@! TA.AperFunction,Plated,PTH,ComponentDrill
T3C0.0394
%
G90
G05
T1
X5.7205Y-3.126
X5.7323Y-3.7244
X5.7323Y-4.7047
X5.748Y-2.3071
X5.7717Y-3.5197
X5.878Y-3.4764
X5.8898Y-3.5551
X5.9449Y-2.5748
X5.9449Y-2.6142
X5.9449Y-2.6575
X5.9488Y-3.126
X5.9528Y-2.5315
X5.9528Y-2.7362
X5.9567Y-2.8504
X5.9882Y-3.8031
X6.0079Y-2.8898
X6.0315Y-2.811
X6.0315Y-3.6732
X6.0354Y-4.1535
X6.0591Y-2.8976
X6.0906Y-3.0787
X6.0945Y-3.874
X6.1299Y-2.8976
X6.1299Y-3.8386
X6.1496Y-3.1299
X6.1535Y-3.9803
X6.1535Y-4.0433
X6.1575Y-3.6024
X6.1575Y-4.3346
X6.1614Y-4.752
X6.1654Y-2.9646
X6.1654Y-3.311
X6.1732Y-3.4606
X6.185Y-2.7795
X6.185Y-3.6378
X6.189Y-3.752
X6.1969Y-4.752
X6.2008Y-4.3346
X6.2087Y-2.622
X6.2087Y-3.2953
X6.2323Y-3.4961
X6.2323Y-4.752
X6.2362Y-3.0787
X6.2441Y-2.5
X6.2441Y-3.9252
X6.2598Y-4.1614
X6.2677Y-2.4606
X6.2717Y-2.2795
X6.2717Y-2.315
X6.2795Y-3.0787
X6.2992Y-4.5669
X6.2992Y-4.6024
X6.2992Y-4.6378
X6.2992Y-4.6732
X6.3031Y-3.315
X6.3031Y-3.7835
X6.315Y-3.9409
X6.3386Y-3.3071
X6.3425Y-2.4528
X6.3425Y-3.1575
X6.3504Y-2.7795
X6.3622Y-2.6457
X6.3622Y-3.937
X6.3661Y-2.7362
X6.3661Y-4.0236
X6.374Y-2.8189
X6.378Y-3.3228
X6.4094Y-3.3189
X6.4094Y-3.4016
X6.4213Y-3.2874
X6.4252Y-3.1063
X6.4291Y-3.0669
X6.4331Y-3.6654
X6.437Y-3.5157
X6.4606Y-4.2717
X6.4724Y-3.1496
X6.5315Y-3.1496
X6.5827Y-3.0669
X6.5866Y-3.7677
X6.6024Y-4.0827
X6.6102Y-3.1102
X6.6339Y-3.3189
X6.6378Y-3.1693
X6.6378Y-3.7638
X6.6378Y-4.0276
X6.689Y-4.2795
X6.689Y-4.7795
X6.7677Y-3.4528
X6.7795Y-3.2992
X6.7795Y-3.6535
X6.7913Y-3.0709
X6.7992Y-3.4764
X6.8187Y-4.0797
X6.8189Y-3.1417
X6.8189Y-3.2165
X6.8543Y-3.2008
X6.8701Y-4.4528
X6.9094Y-4.3031
X6.9219Y-4.0797
X6.9252Y-3.0472
X7.0472Y-3.9016
X7.0551Y-4.1102
X7.1575Y-2.2992
X7.2126Y-3.0472
X7.2165Y-3.5472
X7.2165Y-3.5906
X7.2165Y-3.6299
T2
X6.5748Y-4.4409
X6.5748Y-4.4882
X6.622Y-4.4409
X6.622Y-4.4882
X6.6732Y-4.4409
X6.6732Y-4.4882
X6.7165Y-4.4409
X6.7165Y-4.4882
T3
X5.815Y-3.3071
X6.9094Y-4.7953
X6.9646Y-3.2677
X6.9646Y-3.3677
X6.9646Y-3.4677
X6.9646Y-3.5677
X6.9646Y-3.6677
X6.9646Y-3.7677
X7.0551Y-4.7953
X7.1142Y-3.2677
X7.1142Y-3.3677
X7.1142Y-3.4677
X7.1142Y-3.5677
M30
