M48
; DRILL file {KiCad 8.0.5} date 2024-10-16T13:31:43+0200
; FORMAT={-:-/ absolute / inch / decimal}
; #@! TF.CreationDate,2024-10-16T13:31:43+02:00
; #@! TF.GenerationSoftware,Kicad,Pcbnew,8.0.5
; #@! TF.FileFunction,Plated,1,4,PTH
FMAT,2
INCH
; #@! TA.AperFunction,Plated,PTH,ComponentDrill
T1C0.0079
; #@! TA.AperFunction,Plated,PTH,ViaDrill
T2C0.0118
; #@! TA.AperFunction,Plated,PTH,ComponentDrill
T3C0.0118
; #@! TA.AperFunction,Plated,PTH,ComponentDrill
T4C0.0236
; #@! TA.AperFunction,Plated,PTH,ComponentDrill
T5C0.0394
; #@! TA.AperFunction,Plated,PTH,ComponentDrill
T6C0.1378
%
G90
G05
T1
X4.289Y-2.937
X4.289Y-2.9921
X4.3165Y-2.9094
X4.3165Y-2.9646
X4.3165Y-3.0197
X4.3441Y-2.937
X4.3441Y-2.9921
X4.3717Y-2.9094
X4.3717Y-2.9646
X4.3717Y-3.0197
X4.3992Y-2.937
X4.3992Y-2.9921
T2
X3.5728Y-3.2559
X3.6004Y-2.6575
X3.6496Y-4.4232
X3.6496Y-4.4685
X3.6673Y-4.0512
X3.6673Y-4.0807
X3.6673Y-4.1122
X3.6713Y-2.7638
X3.685Y-3.0472
X3.685Y-3.0866
X3.689Y-4.5945
X3.7008Y-4.0512
X3.7008Y-4.0807
X3.7008Y-4.1122
X3.7303Y-2.8839
X3.7441Y-4.063
X3.7677Y-4.4646
X3.7717Y-2.8839
X3.8012Y-4.374
X3.8465Y-4.6024
X3.8819Y-2.6575
X3.9213Y-2.0157
X3.9213Y-2.1811
X3.9724Y-2.2539
X4.0059Y-3.2992
X4.0157Y-2.7992
X4.0728Y-2.3996
X4.1476Y-4.2717
X4.185Y-4.2709
X4.1909Y-3.8563
X4.1909Y-3.9528
X4.1969Y-4.4331
X4.2303Y-4.1122
X4.2362Y-4.4646
X4.2402Y-2.3543
X4.2598Y-2.0157
X4.311Y-2.2618
X4.315Y-4.4646
X4.3209Y-2.7697
X4.3484Y-3.4311
X4.3543Y-4.4646
X4.3543Y-4.6102
X4.3976Y-3.4311
X4.435Y-4.0768
X4.435Y-4.1102
X4.435Y-4.1437
X4.4705Y-2.9035
X4.502Y-4.2709
X4.5413Y-4.2709
X4.5472Y-2.7362
X4.5984Y-2.7362
X4.6339Y-2.7362
X4.6476Y-3.4272
X4.6654Y-4.4331
X4.6969Y-2.6791
X4.7047Y-4.4646
X4.7205Y-4.1496
X4.7283Y-2.5787
X4.7303Y-2.9488
X4.7559Y-4.0728
X4.7657Y-2.9488
X4.7717Y-3.0236
X4.7835Y-4.4646
X4.815Y-2.5669
X4.8228Y-4.4646
X4.8228Y-4.6102
X4.8248Y-4.0138
X4.9685Y-3.0236
X4.9724Y-2.9488
X5.002Y-2.9488
X5.0709Y-2.189
X5.0748Y-2.7854
X5.1378Y-2.2461
X5.1634Y-2.8228
X5.1791Y-3.8957
X5.3661Y-3.5787
X5.3917Y-2.6772
X5.4094Y-2.7559
X5.4154Y-3.8957
X5.4193Y-3.4311
X5.4488Y-2.2461
X5.4508Y-3.8957
X5.4685Y-3.4665
X5.4705Y-3.7205
X5.4921Y-3.8957
X5.502Y-2.0492
X5.5256Y-3.5098
X5.5482Y-3.1358
X5.5492Y-3.3012
X5.5709Y-3.9528
X5.6398Y-3.7244
X5.6575Y-3.4114
X5.6575Y-3.4724
X5.6575Y-3.5335
X5.6791Y-3.8937
X5.7146Y-3.8563
X5.7146Y-3.8937
X5.7402Y-4.3327
X5.7402Y-4.4331
X5.7402Y-4.5335
X5.815Y-3.7264
X5.8386Y-4.0
T3
X3.8799Y-3.9665
X3.8799Y-4.0138
X3.8799Y-4.065
X3.8799Y-4.1083
X3.9272Y-3.9665
X3.9272Y-4.0138
X3.9272Y-4.065
X3.9272Y-4.1083
T5
X5.9488Y-3.9173
X5.9488Y-4.0709
X5.9488Y-4.1709
X5.9488Y-4.2709
X5.9488Y-4.3709
X5.9488Y-4.4709
X5.9488Y-4.5709
T6
X3.5551Y-3.5531
X4.8071Y-3.5531
T4
G00X3.9717Y-2.0315
M15
G01X3.9717Y-2.0
M16
G05
G00X3.9717Y-2.202
M15
G01X3.9717Y-2.1587
M16
G05
G00X4.3118Y-2.0315
M15
G01X4.3118Y-2.0
M16
G05
G00X4.3118Y-2.202
M15
G01X4.3118Y-2.1587
M16
G05
M30
