%TF.GenerationSoftware,KiCad,Pcbnew,8.0.2*%
%TF.CreationDate,2024-06-28T22:02:35+02:00*%
%TF.ProjectId,Leiterkarte,4c656974-6572-46b6-9172-74652e6b6963,rev?*%
%TF.SameCoordinates,Original*%
%TF.FileFunction,Legend,Bot*%
%TF.FilePolarity,Positive*%
%FSLAX46Y46*%
G04 Gerber Fmt 4.6, Leading zero omitted, Abs format (unit mm)*
G04 Created by KiCad (PCBNEW 8.0.2) date 2024-06-28 22:02:35*
%MOMM*%
%LPD*%
G01*
G04 APERTURE LIST*
G04 Aperture macros list*
%AMRoundRect*
0 Rectangle with rounded corners*
0 $1 Rounding radius*
0 $2 $3 $4 $5 $6 $7 $8 $9 X,Y pos of 4 corners*
0 Add a 4 corners polygon primitive as box body*
4,1,4,$2,$3,$4,$5,$6,$7,$8,$9,$2,$3,0*
0 Add four circle primitives for the rounded corners*
1,1,$1+$1,$2,$3*
1,1,$1+$1,$4,$5*
1,1,$1+$1,$6,$7*
1,1,$1+$1,$8,$9*
0 Add four rect primitives between the rounded corners*
20,1,$1+$1,$2,$3,$4,$5,0*
20,1,$1+$1,$4,$5,$6,$7,0*
20,1,$1+$1,$6,$7,$8,$9,0*
20,1,$1+$1,$8,$9,$2,$3,0*%
G04 Aperture macros list end*
%ADD10C,0.150000*%
%ADD11C,0.120000*%
%ADD12R,2.400000X2.400000*%
%ADD13O,2.400000X2.400000*%
%ADD14RoundRect,0.250002X-1.499998X-1.499998X1.499998X-1.499998X1.499998X1.499998X-1.499998X1.499998X0*%
%ADD15RoundRect,0.250002X1.499998X1.499998X-1.499998X1.499998X-1.499998X-1.499998X1.499998X-1.499998X0*%
%ADD16O,1.700000X1.700000*%
%ADD17R,1.700000X1.700000*%
G04 APERTURE END LIST*
D10*
X169403333Y-109629819D02*
X169403333Y-110344104D01*
X169403333Y-110344104D02*
X169450952Y-110486961D01*
X169450952Y-110486961D02*
X169546190Y-110582200D01*
X169546190Y-110582200D02*
X169689047Y-110629819D01*
X169689047Y-110629819D02*
X169784285Y-110629819D01*
X169022380Y-109629819D02*
X168403333Y-109629819D01*
X168403333Y-109629819D02*
X168736666Y-110010771D01*
X168736666Y-110010771D02*
X168593809Y-110010771D01*
X168593809Y-110010771D02*
X168498571Y-110058390D01*
X168498571Y-110058390D02*
X168450952Y-110106009D01*
X168450952Y-110106009D02*
X168403333Y-110201247D01*
X168403333Y-110201247D02*
X168403333Y-110439342D01*
X168403333Y-110439342D02*
X168450952Y-110534580D01*
X168450952Y-110534580D02*
X168498571Y-110582200D01*
X168498571Y-110582200D02*
X168593809Y-110629819D01*
X168593809Y-110629819D02*
X168879523Y-110629819D01*
X168879523Y-110629819D02*
X168974761Y-110582200D01*
X168974761Y-110582200D02*
X169022380Y-110534580D01*
X115403333Y-92629819D02*
X115403333Y-93344104D01*
X115403333Y-93344104D02*
X115450952Y-93486961D01*
X115450952Y-93486961D02*
X115546190Y-93582200D01*
X115546190Y-93582200D02*
X115689047Y-93629819D01*
X115689047Y-93629819D02*
X115784285Y-93629819D01*
X114974761Y-92725057D02*
X114927142Y-92677438D01*
X114927142Y-92677438D02*
X114831904Y-92629819D01*
X114831904Y-92629819D02*
X114593809Y-92629819D01*
X114593809Y-92629819D02*
X114498571Y-92677438D01*
X114498571Y-92677438D02*
X114450952Y-92725057D01*
X114450952Y-92725057D02*
X114403333Y-92820295D01*
X114403333Y-92820295D02*
X114403333Y-92915533D01*
X114403333Y-92915533D02*
X114450952Y-93058390D01*
X114450952Y-93058390D02*
X115022380Y-93629819D01*
X115022380Y-93629819D02*
X114403333Y-93629819D01*
X169403333Y-92629819D02*
X169403333Y-93344104D01*
X169403333Y-93344104D02*
X169450952Y-93486961D01*
X169450952Y-93486961D02*
X169546190Y-93582200D01*
X169546190Y-93582200D02*
X169689047Y-93629819D01*
X169689047Y-93629819D02*
X169784285Y-93629819D01*
X168498571Y-92963152D02*
X168498571Y-93629819D01*
X168736666Y-92582200D02*
X168974761Y-93296485D01*
X168974761Y-93296485D02*
X168355714Y-93296485D01*
X115403333Y-114129819D02*
X115403333Y-114844104D01*
X115403333Y-114844104D02*
X115450952Y-114986961D01*
X115450952Y-114986961D02*
X115546190Y-115082200D01*
X115546190Y-115082200D02*
X115689047Y-115129819D01*
X115689047Y-115129819D02*
X115784285Y-115129819D01*
X114403333Y-115129819D02*
X114974761Y-115129819D01*
X114689047Y-115129819D02*
X114689047Y-114129819D01*
X114689047Y-114129819D02*
X114784285Y-114272676D01*
X114784285Y-114272676D02*
X114879523Y-114367914D01*
X114879523Y-114367914D02*
X114974761Y-114415533D01*
D11*
%TO.C,J3*%
X167650000Y-130535000D02*
X167650000Y-112695000D01*
X167650000Y-110095000D02*
X167650000Y-111425000D01*
X166320000Y-110095000D02*
X167650000Y-110095000D01*
X164990000Y-130535000D02*
X167650000Y-130535000D01*
X164990000Y-130535000D02*
X164990000Y-112695000D01*
X164990000Y-112695000D02*
X167650000Y-112695000D01*
%TO.C,J2*%
X119150000Y-113285000D02*
X119150000Y-95445000D01*
X119150000Y-92845000D02*
X119150000Y-94175000D01*
X117820000Y-92845000D02*
X119150000Y-92845000D01*
X116490000Y-113285000D02*
X119150000Y-113285000D01*
X116490000Y-113285000D02*
X116490000Y-95445000D01*
X116490000Y-95445000D02*
X119150000Y-95445000D01*
%TO.C,J4*%
X167650000Y-108205000D02*
X167650000Y-95445000D01*
X167650000Y-92845000D02*
X167650000Y-94175000D01*
X166320000Y-92845000D02*
X167650000Y-92845000D01*
X164990000Y-108205000D02*
X167650000Y-108205000D01*
X164990000Y-108205000D02*
X164990000Y-95445000D01*
X164990000Y-95445000D02*
X167650000Y-95445000D01*
%TO.C,J1*%
X119150000Y-139865000D02*
X119150000Y-116945000D01*
X119150000Y-114345000D02*
X119150000Y-115675000D01*
X117820000Y-114345000D02*
X119150000Y-114345000D01*
X116490000Y-139865000D02*
X119150000Y-139865000D01*
X116490000Y-139865000D02*
X116490000Y-116945000D01*
X116490000Y-116945000D02*
X119150000Y-116945000D01*
%TD*%
%LPC*%
D12*
%TO.C,D2*%
X139850000Y-83200000D03*
D13*
X152550000Y-83200000D03*
%TD*%
D14*
%TO.C,RBLINK_1*%
X181200000Y-98100000D03*
%TD*%
%TO.C,VIN1*%
X128000000Y-71800000D03*
%TD*%
%TO.C,GND1*%
X128000000Y-77700000D03*
%TD*%
%TO.C,J27*%
X97200000Y-143300000D03*
%TD*%
%TO.C,J26*%
X97200000Y-138700000D03*
%TD*%
%TO.C,J25*%
X97200000Y-134100000D03*
%TD*%
%TO.C,J24*%
X97200000Y-119500000D03*
%TD*%
%TO.C,J23*%
X97200000Y-106900000D03*
%TD*%
%TO.C,J21*%
X97300000Y-94700000D03*
%TD*%
%TO.C,J20*%
X102300000Y-140000000D03*
%TD*%
%TO.C,J19*%
X102300000Y-134900000D03*
%TD*%
%TO.C,J18*%
X102300000Y-130300000D03*
%TD*%
%TO.C,J17*%
X102300000Y-125700000D03*
%TD*%
%TO.C,J16*%
X102300000Y-112600000D03*
%TD*%
%TO.C,J15*%
X102300000Y-108000000D03*
%TD*%
%TO.C,RPM_1*%
X165800000Y-62800000D03*
%TD*%
%TO.C,FUEL_1*%
X171300000Y-62800000D03*
%TD*%
%TO.C,OIL_1*%
X176800000Y-62800000D03*
%TD*%
%TO.C,TEMP_1*%
X182300000Y-62800000D03*
%TD*%
%TO.C,LBLINK_1*%
X181170000Y-93500000D03*
%TD*%
%TO.C,SPEED-_1*%
X101470000Y-65090000D03*
%TD*%
D15*
%TO.C,SPEED+_1*%
X101450000Y-70070000D03*
%TD*%
D16*
%TO.C,J12*%
X115170000Y-71795000D03*
X115170000Y-69255000D03*
X115170000Y-66715000D03*
D17*
X115170000Y-64175000D03*
%TD*%
%TO.C,J5*%
X111570000Y-94175000D03*
D16*
X109030000Y-94175000D03*
X111570000Y-96715000D03*
X109030000Y-96715000D03*
X111570000Y-99255000D03*
X109030000Y-99255000D03*
X111570000Y-101795000D03*
X109030000Y-101795000D03*
X111570000Y-104335000D03*
X109030000Y-104335000D03*
X111570000Y-106875000D03*
X109030000Y-106875000D03*
X111570000Y-109415000D03*
X109030000Y-109415000D03*
X111570000Y-111955000D03*
X109030000Y-111955000D03*
X111570000Y-114495000D03*
X109030000Y-114495000D03*
X111570000Y-117035000D03*
X109030000Y-117035000D03*
X111570000Y-119575000D03*
X109030000Y-119575000D03*
X111570000Y-122115000D03*
X109030000Y-122115000D03*
X111570000Y-124655000D03*
X109030000Y-124655000D03*
X111570000Y-127195000D03*
X109030000Y-127195000D03*
X111570000Y-129735000D03*
X109030000Y-129735000D03*
X111570000Y-132275000D03*
X109030000Y-132275000D03*
X111570000Y-134815000D03*
X109030000Y-134815000D03*
X111570000Y-137355000D03*
X109030000Y-137355000D03*
X111570000Y-139895000D03*
X109030000Y-139895000D03*
X111570000Y-142435000D03*
X109030000Y-142435000D03*
%TD*%
%TO.C,J3*%
X166320000Y-129205000D03*
X166320000Y-126665000D03*
X166320000Y-124125000D03*
X166320000Y-121585000D03*
X166320000Y-119045000D03*
X166320000Y-116505000D03*
X166320000Y-113965000D03*
D17*
X166320000Y-111425000D03*
%TD*%
D16*
%TO.C,J2*%
X117820000Y-111955000D03*
X117820000Y-109415000D03*
X117820000Y-106875000D03*
X117820000Y-104335000D03*
X117820000Y-101795000D03*
X117820000Y-99255000D03*
X117820000Y-96715000D03*
D17*
X117820000Y-94175000D03*
%TD*%
D16*
%TO.C,J4*%
X166320000Y-106875000D03*
X166320000Y-104335000D03*
X166320000Y-101795000D03*
X166320000Y-99255000D03*
X166320000Y-96715000D03*
D17*
X166320000Y-94175000D03*
%TD*%
D16*
%TO.C,J1*%
X117820000Y-138535000D03*
X117820000Y-135995000D03*
X117820000Y-133455000D03*
X117820000Y-130915000D03*
X117820000Y-128375000D03*
X117820000Y-125835000D03*
X117820000Y-123295000D03*
X117820000Y-120755000D03*
X117820000Y-118215000D03*
D17*
X117820000Y-115675000D03*
%TD*%
D16*
%TO.C,J11*%
X107420000Y-71795000D03*
X107420000Y-69255000D03*
X107420000Y-66715000D03*
D17*
X107420000Y-64175000D03*
%TD*%
%LPD*%
M02*
