M48
; DRILL file {KiCad 8.0.5} date 2024-09-29T17:29:23+0200
; FORMAT={-:-/ absolute / inch / decimal}
; #@! TF.CreationDate,2024-09-29T17:29:23+02:00
; #@! TF.GenerationSoftware,Kicad,Pcbnew,8.0.5
; #@! TF.FileFunction,Plated,1,4,PTH
FMAT,2
INCH
; #@! TA.AperFunction,Plated,PTH,ComponentDrill
T1C0.0079
; #@! TA.AperFunction,Plated,PTH,ViaDrill
T2C0.0118
; #@! TA.AperFunction,Plated,PTH,ComponentDrill
T3C0.0118
; #@! TA.AperFunction,Plated,PTH,ComponentDrill
T4C0.0236
; #@! TA.AperFunction,Plated,PTH,ComponentDrill
T5C0.0394
%
G90
G05
T1
X6.4685Y-3.3445
X6.4685Y-3.3996
X6.4961Y-3.3169
X6.4961Y-3.372
X6.4961Y-3.4272
X6.5236Y-3.3445
X6.5236Y-3.3996
X6.5512Y-3.3169
X6.5512Y-3.372
X6.5512Y-3.4272
X6.5787Y-3.3445
X6.5787Y-3.3996
T2
X5.7323Y-3.7244
X5.7323Y-4.7047
X5.748Y-2.3071
X5.7717Y-3.5197
X5.8209Y-2.9685
X5.8228Y-2.5
X5.8228Y-3.0472
X5.8248Y-2.8504
X5.8465Y-3.0807
X5.8819Y-2.5787
X5.8917Y-3.126
X5.9193Y-2.6181
X5.937Y-4.0039
X5.9508Y-2.3248
X5.9528Y-2.5394
X5.9587Y-2.6575
X5.9587Y-3.3465
X5.9646Y-4.0433
X5.9882Y-3.8031
X5.9902Y-4.0827
X6.0079Y-2.8898
X6.0492Y-3.2461
X6.0512Y-3.1949
X6.0689Y-3.4055
X6.0689Y-3.4567
X6.0689Y-3.5059
X6.0728Y-3.1083
X6.0728Y-3.6693
X6.1063Y-3.8858
X6.1457Y-2.8898
X6.1496Y-3.9803
X6.1496Y-4.0433
X6.1496Y-4.1063
X6.1575Y-4.3346
X6.1614Y-4.752
X6.185Y-3.3563
X6.1969Y-3.2559
X6.1969Y-4.752
X6.2008Y-4.3346
X6.2146Y-2.3091
X6.2323Y-4.752
X6.2598Y-4.1614
X6.2697Y-2.5276
X6.2717Y-2.2795
X6.2717Y-2.315
X6.2992Y-4.5669
X6.2992Y-4.6024
X6.2992Y-4.6378
X6.2992Y-4.6732
X6.3248Y-2.4783
X6.3602Y-2.435
X6.3622Y-2.6457
X6.3661Y-2.7362
X6.3661Y-4.0236
X6.378Y-3.1457
X6.378Y-3.7047
X6.4272Y-3.7047
X6.4606Y-4.2717
X6.502Y-3.0276
X6.5531Y-3.0118
X6.6024Y-3.0118
X6.6024Y-4.0827
X6.6339Y-4.2126
X6.6378Y-4.0276
X6.6516Y-3.0118
X6.689Y-4.2795
X6.689Y-4.7795
X6.7283Y-3.0098
X6.7283Y-3.1437
X6.7283Y-3.3819
X6.752Y-3.6614
X6.7776Y-2.9961
X6.8187Y-4.0797
X6.8268Y-3.0256
X6.8386Y-3.1575
X6.8386Y-3.2126
X6.8701Y-4.4528
X6.9035Y-3.3228
X6.9094Y-4.3031
X6.9219Y-4.0797
X6.9862Y-2.9232
X7.0256Y-3.0846
X7.0295Y-3.2028
X7.0551Y-4.1102
X7.0571Y-2.2874
X7.0571Y-2.5394
X7.0571Y-2.7815
X7.1378Y-3.8583
X7.1457Y-3.5886
X7.1811Y-3.435
X7.2146Y-2.2894
X7.2146Y-2.5413
X7.2146Y-2.7835
X7.2205Y-3.6673
X7.2205Y-3.7323
T3
X6.5748Y-4.4409
X6.5748Y-4.4882
X6.622Y-4.4409
X6.622Y-4.4882
X6.6732Y-4.4409
X6.6732Y-4.4882
X6.7165Y-4.4409
X6.7165Y-4.4882
T5
X5.815Y-3.3071
X6.9094Y-4.7953
X6.9646Y-3.4614
X6.9646Y-3.5614
X6.9646Y-3.6614
X6.9646Y-3.7614
X6.9646Y-3.8614
X6.9646Y-3.9614
X7.0551Y-4.7953
T4
G00X6.9634Y-2.9835
M15
G01X7.0067Y-2.9835
M16
G05
G00X6.9634Y-3.3236
M15
G01X7.0067Y-3.3236
M16
G05
G00X7.1339Y-2.9835
M15
G01X7.1654Y-2.9835
M16
G05
G00X7.1339Y-3.3236
M15
G01X7.1654Y-3.3236
M16
G05
M30
