M48
; DRILL file {KiCad 8.0.2} date 2024-06-28T22:02:35+0200
; FORMAT={-:-/ absolute / inch / decimal}
; #@! TF.CreationDate,2024-06-28T22:02:35+02:00
; #@! TF.GenerationSoftware,Kicad,Pcbnew,8.0.2
; #@! TF.FileFunction,Plated,1,2,PTH
FMAT,2
INCH
; #@! TA.AperFunction,Plated,PTH,ViaDrill
T1C0.0118
; #@! TA.AperFunction,Plated,PTH,ComponentDrill
T2C0.0394
; #@! TA.AperFunction,Plated,PTH,ComponentDrill
T3C0.0472
; #@! TA.AperFunction,Plated,PTH,ComponentDrill
T4C0.0610
%
G90
G05
T1
X5.2717Y-2.6929
X5.3898Y-2.8701
X5.8268Y-2.9173
X6.0197Y-2.815
X6.1457Y-3.0984
X6.2193Y-3.2077
X6.8071Y-3.4331
X6.8665Y-2.622
X6.8748Y-3.8626
X6.9567Y-2.7677
X7.0941Y-2.6217
X7.1323Y-4.3039
T2
X4.2291Y-2.5266
X4.2291Y-2.6266
X4.2291Y-2.7266
X4.2291Y-2.8266
X4.2925Y-3.7077
X4.2925Y-3.8077
X4.2925Y-3.9077
X4.2925Y-4.0077
X4.2925Y-4.1077
X4.2925Y-4.2077
X4.2925Y-4.3077
X4.2925Y-4.4077
X4.2925Y-4.5077
X4.2925Y-4.6077
X4.2925Y-4.7077
X4.2925Y-4.8077
X4.2925Y-4.9077
X4.2925Y-5.0077
X4.2925Y-5.1077
X4.2925Y-5.2077
X4.2925Y-5.3077
X4.2925Y-5.4077
X4.2925Y-5.5077
X4.2925Y-5.6077
X4.3925Y-3.7077
X4.3925Y-3.8077
X4.3925Y-3.9077
X4.3925Y-4.0077
X4.3925Y-4.1077
X4.3925Y-4.2077
X4.3925Y-4.3077
X4.3925Y-4.4077
X4.3925Y-4.5077
X4.3925Y-4.6077
X4.3925Y-4.7077
X4.3925Y-4.8077
X4.3925Y-4.9077
X4.3925Y-5.0077
X4.3925Y-5.1077
X4.3925Y-5.2077
X4.3925Y-5.3077
X4.3925Y-5.4077
X4.3925Y-5.5077
X4.3925Y-5.6077
X4.5343Y-2.5266
X4.5343Y-2.6266
X4.5343Y-2.7266
X4.5343Y-2.8266
X4.6386Y-3.7077
X4.6386Y-3.8077
X4.6386Y-3.9077
X4.6386Y-4.0077
X4.6386Y-4.1077
X4.6386Y-4.2077
X4.6386Y-4.3077
X4.6386Y-4.4077
X4.6386Y-4.5541
X4.6386Y-4.6541
X4.6386Y-4.7541
X4.6386Y-4.8541
X4.6386Y-4.9541
X4.6386Y-5.0541
X4.6386Y-5.1541
X4.6386Y-5.2541
X4.6386Y-5.3541
X4.6386Y-5.4541
X6.548Y-3.7077
X6.548Y-3.8077
X6.548Y-3.9077
X6.548Y-4.0077
X6.548Y-4.1077
X6.548Y-4.2077
X6.548Y-4.3868
X6.548Y-4.4868
X6.548Y-4.5868
X6.548Y-4.6868
X6.548Y-4.7868
X6.548Y-4.8868
X6.548Y-4.9868
X6.548Y-5.0868
T3
X5.5059Y-3.2756
X6.0059Y-3.2756
T4
X3.8268Y-4.2087
X3.8268Y-4.7047
X3.8268Y-5.2795
X3.8268Y-5.4606
X3.8268Y-5.6417
X3.8307Y-3.7283
X3.9941Y-2.7587
X3.9949Y-2.5626
X4.0276Y-4.252
X4.0276Y-4.4331
X4.0276Y-4.9488
X4.0276Y-5.1299
X4.0276Y-5.311
X4.0276Y-5.5118
X5.0394Y-2.8268
X5.0394Y-3.0591
X6.5276Y-2.4724
X6.7441Y-2.4724
X6.9606Y-2.4724
X7.1327Y-3.6811
X7.1339Y-3.8622
X7.1772Y-2.4724
M30
