M48
; DRILL file {KiCad 9.0.0} date 2025-03-22T23:29:01+0100
; FORMAT={-:-/ absolute / inch / decimal}
; #@! TF.CreationDate,2025-03-22T23:29:01+01:00
; #@! TF.GenerationSoftware,Kicad,Pcbnew,9.0.0
; #@! TF.FileFunction,Plated,1,4,PTH
FMAT,2
INCH
; #@! TA.AperFunction,Plated,PTH,ComponentDrill
T1C0.0079
; #@! TA.AperFunction,Plated,PTH,ViaDrill
T2C0.0118
; #@! TA.AperFunction,Plated,PTH,ComponentDrill
T3C0.0236
; #@! TA.AperFunction,Plated,PTH,ComponentDrill
T4C0.0374
; #@! TA.AperFunction,Plated,PTH,ComponentDrill
T5C0.0394
; #@! TA.AperFunction,Plated,PTH,ComponentDrill
T6C0.1260
%
G90
G05
T1
X3.6195Y-3.7028
X3.6195Y-3.7539
X3.6707Y-3.7028
X3.6707Y-3.7539
X3.7219Y-3.7028
X3.7219Y-3.7539
X3.773Y-3.7028
X3.773Y-3.7539
X5.2165Y-3.2303
X5.2165Y-3.2854
X5.2441Y-3.2028
X5.2441Y-3.2579
X5.2441Y-3.313
X5.2717Y-3.2303
X5.2717Y-3.2854
X5.2992Y-3.2028
X5.2992Y-3.2579
X5.2992Y-3.313
X5.3268Y-3.2303
X5.3268Y-3.2854
T2
X3.2579Y-3.7992
X3.2579Y-3.8976
X3.2579Y-4.2224
X3.3465Y-3.7992
X3.3465Y-3.8976
X3.3563Y-2.5689
X3.3563Y-2.8346
X3.3563Y-3.0413
X3.3563Y-3.2283
X3.4646Y-4.0551
X3.563Y-4.0551
X3.6122Y-2.7953
X3.622Y-2.1654
X3.622Y-2.3622
X3.622Y-2.5689
X3.6713Y-3.8976
X3.7008Y-4.252
X3.7303Y-1.8898
X3.7303Y-2.0571
X3.7303Y-3.0217
X3.7303Y-3.0906
X3.7697Y-2.4705
X3.7992Y-3.1299
X3.8287Y-2.3622
X3.8287Y-3.4843
X3.8386Y-4.311
X3.8583Y-2.1654
X3.8976Y-3.3169
X3.9173Y-3.1299
X3.937Y-3.3661
X3.9488Y-2.7087
X3.9567Y-2.4508
X3.9764Y-3.0217
X3.9764Y-3.0906
X3.9961Y-4.3701
X4.0453Y-2.1555
X4.065Y-2.3622
X4.0748Y-3.2874
X4.0748Y-4.4291
X4.0846Y-2.6575
X4.0846Y-2.8346
X4.0846Y-3.0413
X4.0846Y-3.2087
X4.1043Y-2.4705
X4.1339Y-3.2874
X4.1339Y-3.3366
X4.1339Y-3.3858
X4.1535Y-2.4409
X4.1831Y-1.8898
X4.1831Y-2.0472
X4.1831Y-3.2874
X4.1831Y-3.3366
X4.1831Y-3.3858
X4.2323Y-3.2874
X4.2323Y-3.3366
X4.2323Y-3.3858
X4.2323Y-4.252
X4.2323Y-4.311
X4.2323Y-4.3701
X4.2323Y-4.4291
X4.2815Y-2.4705
X4.311Y-2.4409
X4.311Y-3.0315
X4.3799Y-1.8898
X4.3799Y-2.0472
X4.3799Y-3.2874
X4.3799Y-3.3268
X4.3799Y-3.376
X4.3799Y-3.4252
X4.3898Y-4.0551
X4.4587Y-2.4114
X4.4587Y-2.4902
X4.4882Y-4.0551
X4.5276Y-3.6614
X4.626Y-4.252
X4.7146Y-3.5925
X4.7835Y-3.189
X4.7835Y-3.3465
X4.7835Y-3.4941
X4.7835Y-4.311
X4.813Y-2.1358
X4.813Y-2.9528
X4.8136Y-3.5919
X4.8144Y-3.0919
X4.9429Y-2.3051
X4.9606Y-3.0512
X4.9803Y-4.3701
X4.9803Y-4.4291
X4.9902Y-3.8189
X4.9902Y-3.9272
X5.0Y-2.4803
X5.0Y-2.6181
X5.0295Y-2.1358
X5.0295Y-2.3031
X5.0295Y-3.5728
X5.0295Y-3.9764
X5.0492Y-2.7854
X5.1378Y-2.4409
X5.1378Y-3.4449
X5.1378Y-3.5335
X5.1575Y-4.252
X5.1575Y-4.311
X5.1575Y-4.3701
X5.1575Y-4.4291
X5.1772Y-3.7303
X5.2264Y-2.5295
X5.2264Y-2.6673
X5.2264Y-3.8386
X5.2953Y-2.6673
X5.315Y-2.7756
X5.315Y-4.0551
X5.3248Y-2.9035
X5.374Y-2.8839
X5.3937Y-1.9488
X5.3937Y-2.2047
X5.3957Y-2.6398
X5.4134Y-2.5984
X5.4134Y-4.0551
X5.4232Y-2.9134
X5.4921Y-3.7205
X5.5118Y-3.2579
X5.5217Y-3.9665
X5.5315Y-2.7756
X5.5807Y-3.7205
X5.6299Y-2.4508
X5.6594Y-2.9724
X5.7185Y-2.6575
X5.7185Y-2.7756
X5.7579Y-1.9488
X5.7579Y-2.2047
X5.7677Y-3.376
X5.7697Y-2.6398
X5.7697Y-2.6791
X5.7776Y-2.9331
X5.7776Y-3.7697
X5.7972Y-3.6417
X5.8071Y-3.2185
X5.8268Y-3.6024
X5.8563Y-3.376
X5.8858Y-3.1201
X5.9055Y-2.5394
X5.9055Y-2.7461
X5.9055Y-2.8642
X5.9055Y-3.8484
X5.9646Y-2.4213
X5.9646Y-2.4803
X5.9843Y-3.5039
X5.9941Y-3.8484
X6.0236Y-3.6713
X6.0384Y-3.4892
X6.0413Y-3.1909
X6.0433Y-3.0118
X6.0453Y-3.0886
X6.0827Y-3.8484
X6.0842Y-2.1535
X6.0925Y-3.3169
X6.0925Y-3.4252
X6.1024Y-3.6024
X6.122Y-1.9488
X6.122Y-2.2343
X6.122Y-2.3622
X6.122Y-2.5492
X6.1713Y-4.2913
X6.1713Y-4.4685
X6.2057Y-3.8435
X6.2106Y-2.5984
X6.2106Y-4.0256
X6.2717Y-3.2992
X6.2894Y-3.5433
X6.2894Y-4.0256
X6.3091Y-2.5492
X6.3091Y-3.0315
X6.3091Y-4.439
X6.3583Y-2.0177
X6.3652Y-3.8022
X6.3976Y-3.1201
X6.3976Y-3.2185
X6.3976Y-3.3169
X6.4173Y-1.9488
X6.4173Y-2.1949
X6.4173Y-2.3524
X6.437Y-4.4488
X6.4783Y-2.6526
X6.4803Y-3.0108
X6.5059Y-3.6122
X6.5059Y-4.1339
X6.5487Y-4.1998
X6.5517Y-4.4488
X6.5551Y-3.7205
X6.565Y-3.4843
X6.5846Y-4.1437
X6.6043Y-3.6122
X6.6142Y-2.3524
X6.6142Y-2.5492
X6.6535Y-3.7205
X6.7028Y-3.6122
X6.7579Y-4.1201
X6.8012Y-3.7697
X6.811Y-3.6024
X6.8996Y-3.7697
X6.9291Y-3.6024
X6.998Y-3.7697
T4
X3.4646Y-4.1339
X3.563Y-4.1339
X3.6614Y-4.1339
X3.7598Y-4.1339
X3.8583Y-4.1339
X3.9567Y-4.1339
X4.0551Y-4.1339
X4.1535Y-4.1339
X4.3898Y-4.1339
X4.4882Y-4.1339
X4.5866Y-4.1339
X4.685Y-4.1339
X4.7835Y-4.1339
X4.8819Y-4.1339
X4.9803Y-4.1339
X5.0787Y-4.1339
X5.315Y-4.1339
X5.4134Y-4.1339
X5.5118Y-4.1339
X5.6102Y-4.1339
X5.7087Y-4.1339
X5.8071Y-4.1339
X5.9055Y-4.1339
X6.0039Y-4.1339
X6.6949Y-2.3524
X6.6949Y-2.4508
X6.6949Y-2.5492
X6.6949Y-3.1201
X6.6949Y-3.2185
X6.6949Y-3.3169
T5
X6.4996Y-3.8583
X6.5996Y-3.8583
X6.6929Y-4.2913
X6.6929Y-4.3898
X6.6949Y-2.0177
X6.6949Y-2.1161
X6.6949Y-2.7854
X6.6949Y-2.8839
X6.6996Y-3.8583
X6.7996Y-3.8583
X6.8996Y-3.8583
X6.998Y-4.0157
X6.9996Y-3.8583
T6
X3.3661Y-3.4252
X4.6063Y-3.4252
T3
G00X3.7866Y-1.9053
M15
G01X3.7866Y-1.8738
M16
G05
G00X3.7866Y-2.0758
M15
G01X3.7866Y-2.0325
M16
G05
G00X4.1268Y-1.9053
M15
G01X4.1268Y-1.8738
M16
G05
G00X4.1268Y-2.0758
M15
G01X4.1268Y-2.0325
M16
G05
M30
