%TF.GenerationSoftware,KiCad,Pcbnew,8.0.5*%
%TF.CreationDate,2024-09-23T19:59:45+02:00*%
%TF.ProjectId,Leiterkarte-v2,4c656974-6572-46b6-9172-74652d76322e,rev?*%
%TF.SameCoordinates,Original*%
%TF.FileFunction,Legend,Bot*%
%TF.FilePolarity,Positive*%
%FSLAX46Y46*%
G04 Gerber Fmt 4.6, Leading zero omitted, Abs format (unit mm)*
G04 Created by KiCad (PCBNEW 8.0.5) date 2024-09-23 19:59:45*
%MOMM*%
%LPD*%
G01*
G04 APERTURE LIST*
G04 Aperture macros list*
%AMRoundRect*
0 Rectangle with rounded corners*
0 $1 Rounding radius*
0 $2 $3 $4 $5 $6 $7 $8 $9 X,Y pos of 4 corners*
0 Add a 4 corners polygon primitive as box body*
4,1,4,$2,$3,$4,$5,$6,$7,$8,$9,$2,$3,0*
0 Add four circle primitives for the rounded corners*
1,1,$1+$1,$2,$3*
1,1,$1+$1,$4,$5*
1,1,$1+$1,$6,$7*
1,1,$1+$1,$8,$9*
0 Add four rect primitives between the rounded corners*
20,1,$1+$1,$2,$3,$4,$5,0*
20,1,$1+$1,$4,$5,$6,$7,0*
20,1,$1+$1,$6,$7,$8,$9,0*
20,1,$1+$1,$8,$9,$2,$3,0*%
G04 Aperture macros list end*
%ADD10C,0.300000*%
%ADD11C,0.150000*%
%ADD12C,0.120000*%
%ADD13C,0.152400*%
%ADD14C,0.127000*%
%ADD15R,1.700000X1.700000*%
%ADD16O,1.700000X1.700000*%
%ADD17C,1.000000*%
%ADD18RoundRect,0.250000X0.250000X0.475000X-0.250000X0.475000X-0.250000X-0.475000X0.250000X-0.475000X0*%
%ADD19R,2.794000X0.939800*%
%ADD20R,7.239000X6.832600*%
%ADD21RoundRect,0.250000X0.475000X-0.250000X0.475000X0.250000X-0.475000X0.250000X-0.475000X-0.250000X0*%
%ADD22RoundRect,0.250000X1.000000X0.650000X-1.000000X0.650000X-1.000000X-0.650000X1.000000X-0.650000X0*%
%ADD23RoundRect,0.218750X0.256250X-0.218750X0.256250X0.218750X-0.256250X0.218750X-0.256250X-0.218750X0*%
%ADD24RoundRect,0.102000X-1.700000X0.925000X-1.700000X-0.925000X1.700000X-0.925000X1.700000X0.925000X0*%
%ADD25R,0.600000X1.550000*%
%ADD26R,3.100000X2.600000*%
G04 APERTURE END LIST*
D10*
X146115114Y-101271428D02*
X146115114Y-100771428D01*
X146900828Y-100771428D02*
X145400828Y-100771428D01*
X145400828Y-100771428D02*
X145400828Y-101485714D01*
X145400828Y-102342857D02*
X145400828Y-102628571D01*
X145400828Y-102628571D02*
X145472257Y-102771428D01*
X145472257Y-102771428D02*
X145615114Y-102914285D01*
X145615114Y-102914285D02*
X145900828Y-102985714D01*
X145900828Y-102985714D02*
X146400828Y-102985714D01*
X146400828Y-102985714D02*
X146686542Y-102914285D01*
X146686542Y-102914285D02*
X146829400Y-102771428D01*
X146829400Y-102771428D02*
X146900828Y-102628571D01*
X146900828Y-102628571D02*
X146900828Y-102342857D01*
X146900828Y-102342857D02*
X146829400Y-102200000D01*
X146829400Y-102200000D02*
X146686542Y-102057142D01*
X146686542Y-102057142D02*
X146400828Y-101985714D01*
X146400828Y-101985714D02*
X145900828Y-101985714D01*
X145900828Y-101985714D02*
X145615114Y-102057142D01*
X145615114Y-102057142D02*
X145472257Y-102200000D01*
X145472257Y-102200000D02*
X145400828Y-102342857D01*
X145400828Y-103485714D02*
X146900828Y-103842857D01*
X146900828Y-103842857D02*
X145829400Y-104128571D01*
X145829400Y-104128571D02*
X146900828Y-104414286D01*
X146900828Y-104414286D02*
X145400828Y-104771429D01*
X146229400Y-108899999D02*
X146229400Y-110042857D01*
X146229400Y-110757142D02*
X146229400Y-111900000D01*
X146800828Y-111328571D02*
X145657971Y-111328571D01*
D11*
X177454819Y-102280952D02*
X176978628Y-101947619D01*
X177454819Y-101709524D02*
X176454819Y-101709524D01*
X176454819Y-101709524D02*
X176454819Y-102090476D01*
X176454819Y-102090476D02*
X176502438Y-102185714D01*
X176502438Y-102185714D02*
X176550057Y-102233333D01*
X176550057Y-102233333D02*
X176645295Y-102280952D01*
X176645295Y-102280952D02*
X176788152Y-102280952D01*
X176788152Y-102280952D02*
X176883390Y-102233333D01*
X176883390Y-102233333D02*
X176931009Y-102185714D01*
X176931009Y-102185714D02*
X176978628Y-102090476D01*
X176978628Y-102090476D02*
X176978628Y-101709524D01*
X176788152Y-103138095D02*
X177597676Y-103138095D01*
X177597676Y-103138095D02*
X177692914Y-103090476D01*
X177692914Y-103090476D02*
X177740533Y-103042857D01*
X177740533Y-103042857D02*
X177788152Y-102947619D01*
X177788152Y-102947619D02*
X177788152Y-102804762D01*
X177788152Y-102804762D02*
X177740533Y-102709524D01*
X177407200Y-103138095D02*
X177454819Y-103042857D01*
X177454819Y-103042857D02*
X177454819Y-102852381D01*
X177454819Y-102852381D02*
X177407200Y-102757143D01*
X177407200Y-102757143D02*
X177359580Y-102709524D01*
X177359580Y-102709524D02*
X177264342Y-102661905D01*
X177264342Y-102661905D02*
X176978628Y-102661905D01*
X176978628Y-102661905D02*
X176883390Y-102709524D01*
X176883390Y-102709524D02*
X176835771Y-102757143D01*
X176835771Y-102757143D02*
X176788152Y-102852381D01*
X176788152Y-102852381D02*
X176788152Y-103042857D01*
X176788152Y-103042857D02*
X176835771Y-103138095D01*
X177454819Y-104138095D02*
X177454819Y-103566667D01*
X177454819Y-103852381D02*
X176454819Y-103852381D01*
X176454819Y-103852381D02*
X176597676Y-103757143D01*
X176597676Y-103757143D02*
X176692914Y-103661905D01*
X176692914Y-103661905D02*
X176740533Y-103566667D01*
X171257143Y-122659580D02*
X171304762Y-122707200D01*
X171304762Y-122707200D02*
X171447619Y-122754819D01*
X171447619Y-122754819D02*
X171542857Y-122754819D01*
X171542857Y-122754819D02*
X171685714Y-122707200D01*
X171685714Y-122707200D02*
X171780952Y-122611961D01*
X171780952Y-122611961D02*
X171828571Y-122516723D01*
X171828571Y-122516723D02*
X171876190Y-122326247D01*
X171876190Y-122326247D02*
X171876190Y-122183390D01*
X171876190Y-122183390D02*
X171828571Y-121992914D01*
X171828571Y-121992914D02*
X171780952Y-121897676D01*
X171780952Y-121897676D02*
X171685714Y-121802438D01*
X171685714Y-121802438D02*
X171542857Y-121754819D01*
X171542857Y-121754819D02*
X171447619Y-121754819D01*
X171447619Y-121754819D02*
X171304762Y-121802438D01*
X171304762Y-121802438D02*
X171257143Y-121850057D01*
X170685714Y-122754819D02*
X170780952Y-122707200D01*
X170780952Y-122707200D02*
X170828571Y-122659580D01*
X170828571Y-122659580D02*
X170876190Y-122564342D01*
X170876190Y-122564342D02*
X170876190Y-122278628D01*
X170876190Y-122278628D02*
X170828571Y-122183390D01*
X170828571Y-122183390D02*
X170780952Y-122135771D01*
X170780952Y-122135771D02*
X170685714Y-122088152D01*
X170685714Y-122088152D02*
X170542857Y-122088152D01*
X170542857Y-122088152D02*
X170447619Y-122135771D01*
X170447619Y-122135771D02*
X170400000Y-122183390D01*
X170400000Y-122183390D02*
X170352381Y-122278628D01*
X170352381Y-122278628D02*
X170352381Y-122564342D01*
X170352381Y-122564342D02*
X170400000Y-122659580D01*
X170400000Y-122659580D02*
X170447619Y-122707200D01*
X170447619Y-122707200D02*
X170542857Y-122754819D01*
X170542857Y-122754819D02*
X170685714Y-122754819D01*
X169495238Y-122088152D02*
X169495238Y-122754819D01*
X169923809Y-122088152D02*
X169923809Y-122611961D01*
X169923809Y-122611961D02*
X169876190Y-122707200D01*
X169876190Y-122707200D02*
X169780952Y-122754819D01*
X169780952Y-122754819D02*
X169638095Y-122754819D01*
X169638095Y-122754819D02*
X169542857Y-122707200D01*
X169542857Y-122707200D02*
X169495238Y-122659580D01*
X169161904Y-122088152D02*
X168780952Y-122088152D01*
X169019047Y-121754819D02*
X169019047Y-122611961D01*
X169019047Y-122611961D02*
X168971428Y-122707200D01*
X168971428Y-122707200D02*
X168876190Y-122754819D01*
X168876190Y-122754819D02*
X168780952Y-122754819D01*
X168495237Y-121850057D02*
X168447618Y-121802438D01*
X168447618Y-121802438D02*
X168352380Y-121754819D01*
X168352380Y-121754819D02*
X168114285Y-121754819D01*
X168114285Y-121754819D02*
X168019047Y-121802438D01*
X168019047Y-121802438D02*
X167971428Y-121850057D01*
X167971428Y-121850057D02*
X167923809Y-121945295D01*
X167923809Y-121945295D02*
X167923809Y-122040533D01*
X167923809Y-122040533D02*
X167971428Y-122183390D01*
X167971428Y-122183390D02*
X168542856Y-122754819D01*
X168542856Y-122754819D02*
X167923809Y-122754819D01*
X151859580Y-108009523D02*
X151907200Y-107961904D01*
X151907200Y-107961904D02*
X151954819Y-107819047D01*
X151954819Y-107819047D02*
X151954819Y-107723809D01*
X151954819Y-107723809D02*
X151907200Y-107580952D01*
X151907200Y-107580952D02*
X151811961Y-107485714D01*
X151811961Y-107485714D02*
X151716723Y-107438095D01*
X151716723Y-107438095D02*
X151526247Y-107390476D01*
X151526247Y-107390476D02*
X151383390Y-107390476D01*
X151383390Y-107390476D02*
X151192914Y-107438095D01*
X151192914Y-107438095D02*
X151097676Y-107485714D01*
X151097676Y-107485714D02*
X151002438Y-107580952D01*
X151002438Y-107580952D02*
X150954819Y-107723809D01*
X150954819Y-107723809D02*
X150954819Y-107819047D01*
X150954819Y-107819047D02*
X151002438Y-107961904D01*
X151002438Y-107961904D02*
X151050057Y-108009523D01*
X151954819Y-108438095D02*
X151288152Y-108438095D01*
X151383390Y-108438095D02*
X151335771Y-108485714D01*
X151335771Y-108485714D02*
X151288152Y-108580952D01*
X151288152Y-108580952D02*
X151288152Y-108723809D01*
X151288152Y-108723809D02*
X151335771Y-108819047D01*
X151335771Y-108819047D02*
X151431009Y-108866666D01*
X151431009Y-108866666D02*
X151954819Y-108866666D01*
X151431009Y-108866666D02*
X151335771Y-108914285D01*
X151335771Y-108914285D02*
X151288152Y-109009523D01*
X151288152Y-109009523D02*
X151288152Y-109152380D01*
X151288152Y-109152380D02*
X151335771Y-109247619D01*
X151335771Y-109247619D02*
X151431009Y-109295238D01*
X151431009Y-109295238D02*
X151954819Y-109295238D01*
X151954819Y-110199999D02*
X151431009Y-110199999D01*
X151431009Y-110199999D02*
X151335771Y-110152380D01*
X151335771Y-110152380D02*
X151288152Y-110057142D01*
X151288152Y-110057142D02*
X151288152Y-109866666D01*
X151288152Y-109866666D02*
X151335771Y-109771428D01*
X151907200Y-110199999D02*
X151954819Y-110104761D01*
X151954819Y-110104761D02*
X151954819Y-109866666D01*
X151954819Y-109866666D02*
X151907200Y-109771428D01*
X151907200Y-109771428D02*
X151811961Y-109723809D01*
X151811961Y-109723809D02*
X151716723Y-109723809D01*
X151716723Y-109723809D02*
X151621485Y-109771428D01*
X151621485Y-109771428D02*
X151573866Y-109866666D01*
X151573866Y-109866666D02*
X151573866Y-110104761D01*
X151573866Y-110104761D02*
X151526247Y-110199999D01*
X151954819Y-110580952D02*
X151288152Y-111104761D01*
X151288152Y-110580952D02*
X151954819Y-111104761D01*
X151954819Y-112009523D02*
X151954819Y-111438095D01*
X151954819Y-111723809D02*
X150954819Y-111723809D01*
X150954819Y-111723809D02*
X151097676Y-111628571D01*
X151097676Y-111628571D02*
X151192914Y-111533333D01*
X151192914Y-111533333D02*
X151240533Y-111438095D01*
X177554819Y-98180952D02*
X177554819Y-97704762D01*
X177554819Y-97704762D02*
X176554819Y-97704762D01*
X177031009Y-98514286D02*
X177031009Y-98847619D01*
X177554819Y-98990476D02*
X177554819Y-98514286D01*
X177554819Y-98514286D02*
X176554819Y-98514286D01*
X176554819Y-98514286D02*
X176554819Y-98990476D01*
X177554819Y-99419048D02*
X176554819Y-99419048D01*
X176554819Y-99419048D02*
X176554819Y-99657143D01*
X176554819Y-99657143D02*
X176602438Y-99800000D01*
X176602438Y-99800000D02*
X176697676Y-99895238D01*
X176697676Y-99895238D02*
X176792914Y-99942857D01*
X176792914Y-99942857D02*
X176983390Y-99990476D01*
X176983390Y-99990476D02*
X177126247Y-99990476D01*
X177126247Y-99990476D02*
X177316723Y-99942857D01*
X177316723Y-99942857D02*
X177411961Y-99895238D01*
X177411961Y-99895238D02*
X177507200Y-99800000D01*
X177507200Y-99800000D02*
X177554819Y-99657143D01*
X177554819Y-99657143D02*
X177554819Y-99419048D01*
X176554819Y-100323810D02*
X176554819Y-100942857D01*
X176554819Y-100942857D02*
X176935771Y-100609524D01*
X176935771Y-100609524D02*
X176935771Y-100752381D01*
X176935771Y-100752381D02*
X176983390Y-100847619D01*
X176983390Y-100847619D02*
X177031009Y-100895238D01*
X177031009Y-100895238D02*
X177126247Y-100942857D01*
X177126247Y-100942857D02*
X177364342Y-100942857D01*
X177364342Y-100942857D02*
X177459580Y-100895238D01*
X177459580Y-100895238D02*
X177507200Y-100847619D01*
X177507200Y-100847619D02*
X177554819Y-100752381D01*
X177554819Y-100752381D02*
X177554819Y-100466667D01*
X177554819Y-100466667D02*
X177507200Y-100371429D01*
X177507200Y-100371429D02*
X177459580Y-100323810D01*
X152003180Y-124754819D02*
X151384133Y-124754819D01*
X151384133Y-124754819D02*
X151717466Y-125135771D01*
X151717466Y-125135771D02*
X151574609Y-125135771D01*
X151574609Y-125135771D02*
X151479371Y-125183390D01*
X151479371Y-125183390D02*
X151431752Y-125231009D01*
X151431752Y-125231009D02*
X151384133Y-125326247D01*
X151384133Y-125326247D02*
X151384133Y-125564342D01*
X151384133Y-125564342D02*
X151431752Y-125659580D01*
X151431752Y-125659580D02*
X151479371Y-125707200D01*
X151479371Y-125707200D02*
X151574609Y-125754819D01*
X151574609Y-125754819D02*
X151860323Y-125754819D01*
X151860323Y-125754819D02*
X151955561Y-125707200D01*
X151955561Y-125707200D02*
X152003180Y-125659580D01*
X150955561Y-125659580D02*
X150907942Y-125707200D01*
X150907942Y-125707200D02*
X150955561Y-125754819D01*
X150955561Y-125754819D02*
X151003180Y-125707200D01*
X151003180Y-125707200D02*
X150955561Y-125659580D01*
X150955561Y-125659580D02*
X150955561Y-125754819D01*
X150574609Y-124754819D02*
X149955562Y-124754819D01*
X149955562Y-124754819D02*
X150288895Y-125135771D01*
X150288895Y-125135771D02*
X150146038Y-125135771D01*
X150146038Y-125135771D02*
X150050800Y-125183390D01*
X150050800Y-125183390D02*
X150003181Y-125231009D01*
X150003181Y-125231009D02*
X149955562Y-125326247D01*
X149955562Y-125326247D02*
X149955562Y-125564342D01*
X149955562Y-125564342D02*
X150003181Y-125659580D01*
X150003181Y-125659580D02*
X150050800Y-125707200D01*
X150050800Y-125707200D02*
X150146038Y-125754819D01*
X150146038Y-125754819D02*
X150431752Y-125754819D01*
X150431752Y-125754819D02*
X150526990Y-125707200D01*
X150526990Y-125707200D02*
X150574609Y-125659580D01*
X149669847Y-124754819D02*
X149336514Y-125754819D01*
X149336514Y-125754819D02*
X149003181Y-124754819D01*
X148146038Y-125754819D02*
X148717466Y-125754819D01*
X148431752Y-125754819D02*
X148431752Y-124754819D01*
X148431752Y-124754819D02*
X148526990Y-124897676D01*
X148526990Y-124897676D02*
X148622228Y-124992914D01*
X148622228Y-124992914D02*
X148717466Y-125040533D01*
X163959580Y-109790475D02*
X164007200Y-109742856D01*
X164007200Y-109742856D02*
X164054819Y-109599999D01*
X164054819Y-109599999D02*
X164054819Y-109504761D01*
X164054819Y-109504761D02*
X164007200Y-109361904D01*
X164007200Y-109361904D02*
X163911961Y-109266666D01*
X163911961Y-109266666D02*
X163816723Y-109219047D01*
X163816723Y-109219047D02*
X163626247Y-109171428D01*
X163626247Y-109171428D02*
X163483390Y-109171428D01*
X163483390Y-109171428D02*
X163292914Y-109219047D01*
X163292914Y-109219047D02*
X163197676Y-109266666D01*
X163197676Y-109266666D02*
X163102438Y-109361904D01*
X163102438Y-109361904D02*
X163054819Y-109504761D01*
X163054819Y-109504761D02*
X163054819Y-109599999D01*
X163054819Y-109599999D02*
X163102438Y-109742856D01*
X163102438Y-109742856D02*
X163150057Y-109790475D01*
X164054819Y-110219047D02*
X163054819Y-110219047D01*
X163435771Y-110219047D02*
X163388152Y-110314285D01*
X163388152Y-110314285D02*
X163388152Y-110504761D01*
X163388152Y-110504761D02*
X163435771Y-110599999D01*
X163435771Y-110599999D02*
X163483390Y-110647618D01*
X163483390Y-110647618D02*
X163578628Y-110695237D01*
X163578628Y-110695237D02*
X163864342Y-110695237D01*
X163864342Y-110695237D02*
X163959580Y-110647618D01*
X163959580Y-110647618D02*
X164007200Y-110599999D01*
X164007200Y-110599999D02*
X164054819Y-110504761D01*
X164054819Y-110504761D02*
X164054819Y-110314285D01*
X164054819Y-110314285D02*
X164007200Y-110219047D01*
X164054819Y-111266666D02*
X164007200Y-111171428D01*
X164007200Y-111171428D02*
X163959580Y-111123809D01*
X163959580Y-111123809D02*
X163864342Y-111076190D01*
X163864342Y-111076190D02*
X163578628Y-111076190D01*
X163578628Y-111076190D02*
X163483390Y-111123809D01*
X163483390Y-111123809D02*
X163435771Y-111171428D01*
X163435771Y-111171428D02*
X163388152Y-111266666D01*
X163388152Y-111266666D02*
X163388152Y-111409523D01*
X163388152Y-111409523D02*
X163435771Y-111504761D01*
X163435771Y-111504761D02*
X163483390Y-111552380D01*
X163483390Y-111552380D02*
X163578628Y-111599999D01*
X163578628Y-111599999D02*
X163864342Y-111599999D01*
X163864342Y-111599999D02*
X163959580Y-111552380D01*
X163959580Y-111552380D02*
X164007200Y-111504761D01*
X164007200Y-111504761D02*
X164054819Y-111409523D01*
X164054819Y-111409523D02*
X164054819Y-111266666D01*
X164054819Y-112171428D02*
X164007200Y-112076190D01*
X164007200Y-112076190D02*
X163959580Y-112028571D01*
X163959580Y-112028571D02*
X163864342Y-111980952D01*
X163864342Y-111980952D02*
X163578628Y-111980952D01*
X163578628Y-111980952D02*
X163483390Y-112028571D01*
X163483390Y-112028571D02*
X163435771Y-112076190D01*
X163435771Y-112076190D02*
X163388152Y-112171428D01*
X163388152Y-112171428D02*
X163388152Y-112314285D01*
X163388152Y-112314285D02*
X163435771Y-112409523D01*
X163435771Y-112409523D02*
X163483390Y-112457142D01*
X163483390Y-112457142D02*
X163578628Y-112504761D01*
X163578628Y-112504761D02*
X163864342Y-112504761D01*
X163864342Y-112504761D02*
X163959580Y-112457142D01*
X163959580Y-112457142D02*
X164007200Y-112409523D01*
X164007200Y-112409523D02*
X164054819Y-112314285D01*
X164054819Y-112314285D02*
X164054819Y-112171428D01*
X163388152Y-112790476D02*
X163388152Y-113171428D01*
X163054819Y-112933333D02*
X163911961Y-112933333D01*
X163911961Y-112933333D02*
X164007200Y-112980952D01*
X164007200Y-112980952D02*
X164054819Y-113076190D01*
X164054819Y-113076190D02*
X164054819Y-113171428D01*
X164054819Y-114028571D02*
X164054819Y-113457143D01*
X164054819Y-113742857D02*
X163054819Y-113742857D01*
X163054819Y-113742857D02*
X163197676Y-113647619D01*
X163197676Y-113647619D02*
X163292914Y-113552381D01*
X163292914Y-113552381D02*
X163340533Y-113457143D01*
X176757142Y-115479580D02*
X176804761Y-115527200D01*
X176804761Y-115527200D02*
X176947618Y-115574819D01*
X176947618Y-115574819D02*
X177042856Y-115574819D01*
X177042856Y-115574819D02*
X177185713Y-115527200D01*
X177185713Y-115527200D02*
X177280951Y-115431961D01*
X177280951Y-115431961D02*
X177328570Y-115336723D01*
X177328570Y-115336723D02*
X177376189Y-115146247D01*
X177376189Y-115146247D02*
X177376189Y-115003390D01*
X177376189Y-115003390D02*
X177328570Y-114812914D01*
X177328570Y-114812914D02*
X177280951Y-114717676D01*
X177280951Y-114717676D02*
X177185713Y-114622438D01*
X177185713Y-114622438D02*
X177042856Y-114574819D01*
X177042856Y-114574819D02*
X176947618Y-114574819D01*
X176947618Y-114574819D02*
X176804761Y-114622438D01*
X176804761Y-114622438D02*
X176757142Y-114670057D01*
X176328570Y-115574819D02*
X176328570Y-114908152D01*
X176328570Y-114574819D02*
X176376189Y-114622438D01*
X176376189Y-114622438D02*
X176328570Y-114670057D01*
X176328570Y-114670057D02*
X176280951Y-114622438D01*
X176280951Y-114622438D02*
X176328570Y-114574819D01*
X176328570Y-114574819D02*
X176328570Y-114670057D01*
X175852380Y-114908152D02*
X175852380Y-115574819D01*
X175852380Y-115003390D02*
X175804761Y-114955771D01*
X175804761Y-114955771D02*
X175709523Y-114908152D01*
X175709523Y-114908152D02*
X175566666Y-114908152D01*
X175566666Y-114908152D02*
X175471428Y-114955771D01*
X175471428Y-114955771D02*
X175423809Y-115051009D01*
X175423809Y-115051009D02*
X175423809Y-115574819D01*
X174423809Y-115574819D02*
X174995237Y-115574819D01*
X174709523Y-115574819D02*
X174709523Y-114574819D01*
X174709523Y-114574819D02*
X174804761Y-114717676D01*
X174804761Y-114717676D02*
X174899999Y-114812914D01*
X174899999Y-114812914D02*
X174995237Y-114860533D01*
X162038094Y-115854819D02*
X162038094Y-114854819D01*
X162038094Y-114854819D02*
X161799999Y-114854819D01*
X161799999Y-114854819D02*
X161657142Y-114902438D01*
X161657142Y-114902438D02*
X161561904Y-114997676D01*
X161561904Y-114997676D02*
X161514285Y-115092914D01*
X161514285Y-115092914D02*
X161466666Y-115283390D01*
X161466666Y-115283390D02*
X161466666Y-115426247D01*
X161466666Y-115426247D02*
X161514285Y-115616723D01*
X161514285Y-115616723D02*
X161561904Y-115711961D01*
X161561904Y-115711961D02*
X161657142Y-115807200D01*
X161657142Y-115807200D02*
X161799999Y-115854819D01*
X161799999Y-115854819D02*
X162038094Y-115854819D01*
X160514285Y-115854819D02*
X161085713Y-115854819D01*
X160799999Y-115854819D02*
X160799999Y-114854819D01*
X160799999Y-114854819D02*
X160895237Y-114997676D01*
X160895237Y-114997676D02*
X160990475Y-115092914D01*
X160990475Y-115092914D02*
X161085713Y-115140533D01*
X161157142Y-119759580D02*
X161204761Y-119807200D01*
X161204761Y-119807200D02*
X161347618Y-119854819D01*
X161347618Y-119854819D02*
X161442856Y-119854819D01*
X161442856Y-119854819D02*
X161585713Y-119807200D01*
X161585713Y-119807200D02*
X161680951Y-119711961D01*
X161680951Y-119711961D02*
X161728570Y-119616723D01*
X161728570Y-119616723D02*
X161776189Y-119426247D01*
X161776189Y-119426247D02*
X161776189Y-119283390D01*
X161776189Y-119283390D02*
X161728570Y-119092914D01*
X161728570Y-119092914D02*
X161680951Y-118997676D01*
X161680951Y-118997676D02*
X161585713Y-118902438D01*
X161585713Y-118902438D02*
X161442856Y-118854819D01*
X161442856Y-118854819D02*
X161347618Y-118854819D01*
X161347618Y-118854819D02*
X161204761Y-118902438D01*
X161204761Y-118902438D02*
X161157142Y-118950057D01*
X160728570Y-119854819D02*
X160728570Y-119188152D01*
X160728570Y-118854819D02*
X160776189Y-118902438D01*
X160776189Y-118902438D02*
X160728570Y-118950057D01*
X160728570Y-118950057D02*
X160680951Y-118902438D01*
X160680951Y-118902438D02*
X160728570Y-118854819D01*
X160728570Y-118854819D02*
X160728570Y-118950057D01*
X160252380Y-119188152D02*
X160252380Y-119854819D01*
X160252380Y-119283390D02*
X160204761Y-119235771D01*
X160204761Y-119235771D02*
X160109523Y-119188152D01*
X160109523Y-119188152D02*
X159966666Y-119188152D01*
X159966666Y-119188152D02*
X159871428Y-119235771D01*
X159871428Y-119235771D02*
X159823809Y-119331009D01*
X159823809Y-119331009D02*
X159823809Y-119854819D01*
X159395237Y-118950057D02*
X159347618Y-118902438D01*
X159347618Y-118902438D02*
X159252380Y-118854819D01*
X159252380Y-118854819D02*
X159014285Y-118854819D01*
X159014285Y-118854819D02*
X158919047Y-118902438D01*
X158919047Y-118902438D02*
X158871428Y-118950057D01*
X158871428Y-118950057D02*
X158823809Y-119045295D01*
X158823809Y-119045295D02*
X158823809Y-119140533D01*
X158823809Y-119140533D02*
X158871428Y-119283390D01*
X158871428Y-119283390D02*
X159442856Y-119854819D01*
X159442856Y-119854819D02*
X158823809Y-119854819D01*
X180561009Y-116466666D02*
X180561009Y-116133333D01*
X181084819Y-116133333D02*
X180084819Y-116133333D01*
X180084819Y-116133333D02*
X180084819Y-116609523D01*
X181084819Y-117514285D02*
X181084819Y-116942857D01*
X181084819Y-117228571D02*
X180084819Y-117228571D01*
X180084819Y-117228571D02*
X180227676Y-117133333D01*
X180227676Y-117133333D02*
X180322914Y-117038095D01*
X180322914Y-117038095D02*
X180370533Y-116942857D01*
X172933333Y-127162295D02*
X173314285Y-127162295D01*
X173314285Y-127162295D02*
X173314285Y-126362295D01*
X172247619Y-127162295D02*
X172704762Y-127162295D01*
X172476190Y-127162295D02*
X172476190Y-126362295D01*
X172476190Y-126362295D02*
X172552381Y-126476580D01*
X172552381Y-126476580D02*
X172628571Y-126552771D01*
X172628571Y-126552771D02*
X172704762Y-126590866D01*
X171704819Y-112733333D02*
X171704819Y-112257143D01*
X171704819Y-112257143D02*
X172181009Y-112209524D01*
X172181009Y-112209524D02*
X172133390Y-112257143D01*
X172133390Y-112257143D02*
X172085771Y-112352381D01*
X172085771Y-112352381D02*
X172085771Y-112590476D01*
X172085771Y-112590476D02*
X172133390Y-112685714D01*
X172133390Y-112685714D02*
X172181009Y-112733333D01*
X172181009Y-112733333D02*
X172276247Y-112780952D01*
X172276247Y-112780952D02*
X172514342Y-112780952D01*
X172514342Y-112780952D02*
X172609580Y-112733333D01*
X172609580Y-112733333D02*
X172657200Y-112685714D01*
X172657200Y-112685714D02*
X172704819Y-112590476D01*
X172704819Y-112590476D02*
X172704819Y-112352381D01*
X172704819Y-112352381D02*
X172657200Y-112257143D01*
X172657200Y-112257143D02*
X172609580Y-112209524D01*
X171704819Y-113066667D02*
X172704819Y-113400000D01*
X172704819Y-113400000D02*
X171704819Y-113733333D01*
X172704819Y-114590476D02*
X172704819Y-114019048D01*
X172704819Y-114304762D02*
X171704819Y-114304762D01*
X171704819Y-114304762D02*
X171847676Y-114209524D01*
X171847676Y-114209524D02*
X171942914Y-114114286D01*
X171942914Y-114114286D02*
X171990533Y-114019048D01*
D12*
%TO.C,Cout1*%
X156638748Y-115465000D02*
X157161252Y-115465000D01*
X156638748Y-116935000D02*
X157161252Y-116935000D01*
D13*
%TO.C,3.3V1*%
X154762500Y-118065500D02*
X153952240Y-118065500D01*
X154762500Y-118954500D02*
X153952240Y-118954500D01*
X154762500Y-122645500D02*
X153952240Y-122645500D01*
X154762500Y-123534500D02*
X153952240Y-123534500D01*
D12*
%TO.C,Cboot1*%
X161065000Y-111338748D02*
X161065000Y-111861252D01*
X162535000Y-111338748D02*
X162535000Y-111861252D01*
%TO.C,Cin1*%
X175638748Y-116065000D02*
X176161252Y-116065000D01*
X175638748Y-117535000D02*
X176161252Y-117535000D01*
%TO.C,D1*%
X155100000Y-111450000D02*
X160610000Y-111450000D01*
X155100000Y-114750000D02*
X160610000Y-114750000D01*
X160610000Y-114750000D02*
X160610000Y-111450000D01*
%TO.C,Cin2*%
X159565000Y-121438748D02*
X159565000Y-121961252D01*
X161035000Y-121438748D02*
X161035000Y-121961252D01*
%TO.C,F1*%
X178690000Y-116637221D02*
X178690000Y-116962779D01*
X179710000Y-116637221D02*
X179710000Y-116962779D01*
D14*
%TO.C,L1*%
X166650000Y-125750000D02*
X166650000Y-118650000D01*
X167880000Y-118650000D02*
X166650000Y-118650000D01*
X167880000Y-125750000D02*
X166650000Y-125750000D01*
X171920000Y-118650000D02*
X173150000Y-118650000D01*
X171920000Y-125750000D02*
X173150000Y-125750000D01*
X173150000Y-125750000D02*
X173150000Y-118650000D01*
D11*
%TO.C,5V1*%
X166225000Y-115475000D02*
X166225000Y-111325000D01*
X171375000Y-115475000D02*
X171375000Y-111325000D01*
D12*
X166300000Y-110900000D02*
X165970000Y-111140000D01*
X165970000Y-110660000D01*
X166300000Y-110900000D01*
G36*
X166300000Y-110900000D02*
G01*
X165970000Y-111140000D01*
X165970000Y-110660000D01*
X166300000Y-110900000D01*
G37*
%TD*%
%LPC*%
D15*
%TO.C,SWD1*%
X180700000Y-83000000D03*
D16*
X180700000Y-85540000D03*
X180700000Y-88080000D03*
X180700000Y-90620000D03*
%TD*%
D15*
%TO.C,Vcc1*%
X179200000Y-121800000D03*
%TD*%
%TO.C,RPM1*%
X147700000Y-84000000D03*
%TD*%
%TO.C,Buttons1*%
X176900000Y-83000000D03*
D16*
X176900000Y-85540000D03*
X176900000Y-88080000D03*
X176900000Y-90620000D03*
X176900000Y-93160000D03*
X176900000Y-95700000D03*
%TD*%
D17*
%TO.C,SD1*%
X174350000Y-71150000D03*
X174350000Y-63150000D03*
%TD*%
D15*
%TO.C,GND1*%
X175500000Y-121800000D03*
%TD*%
D18*
%TO.C,Cout1*%
X157850000Y-116200000D03*
X155950000Y-116200000D03*
%TD*%
D19*
%TO.C,3.3V1*%
X156515100Y-118509999D03*
D20*
X150000000Y-120800000D03*
D19*
X156515100Y-123090001D03*
%TD*%
D21*
%TO.C,Cboot1*%
X161800000Y-112550000D03*
X161800000Y-110650000D03*
%TD*%
D18*
%TO.C,Cin1*%
X176850000Y-116800000D03*
X174950000Y-116800000D03*
%TD*%
D22*
%TO.C,D1*%
X159100000Y-113100000D03*
X155100000Y-113100000D03*
%TD*%
D21*
%TO.C,Cin2*%
X160300000Y-122650000D03*
X160300000Y-120750000D03*
%TD*%
D23*
%TO.C,F1*%
X179200000Y-117587500D03*
X179200000Y-116012500D03*
%TD*%
D24*
%TO.C,L1*%
X169900000Y-119425000D03*
X169900000Y-124975000D03*
%TD*%
D25*
%TO.C,5V1*%
X166895000Y-110700000D03*
X168165000Y-110700000D03*
X169435000Y-110700000D03*
X170705000Y-110700000D03*
X170705000Y-116100000D03*
X169435000Y-116100000D03*
X168165000Y-116100000D03*
X166895000Y-116100000D03*
D26*
X168800000Y-113400000D03*
%TD*%
%LPD*%
M02*
