%TF.GenerationSoftware,KiCad,Pcbnew,9.0.0*%
%TF.CreationDate,2025-03-08T15:48:48+01:00*%
%TF.ProjectId,Leiterkarte-v2,4c656974-6572-46b6-9172-74652d76322e,rev?*%
%TF.SameCoordinates,Original*%
%TF.FileFunction,Legend,Top*%
%TF.FilePolarity,Positive*%
%FSLAX46Y46*%
G04 Gerber Fmt 4.6, Leading zero omitted, Abs format (unit mm)*
G04 Created by KiCad (PCBNEW 9.0.0) date 2025-03-08 15:48:48*
%MOMM*%
%LPD*%
G01*
G04 APERTURE LIST*
G04 Aperture macros list*
%AMRoundRect*
0 Rectangle with rounded corners*
0 $1 Rounding radius*
0 $2 $3 $4 $5 $6 $7 $8 $9 X,Y pos of 4 corners*
0 Add a 4 corners polygon primitive as box body*
4,1,4,$2,$3,$4,$5,$6,$7,$8,$9,$2,$3,0*
0 Add four circle primitives for the rounded corners*
1,1,$1+$1,$2,$3*
1,1,$1+$1,$4,$5*
1,1,$1+$1,$6,$7*
1,1,$1+$1,$8,$9*
0 Add four rect primitives between the rounded corners*
20,1,$1+$1,$2,$3,$4,$5,0*
20,1,$1+$1,$4,$5,$6,$7,0*
20,1,$1+$1,$6,$7,$8,$9,0*
20,1,$1+$1,$8,$9,$2,$3,0*%
%AMFreePoly0*
4,1,6,1.000000,0.000000,0.500000,-0.750000,-0.500000,-0.750000,-0.500000,0.750000,0.500000,0.750000,1.000000,0.000000,1.000000,0.000000,$1*%
%AMFreePoly1*
4,1,6,0.500000,-0.750000,-0.650000,-0.750000,-0.150000,0.000000,-0.650000,0.750000,0.500000,0.750000,0.500000,-0.750000,0.500000,-0.750000,$1*%
G04 Aperture macros list end*
%ADD10C,0.160000*%
%ADD11C,0.150000*%
%ADD12C,0.120000*%
%ADD13C,0.000000*%
%ADD14C,0.152400*%
%ADD15C,0.127000*%
%ADD16C,0.200000*%
%ADD17C,0.010000*%
%ADD18RoundRect,0.200000X-0.200000X-0.275000X0.200000X-0.275000X0.200000X0.275000X-0.200000X0.275000X0*%
%ADD19C,1.000000*%
%ADD20RoundRect,0.250000X-0.450000X0.262500X-0.450000X-0.262500X0.450000X-0.262500X0.450000X0.262500X0*%
%ADD21RoundRect,0.250000X0.750000X-0.600000X0.750000X0.600000X-0.750000X0.600000X-0.750000X-0.600000X0*%
%ADD22O,2.000000X1.700000*%
%ADD23RoundRect,0.200000X-0.275000X0.200000X-0.275000X-0.200000X0.275000X-0.200000X0.275000X0.200000X0*%
%ADD24RoundRect,0.250000X0.250000X0.475000X-0.250000X0.475000X-0.250000X-0.475000X0.250000X-0.475000X0*%
%ADD25RoundRect,0.250000X0.262500X0.450000X-0.262500X0.450000X-0.262500X-0.450000X0.262500X-0.450000X0*%
%ADD26RoundRect,0.250000X-0.250000X-0.475000X0.250000X-0.475000X0.250000X0.475000X-0.250000X0.475000X0*%
%ADD27RoundRect,0.250000X0.475000X-0.250000X0.475000X0.250000X-0.475000X0.250000X-0.475000X-0.250000X0*%
%ADD28RoundRect,0.250000X-0.600000X-0.725000X0.600000X-0.725000X0.600000X0.725000X-0.600000X0.725000X0*%
%ADD29O,1.700000X1.950000*%
%ADD30RoundRect,0.250000X-0.475000X0.250000X-0.475000X-0.250000X0.475000X-0.250000X0.475000X0.250000X0*%
%ADD31RoundRect,0.250000X0.450000X-0.262500X0.450000X0.262500X-0.450000X0.262500X-0.450000X-0.262500X0*%
%ADD32RoundRect,0.243750X0.456250X-0.243750X0.456250X0.243750X-0.456250X0.243750X-0.456250X-0.243750X0*%
%ADD33R,1.350000X1.800000*%
%ADD34RoundRect,0.200000X0.275000X-0.200000X0.275000X0.200000X-0.275000X0.200000X-0.275000X-0.200000X0*%
%ADD35RoundRect,0.250000X0.650000X-1.000000X0.650000X1.000000X-0.650000X1.000000X-0.650000X-1.000000X0*%
%ADD36RoundRect,0.243750X-0.456250X0.243750X-0.456250X-0.243750X0.456250X-0.243750X0.456250X0.243750X0*%
%ADD37R,0.600000X1.550000*%
%ADD38R,3.100000X2.600000*%
%ADD39RoundRect,0.150000X0.150000X-0.587500X0.150000X0.587500X-0.150000X0.587500X-0.150000X-0.587500X0*%
%ADD40RoundRect,0.150000X-0.587500X-0.150000X0.587500X-0.150000X0.587500X0.150000X-0.587500X0.150000X0*%
%ADD41FreePoly0,270.000000*%
%ADD42FreePoly1,270.000000*%
%ADD43RoundRect,0.102000X0.350000X0.800000X-0.350000X0.800000X-0.350000X-0.800000X0.350000X-0.800000X0*%
%ADD44RoundRect,0.102000X0.600000X1.200000X-0.600000X1.200000X-0.600000X-1.200000X0.600000X-1.200000X0*%
%ADD45RoundRect,0.102000X0.800000X0.750000X-0.800000X0.750000X-0.800000X-0.750000X0.800000X-0.750000X0*%
%ADD46RoundRect,0.102000X0.600000X1.100000X-0.600000X1.100000X-0.600000X-1.100000X0.600000X-1.100000X0*%
%ADD47R,1.700000X1.700000*%
%ADD48RoundRect,0.243750X-0.243750X-0.456250X0.243750X-0.456250X0.243750X0.456250X-0.243750X0.456250X0*%
%ADD49RoundRect,0.250000X-0.375000X-0.625000X0.375000X-0.625000X0.375000X0.625000X-0.375000X0.625000X0*%
%ADD50RoundRect,0.250000X0.725000X-0.600000X0.725000X0.600000X-0.725000X0.600000X-0.725000X-0.600000X0*%
%ADD51O,1.950000X1.700000*%
%ADD52C,6.400000*%
%ADD53RoundRect,0.250000X0.550000X-1.500000X0.550000X1.500000X-0.550000X1.500000X-0.550000X-1.500000X0*%
%ADD54C,0.650000*%
%ADD55O,1.204000X2.304000*%
%ADD56O,1.204000X2.004000*%
%ADD57RoundRect,0.200000X0.200000X0.275000X-0.200000X0.275000X-0.200000X-0.275000X0.200000X-0.275000X0*%
%ADD58RoundRect,0.250000X-0.350000X0.850000X-0.350000X-0.850000X0.350000X-0.850000X0.350000X0.850000X0*%
%ADD59RoundRect,0.249997X-2.650003X2.950003X-2.650003X-2.950003X2.650003X-2.950003X2.650003X2.950003X0*%
%ADD60RoundRect,0.102000X-1.875000X-1.700000X1.875000X-1.700000X1.875000X1.700000X-1.875000X1.700000X0*%
%ADD61RoundRect,0.102000X0.177800X-0.558800X0.177800X0.558800X-0.177800X0.558800X-0.177800X-0.558800X0*%
%ADD62O,1.700000X1.700000*%
%ADD63R,0.900000X1.500000*%
%ADD64R,1.500000X0.900000*%
%ADD65C,0.600000*%
%ADD66R,3.900000X3.900000*%
G04 APERTURE END LIST*
D10*
G36*
X165831681Y-57482665D02*
G01*
X165860943Y-57511926D01*
X165894310Y-57578660D01*
X165894310Y-57683747D01*
X165860943Y-57750480D01*
X165831681Y-57779741D01*
X165764949Y-57813108D01*
X165482882Y-57813108D01*
X165482882Y-57449299D01*
X165764949Y-57449299D01*
X165831681Y-57482665D01*
G37*
G36*
X167117802Y-58560410D02*
G01*
X162260927Y-58560410D01*
X162260927Y-57353692D01*
X162372038Y-57353692D01*
X162372038Y-57384906D01*
X162383983Y-57413745D01*
X162406055Y-57435817D01*
X162434894Y-57447762D01*
X162450501Y-57449299D01*
X162656215Y-57449299D01*
X162656215Y-58369299D01*
X162657752Y-58384906D01*
X162669697Y-58413745D01*
X162691769Y-58435817D01*
X162720608Y-58447762D01*
X162751822Y-58447762D01*
X162780661Y-58435817D01*
X162802733Y-58413745D01*
X162814678Y-58384906D01*
X162816215Y-58369299D01*
X162816215Y-57449299D01*
X163021929Y-57449299D01*
X163037536Y-57447762D01*
X163066375Y-57435817D01*
X163088447Y-57413745D01*
X163100392Y-57384906D01*
X163100392Y-57369299D01*
X163275263Y-57369299D01*
X163275263Y-58369299D01*
X163276800Y-58384906D01*
X163288745Y-58413745D01*
X163310817Y-58435817D01*
X163339656Y-58447762D01*
X163355263Y-58449299D01*
X163831453Y-58449299D01*
X163847060Y-58447762D01*
X163875899Y-58435817D01*
X163897971Y-58413745D01*
X163909916Y-58384906D01*
X163909916Y-58353692D01*
X163897971Y-58324853D01*
X163875899Y-58302781D01*
X163847060Y-58290836D01*
X163831453Y-58289299D01*
X163435263Y-58289299D01*
X163435263Y-57925489D01*
X163688596Y-57925489D01*
X163704203Y-57923952D01*
X163733042Y-57912007D01*
X163755114Y-57889935D01*
X163767059Y-57861096D01*
X163767059Y-57829882D01*
X163755114Y-57801043D01*
X163733042Y-57778971D01*
X163704203Y-57767026D01*
X163688596Y-57765489D01*
X163435263Y-57765489D01*
X163435263Y-57449299D01*
X163831453Y-57449299D01*
X163847060Y-57447762D01*
X163875899Y-57435817D01*
X163897971Y-57413745D01*
X163909916Y-57384906D01*
X163909916Y-57369299D01*
X164180025Y-57369299D01*
X164180025Y-58369299D01*
X164181562Y-58384906D01*
X164193507Y-58413745D01*
X164215579Y-58435817D01*
X164244418Y-58447762D01*
X164275632Y-58447762D01*
X164304471Y-58435817D01*
X164326543Y-58413745D01*
X164338488Y-58384906D01*
X164340025Y-58369299D01*
X164340025Y-57729905D01*
X164520863Y-58117415D01*
X164524247Y-58123128D01*
X164524952Y-58125066D01*
X164526207Y-58126436D01*
X164528856Y-58130908D01*
X164537822Y-58139119D01*
X164546034Y-58148086D01*
X164549253Y-58149588D01*
X164551876Y-58151990D01*
X164563306Y-58156146D01*
X164574320Y-58161286D01*
X164577869Y-58161442D01*
X164581211Y-58162657D01*
X164593358Y-58162122D01*
X164605505Y-58162657D01*
X164608846Y-58161442D01*
X164612396Y-58161286D01*
X164623409Y-58156146D01*
X164634840Y-58151990D01*
X164637462Y-58149588D01*
X164640682Y-58148086D01*
X164648893Y-58139119D01*
X164657860Y-58130908D01*
X164660508Y-58126436D01*
X164661764Y-58125066D01*
X164662468Y-58123128D01*
X164665853Y-58117415D01*
X164846691Y-57729905D01*
X164846691Y-58369299D01*
X164848228Y-58384906D01*
X164860173Y-58413745D01*
X164882245Y-58435817D01*
X164911084Y-58447762D01*
X164942298Y-58447762D01*
X164971137Y-58435817D01*
X164993209Y-58413745D01*
X165005154Y-58384906D01*
X165006691Y-58369299D01*
X165006691Y-57369299D01*
X165322882Y-57369299D01*
X165322882Y-58369299D01*
X165324419Y-58384906D01*
X165336364Y-58413745D01*
X165358436Y-58435817D01*
X165387275Y-58447762D01*
X165418489Y-58447762D01*
X165447328Y-58435817D01*
X165469400Y-58413745D01*
X165481345Y-58384906D01*
X165482882Y-58369299D01*
X165482882Y-58353692D01*
X166229181Y-58353692D01*
X166229181Y-58384906D01*
X166241126Y-58413745D01*
X166263198Y-58435817D01*
X166292037Y-58447762D01*
X166307644Y-58449299D01*
X166926691Y-58449299D01*
X166942298Y-58447762D01*
X166971137Y-58435817D01*
X166993209Y-58413745D01*
X167005154Y-58384906D01*
X167005154Y-58353692D01*
X166993209Y-58324853D01*
X166971137Y-58302781D01*
X166942298Y-58290836D01*
X166926691Y-58289299D01*
X166500781Y-58289299D01*
X166935641Y-57854438D01*
X166945590Y-57842316D01*
X166946690Y-57839658D01*
X166948573Y-57837488D01*
X166954967Y-57823168D01*
X167002586Y-57680312D01*
X167004346Y-57672569D01*
X167005154Y-57670620D01*
X167005432Y-57667793D01*
X167006063Y-57665020D01*
X167005913Y-57662911D01*
X167006691Y-57655013D01*
X167006691Y-57559775D01*
X167005154Y-57544168D01*
X167004053Y-57541511D01*
X167003850Y-57538644D01*
X166998245Y-57523998D01*
X166950626Y-57428760D01*
X166946396Y-57422041D01*
X166945589Y-57420091D01*
X166943787Y-57417896D01*
X166942272Y-57415488D01*
X166940674Y-57414102D01*
X166935640Y-57407968D01*
X166888022Y-57360349D01*
X166881884Y-57355312D01*
X166880502Y-57353718D01*
X166878098Y-57352205D01*
X166875899Y-57350400D01*
X166873944Y-57349590D01*
X166867230Y-57345364D01*
X166771992Y-57297745D01*
X166757345Y-57292140D01*
X166754478Y-57291936D01*
X166751822Y-57290836D01*
X166736215Y-57289299D01*
X166498120Y-57289299D01*
X166482513Y-57290836D01*
X166479856Y-57291936D01*
X166476989Y-57292140D01*
X166462343Y-57297745D01*
X166367105Y-57345364D01*
X166360386Y-57349593D01*
X166358436Y-57350401D01*
X166356241Y-57352202D01*
X166353833Y-57353718D01*
X166352447Y-57355315D01*
X166346313Y-57360350D01*
X166298694Y-57407968D01*
X166288745Y-57420091D01*
X166276800Y-57448930D01*
X166276800Y-57480144D01*
X166288745Y-57508983D01*
X166310817Y-57531055D01*
X166339656Y-57543000D01*
X166370870Y-57543000D01*
X166399709Y-57531055D01*
X166411832Y-57521106D01*
X166450271Y-57482665D01*
X166517005Y-57449299D01*
X166717330Y-57449299D01*
X166784062Y-57482665D01*
X166813324Y-57511926D01*
X166846691Y-57578660D01*
X166846691Y-57642030D01*
X166809149Y-57754654D01*
X166251075Y-58312731D01*
X166241126Y-58324853D01*
X166229181Y-58353692D01*
X165482882Y-58353692D01*
X165482882Y-57973108D01*
X165783834Y-57973108D01*
X165799441Y-57971571D01*
X165802097Y-57970470D01*
X165804964Y-57970267D01*
X165819611Y-57964662D01*
X165914849Y-57917043D01*
X165921563Y-57912816D01*
X165923518Y-57912007D01*
X165925717Y-57910201D01*
X165928121Y-57908689D01*
X165929503Y-57907094D01*
X165935641Y-57902058D01*
X165983259Y-57854439D01*
X165988293Y-57848304D01*
X165989891Y-57846919D01*
X165991406Y-57844510D01*
X165993208Y-57842316D01*
X165994015Y-57840365D01*
X165998245Y-57833647D01*
X166045864Y-57738409D01*
X166051469Y-57723763D01*
X166051672Y-57720895D01*
X166052773Y-57718239D01*
X166054310Y-57702632D01*
X166054310Y-57559775D01*
X166052773Y-57544168D01*
X166051672Y-57541511D01*
X166051469Y-57538644D01*
X166045864Y-57523998D01*
X165998245Y-57428760D01*
X165994015Y-57422041D01*
X165993208Y-57420091D01*
X165991406Y-57417896D01*
X165989891Y-57415488D01*
X165988293Y-57414102D01*
X165983259Y-57407968D01*
X165935641Y-57360349D01*
X165929503Y-57355312D01*
X165928121Y-57353718D01*
X165925717Y-57352205D01*
X165923518Y-57350400D01*
X165921563Y-57349590D01*
X165914849Y-57345364D01*
X165819611Y-57297745D01*
X165804964Y-57292140D01*
X165802097Y-57291936D01*
X165799441Y-57290836D01*
X165783834Y-57289299D01*
X165402882Y-57289299D01*
X165387275Y-57290836D01*
X165358436Y-57302781D01*
X165336364Y-57324853D01*
X165324419Y-57353692D01*
X165322882Y-57369299D01*
X165006691Y-57369299D01*
X165005680Y-57359042D01*
X165005764Y-57357152D01*
X165005394Y-57356136D01*
X165005154Y-57353692D01*
X164999845Y-57340874D01*
X164995097Y-57327817D01*
X164993891Y-57326500D01*
X164993209Y-57324853D01*
X164983392Y-57315036D01*
X164974015Y-57304797D01*
X164972398Y-57304042D01*
X164971137Y-57302781D01*
X164958310Y-57297468D01*
X164945729Y-57291597D01*
X164943946Y-57291518D01*
X164942298Y-57290836D01*
X164928419Y-57290836D01*
X164914544Y-57290226D01*
X164912866Y-57290836D01*
X164911084Y-57290836D01*
X164898266Y-57296144D01*
X164885209Y-57300893D01*
X164883892Y-57302098D01*
X164882245Y-57302781D01*
X164872428Y-57312597D01*
X164862189Y-57321975D01*
X164860936Y-57324089D01*
X164860173Y-57324853D01*
X164859449Y-57326599D01*
X164854196Y-57335468D01*
X164593358Y-57894406D01*
X164332520Y-57335468D01*
X164327266Y-57326599D01*
X164326543Y-57324853D01*
X164325779Y-57324089D01*
X164324527Y-57321975D01*
X164314287Y-57312597D01*
X164304471Y-57302781D01*
X164302823Y-57302098D01*
X164301507Y-57300893D01*
X164288449Y-57296144D01*
X164275632Y-57290836D01*
X164273850Y-57290836D01*
X164272172Y-57290226D01*
X164258297Y-57290836D01*
X164244418Y-57290836D01*
X164242769Y-57291518D01*
X164240987Y-57291597D01*
X164228405Y-57297468D01*
X164215579Y-57302781D01*
X164214317Y-57304042D01*
X164212701Y-57304797D01*
X164203323Y-57315036D01*
X164193507Y-57324853D01*
X164192824Y-57326500D01*
X164191619Y-57327817D01*
X164186870Y-57340874D01*
X164181562Y-57353692D01*
X164181321Y-57356136D01*
X164180952Y-57357152D01*
X164181035Y-57359042D01*
X164180025Y-57369299D01*
X163909916Y-57369299D01*
X163909916Y-57353692D01*
X163897971Y-57324853D01*
X163875899Y-57302781D01*
X163847060Y-57290836D01*
X163831453Y-57289299D01*
X163355263Y-57289299D01*
X163339656Y-57290836D01*
X163310817Y-57302781D01*
X163288745Y-57324853D01*
X163276800Y-57353692D01*
X163275263Y-57369299D01*
X163100392Y-57369299D01*
X163100392Y-57353692D01*
X163088447Y-57324853D01*
X163066375Y-57302781D01*
X163037536Y-57290836D01*
X163021929Y-57289299D01*
X162450501Y-57289299D01*
X162434894Y-57290836D01*
X162406055Y-57302781D01*
X162383983Y-57324853D01*
X162372038Y-57353692D01*
X162260927Y-57353692D01*
X162260927Y-57178188D01*
X167117802Y-57178188D01*
X167117802Y-58560410D01*
G37*
G36*
X168768077Y-47503584D02*
G01*
X168513877Y-47503584D01*
X168640977Y-47122282D01*
X168768077Y-47503584D01*
G37*
G36*
X170070183Y-48060215D02*
G01*
X167402247Y-48060215D01*
X167402247Y-46869299D01*
X167513358Y-46869299D01*
X167513358Y-47869299D01*
X167514895Y-47884906D01*
X167526840Y-47913745D01*
X167548912Y-47935817D01*
X167577751Y-47947762D01*
X167608965Y-47947762D01*
X167637804Y-47935817D01*
X167659876Y-47913745D01*
X167671821Y-47884906D01*
X167673358Y-47869299D01*
X167673358Y-47859293D01*
X168228272Y-47859293D01*
X168230484Y-47890429D01*
X168244444Y-47918348D01*
X168268026Y-47938800D01*
X168297638Y-47948671D01*
X168328774Y-47946459D01*
X168356693Y-47932499D01*
X168377145Y-47908917D01*
X168383539Y-47894597D01*
X168460543Y-47663584D01*
X168821411Y-47663584D01*
X168898415Y-47894597D01*
X168904809Y-47908917D01*
X168925260Y-47932499D01*
X168953179Y-47946458D01*
X168984316Y-47948670D01*
X169013928Y-47938800D01*
X169037510Y-47918348D01*
X169051469Y-47890429D01*
X169053682Y-47859293D01*
X169050205Y-47844000D01*
X168725305Y-46869299D01*
X169227644Y-46869299D01*
X169227644Y-47869299D01*
X169229181Y-47884906D01*
X169241126Y-47913745D01*
X169263198Y-47935817D01*
X169292037Y-47947762D01*
X169323251Y-47947762D01*
X169352090Y-47935817D01*
X169374162Y-47913745D01*
X169386107Y-47884906D01*
X169387644Y-47869299D01*
X169387644Y-47170543D01*
X169809613Y-47908990D01*
X169811945Y-47912276D01*
X169812554Y-47913745D01*
X169814049Y-47915240D01*
X169818690Y-47921778D01*
X169827099Y-47928290D01*
X169834626Y-47935817D01*
X169839338Y-47937768D01*
X169843370Y-47940891D01*
X169853635Y-47943690D01*
X169863465Y-47947762D01*
X169868563Y-47947762D01*
X169873484Y-47949104D01*
X169884039Y-47947762D01*
X169894679Y-47947762D01*
X169899391Y-47945810D01*
X169904450Y-47945167D01*
X169913686Y-47939889D01*
X169923518Y-47935817D01*
X169927124Y-47932210D01*
X169931551Y-47929681D01*
X169938065Y-47921269D01*
X169945590Y-47913745D01*
X169947541Y-47909034D01*
X169950664Y-47905002D01*
X169953464Y-47894733D01*
X169957535Y-47884906D01*
X169958320Y-47876926D01*
X169958877Y-47874887D01*
X169958676Y-47873312D01*
X169959072Y-47869299D01*
X169959072Y-46869299D01*
X169957535Y-46853692D01*
X169945590Y-46824853D01*
X169923518Y-46802781D01*
X169894679Y-46790836D01*
X169863465Y-46790836D01*
X169834626Y-46802781D01*
X169812554Y-46824853D01*
X169800609Y-46853692D01*
X169799072Y-46869299D01*
X169799072Y-47568053D01*
X169377103Y-46829608D01*
X169374770Y-46826321D01*
X169374162Y-46824853D01*
X169372666Y-46823357D01*
X169368026Y-46816820D01*
X169359616Y-46810307D01*
X169352090Y-46802781D01*
X169347377Y-46800829D01*
X169343346Y-46797707D01*
X169333080Y-46794907D01*
X169323251Y-46790836D01*
X169318153Y-46790836D01*
X169313232Y-46789494D01*
X169302677Y-46790836D01*
X169292037Y-46790836D01*
X169287324Y-46792787D01*
X169282266Y-46793431D01*
X169273029Y-46798708D01*
X169263198Y-46802781D01*
X169259591Y-46806387D01*
X169255165Y-46808917D01*
X169248652Y-46817326D01*
X169241126Y-46824853D01*
X169239174Y-46829565D01*
X169236052Y-46833597D01*
X169233252Y-46843862D01*
X169229181Y-46853692D01*
X169228395Y-46861671D01*
X169227839Y-46863711D01*
X169228039Y-46865285D01*
X169227644Y-46869299D01*
X168725305Y-46869299D01*
X168716872Y-46844001D01*
X168710478Y-46829681D01*
X168706733Y-46825363D01*
X168704177Y-46820250D01*
X168696598Y-46813677D01*
X168690026Y-46806099D01*
X168684911Y-46803541D01*
X168680595Y-46799798D01*
X168671085Y-46796628D01*
X168662107Y-46792139D01*
X168656400Y-46791733D01*
X168650983Y-46789928D01*
X168640983Y-46790638D01*
X168630971Y-46789927D01*
X168625547Y-46791734D01*
X168619846Y-46792140D01*
X168610871Y-46796627D01*
X168601359Y-46799798D01*
X168597043Y-46803541D01*
X168591927Y-46806099D01*
X168585352Y-46813679D01*
X168577777Y-46820250D01*
X168575220Y-46825363D01*
X168571476Y-46829681D01*
X168565082Y-46844001D01*
X168231749Y-47844001D01*
X168228272Y-47859293D01*
X167673358Y-47859293D01*
X167673358Y-47425489D01*
X167926691Y-47425489D01*
X167942298Y-47423952D01*
X167971137Y-47412007D01*
X167993209Y-47389935D01*
X168005154Y-47361096D01*
X168005154Y-47329882D01*
X167993209Y-47301043D01*
X167971137Y-47278971D01*
X167942298Y-47267026D01*
X167926691Y-47265489D01*
X167673358Y-47265489D01*
X167673358Y-46949299D01*
X168069548Y-46949299D01*
X168085155Y-46947762D01*
X168113994Y-46935817D01*
X168136066Y-46913745D01*
X168148011Y-46884906D01*
X168148011Y-46853692D01*
X168136066Y-46824853D01*
X168113994Y-46802781D01*
X168085155Y-46790836D01*
X168069548Y-46789299D01*
X167593358Y-46789299D01*
X167577751Y-46790836D01*
X167548912Y-46802781D01*
X167526840Y-46824853D01*
X167514895Y-46853692D01*
X167513358Y-46869299D01*
X167402247Y-46869299D01*
X167402247Y-46678188D01*
X170070183Y-46678188D01*
X170070183Y-48060215D01*
G37*
G36*
X167296318Y-78810354D02*
G01*
X166057065Y-78810354D01*
X166057065Y-77622290D01*
X166168176Y-77622290D01*
X166170295Y-77637829D01*
X166408391Y-78637829D01*
X166410235Y-78643179D01*
X166410491Y-78645105D01*
X166411498Y-78646845D01*
X166413501Y-78652655D01*
X166420309Y-78662063D01*
X166426131Y-78672119D01*
X166429391Y-78674614D01*
X166431800Y-78677943D01*
X166441698Y-78684034D01*
X166450918Y-78691091D01*
X166454884Y-78692148D01*
X166458385Y-78694303D01*
X166469858Y-78696141D01*
X166481078Y-78699134D01*
X166485150Y-78698592D01*
X166489206Y-78699243D01*
X166500502Y-78696553D01*
X166512021Y-78695023D01*
X166515577Y-78692963D01*
X166519571Y-78692013D01*
X166528979Y-78685204D01*
X166539035Y-78679383D01*
X166541530Y-78676122D01*
X166544859Y-78673714D01*
X166550951Y-78663813D01*
X166558007Y-78654596D01*
X166560164Y-78648843D01*
X166561219Y-78647130D01*
X166561526Y-78645211D01*
X166563514Y-78639912D01*
X166676691Y-78215497D01*
X166789868Y-78639912D01*
X166791855Y-78645212D01*
X166792163Y-78647129D01*
X166793216Y-78648841D01*
X166795375Y-78654596D01*
X166802434Y-78663819D01*
X166808523Y-78673713D01*
X166811848Y-78676119D01*
X166814347Y-78679384D01*
X166824408Y-78685209D01*
X166833811Y-78692013D01*
X166837803Y-78692963D01*
X166841361Y-78695023D01*
X166852879Y-78696553D01*
X166864176Y-78699243D01*
X166868231Y-78698592D01*
X166872304Y-78699134D01*
X166883527Y-78696141D01*
X166894997Y-78694303D01*
X166898494Y-78692150D01*
X166902464Y-78691092D01*
X166911692Y-78684028D01*
X166921581Y-78677943D01*
X166923987Y-78674617D01*
X166927252Y-78672119D01*
X166933077Y-78662057D01*
X166939881Y-78652655D01*
X166941883Y-78646845D01*
X166942891Y-78645105D01*
X166943146Y-78643179D01*
X166944991Y-78637829D01*
X167183087Y-77637829D01*
X167185207Y-77622290D01*
X167180267Y-77591469D01*
X167163907Y-77564885D01*
X167138619Y-77546585D01*
X167108254Y-77539355D01*
X167077433Y-77544295D01*
X167050848Y-77560655D01*
X167032549Y-77585943D01*
X167027438Y-77600769D01*
X166862776Y-78292349D01*
X166753990Y-77884400D01*
X166752619Y-77880745D01*
X166752415Y-77879207D01*
X166751357Y-77877379D01*
X166748483Y-77869716D01*
X166742069Y-77861336D01*
X166736776Y-77852193D01*
X166732658Y-77849041D01*
X166729511Y-77844929D01*
X166720375Y-77839640D01*
X166711988Y-77833220D01*
X166706980Y-77831884D01*
X166702497Y-77829289D01*
X166692030Y-77827898D01*
X166681828Y-77825178D01*
X166676691Y-77825860D01*
X166671554Y-77825178D01*
X166661353Y-77827898D01*
X166650885Y-77829289D01*
X166646398Y-77831886D01*
X166641394Y-77833221D01*
X166633014Y-77839634D01*
X166623871Y-77844928D01*
X166620720Y-77849044D01*
X166616607Y-77852193D01*
X166611315Y-77861331D01*
X166604899Y-77869716D01*
X166602024Y-77877380D01*
X166600967Y-77879207D01*
X166600762Y-77880745D01*
X166599392Y-77884400D01*
X166490606Y-78292347D01*
X166325945Y-77600769D01*
X166320834Y-77585943D01*
X166302535Y-77560655D01*
X166275950Y-77544295D01*
X166245129Y-77539355D01*
X166214764Y-77546585D01*
X166189476Y-77564884D01*
X166173116Y-77591469D01*
X166168176Y-77622290D01*
X166057065Y-77622290D01*
X166057065Y-77428244D01*
X167296318Y-77428244D01*
X167296318Y-78810354D01*
G37*
G36*
X130224538Y-100732665D02*
G01*
X130253800Y-100761926D01*
X130287167Y-100828660D01*
X130287167Y-100933747D01*
X130253800Y-101000480D01*
X130224538Y-101029741D01*
X130157806Y-101063108D01*
X129875739Y-101063108D01*
X129875739Y-100699299D01*
X130157806Y-100699299D01*
X130224538Y-100732665D01*
G37*
G36*
X131986849Y-101810410D02*
G01*
X128604628Y-101810410D01*
X128604628Y-100809775D01*
X128715739Y-100809775D01*
X128715739Y-100905013D01*
X128717276Y-100920620D01*
X128718376Y-100923276D01*
X128718580Y-100926143D01*
X128724185Y-100940790D01*
X128771804Y-101036028D01*
X128776030Y-101042742D01*
X128776840Y-101044697D01*
X128778645Y-101046896D01*
X128780158Y-101049300D01*
X128781752Y-101050682D01*
X128786789Y-101056820D01*
X128834408Y-101104438D01*
X128840542Y-101109472D01*
X128841928Y-101111070D01*
X128844336Y-101112585D01*
X128846531Y-101114387D01*
X128848481Y-101115194D01*
X128855200Y-101119424D01*
X128950438Y-101167043D01*
X128951579Y-101167479D01*
X128952044Y-101167824D01*
X128958584Y-101170160D01*
X128965084Y-101172648D01*
X128965661Y-101172689D01*
X128966812Y-101173100D01*
X129148768Y-101218589D01*
X129224538Y-101256474D01*
X129253800Y-101285735D01*
X129287167Y-101352469D01*
X129287167Y-101409937D01*
X129253799Y-101476671D01*
X129224539Y-101505932D01*
X129157806Y-101539299D01*
X128951579Y-101539299D01*
X128821037Y-101495785D01*
X128805745Y-101492308D01*
X128774609Y-101494520D01*
X128746690Y-101508480D01*
X128726238Y-101532062D01*
X128716367Y-101561674D01*
X128718579Y-101592810D01*
X128732539Y-101620729D01*
X128756121Y-101641181D01*
X128770441Y-101647575D01*
X128913297Y-101695194D01*
X128921039Y-101696954D01*
X128922989Y-101697762D01*
X128925815Y-101698040D01*
X128928589Y-101698671D01*
X128930697Y-101698521D01*
X128938596Y-101699299D01*
X129176691Y-101699299D01*
X129192298Y-101697762D01*
X129194954Y-101696661D01*
X129197821Y-101696458D01*
X129212468Y-101690853D01*
X129307706Y-101643234D01*
X129314423Y-101639005D01*
X129316376Y-101638197D01*
X129318573Y-101636393D01*
X129320978Y-101634880D01*
X129322362Y-101633283D01*
X129328498Y-101628248D01*
X129376117Y-101580628D01*
X129381150Y-101574494D01*
X129382748Y-101573109D01*
X129384263Y-101570701D01*
X129386066Y-101568505D01*
X129386874Y-101566553D01*
X129391102Y-101559837D01*
X129438721Y-101464599D01*
X129444326Y-101449953D01*
X129444529Y-101447085D01*
X129445630Y-101444429D01*
X129447167Y-101428822D01*
X129447167Y-101333584D01*
X129445630Y-101317977D01*
X129444529Y-101315320D01*
X129444326Y-101312453D01*
X129438721Y-101297807D01*
X129391102Y-101202569D01*
X129386872Y-101195850D01*
X129386065Y-101193900D01*
X129384263Y-101191705D01*
X129382748Y-101189297D01*
X129381150Y-101187911D01*
X129376116Y-101181777D01*
X129328498Y-101134158D01*
X129322360Y-101129121D01*
X129320978Y-101127527D01*
X129318574Y-101126014D01*
X129316375Y-101124209D01*
X129314420Y-101123399D01*
X129307706Y-101119173D01*
X129212468Y-101071554D01*
X129211326Y-101071117D01*
X129210862Y-101070773D01*
X129204313Y-101068433D01*
X129197821Y-101065949D01*
X129197244Y-101065908D01*
X129196094Y-101065497D01*
X129014138Y-101020008D01*
X128938366Y-100982122D01*
X128909105Y-100952860D01*
X128875739Y-100886128D01*
X128875739Y-100828660D01*
X128909105Y-100761927D01*
X128938366Y-100732665D01*
X129005100Y-100699299D01*
X129211327Y-100699299D01*
X129341868Y-100742813D01*
X129357160Y-100746290D01*
X129388297Y-100744077D01*
X129416216Y-100730118D01*
X129436668Y-100706536D01*
X129446538Y-100676924D01*
X129444326Y-100645788D01*
X129431082Y-100619299D01*
X129715739Y-100619299D01*
X129715739Y-101619299D01*
X129717276Y-101634906D01*
X129729221Y-101663745D01*
X129751293Y-101685817D01*
X129780132Y-101697762D01*
X129811346Y-101697762D01*
X129840185Y-101685817D01*
X129862257Y-101663745D01*
X129874202Y-101634906D01*
X129875739Y-101619299D01*
X129875739Y-101223108D01*
X130176691Y-101223108D01*
X130192298Y-101221571D01*
X130194954Y-101220470D01*
X130197821Y-101220267D01*
X130212468Y-101214662D01*
X130307706Y-101167043D01*
X130314420Y-101162816D01*
X130316375Y-101162007D01*
X130318574Y-101160201D01*
X130320978Y-101158689D01*
X130322360Y-101157094D01*
X130328498Y-101152058D01*
X130376116Y-101104439D01*
X130381150Y-101098304D01*
X130382748Y-101096919D01*
X130384263Y-101094510D01*
X130386065Y-101092316D01*
X130386872Y-101090365D01*
X130391102Y-101083647D01*
X130438721Y-100988409D01*
X130444326Y-100973763D01*
X130444529Y-100970895D01*
X130445630Y-100968239D01*
X130447167Y-100952632D01*
X130447167Y-100809775D01*
X130445630Y-100794168D01*
X130444529Y-100791511D01*
X130444326Y-100788644D01*
X130438721Y-100773998D01*
X130391102Y-100678760D01*
X130386872Y-100672041D01*
X130386065Y-100670091D01*
X130384263Y-100667896D01*
X130382748Y-100665488D01*
X130381150Y-100664102D01*
X130376116Y-100657968D01*
X130337448Y-100619299D01*
X130715739Y-100619299D01*
X130715739Y-101619299D01*
X130717276Y-101634906D01*
X130729221Y-101663745D01*
X130751293Y-101685817D01*
X130780132Y-101697762D01*
X130811346Y-101697762D01*
X130840185Y-101685817D01*
X130862257Y-101663745D01*
X130874202Y-101634906D01*
X130875739Y-101619299D01*
X130875739Y-101603692D01*
X131098228Y-101603692D01*
X131098228Y-101634906D01*
X131110173Y-101663745D01*
X131132245Y-101685817D01*
X131161084Y-101697762D01*
X131176691Y-101699299D01*
X131795738Y-101699299D01*
X131811345Y-101697762D01*
X131840184Y-101685817D01*
X131862256Y-101663745D01*
X131874201Y-101634906D01*
X131874201Y-101603692D01*
X131862256Y-101574853D01*
X131840184Y-101552781D01*
X131811345Y-101540836D01*
X131795738Y-101539299D01*
X131369828Y-101539299D01*
X131804688Y-101104438D01*
X131814637Y-101092316D01*
X131815737Y-101089658D01*
X131817620Y-101087488D01*
X131824014Y-101073168D01*
X131871633Y-100930312D01*
X131873393Y-100922569D01*
X131874201Y-100920620D01*
X131874479Y-100917793D01*
X131875110Y-100915020D01*
X131874960Y-100912911D01*
X131875738Y-100905013D01*
X131875738Y-100809775D01*
X131874201Y-100794168D01*
X131873100Y-100791511D01*
X131872897Y-100788644D01*
X131867292Y-100773998D01*
X131819673Y-100678760D01*
X131815443Y-100672041D01*
X131814636Y-100670091D01*
X131812834Y-100667896D01*
X131811319Y-100665488D01*
X131809721Y-100664102D01*
X131804687Y-100657968D01*
X131757069Y-100610349D01*
X131750931Y-100605312D01*
X131749549Y-100603718D01*
X131747145Y-100602205D01*
X131744946Y-100600400D01*
X131742991Y-100599590D01*
X131736277Y-100595364D01*
X131641039Y-100547745D01*
X131626392Y-100542140D01*
X131623525Y-100541936D01*
X131620869Y-100540836D01*
X131605262Y-100539299D01*
X131367167Y-100539299D01*
X131351560Y-100540836D01*
X131348903Y-100541936D01*
X131346036Y-100542140D01*
X131331390Y-100547745D01*
X131236152Y-100595364D01*
X131229433Y-100599593D01*
X131227483Y-100600401D01*
X131225288Y-100602202D01*
X131222880Y-100603718D01*
X131221494Y-100605315D01*
X131215360Y-100610350D01*
X131167741Y-100657968D01*
X131157792Y-100670091D01*
X131145847Y-100698930D01*
X131145847Y-100730144D01*
X131157792Y-100758983D01*
X131179864Y-100781055D01*
X131208703Y-100793000D01*
X131239917Y-100793000D01*
X131268756Y-100781055D01*
X131280879Y-100771106D01*
X131319318Y-100732665D01*
X131386052Y-100699299D01*
X131586377Y-100699299D01*
X131653109Y-100732665D01*
X131682371Y-100761926D01*
X131715738Y-100828660D01*
X131715738Y-100892030D01*
X131678196Y-101004654D01*
X131120122Y-101562731D01*
X131110173Y-101574853D01*
X131098228Y-101603692D01*
X130875739Y-101603692D01*
X130875739Y-100619299D01*
X130874202Y-100603692D01*
X130862257Y-100574853D01*
X130840185Y-100552781D01*
X130811346Y-100540836D01*
X130780132Y-100540836D01*
X130751293Y-100552781D01*
X130729221Y-100574853D01*
X130717276Y-100603692D01*
X130715739Y-100619299D01*
X130337448Y-100619299D01*
X130328498Y-100610349D01*
X130322360Y-100605312D01*
X130320978Y-100603718D01*
X130318574Y-100602205D01*
X130316375Y-100600400D01*
X130314420Y-100599590D01*
X130307706Y-100595364D01*
X130212468Y-100547745D01*
X130197821Y-100542140D01*
X130194954Y-100541936D01*
X130192298Y-100540836D01*
X130176691Y-100539299D01*
X129795739Y-100539299D01*
X129780132Y-100540836D01*
X129751293Y-100552781D01*
X129729221Y-100574853D01*
X129717276Y-100603692D01*
X129715739Y-100619299D01*
X129431082Y-100619299D01*
X129430367Y-100617868D01*
X129406785Y-100597417D01*
X129392465Y-100591023D01*
X129249608Y-100543404D01*
X129241868Y-100541644D01*
X129239917Y-100540836D01*
X129237088Y-100540557D01*
X129234316Y-100539927D01*
X129232207Y-100540076D01*
X129224310Y-100539299D01*
X128986215Y-100539299D01*
X128970608Y-100540836D01*
X128967951Y-100541936D01*
X128965084Y-100542140D01*
X128950438Y-100547745D01*
X128855200Y-100595364D01*
X128848481Y-100599593D01*
X128846531Y-100600401D01*
X128844336Y-100602202D01*
X128841928Y-100603718D01*
X128840542Y-100605315D01*
X128834408Y-100610350D01*
X128786789Y-100657968D01*
X128781752Y-100664105D01*
X128780158Y-100665488D01*
X128778645Y-100667891D01*
X128776840Y-100670091D01*
X128776030Y-100672045D01*
X128771804Y-100678760D01*
X128724185Y-100773998D01*
X128718580Y-100788645D01*
X128718376Y-100791511D01*
X128717276Y-100794168D01*
X128715739Y-100809775D01*
X128604628Y-100809775D01*
X128604628Y-100428188D01*
X131986849Y-100428188D01*
X131986849Y-101810410D01*
G37*
D11*
X107829065Y-66608093D02*
X108067160Y-67274760D01*
X108067160Y-67274760D02*
X108305255Y-66608093D01*
X108638589Y-66369998D02*
X108686208Y-66322379D01*
X108686208Y-66322379D02*
X108781446Y-66274760D01*
X108781446Y-66274760D02*
X109019541Y-66274760D01*
X109019541Y-66274760D02*
X109114779Y-66322379D01*
X109114779Y-66322379D02*
X109162398Y-66369998D01*
X109162398Y-66369998D02*
X109210017Y-66465236D01*
X109210017Y-66465236D02*
X109210017Y-66560474D01*
X109210017Y-66560474D02*
X109162398Y-66703331D01*
X109162398Y-66703331D02*
X108590970Y-67274760D01*
X108590970Y-67274760D02*
X109210017Y-67274760D01*
X109638589Y-67179521D02*
X109686208Y-67227141D01*
X109686208Y-67227141D02*
X109638589Y-67274760D01*
X109638589Y-67274760D02*
X109590970Y-67227141D01*
X109590970Y-67227141D02*
X109638589Y-67179521D01*
X109638589Y-67179521D02*
X109638589Y-67274760D01*
X110638588Y-67274760D02*
X110067160Y-67274760D01*
X110352874Y-67274760D02*
X110352874Y-66274760D01*
X110352874Y-66274760D02*
X110257636Y-66417617D01*
X110257636Y-66417617D02*
X110162398Y-66512855D01*
X110162398Y-66512855D02*
X110067160Y-66560474D01*
X111829065Y-66893807D02*
X112590970Y-66893807D01*
X113733827Y-66274760D02*
X114400493Y-67274760D01*
X114400493Y-66274760D02*
X113733827Y-67274760D01*
X114686208Y-66274760D02*
X115352874Y-67274760D01*
X115352874Y-66274760D02*
X114686208Y-67274760D01*
X115733827Y-67179521D02*
X115781446Y-67227141D01*
X115781446Y-67227141D02*
X115733827Y-67274760D01*
X115733827Y-67274760D02*
X115686208Y-67227141D01*
X115686208Y-67227141D02*
X115733827Y-67179521D01*
X115733827Y-67179521D02*
X115733827Y-67274760D01*
X116400493Y-66274760D02*
X116495731Y-66274760D01*
X116495731Y-66274760D02*
X116590969Y-66322379D01*
X116590969Y-66322379D02*
X116638588Y-66369998D01*
X116638588Y-66369998D02*
X116686207Y-66465236D01*
X116686207Y-66465236D02*
X116733826Y-66655712D01*
X116733826Y-66655712D02*
X116733826Y-66893807D01*
X116733826Y-66893807D02*
X116686207Y-67084283D01*
X116686207Y-67084283D02*
X116638588Y-67179521D01*
X116638588Y-67179521D02*
X116590969Y-67227141D01*
X116590969Y-67227141D02*
X116495731Y-67274760D01*
X116495731Y-67274760D02*
X116400493Y-67274760D01*
X116400493Y-67274760D02*
X116305255Y-67227141D01*
X116305255Y-67227141D02*
X116257636Y-67179521D01*
X116257636Y-67179521D02*
X116210017Y-67084283D01*
X116210017Y-67084283D02*
X116162398Y-66893807D01*
X116162398Y-66893807D02*
X116162398Y-66655712D01*
X116162398Y-66655712D02*
X116210017Y-66465236D01*
X116210017Y-66465236D02*
X116257636Y-66369998D01*
X116257636Y-66369998D02*
X116305255Y-66322379D01*
X116305255Y-66322379D02*
X116400493Y-66274760D01*
X117067160Y-66274760D02*
X117686207Y-66274760D01*
X117686207Y-66274760D02*
X117352874Y-66655712D01*
X117352874Y-66655712D02*
X117495731Y-66655712D01*
X117495731Y-66655712D02*
X117590969Y-66703331D01*
X117590969Y-66703331D02*
X117638588Y-66750950D01*
X117638588Y-66750950D02*
X117686207Y-66846188D01*
X117686207Y-66846188D02*
X117686207Y-67084283D01*
X117686207Y-67084283D02*
X117638588Y-67179521D01*
X117638588Y-67179521D02*
X117590969Y-67227141D01*
X117590969Y-67227141D02*
X117495731Y-67274760D01*
X117495731Y-67274760D02*
X117210017Y-67274760D01*
X117210017Y-67274760D02*
X117114779Y-67227141D01*
X117114779Y-67227141D02*
X117067160Y-67179521D01*
X118114779Y-67179521D02*
X118162398Y-67227141D01*
X118162398Y-67227141D02*
X118114779Y-67274760D01*
X118114779Y-67274760D02*
X118067160Y-67227141D01*
X118067160Y-67227141D02*
X118114779Y-67179521D01*
X118114779Y-67179521D02*
X118114779Y-67274760D01*
X118543350Y-66369998D02*
X118590969Y-66322379D01*
X118590969Y-66322379D02*
X118686207Y-66274760D01*
X118686207Y-66274760D02*
X118924302Y-66274760D01*
X118924302Y-66274760D02*
X119019540Y-66322379D01*
X119019540Y-66322379D02*
X119067159Y-66369998D01*
X119067159Y-66369998D02*
X119114778Y-66465236D01*
X119114778Y-66465236D02*
X119114778Y-66560474D01*
X119114778Y-66560474D02*
X119067159Y-66703331D01*
X119067159Y-66703331D02*
X118495731Y-67274760D01*
X118495731Y-67274760D02*
X119114778Y-67274760D01*
X119733826Y-66274760D02*
X119829064Y-66274760D01*
X119829064Y-66274760D02*
X119924302Y-66322379D01*
X119924302Y-66322379D02*
X119971921Y-66369998D01*
X119971921Y-66369998D02*
X120019540Y-66465236D01*
X120019540Y-66465236D02*
X120067159Y-66655712D01*
X120067159Y-66655712D02*
X120067159Y-66893807D01*
X120067159Y-66893807D02*
X120019540Y-67084283D01*
X120019540Y-67084283D02*
X119971921Y-67179521D01*
X119971921Y-67179521D02*
X119924302Y-67227141D01*
X119924302Y-67227141D02*
X119829064Y-67274760D01*
X119829064Y-67274760D02*
X119733826Y-67274760D01*
X119733826Y-67274760D02*
X119638588Y-67227141D01*
X119638588Y-67227141D02*
X119590969Y-67179521D01*
X119590969Y-67179521D02*
X119543350Y-67084283D01*
X119543350Y-67084283D02*
X119495731Y-66893807D01*
X119495731Y-66893807D02*
X119495731Y-66655712D01*
X119495731Y-66655712D02*
X119543350Y-66465236D01*
X119543350Y-66465236D02*
X119590969Y-66369998D01*
X119590969Y-66369998D02*
X119638588Y-66322379D01*
X119638588Y-66322379D02*
X119733826Y-66274760D01*
X120448112Y-66369998D02*
X120495731Y-66322379D01*
X120495731Y-66322379D02*
X120590969Y-66274760D01*
X120590969Y-66274760D02*
X120829064Y-66274760D01*
X120829064Y-66274760D02*
X120924302Y-66322379D01*
X120924302Y-66322379D02*
X120971921Y-66369998D01*
X120971921Y-66369998D02*
X121019540Y-66465236D01*
X121019540Y-66465236D02*
X121019540Y-66560474D01*
X121019540Y-66560474D02*
X120971921Y-66703331D01*
X120971921Y-66703331D02*
X120400493Y-67274760D01*
X120400493Y-67274760D02*
X121019540Y-67274760D01*
X121924302Y-66274760D02*
X121448112Y-66274760D01*
X121448112Y-66274760D02*
X121400493Y-66750950D01*
X121400493Y-66750950D02*
X121448112Y-66703331D01*
X121448112Y-66703331D02*
X121543350Y-66655712D01*
X121543350Y-66655712D02*
X121781445Y-66655712D01*
X121781445Y-66655712D02*
X121876683Y-66703331D01*
X121876683Y-66703331D02*
X121924302Y-66750950D01*
X121924302Y-66750950D02*
X121971921Y-66846188D01*
X121971921Y-66846188D02*
X121971921Y-67084283D01*
X121971921Y-67084283D02*
X121924302Y-67179521D01*
X121924302Y-67179521D02*
X121876683Y-67227141D01*
X121876683Y-67227141D02*
X121781445Y-67274760D01*
X121781445Y-67274760D02*
X121543350Y-67274760D01*
X121543350Y-67274760D02*
X121448112Y-67227141D01*
X121448112Y-67227141D02*
X121400493Y-67179521D01*
D10*
X166343358Y-59738346D02*
X167105263Y-59738346D01*
X166724310Y-60119299D02*
X166724310Y-59357394D01*
G36*
X166772157Y-80232665D02*
G01*
X166842549Y-80303056D01*
X166882405Y-80462479D01*
X166882405Y-80776118D01*
X166842549Y-80935539D01*
X166772158Y-81005932D01*
X166705425Y-81039299D01*
X166552719Y-81039299D01*
X166485985Y-81005932D01*
X166415594Y-80935540D01*
X166375739Y-80776118D01*
X166375739Y-80462479D01*
X166415594Y-80303057D01*
X166485985Y-80232665D01*
X166552719Y-80199299D01*
X166705425Y-80199299D01*
X166772157Y-80232665D01*
G37*
G36*
X167153516Y-81310410D02*
G01*
X166104628Y-81310410D01*
X166104628Y-80452632D01*
X166215739Y-80452632D01*
X166215739Y-80785965D01*
X166216006Y-80788685D01*
X166215833Y-80789854D01*
X166216697Y-80795698D01*
X166217276Y-80801572D01*
X166217727Y-80802662D01*
X166218128Y-80805368D01*
X166265747Y-80995844D01*
X166271023Y-81010612D01*
X166274563Y-81015390D01*
X166276840Y-81020887D01*
X166286789Y-81033009D01*
X166382027Y-81128249D01*
X166388164Y-81133285D01*
X166389547Y-81134880D01*
X166391950Y-81136392D01*
X166394150Y-81138198D01*
X166396104Y-81139007D01*
X166402819Y-81143234D01*
X166498057Y-81190853D01*
X166512703Y-81196458D01*
X166515570Y-81196661D01*
X166518227Y-81197762D01*
X166533834Y-81199299D01*
X166724310Y-81199299D01*
X166739917Y-81197762D01*
X166742573Y-81196661D01*
X166745440Y-81196458D01*
X166760087Y-81190853D01*
X166855325Y-81143234D01*
X166862043Y-81139004D01*
X166863994Y-81138197D01*
X166866188Y-81136395D01*
X166868597Y-81134880D01*
X166869982Y-81133282D01*
X166876117Y-81128248D01*
X166971355Y-81033009D01*
X166981304Y-81020886D01*
X166983580Y-81015390D01*
X166987121Y-81010612D01*
X166992397Y-80995844D01*
X167040016Y-80805368D01*
X167040416Y-80802662D01*
X167040868Y-80801572D01*
X167041446Y-80795698D01*
X167042311Y-80789854D01*
X167042137Y-80788685D01*
X167042405Y-80785965D01*
X167042405Y-80452632D01*
X167042137Y-80449911D01*
X167042311Y-80448743D01*
X167041446Y-80442898D01*
X167040868Y-80437025D01*
X167040416Y-80435934D01*
X167040016Y-80433229D01*
X166992397Y-80242753D01*
X166987121Y-80227985D01*
X166983580Y-80223206D01*
X166981304Y-80217710D01*
X166971355Y-80205588D01*
X166876117Y-80110349D01*
X166869979Y-80105312D01*
X166868597Y-80103718D01*
X166866193Y-80102205D01*
X166863994Y-80100400D01*
X166862039Y-80099590D01*
X166855325Y-80095364D01*
X166760087Y-80047745D01*
X166745440Y-80042140D01*
X166742573Y-80041936D01*
X166739917Y-80040836D01*
X166724310Y-80039299D01*
X166533834Y-80039299D01*
X166518227Y-80040836D01*
X166515570Y-80041936D01*
X166512703Y-80042140D01*
X166498057Y-80047745D01*
X166402819Y-80095364D01*
X166396104Y-80099590D01*
X166394150Y-80100400D01*
X166391950Y-80102204D01*
X166389547Y-80103718D01*
X166388162Y-80105313D01*
X166382028Y-80110349D01*
X166286789Y-80205587D01*
X166276840Y-80217710D01*
X166274563Y-80223206D01*
X166271023Y-80227985D01*
X166265747Y-80242753D01*
X166218128Y-80433229D01*
X166217727Y-80435934D01*
X166217276Y-80437025D01*
X166216697Y-80442898D01*
X166215833Y-80448743D01*
X166216006Y-80449911D01*
X166215739Y-80452632D01*
X166104628Y-80452632D01*
X166104628Y-79928188D01*
X167153516Y-79928188D01*
X167153516Y-81310410D01*
G37*
G36*
X165204904Y-71486841D02*
G01*
X165277609Y-71559545D01*
X165315495Y-71635317D01*
X165358595Y-71807717D01*
X165358595Y-71930880D01*
X165315495Y-72103280D01*
X165277609Y-72179050D01*
X165204905Y-72251756D01*
X165092279Y-72289299D01*
X164947167Y-72289299D01*
X164947167Y-71449299D01*
X165092279Y-71449299D01*
X165204904Y-71486841D01*
G37*
G36*
X167104359Y-72560410D02*
G01*
X163152247Y-72560410D01*
X163152247Y-71369299D01*
X163263358Y-71369299D01*
X163263358Y-72369299D01*
X163264895Y-72384906D01*
X163276840Y-72413745D01*
X163298912Y-72435817D01*
X163327751Y-72447762D01*
X163358965Y-72447762D01*
X163387804Y-72435817D01*
X163409876Y-72413745D01*
X163421821Y-72384906D01*
X163423358Y-72369299D01*
X163423358Y-71369299D01*
X163739548Y-71369299D01*
X163739548Y-72369299D01*
X163741085Y-72384906D01*
X163753030Y-72413745D01*
X163775102Y-72435817D01*
X163803941Y-72447762D01*
X163835155Y-72447762D01*
X163863994Y-72435817D01*
X163886066Y-72413745D01*
X163898011Y-72384906D01*
X163899548Y-72369299D01*
X163899548Y-71670543D01*
X164321517Y-72408990D01*
X164323849Y-72412276D01*
X164324458Y-72413745D01*
X164325953Y-72415240D01*
X164330594Y-72421778D01*
X164339003Y-72428290D01*
X164346530Y-72435817D01*
X164351242Y-72437768D01*
X164355274Y-72440891D01*
X164365539Y-72443690D01*
X164375369Y-72447762D01*
X164380467Y-72447762D01*
X164385388Y-72449104D01*
X164395943Y-72447762D01*
X164406583Y-72447762D01*
X164411295Y-72445810D01*
X164416354Y-72445167D01*
X164425590Y-72439889D01*
X164435422Y-72435817D01*
X164439028Y-72432210D01*
X164443455Y-72429681D01*
X164449969Y-72421269D01*
X164457494Y-72413745D01*
X164459445Y-72409034D01*
X164462568Y-72405002D01*
X164465368Y-72394733D01*
X164469439Y-72384906D01*
X164470224Y-72376926D01*
X164470781Y-72374887D01*
X164470580Y-72373312D01*
X164470976Y-72369299D01*
X164470976Y-71369299D01*
X164787167Y-71369299D01*
X164787167Y-72369299D01*
X164788704Y-72384906D01*
X164800649Y-72413745D01*
X164822721Y-72435817D01*
X164851560Y-72447762D01*
X164867167Y-72449299D01*
X165105262Y-72449299D01*
X165113159Y-72448521D01*
X165115268Y-72448671D01*
X165118040Y-72448040D01*
X165120869Y-72447762D01*
X165122820Y-72446953D01*
X165130560Y-72445194D01*
X165273417Y-72397575D01*
X165287737Y-72391181D01*
X165289909Y-72389297D01*
X165292565Y-72388197D01*
X165304688Y-72378248D01*
X165399926Y-72283009D01*
X165404959Y-72276875D01*
X165406557Y-72275490D01*
X165408072Y-72273082D01*
X165409875Y-72270886D01*
X165410683Y-72268934D01*
X165414911Y-72262218D01*
X165462530Y-72166980D01*
X165462966Y-72165838D01*
X165463311Y-72165374D01*
X165465647Y-72158833D01*
X165468135Y-72152334D01*
X165468176Y-72151756D01*
X165468587Y-72150606D01*
X165516206Y-71960130D01*
X165516606Y-71957424D01*
X165517058Y-71956334D01*
X165517636Y-71950460D01*
X165518501Y-71944616D01*
X165518327Y-71943447D01*
X165518595Y-71940727D01*
X165518595Y-71797870D01*
X165518327Y-71795149D01*
X165518501Y-71793981D01*
X165517636Y-71788136D01*
X165517058Y-71782263D01*
X165516606Y-71781172D01*
X165516206Y-71778467D01*
X165468587Y-71587991D01*
X165468176Y-71586840D01*
X165468135Y-71586263D01*
X165465647Y-71579763D01*
X165463311Y-71573223D01*
X165462966Y-71572758D01*
X165462530Y-71571617D01*
X165414911Y-71476379D01*
X165410684Y-71469664D01*
X165409875Y-71467710D01*
X165408070Y-71465510D01*
X165406557Y-71463107D01*
X165404961Y-71461722D01*
X165399926Y-71455588D01*
X165313638Y-71369299D01*
X165787167Y-71369299D01*
X165787167Y-72369299D01*
X165788704Y-72384906D01*
X165800649Y-72413745D01*
X165822721Y-72435817D01*
X165851560Y-72447762D01*
X165882774Y-72447762D01*
X165911613Y-72435817D01*
X165933685Y-72413745D01*
X165945630Y-72384906D01*
X165947167Y-72369299D01*
X165947167Y-71797870D01*
X166215738Y-71797870D01*
X166215738Y-71940727D01*
X166216005Y-71943447D01*
X166215832Y-71944616D01*
X166216696Y-71950460D01*
X166217275Y-71956334D01*
X166217726Y-71957424D01*
X166218127Y-71960130D01*
X166265746Y-72150606D01*
X166266157Y-72151756D01*
X166266198Y-72152333D01*
X166268682Y-72158825D01*
X166271022Y-72165374D01*
X166271366Y-72165838D01*
X166271803Y-72166980D01*
X166319422Y-72262218D01*
X166323648Y-72268932D01*
X166324458Y-72270887D01*
X166326262Y-72273086D01*
X166327776Y-72275490D01*
X166329371Y-72276874D01*
X166334407Y-72283009D01*
X166429645Y-72378249D01*
X166441768Y-72388198D01*
X166444426Y-72389299D01*
X166446596Y-72391181D01*
X166460916Y-72397575D01*
X166603772Y-72445194D01*
X166611514Y-72446954D01*
X166613464Y-72447762D01*
X166616290Y-72448040D01*
X166619064Y-72448671D01*
X166621172Y-72448521D01*
X166629071Y-72449299D01*
X166724309Y-72449299D01*
X166732206Y-72448521D01*
X166734315Y-72448671D01*
X166737087Y-72448040D01*
X166739916Y-72447762D01*
X166741867Y-72446953D01*
X166749607Y-72445194D01*
X166892464Y-72397575D01*
X166906784Y-72391181D01*
X166908955Y-72389297D01*
X166911613Y-72388197D01*
X166923735Y-72378248D01*
X166971354Y-72330628D01*
X166981303Y-72318505D01*
X166993248Y-72289667D01*
X166993248Y-72258452D01*
X166981302Y-72229613D01*
X166959230Y-72207542D01*
X166930391Y-72195597D01*
X166899177Y-72195597D01*
X166870338Y-72207543D01*
X166858216Y-72217492D01*
X166823952Y-72251756D01*
X166711326Y-72289299D01*
X166642054Y-72289299D01*
X166529428Y-72251757D01*
X166456724Y-72179052D01*
X166418838Y-72103280D01*
X166375738Y-71930880D01*
X166375738Y-71807717D01*
X166418838Y-71635317D01*
X166456723Y-71559546D01*
X166529428Y-71486840D01*
X166642054Y-71449299D01*
X166711326Y-71449299D01*
X166823951Y-71486841D01*
X166858216Y-71521105D01*
X166870339Y-71531054D01*
X166899177Y-71543000D01*
X166930392Y-71543000D01*
X166959231Y-71531054D01*
X166981302Y-71508983D01*
X166993248Y-71480144D01*
X166993248Y-71448929D01*
X166981302Y-71420091D01*
X166971353Y-71407968D01*
X166923735Y-71360349D01*
X166911612Y-71350400D01*
X166908954Y-71349299D01*
X166906784Y-71347417D01*
X166892464Y-71341023D01*
X166749607Y-71293404D01*
X166741867Y-71291644D01*
X166739916Y-71290836D01*
X166737087Y-71290557D01*
X166734315Y-71289927D01*
X166732206Y-71290076D01*
X166724309Y-71289299D01*
X166629071Y-71289299D01*
X166621172Y-71290076D01*
X166619064Y-71289927D01*
X166616290Y-71290557D01*
X166613464Y-71290836D01*
X166611514Y-71291643D01*
X166603772Y-71293404D01*
X166460916Y-71341023D01*
X166446596Y-71347417D01*
X166444425Y-71349299D01*
X166441768Y-71350400D01*
X166429646Y-71360349D01*
X166334407Y-71455587D01*
X166329370Y-71461724D01*
X166327776Y-71463107D01*
X166326263Y-71465510D01*
X166324458Y-71467710D01*
X166323648Y-71469664D01*
X166319422Y-71476379D01*
X166271803Y-71571617D01*
X166271366Y-71572758D01*
X166271022Y-71573223D01*
X166268682Y-71579771D01*
X166266198Y-71586264D01*
X166266157Y-71586840D01*
X166265746Y-71587991D01*
X166218127Y-71778467D01*
X166217726Y-71781172D01*
X166217275Y-71782263D01*
X166216696Y-71788136D01*
X166215832Y-71793981D01*
X166216005Y-71795149D01*
X166215738Y-71797870D01*
X165947167Y-71797870D01*
X165947167Y-71369299D01*
X165945630Y-71353692D01*
X165933685Y-71324853D01*
X165911613Y-71302781D01*
X165882774Y-71290836D01*
X165851560Y-71290836D01*
X165822721Y-71302781D01*
X165800649Y-71324853D01*
X165788704Y-71353692D01*
X165787167Y-71369299D01*
X165313638Y-71369299D01*
X165304688Y-71360349D01*
X165292565Y-71350400D01*
X165289907Y-71349299D01*
X165287737Y-71347417D01*
X165273417Y-71341023D01*
X165130560Y-71293404D01*
X165122820Y-71291644D01*
X165120869Y-71290836D01*
X165118040Y-71290557D01*
X165115268Y-71289927D01*
X165113159Y-71290076D01*
X165105262Y-71289299D01*
X164867167Y-71289299D01*
X164851560Y-71290836D01*
X164822721Y-71302781D01*
X164800649Y-71324853D01*
X164788704Y-71353692D01*
X164787167Y-71369299D01*
X164470976Y-71369299D01*
X164469439Y-71353692D01*
X164457494Y-71324853D01*
X164435422Y-71302781D01*
X164406583Y-71290836D01*
X164375369Y-71290836D01*
X164346530Y-71302781D01*
X164324458Y-71324853D01*
X164312513Y-71353692D01*
X164310976Y-71369299D01*
X164310976Y-72068053D01*
X163889007Y-71329608D01*
X163886674Y-71326321D01*
X163886066Y-71324853D01*
X163884570Y-71323357D01*
X163879930Y-71316820D01*
X163871520Y-71310307D01*
X163863994Y-71302781D01*
X163859281Y-71300829D01*
X163855250Y-71297707D01*
X163844984Y-71294907D01*
X163835155Y-71290836D01*
X163830057Y-71290836D01*
X163825136Y-71289494D01*
X163814581Y-71290836D01*
X163803941Y-71290836D01*
X163799228Y-71292787D01*
X163794170Y-71293431D01*
X163784933Y-71298708D01*
X163775102Y-71302781D01*
X163771495Y-71306387D01*
X163767069Y-71308917D01*
X163760556Y-71317326D01*
X163753030Y-71324853D01*
X163751078Y-71329565D01*
X163747956Y-71333597D01*
X163745156Y-71343862D01*
X163741085Y-71353692D01*
X163740299Y-71361671D01*
X163739743Y-71363711D01*
X163739943Y-71365285D01*
X163739548Y-71369299D01*
X163423358Y-71369299D01*
X163421821Y-71353692D01*
X163409876Y-71324853D01*
X163387804Y-71302781D01*
X163358965Y-71290836D01*
X163327751Y-71290836D01*
X163298912Y-71302781D01*
X163276840Y-71324853D01*
X163264895Y-71353692D01*
X163263358Y-71369299D01*
X163152247Y-71369299D01*
X163152247Y-71178188D01*
X167104359Y-71178188D01*
X167104359Y-72560410D01*
G37*
G36*
X178943000Y-104736841D02*
G01*
X179015705Y-104809545D01*
X179053591Y-104885317D01*
X179096691Y-105057717D01*
X179096691Y-105180880D01*
X179053591Y-105353280D01*
X179015705Y-105429050D01*
X178943001Y-105501756D01*
X178830375Y-105539299D01*
X178685263Y-105539299D01*
X178685263Y-104699299D01*
X178830375Y-104699299D01*
X178943000Y-104736841D01*
G37*
G36*
X176224538Y-104732665D02*
G01*
X176253800Y-104761926D01*
X176287167Y-104828660D01*
X176287167Y-104933747D01*
X176253800Y-105000480D01*
X176224538Y-105029741D01*
X176157806Y-105063108D01*
X175875739Y-105063108D01*
X175875739Y-104699299D01*
X176157806Y-104699299D01*
X176224538Y-104732665D01*
G37*
G36*
X179367802Y-105810410D02*
G01*
X174604628Y-105810410D01*
X174604628Y-104809775D01*
X174715739Y-104809775D01*
X174715739Y-104905013D01*
X174717276Y-104920620D01*
X174718376Y-104923276D01*
X174718580Y-104926143D01*
X174724185Y-104940790D01*
X174771804Y-105036028D01*
X174776030Y-105042742D01*
X174776840Y-105044697D01*
X174778645Y-105046896D01*
X174780158Y-105049300D01*
X174781752Y-105050682D01*
X174786789Y-105056820D01*
X174834408Y-105104438D01*
X174840542Y-105109472D01*
X174841928Y-105111070D01*
X174844336Y-105112585D01*
X174846531Y-105114387D01*
X174848481Y-105115194D01*
X174855200Y-105119424D01*
X174950438Y-105167043D01*
X174951579Y-105167479D01*
X174952044Y-105167824D01*
X174958584Y-105170160D01*
X174965084Y-105172648D01*
X174965661Y-105172689D01*
X174966812Y-105173100D01*
X175148768Y-105218589D01*
X175224538Y-105256474D01*
X175253800Y-105285735D01*
X175287167Y-105352469D01*
X175287167Y-105409937D01*
X175253799Y-105476671D01*
X175224539Y-105505932D01*
X175157806Y-105539299D01*
X174951579Y-105539299D01*
X174821037Y-105495785D01*
X174805745Y-105492308D01*
X174774609Y-105494520D01*
X174746690Y-105508480D01*
X174726238Y-105532062D01*
X174716367Y-105561674D01*
X174718579Y-105592810D01*
X174732539Y-105620729D01*
X174756121Y-105641181D01*
X174770441Y-105647575D01*
X174913297Y-105695194D01*
X174921039Y-105696954D01*
X174922989Y-105697762D01*
X174925815Y-105698040D01*
X174928589Y-105698671D01*
X174930697Y-105698521D01*
X174938596Y-105699299D01*
X175176691Y-105699299D01*
X175192298Y-105697762D01*
X175194954Y-105696661D01*
X175197821Y-105696458D01*
X175212468Y-105690853D01*
X175307706Y-105643234D01*
X175314423Y-105639005D01*
X175316376Y-105638197D01*
X175318573Y-105636393D01*
X175320978Y-105634880D01*
X175322362Y-105633283D01*
X175328498Y-105628248D01*
X175376117Y-105580628D01*
X175381150Y-105574494D01*
X175382748Y-105573109D01*
X175384263Y-105570701D01*
X175386066Y-105568505D01*
X175386874Y-105566553D01*
X175391102Y-105559837D01*
X175438721Y-105464599D01*
X175444326Y-105449953D01*
X175444529Y-105447085D01*
X175445630Y-105444429D01*
X175447167Y-105428822D01*
X175447167Y-105333584D01*
X175445630Y-105317977D01*
X175444529Y-105315320D01*
X175444326Y-105312453D01*
X175438721Y-105297807D01*
X175391102Y-105202569D01*
X175386872Y-105195850D01*
X175386065Y-105193900D01*
X175384263Y-105191705D01*
X175382748Y-105189297D01*
X175381150Y-105187911D01*
X175376116Y-105181777D01*
X175328498Y-105134158D01*
X175322360Y-105129121D01*
X175320978Y-105127527D01*
X175318574Y-105126014D01*
X175316375Y-105124209D01*
X175314420Y-105123399D01*
X175307706Y-105119173D01*
X175212468Y-105071554D01*
X175211326Y-105071117D01*
X175210862Y-105070773D01*
X175204313Y-105068433D01*
X175197821Y-105065949D01*
X175197244Y-105065908D01*
X175196094Y-105065497D01*
X175014138Y-105020008D01*
X174938366Y-104982122D01*
X174909105Y-104952860D01*
X174875739Y-104886128D01*
X174875739Y-104828660D01*
X174909105Y-104761927D01*
X174938366Y-104732665D01*
X175005100Y-104699299D01*
X175211327Y-104699299D01*
X175341868Y-104742813D01*
X175357160Y-104746290D01*
X175388297Y-104744077D01*
X175416216Y-104730118D01*
X175436668Y-104706536D01*
X175446538Y-104676924D01*
X175444326Y-104645788D01*
X175431082Y-104619299D01*
X175715739Y-104619299D01*
X175715739Y-105619299D01*
X175717276Y-105634906D01*
X175729221Y-105663745D01*
X175751293Y-105685817D01*
X175780132Y-105697762D01*
X175811346Y-105697762D01*
X175840185Y-105685817D01*
X175862257Y-105663745D01*
X175874202Y-105634906D01*
X175875739Y-105619299D01*
X175875739Y-105223108D01*
X176176691Y-105223108D01*
X176192298Y-105221571D01*
X176194954Y-105220470D01*
X176197821Y-105220267D01*
X176212468Y-105214662D01*
X176307706Y-105167043D01*
X176314420Y-105162816D01*
X176316375Y-105162007D01*
X176318574Y-105160201D01*
X176320978Y-105158689D01*
X176322360Y-105157094D01*
X176328498Y-105152058D01*
X176376116Y-105104439D01*
X176381150Y-105098304D01*
X176382748Y-105096919D01*
X176384263Y-105094510D01*
X176386065Y-105092316D01*
X176386872Y-105090365D01*
X176391102Y-105083647D01*
X176438721Y-104988409D01*
X176444326Y-104973763D01*
X176444529Y-104970895D01*
X176445630Y-104968239D01*
X176447167Y-104952632D01*
X176447167Y-104809775D01*
X176445630Y-104794168D01*
X176444529Y-104791511D01*
X176444326Y-104788644D01*
X176438721Y-104773998D01*
X176391102Y-104678760D01*
X176386872Y-104672041D01*
X176386065Y-104670091D01*
X176384263Y-104667896D01*
X176382748Y-104665488D01*
X176381150Y-104664102D01*
X176376116Y-104657968D01*
X176337448Y-104619299D01*
X176715739Y-104619299D01*
X176715739Y-105619299D01*
X176717276Y-105634906D01*
X176729221Y-105663745D01*
X176751293Y-105685817D01*
X176780132Y-105697762D01*
X176795739Y-105699299D01*
X177271929Y-105699299D01*
X177287536Y-105697762D01*
X177316375Y-105685817D01*
X177338447Y-105663745D01*
X177350392Y-105634906D01*
X177350392Y-105603692D01*
X177338447Y-105574853D01*
X177316375Y-105552781D01*
X177287536Y-105540836D01*
X177271929Y-105539299D01*
X176875739Y-105539299D01*
X176875739Y-105175489D01*
X177129072Y-105175489D01*
X177144679Y-105173952D01*
X177173518Y-105162007D01*
X177195590Y-105139935D01*
X177207535Y-105111096D01*
X177207535Y-105079882D01*
X177195590Y-105051043D01*
X177173518Y-105028971D01*
X177144679Y-105017026D01*
X177129072Y-105015489D01*
X176875739Y-105015489D01*
X176875739Y-104699299D01*
X177271929Y-104699299D01*
X177287536Y-104697762D01*
X177316375Y-104685817D01*
X177338447Y-104663745D01*
X177350392Y-104634906D01*
X177350392Y-104619299D01*
X177620501Y-104619299D01*
X177620501Y-105619299D01*
X177622038Y-105634906D01*
X177633983Y-105663745D01*
X177656055Y-105685817D01*
X177684894Y-105697762D01*
X177700501Y-105699299D01*
X178176691Y-105699299D01*
X178192298Y-105697762D01*
X178221137Y-105685817D01*
X178243209Y-105663745D01*
X178255154Y-105634906D01*
X178255154Y-105603692D01*
X178243209Y-105574853D01*
X178221137Y-105552781D01*
X178192298Y-105540836D01*
X178176691Y-105539299D01*
X177780501Y-105539299D01*
X177780501Y-105175489D01*
X178033834Y-105175489D01*
X178049441Y-105173952D01*
X178078280Y-105162007D01*
X178100352Y-105139935D01*
X178112297Y-105111096D01*
X178112297Y-105079882D01*
X178100352Y-105051043D01*
X178078280Y-105028971D01*
X178049441Y-105017026D01*
X178033834Y-105015489D01*
X177780501Y-105015489D01*
X177780501Y-104699299D01*
X178176691Y-104699299D01*
X178192298Y-104697762D01*
X178221137Y-104685817D01*
X178243209Y-104663745D01*
X178255154Y-104634906D01*
X178255154Y-104619299D01*
X178525263Y-104619299D01*
X178525263Y-105619299D01*
X178526800Y-105634906D01*
X178538745Y-105663745D01*
X178560817Y-105685817D01*
X178589656Y-105697762D01*
X178605263Y-105699299D01*
X178843358Y-105699299D01*
X178851255Y-105698521D01*
X178853364Y-105698671D01*
X178856136Y-105698040D01*
X178858965Y-105697762D01*
X178860916Y-105696953D01*
X178868656Y-105695194D01*
X179011513Y-105647575D01*
X179025833Y-105641181D01*
X179028005Y-105639297D01*
X179030661Y-105638197D01*
X179042784Y-105628248D01*
X179138022Y-105533009D01*
X179143055Y-105526875D01*
X179144653Y-105525490D01*
X179146168Y-105523082D01*
X179147971Y-105520886D01*
X179148779Y-105518934D01*
X179153007Y-105512218D01*
X179200626Y-105416980D01*
X179201062Y-105415838D01*
X179201407Y-105415374D01*
X179203743Y-105408833D01*
X179206231Y-105402334D01*
X179206272Y-105401756D01*
X179206683Y-105400606D01*
X179254302Y-105210130D01*
X179254702Y-105207424D01*
X179255154Y-105206334D01*
X179255732Y-105200460D01*
X179256597Y-105194616D01*
X179256423Y-105193447D01*
X179256691Y-105190727D01*
X179256691Y-105047870D01*
X179256423Y-105045149D01*
X179256597Y-105043981D01*
X179255732Y-105038136D01*
X179255154Y-105032263D01*
X179254702Y-105031172D01*
X179254302Y-105028467D01*
X179206683Y-104837991D01*
X179206272Y-104836840D01*
X179206231Y-104836263D01*
X179203743Y-104829763D01*
X179201407Y-104823223D01*
X179201062Y-104822758D01*
X179200626Y-104821617D01*
X179153007Y-104726379D01*
X179148780Y-104719664D01*
X179147971Y-104717710D01*
X179146166Y-104715510D01*
X179144653Y-104713107D01*
X179143057Y-104711722D01*
X179138022Y-104705588D01*
X179042784Y-104610349D01*
X179030661Y-104600400D01*
X179028003Y-104599299D01*
X179025833Y-104597417D01*
X179011513Y-104591023D01*
X178868656Y-104543404D01*
X178860916Y-104541644D01*
X178858965Y-104540836D01*
X178856136Y-104540557D01*
X178853364Y-104539927D01*
X178851255Y-104540076D01*
X178843358Y-104539299D01*
X178605263Y-104539299D01*
X178589656Y-104540836D01*
X178560817Y-104552781D01*
X178538745Y-104574853D01*
X178526800Y-104603692D01*
X178525263Y-104619299D01*
X178255154Y-104619299D01*
X178255154Y-104603692D01*
X178243209Y-104574853D01*
X178221137Y-104552781D01*
X178192298Y-104540836D01*
X178176691Y-104539299D01*
X177700501Y-104539299D01*
X177684894Y-104540836D01*
X177656055Y-104552781D01*
X177633983Y-104574853D01*
X177622038Y-104603692D01*
X177620501Y-104619299D01*
X177350392Y-104619299D01*
X177350392Y-104603692D01*
X177338447Y-104574853D01*
X177316375Y-104552781D01*
X177287536Y-104540836D01*
X177271929Y-104539299D01*
X176795739Y-104539299D01*
X176780132Y-104540836D01*
X176751293Y-104552781D01*
X176729221Y-104574853D01*
X176717276Y-104603692D01*
X176715739Y-104619299D01*
X176337448Y-104619299D01*
X176328498Y-104610349D01*
X176322360Y-104605312D01*
X176320978Y-104603718D01*
X176318574Y-104602205D01*
X176316375Y-104600400D01*
X176314420Y-104599590D01*
X176307706Y-104595364D01*
X176212468Y-104547745D01*
X176197821Y-104542140D01*
X176194954Y-104541936D01*
X176192298Y-104540836D01*
X176176691Y-104539299D01*
X175795739Y-104539299D01*
X175780132Y-104540836D01*
X175751293Y-104552781D01*
X175729221Y-104574853D01*
X175717276Y-104603692D01*
X175715739Y-104619299D01*
X175431082Y-104619299D01*
X175430367Y-104617868D01*
X175406785Y-104597417D01*
X175392465Y-104591023D01*
X175249608Y-104543404D01*
X175241868Y-104541644D01*
X175239917Y-104540836D01*
X175237088Y-104540557D01*
X175234316Y-104539927D01*
X175232207Y-104540076D01*
X175224310Y-104539299D01*
X174986215Y-104539299D01*
X174970608Y-104540836D01*
X174967951Y-104541936D01*
X174965084Y-104542140D01*
X174950438Y-104547745D01*
X174855200Y-104595364D01*
X174848481Y-104599593D01*
X174846531Y-104600401D01*
X174844336Y-104602202D01*
X174841928Y-104603718D01*
X174840542Y-104605315D01*
X174834408Y-104610350D01*
X174786789Y-104657968D01*
X174781752Y-104664105D01*
X174780158Y-104665488D01*
X174778645Y-104667891D01*
X174776840Y-104670091D01*
X174776030Y-104672045D01*
X174771804Y-104678760D01*
X174724185Y-104773998D01*
X174718580Y-104788645D01*
X174718376Y-104791511D01*
X174717276Y-104794168D01*
X174715739Y-104809775D01*
X174604628Y-104809775D01*
X174604628Y-104428188D01*
X179367802Y-104428188D01*
X179367802Y-105810410D01*
G37*
D11*
X112511333Y-73554872D02*
X112511333Y-72888205D01*
X112511333Y-72983443D02*
X112558952Y-72935824D01*
X112558952Y-72935824D02*
X112654190Y-72888205D01*
X112654190Y-72888205D02*
X112797047Y-72888205D01*
X112797047Y-72888205D02*
X112892285Y-72935824D01*
X112892285Y-72935824D02*
X112939904Y-73031062D01*
X112939904Y-73031062D02*
X112939904Y-73554872D01*
X112939904Y-73031062D02*
X112987523Y-72935824D01*
X112987523Y-72935824D02*
X113082761Y-72888205D01*
X113082761Y-72888205D02*
X113225618Y-72888205D01*
X113225618Y-72888205D02*
X113320857Y-72935824D01*
X113320857Y-72935824D02*
X113368476Y-73031062D01*
X113368476Y-73031062D02*
X113368476Y-73554872D01*
X114273237Y-73554872D02*
X114273237Y-73031062D01*
X114273237Y-73031062D02*
X114225618Y-72935824D01*
X114225618Y-72935824D02*
X114130380Y-72888205D01*
X114130380Y-72888205D02*
X113939904Y-72888205D01*
X113939904Y-72888205D02*
X113844666Y-72935824D01*
X114273237Y-73507253D02*
X114177999Y-73554872D01*
X114177999Y-73554872D02*
X113939904Y-73554872D01*
X113939904Y-73554872D02*
X113844666Y-73507253D01*
X113844666Y-73507253D02*
X113797047Y-73412014D01*
X113797047Y-73412014D02*
X113797047Y-73316776D01*
X113797047Y-73316776D02*
X113844666Y-73221538D01*
X113844666Y-73221538D02*
X113939904Y-73173919D01*
X113939904Y-73173919D02*
X114177999Y-73173919D01*
X114177999Y-73173919D02*
X114273237Y-73126300D01*
X115177999Y-73554872D02*
X115177999Y-72554872D01*
X115177999Y-73507253D02*
X115082761Y-73554872D01*
X115082761Y-73554872D02*
X114892285Y-73554872D01*
X114892285Y-73554872D02*
X114797047Y-73507253D01*
X114797047Y-73507253D02*
X114749428Y-73459633D01*
X114749428Y-73459633D02*
X114701809Y-73364395D01*
X114701809Y-73364395D02*
X114701809Y-73078681D01*
X114701809Y-73078681D02*
X114749428Y-72983443D01*
X114749428Y-72983443D02*
X114797047Y-72935824D01*
X114797047Y-72935824D02*
X114892285Y-72888205D01*
X114892285Y-72888205D02*
X115082761Y-72888205D01*
X115082761Y-72888205D02*
X115177999Y-72935824D01*
X116035142Y-73507253D02*
X115939904Y-73554872D01*
X115939904Y-73554872D02*
X115749428Y-73554872D01*
X115749428Y-73554872D02*
X115654190Y-73507253D01*
X115654190Y-73507253D02*
X115606571Y-73412014D01*
X115606571Y-73412014D02*
X115606571Y-73031062D01*
X115606571Y-73031062D02*
X115654190Y-72935824D01*
X115654190Y-72935824D02*
X115749428Y-72888205D01*
X115749428Y-72888205D02*
X115939904Y-72888205D01*
X115939904Y-72888205D02*
X116035142Y-72935824D01*
X116035142Y-72935824D02*
X116082761Y-73031062D01*
X116082761Y-73031062D02*
X116082761Y-73126300D01*
X116082761Y-73126300D02*
X115606571Y-73221538D01*
X117273238Y-73554872D02*
X117273238Y-72554872D01*
X117273238Y-72935824D02*
X117368476Y-72888205D01*
X117368476Y-72888205D02*
X117558952Y-72888205D01*
X117558952Y-72888205D02*
X117654190Y-72935824D01*
X117654190Y-72935824D02*
X117701809Y-72983443D01*
X117701809Y-72983443D02*
X117749428Y-73078681D01*
X117749428Y-73078681D02*
X117749428Y-73364395D01*
X117749428Y-73364395D02*
X117701809Y-73459633D01*
X117701809Y-73459633D02*
X117654190Y-73507253D01*
X117654190Y-73507253D02*
X117558952Y-73554872D01*
X117558952Y-73554872D02*
X117368476Y-73554872D01*
X117368476Y-73554872D02*
X117273238Y-73507253D01*
X118082762Y-72888205D02*
X118320857Y-73554872D01*
X118558952Y-72888205D02*
X118320857Y-73554872D01*
X118320857Y-73554872D02*
X118225619Y-73792967D01*
X118225619Y-73792967D02*
X118178000Y-73840586D01*
X118178000Y-73840586D02*
X118082762Y-73888205D01*
X108749428Y-74164816D02*
X109082761Y-75164816D01*
X109082761Y-75164816D02*
X109416094Y-74164816D01*
X109892285Y-75164816D02*
X109797047Y-75117197D01*
X109797047Y-75117197D02*
X109749428Y-75069577D01*
X109749428Y-75069577D02*
X109701809Y-74974339D01*
X109701809Y-74974339D02*
X109701809Y-74688625D01*
X109701809Y-74688625D02*
X109749428Y-74593387D01*
X109749428Y-74593387D02*
X109797047Y-74545768D01*
X109797047Y-74545768D02*
X109892285Y-74498149D01*
X109892285Y-74498149D02*
X110035142Y-74498149D01*
X110035142Y-74498149D02*
X110130380Y-74545768D01*
X110130380Y-74545768D02*
X110177999Y-74593387D01*
X110177999Y-74593387D02*
X110225618Y-74688625D01*
X110225618Y-74688625D02*
X110225618Y-74974339D01*
X110225618Y-74974339D02*
X110177999Y-75069577D01*
X110177999Y-75069577D02*
X110130380Y-75117197D01*
X110130380Y-75117197D02*
X110035142Y-75164816D01*
X110035142Y-75164816D02*
X109892285Y-75164816D01*
X111082761Y-74498149D02*
X111082761Y-75307673D01*
X111082761Y-75307673D02*
X111035142Y-75402911D01*
X111035142Y-75402911D02*
X110987523Y-75450530D01*
X110987523Y-75450530D02*
X110892285Y-75498149D01*
X110892285Y-75498149D02*
X110749428Y-75498149D01*
X110749428Y-75498149D02*
X110654190Y-75450530D01*
X111082761Y-75117197D02*
X110987523Y-75164816D01*
X110987523Y-75164816D02*
X110797047Y-75164816D01*
X110797047Y-75164816D02*
X110701809Y-75117197D01*
X110701809Y-75117197D02*
X110654190Y-75069577D01*
X110654190Y-75069577D02*
X110606571Y-74974339D01*
X110606571Y-74974339D02*
X110606571Y-74688625D01*
X110606571Y-74688625D02*
X110654190Y-74593387D01*
X110654190Y-74593387D02*
X110701809Y-74545768D01*
X110701809Y-74545768D02*
X110797047Y-74498149D01*
X110797047Y-74498149D02*
X110987523Y-74498149D01*
X110987523Y-74498149D02*
X111082761Y-74545768D01*
X111939904Y-75117197D02*
X111844666Y-75164816D01*
X111844666Y-75164816D02*
X111654190Y-75164816D01*
X111654190Y-75164816D02*
X111558952Y-75117197D01*
X111558952Y-75117197D02*
X111511333Y-75021958D01*
X111511333Y-75021958D02*
X111511333Y-74641006D01*
X111511333Y-74641006D02*
X111558952Y-74545768D01*
X111558952Y-74545768D02*
X111654190Y-74498149D01*
X111654190Y-74498149D02*
X111844666Y-74498149D01*
X111844666Y-74498149D02*
X111939904Y-74545768D01*
X111939904Y-74545768D02*
X111987523Y-74641006D01*
X111987523Y-74641006D02*
X111987523Y-74736244D01*
X111987523Y-74736244D02*
X111511333Y-74831482D01*
X112558952Y-75164816D02*
X112463714Y-75117197D01*
X112463714Y-75117197D02*
X112416095Y-75021958D01*
X112416095Y-75021958D02*
X112416095Y-74164816D01*
X112939905Y-75164816D02*
X112939905Y-74164816D01*
X112939905Y-74164816D02*
X113320857Y-74164816D01*
X113320857Y-74164816D02*
X113416095Y-74212435D01*
X113416095Y-74212435D02*
X113463714Y-74260054D01*
X113463714Y-74260054D02*
X113511333Y-74355292D01*
X113511333Y-74355292D02*
X113511333Y-74498149D01*
X113511333Y-74498149D02*
X113463714Y-74593387D01*
X113463714Y-74593387D02*
X113416095Y-74641006D01*
X113416095Y-74641006D02*
X113320857Y-74688625D01*
X113320857Y-74688625D02*
X112939905Y-74688625D01*
X114368476Y-75164816D02*
X114368476Y-74641006D01*
X114368476Y-74641006D02*
X114320857Y-74545768D01*
X114320857Y-74545768D02*
X114225619Y-74498149D01*
X114225619Y-74498149D02*
X114035143Y-74498149D01*
X114035143Y-74498149D02*
X113939905Y-74545768D01*
X114368476Y-75117197D02*
X114273238Y-75164816D01*
X114273238Y-75164816D02*
X114035143Y-75164816D01*
X114035143Y-75164816D02*
X113939905Y-75117197D01*
X113939905Y-75117197D02*
X113892286Y-75021958D01*
X113892286Y-75021958D02*
X113892286Y-74926720D01*
X113892286Y-74926720D02*
X113939905Y-74831482D01*
X113939905Y-74831482D02*
X114035143Y-74783863D01*
X114035143Y-74783863D02*
X114273238Y-74783863D01*
X114273238Y-74783863D02*
X114368476Y-74736244D01*
X114844667Y-74498149D02*
X114844667Y-75498149D01*
X114844667Y-74545768D02*
X114939905Y-74498149D01*
X114939905Y-74498149D02*
X115130381Y-74498149D01*
X115130381Y-74498149D02*
X115225619Y-74545768D01*
X115225619Y-74545768D02*
X115273238Y-74593387D01*
X115273238Y-74593387D02*
X115320857Y-74688625D01*
X115320857Y-74688625D02*
X115320857Y-74974339D01*
X115320857Y-74974339D02*
X115273238Y-75069577D01*
X115273238Y-75069577D02*
X115225619Y-75117197D01*
X115225619Y-75117197D02*
X115130381Y-75164816D01*
X115130381Y-75164816D02*
X114939905Y-75164816D01*
X114939905Y-75164816D02*
X114844667Y-75117197D01*
X116178000Y-75164816D02*
X116178000Y-74641006D01*
X116178000Y-74641006D02*
X116130381Y-74545768D01*
X116130381Y-74545768D02*
X116035143Y-74498149D01*
X116035143Y-74498149D02*
X115844667Y-74498149D01*
X115844667Y-74498149D02*
X115749429Y-74545768D01*
X116178000Y-75117197D02*
X116082762Y-75164816D01*
X116082762Y-75164816D02*
X115844667Y-75164816D01*
X115844667Y-75164816D02*
X115749429Y-75117197D01*
X115749429Y-75117197D02*
X115701810Y-75021958D01*
X115701810Y-75021958D02*
X115701810Y-74926720D01*
X115701810Y-74926720D02*
X115749429Y-74831482D01*
X115749429Y-74831482D02*
X115844667Y-74783863D01*
X115844667Y-74783863D02*
X116082762Y-74783863D01*
X116082762Y-74783863D02*
X116178000Y-74736244D01*
X116987524Y-74641006D02*
X116654191Y-74641006D01*
X116654191Y-75164816D02*
X116654191Y-74164816D01*
X116654191Y-74164816D02*
X117130381Y-74164816D01*
X117511334Y-75164816D02*
X117511334Y-74498149D01*
X117511334Y-74164816D02*
X117463715Y-74212435D01*
X117463715Y-74212435D02*
X117511334Y-74260054D01*
X117511334Y-74260054D02*
X117558953Y-74212435D01*
X117558953Y-74212435D02*
X117511334Y-74164816D01*
X117511334Y-74164816D02*
X117511334Y-74260054D01*
X117987524Y-74498149D02*
X117987524Y-75164816D01*
X117987524Y-74593387D02*
X118035143Y-74545768D01*
X118035143Y-74545768D02*
X118130381Y-74498149D01*
X118130381Y-74498149D02*
X118273238Y-74498149D01*
X118273238Y-74498149D02*
X118368476Y-74545768D01*
X118368476Y-74545768D02*
X118416095Y-74641006D01*
X118416095Y-74641006D02*
X118416095Y-75164816D01*
X118892286Y-74498149D02*
X118892286Y-75164816D01*
X118892286Y-74593387D02*
X118939905Y-74545768D01*
X118939905Y-74545768D02*
X119035143Y-74498149D01*
X119035143Y-74498149D02*
X119178000Y-74498149D01*
X119178000Y-74498149D02*
X119273238Y-74545768D01*
X119273238Y-74545768D02*
X119320857Y-74641006D01*
X119320857Y-74641006D02*
X119320857Y-75164816D01*
X121368477Y-75164816D02*
X121320858Y-75164816D01*
X121320858Y-75164816D02*
X121225619Y-75117197D01*
X121225619Y-75117197D02*
X121082762Y-74974339D01*
X121082762Y-74974339D02*
X120844667Y-74688625D01*
X120844667Y-74688625D02*
X120749429Y-74545768D01*
X120749429Y-74545768D02*
X120701810Y-74402911D01*
X120701810Y-74402911D02*
X120701810Y-74307673D01*
X120701810Y-74307673D02*
X120749429Y-74212435D01*
X120749429Y-74212435D02*
X120844667Y-74164816D01*
X120844667Y-74164816D02*
X120892286Y-74164816D01*
X120892286Y-74164816D02*
X120987524Y-74212435D01*
X120987524Y-74212435D02*
X121035143Y-74307673D01*
X121035143Y-74307673D02*
X121035143Y-74355292D01*
X121035143Y-74355292D02*
X120987524Y-74450530D01*
X120987524Y-74450530D02*
X120939905Y-74498149D01*
X120939905Y-74498149D02*
X120654191Y-74688625D01*
X120654191Y-74688625D02*
X120606572Y-74736244D01*
X120606572Y-74736244D02*
X120558953Y-74831482D01*
X120558953Y-74831482D02*
X120558953Y-74974339D01*
X120558953Y-74974339D02*
X120606572Y-75069577D01*
X120606572Y-75069577D02*
X120654191Y-75117197D01*
X120654191Y-75117197D02*
X120749429Y-75164816D01*
X120749429Y-75164816D02*
X120892286Y-75164816D01*
X120892286Y-75164816D02*
X120987524Y-75117197D01*
X120987524Y-75117197D02*
X121035143Y-75069577D01*
X121035143Y-75069577D02*
X121178000Y-74879101D01*
X121178000Y-74879101D02*
X121225619Y-74736244D01*
X121225619Y-74736244D02*
X121225619Y-74641006D01*
X111630380Y-76727141D02*
X111773237Y-76774760D01*
X111773237Y-76774760D02*
X112011332Y-76774760D01*
X112011332Y-76774760D02*
X112106570Y-76727141D01*
X112106570Y-76727141D02*
X112154189Y-76679521D01*
X112154189Y-76679521D02*
X112201808Y-76584283D01*
X112201808Y-76584283D02*
X112201808Y-76489045D01*
X112201808Y-76489045D02*
X112154189Y-76393807D01*
X112154189Y-76393807D02*
X112106570Y-76346188D01*
X112106570Y-76346188D02*
X112011332Y-76298569D01*
X112011332Y-76298569D02*
X111820856Y-76250950D01*
X111820856Y-76250950D02*
X111725618Y-76203331D01*
X111725618Y-76203331D02*
X111677999Y-76155712D01*
X111677999Y-76155712D02*
X111630380Y-76060474D01*
X111630380Y-76060474D02*
X111630380Y-75965236D01*
X111630380Y-75965236D02*
X111677999Y-75869998D01*
X111677999Y-75869998D02*
X111725618Y-75822379D01*
X111725618Y-75822379D02*
X111820856Y-75774760D01*
X111820856Y-75774760D02*
X112058951Y-75774760D01*
X112058951Y-75774760D02*
X112201808Y-75822379D01*
X112487523Y-76108093D02*
X112868475Y-76108093D01*
X112630380Y-75774760D02*
X112630380Y-76631902D01*
X112630380Y-76631902D02*
X112677999Y-76727141D01*
X112677999Y-76727141D02*
X112773237Y-76774760D01*
X112773237Y-76774760D02*
X112868475Y-76774760D01*
X113201809Y-76774760D02*
X113201809Y-76108093D01*
X113201809Y-76298569D02*
X113249428Y-76203331D01*
X113249428Y-76203331D02*
X113297047Y-76155712D01*
X113297047Y-76155712D02*
X113392285Y-76108093D01*
X113392285Y-76108093D02*
X113487523Y-76108093D01*
X114201809Y-76727141D02*
X114106571Y-76774760D01*
X114106571Y-76774760D02*
X113916095Y-76774760D01*
X113916095Y-76774760D02*
X113820857Y-76727141D01*
X113820857Y-76727141D02*
X113773238Y-76631902D01*
X113773238Y-76631902D02*
X113773238Y-76250950D01*
X113773238Y-76250950D02*
X113820857Y-76155712D01*
X113820857Y-76155712D02*
X113916095Y-76108093D01*
X113916095Y-76108093D02*
X114106571Y-76108093D01*
X114106571Y-76108093D02*
X114201809Y-76155712D01*
X114201809Y-76155712D02*
X114249428Y-76250950D01*
X114249428Y-76250950D02*
X114249428Y-76346188D01*
X114249428Y-76346188D02*
X113773238Y-76441426D01*
X115058952Y-76727141D02*
X114963714Y-76774760D01*
X114963714Y-76774760D02*
X114773238Y-76774760D01*
X114773238Y-76774760D02*
X114678000Y-76727141D01*
X114678000Y-76727141D02*
X114630381Y-76631902D01*
X114630381Y-76631902D02*
X114630381Y-76250950D01*
X114630381Y-76250950D02*
X114678000Y-76155712D01*
X114678000Y-76155712D02*
X114773238Y-76108093D01*
X114773238Y-76108093D02*
X114963714Y-76108093D01*
X114963714Y-76108093D02*
X115058952Y-76155712D01*
X115058952Y-76155712D02*
X115106571Y-76250950D01*
X115106571Y-76250950D02*
X115106571Y-76346188D01*
X115106571Y-76346188D02*
X114630381Y-76441426D01*
X115392286Y-76108093D02*
X115773238Y-76108093D01*
X115535143Y-75774760D02*
X115535143Y-76631902D01*
X115535143Y-76631902D02*
X115582762Y-76727141D01*
X115582762Y-76727141D02*
X115678000Y-76774760D01*
X115678000Y-76774760D02*
X115773238Y-76774760D01*
X116249429Y-76774760D02*
X116154191Y-76727141D01*
X116154191Y-76727141D02*
X116106572Y-76631902D01*
X116106572Y-76631902D02*
X116106572Y-75774760D01*
X117058953Y-76774760D02*
X117058953Y-76250950D01*
X117058953Y-76250950D02*
X117011334Y-76155712D01*
X117011334Y-76155712D02*
X116916096Y-76108093D01*
X116916096Y-76108093D02*
X116725620Y-76108093D01*
X116725620Y-76108093D02*
X116630382Y-76155712D01*
X117058953Y-76727141D02*
X116963715Y-76774760D01*
X116963715Y-76774760D02*
X116725620Y-76774760D01*
X116725620Y-76774760D02*
X116630382Y-76727141D01*
X116630382Y-76727141D02*
X116582763Y-76631902D01*
X116582763Y-76631902D02*
X116582763Y-76536664D01*
X116582763Y-76536664D02*
X116630382Y-76441426D01*
X116630382Y-76441426D02*
X116725620Y-76393807D01*
X116725620Y-76393807D02*
X116963715Y-76393807D01*
X116963715Y-76393807D02*
X117058953Y-76346188D01*
X117535144Y-76774760D02*
X117535144Y-76108093D01*
X117535144Y-76203331D02*
X117582763Y-76155712D01*
X117582763Y-76155712D02*
X117678001Y-76108093D01*
X117678001Y-76108093D02*
X117820858Y-76108093D01*
X117820858Y-76108093D02*
X117916096Y-76155712D01*
X117916096Y-76155712D02*
X117963715Y-76250950D01*
X117963715Y-76250950D02*
X117963715Y-76774760D01*
X117963715Y-76250950D02*
X118011334Y-76155712D01*
X118011334Y-76155712D02*
X118106572Y-76108093D01*
X118106572Y-76108093D02*
X118249429Y-76108093D01*
X118249429Y-76108093D02*
X118344668Y-76155712D01*
X118344668Y-76155712D02*
X118392287Y-76250950D01*
X118392287Y-76250950D02*
X118392287Y-76774760D01*
X118868477Y-76108093D02*
X118868477Y-77108093D01*
X118868477Y-76155712D02*
X118963715Y-76108093D01*
X118963715Y-76108093D02*
X119154191Y-76108093D01*
X119154191Y-76108093D02*
X119249429Y-76155712D01*
X119249429Y-76155712D02*
X119297048Y-76203331D01*
X119297048Y-76203331D02*
X119344667Y-76298569D01*
X119344667Y-76298569D02*
X119344667Y-76584283D01*
X119344667Y-76584283D02*
X119297048Y-76679521D01*
X119297048Y-76679521D02*
X119249429Y-76727141D01*
X119249429Y-76727141D02*
X119154191Y-76774760D01*
X119154191Y-76774760D02*
X118963715Y-76774760D01*
X118963715Y-76774760D02*
X118868477Y-76727141D01*
D10*
G36*
X83750479Y-107496198D02*
G01*
X83779741Y-107525459D01*
X83813108Y-107592193D01*
X83813108Y-107874260D01*
X83449299Y-107874260D01*
X83449299Y-107592193D01*
X83482665Y-107525460D01*
X83511926Y-107496198D01*
X83578660Y-107462832D01*
X83683747Y-107462832D01*
X83750479Y-107496198D01*
G37*
G36*
X84560410Y-109145371D02*
G01*
X83178187Y-109145371D01*
X83178187Y-108525689D01*
X83289299Y-108525689D01*
X83289299Y-108763784D01*
X83290836Y-108779391D01*
X83291936Y-108782047D01*
X83292140Y-108784914D01*
X83297745Y-108799561D01*
X83345364Y-108894799D01*
X83349590Y-108901513D01*
X83350400Y-108903468D01*
X83352205Y-108905667D01*
X83353718Y-108908071D01*
X83355312Y-108909453D01*
X83360349Y-108915591D01*
X83407968Y-108963209D01*
X83414102Y-108968243D01*
X83415488Y-108969841D01*
X83417896Y-108971356D01*
X83420091Y-108973158D01*
X83422041Y-108973965D01*
X83428760Y-108978195D01*
X83523998Y-109025814D01*
X83538644Y-109031419D01*
X83541511Y-109031622D01*
X83544168Y-109032723D01*
X83559775Y-109034260D01*
X83655013Y-109034260D01*
X83670620Y-109032723D01*
X83673276Y-109031622D01*
X83676143Y-109031419D01*
X83690790Y-109025814D01*
X83786028Y-108978195D01*
X83792742Y-108973968D01*
X83794697Y-108973159D01*
X83796896Y-108971353D01*
X83799300Y-108969841D01*
X83800682Y-108968246D01*
X83806820Y-108963210D01*
X83854438Y-108915591D01*
X83859472Y-108909456D01*
X83861070Y-108908071D01*
X83862585Y-108905662D01*
X83864387Y-108903468D01*
X83865194Y-108901517D01*
X83869424Y-108894799D01*
X83917043Y-108799561D01*
X83917479Y-108798419D01*
X83917824Y-108797955D01*
X83920160Y-108791414D01*
X83922648Y-108784915D01*
X83922689Y-108784337D01*
X83923100Y-108783187D01*
X83968589Y-108601231D01*
X84006474Y-108525460D01*
X84035735Y-108496198D01*
X84102469Y-108462832D01*
X84159937Y-108462832D01*
X84226671Y-108496199D01*
X84255932Y-108525459D01*
X84289299Y-108592193D01*
X84289299Y-108798420D01*
X84245785Y-108928962D01*
X84242308Y-108944254D01*
X84244520Y-108975390D01*
X84258480Y-109003309D01*
X84282062Y-109023761D01*
X84311674Y-109033632D01*
X84342810Y-109031420D01*
X84370729Y-109017460D01*
X84391181Y-108993878D01*
X84397575Y-108979558D01*
X84445194Y-108836702D01*
X84446954Y-108828959D01*
X84447762Y-108827010D01*
X84448040Y-108824183D01*
X84448671Y-108821410D01*
X84448521Y-108819301D01*
X84449299Y-108811403D01*
X84449299Y-108573308D01*
X84447762Y-108557701D01*
X84446661Y-108555044D01*
X84446458Y-108552177D01*
X84440853Y-108537531D01*
X84393234Y-108442293D01*
X84389005Y-108435575D01*
X84388197Y-108433623D01*
X84386393Y-108431425D01*
X84384880Y-108429021D01*
X84383283Y-108427636D01*
X84378248Y-108421501D01*
X84330628Y-108373882D01*
X84324494Y-108368848D01*
X84323109Y-108367251D01*
X84320701Y-108365735D01*
X84318505Y-108363933D01*
X84316553Y-108363124D01*
X84309837Y-108358897D01*
X84214599Y-108311278D01*
X84199952Y-108305673D01*
X84197085Y-108305469D01*
X84194429Y-108304369D01*
X84178822Y-108302832D01*
X84083584Y-108302832D01*
X84067977Y-108304369D01*
X84065320Y-108305469D01*
X84062453Y-108305673D01*
X84047807Y-108311278D01*
X83952569Y-108358897D01*
X83945850Y-108363126D01*
X83943900Y-108363934D01*
X83941705Y-108365735D01*
X83939297Y-108367251D01*
X83937911Y-108368848D01*
X83931777Y-108373883D01*
X83884158Y-108421501D01*
X83879121Y-108427638D01*
X83877527Y-108429021D01*
X83876014Y-108431424D01*
X83874209Y-108433624D01*
X83873399Y-108435578D01*
X83869173Y-108442293D01*
X83821554Y-108537531D01*
X83821117Y-108538672D01*
X83820773Y-108539137D01*
X83818433Y-108545685D01*
X83815949Y-108552178D01*
X83815908Y-108552754D01*
X83815497Y-108553905D01*
X83770008Y-108735861D01*
X83732122Y-108811632D01*
X83702860Y-108840893D01*
X83636128Y-108874260D01*
X83578660Y-108874260D01*
X83511926Y-108840893D01*
X83482665Y-108811631D01*
X83449299Y-108744899D01*
X83449299Y-108538672D01*
X83492813Y-108408131D01*
X83496290Y-108392839D01*
X83494077Y-108361702D01*
X83480118Y-108333783D01*
X83456536Y-108313331D01*
X83426924Y-108303461D01*
X83395788Y-108305673D01*
X83367868Y-108319632D01*
X83347417Y-108343214D01*
X83341023Y-108357534D01*
X83293404Y-108500391D01*
X83291644Y-108508130D01*
X83290836Y-108510082D01*
X83290557Y-108512910D01*
X83289927Y-108515683D01*
X83290076Y-108517791D01*
X83289299Y-108525689D01*
X83178187Y-108525689D01*
X83178187Y-107573308D01*
X83289299Y-107573308D01*
X83289299Y-107954260D01*
X83290836Y-107969867D01*
X83302781Y-107998706D01*
X83324853Y-108020778D01*
X83353692Y-108032723D01*
X83369299Y-108034260D01*
X84369299Y-108034260D01*
X84384906Y-108032723D01*
X84413745Y-108020778D01*
X84435817Y-107998706D01*
X84447762Y-107969867D01*
X84447762Y-107938653D01*
X84435817Y-107909814D01*
X84413745Y-107887742D01*
X84384906Y-107875797D01*
X84369299Y-107874260D01*
X83973108Y-107874260D01*
X83973108Y-107573308D01*
X83971571Y-107557701D01*
X83970470Y-107555044D01*
X83970267Y-107552177D01*
X83964662Y-107537531D01*
X83917043Y-107442293D01*
X83912813Y-107435574D01*
X83912006Y-107433624D01*
X83910204Y-107431429D01*
X83908689Y-107429021D01*
X83907091Y-107427635D01*
X83902057Y-107421501D01*
X83854439Y-107373882D01*
X83848301Y-107368845D01*
X83846919Y-107367251D01*
X83844515Y-107365738D01*
X83842316Y-107363933D01*
X83840361Y-107363123D01*
X83833647Y-107358897D01*
X83738409Y-107311278D01*
X83723762Y-107305673D01*
X83720895Y-107305469D01*
X83718239Y-107304369D01*
X83702632Y-107302832D01*
X83559775Y-107302832D01*
X83544168Y-107304369D01*
X83541511Y-107305469D01*
X83538644Y-107305673D01*
X83523998Y-107311278D01*
X83428760Y-107358897D01*
X83422041Y-107363126D01*
X83420091Y-107363934D01*
X83417896Y-107365735D01*
X83415488Y-107367251D01*
X83414102Y-107368848D01*
X83407968Y-107373883D01*
X83360349Y-107421501D01*
X83355312Y-107427638D01*
X83353718Y-107429021D01*
X83352205Y-107431424D01*
X83350400Y-107433624D01*
X83349590Y-107435578D01*
X83345364Y-107442293D01*
X83297745Y-107537531D01*
X83292140Y-107552178D01*
X83291936Y-107555044D01*
X83290836Y-107557701D01*
X83289299Y-107573308D01*
X83178187Y-107573308D01*
X83178187Y-106938653D01*
X83290836Y-106938653D01*
X83290836Y-106969867D01*
X83302781Y-106998706D01*
X83324853Y-107020778D01*
X83353692Y-107032723D01*
X83369299Y-107034260D01*
X84369299Y-107034260D01*
X84384906Y-107032723D01*
X84413745Y-107020778D01*
X84435817Y-106998706D01*
X84447762Y-106969867D01*
X84447762Y-106938653D01*
X84435817Y-106909814D01*
X84413745Y-106887742D01*
X84384906Y-106875797D01*
X84369299Y-106874260D01*
X83369299Y-106874260D01*
X83353692Y-106875797D01*
X83324853Y-106887742D01*
X83302781Y-106909814D01*
X83290836Y-106938653D01*
X83178187Y-106938653D01*
X83178187Y-106240059D01*
X83289298Y-106240059D01*
X83290836Y-106247748D01*
X83290836Y-106255582D01*
X83293865Y-106262897D01*
X83295420Y-106270667D01*
X83299781Y-106277179D01*
X83302781Y-106284421D01*
X83308383Y-106290023D01*
X83312790Y-106296603D01*
X83324790Y-106306430D01*
X83324853Y-106306493D01*
X83324880Y-106306504D01*
X83324923Y-106306539D01*
X83461186Y-106397381D01*
X83541646Y-106477840D01*
X83583459Y-106561466D01*
X83591813Y-106574738D01*
X83615394Y-106595190D01*
X83645007Y-106605061D01*
X83676143Y-106602848D01*
X83704062Y-106588888D01*
X83724514Y-106565307D01*
X83734385Y-106535695D01*
X83732172Y-106504558D01*
X83726567Y-106489912D01*
X83678948Y-106394674D01*
X83674721Y-106387959D01*
X83673912Y-106386005D01*
X83672107Y-106383805D01*
X83670594Y-106381402D01*
X83668998Y-106380017D01*
X83663963Y-106373883D01*
X83610056Y-106319975D01*
X84289299Y-106319975D01*
X84289299Y-106525689D01*
X84290836Y-106541296D01*
X84302781Y-106570135D01*
X84324853Y-106592207D01*
X84353692Y-106604152D01*
X84384906Y-106604152D01*
X84413745Y-106592207D01*
X84435817Y-106570135D01*
X84447762Y-106541296D01*
X84449299Y-106525689D01*
X84449299Y-105954261D01*
X84447762Y-105938654D01*
X84435817Y-105909815D01*
X84413745Y-105887743D01*
X84384906Y-105875798D01*
X84353692Y-105875798D01*
X84324853Y-105887743D01*
X84302781Y-105909815D01*
X84290836Y-105938654D01*
X84289299Y-105954261D01*
X84289299Y-106159975D01*
X83369299Y-106159975D01*
X83369246Y-106159980D01*
X83369215Y-106159974D01*
X83369123Y-106159992D01*
X83353692Y-106161512D01*
X83346376Y-106164541D01*
X83338607Y-106166096D01*
X83332094Y-106170457D01*
X83324853Y-106173457D01*
X83319250Y-106179059D01*
X83312671Y-106183466D01*
X83308325Y-106189985D01*
X83302781Y-106195529D01*
X83299749Y-106202848D01*
X83295357Y-106209437D01*
X83293835Y-106217125D01*
X83290836Y-106224368D01*
X83290836Y-106232285D01*
X83289298Y-106240059D01*
X83178187Y-106240059D01*
X83178187Y-105764687D01*
X84560410Y-105764687D01*
X84560410Y-109145371D01*
G37*
X166343358Y-51238346D02*
X167105263Y-51238346D01*
X166724310Y-51619299D02*
X166724310Y-50857394D01*
X166819548Y-75619299D02*
X166343358Y-75619299D01*
X166343358Y-75619299D02*
X166343358Y-74619299D01*
X166914786Y-69369299D02*
X166581453Y-68893108D01*
X166343358Y-69369299D02*
X166343358Y-68369299D01*
X166343358Y-68369299D02*
X166724310Y-68369299D01*
X166724310Y-68369299D02*
X166819548Y-68416918D01*
X166819548Y-68416918D02*
X166867167Y-68464537D01*
X166867167Y-68464537D02*
X166914786Y-68559775D01*
X166914786Y-68559775D02*
X166914786Y-68702632D01*
X166914786Y-68702632D02*
X166867167Y-68797870D01*
X166867167Y-68797870D02*
X166819548Y-68845489D01*
X166819548Y-68845489D02*
X166724310Y-68893108D01*
X166724310Y-68893108D02*
X166343358Y-68893108D01*
G36*
X156500479Y-107496198D02*
G01*
X156529741Y-107525459D01*
X156563108Y-107592193D01*
X156563108Y-107874260D01*
X156199299Y-107874260D01*
X156199299Y-107592193D01*
X156232665Y-107525460D01*
X156261926Y-107496198D01*
X156328660Y-107462832D01*
X156433747Y-107462832D01*
X156500479Y-107496198D01*
G37*
G36*
X157310410Y-109145371D02*
G01*
X155928188Y-109145371D01*
X155928188Y-108525689D01*
X156039299Y-108525689D01*
X156039299Y-108763784D01*
X156040836Y-108779391D01*
X156041936Y-108782047D01*
X156042140Y-108784914D01*
X156047745Y-108799561D01*
X156095364Y-108894799D01*
X156099590Y-108901513D01*
X156100400Y-108903468D01*
X156102205Y-108905667D01*
X156103718Y-108908071D01*
X156105312Y-108909453D01*
X156110349Y-108915591D01*
X156157968Y-108963209D01*
X156164102Y-108968243D01*
X156165488Y-108969841D01*
X156167896Y-108971356D01*
X156170091Y-108973158D01*
X156172041Y-108973965D01*
X156178760Y-108978195D01*
X156273998Y-109025814D01*
X156288644Y-109031419D01*
X156291511Y-109031622D01*
X156294168Y-109032723D01*
X156309775Y-109034260D01*
X156405013Y-109034260D01*
X156420620Y-109032723D01*
X156423276Y-109031622D01*
X156426143Y-109031419D01*
X156440790Y-109025814D01*
X156536028Y-108978195D01*
X156542742Y-108973968D01*
X156544697Y-108973159D01*
X156546896Y-108971353D01*
X156549300Y-108969841D01*
X156550682Y-108968246D01*
X156556820Y-108963210D01*
X156604438Y-108915591D01*
X156609472Y-108909456D01*
X156611070Y-108908071D01*
X156612585Y-108905662D01*
X156614387Y-108903468D01*
X156615194Y-108901517D01*
X156619424Y-108894799D01*
X156667043Y-108799561D01*
X156667479Y-108798419D01*
X156667824Y-108797955D01*
X156670160Y-108791414D01*
X156672648Y-108784915D01*
X156672689Y-108784337D01*
X156673100Y-108783187D01*
X156718589Y-108601231D01*
X156756474Y-108525460D01*
X156785735Y-108496198D01*
X156852469Y-108462832D01*
X156909937Y-108462832D01*
X156976671Y-108496199D01*
X157005932Y-108525459D01*
X157039299Y-108592193D01*
X157039299Y-108798420D01*
X156995785Y-108928962D01*
X156992308Y-108944254D01*
X156994520Y-108975390D01*
X157008480Y-109003309D01*
X157032062Y-109023761D01*
X157061674Y-109033632D01*
X157092810Y-109031420D01*
X157120729Y-109017460D01*
X157141181Y-108993878D01*
X157147575Y-108979558D01*
X157195194Y-108836702D01*
X157196954Y-108828959D01*
X157197762Y-108827010D01*
X157198040Y-108824183D01*
X157198671Y-108821410D01*
X157198521Y-108819301D01*
X157199299Y-108811403D01*
X157199299Y-108573308D01*
X157197762Y-108557701D01*
X157196661Y-108555044D01*
X157196458Y-108552177D01*
X157190853Y-108537531D01*
X157143234Y-108442293D01*
X157139005Y-108435575D01*
X157138197Y-108433623D01*
X157136393Y-108431425D01*
X157134880Y-108429021D01*
X157133283Y-108427636D01*
X157128248Y-108421501D01*
X157080628Y-108373882D01*
X157074494Y-108368848D01*
X157073109Y-108367251D01*
X157070701Y-108365735D01*
X157068505Y-108363933D01*
X157066553Y-108363124D01*
X157059837Y-108358897D01*
X156964599Y-108311278D01*
X156949952Y-108305673D01*
X156947085Y-108305469D01*
X156944429Y-108304369D01*
X156928822Y-108302832D01*
X156833584Y-108302832D01*
X156817977Y-108304369D01*
X156815320Y-108305469D01*
X156812453Y-108305673D01*
X156797807Y-108311278D01*
X156702569Y-108358897D01*
X156695850Y-108363126D01*
X156693900Y-108363934D01*
X156691705Y-108365735D01*
X156689297Y-108367251D01*
X156687911Y-108368848D01*
X156681777Y-108373883D01*
X156634158Y-108421501D01*
X156629121Y-108427638D01*
X156627527Y-108429021D01*
X156626014Y-108431424D01*
X156624209Y-108433624D01*
X156623399Y-108435578D01*
X156619173Y-108442293D01*
X156571554Y-108537531D01*
X156571117Y-108538672D01*
X156570773Y-108539137D01*
X156568433Y-108545685D01*
X156565949Y-108552178D01*
X156565908Y-108552754D01*
X156565497Y-108553905D01*
X156520008Y-108735861D01*
X156482122Y-108811632D01*
X156452860Y-108840893D01*
X156386128Y-108874260D01*
X156328660Y-108874260D01*
X156261926Y-108840893D01*
X156232665Y-108811631D01*
X156199299Y-108744899D01*
X156199299Y-108538672D01*
X156242813Y-108408131D01*
X156246290Y-108392839D01*
X156244077Y-108361702D01*
X156230118Y-108333783D01*
X156206536Y-108313331D01*
X156176924Y-108303461D01*
X156145788Y-108305673D01*
X156117868Y-108319632D01*
X156097417Y-108343214D01*
X156091023Y-108357534D01*
X156043404Y-108500391D01*
X156041644Y-108508130D01*
X156040836Y-108510082D01*
X156040557Y-108512910D01*
X156039927Y-108515683D01*
X156040076Y-108517791D01*
X156039299Y-108525689D01*
X155928188Y-108525689D01*
X155928188Y-107573308D01*
X156039299Y-107573308D01*
X156039299Y-107954260D01*
X156040836Y-107969867D01*
X156052781Y-107998706D01*
X156074853Y-108020778D01*
X156103692Y-108032723D01*
X156119299Y-108034260D01*
X157119299Y-108034260D01*
X157134906Y-108032723D01*
X157163745Y-108020778D01*
X157185817Y-107998706D01*
X157197762Y-107969867D01*
X157197762Y-107938653D01*
X157185817Y-107909814D01*
X157163745Y-107887742D01*
X157134906Y-107875797D01*
X157119299Y-107874260D01*
X156723108Y-107874260D01*
X156723108Y-107573308D01*
X156721571Y-107557701D01*
X156720470Y-107555044D01*
X156720267Y-107552177D01*
X156714662Y-107537531D01*
X156667043Y-107442293D01*
X156662813Y-107435574D01*
X156662006Y-107433624D01*
X156660204Y-107431429D01*
X156658689Y-107429021D01*
X156657091Y-107427635D01*
X156652057Y-107421501D01*
X156604439Y-107373882D01*
X156598301Y-107368845D01*
X156596919Y-107367251D01*
X156594515Y-107365738D01*
X156592316Y-107363933D01*
X156590361Y-107363123D01*
X156583647Y-107358897D01*
X156488409Y-107311278D01*
X156473762Y-107305673D01*
X156470895Y-107305469D01*
X156468239Y-107304369D01*
X156452632Y-107302832D01*
X156309775Y-107302832D01*
X156294168Y-107304369D01*
X156291511Y-107305469D01*
X156288644Y-107305673D01*
X156273998Y-107311278D01*
X156178760Y-107358897D01*
X156172041Y-107363126D01*
X156170091Y-107363934D01*
X156167896Y-107365735D01*
X156165488Y-107367251D01*
X156164102Y-107368848D01*
X156157968Y-107373883D01*
X156110349Y-107421501D01*
X156105312Y-107427638D01*
X156103718Y-107429021D01*
X156102205Y-107431424D01*
X156100400Y-107433624D01*
X156099590Y-107435578D01*
X156095364Y-107442293D01*
X156047745Y-107537531D01*
X156042140Y-107552178D01*
X156041936Y-107555044D01*
X156040836Y-107557701D01*
X156039299Y-107573308D01*
X155928188Y-107573308D01*
X155928188Y-106938653D01*
X156040836Y-106938653D01*
X156040836Y-106969867D01*
X156052781Y-106998706D01*
X156074853Y-107020778D01*
X156103692Y-107032723D01*
X156119299Y-107034260D01*
X157119299Y-107034260D01*
X157134906Y-107032723D01*
X157163745Y-107020778D01*
X157185817Y-106998706D01*
X157197762Y-106969867D01*
X157197762Y-106938653D01*
X157185817Y-106909814D01*
X157163745Y-106887742D01*
X157134906Y-106875797D01*
X157119299Y-106874260D01*
X156119299Y-106874260D01*
X156103692Y-106875797D01*
X156074853Y-106887742D01*
X156052781Y-106909814D01*
X156040836Y-106938653D01*
X155928188Y-106938653D01*
X155928188Y-106144737D01*
X156039299Y-106144737D01*
X156039299Y-106382832D01*
X156040836Y-106398439D01*
X156041936Y-106401095D01*
X156042140Y-106403962D01*
X156047745Y-106418609D01*
X156095364Y-106513847D01*
X156099590Y-106520561D01*
X156100400Y-106522516D01*
X156102205Y-106524715D01*
X156103718Y-106527119D01*
X156105312Y-106528501D01*
X156110349Y-106534639D01*
X156157968Y-106582257D01*
X156170091Y-106592206D01*
X156198929Y-106604152D01*
X156230144Y-106604152D01*
X156258983Y-106592206D01*
X156281054Y-106570135D01*
X156293000Y-106541296D01*
X156293000Y-106510081D01*
X156281054Y-106481243D01*
X156271105Y-106469120D01*
X156232665Y-106430679D01*
X156199299Y-106363947D01*
X156199299Y-106163622D01*
X156232665Y-106096889D01*
X156261926Y-106067627D01*
X156328660Y-106034261D01*
X156392030Y-106034261D01*
X156504656Y-106071803D01*
X157062731Y-106629877D01*
X157074853Y-106639826D01*
X157103692Y-106651771D01*
X157134906Y-106651771D01*
X157163745Y-106639826D01*
X157185817Y-106617754D01*
X157197762Y-106588915D01*
X157199299Y-106573308D01*
X157199299Y-105954261D01*
X157197762Y-105938654D01*
X157185817Y-105909815D01*
X157163745Y-105887743D01*
X157134906Y-105875798D01*
X157103692Y-105875798D01*
X157074853Y-105887743D01*
X157052781Y-105909815D01*
X157040836Y-105938654D01*
X157039299Y-105954261D01*
X157039299Y-106380170D01*
X156604438Y-105945311D01*
X156592316Y-105935362D01*
X156589658Y-105934261D01*
X156587488Y-105932379D01*
X156573168Y-105925985D01*
X156430311Y-105878366D01*
X156422571Y-105876606D01*
X156420620Y-105875798D01*
X156417791Y-105875519D01*
X156415019Y-105874889D01*
X156412910Y-105875038D01*
X156405013Y-105874261D01*
X156309775Y-105874261D01*
X156294168Y-105875798D01*
X156291511Y-105876898D01*
X156288644Y-105877102D01*
X156273998Y-105882707D01*
X156178760Y-105930326D01*
X156172041Y-105934555D01*
X156170091Y-105935363D01*
X156167896Y-105937164D01*
X156165488Y-105938680D01*
X156164102Y-105940277D01*
X156157968Y-105945312D01*
X156110349Y-105992930D01*
X156105312Y-105999067D01*
X156103718Y-106000450D01*
X156102205Y-106002853D01*
X156100400Y-106005053D01*
X156099590Y-106007007D01*
X156095364Y-106013722D01*
X156047745Y-106108960D01*
X156042140Y-106123607D01*
X156041936Y-106126473D01*
X156040836Y-106129130D01*
X156039299Y-106144737D01*
X155928188Y-106144737D01*
X155928188Y-105763150D01*
X157310410Y-105763150D01*
X157310410Y-109145371D01*
G37*
G36*
X166772157Y-82732665D02*
G01*
X166801419Y-82761926D01*
X166834786Y-82828660D01*
X166834786Y-82933747D01*
X166801419Y-83000480D01*
X166772157Y-83029741D01*
X166705425Y-83063108D01*
X166423358Y-83063108D01*
X166423358Y-82699299D01*
X166705425Y-82699299D01*
X166772157Y-82732665D01*
G37*
G36*
X167105897Y-83808873D02*
G01*
X166152247Y-83808873D01*
X166152247Y-82619299D01*
X166263358Y-82619299D01*
X166263358Y-83619299D01*
X166264895Y-83634906D01*
X166276840Y-83663745D01*
X166298912Y-83685817D01*
X166327751Y-83697762D01*
X166358965Y-83697762D01*
X166387804Y-83685817D01*
X166409876Y-83663745D01*
X166421821Y-83634906D01*
X166423358Y-83619299D01*
X166423358Y-83223108D01*
X166724310Y-83223108D01*
X166739917Y-83221571D01*
X166742573Y-83220470D01*
X166745440Y-83220267D01*
X166760087Y-83214662D01*
X166855325Y-83167043D01*
X166862039Y-83162816D01*
X166863994Y-83162007D01*
X166866193Y-83160201D01*
X166868597Y-83158689D01*
X166869979Y-83157094D01*
X166876117Y-83152058D01*
X166923735Y-83104439D01*
X166928769Y-83098304D01*
X166930367Y-83096919D01*
X166931882Y-83094510D01*
X166933684Y-83092316D01*
X166934491Y-83090365D01*
X166938721Y-83083647D01*
X166986340Y-82988409D01*
X166991945Y-82973763D01*
X166992148Y-82970895D01*
X166993249Y-82968239D01*
X166994786Y-82952632D01*
X166994786Y-82809775D01*
X166993249Y-82794168D01*
X166992148Y-82791511D01*
X166991945Y-82788644D01*
X166986340Y-82773998D01*
X166938721Y-82678760D01*
X166934491Y-82672041D01*
X166933684Y-82670091D01*
X166931882Y-82667896D01*
X166930367Y-82665488D01*
X166928769Y-82664102D01*
X166923735Y-82657968D01*
X166876117Y-82610349D01*
X166869979Y-82605312D01*
X166868597Y-82603718D01*
X166866193Y-82602205D01*
X166863994Y-82600400D01*
X166862039Y-82599590D01*
X166855325Y-82595364D01*
X166760087Y-82547745D01*
X166745440Y-82542140D01*
X166742573Y-82541936D01*
X166739917Y-82540836D01*
X166724310Y-82539299D01*
X166343358Y-82539299D01*
X166327751Y-82540836D01*
X166298912Y-82552781D01*
X166276840Y-82574853D01*
X166264895Y-82603692D01*
X166263358Y-82619299D01*
X166152247Y-82619299D01*
X166152247Y-82428188D01*
X167105897Y-82428188D01*
X167105897Y-83808873D01*
G37*
D12*
%TO.C,Rwtr1*%
X164262742Y-78727500D02*
X164737258Y-78727500D01*
X164262742Y-79772500D02*
X164737258Y-79772500D01*
%TO.C,TP20*%
X152200000Y-101000000D02*
G75*
G02*
X150800000Y-101000000I-700000J0D01*
G01*
X150800000Y-101000000D02*
G75*
G02*
X152200000Y-101000000I700000J0D01*
G01*
%TO.C,TP14*%
X110200000Y-64750000D02*
G75*
G02*
X108800000Y-64750000I-700000J0D01*
G01*
X108800000Y-64750000D02*
G75*
G02*
X110200000Y-64750000I700000J0D01*
G01*
%TO.C,Rfuel1*%
X164262742Y-83727500D02*
X164737258Y-83727500D01*
X164262742Y-84772500D02*
X164737258Y-84772500D01*
%TO.C,R11*%
X164265000Y-107772936D02*
X164265000Y-108227064D01*
X165735000Y-107772936D02*
X165735000Y-108227064D01*
%TO.C,Indics1*%
X167640000Y-68190000D02*
X167640000Y-69610000D01*
X167640000Y-69610000D02*
X172140000Y-69610000D01*
X167640000Y-74390000D02*
X172140000Y-74390000D01*
X167640000Y-75810000D02*
X167640000Y-74390000D01*
X167950000Y-72950000D02*
X168550000Y-73250000D01*
X167950000Y-73550000D02*
X167950000Y-72950000D01*
X168550000Y-73250000D02*
X167950000Y-73550000D01*
X172140000Y-69610000D02*
X172140000Y-72000000D01*
X172140000Y-74390000D02*
X172140000Y-72000000D01*
X173250000Y-70500000D02*
X173250000Y-71000000D01*
X173250000Y-71000000D02*
X178750000Y-71000000D01*
X173250000Y-73000000D02*
X173250000Y-73500000D01*
X173250000Y-73500000D02*
X178750000Y-73500000D01*
X178750000Y-70500000D02*
X173250000Y-70500000D01*
X178750000Y-71000000D02*
X178750000Y-70500000D01*
X178750000Y-73000000D02*
X173250000Y-73000000D01*
X178750000Y-73500000D02*
X178750000Y-73000000D01*
X179360000Y-68190000D02*
X167640000Y-68190000D01*
X179360000Y-72000000D02*
X179360000Y-68190000D01*
X179360000Y-72000000D02*
X179360000Y-75810000D01*
X179360000Y-75810000D02*
X167640000Y-75810000D01*
D13*
%TO.C,G\u002A\u002A\u002A*%
G36*
X120176233Y-71209312D02*
G01*
X120164679Y-71229816D01*
X120153610Y-71235401D01*
X120136121Y-71228953D01*
X120137209Y-71219001D01*
X120154457Y-71197004D01*
X120160272Y-71195938D01*
X120176233Y-71209312D01*
G37*
G36*
X108161303Y-71336078D02*
G01*
X108161899Y-71340978D01*
X108146298Y-71360883D01*
X108141398Y-71361479D01*
X108121494Y-71345878D01*
X108120898Y-71340978D01*
X108136498Y-71321074D01*
X108141398Y-71320478D01*
X108161303Y-71336078D01*
G37*
G36*
X108411672Y-71319079D02*
G01*
X108423281Y-71341187D01*
X108403548Y-71358358D01*
X108378861Y-71361479D01*
X108335875Y-71350735D01*
X108325902Y-71329302D01*
X108341426Y-71304855D01*
X108370422Y-71303677D01*
X108411672Y-71319079D01*
G37*
G36*
X120644332Y-71193580D02*
G01*
X120646644Y-71207726D01*
X120635575Y-71235007D01*
X120626144Y-71238476D01*
X120607957Y-71221872D01*
X120605644Y-71207726D01*
X120616713Y-71180444D01*
X120626144Y-71176975D01*
X120644332Y-71193580D01*
G37*
G36*
X111746160Y-70879476D02*
G01*
X111751783Y-70884083D01*
X111763261Y-70916410D01*
X111748309Y-70944986D01*
X111728969Y-70951471D01*
X111702676Y-70936537D01*
X111697114Y-70929184D01*
X111694720Y-70897919D01*
X111716409Y-70876944D01*
X111746160Y-70879476D01*
G37*
G36*
X120452412Y-71187885D02*
G01*
X120462141Y-71207726D01*
X120445279Y-71229215D01*
X120407494Y-71239152D01*
X120367985Y-71234423D01*
X120353363Y-71225367D01*
X120347520Y-71201018D01*
X120373727Y-71182560D01*
X120412100Y-71176975D01*
X120452412Y-71187885D01*
G37*
G36*
X111778858Y-70815441D02*
G01*
X111827785Y-70865025D01*
X111837232Y-70920811D01*
X111806578Y-70977919D01*
X111800324Y-70984481D01*
X111758767Y-71021315D01*
X111727285Y-71030342D01*
X111689736Y-71015279D01*
X111683094Y-71011470D01*
X111632608Y-70963556D01*
X111617920Y-70906357D01*
X111625299Y-70886335D01*
X111650471Y-70886335D01*
X111650518Y-70949795D01*
X111675655Y-70982640D01*
X111729301Y-70989062D01*
X111733953Y-70988656D01*
X111778933Y-70980258D01*
X111797287Y-70957915D01*
X111800720Y-70910470D01*
X111797547Y-70862380D01*
X111779642Y-70842658D01*
X111734430Y-70838727D01*
X111728969Y-70838718D01*
X111678811Y-70843587D01*
X111656221Y-70863369D01*
X111650471Y-70886335D01*
X111625299Y-70886335D01*
X111638700Y-70849972D01*
X111689813Y-70806981D01*
X111733402Y-70795940D01*
X111778858Y-70815441D01*
G37*
G36*
X110382237Y-70659995D02*
G01*
X110604389Y-70727780D01*
X110701283Y-70770099D01*
X110852105Y-70859718D01*
X110999905Y-70978705D01*
X111133282Y-71116290D01*
X111240830Y-71261705D01*
X111264534Y-71301948D01*
X111309592Y-71386121D01*
X111332889Y-71435947D01*
X111334888Y-71451069D01*
X111316050Y-71431130D01*
X111276835Y-71375775D01*
X111240538Y-71320478D01*
X111098149Y-71134832D01*
X110930150Y-70977803D01*
X110740961Y-70851867D01*
X110535004Y-70759501D01*
X110316698Y-70703180D01*
X110106577Y-70685321D01*
X109868049Y-70702925D01*
X109646311Y-70756109D01*
X109443828Y-70843504D01*
X109263065Y-70963741D01*
X109106488Y-71115450D01*
X108976562Y-71297262D01*
X108963193Y-71320478D01*
X108926827Y-71382459D01*
X108901194Y-71420852D01*
X108889795Y-71430709D01*
X108890637Y-71422980D01*
X108934336Y-71313250D01*
X109005471Y-71192706D01*
X109096296Y-71071592D01*
X109199066Y-70960151D01*
X109306037Y-70868626D01*
X109314308Y-70862639D01*
X109505149Y-70751038D01*
X109712473Y-70674632D01*
X109931169Y-70633762D01*
X110156127Y-70628770D01*
X110382237Y-70659995D01*
G37*
G36*
X118299348Y-69611565D02*
G01*
X118370967Y-69616458D01*
X118469406Y-69620603D01*
X118580483Y-69623500D01*
X118668356Y-69624580D01*
X118769496Y-69625872D01*
X118831402Y-69628602D01*
X118855819Y-69632950D01*
X118844496Y-69639102D01*
X118832359Y-69641724D01*
X118757491Y-69651649D01*
X118667068Y-69657054D01*
X118572851Y-69658035D01*
X118486604Y-69654685D01*
X118420089Y-69647100D01*
X118389203Y-69638162D01*
X118352068Y-69628714D01*
X118292849Y-69631421D01*
X118203633Y-69646733D01*
X118190672Y-69649410D01*
X118093485Y-69665975D01*
X117977012Y-69680340D01*
X117862965Y-69689928D01*
X117838089Y-69691245D01*
X117643335Y-69700050D01*
X117827839Y-69670398D01*
X117921788Y-69654481D01*
X118010547Y-69638039D01*
X118069959Y-69625778D01*
X118131928Y-69625778D01*
X118134742Y-69637965D01*
X118145595Y-69639445D01*
X118162469Y-69631944D01*
X118159262Y-69625778D01*
X118134933Y-69623324D01*
X118131928Y-69625778D01*
X118069959Y-69625778D01*
X118078928Y-69623927D01*
X118094344Y-69620291D01*
X118161916Y-69610831D01*
X118246671Y-69608656D01*
X118299348Y-69611565D01*
G37*
G36*
X118803907Y-70590054D02*
G01*
X118980422Y-70613933D01*
X119141332Y-70656738D01*
X119298038Y-70720747D01*
X119303868Y-70723535D01*
X119482276Y-70826113D01*
X119626326Y-70947449D01*
X119740005Y-71091782D01*
X119827299Y-71263354D01*
X119838541Y-71292170D01*
X119869175Y-71379424D01*
X119882600Y-71429977D01*
X119880274Y-71443637D01*
X119863653Y-71420209D01*
X119834195Y-71359499D01*
X119807371Y-71296324D01*
X119715717Y-71124317D01*
X119591150Y-70976024D01*
X119434852Y-70852384D01*
X119248004Y-70754336D01*
X119037363Y-70684230D01*
X118926074Y-70663590D01*
X118787970Y-70649508D01*
X118636765Y-70642358D01*
X118486175Y-70642516D01*
X118349917Y-70650356D01*
X118257805Y-70662913D01*
X118058234Y-70718573D01*
X117882423Y-70805010D01*
X117728374Y-70923903D01*
X117594086Y-71076933D01*
X117477558Y-71265776D01*
X117434425Y-71354001D01*
X117401427Y-71422552D01*
X117381451Y-71456700D01*
X117375618Y-71455636D01*
X117385048Y-71418551D01*
X117397904Y-71380354D01*
X117491332Y-71176719D01*
X117621489Y-70989548D01*
X117704213Y-70898589D01*
X117826729Y-70789350D01*
X117954573Y-70706053D01*
X118094715Y-70646243D01*
X118254124Y-70607464D01*
X118439771Y-70587260D01*
X118600389Y-70582819D01*
X118803907Y-70590054D01*
G37*
G36*
X120518054Y-71117083D02*
G01*
X120597857Y-71123091D01*
X120648634Y-71135267D01*
X120676330Y-71155380D01*
X120686888Y-71185201D01*
X120687645Y-71200111D01*
X120681344Y-71239500D01*
X120658737Y-71267327D01*
X120614267Y-71285415D01*
X120542376Y-71295582D01*
X120437508Y-71299650D01*
X120382775Y-71299977D01*
X120256213Y-71297667D01*
X120169606Y-71290756D01*
X120123303Y-71279278D01*
X120117734Y-71275377D01*
X120094553Y-71227572D01*
X120100910Y-71203771D01*
X120112367Y-71203771D01*
X120118858Y-71242946D01*
X120119978Y-71245940D01*
X120131187Y-71260487D01*
X120156168Y-71270208D01*
X120201824Y-71276008D01*
X120275059Y-71278795D01*
X120375396Y-71279477D01*
X120502838Y-71277184D01*
X120590023Y-71270319D01*
X120636733Y-71258901D01*
X120642544Y-71254877D01*
X120665971Y-71210717D01*
X120656763Y-71169276D01*
X120621019Y-71145763D01*
X120581577Y-71141477D01*
X120512307Y-71139151D01*
X120424345Y-71139023D01*
X120361818Y-71140247D01*
X120249271Y-71146030D01*
X120173137Y-71157252D01*
X120128982Y-71175853D01*
X120112367Y-71203771D01*
X120100910Y-71203771D01*
X120108504Y-71175338D01*
X120130623Y-71149402D01*
X120155405Y-71134040D01*
X120194388Y-71123943D01*
X120255234Y-71118156D01*
X120345602Y-71115727D01*
X120403279Y-71115474D01*
X120518054Y-71117083D01*
G37*
G36*
X108477705Y-71241417D02*
G01*
X108555876Y-71251825D01*
X108603845Y-71272080D01*
X108626853Y-71304562D01*
X108630139Y-71351650D01*
X108629396Y-71358931D01*
X108623158Y-71412730D01*
X108376721Y-71418448D01*
X108256412Y-71419553D01*
X108173088Y-71416186D01*
X108122950Y-71408075D01*
X108105091Y-71398973D01*
X108082176Y-71352548D01*
X108082641Y-71347018D01*
X108103108Y-71347018D01*
X108106742Y-71368942D01*
X108118150Y-71383689D01*
X108143580Y-71393468D01*
X108190037Y-71399225D01*
X108264530Y-71401908D01*
X108354799Y-71402479D01*
X108453859Y-71400765D01*
X108533335Y-71396044D01*
X108585587Y-71388948D01*
X108602657Y-71381979D01*
X108598010Y-71364429D01*
X108583367Y-71361479D01*
X108555318Y-71350775D01*
X108551406Y-71340978D01*
X108568176Y-71323193D01*
X108584667Y-71320478D01*
X108606450Y-71315291D01*
X108595356Y-71293352D01*
X108591857Y-71289065D01*
X108558254Y-71273517D01*
X108495542Y-71263883D01*
X108414550Y-71259861D01*
X108326107Y-71261151D01*
X108241040Y-71267452D01*
X108170178Y-71278464D01*
X108124349Y-71293885D01*
X108114693Y-71302316D01*
X108103108Y-71347018D01*
X108082641Y-71347018D01*
X108086564Y-71300408D01*
X108116278Y-71261584D01*
X108119550Y-71259698D01*
X108156406Y-71250608D01*
X108223188Y-71243463D01*
X108308831Y-71239225D01*
X108364091Y-71238476D01*
X108477705Y-71241417D01*
G37*
G36*
X116212280Y-70286656D02*
G01*
X116262267Y-70305123D01*
X116289506Y-70339444D01*
X116299844Y-70392385D01*
X116300559Y-70418460D01*
X116297166Y-70469320D01*
X116283304Y-70506857D01*
X116253448Y-70533471D01*
X116202075Y-70551562D01*
X116123660Y-70563530D01*
X116012678Y-70571776D01*
X115939253Y-70575435D01*
X115823798Y-70580162D01*
X115742177Y-70581758D01*
X115687308Y-70579734D01*
X115652109Y-70573599D01*
X115629500Y-70562865D01*
X115618246Y-70553235D01*
X115592936Y-70525885D01*
X115586934Y-70503806D01*
X115592223Y-70493328D01*
X115625978Y-70493328D01*
X115633080Y-70518995D01*
X115658039Y-70528054D01*
X115713357Y-70534901D01*
X115788444Y-70539381D01*
X115872710Y-70541333D01*
X115955565Y-70540601D01*
X116026418Y-70537026D01*
X116074680Y-70530450D01*
X116087361Y-70525773D01*
X116114766Y-70496312D01*
X116131501Y-70469711D01*
X116139053Y-70452287D01*
X116135646Y-70440916D01*
X116115002Y-70434604D01*
X116070844Y-70432360D01*
X115996895Y-70433189D01*
X115914191Y-70435339D01*
X115787431Y-70441632D01*
X115698868Y-70452881D01*
X115645914Y-70469856D01*
X115625978Y-70493328D01*
X115592223Y-70493328D01*
X115602047Y-70473868D01*
X115635317Y-70429194D01*
X115684881Y-70375840D01*
X115744589Y-70337652D01*
X115822743Y-70311547D01*
X115927650Y-70294446D01*
X116020662Y-70286237D01*
X116133695Y-70281282D01*
X116212280Y-70286656D01*
G37*
G36*
X114336051Y-68556515D02*
G01*
X114386082Y-68590095D01*
X114452809Y-68647528D01*
X114489630Y-68681209D01*
X114549987Y-68742812D01*
X114574687Y-68788339D01*
X114562515Y-68823958D01*
X114512256Y-68855837D01*
X114450397Y-68880443D01*
X114363188Y-68915853D01*
X114274033Y-68958414D01*
X114223166Y-68986565D01*
X114174564Y-69018931D01*
X114102614Y-69070703D01*
X114011609Y-69138484D01*
X113905842Y-69218878D01*
X113789605Y-69308487D01*
X113667192Y-69403917D01*
X113542896Y-69501770D01*
X113421010Y-69598651D01*
X113305827Y-69691162D01*
X113201640Y-69775907D01*
X113112742Y-69849490D01*
X113043426Y-69908515D01*
X112997985Y-69949584D01*
X112980712Y-69969303D01*
X112980672Y-69969552D01*
X112999481Y-69977208D01*
X113057560Y-69985582D01*
X113155296Y-69994708D01*
X113293077Y-70004620D01*
X113471290Y-70015350D01*
X113563755Y-70020401D01*
X113809760Y-70033491D01*
X113874777Y-69887643D01*
X113907117Y-69812818D01*
X113923810Y-69763836D01*
X113926725Y-69729470D01*
X113917728Y-69698490D01*
X113909225Y-69680517D01*
X113891566Y-69625700D01*
X113891522Y-69590915D01*
X113914506Y-69590915D01*
X113922189Y-69649671D01*
X113925207Y-69658863D01*
X113947911Y-69723992D01*
X113996682Y-69678174D01*
X114028326Y-69644658D01*
X114031480Y-69621363D01*
X114011556Y-69594899D01*
X113965293Y-69559008D01*
X113930909Y-69559187D01*
X113914506Y-69590915D01*
X113891522Y-69590915D01*
X113891507Y-69578765D01*
X113891715Y-69578091D01*
X113919509Y-69545029D01*
X113963444Y-69538453D01*
X114008482Y-69558220D01*
X114027680Y-69579365D01*
X114049874Y-69606598D01*
X114074294Y-69609367D01*
X114117307Y-69589742D01*
X114181332Y-69566547D01*
X114241954Y-69557569D01*
X114288356Y-69550731D01*
X114314490Y-69522371D01*
X114326571Y-69490817D01*
X114342072Y-69444986D01*
X114367837Y-69371282D01*
X114400115Y-69280361D01*
X114430882Y-69194688D01*
X114465615Y-69097842D01*
X114487296Y-69033618D01*
X114496876Y-68996101D01*
X114495308Y-68979379D01*
X114483545Y-68977537D01*
X114464841Y-68983786D01*
X114401653Y-69010510D01*
X114334788Y-69044840D01*
X114260684Y-69089346D01*
X114175775Y-69146596D01*
X114076498Y-69219159D01*
X113959289Y-69309606D01*
X113820583Y-69420504D01*
X113656817Y-69554422D01*
X113545793Y-69646273D01*
X113399821Y-69765728D01*
X113283334Y-69857293D01*
X113195994Y-69921218D01*
X113137463Y-69957750D01*
X113110159Y-69967451D01*
X113072876Y-69960876D01*
X113061495Y-69949142D01*
X113076948Y-69931415D01*
X113120547Y-69891804D01*
X113188148Y-69833697D01*
X113275610Y-69760479D01*
X113378790Y-69675539D01*
X113493547Y-69582263D01*
X113615738Y-69484037D01*
X113741220Y-69384249D01*
X113865852Y-69286286D01*
X113985492Y-69193534D01*
X113987545Y-69191955D01*
X114152278Y-69073737D01*
X114303273Y-68982357D01*
X114436970Y-68919721D01*
X114549809Y-68887734D01*
X114558176Y-68886510D01*
X114640219Y-68875505D01*
X114567244Y-69078097D01*
X114530864Y-69179441D01*
X114494243Y-69282039D01*
X114463049Y-69369987D01*
X114451192Y-69403690D01*
X114424113Y-69472110D01*
X114397125Y-69526026D01*
X114379153Y-69550488D01*
X114363175Y-69570643D01*
X114382935Y-69584478D01*
X114393153Y-69587918D01*
X114444124Y-69623047D01*
X114487608Y-69686368D01*
X114518046Y-69765119D01*
X114529882Y-69846539D01*
X114525592Y-69892066D01*
X114495768Y-69948530D01*
X114448441Y-69989366D01*
X114383771Y-70028799D01*
X114588775Y-70029457D01*
X114659731Y-70028559D01*
X114764901Y-70025705D01*
X114897558Y-70021152D01*
X115050977Y-70015155D01*
X115218431Y-70007972D01*
X115393192Y-69999859D01*
X115490793Y-69995053D01*
X115679905Y-69985379D01*
X115832426Y-69977075D01*
X115952724Y-69969697D01*
X116045168Y-69962802D01*
X116114128Y-69955947D01*
X116118777Y-69955270D01*
X116239289Y-69955270D01*
X116250818Y-69964297D01*
X116271485Y-69959394D01*
X116309251Y-69952143D01*
X116371785Y-69946765D01*
X116420113Y-69944983D01*
X116536314Y-69943015D01*
X116433812Y-69918189D01*
X116342367Y-69904347D01*
X116285184Y-69913198D01*
X116251797Y-69934687D01*
X116239289Y-69955270D01*
X116118777Y-69955270D01*
X116163971Y-69948689D01*
X116199069Y-69940586D01*
X116223788Y-69931193D01*
X116242499Y-69920068D01*
X116244533Y-69918606D01*
X116279914Y-69887869D01*
X116282141Y-69868465D01*
X116272906Y-69861354D01*
X116242073Y-69826927D01*
X116209447Y-69763045D01*
X116179110Y-69680833D01*
X116155143Y-69591414D01*
X116141626Y-69505913D01*
X116141367Y-69502807D01*
X116143219Y-69450423D01*
X116165980Y-69450423D01*
X116170925Y-69541839D01*
X116195188Y-69651190D01*
X116210859Y-69703660D01*
X116246267Y-69788440D01*
X116294116Y-69842327D01*
X116364644Y-69875371D01*
X116393838Y-69883223D01*
X116474142Y-69898395D01*
X116525989Y-69894882D01*
X116559014Y-69869165D01*
X116582853Y-69817727D01*
X116584218Y-69813698D01*
X116600852Y-69716808D01*
X116597601Y-69599377D01*
X116577097Y-69475133D01*
X116541967Y-69357802D01*
X116494841Y-69261111D01*
X116472484Y-69230409D01*
X116410757Y-69180572D01*
X116346111Y-69168451D01*
X116283887Y-69191603D01*
X116229424Y-69247584D01*
X116188063Y-69333950D01*
X116179205Y-69364636D01*
X116165980Y-69450423D01*
X116143219Y-69450423D01*
X116145707Y-69380017D01*
X116177592Y-69274889D01*
X116234152Y-69194016D01*
X116294277Y-69151664D01*
X116345016Y-69131124D01*
X116381211Y-69131069D01*
X116419357Y-69148631D01*
X116500772Y-69217675D01*
X116561109Y-69320940D01*
X116599895Y-69457202D01*
X116616661Y-69625237D01*
X116617332Y-69662862D01*
X116616253Y-69754335D01*
X116610634Y-69814943D01*
X116598737Y-69854727D01*
X116579148Y-69883367D01*
X116552320Y-69917572D01*
X116554739Y-69933923D01*
X116590528Y-69936062D01*
X116633690Y-69931548D01*
X116687716Y-69917864D01*
X116710360Y-69896297D01*
X116710567Y-69893848D01*
X116727937Y-69867796D01*
X116756693Y-69854824D01*
X116840438Y-69836235D01*
X116947125Y-69814324D01*
X117067187Y-69790864D01*
X117191055Y-69767628D01*
X117309162Y-69746389D01*
X117411940Y-69728921D01*
X117489821Y-69716999D01*
X117520333Y-69713272D01*
X117549886Y-69711997D01*
X117541574Y-69717301D01*
X117497881Y-69728471D01*
X117421287Y-69744793D01*
X117387080Y-69751607D01*
X117203173Y-69787855D01*
X117055795Y-69817346D01*
X116941208Y-69841029D01*
X116855671Y-69859856D01*
X116795445Y-69874774D01*
X116756789Y-69886733D01*
X116735963Y-69896682D01*
X116729228Y-69905571D01*
X116732843Y-69914349D01*
X116735333Y-69917049D01*
X116757616Y-69918103D01*
X116815721Y-69916126D01*
X116904610Y-69911492D01*
X117019246Y-69904574D01*
X117154591Y-69895745D01*
X117305608Y-69885379D01*
X117467259Y-69873848D01*
X117634506Y-69861526D01*
X117802313Y-69848785D01*
X117965641Y-69836000D01*
X118119453Y-69823543D01*
X118258712Y-69811788D01*
X118378379Y-69801107D01*
X118473419Y-69791873D01*
X118538792Y-69784461D01*
X118554001Y-69782325D01*
X118692760Y-69759012D01*
X118798598Y-69737074D01*
X118869125Y-69717107D01*
X118901955Y-69699710D01*
X118904110Y-69694697D01*
X118923601Y-69687377D01*
X118978279Y-69683006D01*
X119062453Y-69681365D01*
X119170433Y-69682232D01*
X119296528Y-69685387D01*
X119435047Y-69690610D01*
X119580299Y-69697679D01*
X119726595Y-69706375D01*
X119868242Y-69716476D01*
X119999550Y-69727762D01*
X120114828Y-69740011D01*
X120134134Y-69742390D01*
X120268440Y-69757209D01*
X120429262Y-69771556D01*
X120602123Y-69784341D01*
X120772543Y-69794472D01*
X120897725Y-69799943D01*
X121041675Y-69805252D01*
X121150313Y-69810251D01*
X121229318Y-69815618D01*
X121284368Y-69822027D01*
X121321141Y-69830154D01*
X121345315Y-69840672D01*
X121362567Y-69854259D01*
X121363671Y-69855350D01*
X121386897Y-69892343D01*
X121412271Y-69953708D01*
X121436755Y-70028441D01*
X121457310Y-70105539D01*
X121470898Y-70173997D01*
X121474478Y-70222812D01*
X121469662Y-70239155D01*
X121464800Y-70268409D01*
X121474831Y-70321001D01*
X121481747Y-70342850D01*
X121499323Y-70436207D01*
X121499394Y-70561786D01*
X121482043Y-70714774D01*
X121474535Y-70759304D01*
X121470843Y-70794901D01*
X121480086Y-70821239D01*
X121509536Y-70847144D01*
X121566464Y-70881439D01*
X121582732Y-70890613D01*
X121668168Y-70940086D01*
X121723541Y-70978243D01*
X121755229Y-71012559D01*
X121769612Y-71050507D01*
X121773069Y-71099561D01*
X121772985Y-71113526D01*
X121768178Y-71193956D01*
X121757765Y-71274287D01*
X121754842Y-71289727D01*
X121746803Y-71322872D01*
X121741469Y-71326952D01*
X121738153Y-71298506D01*
X121736165Y-71234071D01*
X121735523Y-71192696D01*
X121733166Y-71013663D01*
X121625539Y-70959437D01*
X121556296Y-70922772D01*
X121494455Y-70887048D01*
X121466661Y-70869121D01*
X121431196Y-70849341D01*
X121391041Y-70842422D01*
X121332046Y-70847060D01*
X121292407Y-70853086D01*
X121140627Y-70866985D01*
X120995590Y-70860006D01*
X120865271Y-70833727D01*
X120757647Y-70789727D01*
X120683302Y-70732522D01*
X120620389Y-70635821D01*
X120590002Y-70527445D01*
X120590074Y-70520593D01*
X120671442Y-70520593D01*
X120685862Y-70587309D01*
X120735738Y-70678177D01*
X120817418Y-70743777D01*
X120907435Y-70778853D01*
X120988917Y-70794368D01*
X121085721Y-70803411D01*
X121184864Y-70805795D01*
X121273361Y-70801335D01*
X121338228Y-70789843D01*
X121350683Y-70785207D01*
X121398210Y-70750006D01*
X121428285Y-70692197D01*
X121443191Y-70605545D01*
X121445823Y-70525123D01*
X121432701Y-70395675D01*
X121394789Y-70295018D01*
X121333210Y-70225394D01*
X121281584Y-70198040D01*
X121213215Y-70184966D01*
X121119228Y-70182096D01*
X121013569Y-70188889D01*
X120910188Y-70204804D01*
X120871172Y-70213980D01*
X120781615Y-70257192D01*
X120715752Y-70328184D01*
X120677666Y-70418727D01*
X120671442Y-70520593D01*
X120590074Y-70520593D01*
X120591163Y-70416243D01*
X120622897Y-70311069D01*
X120684230Y-70220772D01*
X120745254Y-70170517D01*
X120789431Y-70141438D01*
X120810587Y-70121191D01*
X120804989Y-70106682D01*
X120768902Y-70094818D01*
X120698592Y-70082506D01*
X120626144Y-70071838D01*
X120336469Y-70033387D01*
X120051630Y-70003006D01*
X119766660Y-69980662D01*
X119476594Y-69966321D01*
X119176465Y-69959951D01*
X118861307Y-69961516D01*
X118526154Y-69970985D01*
X118166039Y-69988322D01*
X117775996Y-70013495D01*
X117351059Y-70046470D01*
X117315329Y-70049450D01*
X117110959Y-70065405D01*
X116877801Y-70081573D01*
X116621942Y-70097671D01*
X116349473Y-70113416D01*
X116066483Y-70128525D01*
X115779059Y-70142714D01*
X115493292Y-70155700D01*
X115215271Y-70167199D01*
X114951083Y-70176928D01*
X114706818Y-70184604D01*
X114488566Y-70189943D01*
X114302415Y-70192662D01*
X114231766Y-70192956D01*
X114078263Y-70191926D01*
X113893891Y-70189009D01*
X113688725Y-70184466D01*
X113472841Y-70178558D01*
X113256314Y-70171546D01*
X113049219Y-70163690D01*
X112969959Y-70160311D01*
X112750579Y-70151972D01*
X112511692Y-70145318D01*
X112258132Y-70140318D01*
X111994733Y-70136941D01*
X111726330Y-70135155D01*
X111457758Y-70134930D01*
X111193851Y-70136234D01*
X110939443Y-70139036D01*
X110699370Y-70143305D01*
X110478465Y-70149010D01*
X110281564Y-70156119D01*
X110113500Y-70164601D01*
X109979108Y-70174426D01*
X109924933Y-70179961D01*
X109625719Y-70220654D01*
X109326651Y-70272285D01*
X109037949Y-70332717D01*
X108769831Y-70399814D01*
X108534499Y-70470774D01*
X108521828Y-70485426D01*
X108537208Y-70517039D01*
X108549875Y-70533921D01*
X108585033Y-70609318D01*
X108591608Y-70700028D01*
X108572314Y-70794877D01*
X108529866Y-70882691D01*
X108466977Y-70952299D01*
X108444417Y-70968030D01*
X108379266Y-71000517D01*
X108303779Y-71028435D01*
X108288816Y-71032713D01*
X108195976Y-71052457D01*
X108073485Y-71071412D01*
X107932692Y-71088383D01*
X107784945Y-71102175D01*
X107641592Y-71111593D01*
X107513983Y-71115441D01*
X107502796Y-71115474D01*
X107282894Y-71115474D01*
X107271462Y-71202601D01*
X107262532Y-71278202D01*
X107255376Y-71351297D01*
X107254558Y-71361479D01*
X107250864Y-71401656D01*
X107246812Y-71408319D01*
X107240115Y-71378867D01*
X107232872Y-71336822D01*
X107226931Y-71201818D01*
X107254509Y-71078910D01*
X107282477Y-71021448D01*
X107355773Y-70926270D01*
X107359141Y-70923056D01*
X107649365Y-70923056D01*
X107662870Y-70971731D01*
X107685264Y-70992305D01*
X107726851Y-71003528D01*
X107799161Y-71008905D01*
X107892416Y-71008963D01*
X107996837Y-71004227D01*
X108102646Y-70995226D01*
X108200063Y-70982483D01*
X108279309Y-70966526D01*
X108304919Y-70958960D01*
X108406258Y-70907897D01*
X108474407Y-70836383D01*
X108507104Y-70747192D01*
X108509754Y-70707559D01*
X108493154Y-70622900D01*
X108445515Y-70564436D01*
X108367490Y-70532351D01*
X108259730Y-70526827D01*
X108122890Y-70548048D01*
X108029161Y-70573071D01*
X107932577Y-70611997D01*
X107843554Y-70665699D01*
X107766406Y-70728917D01*
X107705448Y-70796389D01*
X107664996Y-70862855D01*
X107649365Y-70923056D01*
X107359141Y-70923056D01*
X107462898Y-70824030D01*
X107598103Y-70718364D01*
X107755637Y-70612909D01*
X107929749Y-70511301D01*
X108114689Y-70417178D01*
X108304706Y-70334174D01*
X108459213Y-70277316D01*
X108561420Y-70244784D01*
X108693794Y-70205156D01*
X108846683Y-70161101D01*
X109010433Y-70115288D01*
X109175392Y-70070387D01*
X109331907Y-70029068D01*
X109470324Y-69993999D01*
X109566176Y-69971183D01*
X109828360Y-69921205D01*
X110119951Y-69882888D01*
X110430762Y-69857231D01*
X110750608Y-69845238D01*
X110855005Y-69844449D01*
X110977264Y-69842862D01*
X111123774Y-69838514D01*
X111277923Y-69832029D01*
X111423100Y-69824028D01*
X111453385Y-69822045D01*
X111616668Y-69812882D01*
X111740121Y-69810275D01*
X111824387Y-69814220D01*
X111857406Y-69820003D01*
X111882491Y-69825578D01*
X111908270Y-69826318D01*
X111939824Y-69820137D01*
X111982236Y-69804950D01*
X112040590Y-69778670D01*
X112119967Y-69739213D01*
X112225451Y-69684494D01*
X112357946Y-69614637D01*
X112840159Y-69352832D01*
X113308028Y-69085441D01*
X113748808Y-68819752D01*
X113753889Y-68816599D01*
X113851760Y-68756402D01*
X113937661Y-68704631D01*
X114005514Y-68664865D01*
X114049239Y-68640683D01*
X114062499Y-68634925D01*
X114089201Y-68649764D01*
X114128195Y-68686105D01*
X114168516Y-68731684D01*
X114199198Y-68774239D01*
X114209518Y-68799341D01*
X114201023Y-68808757D01*
X114177716Y-68783148D01*
X114147853Y-68744253D01*
X114118758Y-68720482D01*
X114084357Y-68712989D01*
X114038576Y-68722929D01*
X113975343Y-68751456D01*
X113888584Y-68799724D01*
X113793387Y-68856187D01*
X113568614Y-68988445D01*
X113316936Y-69132122D01*
X113048694Y-69281490D01*
X112774228Y-69430822D01*
X112503878Y-69574391D01*
X112383745Y-69636922D01*
X112267244Y-69698257D01*
X112167719Y-69752848D01*
X112089643Y-69798064D01*
X112037493Y-69831278D01*
X112015743Y-69849859D01*
X112016587Y-69852616D01*
X112052905Y-69860746D01*
X112120734Y-69872272D01*
X112210854Y-69885909D01*
X112314044Y-69900372D01*
X112421083Y-69914373D01*
X112522749Y-69926628D01*
X112609823Y-69935850D01*
X112620736Y-69936864D01*
X112764239Y-69949882D01*
X113092649Y-69687036D01*
X113223449Y-69583883D01*
X113373417Y-69468095D01*
X113528621Y-69350276D01*
X113675133Y-69241033D01*
X113758912Y-69179787D01*
X113902338Y-69075236D01*
X114015061Y-68991027D01*
X114100278Y-68924436D01*
X114161183Y-68872740D01*
X114200973Y-68833215D01*
X114222842Y-68803137D01*
X114229987Y-68779783D01*
X114230018Y-68778242D01*
X114216080Y-68743935D01*
X114181351Y-68699202D01*
X114168517Y-68686176D01*
X114130185Y-68646406D01*
X114108693Y-68618197D01*
X114107016Y-68613374D01*
X114124401Y-68598674D01*
X114168671Y-68576760D01*
X114199906Y-68564019D01*
X114251586Y-68546965D01*
X114294094Y-68543301D01*
X114336051Y-68556515D01*
G37*
D12*
%TO.C,Rbtn2*%
X164727500Y-93512742D02*
X164727500Y-93987258D01*
X165772500Y-93512742D02*
X165772500Y-93987258D01*
%TO.C,Rusb2*%
X96727500Y-57762742D02*
X96727500Y-58237258D01*
X97772500Y-57762742D02*
X97772500Y-58237258D01*
%TO.C,TP39*%
X112450000Y-90250000D02*
G75*
G02*
X111050000Y-90250000I-700000J0D01*
G01*
X111050000Y-90250000D02*
G75*
G02*
X112450000Y-90250000I700000J0D01*
G01*
%TO.C,Cf10*%
X124261252Y-84265000D02*
X123738748Y-84265000D01*
X124261252Y-85735000D02*
X123738748Y-85735000D01*
%TO.C,TP30*%
X155950000Y-73250000D02*
G75*
G02*
X154550000Y-73250000I-700000J0D01*
G01*
X154550000Y-73250000D02*
G75*
G02*
X155950000Y-73250000I700000J0D01*
G01*
%TO.C,TP4*%
X106450000Y-88250000D02*
G75*
G02*
X105050000Y-88250000I-700000J0D01*
G01*
X105050000Y-88250000D02*
G75*
G02*
X106450000Y-88250000I700000J0D01*
G01*
%TO.C,R6*%
X161227064Y-72515000D02*
X160772936Y-72515000D01*
X161227064Y-73985000D02*
X160772936Y-73985000D01*
%TO.C,Cesp2*%
X147238748Y-66765000D02*
X147761252Y-66765000D01*
X147238748Y-68235000D02*
X147761252Y-68235000D01*
%TO.C,Cout1.1*%
X90265000Y-73261252D02*
X90265000Y-72738748D01*
X91735000Y-73261252D02*
X91735000Y-72738748D01*
%TO.C,Cin2*%
X100788748Y-76265000D02*
X101311252Y-76265000D01*
X100788748Y-77735000D02*
X101311252Y-77735000D01*
%TO.C,TP36*%
X152950000Y-87500000D02*
G75*
G02*
X151550000Y-87500000I-700000J0D01*
G01*
X151550000Y-87500000D02*
G75*
G02*
X152950000Y-87500000I700000J0D01*
G01*
%TO.C,SPI1*%
X85440000Y-102590000D02*
X86860000Y-102590000D01*
X85440000Y-114310000D02*
X85440000Y-102590000D01*
X86860000Y-102590000D02*
X86860000Y-107090000D01*
X86860000Y-107090000D02*
X96750000Y-107090000D01*
X87700000Y-102900000D02*
X88300000Y-102900000D01*
X87750000Y-108200000D02*
X87750000Y-113700000D01*
X87750000Y-113700000D02*
X88250000Y-113700000D01*
X88000000Y-103500000D02*
X87700000Y-102900000D01*
X88250000Y-108200000D02*
X87750000Y-108200000D01*
X88250000Y-113700000D02*
X88250000Y-108200000D01*
X88300000Y-102900000D02*
X88000000Y-103500000D01*
X90250000Y-108200000D02*
X90250000Y-113700000D01*
X90250000Y-113700000D02*
X90750000Y-113700000D01*
X90750000Y-108200000D02*
X90250000Y-108200000D01*
X90750000Y-113700000D02*
X90750000Y-108200000D01*
X92750000Y-108200000D02*
X92750000Y-113700000D01*
X92750000Y-113700000D02*
X93250000Y-113700000D01*
X93250000Y-108200000D02*
X92750000Y-108200000D01*
X93250000Y-113700000D02*
X93250000Y-108200000D01*
X95250000Y-108200000D02*
X95250000Y-113700000D01*
X95250000Y-113700000D02*
X95750000Y-113700000D01*
X95750000Y-108200000D02*
X95250000Y-108200000D01*
X95750000Y-113700000D02*
X95750000Y-108200000D01*
X96750000Y-114310000D02*
X85440000Y-114310000D01*
X96750000Y-114310000D02*
X108060000Y-114310000D01*
X97750000Y-108200000D02*
X97750000Y-113700000D01*
X97750000Y-113700000D02*
X98250000Y-113700000D01*
X98250000Y-108200000D02*
X97750000Y-108200000D01*
X98250000Y-113700000D02*
X98250000Y-108200000D01*
X100250000Y-108200000D02*
X100250000Y-113700000D01*
X100250000Y-113700000D02*
X100750000Y-113700000D01*
X100750000Y-108200000D02*
X100250000Y-108200000D01*
X100750000Y-113700000D02*
X100750000Y-108200000D01*
X102750000Y-108200000D02*
X102750000Y-113700000D01*
X102750000Y-113700000D02*
X103250000Y-113700000D01*
X103250000Y-108200000D02*
X102750000Y-108200000D01*
X103250000Y-113700000D02*
X103250000Y-108200000D01*
X105250000Y-108200000D02*
X105250000Y-113700000D01*
X105250000Y-113700000D02*
X105750000Y-113700000D01*
X105750000Y-108200000D02*
X105250000Y-108200000D01*
X105750000Y-113700000D02*
X105750000Y-108200000D01*
X106640000Y-102590000D02*
X106640000Y-107090000D01*
X106640000Y-107090000D02*
X96750000Y-107090000D01*
X108060000Y-102590000D02*
X106640000Y-102590000D01*
X108060000Y-114310000D02*
X108060000Y-102590000D01*
%TO.C,Cf6*%
X121765000Y-91738748D02*
X121765000Y-92261252D01*
X123235000Y-91738748D02*
X123235000Y-92261252D01*
%TO.C,Cf13*%
X123738748Y-75265000D02*
X124261252Y-75265000D01*
X123738748Y-76735000D02*
X124261252Y-76735000D01*
%TO.C,TP11*%
X162700000Y-67500000D02*
G75*
G02*
X161300000Y-67500000I-700000J0D01*
G01*
X161300000Y-67500000D02*
G75*
G02*
X162700000Y-67500000I700000J0D01*
G01*
%TO.C,R12*%
X161265000Y-91777064D02*
X161265000Y-91322936D01*
X162735000Y-91777064D02*
X162735000Y-91322936D01*
%TO.C,D4*%
X158040000Y-107000000D02*
X158040000Y-109685000D01*
X158040000Y-109685000D02*
X159960000Y-109685000D01*
X159960000Y-109685000D02*
X159960000Y-107000000D01*
%TO.C,R8*%
X163815000Y-69185436D02*
X163815000Y-69639564D01*
X165285000Y-69185436D02*
X165285000Y-69639564D01*
%TO.C,Rfbt1*%
X102977500Y-89262742D02*
X102977500Y-89737258D01*
X104022500Y-89262742D02*
X104022500Y-89737258D01*
%TO.C,Rusb1*%
X102727500Y-57762742D02*
X102727500Y-58237258D01*
X103772500Y-57762742D02*
X103772500Y-58237258D01*
%TO.C,Cin2.1*%
X100738748Y-78765000D02*
X101261252Y-78765000D01*
X100738748Y-80235000D02*
X101261252Y-80235000D01*
D14*
%TO.C,ESP_RST1*%
X139873000Y-64623000D02*
X139873000Y-64817260D01*
X139873000Y-67182740D02*
X139873000Y-67377000D01*
X139873000Y-67377000D02*
X143127000Y-67377000D01*
X143127000Y-64623000D02*
X139873000Y-64623000D01*
X143127000Y-64817260D02*
X143127000Y-64623000D01*
X143127000Y-67377000D02*
X143127000Y-67182740D01*
D12*
%TO.C,TP16*%
X143200000Y-100500000D02*
G75*
G02*
X141800000Y-100500000I-700000J0D01*
G01*
X141800000Y-100500000D02*
G75*
G02*
X143200000Y-100500000I700000J0D01*
G01*
%TO.C,Rbtn1*%
X169727500Y-93987258D02*
X169727500Y-93512742D01*
X170772500Y-93987258D02*
X170772500Y-93512742D01*
%TO.C,D1*%
X113350000Y-100760000D02*
X113350000Y-95250000D01*
X113350000Y-100760000D02*
X116650000Y-100760000D01*
X116650000Y-100760000D02*
X116650000Y-95250000D01*
%TO.C,D8*%
X156540000Y-72565000D02*
X156540000Y-75250000D01*
X158460000Y-72565000D02*
X156540000Y-72565000D01*
X158460000Y-75250000D02*
X158460000Y-72565000D01*
D11*
%TO.C,5V1*%
X91560000Y-94225000D02*
X91560000Y-98375000D01*
X96710000Y-94225000D02*
X96710000Y-98375000D01*
D12*
X96965000Y-94040000D02*
X96635000Y-93800000D01*
X96965000Y-93560000D01*
X96965000Y-94040000D01*
G36*
X96965000Y-94040000D02*
G01*
X96635000Y-93800000D01*
X96965000Y-93560000D01*
X96965000Y-94040000D01*
G37*
%TO.C,TEMP_S2*%
X135490000Y-69562500D02*
X135490000Y-68912500D01*
X135490000Y-69562500D02*
X135490000Y-70212500D01*
X138610000Y-69562500D02*
X138610000Y-68912500D01*
X138610000Y-69562500D02*
X138610000Y-70212500D01*
X135540000Y-70725000D02*
X135210000Y-70965000D01*
X135210000Y-70485000D01*
X135540000Y-70725000D01*
G36*
X135540000Y-70725000D02*
G01*
X135210000Y-70965000D01*
X135210000Y-70485000D01*
X135540000Y-70725000D01*
G37*
%TO.C,Qfan1*%
X163062500Y-52140000D02*
X162412500Y-52140000D01*
X163062500Y-52140000D02*
X163712500Y-52140000D01*
X163062500Y-55260000D02*
X162412500Y-55260000D01*
X163062500Y-55260000D02*
X163712500Y-55260000D01*
X161900000Y-52190000D02*
X161660000Y-51860000D01*
X162140000Y-51860000D01*
X161900000Y-52190000D01*
G36*
X161900000Y-52190000D02*
G01*
X161660000Y-51860000D01*
X162140000Y-51860000D01*
X161900000Y-52190000D01*
G37*
%TO.C,R13*%
X166515000Y-103227064D02*
X166515000Y-102772936D01*
X167985000Y-103227064D02*
X167985000Y-102772936D01*
%TO.C,JP1*%
X106000000Y-56100000D02*
X108000000Y-56100000D01*
X106000000Y-58900000D02*
X106000000Y-56100000D01*
X108000000Y-56100000D02*
X108000000Y-58900000D01*
X108000000Y-58900000D02*
X106000000Y-58900000D01*
%TO.C,TP38*%
X164700000Y-50000000D02*
G75*
G02*
X163300000Y-50000000I-700000J0D01*
G01*
X163300000Y-50000000D02*
G75*
G02*
X164700000Y-50000000I700000J0D01*
G01*
%TO.C,Cin1*%
X87761252Y-95765000D02*
X87238748Y-95765000D01*
X87761252Y-97235000D02*
X87238748Y-97235000D01*
D15*
%TO.C,SD1*%
X117075000Y-48230000D02*
X117075000Y-45250000D01*
X117075000Y-58130000D02*
X117075000Y-51070000D01*
X118770000Y-59750000D02*
X121580000Y-59750000D01*
X131925000Y-45250000D02*
X117075000Y-45250000D01*
X131925000Y-48230000D02*
X131925000Y-45250000D01*
X131925000Y-57730000D02*
X131925000Y-51070000D01*
D16*
X122350000Y-61600000D02*
G75*
G02*
X122150000Y-61600000I-100000J0D01*
G01*
X122150000Y-61600000D02*
G75*
G02*
X122350000Y-61600000I100000J0D01*
G01*
D12*
%TO.C,R5*%
X173477064Y-101265000D02*
X173022936Y-101265000D01*
X173477064Y-102735000D02*
X173022936Y-102735000D01*
%TO.C,TP5*%
X89450000Y-77250000D02*
G75*
G02*
X88050000Y-77250000I-700000J0D01*
G01*
X88050000Y-77250000D02*
G75*
G02*
X89450000Y-77250000I700000J0D01*
G01*
%TO.C,TP31*%
X154762500Y-70437500D02*
G75*
G02*
X153362500Y-70437500I-700000J0D01*
G01*
X153362500Y-70437500D02*
G75*
G02*
X154762500Y-70437500I700000J0D01*
G01*
%TO.C,RPM1*%
X176420000Y-100670000D02*
X177750000Y-100670000D01*
X176420000Y-102000000D02*
X176420000Y-100670000D01*
X176420000Y-103270000D02*
X176420000Y-103330000D01*
X176420000Y-103270000D02*
X179080000Y-103270000D01*
X176420000Y-103330000D02*
X179080000Y-103330000D01*
X179080000Y-103270000D02*
X179080000Y-103330000D01*
%TO.C,Cout1*%
X93265000Y-73261252D02*
X93265000Y-72738748D01*
X94735000Y-73261252D02*
X94735000Y-72738748D01*
%TO.C,D2*%
X158065000Y-103290000D02*
X158065000Y-105210000D01*
X158065000Y-105210000D02*
X160750000Y-105210000D01*
X160750000Y-103290000D02*
X158065000Y-103290000D01*
%TO.C,TP13*%
X110200000Y-60250000D02*
G75*
G02*
X108800000Y-60250000I-700000J0D01*
G01*
X108800000Y-60250000D02*
G75*
G02*
X110200000Y-60250000I700000J0D01*
G01*
%TO.C,R9*%
X163865000Y-74185436D02*
X163865000Y-74639564D01*
X165335000Y-74185436D02*
X165335000Y-74639564D01*
%TO.C,Cesp1*%
X147238748Y-69765000D02*
X147761252Y-69765000D01*
X147238748Y-71235000D02*
X147761252Y-71235000D01*
%TO.C,Cf3*%
X159015000Y-91288748D02*
X159015000Y-91811252D01*
X160485000Y-91288748D02*
X160485000Y-91811252D01*
%TO.C,TP24*%
X129450000Y-63500000D02*
G75*
G02*
X128050000Y-63500000I-700000J0D01*
G01*
X128050000Y-63500000D02*
G75*
G02*
X129450000Y-63500000I700000J0D01*
G01*
%TO.C,F1*%
X86397936Y-92840000D02*
X87602064Y-92840000D01*
X86397936Y-94660000D02*
X87602064Y-94660000D01*
D14*
%TO.C,ESP_BOOT1*%
X122873000Y-94623000D02*
X122873000Y-94817260D01*
X122873000Y-97182740D02*
X122873000Y-97377000D01*
X122873000Y-97377000D02*
X126127000Y-97377000D01*
X126127000Y-94623000D02*
X122873000Y-94623000D01*
X126127000Y-94817260D02*
X126127000Y-94623000D01*
X126127000Y-97377000D02*
X126127000Y-97182740D01*
D12*
%TO.C,Cshld1*%
X136265000Y-58238748D02*
X136265000Y-58761252D01*
X137735000Y-58238748D02*
X137735000Y-58761252D01*
%TO.C,TP7*%
X170700000Y-88750000D02*
G75*
G02*
X169300000Y-88750000I-700000J0D01*
G01*
X169300000Y-88750000D02*
G75*
G02*
X170700000Y-88750000I700000J0D01*
G01*
%TO.C,Cout2.1*%
X102238748Y-84765000D02*
X102761252Y-84765000D01*
X102238748Y-86235000D02*
X102761252Y-86235000D01*
%TO.C,Cboot1*%
X97261252Y-88265000D02*
X96738748Y-88265000D01*
X97261252Y-89735000D02*
X96738748Y-89735000D01*
%TO.C,Cin1.1*%
X87238748Y-98265000D02*
X87761252Y-98265000D01*
X87238748Y-99735000D02*
X87761252Y-99735000D01*
%TO.C,Cf12*%
X124261252Y-87265000D02*
X123738748Y-87265000D01*
X124261252Y-88735000D02*
X123738748Y-88735000D01*
%TO.C,Cf5*%
X124265000Y-92261252D02*
X124265000Y-91738748D01*
X125735000Y-92261252D02*
X125735000Y-91738748D01*
%TO.C,TP27*%
X136450000Y-64750000D02*
G75*
G02*
X135050000Y-64750000I-700000J0D01*
G01*
X135050000Y-64750000D02*
G75*
G02*
X136450000Y-64750000I700000J0D01*
G01*
%TO.C,TP32*%
X159512500Y-99812500D02*
G75*
G02*
X158112500Y-99812500I-700000J0D01*
G01*
X158112500Y-99812500D02*
G75*
G02*
X159512500Y-99812500I700000J0D01*
G01*
%TO.C,TEMP_S1*%
X167640000Y-57190000D02*
X167640000Y-58610000D01*
X167640000Y-58610000D02*
X172140000Y-58610000D01*
X167640000Y-65890000D02*
X172140000Y-65890000D01*
X167640000Y-67310000D02*
X167640000Y-65890000D01*
X167950000Y-64450000D02*
X168550000Y-64750000D01*
X167950000Y-65050000D02*
X167950000Y-64450000D01*
X168550000Y-64750000D02*
X167950000Y-65050000D01*
X172140000Y-58610000D02*
X172140000Y-62250000D01*
X172140000Y-65890000D02*
X172140000Y-62250000D01*
X173250000Y-59500000D02*
X173250000Y-60000000D01*
X173250000Y-60000000D02*
X178750000Y-60000000D01*
X173250000Y-62000000D02*
X173250000Y-62500000D01*
X173250000Y-62500000D02*
X178750000Y-62500000D01*
X173250000Y-64500000D02*
X173250000Y-65000000D01*
X173250000Y-65000000D02*
X178750000Y-65000000D01*
X178750000Y-59500000D02*
X173250000Y-59500000D01*
X178750000Y-60000000D02*
X178750000Y-59500000D01*
X178750000Y-62000000D02*
X173250000Y-62000000D01*
X178750000Y-62500000D02*
X178750000Y-62000000D01*
X178750000Y-64500000D02*
X173250000Y-64500000D01*
X178750000Y-65000000D02*
X178750000Y-64500000D01*
X179360000Y-57190000D02*
X167640000Y-57190000D01*
X179360000Y-62250000D02*
X179360000Y-57190000D01*
X179360000Y-62250000D02*
X179360000Y-67310000D01*
X179360000Y-67310000D02*
X167640000Y-67310000D01*
%TO.C,TP19*%
X148950000Y-99500000D02*
G75*
G02*
X147550000Y-99500000I-700000J0D01*
G01*
X147550000Y-99500000D02*
G75*
G02*
X148950000Y-99500000I700000J0D01*
G01*
%TO.C,D7*%
X156540000Y-68500000D02*
X156540000Y-71185000D01*
X156540000Y-71185000D02*
X158460000Y-71185000D01*
X158460000Y-71185000D02*
X158460000Y-68500000D01*
%TO.C,SPI3*%
X132440000Y-102590000D02*
X133860000Y-102590000D01*
X132440000Y-114310000D02*
X132440000Y-102590000D01*
X133860000Y-102590000D02*
X133860000Y-107090000D01*
X133860000Y-107090000D02*
X143750000Y-107090000D01*
X134700000Y-102900000D02*
X135300000Y-102900000D01*
X134750000Y-108200000D02*
X134750000Y-113700000D01*
X134750000Y-113700000D02*
X135250000Y-113700000D01*
X135000000Y-103500000D02*
X134700000Y-102900000D01*
X135250000Y-108200000D02*
X134750000Y-108200000D01*
X135250000Y-113700000D02*
X135250000Y-108200000D01*
X135300000Y-102900000D02*
X135000000Y-103500000D01*
X137250000Y-108200000D02*
X137250000Y-113700000D01*
X137250000Y-113700000D02*
X137750000Y-113700000D01*
X137750000Y-108200000D02*
X137250000Y-108200000D01*
X137750000Y-113700000D02*
X137750000Y-108200000D01*
X139750000Y-108200000D02*
X139750000Y-113700000D01*
X139750000Y-113700000D02*
X140250000Y-113700000D01*
X140250000Y-108200000D02*
X139750000Y-108200000D01*
X140250000Y-113700000D02*
X140250000Y-108200000D01*
X142250000Y-108200000D02*
X142250000Y-113700000D01*
X142250000Y-113700000D02*
X142750000Y-113700000D01*
X142750000Y-108200000D02*
X142250000Y-108200000D01*
X142750000Y-113700000D02*
X142750000Y-108200000D01*
X143750000Y-114310000D02*
X132440000Y-114310000D01*
X143750000Y-114310000D02*
X155060000Y-114310000D01*
X144750000Y-108200000D02*
X144750000Y-113700000D01*
X144750000Y-113700000D02*
X145250000Y-113700000D01*
X145250000Y-108200000D02*
X144750000Y-108200000D01*
X145250000Y-113700000D02*
X145250000Y-108200000D01*
X147250000Y-108200000D02*
X147250000Y-113700000D01*
X147250000Y-113700000D02*
X147750000Y-113700000D01*
X147750000Y-108200000D02*
X147250000Y-108200000D01*
X147750000Y-113700000D02*
X147750000Y-108200000D01*
X149750000Y-108200000D02*
X149750000Y-113700000D01*
X149750000Y-113700000D02*
X150250000Y-113700000D01*
X150250000Y-108200000D02*
X149750000Y-108200000D01*
X150250000Y-113700000D02*
X150250000Y-108200000D01*
X152250000Y-108200000D02*
X152250000Y-113700000D01*
X152250000Y-113700000D02*
X152750000Y-113700000D01*
X152750000Y-108200000D02*
X152250000Y-108200000D01*
X152750000Y-113700000D02*
X152750000Y-108200000D01*
X153640000Y-102590000D02*
X153640000Y-107090000D01*
X153640000Y-107090000D02*
X143750000Y-107090000D01*
X155060000Y-102590000D02*
X153640000Y-102590000D01*
X155060000Y-114310000D02*
X155060000Y-102590000D01*
%TO.C,TP10*%
X162700000Y-76000000D02*
G75*
G02*
X161300000Y-76000000I-700000J0D01*
G01*
X161300000Y-76000000D02*
G75*
G02*
X162700000Y-76000000I700000J0D01*
G01*
%TO.C,Cf16*%
X124261252Y-78265000D02*
X123738748Y-78265000D01*
X124261252Y-79735000D02*
X123738748Y-79735000D01*
%TO.C,TP35*%
X162450000Y-100000000D02*
G75*
G02*
X161050000Y-100000000I-700000J0D01*
G01*
X161050000Y-100000000D02*
G75*
G02*
X162450000Y-100000000I700000J0D01*
G01*
%TO.C,Cout2*%
X106090000Y-79590000D02*
X108440000Y-79590000D01*
X106090000Y-85345563D02*
X106090000Y-79590000D01*
X107154437Y-86410000D02*
X106090000Y-85345563D01*
X107154437Y-86410000D02*
X108440000Y-86410000D01*
X107258750Y-87043750D02*
X108046250Y-87043750D01*
X107652500Y-87437500D02*
X107652500Y-86650000D01*
X111845563Y-86410000D02*
X110560000Y-86410000D01*
X111845563Y-86410000D02*
X112910000Y-85345563D01*
X112910000Y-79590000D02*
X110560000Y-79590000D01*
X112910000Y-85345563D02*
X112910000Y-79590000D01*
%TO.C,R1*%
X161265000Y-108227064D02*
X161265000Y-107772936D01*
X162735000Y-108227064D02*
X162735000Y-107772936D01*
D16*
%TO.C,USBC1*%
X96030000Y-45395000D02*
X96030000Y-46675000D01*
X96030000Y-50645000D02*
X96030000Y-49395000D01*
X104970000Y-46675000D02*
X104970000Y-45395000D01*
X104970000Y-50645000D02*
X104970000Y-49395000D01*
X104900000Y-53995000D02*
G75*
G02*
X104700000Y-53995000I-100000J0D01*
G01*
X104700000Y-53995000D02*
G75*
G02*
X104900000Y-53995000I100000J0D01*
G01*
D12*
%TO.C,Cf8*%
X124261252Y-81265000D02*
X123738748Y-81265000D01*
X124261252Y-82735000D02*
X123738748Y-82735000D01*
%TO.C,TP3*%
X119450000Y-99250000D02*
G75*
G02*
X118050000Y-99250000I-700000J0D01*
G01*
X118050000Y-99250000D02*
G75*
G02*
X119450000Y-99250000I700000J0D01*
G01*
%TO.C,D5*%
X169040000Y-101315000D02*
X169040000Y-104000000D01*
X170960000Y-101315000D02*
X169040000Y-101315000D01*
X170960000Y-104000000D02*
X170960000Y-101315000D01*
%TO.C,Resp1*%
X147737258Y-63977500D02*
X147262742Y-63977500D01*
X147737258Y-65022500D02*
X147262742Y-65022500D01*
%TO.C,TP8*%
X173700000Y-88750000D02*
G75*
G02*
X172300000Y-88750000I-700000J0D01*
G01*
X172300000Y-88750000D02*
G75*
G02*
X173700000Y-88750000I700000J0D01*
G01*
%TO.C,TP29*%
X132700000Y-69750000D02*
G75*
G02*
X131300000Y-69750000I-700000J0D01*
G01*
X131300000Y-69750000D02*
G75*
G02*
X132700000Y-69750000I700000J0D01*
G01*
%TO.C,TP28*%
X124700000Y-64500000D02*
G75*
G02*
X123300000Y-64500000I-700000J0D01*
G01*
X123300000Y-64500000D02*
G75*
G02*
X124700000Y-64500000I700000J0D01*
G01*
%TO.C,TP26*%
X134200000Y-62750000D02*
G75*
G02*
X132800000Y-62750000I-700000J0D01*
G01*
X132800000Y-62750000D02*
G75*
G02*
X134200000Y-62750000I700000J0D01*
G01*
%TO.C,SPI2*%
X108940000Y-102590000D02*
X110360000Y-102590000D01*
X108940000Y-114310000D02*
X108940000Y-102590000D01*
X110360000Y-102590000D02*
X110360000Y-107090000D01*
X110360000Y-107090000D02*
X120250000Y-107090000D01*
X111200000Y-102900000D02*
X111800000Y-102900000D01*
X111250000Y-108200000D02*
X111250000Y-113700000D01*
X111250000Y-113700000D02*
X111750000Y-113700000D01*
X111500000Y-103500000D02*
X111200000Y-102900000D01*
X111750000Y-108200000D02*
X111250000Y-108200000D01*
X111750000Y-113700000D02*
X111750000Y-108200000D01*
X111800000Y-102900000D02*
X111500000Y-103500000D01*
X113750000Y-108200000D02*
X113750000Y-113700000D01*
X113750000Y-113700000D02*
X114250000Y-113700000D01*
X114250000Y-108200000D02*
X113750000Y-108200000D01*
X114250000Y-113700000D02*
X114250000Y-108200000D01*
X116250000Y-108200000D02*
X116250000Y-113700000D01*
X116250000Y-113700000D02*
X116750000Y-113700000D01*
X116750000Y-108200000D02*
X116250000Y-108200000D01*
X116750000Y-113700000D02*
X116750000Y-108200000D01*
X118750000Y-108200000D02*
X118750000Y-113700000D01*
X118750000Y-113700000D02*
X119250000Y-113700000D01*
X119250000Y-108200000D02*
X118750000Y-108200000D01*
X119250000Y-113700000D02*
X119250000Y-108200000D01*
X120250000Y-114310000D02*
X108940000Y-114310000D01*
X120250000Y-114310000D02*
X131560000Y-114310000D01*
X121250000Y-108200000D02*
X121250000Y-113700000D01*
X121250000Y-113700000D02*
X121750000Y-113700000D01*
X121750000Y-108200000D02*
X121250000Y-108200000D01*
X121750000Y-113700000D02*
X121750000Y-108200000D01*
X123750000Y-108200000D02*
X123750000Y-113700000D01*
X123750000Y-113700000D02*
X124250000Y-113700000D01*
X124250000Y-108200000D02*
X123750000Y-108200000D01*
X124250000Y-113700000D02*
X124250000Y-108200000D01*
X126250000Y-108200000D02*
X126250000Y-113700000D01*
X126250000Y-113700000D02*
X126750000Y-113700000D01*
X126750000Y-108200000D02*
X126250000Y-108200000D01*
X126750000Y-113700000D02*
X126750000Y-108200000D01*
X128750000Y-108200000D02*
X128750000Y-113700000D01*
X128750000Y-113700000D02*
X129250000Y-113700000D01*
X129250000Y-108200000D02*
X128750000Y-108200000D01*
X129250000Y-113700000D02*
X129250000Y-108200000D01*
X130140000Y-102590000D02*
X130140000Y-107090000D01*
X130140000Y-107090000D02*
X120250000Y-107090000D01*
X131560000Y-102590000D02*
X130140000Y-102590000D01*
X131560000Y-114310000D02*
X131560000Y-102590000D01*
%TO.C,R10*%
X164265000Y-112727064D02*
X164265000Y-112272936D01*
X165735000Y-112727064D02*
X165735000Y-112272936D01*
%TO.C,V3.31*%
X91537500Y-79030000D02*
X91807500Y-79030000D01*
X91537500Y-85450000D02*
X91537500Y-79030000D01*
X98437500Y-79030000D02*
X98167500Y-79030000D01*
X98437500Y-85450000D02*
X98437500Y-79030000D01*
X98477500Y-77855000D02*
X98147500Y-77615000D01*
X98477500Y-77375000D01*
X98477500Y-77855000D01*
G36*
X98477500Y-77855000D02*
G01*
X98147500Y-77615000D01*
X98477500Y-77375000D01*
X98477500Y-77855000D01*
G37*
%TO.C,R4*%
X159640000Y-95435436D02*
X159640000Y-95889564D01*
X161110000Y-95435436D02*
X161110000Y-95889564D01*
%TO.C,Rbtn3*%
X167227500Y-93987258D02*
X167227500Y-93512742D01*
X168272500Y-93987258D02*
X168272500Y-93512742D01*
%TO.C,TP23*%
X135450000Y-99000000D02*
G75*
G02*
X134050000Y-99000000I-700000J0D01*
G01*
X134050000Y-99000000D02*
G75*
G02*
X135450000Y-99000000I700000J0D01*
G01*
%TO.C,Speed1*%
X167590000Y-106440000D02*
X167590000Y-107860000D01*
X167590000Y-107860000D02*
X172090000Y-107860000D01*
X167590000Y-112640000D02*
X172090000Y-112640000D01*
X167590000Y-114060000D02*
X167590000Y-112640000D01*
X167900000Y-111200000D02*
X168500000Y-111500000D01*
X167900000Y-111800000D02*
X167900000Y-111200000D01*
X168500000Y-111500000D02*
X167900000Y-111800000D01*
X172090000Y-107860000D02*
X172090000Y-110250000D01*
X172090000Y-112640000D02*
X172090000Y-110250000D01*
X173200000Y-108750000D02*
X173200000Y-109250000D01*
X173200000Y-109250000D02*
X178700000Y-109250000D01*
X173200000Y-111250000D02*
X173200000Y-111750000D01*
X173200000Y-111750000D02*
X178700000Y-111750000D01*
X178700000Y-108750000D02*
X173200000Y-108750000D01*
X178700000Y-109250000D02*
X178700000Y-108750000D01*
X178700000Y-111250000D02*
X173200000Y-111250000D01*
X178700000Y-111750000D02*
X178700000Y-111250000D01*
X179310000Y-106440000D02*
X167590000Y-106440000D01*
X179310000Y-110250000D02*
X179310000Y-106440000D01*
X179310000Y-110250000D02*
X179310000Y-114060000D01*
X179310000Y-114060000D02*
X167590000Y-114060000D01*
%TO.C,TP34*%
X163700000Y-94750000D02*
G75*
G02*
X162300000Y-94750000I-700000J0D01*
G01*
X162300000Y-94750000D02*
G75*
G02*
X163700000Y-94750000I700000J0D01*
G01*
%TO.C,R2*%
X161265000Y-112272936D02*
X161265000Y-112727064D01*
X162735000Y-112272936D02*
X162735000Y-112727064D01*
%TO.C,R3*%
X156890000Y-95889564D02*
X156890000Y-95435436D01*
X158360000Y-95889564D02*
X158360000Y-95435436D01*
%TO.C,TP1*%
X84200000Y-101250000D02*
G75*
G02*
X82800000Y-101250000I-700000J0D01*
G01*
X82800000Y-101250000D02*
G75*
G02*
X84200000Y-101250000I700000J0D01*
G01*
%TO.C,Cen1*%
X142738748Y-69765000D02*
X143261252Y-69765000D01*
X142738748Y-71235000D02*
X143261252Y-71235000D01*
%TO.C,Rfbb1*%
X99977500Y-89262742D02*
X99977500Y-89737258D01*
X101022500Y-89262742D02*
X101022500Y-89737258D01*
%TO.C,TP18*%
X145450000Y-97750000D02*
G75*
G02*
X144050000Y-97750000I-700000J0D01*
G01*
X144050000Y-97750000D02*
G75*
G02*
X145450000Y-97750000I700000J0D01*
G01*
%TO.C,TP15*%
X140700000Y-99500000D02*
G75*
G02*
X139300000Y-99500000I-700000J0D01*
G01*
X139300000Y-99500000D02*
G75*
G02*
X140700000Y-99500000I700000J0D01*
G01*
%TO.C,TP37*%
X153450000Y-52750000D02*
G75*
G02*
X152050000Y-52750000I-700000J0D01*
G01*
X152050000Y-52750000D02*
G75*
G02*
X153450000Y-52750000I700000J0D01*
G01*
%TO.C,D6*%
X162065000Y-103290000D02*
X162065000Y-105210000D01*
X162065000Y-105210000D02*
X164750000Y-105210000D01*
X164750000Y-103290000D02*
X162065000Y-103290000D01*
%TO.C,R7*%
X161277064Y-69765000D02*
X160822936Y-69765000D01*
X161277064Y-71235000D02*
X160822936Y-71235000D01*
D15*
%TO.C,L1*%
X102700000Y-93500000D02*
X102700000Y-94730000D01*
X102700000Y-93500000D02*
X109800000Y-93500000D01*
X102700000Y-100000000D02*
X102700000Y-98770000D01*
X102700000Y-100000000D02*
X109800000Y-100000000D01*
X109800000Y-93500000D02*
X109800000Y-94730000D01*
X109800000Y-100000000D02*
X109800000Y-98770000D01*
D14*
%TO.C,U1*%
X153687200Y-93708600D02*
G75*
G02*
X153687200Y-93861000I-257258J-76200D01*
G01*
D12*
%TO.C,Rboot1*%
X129977500Y-96762742D02*
X129977500Y-97237258D01*
X131022500Y-96762742D02*
X131022500Y-97237258D01*
%TO.C,TP12*%
X173950000Y-104500000D02*
G75*
G02*
X172550000Y-104500000I-700000J0D01*
G01*
X172550000Y-104500000D02*
G75*
G02*
X173950000Y-104500000I700000J0D01*
G01*
%TO.C,Fan1*%
X167640000Y-48690000D02*
X167640000Y-50110000D01*
X167640000Y-50110000D02*
X172140000Y-50110000D01*
X167640000Y-54890000D02*
X172140000Y-54890000D01*
X167640000Y-56310000D02*
X167640000Y-54890000D01*
X167950000Y-53450000D02*
X168550000Y-53750000D01*
X167950000Y-54050000D02*
X167950000Y-53450000D01*
X168550000Y-53750000D02*
X167950000Y-54050000D01*
X172140000Y-50110000D02*
X172140000Y-52500000D01*
X172140000Y-54890000D02*
X172140000Y-52500000D01*
X173250000Y-51000000D02*
X173250000Y-51500000D01*
X173250000Y-51500000D02*
X178750000Y-51500000D01*
X173250000Y-53500000D02*
X173250000Y-54000000D01*
X173250000Y-54000000D02*
X178750000Y-54000000D01*
X178750000Y-51000000D02*
X173250000Y-51000000D01*
X178750000Y-51500000D02*
X178750000Y-51000000D01*
X178750000Y-53500000D02*
X173250000Y-53500000D01*
X178750000Y-54000000D02*
X178750000Y-53500000D01*
X179360000Y-48690000D02*
X167640000Y-48690000D01*
X179360000Y-52500000D02*
X179360000Y-48690000D01*
X179360000Y-52500000D02*
X179360000Y-56310000D01*
X179360000Y-56310000D02*
X167640000Y-56310000D01*
%TO.C,Buttons1*%
X163760000Y-96670000D02*
X163760000Y-99330000D01*
X176520000Y-96670000D02*
X163760000Y-96670000D01*
X176520000Y-96670000D02*
X176520000Y-99330000D01*
X176520000Y-99330000D02*
X163760000Y-99330000D01*
X177790000Y-96670000D02*
X179120000Y-96670000D01*
X179120000Y-96670000D02*
X179120000Y-98000000D01*
%TO.C,TP9*%
X176700000Y-88750000D02*
G75*
G02*
X175300000Y-88750000I-700000J0D01*
G01*
X175300000Y-88750000D02*
G75*
G02*
X176700000Y-88750000I700000J0D01*
G01*
%TO.C,ESP1*%
X129700000Y-75050000D02*
X129700000Y-76550000D01*
X129700000Y-93450000D02*
X129700000Y-91950000D01*
X129700000Y-93450000D02*
X130700000Y-93450000D01*
X130700000Y-75050000D02*
X129700000Y-75050000D01*
X149300000Y-75050000D02*
X149300000Y-93450000D01*
X149300000Y-93450000D02*
X148600000Y-93450000D01*
X149050000Y-75050000D02*
X148550000Y-75050000D01*
X148550000Y-74550000D01*
X149050000Y-75050000D01*
G36*
X149050000Y-75050000D02*
G01*
X148550000Y-75050000D01*
X148550000Y-74550000D01*
X149050000Y-75050000D01*
G37*
%TO.C,TP22*%
X137700000Y-100500000D02*
G75*
G02*
X136300000Y-100500000I-700000J0D01*
G01*
X136300000Y-100500000D02*
G75*
G02*
X137700000Y-100500000I700000J0D01*
G01*
%TO.C,Roil1*%
X164262742Y-81227500D02*
X164737258Y-81227500D01*
X164262742Y-82272500D02*
X164737258Y-82272500D01*
%TO.C,TP33*%
X117700000Y-80500000D02*
G75*
G02*
X116300000Y-80500000I-700000J0D01*
G01*
X116300000Y-80500000D02*
G75*
G02*
X117700000Y-80500000I700000J0D01*
G01*
%TO.C,TP21*%
X145700000Y-101000000D02*
G75*
G02*
X144300000Y-101000000I-700000J0D01*
G01*
X144300000Y-101000000D02*
G75*
G02*
X145700000Y-101000000I700000J0D01*
G01*
%TO.C,gauges1*%
X167640000Y-76690000D02*
X167640000Y-78110000D01*
X167640000Y-78110000D02*
X172140000Y-78110000D01*
X167640000Y-85390000D02*
X172140000Y-85390000D01*
X167640000Y-86810000D02*
X167640000Y-85390000D01*
X167950000Y-83950000D02*
X168550000Y-84250000D01*
X167950000Y-84550000D02*
X167950000Y-83950000D01*
X168550000Y-84250000D02*
X167950000Y-84550000D01*
X172140000Y-78110000D02*
X172140000Y-81750000D01*
X172140000Y-85390000D02*
X172140000Y-81750000D01*
X173250000Y-79000000D02*
X173250000Y-79500000D01*
X173250000Y-79500000D02*
X178750000Y-79500000D01*
X173250000Y-81500000D02*
X173250000Y-82000000D01*
X173250000Y-82000000D02*
X178750000Y-82000000D01*
X173250000Y-84000000D02*
X173250000Y-84500000D01*
X173250000Y-84500000D02*
X178750000Y-84500000D01*
X178750000Y-79000000D02*
X173250000Y-79000000D01*
X178750000Y-79500000D02*
X178750000Y-79000000D01*
X178750000Y-81500000D02*
X173250000Y-81500000D01*
X178750000Y-82000000D02*
X178750000Y-81500000D01*
X178750000Y-84000000D02*
X173250000Y-84000000D01*
X178750000Y-84500000D02*
X178750000Y-84000000D01*
X179360000Y-76690000D02*
X167640000Y-76690000D01*
X179360000Y-81750000D02*
X179360000Y-76690000D01*
X179360000Y-81750000D02*
X179360000Y-86810000D01*
X179360000Y-86810000D02*
X167640000Y-86810000D01*
%TO.C,D3*%
X158040000Y-111500000D02*
X158040000Y-114185000D01*
X158040000Y-114185000D02*
X159960000Y-114185000D01*
X159960000Y-114185000D02*
X159960000Y-111500000D01*
%TO.C,Cf1*%
X156765000Y-91288748D02*
X156765000Y-91811252D01*
X158235000Y-91288748D02*
X158235000Y-91811252D01*
%TO.C,TP25*%
X136950000Y-72750000D02*
G75*
G02*
X135550000Y-72750000I-700000J0D01*
G01*
X135550000Y-72750000D02*
G75*
G02*
X136950000Y-72750000I700000J0D01*
G01*
%TD*%
%LPC*%
D17*
%TO.C,USBC1*%
X97650000Y-53375000D02*
X96950000Y-53375000D01*
X96950000Y-52125000D01*
X97650000Y-52125000D01*
X97650000Y-53375000D01*
G36*
X97650000Y-53375000D02*
G01*
X96950000Y-53375000D01*
X96950000Y-52125000D01*
X97650000Y-52125000D01*
X97650000Y-53375000D01*
G37*
X98450000Y-53375000D02*
X97750000Y-53375000D01*
X97750000Y-52125000D01*
X98450000Y-52125000D01*
X98450000Y-53375000D01*
G36*
X98450000Y-53375000D02*
G01*
X97750000Y-53375000D01*
X97750000Y-52125000D01*
X98450000Y-52125000D01*
X98450000Y-53375000D01*
G37*
X98950000Y-53375000D02*
X98550000Y-53375000D01*
X98550000Y-52125000D01*
X98950000Y-52125000D01*
X98950000Y-53375000D01*
G36*
X98950000Y-53375000D02*
G01*
X98550000Y-53375000D01*
X98550000Y-52125000D01*
X98950000Y-52125000D01*
X98950000Y-53375000D01*
G37*
X99450000Y-53375000D02*
X99050000Y-53375000D01*
X99050000Y-52125000D01*
X99450000Y-52125000D01*
X99450000Y-53375000D01*
G36*
X99450000Y-53375000D02*
G01*
X99050000Y-53375000D01*
X99050000Y-52125000D01*
X99450000Y-52125000D01*
X99450000Y-53375000D01*
G37*
X99950000Y-53375000D02*
X99550000Y-53375000D01*
X99550000Y-52125000D01*
X99950000Y-52125000D01*
X99950000Y-53375000D01*
G36*
X99950000Y-53375000D02*
G01*
X99550000Y-53375000D01*
X99550000Y-52125000D01*
X99950000Y-52125000D01*
X99950000Y-53375000D01*
G37*
X100450000Y-53375000D02*
X100050000Y-53375000D01*
X100050000Y-52125000D01*
X100450000Y-52125000D01*
X100450000Y-53375000D01*
G36*
X100450000Y-53375000D02*
G01*
X100050000Y-53375000D01*
X100050000Y-52125000D01*
X100450000Y-52125000D01*
X100450000Y-53375000D01*
G37*
X100950000Y-53375000D02*
X100550000Y-53375000D01*
X100550000Y-52125000D01*
X100950000Y-52125000D01*
X100950000Y-53375000D01*
G36*
X100950000Y-53375000D02*
G01*
X100550000Y-53375000D01*
X100550000Y-52125000D01*
X100950000Y-52125000D01*
X100950000Y-53375000D01*
G37*
X101450000Y-53375000D02*
X101050000Y-53375000D01*
X101050000Y-52125000D01*
X101450000Y-52125000D01*
X101450000Y-53375000D01*
G36*
X101450000Y-53375000D02*
G01*
X101050000Y-53375000D01*
X101050000Y-52125000D01*
X101450000Y-52125000D01*
X101450000Y-53375000D01*
G37*
X101950000Y-53375000D02*
X101550000Y-53375000D01*
X101550000Y-52125000D01*
X101950000Y-52125000D01*
X101950000Y-53375000D01*
G36*
X101950000Y-53375000D02*
G01*
X101550000Y-53375000D01*
X101550000Y-52125000D01*
X101950000Y-52125000D01*
X101950000Y-53375000D01*
G37*
X102450000Y-53375000D02*
X102050000Y-53375000D01*
X102050000Y-52125000D01*
X102450000Y-52125000D01*
X102450000Y-53375000D01*
G36*
X102450000Y-53375000D02*
G01*
X102050000Y-53375000D01*
X102050000Y-52125000D01*
X102450000Y-52125000D01*
X102450000Y-53375000D01*
G37*
X103250000Y-53375000D02*
X102550000Y-53375000D01*
X102550000Y-52125000D01*
X103250000Y-52125000D01*
X103250000Y-53375000D01*
G36*
X103250000Y-53375000D02*
G01*
X102550000Y-53375000D01*
X102550000Y-52125000D01*
X103250000Y-52125000D01*
X103250000Y-53375000D01*
G37*
X104050000Y-53375000D02*
X103350000Y-53375000D01*
X103350000Y-52125000D01*
X104050000Y-52125000D01*
X104050000Y-53375000D01*
G36*
X104050000Y-53375000D02*
G01*
X103350000Y-53375000D01*
X103350000Y-52125000D01*
X104050000Y-52125000D01*
X104050000Y-53375000D01*
G37*
%TD*%
D18*
%TO.C,Rwtr1*%
X163675000Y-79250000D03*
X165325000Y-79250000D03*
%TD*%
D19*
%TO.C,TP20*%
X151500000Y-101000000D03*
%TD*%
%TO.C,TP14*%
X109500000Y-64750000D03*
%TD*%
D18*
%TO.C,Rfuel1*%
X163675000Y-84250000D03*
X165325000Y-84250000D03*
%TD*%
D20*
%TO.C,R11*%
X165000000Y-107087500D03*
X165000000Y-108912500D03*
%TD*%
D21*
%TO.C,Indics1*%
X170050000Y-73250000D03*
D22*
X170050000Y-70750000D03*
%TD*%
D23*
%TO.C,Rbtn2*%
X165250000Y-92925000D03*
X165250000Y-94575000D03*
%TD*%
%TO.C,Rusb2*%
X97250000Y-57175000D03*
X97250000Y-58825000D03*
%TD*%
D19*
%TO.C,TP39*%
X111750000Y-90250000D03*
%TD*%
D24*
%TO.C,Cf10*%
X124950000Y-85000000D03*
X123050000Y-85000000D03*
%TD*%
D19*
%TO.C,TP30*%
X155250000Y-73250000D03*
%TD*%
%TO.C,TP4*%
X105750000Y-88250000D03*
%TD*%
D25*
%TO.C,R6*%
X161912500Y-73250000D03*
X160087500Y-73250000D03*
%TD*%
D26*
%TO.C,Cesp2*%
X146550000Y-67500000D03*
X148450000Y-67500000D03*
%TD*%
D27*
%TO.C,Cout1.1*%
X91000000Y-73950000D03*
X91000000Y-72050000D03*
%TD*%
D26*
%TO.C,Cin2*%
X100100000Y-77000000D03*
X102000000Y-77000000D03*
%TD*%
D19*
%TO.C,TP36*%
X152250000Y-87500000D03*
%TD*%
D28*
%TO.C,SPI1*%
X88000000Y-105000000D03*
D29*
X90500000Y-105000000D03*
X93000000Y-105000000D03*
X95500000Y-105000000D03*
X98000000Y-105000000D03*
X100500000Y-105000000D03*
X103000000Y-105000000D03*
X105500000Y-105000000D03*
%TD*%
D30*
%TO.C,Cf6*%
X122500000Y-91050000D03*
X122500000Y-92950000D03*
%TD*%
D26*
%TO.C,Cf13*%
X123050000Y-76000000D03*
X124950000Y-76000000D03*
%TD*%
D19*
%TO.C,TP11*%
X162000000Y-67500000D03*
%TD*%
D31*
%TO.C,R12*%
X162000000Y-92462500D03*
X162000000Y-90637500D03*
%TD*%
D32*
%TO.C,D4*%
X159000000Y-108937500D03*
X159000000Y-107062500D03*
%TD*%
D20*
%TO.C,R8*%
X164550000Y-68500000D03*
X164550000Y-70325000D03*
%TD*%
D23*
%TO.C,Rfbt1*%
X103500000Y-88675000D03*
X103500000Y-90325000D03*
%TD*%
%TO.C,Rusb1*%
X103250000Y-57175000D03*
X103250000Y-58825000D03*
%TD*%
D26*
%TO.C,Cin2.1*%
X100050000Y-79500000D03*
X101950000Y-79500000D03*
%TD*%
D33*
%TO.C,ESP_RST1*%
X139425000Y-66000000D03*
X143575000Y-66000000D03*
%TD*%
D19*
%TO.C,TP16*%
X142500000Y-100500000D03*
%TD*%
D34*
%TO.C,Rbtn1*%
X170250000Y-94575000D03*
X170250000Y-92925000D03*
%TD*%
D35*
%TO.C,D1*%
X115000000Y-99250000D03*
X115000000Y-95250000D03*
%TD*%
D36*
%TO.C,D8*%
X157500000Y-73312500D03*
X157500000Y-75187500D03*
%TD*%
D37*
%TO.C,5V1*%
X96040000Y-93600000D03*
X94770000Y-93600000D03*
X93500000Y-93600000D03*
X92230000Y-93600000D03*
X92230000Y-99000000D03*
X93500000Y-99000000D03*
X94770000Y-99000000D03*
X96040000Y-99000000D03*
D38*
X94135000Y-96300000D03*
%TD*%
D39*
%TO.C,TEMP_S2*%
X136100000Y-70500000D03*
X138000000Y-70500000D03*
X137050000Y-68625000D03*
%TD*%
D40*
%TO.C,Qfan1*%
X162125000Y-52750000D03*
X162125000Y-54650000D03*
X164000000Y-53700000D03*
%TD*%
D31*
%TO.C,R13*%
X167250000Y-103912500D03*
X167250000Y-102087500D03*
%TD*%
D41*
%TO.C,JP1*%
X107000000Y-56775000D03*
D42*
X107000000Y-58225000D03*
%TD*%
D19*
%TO.C,TP38*%
X164000000Y-50000000D03*
%TD*%
D24*
%TO.C,Cin1*%
X88450000Y-96500000D03*
X86550000Y-96500000D03*
%TD*%
D19*
%TO.C,SD1*%
X129450000Y-49250000D03*
X121450000Y-49250000D03*
D43*
X122250000Y-60250000D03*
X123350000Y-60250000D03*
X124450000Y-60250000D03*
X125550000Y-60250000D03*
X126650000Y-60250000D03*
X127750000Y-60250000D03*
X128850000Y-60250000D03*
X129950000Y-60250000D03*
X131050000Y-60250000D03*
D44*
X132250000Y-59250000D03*
D45*
X117650000Y-59200000D03*
D46*
X132250000Y-49650000D03*
X116750000Y-49650000D03*
%TD*%
D25*
%TO.C,R5*%
X174162500Y-102000000D03*
X172337500Y-102000000D03*
%TD*%
D19*
%TO.C,TP5*%
X88750000Y-77250000D03*
%TD*%
%TO.C,TP31*%
X154062500Y-70437500D03*
%TD*%
D47*
%TO.C,RPM1*%
X177750000Y-102000000D03*
%TD*%
D27*
%TO.C,Cout1*%
X94000000Y-73950000D03*
X94000000Y-72050000D03*
%TD*%
D48*
%TO.C,D2*%
X158812500Y-104250000D03*
X160687500Y-104250000D03*
%TD*%
D19*
%TO.C,TP13*%
X109500000Y-60250000D03*
%TD*%
D20*
%TO.C,R9*%
X164600000Y-73500000D03*
X164600000Y-75325000D03*
%TD*%
D26*
%TO.C,Cesp1*%
X146550000Y-70500000D03*
X148450000Y-70500000D03*
%TD*%
D30*
%TO.C,Cf3*%
X159750000Y-90600000D03*
X159750000Y-92500000D03*
%TD*%
D19*
%TO.C,TP24*%
X128750000Y-63500000D03*
%TD*%
D49*
%TO.C,F1*%
X85600000Y-93750000D03*
X88400000Y-93750000D03*
%TD*%
D33*
%TO.C,ESP_BOOT1*%
X122425000Y-96000000D03*
X126575000Y-96000000D03*
%TD*%
D30*
%TO.C,Cshld1*%
X137000000Y-57550000D03*
X137000000Y-59450000D03*
%TD*%
D19*
%TO.C,TP7*%
X170000000Y-88750000D03*
%TD*%
D26*
%TO.C,Cout2.1*%
X101550000Y-85500000D03*
X103450000Y-85500000D03*
%TD*%
D24*
%TO.C,Cboot1*%
X97950000Y-89000000D03*
X96050000Y-89000000D03*
%TD*%
D26*
%TO.C,Cin1.1*%
X86550000Y-99000000D03*
X88450000Y-99000000D03*
%TD*%
D24*
%TO.C,Cf12*%
X124950000Y-88000000D03*
X123050000Y-88000000D03*
%TD*%
D27*
%TO.C,Cf5*%
X125000000Y-92950000D03*
X125000000Y-91050000D03*
%TD*%
D19*
%TO.C,TP27*%
X135750000Y-64750000D03*
%TD*%
%TO.C,TP32*%
X158812500Y-99812500D03*
%TD*%
D50*
%TO.C,TEMP_S1*%
X170050000Y-64750000D03*
D51*
X170050000Y-62250000D03*
X170050000Y-59750000D03*
%TD*%
D19*
%TO.C,TP19*%
X148250000Y-99500000D03*
%TD*%
D52*
%TO.C,Vcc1*%
X85500000Y-87000000D03*
%TD*%
D32*
%TO.C,D7*%
X157500000Y-70437500D03*
X157500000Y-68562500D03*
%TD*%
D28*
%TO.C,SPI3*%
X135000000Y-105000000D03*
D29*
X137500000Y-105000000D03*
X140000000Y-105000000D03*
X142500000Y-105000000D03*
X145000000Y-105000000D03*
X147500000Y-105000000D03*
X150000000Y-105000000D03*
X152500000Y-105000000D03*
%TD*%
D19*
%TO.C,TP10*%
X162000000Y-76000000D03*
%TD*%
D24*
%TO.C,Cf16*%
X124950000Y-79000000D03*
X123050000Y-79000000D03*
%TD*%
D19*
%TO.C,TP35*%
X161750000Y-100000000D03*
%TD*%
D53*
%TO.C,Cout2*%
X109500000Y-85800000D03*
X109500000Y-80200000D03*
%TD*%
D31*
%TO.C,R1*%
X162000000Y-108912500D03*
X162000000Y-107087500D03*
%TD*%
D54*
%TO.C,USBC1*%
X103390000Y-51675000D03*
X97610000Y-51675000D03*
D55*
X104820000Y-52175000D03*
X96180000Y-52175000D03*
D56*
X104820000Y-47995000D03*
X96180000Y-47995000D03*
%TD*%
D24*
%TO.C,Cf8*%
X124950000Y-82000000D03*
X123050000Y-82000000D03*
%TD*%
D19*
%TO.C,TP3*%
X118750000Y-99250000D03*
%TD*%
D36*
%TO.C,D5*%
X170000000Y-102062500D03*
X170000000Y-103937500D03*
%TD*%
D57*
%TO.C,Resp1*%
X148325000Y-64500000D03*
X146675000Y-64500000D03*
%TD*%
D19*
%TO.C,TP8*%
X173000000Y-88750000D03*
%TD*%
%TO.C,TP29*%
X132000000Y-69750000D03*
%TD*%
%TO.C,TP28*%
X124000000Y-64500000D03*
%TD*%
%TO.C,TP26*%
X133500000Y-62750000D03*
%TD*%
D28*
%TO.C,SPI2*%
X111500000Y-105000000D03*
D29*
X114000000Y-105000000D03*
X116500000Y-105000000D03*
X119000000Y-105000000D03*
X121500000Y-105000000D03*
X124000000Y-105000000D03*
X126500000Y-105000000D03*
X129000000Y-105000000D03*
%TD*%
D31*
%TO.C,R10*%
X165000000Y-113412500D03*
X165000000Y-111587500D03*
%TD*%
D58*
%TO.C,V3.31*%
X97267500Y-77300000D03*
X94987500Y-77300000D03*
D59*
X94987500Y-83600000D03*
D58*
X92707500Y-77300000D03*
%TD*%
D20*
%TO.C,R4*%
X160375000Y-94750000D03*
X160375000Y-96575000D03*
%TD*%
D34*
%TO.C,Rbtn3*%
X167750000Y-94575000D03*
X167750000Y-92925000D03*
%TD*%
D19*
%TO.C,TP23*%
X134750000Y-99000000D03*
%TD*%
D21*
%TO.C,Speed1*%
X170000000Y-111500000D03*
D22*
X170000000Y-109000000D03*
%TD*%
D19*
%TO.C,TP34*%
X163000000Y-94750000D03*
%TD*%
D20*
%TO.C,R2*%
X162000000Y-111587500D03*
X162000000Y-113412500D03*
%TD*%
D31*
%TO.C,R3*%
X157625000Y-96575000D03*
X157625000Y-94750000D03*
%TD*%
D19*
%TO.C,TP1*%
X83500000Y-101250000D03*
%TD*%
D26*
%TO.C,Cen1*%
X142050000Y-70500000D03*
X143950000Y-70500000D03*
%TD*%
D23*
%TO.C,Rfbb1*%
X100500000Y-88675000D03*
X100500000Y-90325000D03*
%TD*%
D52*
%TO.C,GND1*%
X117000000Y-87000000D03*
%TD*%
D19*
%TO.C,TP18*%
X144750000Y-97750000D03*
%TD*%
%TO.C,TP15*%
X140000000Y-99500000D03*
%TD*%
%TO.C,TP37*%
X152750000Y-52750000D03*
%TD*%
D48*
%TO.C,D6*%
X162812500Y-104250000D03*
X164687500Y-104250000D03*
%TD*%
D25*
%TO.C,R7*%
X161962500Y-70500000D03*
X160137500Y-70500000D03*
%TD*%
D60*
%TO.C,L1*%
X102525000Y-96750000D03*
X109975000Y-96750000D03*
%TD*%
D61*
%TO.C,U1*%
X153839600Y-94750000D03*
X154500000Y-94750000D03*
X155160400Y-94750000D03*
X155160400Y-92819600D03*
X153839600Y-92819600D03*
%TD*%
D23*
%TO.C,Rboot1*%
X130500000Y-96175000D03*
X130500000Y-97825000D03*
%TD*%
D19*
%TO.C,TP12*%
X173250000Y-104500000D03*
%TD*%
D21*
%TO.C,Fan1*%
X170050000Y-53750000D03*
D22*
X170050000Y-51250000D03*
%TD*%
D47*
%TO.C,Buttons1*%
X177790000Y-98000000D03*
D62*
X175250000Y-98000000D03*
X172710000Y-98000000D03*
X170170000Y-98000000D03*
X167630000Y-98000000D03*
X165090000Y-98000000D03*
%TD*%
D19*
%TO.C,TP9*%
X176000000Y-88750000D03*
%TD*%
D63*
%TO.C,ESP1*%
X147910000Y-75500000D03*
X146640000Y-75500000D03*
X145370000Y-75500000D03*
X144100000Y-75500000D03*
X142830000Y-75500000D03*
X141560000Y-75500000D03*
X140290000Y-75500000D03*
X139020000Y-75500000D03*
X137750000Y-75500000D03*
X136480000Y-75500000D03*
X135210000Y-75500000D03*
X133940000Y-75500000D03*
X132670000Y-75500000D03*
X131400000Y-75500000D03*
D64*
X130150000Y-77265000D03*
X130150000Y-78535000D03*
X130150000Y-79805000D03*
X130150000Y-81075000D03*
X130150000Y-82345000D03*
X130150000Y-83615000D03*
X130150000Y-84885000D03*
X130150000Y-86155000D03*
X130150000Y-87425000D03*
X130150000Y-88695000D03*
X130150000Y-89965000D03*
X130150000Y-91235000D03*
D63*
X131400000Y-93000000D03*
X132670000Y-93000000D03*
X133940000Y-93000000D03*
X135210000Y-93000000D03*
X136480000Y-93000000D03*
X137750000Y-93000000D03*
X139020000Y-93000000D03*
X140290000Y-93000000D03*
X141560000Y-93000000D03*
X142830000Y-93000000D03*
X144100000Y-93000000D03*
X145370000Y-93000000D03*
X146640000Y-93000000D03*
X147910000Y-93000000D03*
D65*
X140890000Y-81350000D03*
X139490000Y-81350000D03*
X141590000Y-82050000D03*
X140190000Y-82050000D03*
X138790000Y-82050000D03*
X140890000Y-82750000D03*
D66*
X140190000Y-82750000D03*
D65*
X139490000Y-82750000D03*
X141590000Y-83450000D03*
X140190000Y-83450000D03*
X138790000Y-83450000D03*
X140890000Y-84150000D03*
X139490000Y-84150000D03*
%TD*%
D19*
%TO.C,TP22*%
X137000000Y-100500000D03*
%TD*%
D18*
%TO.C,Roil1*%
X163675000Y-81750000D03*
X165325000Y-81750000D03*
%TD*%
D19*
%TO.C,TP33*%
X117000000Y-80500000D03*
%TD*%
%TO.C,TP21*%
X145000000Y-101000000D03*
%TD*%
D50*
%TO.C,gauges1*%
X170050000Y-84250000D03*
D51*
X170050000Y-81750000D03*
X170050000Y-79250000D03*
%TD*%
D32*
%TO.C,D3*%
X159000000Y-113437500D03*
X159000000Y-111562500D03*
%TD*%
D30*
%TO.C,Cf1*%
X157500000Y-90600000D03*
X157500000Y-92500000D03*
%TD*%
D19*
%TO.C,TP25*%
X136250000Y-72750000D03*
%TD*%
%LPD*%
M02*
