%TF.GenerationSoftware,KiCad,Pcbnew,8.0.5*%
%TF.CreationDate,2024-09-29T17:29:23+02:00*%
%TF.ProjectId,Leiterkarte-v2,4c656974-6572-46b6-9172-74652d76322e,rev?*%
%TF.SameCoordinates,Original*%
%TF.FileFunction,Copper,L3,Inr*%
%TF.FilePolarity,Positive*%
%FSLAX46Y46*%
G04 Gerber Fmt 4.6, Leading zero omitted, Abs format (unit mm)*
G04 Created by KiCad (PCBNEW 8.0.5) date 2024-09-29 17:29:23*
%MOMM*%
%LPD*%
G01*
G04 APERTURE LIST*
%TA.AperFunction,ComponentPad*%
%ADD10R,1.700000X1.700000*%
%TD*%
%TA.AperFunction,HeatsinkPad*%
%ADD11C,0.600000*%
%TD*%
%TA.AperFunction,ComponentPad*%
%ADD12O,2.100000X1.000000*%
%TD*%
%TA.AperFunction,ComponentPad*%
%ADD13O,1.800000X1.000000*%
%TD*%
%TA.AperFunction,ComponentPad*%
%ADD14O,1.700000X1.700000*%
%TD*%
%TA.AperFunction,ComponentPad*%
%ADD15C,0.600000*%
%TD*%
%TA.AperFunction,ViaPad*%
%ADD16C,0.600000*%
%TD*%
G04 APERTURE END LIST*
D10*
%TO.N,Net-(Vcc1-Pin_1)*%
%TO.C,Vcc1*%
X179200000Y-121800000D03*
%TD*%
%TO.N,Net-(RPM1-Pin_1)*%
%TO.C,RPM1*%
X147700000Y-84000000D03*
%TD*%
D11*
%TO.N,GND*%
%TO.C,ESP1*%
X166400000Y-84250000D03*
X165000000Y-84250000D03*
X167100000Y-84950000D03*
X165700000Y-84950000D03*
X164300000Y-84950000D03*
X166400000Y-85650000D03*
X165000000Y-85650000D03*
X167100000Y-86350000D03*
X165700000Y-86350000D03*
X164300000Y-86350000D03*
X166400000Y-87050000D03*
X165000000Y-87050000D03*
%TD*%
D12*
%TO.N,GND*%
%TO.C,USBC1*%
X177420000Y-84420000D03*
X177420000Y-75780000D03*
D13*
X181600000Y-84420000D03*
X181600000Y-75780000D03*
%TD*%
D10*
%TO.N,+3.3V*%
%TO.C,Buttons1*%
X176900000Y-87920000D03*
D14*
X176900000Y-90460000D03*
X176900000Y-93000000D03*
%TO.N,Button1*%
X176900000Y-95540000D03*
%TO.N,Button2*%
X176900000Y-98080000D03*
%TO.N,Button3*%
X176900000Y-100620000D03*
%TD*%
D10*
%TO.N,GND*%
%TO.C,GND1*%
X175500000Y-121800000D03*
%TD*%
D15*
%TO.N,GND*%
%TO.C,5V1*%
X170600000Y-112800000D03*
X169500000Y-112800000D03*
X168200000Y-112800000D03*
X167000000Y-112800000D03*
X170600000Y-114000000D03*
X169500000Y-114000000D03*
X168200000Y-114000000D03*
X167000000Y-114000000D03*
%TD*%
D16*
%TO.N,GND*%
X160000000Y-117800000D03*
X181500000Y-91150000D03*
X179250000Y-64500000D03*
X183250000Y-58150000D03*
X159300000Y-57900000D03*
X168500000Y-107000000D03*
X175350000Y-84400000D03*
X161700000Y-102200000D03*
X183400000Y-93150000D03*
X170900000Y-76450000D03*
X167700000Y-76500000D03*
X152600000Y-73400000D03*
X151150000Y-59050000D03*
X167700000Y-103700000D03*
X161700000Y-69500000D03*
X166450000Y-76500000D03*
X182400000Y-87250000D03*
X159250000Y-64200000D03*
X183250000Y-70700000D03*
X151350000Y-85000000D03*
X179250000Y-58100000D03*
X183400000Y-94800000D03*
X173195789Y-103623544D03*
X160000000Y-116900000D03*
X174500000Y-113100000D03*
X169900000Y-121400000D03*
X177450000Y-74250000D03*
X173400000Y-76850000D03*
X157500000Y-110100000D03*
X165150000Y-76900000D03*
X160000000Y-116000000D03*
X175500000Y-109300000D03*
X181300000Y-98000000D03*
X179250000Y-70650000D03*
X183250000Y-64550000D03*
X146600000Y-89400000D03*
X175815613Y-103623544D03*
X161550000Y-61850000D03*
X156400000Y-110100000D03*
X156100000Y-73400000D03*
X160000000Y-118700000D03*
X159300000Y-58800000D03*
X168950000Y-76500000D03*
X157850000Y-58650000D03*
X152100000Y-96600000D03*
%TO.N,Net-(5V1-VSENSE)*%
X169900000Y-108700000D03*
%TO.N,+3.3V*%
X172150000Y-76100000D03*
X156200000Y-104300000D03*
X161600000Y-67200000D03*
X171500000Y-93000000D03*
X156200000Y-101100000D03*
X156200000Y-102700000D03*
%TO.N,Fuel*%
X154150000Y-86500000D03*
X150800000Y-101700000D03*
%TO.N,+5V*%
X157400000Y-120700000D03*
X156500000Y-120700000D03*
X168600000Y-102300000D03*
X164100000Y-108500000D03*
X146000000Y-58600000D03*
X158300000Y-120700000D03*
X159000000Y-105700000D03*
X179200000Y-104400000D03*
X147950000Y-72400000D03*
X145600000Y-119500000D03*
X145600000Y-94600000D03*
%TO.N,Net-(ESP1-EN)*%
X170900000Y-79850000D03*
X170900000Y-85900000D03*
%TO.N,CLK*%
X157100000Y-85250000D03*
X147850000Y-75400000D03*
X147900000Y-63500000D03*
X154250000Y-78950000D03*
%TO.N,DIN*%
X162000000Y-79900000D03*
X160650000Y-62950000D03*
%TO.N,BL*%
X149650000Y-79400000D03*
X151350000Y-67500000D03*
X162000000Y-94100000D03*
X153650000Y-82450000D03*
%TO.N,Oil*%
X154150000Y-87800000D03*
X151500000Y-102700000D03*
%TO.N,WTemp*%
X154150000Y-89050000D03*
X152150000Y-103700000D03*
%TO.N,Speed*%
X154250000Y-93200000D03*
X155100000Y-98700000D03*
%TO.N,CS2*%
X151200000Y-64500000D03*
X157400000Y-82700000D03*
%TO.N,DC*%
X149400000Y-65500000D03*
X147900000Y-77400000D03*
%TO.N,RST*%
X148500000Y-78250000D03*
X153700000Y-81150000D03*
X163250000Y-94100000D03*
X150350000Y-66500000D03*
%TO.N,USB_D+*%
X173700000Y-80200000D03*
X173700000Y-81600000D03*
%TO.N,Net-(USBC1-CC1)*%
X178550000Y-81350000D03*
%TO.N,Net-(USBC1-CC2)*%
X178450000Y-78350000D03*
%TD*%
M02*
