%TF.GenerationSoftware,KiCad,Pcbnew,9.0.0*%
%TF.CreationDate,2025-03-22T23:29:01+01:00*%
%TF.ProjectId,Leiterkarte-v2,4c656974-6572-46b6-9172-74652d76322e,rev?*%
%TF.SameCoordinates,Original*%
%TF.FileFunction,Soldermask,Top*%
%TF.FilePolarity,Negative*%
%FSLAX46Y46*%
G04 Gerber Fmt 4.6, Leading zero omitted, Abs format (unit mm)*
G04 Created by KiCad (PCBNEW 9.0.0) date 2025-03-22 23:29:01*
%MOMM*%
%LPD*%
G01*
G04 APERTURE LIST*
G04 Aperture macros list*
%AMRoundRect*
0 Rectangle with rounded corners*
0 $1 Rounding radius*
0 $2 $3 $4 $5 $6 $7 $8 $9 X,Y pos of 4 corners*
0 Add a 4 corners polygon primitive as box body*
4,1,4,$2,$3,$4,$5,$6,$7,$8,$9,$2,$3,0*
0 Add four circle primitives for the rounded corners*
1,1,$1+$1,$2,$3*
1,1,$1+$1,$4,$5*
1,1,$1+$1,$6,$7*
1,1,$1+$1,$8,$9*
0 Add four rect primitives between the rounded corners*
20,1,$1+$1,$2,$3,$4,$5,0*
20,1,$1+$1,$4,$5,$6,$7,0*
20,1,$1+$1,$6,$7,$8,$9,0*
20,1,$1+$1,$8,$9,$2,$3,0*%
%AMFreePoly0*
4,1,6,1.000000,0.000000,0.500000,-0.750000,-0.500000,-0.750000,-0.500000,0.750000,0.500000,0.750000,1.000000,0.000000,1.000000,0.000000,$1*%
%AMFreePoly1*
4,1,6,0.500000,-0.750000,-0.650000,-0.750000,-0.150000,0.000000,-0.650000,0.750000,0.500000,0.750000,0.500000,-0.750000,0.500000,-0.750000,$1*%
G04 Aperture macros list end*
%ADD10C,0.010000*%
%ADD11C,1.000000*%
%ADD12RoundRect,0.150000X0.150000X-0.587500X0.150000X0.587500X-0.150000X0.587500X-0.150000X-0.587500X0*%
%ADD13RoundRect,0.200000X-0.275000X0.200000X-0.275000X-0.200000X0.275000X-0.200000X0.275000X0.200000X0*%
%ADD14RoundRect,0.375000X-0.375000X0.625000X-0.375000X-0.625000X0.375000X-0.625000X0.375000X0.625000X0*%
%ADD15RoundRect,0.500000X-1.400000X0.500000X-1.400000X-0.500000X1.400000X-0.500000X1.400000X0.500000X0*%
%ADD16RoundRect,0.250000X-0.475000X0.250000X-0.475000X-0.250000X0.475000X-0.250000X0.475000X0.250000X0*%
%ADD17RoundRect,0.225000X0.375000X-0.225000X0.375000X0.225000X-0.375000X0.225000X-0.375000X-0.225000X0*%
%ADD18RoundRect,0.200000X0.200000X0.275000X-0.200000X0.275000X-0.200000X-0.275000X0.200000X-0.275000X0*%
%ADD19RoundRect,0.250000X0.475000X-0.250000X0.475000X0.250000X-0.475000X0.250000X-0.475000X-0.250000X0*%
%ADD20RoundRect,0.250000X0.450000X-0.262500X0.450000X0.262500X-0.450000X0.262500X-0.450000X-0.262500X0*%
%ADD21R,1.800000X1.350000*%
%ADD22RoundRect,0.250000X-0.375000X-0.625000X0.375000X-0.625000X0.375000X0.625000X-0.375000X0.625000X0*%
%ADD23RoundRect,0.250000X-0.450000X0.262500X-0.450000X-0.262500X0.450000X-0.262500X0.450000X0.262500X0*%
%ADD24RoundRect,0.250000X-0.250000X-0.475000X0.250000X-0.475000X0.250000X0.475000X-0.250000X0.475000X0*%
%ADD25RoundRect,0.250000X0.725000X-0.600000X0.725000X0.600000X-0.725000X0.600000X-0.725000X-0.600000X0*%
%ADD26O,1.950000X1.700000*%
%ADD27RoundRect,0.250000X-0.600000X-0.725000X0.600000X-0.725000X0.600000X0.725000X-0.600000X0.725000X0*%
%ADD28O,1.700000X1.950000*%
%ADD29R,1.700000X1.700000*%
%ADD30O,1.700000X1.700000*%
%ADD31RoundRect,0.150000X-0.587500X-0.150000X0.587500X-0.150000X0.587500X0.150000X-0.587500X0.150000X0*%
%ADD32RoundRect,0.200000X-0.200000X-0.275000X0.200000X-0.275000X0.200000X0.275000X-0.200000X0.275000X0*%
%ADD33RoundRect,0.250000X0.250000X0.475000X-0.250000X0.475000X-0.250000X-0.475000X0.250000X-0.475000X0*%
%ADD34RoundRect,0.200000X0.275000X-0.200000X0.275000X0.200000X-0.275000X0.200000X-0.275000X-0.200000X0*%
%ADD35RoundRect,0.165000X0.385000X-0.835000X0.385000X0.835000X-0.385000X0.835000X-0.385000X-0.835000X0*%
%ADD36RoundRect,0.120000X0.430000X-0.280000X0.430000X0.280000X-0.430000X0.280000X-0.430000X-0.280000X0*%
%ADD37RoundRect,0.250000X0.750000X-0.600000X0.750000X0.600000X-0.750000X0.600000X-0.750000X-0.600000X0*%
%ADD38O,2.000000X1.700000*%
%ADD39RoundRect,0.165000X-0.385000X0.835000X-0.385000X-0.835000X0.385000X-0.835000X0.385000X0.835000X0*%
%ADD40RoundRect,0.120000X-0.430000X0.280000X-0.430000X-0.280000X0.430000X-0.280000X0.430000X0.280000X0*%
%ADD41RoundRect,0.165000X0.835000X0.385000X-0.835000X0.385000X-0.835000X-0.385000X0.835000X-0.385000X0*%
%ADD42RoundRect,0.120000X0.280000X0.430000X-0.280000X0.430000X-0.280000X-0.430000X0.280000X-0.430000X0*%
%ADD43RoundRect,0.102000X-1.875000X-1.700000X1.875000X-1.700000X1.875000X1.700000X-1.875000X1.700000X0*%
%ADD44RoundRect,0.250000X0.550000X-1.500000X0.550000X1.500000X-0.550000X1.500000X-0.550000X-1.500000X0*%
%ADD45RoundRect,0.225000X-0.375000X0.225000X-0.375000X-0.225000X0.375000X-0.225000X0.375000X0.225000X0*%
%ADD46C,6.400000*%
%ADD47O,1.204000X2.304000*%
%ADD48O,1.204000X2.004000*%
%ADD49R,1.350000X1.800000*%
%ADD50RoundRect,0.250000X0.650000X-1.000000X0.650000X1.000000X-0.650000X1.000000X-0.650000X-1.000000X0*%
%ADD51FreePoly0,180.000000*%
%ADD52FreePoly1,180.000000*%
%ADD53RoundRect,0.250000X-1.500000X-0.550000X1.500000X-0.550000X1.500000X0.550000X-1.500000X0.550000X0*%
%ADD54RoundRect,0.102000X0.350000X0.800000X-0.350000X0.800000X-0.350000X-0.800000X0.350000X-0.800000X0*%
%ADD55RoundRect,0.102000X0.600000X1.200000X-0.600000X1.200000X-0.600000X-1.200000X0.600000X-1.200000X0*%
%ADD56RoundRect,0.102000X0.800000X0.750000X-0.800000X0.750000X-0.800000X-0.750000X0.800000X-0.750000X0*%
%ADD57RoundRect,0.102000X0.600000X1.100000X-0.600000X1.100000X-0.600000X-1.100000X0.600000X-1.100000X0*%
%ADD58R,0.900000X1.500000*%
%ADD59R,1.500000X0.900000*%
%ADD60C,0.600000*%
%ADD61R,3.900000X3.900000*%
%ADD62RoundRect,0.102000X0.177800X-0.558800X0.177800X0.558800X-0.177800X0.558800X-0.177800X-0.558800X0*%
G04 APERTURE END LIST*
D10*
%TO.C,USBC601*%
X97650000Y-53375000D02*
X96950000Y-53375000D01*
X96950000Y-52125000D01*
X97650000Y-52125000D01*
X97650000Y-53375000D01*
G36*
X97650000Y-53375000D02*
G01*
X96950000Y-53375000D01*
X96950000Y-52125000D01*
X97650000Y-52125000D01*
X97650000Y-53375000D01*
G37*
X98450000Y-53375000D02*
X97750000Y-53375000D01*
X97750000Y-52125000D01*
X98450000Y-52125000D01*
X98450000Y-53375000D01*
G36*
X98450000Y-53375000D02*
G01*
X97750000Y-53375000D01*
X97750000Y-52125000D01*
X98450000Y-52125000D01*
X98450000Y-53375000D01*
G37*
X98950000Y-53375000D02*
X98550000Y-53375000D01*
X98550000Y-52125000D01*
X98950000Y-52125000D01*
X98950000Y-53375000D01*
G36*
X98950000Y-53375000D02*
G01*
X98550000Y-53375000D01*
X98550000Y-52125000D01*
X98950000Y-52125000D01*
X98950000Y-53375000D01*
G37*
X99450000Y-53375000D02*
X99050000Y-53375000D01*
X99050000Y-52125000D01*
X99450000Y-52125000D01*
X99450000Y-53375000D01*
G36*
X99450000Y-53375000D02*
G01*
X99050000Y-53375000D01*
X99050000Y-52125000D01*
X99450000Y-52125000D01*
X99450000Y-53375000D01*
G37*
X99950000Y-53375000D02*
X99550000Y-53375000D01*
X99550000Y-52125000D01*
X99950000Y-52125000D01*
X99950000Y-53375000D01*
G36*
X99950000Y-53375000D02*
G01*
X99550000Y-53375000D01*
X99550000Y-52125000D01*
X99950000Y-52125000D01*
X99950000Y-53375000D01*
G37*
X100450000Y-53375000D02*
X100050000Y-53375000D01*
X100050000Y-52125000D01*
X100450000Y-52125000D01*
X100450000Y-53375000D01*
G36*
X100450000Y-53375000D02*
G01*
X100050000Y-53375000D01*
X100050000Y-52125000D01*
X100450000Y-52125000D01*
X100450000Y-53375000D01*
G37*
X100950000Y-53375000D02*
X100550000Y-53375000D01*
X100550000Y-52125000D01*
X100950000Y-52125000D01*
X100950000Y-53375000D01*
G36*
X100950000Y-53375000D02*
G01*
X100550000Y-53375000D01*
X100550000Y-52125000D01*
X100950000Y-52125000D01*
X100950000Y-53375000D01*
G37*
X101450000Y-53375000D02*
X101050000Y-53375000D01*
X101050000Y-52125000D01*
X101450000Y-52125000D01*
X101450000Y-53375000D01*
G36*
X101450000Y-53375000D02*
G01*
X101050000Y-53375000D01*
X101050000Y-52125000D01*
X101450000Y-52125000D01*
X101450000Y-53375000D01*
G37*
X101950000Y-53375000D02*
X101550000Y-53375000D01*
X101550000Y-52125000D01*
X101950000Y-52125000D01*
X101950000Y-53375000D01*
G36*
X101950000Y-53375000D02*
G01*
X101550000Y-53375000D01*
X101550000Y-52125000D01*
X101950000Y-52125000D01*
X101950000Y-53375000D01*
G37*
X102450000Y-53375000D02*
X102050000Y-53375000D01*
X102050000Y-52125000D01*
X102450000Y-52125000D01*
X102450000Y-53375000D01*
G36*
X102450000Y-53375000D02*
G01*
X102050000Y-53375000D01*
X102050000Y-52125000D01*
X102450000Y-52125000D01*
X102450000Y-53375000D01*
G37*
X103250000Y-53375000D02*
X102550000Y-53375000D01*
X102550000Y-52125000D01*
X103250000Y-52125000D01*
X103250000Y-53375000D01*
G36*
X103250000Y-53375000D02*
G01*
X102550000Y-53375000D01*
X102550000Y-52125000D01*
X103250000Y-52125000D01*
X103250000Y-53375000D01*
G37*
X104050000Y-53375000D02*
X103350000Y-53375000D01*
X103350000Y-52125000D01*
X104050000Y-52125000D01*
X104050000Y-53375000D01*
G36*
X104050000Y-53375000D02*
G01*
X103350000Y-53375000D01*
X103350000Y-52125000D01*
X104050000Y-52125000D01*
X104050000Y-53375000D01*
G37*
%TO.C,5V301*%
X92308000Y-91156000D02*
X92310000Y-91156000D01*
X92313000Y-91157000D01*
X92315000Y-91157000D01*
X92318000Y-91158000D01*
X92320000Y-91159000D01*
X92323000Y-91160000D01*
X92325000Y-91162000D01*
X92327000Y-91163000D01*
X92329000Y-91165000D01*
X92331000Y-91166000D01*
X92333000Y-91168000D01*
X92335000Y-91170000D01*
X92337000Y-91172000D01*
X92339000Y-91174000D01*
X92340000Y-91176000D01*
X92342000Y-91178000D01*
X92343000Y-91180000D01*
X92345000Y-91182000D01*
X92346000Y-91185000D01*
X92347000Y-91187000D01*
X92348000Y-91190000D01*
X92348000Y-91192000D01*
X92349000Y-91195000D01*
X92349000Y-91197000D01*
X92350000Y-91200000D01*
X92350000Y-91202000D01*
X92350000Y-91205000D01*
X92350000Y-92795000D01*
X92350000Y-92798000D01*
X92350000Y-92800000D01*
X92349000Y-92803000D01*
X92349000Y-92805000D01*
X92348000Y-92808000D01*
X92348000Y-92810000D01*
X92347000Y-92813000D01*
X92346000Y-92815000D01*
X92345000Y-92818000D01*
X92343000Y-92820000D01*
X92342000Y-92822000D01*
X92340000Y-92824000D01*
X92339000Y-92826000D01*
X92337000Y-92828000D01*
X92335000Y-92830000D01*
X92333000Y-92832000D01*
X92331000Y-92834000D01*
X92329000Y-92835000D01*
X92327000Y-92837000D01*
X92325000Y-92838000D01*
X92323000Y-92840000D01*
X92320000Y-92841000D01*
X92318000Y-92842000D01*
X92315000Y-92843000D01*
X92313000Y-92843000D01*
X92310000Y-92844000D01*
X92308000Y-92844000D01*
X92305000Y-92845000D01*
X92303000Y-92845000D01*
X92300000Y-92845000D01*
X91660000Y-92845000D01*
X91657000Y-92845000D01*
X91655000Y-92845000D01*
X91652000Y-92844000D01*
X91650000Y-92844000D01*
X91647000Y-92843000D01*
X91645000Y-92843000D01*
X91642000Y-92842000D01*
X91640000Y-92841000D01*
X91637000Y-92840000D01*
X91635000Y-92838000D01*
X91633000Y-92837000D01*
X91631000Y-92835000D01*
X91629000Y-92834000D01*
X91627000Y-92832000D01*
X91625000Y-92830000D01*
X91623000Y-92828000D01*
X91621000Y-92826000D01*
X91620000Y-92824000D01*
X91618000Y-92822000D01*
X91617000Y-92820000D01*
X91615000Y-92818000D01*
X91614000Y-92815000D01*
X91613000Y-92813000D01*
X91612000Y-92810000D01*
X91612000Y-92808000D01*
X91611000Y-92805000D01*
X91611000Y-92803000D01*
X91610000Y-92800000D01*
X91610000Y-92798000D01*
X91610000Y-92795000D01*
X91610000Y-91205000D01*
X91610000Y-91202000D01*
X91610000Y-91200000D01*
X91611000Y-91197000D01*
X91611000Y-91195000D01*
X91612000Y-91192000D01*
X91612000Y-91190000D01*
X91613000Y-91187000D01*
X91614000Y-91185000D01*
X91615000Y-91182000D01*
X91617000Y-91180000D01*
X91618000Y-91178000D01*
X91620000Y-91176000D01*
X91621000Y-91174000D01*
X91623000Y-91172000D01*
X91625000Y-91170000D01*
X91627000Y-91168000D01*
X91629000Y-91166000D01*
X91631000Y-91165000D01*
X91633000Y-91163000D01*
X91635000Y-91162000D01*
X91637000Y-91160000D01*
X91640000Y-91159000D01*
X91642000Y-91158000D01*
X91645000Y-91157000D01*
X91647000Y-91157000D01*
X91650000Y-91156000D01*
X91652000Y-91156000D01*
X91655000Y-91155000D01*
X91657000Y-91155000D01*
X91660000Y-91155000D01*
X92300000Y-91155000D01*
X92303000Y-91155000D01*
X92305000Y-91155000D01*
X92308000Y-91156000D01*
G36*
X92308000Y-91156000D02*
G01*
X92310000Y-91156000D01*
X92313000Y-91157000D01*
X92315000Y-91157000D01*
X92318000Y-91158000D01*
X92320000Y-91159000D01*
X92323000Y-91160000D01*
X92325000Y-91162000D01*
X92327000Y-91163000D01*
X92329000Y-91165000D01*
X92331000Y-91166000D01*
X92333000Y-91168000D01*
X92335000Y-91170000D01*
X92337000Y-91172000D01*
X92339000Y-91174000D01*
X92340000Y-91176000D01*
X92342000Y-91178000D01*
X92343000Y-91180000D01*
X92345000Y-91182000D01*
X92346000Y-91185000D01*
X92347000Y-91187000D01*
X92348000Y-91190000D01*
X92348000Y-91192000D01*
X92349000Y-91195000D01*
X92349000Y-91197000D01*
X92350000Y-91200000D01*
X92350000Y-91202000D01*
X92350000Y-91205000D01*
X92350000Y-92795000D01*
X92350000Y-92798000D01*
X92350000Y-92800000D01*
X92349000Y-92803000D01*
X92349000Y-92805000D01*
X92348000Y-92808000D01*
X92348000Y-92810000D01*
X92347000Y-92813000D01*
X92346000Y-92815000D01*
X92345000Y-92818000D01*
X92343000Y-92820000D01*
X92342000Y-92822000D01*
X92340000Y-92824000D01*
X92339000Y-92826000D01*
X92337000Y-92828000D01*
X92335000Y-92830000D01*
X92333000Y-92832000D01*
X92331000Y-92834000D01*
X92329000Y-92835000D01*
X92327000Y-92837000D01*
X92325000Y-92838000D01*
X92323000Y-92840000D01*
X92320000Y-92841000D01*
X92318000Y-92842000D01*
X92315000Y-92843000D01*
X92313000Y-92843000D01*
X92310000Y-92844000D01*
X92308000Y-92844000D01*
X92305000Y-92845000D01*
X92303000Y-92845000D01*
X92300000Y-92845000D01*
X91660000Y-92845000D01*
X91657000Y-92845000D01*
X91655000Y-92845000D01*
X91652000Y-92844000D01*
X91650000Y-92844000D01*
X91647000Y-92843000D01*
X91645000Y-92843000D01*
X91642000Y-92842000D01*
X91640000Y-92841000D01*
X91637000Y-92840000D01*
X91635000Y-92838000D01*
X91633000Y-92837000D01*
X91631000Y-92835000D01*
X91629000Y-92834000D01*
X91627000Y-92832000D01*
X91625000Y-92830000D01*
X91623000Y-92828000D01*
X91621000Y-92826000D01*
X91620000Y-92824000D01*
X91618000Y-92822000D01*
X91617000Y-92820000D01*
X91615000Y-92818000D01*
X91614000Y-92815000D01*
X91613000Y-92813000D01*
X91612000Y-92810000D01*
X91612000Y-92808000D01*
X91611000Y-92805000D01*
X91611000Y-92803000D01*
X91610000Y-92800000D01*
X91610000Y-92798000D01*
X91610000Y-92795000D01*
X91610000Y-91205000D01*
X91610000Y-91202000D01*
X91610000Y-91200000D01*
X91611000Y-91197000D01*
X91611000Y-91195000D01*
X91612000Y-91192000D01*
X91612000Y-91190000D01*
X91613000Y-91187000D01*
X91614000Y-91185000D01*
X91615000Y-91182000D01*
X91617000Y-91180000D01*
X91618000Y-91178000D01*
X91620000Y-91176000D01*
X91621000Y-91174000D01*
X91623000Y-91172000D01*
X91625000Y-91170000D01*
X91627000Y-91168000D01*
X91629000Y-91166000D01*
X91631000Y-91165000D01*
X91633000Y-91163000D01*
X91635000Y-91162000D01*
X91637000Y-91160000D01*
X91640000Y-91159000D01*
X91642000Y-91158000D01*
X91645000Y-91157000D01*
X91647000Y-91157000D01*
X91650000Y-91156000D01*
X91652000Y-91156000D01*
X91655000Y-91155000D01*
X91657000Y-91155000D01*
X91660000Y-91155000D01*
X92300000Y-91155000D01*
X92303000Y-91155000D01*
X92305000Y-91155000D01*
X92308000Y-91156000D01*
G37*
X92308000Y-96556000D02*
X92310000Y-96556000D01*
X92313000Y-96557000D01*
X92315000Y-96557000D01*
X92318000Y-96558000D01*
X92320000Y-96559000D01*
X92323000Y-96560000D01*
X92325000Y-96562000D01*
X92327000Y-96563000D01*
X92329000Y-96565000D01*
X92331000Y-96566000D01*
X92333000Y-96568000D01*
X92335000Y-96570000D01*
X92337000Y-96572000D01*
X92339000Y-96574000D01*
X92340000Y-96576000D01*
X92342000Y-96578000D01*
X92343000Y-96580000D01*
X92345000Y-96582000D01*
X92346000Y-96585000D01*
X92347000Y-96587000D01*
X92348000Y-96590000D01*
X92348000Y-96592000D01*
X92349000Y-96595000D01*
X92349000Y-96597000D01*
X92350000Y-96600000D01*
X92350000Y-96602000D01*
X92350000Y-96605000D01*
X92350000Y-98195000D01*
X92350000Y-98198000D01*
X92350000Y-98200000D01*
X92349000Y-98203000D01*
X92349000Y-98205000D01*
X92348000Y-98208000D01*
X92348000Y-98210000D01*
X92347000Y-98213000D01*
X92346000Y-98215000D01*
X92345000Y-98218000D01*
X92343000Y-98220000D01*
X92342000Y-98222000D01*
X92340000Y-98224000D01*
X92339000Y-98226000D01*
X92337000Y-98228000D01*
X92335000Y-98230000D01*
X92333000Y-98232000D01*
X92331000Y-98234000D01*
X92329000Y-98235000D01*
X92327000Y-98237000D01*
X92325000Y-98238000D01*
X92323000Y-98240000D01*
X92320000Y-98241000D01*
X92318000Y-98242000D01*
X92315000Y-98243000D01*
X92313000Y-98243000D01*
X92310000Y-98244000D01*
X92308000Y-98244000D01*
X92305000Y-98245000D01*
X92303000Y-98245000D01*
X92300000Y-98245000D01*
X91660000Y-98245000D01*
X91657000Y-98245000D01*
X91655000Y-98245000D01*
X91652000Y-98244000D01*
X91650000Y-98244000D01*
X91647000Y-98243000D01*
X91645000Y-98243000D01*
X91642000Y-98242000D01*
X91640000Y-98241000D01*
X91637000Y-98240000D01*
X91635000Y-98238000D01*
X91633000Y-98237000D01*
X91631000Y-98235000D01*
X91629000Y-98234000D01*
X91627000Y-98232000D01*
X91625000Y-98230000D01*
X91623000Y-98228000D01*
X91621000Y-98226000D01*
X91620000Y-98224000D01*
X91618000Y-98222000D01*
X91617000Y-98220000D01*
X91615000Y-98218000D01*
X91614000Y-98215000D01*
X91613000Y-98213000D01*
X91612000Y-98210000D01*
X91612000Y-98208000D01*
X91611000Y-98205000D01*
X91611000Y-98203000D01*
X91610000Y-98200000D01*
X91610000Y-98198000D01*
X91610000Y-98195000D01*
X91610000Y-96605000D01*
X91610000Y-96602000D01*
X91610000Y-96600000D01*
X91611000Y-96597000D01*
X91611000Y-96595000D01*
X91612000Y-96592000D01*
X91612000Y-96590000D01*
X91613000Y-96587000D01*
X91614000Y-96585000D01*
X91615000Y-96582000D01*
X91617000Y-96580000D01*
X91618000Y-96578000D01*
X91620000Y-96576000D01*
X91621000Y-96574000D01*
X91623000Y-96572000D01*
X91625000Y-96570000D01*
X91627000Y-96568000D01*
X91629000Y-96566000D01*
X91631000Y-96565000D01*
X91633000Y-96563000D01*
X91635000Y-96562000D01*
X91637000Y-96560000D01*
X91640000Y-96559000D01*
X91642000Y-96558000D01*
X91645000Y-96557000D01*
X91647000Y-96557000D01*
X91650000Y-96556000D01*
X91652000Y-96556000D01*
X91655000Y-96555000D01*
X91657000Y-96555000D01*
X91660000Y-96555000D01*
X92300000Y-96555000D01*
X92303000Y-96555000D01*
X92305000Y-96555000D01*
X92308000Y-96556000D01*
G36*
X92308000Y-96556000D02*
G01*
X92310000Y-96556000D01*
X92313000Y-96557000D01*
X92315000Y-96557000D01*
X92318000Y-96558000D01*
X92320000Y-96559000D01*
X92323000Y-96560000D01*
X92325000Y-96562000D01*
X92327000Y-96563000D01*
X92329000Y-96565000D01*
X92331000Y-96566000D01*
X92333000Y-96568000D01*
X92335000Y-96570000D01*
X92337000Y-96572000D01*
X92339000Y-96574000D01*
X92340000Y-96576000D01*
X92342000Y-96578000D01*
X92343000Y-96580000D01*
X92345000Y-96582000D01*
X92346000Y-96585000D01*
X92347000Y-96587000D01*
X92348000Y-96590000D01*
X92348000Y-96592000D01*
X92349000Y-96595000D01*
X92349000Y-96597000D01*
X92350000Y-96600000D01*
X92350000Y-96602000D01*
X92350000Y-96605000D01*
X92350000Y-98195000D01*
X92350000Y-98198000D01*
X92350000Y-98200000D01*
X92349000Y-98203000D01*
X92349000Y-98205000D01*
X92348000Y-98208000D01*
X92348000Y-98210000D01*
X92347000Y-98213000D01*
X92346000Y-98215000D01*
X92345000Y-98218000D01*
X92343000Y-98220000D01*
X92342000Y-98222000D01*
X92340000Y-98224000D01*
X92339000Y-98226000D01*
X92337000Y-98228000D01*
X92335000Y-98230000D01*
X92333000Y-98232000D01*
X92331000Y-98234000D01*
X92329000Y-98235000D01*
X92327000Y-98237000D01*
X92325000Y-98238000D01*
X92323000Y-98240000D01*
X92320000Y-98241000D01*
X92318000Y-98242000D01*
X92315000Y-98243000D01*
X92313000Y-98243000D01*
X92310000Y-98244000D01*
X92308000Y-98244000D01*
X92305000Y-98245000D01*
X92303000Y-98245000D01*
X92300000Y-98245000D01*
X91660000Y-98245000D01*
X91657000Y-98245000D01*
X91655000Y-98245000D01*
X91652000Y-98244000D01*
X91650000Y-98244000D01*
X91647000Y-98243000D01*
X91645000Y-98243000D01*
X91642000Y-98242000D01*
X91640000Y-98241000D01*
X91637000Y-98240000D01*
X91635000Y-98238000D01*
X91633000Y-98237000D01*
X91631000Y-98235000D01*
X91629000Y-98234000D01*
X91627000Y-98232000D01*
X91625000Y-98230000D01*
X91623000Y-98228000D01*
X91621000Y-98226000D01*
X91620000Y-98224000D01*
X91618000Y-98222000D01*
X91617000Y-98220000D01*
X91615000Y-98218000D01*
X91614000Y-98215000D01*
X91613000Y-98213000D01*
X91612000Y-98210000D01*
X91612000Y-98208000D01*
X91611000Y-98205000D01*
X91611000Y-98203000D01*
X91610000Y-98200000D01*
X91610000Y-98198000D01*
X91610000Y-98195000D01*
X91610000Y-96605000D01*
X91610000Y-96602000D01*
X91610000Y-96600000D01*
X91611000Y-96597000D01*
X91611000Y-96595000D01*
X91612000Y-96592000D01*
X91612000Y-96590000D01*
X91613000Y-96587000D01*
X91614000Y-96585000D01*
X91615000Y-96582000D01*
X91617000Y-96580000D01*
X91618000Y-96578000D01*
X91620000Y-96576000D01*
X91621000Y-96574000D01*
X91623000Y-96572000D01*
X91625000Y-96570000D01*
X91627000Y-96568000D01*
X91629000Y-96566000D01*
X91631000Y-96565000D01*
X91633000Y-96563000D01*
X91635000Y-96562000D01*
X91637000Y-96560000D01*
X91640000Y-96559000D01*
X91642000Y-96558000D01*
X91645000Y-96557000D01*
X91647000Y-96557000D01*
X91650000Y-96556000D01*
X91652000Y-96556000D01*
X91655000Y-96555000D01*
X91657000Y-96555000D01*
X91660000Y-96555000D01*
X92300000Y-96555000D01*
X92303000Y-96555000D01*
X92305000Y-96555000D01*
X92308000Y-96556000D01*
G37*
X93578000Y-91156000D02*
X93580000Y-91156000D01*
X93583000Y-91157000D01*
X93585000Y-91157000D01*
X93588000Y-91158000D01*
X93590000Y-91159000D01*
X93593000Y-91160000D01*
X93595000Y-91162000D01*
X93597000Y-91163000D01*
X93599000Y-91165000D01*
X93601000Y-91166000D01*
X93603000Y-91168000D01*
X93605000Y-91170000D01*
X93607000Y-91172000D01*
X93609000Y-91174000D01*
X93610000Y-91176000D01*
X93612000Y-91178000D01*
X93613000Y-91180000D01*
X93615000Y-91182000D01*
X93616000Y-91185000D01*
X93617000Y-91187000D01*
X93618000Y-91190000D01*
X93618000Y-91192000D01*
X93619000Y-91195000D01*
X93619000Y-91197000D01*
X93620000Y-91200000D01*
X93620000Y-91202000D01*
X93620000Y-91205000D01*
X93620000Y-92795000D01*
X93620000Y-92798000D01*
X93620000Y-92800000D01*
X93619000Y-92803000D01*
X93619000Y-92805000D01*
X93618000Y-92808000D01*
X93618000Y-92810000D01*
X93617000Y-92813000D01*
X93616000Y-92815000D01*
X93615000Y-92818000D01*
X93613000Y-92820000D01*
X93612000Y-92822000D01*
X93610000Y-92824000D01*
X93609000Y-92826000D01*
X93607000Y-92828000D01*
X93605000Y-92830000D01*
X93603000Y-92832000D01*
X93601000Y-92834000D01*
X93599000Y-92835000D01*
X93597000Y-92837000D01*
X93595000Y-92838000D01*
X93593000Y-92840000D01*
X93590000Y-92841000D01*
X93588000Y-92842000D01*
X93585000Y-92843000D01*
X93583000Y-92843000D01*
X93580000Y-92844000D01*
X93578000Y-92844000D01*
X93575000Y-92845000D01*
X93573000Y-92845000D01*
X93570000Y-92845000D01*
X92930000Y-92845000D01*
X92927000Y-92845000D01*
X92925000Y-92845000D01*
X92922000Y-92844000D01*
X92920000Y-92844000D01*
X92917000Y-92843000D01*
X92915000Y-92843000D01*
X92912000Y-92842000D01*
X92910000Y-92841000D01*
X92907000Y-92840000D01*
X92905000Y-92838000D01*
X92903000Y-92837000D01*
X92901000Y-92835000D01*
X92899000Y-92834000D01*
X92897000Y-92832000D01*
X92895000Y-92830000D01*
X92893000Y-92828000D01*
X92891000Y-92826000D01*
X92890000Y-92824000D01*
X92888000Y-92822000D01*
X92887000Y-92820000D01*
X92885000Y-92818000D01*
X92884000Y-92815000D01*
X92883000Y-92813000D01*
X92882000Y-92810000D01*
X92882000Y-92808000D01*
X92881000Y-92805000D01*
X92881000Y-92803000D01*
X92880000Y-92800000D01*
X92880000Y-92798000D01*
X92880000Y-92795000D01*
X92880000Y-91205000D01*
X92880000Y-91202000D01*
X92880000Y-91200000D01*
X92881000Y-91197000D01*
X92881000Y-91195000D01*
X92882000Y-91192000D01*
X92882000Y-91190000D01*
X92883000Y-91187000D01*
X92884000Y-91185000D01*
X92885000Y-91182000D01*
X92887000Y-91180000D01*
X92888000Y-91178000D01*
X92890000Y-91176000D01*
X92891000Y-91174000D01*
X92893000Y-91172000D01*
X92895000Y-91170000D01*
X92897000Y-91168000D01*
X92899000Y-91166000D01*
X92901000Y-91165000D01*
X92903000Y-91163000D01*
X92905000Y-91162000D01*
X92907000Y-91160000D01*
X92910000Y-91159000D01*
X92912000Y-91158000D01*
X92915000Y-91157000D01*
X92917000Y-91157000D01*
X92920000Y-91156000D01*
X92922000Y-91156000D01*
X92925000Y-91155000D01*
X92927000Y-91155000D01*
X92930000Y-91155000D01*
X93570000Y-91155000D01*
X93573000Y-91155000D01*
X93575000Y-91155000D01*
X93578000Y-91156000D01*
G36*
X93578000Y-91156000D02*
G01*
X93580000Y-91156000D01*
X93583000Y-91157000D01*
X93585000Y-91157000D01*
X93588000Y-91158000D01*
X93590000Y-91159000D01*
X93593000Y-91160000D01*
X93595000Y-91162000D01*
X93597000Y-91163000D01*
X93599000Y-91165000D01*
X93601000Y-91166000D01*
X93603000Y-91168000D01*
X93605000Y-91170000D01*
X93607000Y-91172000D01*
X93609000Y-91174000D01*
X93610000Y-91176000D01*
X93612000Y-91178000D01*
X93613000Y-91180000D01*
X93615000Y-91182000D01*
X93616000Y-91185000D01*
X93617000Y-91187000D01*
X93618000Y-91190000D01*
X93618000Y-91192000D01*
X93619000Y-91195000D01*
X93619000Y-91197000D01*
X93620000Y-91200000D01*
X93620000Y-91202000D01*
X93620000Y-91205000D01*
X93620000Y-92795000D01*
X93620000Y-92798000D01*
X93620000Y-92800000D01*
X93619000Y-92803000D01*
X93619000Y-92805000D01*
X93618000Y-92808000D01*
X93618000Y-92810000D01*
X93617000Y-92813000D01*
X93616000Y-92815000D01*
X93615000Y-92818000D01*
X93613000Y-92820000D01*
X93612000Y-92822000D01*
X93610000Y-92824000D01*
X93609000Y-92826000D01*
X93607000Y-92828000D01*
X93605000Y-92830000D01*
X93603000Y-92832000D01*
X93601000Y-92834000D01*
X93599000Y-92835000D01*
X93597000Y-92837000D01*
X93595000Y-92838000D01*
X93593000Y-92840000D01*
X93590000Y-92841000D01*
X93588000Y-92842000D01*
X93585000Y-92843000D01*
X93583000Y-92843000D01*
X93580000Y-92844000D01*
X93578000Y-92844000D01*
X93575000Y-92845000D01*
X93573000Y-92845000D01*
X93570000Y-92845000D01*
X92930000Y-92845000D01*
X92927000Y-92845000D01*
X92925000Y-92845000D01*
X92922000Y-92844000D01*
X92920000Y-92844000D01*
X92917000Y-92843000D01*
X92915000Y-92843000D01*
X92912000Y-92842000D01*
X92910000Y-92841000D01*
X92907000Y-92840000D01*
X92905000Y-92838000D01*
X92903000Y-92837000D01*
X92901000Y-92835000D01*
X92899000Y-92834000D01*
X92897000Y-92832000D01*
X92895000Y-92830000D01*
X92893000Y-92828000D01*
X92891000Y-92826000D01*
X92890000Y-92824000D01*
X92888000Y-92822000D01*
X92887000Y-92820000D01*
X92885000Y-92818000D01*
X92884000Y-92815000D01*
X92883000Y-92813000D01*
X92882000Y-92810000D01*
X92882000Y-92808000D01*
X92881000Y-92805000D01*
X92881000Y-92803000D01*
X92880000Y-92800000D01*
X92880000Y-92798000D01*
X92880000Y-92795000D01*
X92880000Y-91205000D01*
X92880000Y-91202000D01*
X92880000Y-91200000D01*
X92881000Y-91197000D01*
X92881000Y-91195000D01*
X92882000Y-91192000D01*
X92882000Y-91190000D01*
X92883000Y-91187000D01*
X92884000Y-91185000D01*
X92885000Y-91182000D01*
X92887000Y-91180000D01*
X92888000Y-91178000D01*
X92890000Y-91176000D01*
X92891000Y-91174000D01*
X92893000Y-91172000D01*
X92895000Y-91170000D01*
X92897000Y-91168000D01*
X92899000Y-91166000D01*
X92901000Y-91165000D01*
X92903000Y-91163000D01*
X92905000Y-91162000D01*
X92907000Y-91160000D01*
X92910000Y-91159000D01*
X92912000Y-91158000D01*
X92915000Y-91157000D01*
X92917000Y-91157000D01*
X92920000Y-91156000D01*
X92922000Y-91156000D01*
X92925000Y-91155000D01*
X92927000Y-91155000D01*
X92930000Y-91155000D01*
X93570000Y-91155000D01*
X93573000Y-91155000D01*
X93575000Y-91155000D01*
X93578000Y-91156000D01*
G37*
X93578000Y-96556000D02*
X93580000Y-96556000D01*
X93583000Y-96557000D01*
X93585000Y-96557000D01*
X93588000Y-96558000D01*
X93590000Y-96559000D01*
X93593000Y-96560000D01*
X93595000Y-96562000D01*
X93597000Y-96563000D01*
X93599000Y-96565000D01*
X93601000Y-96566000D01*
X93603000Y-96568000D01*
X93605000Y-96570000D01*
X93607000Y-96572000D01*
X93609000Y-96574000D01*
X93610000Y-96576000D01*
X93612000Y-96578000D01*
X93613000Y-96580000D01*
X93615000Y-96582000D01*
X93616000Y-96585000D01*
X93617000Y-96587000D01*
X93618000Y-96590000D01*
X93618000Y-96592000D01*
X93619000Y-96595000D01*
X93619000Y-96597000D01*
X93620000Y-96600000D01*
X93620000Y-96602000D01*
X93620000Y-96605000D01*
X93620000Y-98195000D01*
X93620000Y-98198000D01*
X93620000Y-98200000D01*
X93619000Y-98203000D01*
X93619000Y-98205000D01*
X93618000Y-98208000D01*
X93618000Y-98210000D01*
X93617000Y-98213000D01*
X93616000Y-98215000D01*
X93615000Y-98218000D01*
X93613000Y-98220000D01*
X93612000Y-98222000D01*
X93610000Y-98224000D01*
X93609000Y-98226000D01*
X93607000Y-98228000D01*
X93605000Y-98230000D01*
X93603000Y-98232000D01*
X93601000Y-98234000D01*
X93599000Y-98235000D01*
X93597000Y-98237000D01*
X93595000Y-98238000D01*
X93593000Y-98240000D01*
X93590000Y-98241000D01*
X93588000Y-98242000D01*
X93585000Y-98243000D01*
X93583000Y-98243000D01*
X93580000Y-98244000D01*
X93578000Y-98244000D01*
X93575000Y-98245000D01*
X93573000Y-98245000D01*
X93570000Y-98245000D01*
X92930000Y-98245000D01*
X92927000Y-98245000D01*
X92925000Y-98245000D01*
X92922000Y-98244000D01*
X92920000Y-98244000D01*
X92917000Y-98243000D01*
X92915000Y-98243000D01*
X92912000Y-98242000D01*
X92910000Y-98241000D01*
X92907000Y-98240000D01*
X92905000Y-98238000D01*
X92903000Y-98237000D01*
X92901000Y-98235000D01*
X92899000Y-98234000D01*
X92897000Y-98232000D01*
X92895000Y-98230000D01*
X92893000Y-98228000D01*
X92891000Y-98226000D01*
X92890000Y-98224000D01*
X92888000Y-98222000D01*
X92887000Y-98220000D01*
X92885000Y-98218000D01*
X92884000Y-98215000D01*
X92883000Y-98213000D01*
X92882000Y-98210000D01*
X92882000Y-98208000D01*
X92881000Y-98205000D01*
X92881000Y-98203000D01*
X92880000Y-98200000D01*
X92880000Y-98198000D01*
X92880000Y-98195000D01*
X92880000Y-96605000D01*
X92880000Y-96602000D01*
X92880000Y-96600000D01*
X92881000Y-96597000D01*
X92881000Y-96595000D01*
X92882000Y-96592000D01*
X92882000Y-96590000D01*
X92883000Y-96587000D01*
X92884000Y-96585000D01*
X92885000Y-96582000D01*
X92887000Y-96580000D01*
X92888000Y-96578000D01*
X92890000Y-96576000D01*
X92891000Y-96574000D01*
X92893000Y-96572000D01*
X92895000Y-96570000D01*
X92897000Y-96568000D01*
X92899000Y-96566000D01*
X92901000Y-96565000D01*
X92903000Y-96563000D01*
X92905000Y-96562000D01*
X92907000Y-96560000D01*
X92910000Y-96559000D01*
X92912000Y-96558000D01*
X92915000Y-96557000D01*
X92917000Y-96557000D01*
X92920000Y-96556000D01*
X92922000Y-96556000D01*
X92925000Y-96555000D01*
X92927000Y-96555000D01*
X92930000Y-96555000D01*
X93570000Y-96555000D01*
X93573000Y-96555000D01*
X93575000Y-96555000D01*
X93578000Y-96556000D01*
G36*
X93578000Y-96556000D02*
G01*
X93580000Y-96556000D01*
X93583000Y-96557000D01*
X93585000Y-96557000D01*
X93588000Y-96558000D01*
X93590000Y-96559000D01*
X93593000Y-96560000D01*
X93595000Y-96562000D01*
X93597000Y-96563000D01*
X93599000Y-96565000D01*
X93601000Y-96566000D01*
X93603000Y-96568000D01*
X93605000Y-96570000D01*
X93607000Y-96572000D01*
X93609000Y-96574000D01*
X93610000Y-96576000D01*
X93612000Y-96578000D01*
X93613000Y-96580000D01*
X93615000Y-96582000D01*
X93616000Y-96585000D01*
X93617000Y-96587000D01*
X93618000Y-96590000D01*
X93618000Y-96592000D01*
X93619000Y-96595000D01*
X93619000Y-96597000D01*
X93620000Y-96600000D01*
X93620000Y-96602000D01*
X93620000Y-96605000D01*
X93620000Y-98195000D01*
X93620000Y-98198000D01*
X93620000Y-98200000D01*
X93619000Y-98203000D01*
X93619000Y-98205000D01*
X93618000Y-98208000D01*
X93618000Y-98210000D01*
X93617000Y-98213000D01*
X93616000Y-98215000D01*
X93615000Y-98218000D01*
X93613000Y-98220000D01*
X93612000Y-98222000D01*
X93610000Y-98224000D01*
X93609000Y-98226000D01*
X93607000Y-98228000D01*
X93605000Y-98230000D01*
X93603000Y-98232000D01*
X93601000Y-98234000D01*
X93599000Y-98235000D01*
X93597000Y-98237000D01*
X93595000Y-98238000D01*
X93593000Y-98240000D01*
X93590000Y-98241000D01*
X93588000Y-98242000D01*
X93585000Y-98243000D01*
X93583000Y-98243000D01*
X93580000Y-98244000D01*
X93578000Y-98244000D01*
X93575000Y-98245000D01*
X93573000Y-98245000D01*
X93570000Y-98245000D01*
X92930000Y-98245000D01*
X92927000Y-98245000D01*
X92925000Y-98245000D01*
X92922000Y-98244000D01*
X92920000Y-98244000D01*
X92917000Y-98243000D01*
X92915000Y-98243000D01*
X92912000Y-98242000D01*
X92910000Y-98241000D01*
X92907000Y-98240000D01*
X92905000Y-98238000D01*
X92903000Y-98237000D01*
X92901000Y-98235000D01*
X92899000Y-98234000D01*
X92897000Y-98232000D01*
X92895000Y-98230000D01*
X92893000Y-98228000D01*
X92891000Y-98226000D01*
X92890000Y-98224000D01*
X92888000Y-98222000D01*
X92887000Y-98220000D01*
X92885000Y-98218000D01*
X92884000Y-98215000D01*
X92883000Y-98213000D01*
X92882000Y-98210000D01*
X92882000Y-98208000D01*
X92881000Y-98205000D01*
X92881000Y-98203000D01*
X92880000Y-98200000D01*
X92880000Y-98198000D01*
X92880000Y-98195000D01*
X92880000Y-96605000D01*
X92880000Y-96602000D01*
X92880000Y-96600000D01*
X92881000Y-96597000D01*
X92881000Y-96595000D01*
X92882000Y-96592000D01*
X92882000Y-96590000D01*
X92883000Y-96587000D01*
X92884000Y-96585000D01*
X92885000Y-96582000D01*
X92887000Y-96580000D01*
X92888000Y-96578000D01*
X92890000Y-96576000D01*
X92891000Y-96574000D01*
X92893000Y-96572000D01*
X92895000Y-96570000D01*
X92897000Y-96568000D01*
X92899000Y-96566000D01*
X92901000Y-96565000D01*
X92903000Y-96563000D01*
X92905000Y-96562000D01*
X92907000Y-96560000D01*
X92910000Y-96559000D01*
X92912000Y-96558000D01*
X92915000Y-96557000D01*
X92917000Y-96557000D01*
X92920000Y-96556000D01*
X92922000Y-96556000D01*
X92925000Y-96555000D01*
X92927000Y-96555000D01*
X92930000Y-96555000D01*
X93570000Y-96555000D01*
X93573000Y-96555000D01*
X93575000Y-96555000D01*
X93578000Y-96556000D01*
G37*
X94848000Y-91156000D02*
X94850000Y-91156000D01*
X94853000Y-91157000D01*
X94855000Y-91157000D01*
X94858000Y-91158000D01*
X94860000Y-91159000D01*
X94863000Y-91160000D01*
X94865000Y-91162000D01*
X94867000Y-91163000D01*
X94869000Y-91165000D01*
X94871000Y-91166000D01*
X94873000Y-91168000D01*
X94875000Y-91170000D01*
X94877000Y-91172000D01*
X94879000Y-91174000D01*
X94880000Y-91176000D01*
X94882000Y-91178000D01*
X94883000Y-91180000D01*
X94885000Y-91182000D01*
X94886000Y-91185000D01*
X94887000Y-91187000D01*
X94888000Y-91190000D01*
X94888000Y-91192000D01*
X94889000Y-91195000D01*
X94889000Y-91197000D01*
X94890000Y-91200000D01*
X94890000Y-91202000D01*
X94890000Y-91205000D01*
X94890000Y-92795000D01*
X94890000Y-92798000D01*
X94890000Y-92800000D01*
X94889000Y-92803000D01*
X94889000Y-92805000D01*
X94888000Y-92808000D01*
X94888000Y-92810000D01*
X94887000Y-92813000D01*
X94886000Y-92815000D01*
X94885000Y-92818000D01*
X94883000Y-92820000D01*
X94882000Y-92822000D01*
X94880000Y-92824000D01*
X94879000Y-92826000D01*
X94877000Y-92828000D01*
X94875000Y-92830000D01*
X94873000Y-92832000D01*
X94871000Y-92834000D01*
X94869000Y-92835000D01*
X94867000Y-92837000D01*
X94865000Y-92838000D01*
X94863000Y-92840000D01*
X94860000Y-92841000D01*
X94858000Y-92842000D01*
X94855000Y-92843000D01*
X94853000Y-92843000D01*
X94850000Y-92844000D01*
X94848000Y-92844000D01*
X94845000Y-92845000D01*
X94843000Y-92845000D01*
X94840000Y-92845000D01*
X94200000Y-92845000D01*
X94197000Y-92845000D01*
X94195000Y-92845000D01*
X94192000Y-92844000D01*
X94190000Y-92844000D01*
X94187000Y-92843000D01*
X94185000Y-92843000D01*
X94182000Y-92842000D01*
X94180000Y-92841000D01*
X94177000Y-92840000D01*
X94175000Y-92838000D01*
X94173000Y-92837000D01*
X94171000Y-92835000D01*
X94169000Y-92834000D01*
X94167000Y-92832000D01*
X94165000Y-92830000D01*
X94163000Y-92828000D01*
X94161000Y-92826000D01*
X94160000Y-92824000D01*
X94158000Y-92822000D01*
X94157000Y-92820000D01*
X94155000Y-92818000D01*
X94154000Y-92815000D01*
X94153000Y-92813000D01*
X94152000Y-92810000D01*
X94152000Y-92808000D01*
X94151000Y-92805000D01*
X94151000Y-92803000D01*
X94150000Y-92800000D01*
X94150000Y-92798000D01*
X94150000Y-92795000D01*
X94150000Y-91205000D01*
X94150000Y-91202000D01*
X94150000Y-91200000D01*
X94151000Y-91197000D01*
X94151000Y-91195000D01*
X94152000Y-91192000D01*
X94152000Y-91190000D01*
X94153000Y-91187000D01*
X94154000Y-91185000D01*
X94155000Y-91182000D01*
X94157000Y-91180000D01*
X94158000Y-91178000D01*
X94160000Y-91176000D01*
X94161000Y-91174000D01*
X94163000Y-91172000D01*
X94165000Y-91170000D01*
X94167000Y-91168000D01*
X94169000Y-91166000D01*
X94171000Y-91165000D01*
X94173000Y-91163000D01*
X94175000Y-91162000D01*
X94177000Y-91160000D01*
X94180000Y-91159000D01*
X94182000Y-91158000D01*
X94185000Y-91157000D01*
X94187000Y-91157000D01*
X94190000Y-91156000D01*
X94192000Y-91156000D01*
X94195000Y-91155000D01*
X94197000Y-91155000D01*
X94200000Y-91155000D01*
X94840000Y-91155000D01*
X94843000Y-91155000D01*
X94845000Y-91155000D01*
X94848000Y-91156000D01*
G36*
X94848000Y-91156000D02*
G01*
X94850000Y-91156000D01*
X94853000Y-91157000D01*
X94855000Y-91157000D01*
X94858000Y-91158000D01*
X94860000Y-91159000D01*
X94863000Y-91160000D01*
X94865000Y-91162000D01*
X94867000Y-91163000D01*
X94869000Y-91165000D01*
X94871000Y-91166000D01*
X94873000Y-91168000D01*
X94875000Y-91170000D01*
X94877000Y-91172000D01*
X94879000Y-91174000D01*
X94880000Y-91176000D01*
X94882000Y-91178000D01*
X94883000Y-91180000D01*
X94885000Y-91182000D01*
X94886000Y-91185000D01*
X94887000Y-91187000D01*
X94888000Y-91190000D01*
X94888000Y-91192000D01*
X94889000Y-91195000D01*
X94889000Y-91197000D01*
X94890000Y-91200000D01*
X94890000Y-91202000D01*
X94890000Y-91205000D01*
X94890000Y-92795000D01*
X94890000Y-92798000D01*
X94890000Y-92800000D01*
X94889000Y-92803000D01*
X94889000Y-92805000D01*
X94888000Y-92808000D01*
X94888000Y-92810000D01*
X94887000Y-92813000D01*
X94886000Y-92815000D01*
X94885000Y-92818000D01*
X94883000Y-92820000D01*
X94882000Y-92822000D01*
X94880000Y-92824000D01*
X94879000Y-92826000D01*
X94877000Y-92828000D01*
X94875000Y-92830000D01*
X94873000Y-92832000D01*
X94871000Y-92834000D01*
X94869000Y-92835000D01*
X94867000Y-92837000D01*
X94865000Y-92838000D01*
X94863000Y-92840000D01*
X94860000Y-92841000D01*
X94858000Y-92842000D01*
X94855000Y-92843000D01*
X94853000Y-92843000D01*
X94850000Y-92844000D01*
X94848000Y-92844000D01*
X94845000Y-92845000D01*
X94843000Y-92845000D01*
X94840000Y-92845000D01*
X94200000Y-92845000D01*
X94197000Y-92845000D01*
X94195000Y-92845000D01*
X94192000Y-92844000D01*
X94190000Y-92844000D01*
X94187000Y-92843000D01*
X94185000Y-92843000D01*
X94182000Y-92842000D01*
X94180000Y-92841000D01*
X94177000Y-92840000D01*
X94175000Y-92838000D01*
X94173000Y-92837000D01*
X94171000Y-92835000D01*
X94169000Y-92834000D01*
X94167000Y-92832000D01*
X94165000Y-92830000D01*
X94163000Y-92828000D01*
X94161000Y-92826000D01*
X94160000Y-92824000D01*
X94158000Y-92822000D01*
X94157000Y-92820000D01*
X94155000Y-92818000D01*
X94154000Y-92815000D01*
X94153000Y-92813000D01*
X94152000Y-92810000D01*
X94152000Y-92808000D01*
X94151000Y-92805000D01*
X94151000Y-92803000D01*
X94150000Y-92800000D01*
X94150000Y-92798000D01*
X94150000Y-92795000D01*
X94150000Y-91205000D01*
X94150000Y-91202000D01*
X94150000Y-91200000D01*
X94151000Y-91197000D01*
X94151000Y-91195000D01*
X94152000Y-91192000D01*
X94152000Y-91190000D01*
X94153000Y-91187000D01*
X94154000Y-91185000D01*
X94155000Y-91182000D01*
X94157000Y-91180000D01*
X94158000Y-91178000D01*
X94160000Y-91176000D01*
X94161000Y-91174000D01*
X94163000Y-91172000D01*
X94165000Y-91170000D01*
X94167000Y-91168000D01*
X94169000Y-91166000D01*
X94171000Y-91165000D01*
X94173000Y-91163000D01*
X94175000Y-91162000D01*
X94177000Y-91160000D01*
X94180000Y-91159000D01*
X94182000Y-91158000D01*
X94185000Y-91157000D01*
X94187000Y-91157000D01*
X94190000Y-91156000D01*
X94192000Y-91156000D01*
X94195000Y-91155000D01*
X94197000Y-91155000D01*
X94200000Y-91155000D01*
X94840000Y-91155000D01*
X94843000Y-91155000D01*
X94845000Y-91155000D01*
X94848000Y-91156000D01*
G37*
X94848000Y-96556000D02*
X94850000Y-96556000D01*
X94853000Y-96557000D01*
X94855000Y-96557000D01*
X94858000Y-96558000D01*
X94860000Y-96559000D01*
X94863000Y-96560000D01*
X94865000Y-96562000D01*
X94867000Y-96563000D01*
X94869000Y-96565000D01*
X94871000Y-96566000D01*
X94873000Y-96568000D01*
X94875000Y-96570000D01*
X94877000Y-96572000D01*
X94879000Y-96574000D01*
X94880000Y-96576000D01*
X94882000Y-96578000D01*
X94883000Y-96580000D01*
X94885000Y-96582000D01*
X94886000Y-96585000D01*
X94887000Y-96587000D01*
X94888000Y-96590000D01*
X94888000Y-96592000D01*
X94889000Y-96595000D01*
X94889000Y-96597000D01*
X94890000Y-96600000D01*
X94890000Y-96602000D01*
X94890000Y-96605000D01*
X94890000Y-98195000D01*
X94890000Y-98198000D01*
X94890000Y-98200000D01*
X94889000Y-98203000D01*
X94889000Y-98205000D01*
X94888000Y-98208000D01*
X94888000Y-98210000D01*
X94887000Y-98213000D01*
X94886000Y-98215000D01*
X94885000Y-98218000D01*
X94883000Y-98220000D01*
X94882000Y-98222000D01*
X94880000Y-98224000D01*
X94879000Y-98226000D01*
X94877000Y-98228000D01*
X94875000Y-98230000D01*
X94873000Y-98232000D01*
X94871000Y-98234000D01*
X94869000Y-98235000D01*
X94867000Y-98237000D01*
X94865000Y-98238000D01*
X94863000Y-98240000D01*
X94860000Y-98241000D01*
X94858000Y-98242000D01*
X94855000Y-98243000D01*
X94853000Y-98243000D01*
X94850000Y-98244000D01*
X94848000Y-98244000D01*
X94845000Y-98245000D01*
X94843000Y-98245000D01*
X94840000Y-98245000D01*
X94200000Y-98245000D01*
X94197000Y-98245000D01*
X94195000Y-98245000D01*
X94192000Y-98244000D01*
X94190000Y-98244000D01*
X94187000Y-98243000D01*
X94185000Y-98243000D01*
X94182000Y-98242000D01*
X94180000Y-98241000D01*
X94177000Y-98240000D01*
X94175000Y-98238000D01*
X94173000Y-98237000D01*
X94171000Y-98235000D01*
X94169000Y-98234000D01*
X94167000Y-98232000D01*
X94165000Y-98230000D01*
X94163000Y-98228000D01*
X94161000Y-98226000D01*
X94160000Y-98224000D01*
X94158000Y-98222000D01*
X94157000Y-98220000D01*
X94155000Y-98218000D01*
X94154000Y-98215000D01*
X94153000Y-98213000D01*
X94152000Y-98210000D01*
X94152000Y-98208000D01*
X94151000Y-98205000D01*
X94151000Y-98203000D01*
X94150000Y-98200000D01*
X94150000Y-98198000D01*
X94150000Y-98195000D01*
X94150000Y-96605000D01*
X94150000Y-96602000D01*
X94150000Y-96600000D01*
X94151000Y-96597000D01*
X94151000Y-96595000D01*
X94152000Y-96592000D01*
X94152000Y-96590000D01*
X94153000Y-96587000D01*
X94154000Y-96585000D01*
X94155000Y-96582000D01*
X94157000Y-96580000D01*
X94158000Y-96578000D01*
X94160000Y-96576000D01*
X94161000Y-96574000D01*
X94163000Y-96572000D01*
X94165000Y-96570000D01*
X94167000Y-96568000D01*
X94169000Y-96566000D01*
X94171000Y-96565000D01*
X94173000Y-96563000D01*
X94175000Y-96562000D01*
X94177000Y-96560000D01*
X94180000Y-96559000D01*
X94182000Y-96558000D01*
X94185000Y-96557000D01*
X94187000Y-96557000D01*
X94190000Y-96556000D01*
X94192000Y-96556000D01*
X94195000Y-96555000D01*
X94197000Y-96555000D01*
X94200000Y-96555000D01*
X94840000Y-96555000D01*
X94843000Y-96555000D01*
X94845000Y-96555000D01*
X94848000Y-96556000D01*
G36*
X94848000Y-96556000D02*
G01*
X94850000Y-96556000D01*
X94853000Y-96557000D01*
X94855000Y-96557000D01*
X94858000Y-96558000D01*
X94860000Y-96559000D01*
X94863000Y-96560000D01*
X94865000Y-96562000D01*
X94867000Y-96563000D01*
X94869000Y-96565000D01*
X94871000Y-96566000D01*
X94873000Y-96568000D01*
X94875000Y-96570000D01*
X94877000Y-96572000D01*
X94879000Y-96574000D01*
X94880000Y-96576000D01*
X94882000Y-96578000D01*
X94883000Y-96580000D01*
X94885000Y-96582000D01*
X94886000Y-96585000D01*
X94887000Y-96587000D01*
X94888000Y-96590000D01*
X94888000Y-96592000D01*
X94889000Y-96595000D01*
X94889000Y-96597000D01*
X94890000Y-96600000D01*
X94890000Y-96602000D01*
X94890000Y-96605000D01*
X94890000Y-98195000D01*
X94890000Y-98198000D01*
X94890000Y-98200000D01*
X94889000Y-98203000D01*
X94889000Y-98205000D01*
X94888000Y-98208000D01*
X94888000Y-98210000D01*
X94887000Y-98213000D01*
X94886000Y-98215000D01*
X94885000Y-98218000D01*
X94883000Y-98220000D01*
X94882000Y-98222000D01*
X94880000Y-98224000D01*
X94879000Y-98226000D01*
X94877000Y-98228000D01*
X94875000Y-98230000D01*
X94873000Y-98232000D01*
X94871000Y-98234000D01*
X94869000Y-98235000D01*
X94867000Y-98237000D01*
X94865000Y-98238000D01*
X94863000Y-98240000D01*
X94860000Y-98241000D01*
X94858000Y-98242000D01*
X94855000Y-98243000D01*
X94853000Y-98243000D01*
X94850000Y-98244000D01*
X94848000Y-98244000D01*
X94845000Y-98245000D01*
X94843000Y-98245000D01*
X94840000Y-98245000D01*
X94200000Y-98245000D01*
X94197000Y-98245000D01*
X94195000Y-98245000D01*
X94192000Y-98244000D01*
X94190000Y-98244000D01*
X94187000Y-98243000D01*
X94185000Y-98243000D01*
X94182000Y-98242000D01*
X94180000Y-98241000D01*
X94177000Y-98240000D01*
X94175000Y-98238000D01*
X94173000Y-98237000D01*
X94171000Y-98235000D01*
X94169000Y-98234000D01*
X94167000Y-98232000D01*
X94165000Y-98230000D01*
X94163000Y-98228000D01*
X94161000Y-98226000D01*
X94160000Y-98224000D01*
X94158000Y-98222000D01*
X94157000Y-98220000D01*
X94155000Y-98218000D01*
X94154000Y-98215000D01*
X94153000Y-98213000D01*
X94152000Y-98210000D01*
X94152000Y-98208000D01*
X94151000Y-98205000D01*
X94151000Y-98203000D01*
X94150000Y-98200000D01*
X94150000Y-98198000D01*
X94150000Y-98195000D01*
X94150000Y-96605000D01*
X94150000Y-96602000D01*
X94150000Y-96600000D01*
X94151000Y-96597000D01*
X94151000Y-96595000D01*
X94152000Y-96592000D01*
X94152000Y-96590000D01*
X94153000Y-96587000D01*
X94154000Y-96585000D01*
X94155000Y-96582000D01*
X94157000Y-96580000D01*
X94158000Y-96578000D01*
X94160000Y-96576000D01*
X94161000Y-96574000D01*
X94163000Y-96572000D01*
X94165000Y-96570000D01*
X94167000Y-96568000D01*
X94169000Y-96566000D01*
X94171000Y-96565000D01*
X94173000Y-96563000D01*
X94175000Y-96562000D01*
X94177000Y-96560000D01*
X94180000Y-96559000D01*
X94182000Y-96558000D01*
X94185000Y-96557000D01*
X94187000Y-96557000D01*
X94190000Y-96556000D01*
X94192000Y-96556000D01*
X94195000Y-96555000D01*
X94197000Y-96555000D01*
X94200000Y-96555000D01*
X94840000Y-96555000D01*
X94843000Y-96555000D01*
X94845000Y-96555000D01*
X94848000Y-96556000D01*
G37*
X96118000Y-91156000D02*
X96120000Y-91156000D01*
X96123000Y-91157000D01*
X96125000Y-91157000D01*
X96128000Y-91158000D01*
X96130000Y-91159000D01*
X96133000Y-91160000D01*
X96135000Y-91162000D01*
X96137000Y-91163000D01*
X96139000Y-91165000D01*
X96141000Y-91166000D01*
X96143000Y-91168000D01*
X96145000Y-91170000D01*
X96147000Y-91172000D01*
X96149000Y-91174000D01*
X96150000Y-91176000D01*
X96152000Y-91178000D01*
X96153000Y-91180000D01*
X96155000Y-91182000D01*
X96156000Y-91185000D01*
X96157000Y-91187000D01*
X96158000Y-91190000D01*
X96158000Y-91192000D01*
X96159000Y-91195000D01*
X96159000Y-91197000D01*
X96160000Y-91200000D01*
X96160000Y-91202000D01*
X96160000Y-91205000D01*
X96160000Y-92795000D01*
X96160000Y-92798000D01*
X96160000Y-92800000D01*
X96159000Y-92803000D01*
X96159000Y-92805000D01*
X96158000Y-92808000D01*
X96158000Y-92810000D01*
X96157000Y-92813000D01*
X96156000Y-92815000D01*
X96155000Y-92818000D01*
X96153000Y-92820000D01*
X96152000Y-92822000D01*
X96150000Y-92824000D01*
X96149000Y-92826000D01*
X96147000Y-92828000D01*
X96145000Y-92830000D01*
X96143000Y-92832000D01*
X96141000Y-92834000D01*
X96139000Y-92835000D01*
X96137000Y-92837000D01*
X96135000Y-92838000D01*
X96133000Y-92840000D01*
X96130000Y-92841000D01*
X96128000Y-92842000D01*
X96125000Y-92843000D01*
X96123000Y-92843000D01*
X96120000Y-92844000D01*
X96118000Y-92844000D01*
X96115000Y-92845000D01*
X96113000Y-92845000D01*
X96110000Y-92845000D01*
X95470000Y-92845000D01*
X95467000Y-92845000D01*
X95465000Y-92845000D01*
X95462000Y-92844000D01*
X95460000Y-92844000D01*
X95457000Y-92843000D01*
X95455000Y-92843000D01*
X95452000Y-92842000D01*
X95450000Y-92841000D01*
X95447000Y-92840000D01*
X95445000Y-92838000D01*
X95443000Y-92837000D01*
X95441000Y-92835000D01*
X95439000Y-92834000D01*
X95437000Y-92832000D01*
X95435000Y-92830000D01*
X95433000Y-92828000D01*
X95431000Y-92826000D01*
X95430000Y-92824000D01*
X95428000Y-92822000D01*
X95427000Y-92820000D01*
X95425000Y-92818000D01*
X95424000Y-92815000D01*
X95423000Y-92813000D01*
X95422000Y-92810000D01*
X95422000Y-92808000D01*
X95421000Y-92805000D01*
X95421000Y-92803000D01*
X95420000Y-92800000D01*
X95420000Y-92798000D01*
X95420000Y-92795000D01*
X95420000Y-91205000D01*
X95420000Y-91202000D01*
X95420000Y-91200000D01*
X95421000Y-91197000D01*
X95421000Y-91195000D01*
X95422000Y-91192000D01*
X95422000Y-91190000D01*
X95423000Y-91187000D01*
X95424000Y-91185000D01*
X95425000Y-91182000D01*
X95427000Y-91180000D01*
X95428000Y-91178000D01*
X95430000Y-91176000D01*
X95431000Y-91174000D01*
X95433000Y-91172000D01*
X95435000Y-91170000D01*
X95437000Y-91168000D01*
X95439000Y-91166000D01*
X95441000Y-91165000D01*
X95443000Y-91163000D01*
X95445000Y-91162000D01*
X95447000Y-91160000D01*
X95450000Y-91159000D01*
X95452000Y-91158000D01*
X95455000Y-91157000D01*
X95457000Y-91157000D01*
X95460000Y-91156000D01*
X95462000Y-91156000D01*
X95465000Y-91155000D01*
X95467000Y-91155000D01*
X95470000Y-91155000D01*
X96110000Y-91155000D01*
X96113000Y-91155000D01*
X96115000Y-91155000D01*
X96118000Y-91156000D01*
G36*
X96118000Y-91156000D02*
G01*
X96120000Y-91156000D01*
X96123000Y-91157000D01*
X96125000Y-91157000D01*
X96128000Y-91158000D01*
X96130000Y-91159000D01*
X96133000Y-91160000D01*
X96135000Y-91162000D01*
X96137000Y-91163000D01*
X96139000Y-91165000D01*
X96141000Y-91166000D01*
X96143000Y-91168000D01*
X96145000Y-91170000D01*
X96147000Y-91172000D01*
X96149000Y-91174000D01*
X96150000Y-91176000D01*
X96152000Y-91178000D01*
X96153000Y-91180000D01*
X96155000Y-91182000D01*
X96156000Y-91185000D01*
X96157000Y-91187000D01*
X96158000Y-91190000D01*
X96158000Y-91192000D01*
X96159000Y-91195000D01*
X96159000Y-91197000D01*
X96160000Y-91200000D01*
X96160000Y-91202000D01*
X96160000Y-91205000D01*
X96160000Y-92795000D01*
X96160000Y-92798000D01*
X96160000Y-92800000D01*
X96159000Y-92803000D01*
X96159000Y-92805000D01*
X96158000Y-92808000D01*
X96158000Y-92810000D01*
X96157000Y-92813000D01*
X96156000Y-92815000D01*
X96155000Y-92818000D01*
X96153000Y-92820000D01*
X96152000Y-92822000D01*
X96150000Y-92824000D01*
X96149000Y-92826000D01*
X96147000Y-92828000D01*
X96145000Y-92830000D01*
X96143000Y-92832000D01*
X96141000Y-92834000D01*
X96139000Y-92835000D01*
X96137000Y-92837000D01*
X96135000Y-92838000D01*
X96133000Y-92840000D01*
X96130000Y-92841000D01*
X96128000Y-92842000D01*
X96125000Y-92843000D01*
X96123000Y-92843000D01*
X96120000Y-92844000D01*
X96118000Y-92844000D01*
X96115000Y-92845000D01*
X96113000Y-92845000D01*
X96110000Y-92845000D01*
X95470000Y-92845000D01*
X95467000Y-92845000D01*
X95465000Y-92845000D01*
X95462000Y-92844000D01*
X95460000Y-92844000D01*
X95457000Y-92843000D01*
X95455000Y-92843000D01*
X95452000Y-92842000D01*
X95450000Y-92841000D01*
X95447000Y-92840000D01*
X95445000Y-92838000D01*
X95443000Y-92837000D01*
X95441000Y-92835000D01*
X95439000Y-92834000D01*
X95437000Y-92832000D01*
X95435000Y-92830000D01*
X95433000Y-92828000D01*
X95431000Y-92826000D01*
X95430000Y-92824000D01*
X95428000Y-92822000D01*
X95427000Y-92820000D01*
X95425000Y-92818000D01*
X95424000Y-92815000D01*
X95423000Y-92813000D01*
X95422000Y-92810000D01*
X95422000Y-92808000D01*
X95421000Y-92805000D01*
X95421000Y-92803000D01*
X95420000Y-92800000D01*
X95420000Y-92798000D01*
X95420000Y-92795000D01*
X95420000Y-91205000D01*
X95420000Y-91202000D01*
X95420000Y-91200000D01*
X95421000Y-91197000D01*
X95421000Y-91195000D01*
X95422000Y-91192000D01*
X95422000Y-91190000D01*
X95423000Y-91187000D01*
X95424000Y-91185000D01*
X95425000Y-91182000D01*
X95427000Y-91180000D01*
X95428000Y-91178000D01*
X95430000Y-91176000D01*
X95431000Y-91174000D01*
X95433000Y-91172000D01*
X95435000Y-91170000D01*
X95437000Y-91168000D01*
X95439000Y-91166000D01*
X95441000Y-91165000D01*
X95443000Y-91163000D01*
X95445000Y-91162000D01*
X95447000Y-91160000D01*
X95450000Y-91159000D01*
X95452000Y-91158000D01*
X95455000Y-91157000D01*
X95457000Y-91157000D01*
X95460000Y-91156000D01*
X95462000Y-91156000D01*
X95465000Y-91155000D01*
X95467000Y-91155000D01*
X95470000Y-91155000D01*
X96110000Y-91155000D01*
X96113000Y-91155000D01*
X96115000Y-91155000D01*
X96118000Y-91156000D01*
G37*
X96118000Y-96556000D02*
X96120000Y-96556000D01*
X96123000Y-96557000D01*
X96125000Y-96557000D01*
X96128000Y-96558000D01*
X96130000Y-96559000D01*
X96133000Y-96560000D01*
X96135000Y-96562000D01*
X96137000Y-96563000D01*
X96139000Y-96565000D01*
X96141000Y-96566000D01*
X96143000Y-96568000D01*
X96145000Y-96570000D01*
X96147000Y-96572000D01*
X96149000Y-96574000D01*
X96150000Y-96576000D01*
X96152000Y-96578000D01*
X96153000Y-96580000D01*
X96155000Y-96582000D01*
X96156000Y-96585000D01*
X96157000Y-96587000D01*
X96158000Y-96590000D01*
X96158000Y-96592000D01*
X96159000Y-96595000D01*
X96159000Y-96597000D01*
X96160000Y-96600000D01*
X96160000Y-96602000D01*
X96160000Y-96605000D01*
X96160000Y-98195000D01*
X96160000Y-98198000D01*
X96160000Y-98200000D01*
X96159000Y-98203000D01*
X96159000Y-98205000D01*
X96158000Y-98208000D01*
X96158000Y-98210000D01*
X96157000Y-98213000D01*
X96156000Y-98215000D01*
X96155000Y-98218000D01*
X96153000Y-98220000D01*
X96152000Y-98222000D01*
X96150000Y-98224000D01*
X96149000Y-98226000D01*
X96147000Y-98228000D01*
X96145000Y-98230000D01*
X96143000Y-98232000D01*
X96141000Y-98234000D01*
X96139000Y-98235000D01*
X96137000Y-98237000D01*
X96135000Y-98238000D01*
X96133000Y-98240000D01*
X96130000Y-98241000D01*
X96128000Y-98242000D01*
X96125000Y-98243000D01*
X96123000Y-98243000D01*
X96120000Y-98244000D01*
X96118000Y-98244000D01*
X96115000Y-98245000D01*
X96113000Y-98245000D01*
X96110000Y-98245000D01*
X95470000Y-98245000D01*
X95467000Y-98245000D01*
X95465000Y-98245000D01*
X95462000Y-98244000D01*
X95460000Y-98244000D01*
X95457000Y-98243000D01*
X95455000Y-98243000D01*
X95452000Y-98242000D01*
X95450000Y-98241000D01*
X95447000Y-98240000D01*
X95445000Y-98238000D01*
X95443000Y-98237000D01*
X95441000Y-98235000D01*
X95439000Y-98234000D01*
X95437000Y-98232000D01*
X95435000Y-98230000D01*
X95433000Y-98228000D01*
X95431000Y-98226000D01*
X95430000Y-98224000D01*
X95428000Y-98222000D01*
X95427000Y-98220000D01*
X95425000Y-98218000D01*
X95424000Y-98215000D01*
X95423000Y-98213000D01*
X95422000Y-98210000D01*
X95422000Y-98208000D01*
X95421000Y-98205000D01*
X95421000Y-98203000D01*
X95420000Y-98200000D01*
X95420000Y-98198000D01*
X95420000Y-98195000D01*
X95420000Y-96605000D01*
X95420000Y-96602000D01*
X95420000Y-96600000D01*
X95421000Y-96597000D01*
X95421000Y-96595000D01*
X95422000Y-96592000D01*
X95422000Y-96590000D01*
X95423000Y-96587000D01*
X95424000Y-96585000D01*
X95425000Y-96582000D01*
X95427000Y-96580000D01*
X95428000Y-96578000D01*
X95430000Y-96576000D01*
X95431000Y-96574000D01*
X95433000Y-96572000D01*
X95435000Y-96570000D01*
X95437000Y-96568000D01*
X95439000Y-96566000D01*
X95441000Y-96565000D01*
X95443000Y-96563000D01*
X95445000Y-96562000D01*
X95447000Y-96560000D01*
X95450000Y-96559000D01*
X95452000Y-96558000D01*
X95455000Y-96557000D01*
X95457000Y-96557000D01*
X95460000Y-96556000D01*
X95462000Y-96556000D01*
X95465000Y-96555000D01*
X95467000Y-96555000D01*
X95470000Y-96555000D01*
X96110000Y-96555000D01*
X96113000Y-96555000D01*
X96115000Y-96555000D01*
X96118000Y-96556000D01*
G36*
X96118000Y-96556000D02*
G01*
X96120000Y-96556000D01*
X96123000Y-96557000D01*
X96125000Y-96557000D01*
X96128000Y-96558000D01*
X96130000Y-96559000D01*
X96133000Y-96560000D01*
X96135000Y-96562000D01*
X96137000Y-96563000D01*
X96139000Y-96565000D01*
X96141000Y-96566000D01*
X96143000Y-96568000D01*
X96145000Y-96570000D01*
X96147000Y-96572000D01*
X96149000Y-96574000D01*
X96150000Y-96576000D01*
X96152000Y-96578000D01*
X96153000Y-96580000D01*
X96155000Y-96582000D01*
X96156000Y-96585000D01*
X96157000Y-96587000D01*
X96158000Y-96590000D01*
X96158000Y-96592000D01*
X96159000Y-96595000D01*
X96159000Y-96597000D01*
X96160000Y-96600000D01*
X96160000Y-96602000D01*
X96160000Y-96605000D01*
X96160000Y-98195000D01*
X96160000Y-98198000D01*
X96160000Y-98200000D01*
X96159000Y-98203000D01*
X96159000Y-98205000D01*
X96158000Y-98208000D01*
X96158000Y-98210000D01*
X96157000Y-98213000D01*
X96156000Y-98215000D01*
X96155000Y-98218000D01*
X96153000Y-98220000D01*
X96152000Y-98222000D01*
X96150000Y-98224000D01*
X96149000Y-98226000D01*
X96147000Y-98228000D01*
X96145000Y-98230000D01*
X96143000Y-98232000D01*
X96141000Y-98234000D01*
X96139000Y-98235000D01*
X96137000Y-98237000D01*
X96135000Y-98238000D01*
X96133000Y-98240000D01*
X96130000Y-98241000D01*
X96128000Y-98242000D01*
X96125000Y-98243000D01*
X96123000Y-98243000D01*
X96120000Y-98244000D01*
X96118000Y-98244000D01*
X96115000Y-98245000D01*
X96113000Y-98245000D01*
X96110000Y-98245000D01*
X95470000Y-98245000D01*
X95467000Y-98245000D01*
X95465000Y-98245000D01*
X95462000Y-98244000D01*
X95460000Y-98244000D01*
X95457000Y-98243000D01*
X95455000Y-98243000D01*
X95452000Y-98242000D01*
X95450000Y-98241000D01*
X95447000Y-98240000D01*
X95445000Y-98238000D01*
X95443000Y-98237000D01*
X95441000Y-98235000D01*
X95439000Y-98234000D01*
X95437000Y-98232000D01*
X95435000Y-98230000D01*
X95433000Y-98228000D01*
X95431000Y-98226000D01*
X95430000Y-98224000D01*
X95428000Y-98222000D01*
X95427000Y-98220000D01*
X95425000Y-98218000D01*
X95424000Y-98215000D01*
X95423000Y-98213000D01*
X95422000Y-98210000D01*
X95422000Y-98208000D01*
X95421000Y-98205000D01*
X95421000Y-98203000D01*
X95420000Y-98200000D01*
X95420000Y-98198000D01*
X95420000Y-98195000D01*
X95420000Y-96605000D01*
X95420000Y-96602000D01*
X95420000Y-96600000D01*
X95421000Y-96597000D01*
X95421000Y-96595000D01*
X95422000Y-96592000D01*
X95422000Y-96590000D01*
X95423000Y-96587000D01*
X95424000Y-96585000D01*
X95425000Y-96582000D01*
X95427000Y-96580000D01*
X95428000Y-96578000D01*
X95430000Y-96576000D01*
X95431000Y-96574000D01*
X95433000Y-96572000D01*
X95435000Y-96570000D01*
X95437000Y-96568000D01*
X95439000Y-96566000D01*
X95441000Y-96565000D01*
X95443000Y-96563000D01*
X95445000Y-96562000D01*
X95447000Y-96560000D01*
X95450000Y-96559000D01*
X95452000Y-96558000D01*
X95455000Y-96557000D01*
X95457000Y-96557000D01*
X95460000Y-96556000D01*
X95462000Y-96556000D01*
X95465000Y-96555000D01*
X95467000Y-96555000D01*
X95470000Y-96555000D01*
X96110000Y-96555000D01*
X96113000Y-96555000D01*
X96115000Y-96555000D01*
X96118000Y-96556000D01*
G37*
%TO.C,JP601*%
G36*
X101225000Y-66750000D02*
G01*
X98775000Y-66750000D01*
X98775000Y-65250000D01*
X101225000Y-65250000D01*
X101225000Y-66750000D01*
G37*
%TD*%
D11*
%TO.C,TP407*%
X173000000Y-88750000D03*
%TD*%
D12*
%TO.C,TEMP401*%
X136100000Y-70500000D03*
X138000000Y-70500000D03*
X137050000Y-68625000D03*
%TD*%
D11*
%TO.C,TP615*%
X109500000Y-64750000D03*
%TD*%
%TO.C,TP616*%
X109500000Y-60250000D03*
%TD*%
D13*
%TO.C,Rusb602*%
X97250000Y-57175000D03*
X97250000Y-58825000D03*
%TD*%
D14*
%TO.C,U601*%
X100300000Y-70850000D03*
X98000000Y-70850000D03*
D15*
X98000000Y-77150000D03*
D14*
X95700000Y-70850000D03*
%TD*%
D11*
%TO.C,TP617*%
X152750000Y-52750000D03*
%TD*%
D16*
%TO.C,Cshld601*%
X137000000Y-57550000D03*
X137000000Y-59450000D03*
%TD*%
D17*
%TO.C,D403*%
X157750000Y-70400000D03*
X157750000Y-67100000D03*
%TD*%
D11*
%TO.C,TP613*%
X132750000Y-99250000D03*
%TD*%
%TO.C,TP603*%
X128750000Y-63500000D03*
%TD*%
D18*
%TO.C,R405*%
X161875000Y-70500000D03*
X160225000Y-70500000D03*
%TD*%
D13*
%TO.C,Rusb601*%
X103250000Y-57175000D03*
X103250000Y-58825000D03*
%TD*%
D19*
%TO.C,C406*%
X152000000Y-82950000D03*
X152000000Y-81050000D03*
%TD*%
%TO.C,C601*%
X95750000Y-65950000D03*
X95750000Y-64050000D03*
%TD*%
D18*
%TO.C,Rboot201*%
X125325000Y-97000000D03*
X123675000Y-97000000D03*
%TD*%
D20*
%TO.C,R503*%
X162000000Y-108500000D03*
X162000000Y-106675000D03*
%TD*%
D11*
%TO.C,TP605*%
X133500000Y-62750000D03*
%TD*%
D21*
%TO.C,ESP_BOOT201*%
X119750000Y-92925000D03*
X119750000Y-97075000D03*
%TD*%
D11*
%TO.C,TP610*%
X148250000Y-101000000D03*
%TD*%
D22*
%TO.C,F301*%
X85600000Y-93750000D03*
X88400000Y-93750000D03*
%TD*%
D23*
%TO.C,R502*%
X165000000Y-111175000D03*
X165000000Y-113000000D03*
%TD*%
D24*
%TO.C,Cen201*%
X142050000Y-70500000D03*
X143950000Y-70500000D03*
%TD*%
D23*
%TO.C,R402*%
X164600000Y-73500000D03*
X164600000Y-75325000D03*
%TD*%
D16*
%TO.C,C402*%
X155000000Y-76550000D03*
X155000000Y-78450000D03*
%TD*%
D25*
%TO.C,TEMP402*%
X170050000Y-64750000D03*
D26*
X170050000Y-62250000D03*
X170050000Y-59750000D03*
%TD*%
D11*
%TO.C,TP607*%
X124000000Y-64500000D03*
%TD*%
D18*
%TO.C,Resp201*%
X148325000Y-64500000D03*
X146675000Y-64500000D03*
%TD*%
D27*
%TO.C,SPI603*%
X135000000Y-105000000D03*
D28*
X137500000Y-105000000D03*
X140000000Y-105000000D03*
X142500000Y-105000000D03*
X145000000Y-105000000D03*
X147500000Y-105000000D03*
X150000000Y-105000000D03*
X152500000Y-105000000D03*
%TD*%
D29*
%TO.C,Buttons601*%
X177790000Y-98000000D03*
D30*
X175250000Y-98000000D03*
X172710000Y-98000000D03*
X170170000Y-98000000D03*
X167630000Y-98000000D03*
X165090000Y-98000000D03*
%TD*%
D19*
%TO.C,C407*%
X158000000Y-85700000D03*
X158000000Y-83800000D03*
%TD*%
D31*
%TO.C,Qfan601*%
X156312500Y-52800000D03*
X156312500Y-54700000D03*
X158187500Y-53750000D03*
%TD*%
D19*
%TO.C,C405*%
X160250000Y-80450000D03*
X160250000Y-78550000D03*
%TD*%
%TO.C,C403*%
X152000000Y-78450000D03*
X152000000Y-76550000D03*
%TD*%
D32*
%TO.C,Rwtr401*%
X163675000Y-79250000D03*
X165325000Y-79250000D03*
%TD*%
D33*
%TO.C,Cin303*%
X88450000Y-99000000D03*
X86550000Y-99000000D03*
%TD*%
D34*
%TO.C,Rbtn601*%
X170250000Y-94575000D03*
X170250000Y-92925000D03*
%TD*%
D11*
%TO.C,TP502*%
X117000000Y-80500000D03*
%TD*%
%TO.C,TP403*%
X154000000Y-73312500D03*
%TD*%
D29*
%TO.C,RPM401*%
X177750000Y-102000000D03*
%TD*%
D35*
%TO.C,D601*%
X163000000Y-51250000D03*
D36*
X163000000Y-53150000D03*
%TD*%
D24*
%TO.C,Cesp202*%
X146550000Y-69750000D03*
X148450000Y-69750000D03*
%TD*%
D27*
%TO.C,SPI602*%
X111500000Y-105000000D03*
D28*
X114000000Y-105000000D03*
X116500000Y-105000000D03*
X119000000Y-105000000D03*
X121500000Y-105000000D03*
X124000000Y-105000000D03*
X126500000Y-105000000D03*
X129000000Y-105000000D03*
%TD*%
D18*
%TO.C,Rfbb301*%
X100075000Y-88500000D03*
X98425000Y-88500000D03*
%TD*%
D32*
%TO.C,Roil401*%
X163675000Y-81750000D03*
X165325000Y-81750000D03*
%TD*%
D37*
%TO.C,Speed501*%
X170000000Y-111500000D03*
D38*
X170000000Y-109000000D03*
%TD*%
D39*
%TO.C,D501*%
X158750000Y-108250000D03*
D40*
X158750000Y-106350000D03*
%TD*%
D11*
%TO.C,TP503*%
X161500000Y-99750000D03*
%TD*%
D23*
%TO.C,R504*%
X162000000Y-111175000D03*
X162000000Y-113000000D03*
%TD*%
D41*
%TO.C,D504*%
X163250000Y-103750000D03*
D42*
X165150000Y-103750000D03*
%TD*%
D39*
%TO.C,D502*%
X158750000Y-112750000D03*
D40*
X158750000Y-110850000D03*
%TD*%
D11*
%TO.C,TP614*%
X128750000Y-99750000D03*
%TD*%
D24*
%TO.C,Cout302*%
X101550000Y-85500000D03*
X103450000Y-85500000D03*
%TD*%
D43*
%TO.C,L301*%
X102525000Y-96750000D03*
X109975000Y-96750000D03*
%TD*%
D18*
%TO.C,R401*%
X174575000Y-103250000D03*
X172925000Y-103250000D03*
%TD*%
D23*
%TO.C,R403*%
X164550000Y-68500000D03*
X164550000Y-70325000D03*
%TD*%
D44*
%TO.C,Cout301*%
X109500000Y-85800000D03*
X109500000Y-80200000D03*
%TD*%
D41*
%TO.C,D503*%
X158600000Y-103750000D03*
D42*
X160500000Y-103750000D03*
%TD*%
D13*
%TO.C,Rbtn603*%
X165250000Y-92925000D03*
X165250000Y-94575000D03*
%TD*%
D11*
%TO.C,TP612*%
X135000000Y-97500000D03*
%TD*%
D45*
%TO.C,D402*%
X157750000Y-73350000D03*
X157750000Y-76650000D03*
%TD*%
D32*
%TO.C,Rfuel401*%
X163675000Y-84250000D03*
X165325000Y-84250000D03*
%TD*%
D16*
%TO.C,C401*%
X146500000Y-86800000D03*
X146500000Y-88700000D03*
%TD*%
D37*
%TO.C,Fan601*%
X170050000Y-53750000D03*
D38*
X170050000Y-51250000D03*
%TD*%
D11*
%TO.C,TP405*%
X164250000Y-101000000D03*
%TD*%
%TO.C,TP408*%
X170000000Y-88750000D03*
%TD*%
D46*
%TO.C,Vcc301*%
X85500000Y-87000000D03*
%TD*%
D34*
%TO.C,R406*%
X167250000Y-103825000D03*
X167250000Y-102175000D03*
%TD*%
D13*
%TO.C,Rfbt301*%
X103500000Y-88675000D03*
X103500000Y-90325000D03*
%TD*%
D11*
%TO.C,TP401*%
X162000000Y-76000000D03*
%TD*%
%TO.C,TP609*%
X143000000Y-98750000D03*
%TD*%
D46*
%TO.C,GND301*%
X117000000Y-87000000D03*
%TD*%
D47*
%TO.C,USBC601*%
X104820000Y-52175000D03*
X96180000Y-52175000D03*
D48*
X104820000Y-47995000D03*
X96180000Y-47995000D03*
%TD*%
D34*
%TO.C,Rbtn602*%
X167750000Y-94575000D03*
X167750000Y-92925000D03*
%TD*%
D11*
%TO.C,TP404*%
X154062500Y-70437500D03*
%TD*%
D19*
%TO.C,C602*%
X91750000Y-74450000D03*
X91750000Y-72550000D03*
%TD*%
D37*
%TO.C,Indics401*%
X170050000Y-73250000D03*
D38*
X170050000Y-70750000D03*
%TD*%
D49*
%TO.C,ESP_RST201*%
X139425000Y-66000000D03*
X143575000Y-66000000D03*
%TD*%
D45*
%TO.C,D401*%
X170000000Y-101350000D03*
X170000000Y-104650000D03*
%TD*%
D11*
%TO.C,TP601*%
X130250000Y-97000000D03*
%TD*%
D50*
%TO.C,D301*%
X115000000Y-99250000D03*
X115000000Y-95250000D03*
%TD*%
D24*
%TO.C,Cin302*%
X86550000Y-96500000D03*
X88450000Y-96500000D03*
%TD*%
D11*
%TO.C,TP406*%
X176000000Y-88750000D03*
%TD*%
D24*
%TO.C,Cesp201*%
X146550000Y-72750000D03*
X148450000Y-72750000D03*
%TD*%
D16*
%TO.C,C501*%
X154500000Y-94800000D03*
X154500000Y-96700000D03*
%TD*%
D18*
%TO.C,R404*%
X161825000Y-73250000D03*
X160175000Y-73250000D03*
%TD*%
D51*
%TO.C,JP601*%
X100725000Y-66000000D03*
D52*
X99275000Y-66000000D03*
%TD*%
D11*
%TO.C,TP606*%
X135750000Y-64750000D03*
%TD*%
D25*
%TO.C,gauges401*%
X170050000Y-84250000D03*
D26*
X170050000Y-81750000D03*
X170050000Y-79250000D03*
%TD*%
D11*
%TO.C,TP302*%
X105750000Y-88250000D03*
%TD*%
%TO.C,TP402*%
X162000000Y-67500000D03*
%TD*%
D53*
%TO.C,Cin301*%
X90800000Y-84250000D03*
X96200000Y-84250000D03*
%TD*%
D11*
%TO.C,TP501*%
X158812500Y-99812500D03*
%TD*%
%TO.C,TP604*%
X130250000Y-70750000D03*
%TD*%
%TO.C,TP303*%
X118250000Y-100500000D03*
%TD*%
%TO.C,TP608*%
X128920000Y-67420000D03*
%TD*%
%TO.C,TP611*%
X151500000Y-101000000D03*
%TD*%
D34*
%TO.C,R506*%
X157625000Y-96487500D03*
X157625000Y-94837500D03*
%TD*%
D11*
%TO.C,TP602*%
X138500000Y-98000000D03*
%TD*%
%TO.C,TP301*%
X83500000Y-101250000D03*
%TD*%
D54*
%TO.C,SD601*%
X122250000Y-60250000D03*
X123350000Y-60250000D03*
X124450000Y-60250000D03*
X125550000Y-60250000D03*
X126650000Y-60250000D03*
X127750000Y-60250000D03*
X128850000Y-60250000D03*
X129950000Y-60250000D03*
X131050000Y-60250000D03*
D55*
X132250000Y-59250000D03*
D56*
X117650000Y-59200000D03*
D57*
X132250000Y-49650000D03*
X116750000Y-49650000D03*
%TD*%
D27*
%TO.C,SPI601*%
X88000000Y-105000000D03*
D28*
X90500000Y-105000000D03*
X93000000Y-105000000D03*
X95500000Y-105000000D03*
X98000000Y-105000000D03*
X100500000Y-105000000D03*
X103000000Y-105000000D03*
X105500000Y-105000000D03*
%TD*%
D13*
%TO.C,R507*%
X160375000Y-94837500D03*
X160375000Y-96487500D03*
%TD*%
D19*
%TO.C,C404*%
X148750000Y-88700000D03*
X148750000Y-86800000D03*
%TD*%
D33*
%TO.C,Cboot301*%
X100950000Y-91750000D03*
X99050000Y-91750000D03*
%TD*%
D20*
%TO.C,R501*%
X165000000Y-108500000D03*
X165000000Y-106675000D03*
%TD*%
D58*
%TO.C,ESP201*%
X141620000Y-75500000D03*
X140350000Y-75500000D03*
X139080000Y-75500000D03*
X137810000Y-75500000D03*
X136540000Y-75500000D03*
X135270000Y-75500000D03*
X134000000Y-75500000D03*
X132730000Y-75500000D03*
X131460000Y-75500000D03*
X130190000Y-75500000D03*
X128920000Y-75500000D03*
X127650000Y-75500000D03*
X126380000Y-75500000D03*
X125110000Y-75500000D03*
D59*
X123860000Y-77265000D03*
X123860000Y-78535000D03*
X123860000Y-79805000D03*
X123860000Y-81075000D03*
X123860000Y-82345000D03*
X123860000Y-83615000D03*
X123860000Y-84885000D03*
X123860000Y-86155000D03*
X123860000Y-87425000D03*
X123860000Y-88695000D03*
X123860000Y-89965000D03*
X123860000Y-91235000D03*
D58*
X125110000Y-93000000D03*
X126380000Y-93000000D03*
X127650000Y-93000000D03*
X128920000Y-93000000D03*
X130190000Y-93000000D03*
X131460000Y-93000000D03*
X132730000Y-93000000D03*
X134000000Y-93000000D03*
X135270000Y-93000000D03*
X136540000Y-93000000D03*
X137810000Y-93000000D03*
X139080000Y-93000000D03*
X140350000Y-93000000D03*
X141620000Y-93000000D03*
D60*
X134600000Y-81350000D03*
X133200000Y-81350000D03*
X135300000Y-82050000D03*
X133900000Y-82050000D03*
X132500000Y-82050000D03*
X134600000Y-82750000D03*
D61*
X133900000Y-82750000D03*
D60*
X133200000Y-82750000D03*
X135300000Y-83450000D03*
X133900000Y-83450000D03*
X132500000Y-83450000D03*
X134600000Y-84150000D03*
X133200000Y-84150000D03*
%TD*%
D11*
%TO.C,TP618*%
X158187500Y-50050000D03*
%TD*%
D16*
%TO.C,C502*%
X152250000Y-94800000D03*
X152250000Y-96700000D03*
%TD*%
D11*
%TO.C,TP504*%
X152250000Y-87500000D03*
%TD*%
D13*
%TO.C,R505*%
X150000000Y-94925000D03*
X150000000Y-96575000D03*
%TD*%
D62*
%TO.C,U501*%
X152339600Y-91965200D03*
X153000000Y-91965200D03*
X153660400Y-91965200D03*
X153660400Y-90034800D03*
X152339600Y-90034800D03*
%TD*%
M02*
