M48
; DRILL file {KiCad 9.0.0} date 2025-03-08T15:48:48+0100
; FORMAT={-:-/ absolute / inch / decimal}
; #@! TF.CreationDate,2025-03-08T15:48:48+01:00
; #@! TF.GenerationSoftware,Kicad,Pcbnew,9.0.0
; #@! TF.FileFunction,Plated,1,4,PTH
FMAT,2
INCH
; #@! TA.AperFunction,Plated,PTH,ComponentDrill
T1C0.0079
; #@! TA.AperFunction,Plated,PTH,ViaDrill
T2C0.0118
; #@! TA.AperFunction,Plated,PTH,ComponentDrill
T3C0.0118
; #@! TA.AperFunction,Plated,PTH,ComponentDrill
T4C0.0236
; #@! TA.AperFunction,Plated,PTH,ComponentDrill
T5C0.0374
; #@! TA.AperFunction,Plated,PTH,ComponentDrill
T6C0.0394
; #@! TA.AperFunction,Plated,PTH,ComponentDrill
T7C0.1378
%
G90
G05
T1
X5.4642Y-3.2303
X5.4642Y-3.2854
X5.4917Y-3.2028
X5.4917Y-3.2579
X5.4917Y-3.313
X5.5193Y-3.2303
X5.5193Y-3.2854
X5.5469Y-3.2028
X5.5469Y-3.2579
X5.5469Y-3.313
X5.5744Y-3.2303
X5.5744Y-3.2854
T2
X3.3465Y-3.7992
X3.3465Y-3.8976
X3.4646Y-4.0551
X3.563Y-3.2874
X3.563Y-3.3563
X3.563Y-3.7598
X3.563Y-3.8189
X3.563Y-4.0551
X3.5728Y-3.2185
X3.5827Y-2.7756
X3.6417Y-3.5039
X3.7008Y-2.7756
X3.7008Y-4.252
X3.7303Y-1.8898
X3.7303Y-2.0571
X3.7402Y-2.9724
X3.7402Y-3.1201
X3.8287Y-2.3622
X3.8386Y-3.7598
X3.8386Y-3.8189
X3.8386Y-4.311
X3.8583Y-2.1654
X3.8976Y-3.2185
X3.8976Y-3.2874
X3.8976Y-3.3563
X3.937Y-3.3661
X3.9567Y-3.6024
X3.9961Y-4.3701
X4.0157Y-3.4911
X4.065Y-2.3622
X4.0748Y-3.0315
X4.0748Y-3.1299
X4.0748Y-4.4291
X4.0846Y-2.185
X4.1043Y-2.4705
X4.1535Y-2.4409
X4.1831Y-1.8898
X4.1831Y-2.0472
X4.2323Y-4.252
X4.2323Y-4.311
X4.2323Y-4.3701
X4.2323Y-4.4291
X4.2815Y-2.4705
X4.2913Y-2.2835
X4.311Y-2.4409
X4.311Y-3.0315
X4.3898Y-4.0551
X4.4882Y-4.0551
X4.5276Y-3.6516
X4.626Y-4.252
X4.7441Y-3.7795
X4.7638Y-3.6614
X4.7835Y-4.311
X4.7933Y-2.9921
X4.7933Y-3.1102
X4.7933Y-3.2283
X4.7933Y-3.3465
X4.7933Y-3.4646
X4.9409Y-2.3031
X4.9803Y-3.6614
X4.9803Y-4.3701
X4.9803Y-4.4291
X5.0295Y-2.3031
X5.0394Y-3.0906
X5.0394Y-3.6024
X5.1378Y-2.4409
X5.1378Y-2.4902
X5.1575Y-4.252
X5.1575Y-4.311
X5.1575Y-4.3701
X5.1575Y-4.4291
X5.1929Y-3.8504
X5.2461Y-3.8976
X5.2756Y-2.5787
X5.2953Y-2.7067
X5.315Y-2.7756
X5.315Y-4.0551
X5.3248Y-3.9567
X5.3937Y-2.2047
X5.3937Y-2.6378
X5.4134Y-2.5984
X5.4134Y-4.0551
X5.4232Y-2.9035
X5.4232Y-3.7598
X5.4528Y-2.8543
X5.4724Y-3.7598
X5.502Y-2.9035
X5.5217Y-3.7598
X5.5315Y-2.7756
X5.6102Y-2.874
X5.6496Y-2.9035
X5.689Y-3.9173
X5.8268Y-2.8937
X5.8268Y-3.7402
X5.8661Y-3.5335
X5.8661Y-3.5728
X5.8957Y-3.8583
X5.9055Y-2.5394
X5.9055Y-2.6575
X5.9055Y-2.7756
X5.9646Y-2.4213
X5.9646Y-2.4803
X6.0531Y-3.6037
X6.0827Y-3.7809
X6.1516Y-3.7992
X6.2008Y-3.5138
X6.2106Y-4.0256
X6.2697Y-2.7067
X6.2697Y-2.9528
X6.2894Y-3.5138
X6.2894Y-4.0256
X6.3091Y-2.1555
X6.3189Y-4.466
X6.3681Y-3.7992
X6.378Y-3.5138
X6.3976Y-3.1201
X6.3976Y-3.2185
X6.3976Y-3.3169
X6.437Y-4.4651
X6.4764Y-2.6506
X6.4764Y-3.0148
X6.5059Y-3.6122
X6.5354Y-4.1535
X6.5551Y-3.7205
X6.5551Y-4.2224
X6.5551Y-4.4685
X6.5846Y-4.1437
X6.6043Y-3.6122
X6.6142Y-2.3524
X6.6142Y-2.5492
X6.6535Y-3.7205
X6.6929Y-4.1437
X6.7028Y-3.6122
X6.8012Y-3.7697
X6.8996Y-3.7697
X6.998Y-3.7697
T3
X3.6352Y-3.7677
X3.6352Y-3.815
X3.6785Y-3.7677
X3.6785Y-3.815
X3.7297Y-3.7677
X3.7297Y-3.815
X3.777Y-3.7677
X3.777Y-3.815
T5
X3.4646Y-4.1339
X3.563Y-4.1339
X3.6614Y-4.1339
X3.7598Y-4.1339
X3.8583Y-4.1339
X3.9567Y-4.1339
X4.0551Y-4.1339
X4.1535Y-4.1339
X4.3898Y-4.1339
X4.4882Y-4.1339
X4.5866Y-4.1339
X4.685Y-4.1339
X4.7835Y-4.1339
X4.8819Y-4.1339
X4.9803Y-4.1339
X5.0787Y-4.1339
X5.315Y-4.1339
X5.4134Y-4.1339
X5.5118Y-4.1339
X5.6102Y-4.1339
X5.7087Y-4.1339
X5.8071Y-4.1339
X5.9055Y-4.1339
X6.0039Y-4.1339
X6.6949Y-2.3524
X6.6949Y-2.4508
X6.6949Y-2.5492
X6.6949Y-3.1201
X6.6949Y-3.2185
X6.6949Y-3.3169
T6
X6.4996Y-3.8583
X6.5996Y-3.8583
X6.6929Y-4.2913
X6.6929Y-4.3898
X6.6949Y-2.0177
X6.6949Y-2.1161
X6.6949Y-2.7854
X6.6949Y-2.8839
X6.6996Y-3.8583
X6.7996Y-3.8583
X6.8996Y-3.8583
X6.998Y-4.0157
X6.9996Y-3.8583
T7
X3.3661Y-3.4252
X4.6063Y-3.4252
T4
G00X3.7866Y-1.9053
M15
G01X3.7866Y-1.8738
M16
G05
G00X3.7866Y-2.0758
M15
G01X3.7866Y-2.0325
M16
G05
G00X4.1268Y-1.9053
M15
G01X4.1268Y-1.8738
M16
G05
G00X4.1268Y-2.0758
M15
G01X4.1268Y-2.0325
M16
G05
M30
