%TF.GenerationSoftware,KiCad,Pcbnew,8.0.5*%
%TF.CreationDate,2024-10-15T16:33:48+02:00*%
%TF.ProjectId,Leiterkarte-v2,4c656974-6572-46b6-9172-74652d76322e,rev?*%
%TF.SameCoordinates,Original*%
%TF.FileFunction,Copper,L2,Inr*%
%TF.FilePolarity,Positive*%
%FSLAX46Y46*%
G04 Gerber Fmt 4.6, Leading zero omitted, Abs format (unit mm)*
G04 Created by KiCad (PCBNEW 8.0.5) date 2024-10-15 16:33:48*
%MOMM*%
%LPD*%
G01*
G04 APERTURE LIST*
%TA.AperFunction,HeatsinkPad*%
%ADD10C,0.600000*%
%TD*%
%TA.AperFunction,ComponentPad*%
%ADD11R,1.700000X1.700000*%
%TD*%
%TA.AperFunction,ComponentPad*%
%ADD12O,1.700000X1.700000*%
%TD*%
%TA.AperFunction,ComponentPad*%
%ADD13O,1.000000X1.800000*%
%TD*%
%TA.AperFunction,ComponentPad*%
%ADD14O,1.000000X2.100000*%
%TD*%
%TA.AperFunction,ComponentPad*%
%ADD15C,6.400000*%
%TD*%
%TA.AperFunction,ComponentPad*%
%ADD16C,0.600000*%
%TD*%
%TA.AperFunction,ViaPad*%
%ADD17C,0.600000*%
%TD*%
G04 APERTURE END LIST*
D10*
%TO.N,GND*%
%TO.C,ESP1*%
X109640000Y-76700000D03*
X111040000Y-76700000D03*
X108940000Y-76000000D03*
X110340000Y-76000000D03*
X111740000Y-76000000D03*
X109640000Y-75300000D03*
X111040000Y-75300000D03*
X108940000Y-74600000D03*
X110340000Y-74600000D03*
X111740000Y-74600000D03*
X109640000Y-73900000D03*
X111040000Y-73900000D03*
%TD*%
D11*
%TO.N,+3.3V*%
%TO.C,Buttons1*%
X151100000Y-103400000D03*
D12*
X151100000Y-105940000D03*
X151100000Y-108480000D03*
%TO.N,Button1*%
X151100000Y-111020000D03*
%TO.N,Button2*%
X151100000Y-113560000D03*
%TO.N,Button3*%
X151100000Y-116100000D03*
%TD*%
D13*
%TO.N,GND*%
%TO.C,USBC1*%
X100880000Y-51200000D03*
X109520000Y-51200000D03*
D14*
X100880000Y-55380000D03*
X109520000Y-55380000D03*
%TD*%
D15*
%TO.N,Net-(Vcc1-Pin_1)*%
%TO.C,Vcc1*%
X90300000Y-90250000D03*
%TD*%
%TO.N,GND*%
%TO.C,GND1*%
X122100000Y-90250000D03*
%TD*%
D11*
%TO.N,Net-(RPM1-Pin_1)*%
%TO.C,RPM1*%
X151100000Y-99500000D03*
%TD*%
D16*
%TO.N,GND*%
%TO.C,5V1*%
X99750000Y-104350000D03*
X99750000Y-103250000D03*
X99750000Y-101950000D03*
X99750000Y-100750000D03*
X98550000Y-104350000D03*
X98550000Y-103250000D03*
X98550000Y-101950000D03*
X98550000Y-100750000D03*
%TD*%
D17*
%TO.N,GND*%
X140925000Y-79650000D03*
X140950000Y-83850000D03*
X108200000Y-51200000D03*
X107700000Y-59800000D03*
X102000000Y-71100000D03*
X92250000Y-67500000D03*
X136950000Y-68000000D03*
X143250000Y-94600000D03*
X121200000Y-76800000D03*
X128800000Y-55600000D03*
X148300000Y-101600000D03*
X118050000Y-87050000D03*
X138400000Y-57050000D03*
X107450000Y-104450000D03*
X109500000Y-57450000D03*
X140350000Y-89150000D03*
X138900000Y-88050000D03*
X122300000Y-65200000D03*
X95100000Y-103200000D03*
X99600000Y-55400000D03*
X100900000Y-57250000D03*
X99600000Y-51200000D03*
X141500000Y-100400000D03*
X137650000Y-87150000D03*
X106450000Y-100400000D03*
X93700000Y-116700000D03*
X122550000Y-101950000D03*
X126200000Y-76800000D03*
X119300000Y-68050000D03*
X130500000Y-57050000D03*
X106450000Y-97950000D03*
X103450000Y-60950000D03*
X93250000Y-70200000D03*
X91400000Y-82700000D03*
X131150000Y-71700000D03*
X147700000Y-94650000D03*
%TO.N,+3.3V*%
X143700000Y-89750000D03*
X127050000Y-74900000D03*
X117700000Y-69500000D03*
X115350000Y-108480000D03*
X126300000Y-74900000D03*
X106300000Y-108480000D03*
X95800000Y-73250000D03*
X143700000Y-88200000D03*
X92700000Y-112350000D03*
X116800000Y-69500000D03*
X143700000Y-86650000D03*
X92700000Y-113500000D03*
X120150000Y-74900000D03*
X93600000Y-78400000D03*
X93600000Y-77400000D03*
X121050000Y-74900000D03*
X114350000Y-108480000D03*
X105350000Y-108500000D03*
X94750000Y-73250000D03*
X120100000Y-65500000D03*
%TO.N,Net-(VRCond1-IN-)*%
X136300000Y-90900000D03*
X138950000Y-94500000D03*
%TO.N,VCC*%
X94000000Y-103650000D03*
X94000000Y-104450000D03*
X93150000Y-103650000D03*
X94000000Y-102900000D03*
X93150000Y-104450000D03*
X93150000Y-102900000D03*
%TO.N,+5V*%
X145150000Y-97950000D03*
X112650000Y-103550000D03*
X136700000Y-72000000D03*
X145150000Y-98900000D03*
X128900000Y-70750000D03*
X139750000Y-52050000D03*
X137550000Y-98950000D03*
X112650000Y-105250000D03*
X138450000Y-98950000D03*
X112650000Y-104400000D03*
X139500000Y-98950000D03*
X131550000Y-98950000D03*
X144250000Y-98900000D03*
%TO.N,Net-(ESP1-EN)*%
X115500000Y-69500000D03*
X98600000Y-67500000D03*
%TO.N,CLK*%
X111700000Y-87150000D03*
X119900000Y-105400000D03*
X119500000Y-113400000D03*
X95700000Y-113400000D03*
X107600000Y-113400000D03*
%TO.N,DIN*%
X106600000Y-112600000D03*
X118500000Y-112600000D03*
X96550000Y-111100000D03*
%TO.N,CS3*%
X110450000Y-87150000D03*
X120800000Y-103450000D03*
%TO.N,DC*%
X109600000Y-113400000D03*
X121500000Y-113400000D03*
X97700000Y-116900000D03*
%TO.N,RST*%
X122500000Y-113400000D03*
X110600000Y-113400000D03*
X122500000Y-117100000D03*
X110600000Y-117100000D03*
%TO.N,TEMP2*%
X113550000Y-73750000D03*
X109750000Y-70350000D03*
%TD*%
%TA.AperFunction,Conductor*%
%TO.N,GND*%
G36*
X144285180Y-48762826D02*
G01*
X144330935Y-48815630D01*
X144342141Y-48867141D01*
X144342141Y-78308532D01*
X144376249Y-78435828D01*
X144409195Y-78492891D01*
X144442141Y-78549955D01*
X144535327Y-78643141D01*
X144649455Y-78709033D01*
X144776749Y-78743141D01*
X144908533Y-78743141D01*
X154218141Y-78743141D01*
X154285180Y-78762826D01*
X154330935Y-78815630D01*
X154342141Y-78867141D01*
X154342141Y-117618141D01*
X154322456Y-117685180D01*
X154269652Y-117730935D01*
X154218141Y-117742141D01*
X122848868Y-117742141D01*
X122781829Y-117722456D01*
X122736074Y-117669652D01*
X122726130Y-117600494D01*
X122755155Y-117536938D01*
X122781826Y-117513826D01*
X122831128Y-117482143D01*
X122925377Y-117373373D01*
X122985165Y-117242457D01*
X123005647Y-117100000D01*
X122985165Y-116957543D01*
X122925377Y-116826627D01*
X122831128Y-116717857D01*
X122710053Y-116640047D01*
X122710051Y-116640046D01*
X122710049Y-116640045D01*
X122710050Y-116640045D01*
X122571963Y-116599500D01*
X122571961Y-116599500D01*
X122428039Y-116599500D01*
X122428036Y-116599500D01*
X122289949Y-116640045D01*
X122168873Y-116717856D01*
X122074623Y-116826626D01*
X122074622Y-116826628D01*
X122014834Y-116957543D01*
X121994353Y-117100000D01*
X122014834Y-117242456D01*
X122032959Y-117282143D01*
X122074623Y-117373373D01*
X122168872Y-117482143D01*
X122218171Y-117513826D01*
X122263926Y-117566629D01*
X122273870Y-117635787D01*
X122244845Y-117699343D01*
X122186067Y-117737118D01*
X122151132Y-117742141D01*
X110948868Y-117742141D01*
X110881829Y-117722456D01*
X110836074Y-117669652D01*
X110826130Y-117600494D01*
X110855155Y-117536938D01*
X110881826Y-117513826D01*
X110931128Y-117482143D01*
X111025377Y-117373373D01*
X111085165Y-117242457D01*
X111105647Y-117100000D01*
X111085165Y-116957543D01*
X111025377Y-116826627D01*
X110931128Y-116717857D01*
X110810053Y-116640047D01*
X110810051Y-116640046D01*
X110810049Y-116640045D01*
X110810050Y-116640045D01*
X110671963Y-116599500D01*
X110671961Y-116599500D01*
X110528039Y-116599500D01*
X110528036Y-116599500D01*
X110389949Y-116640045D01*
X110268873Y-116717856D01*
X110174623Y-116826626D01*
X110174622Y-116826628D01*
X110114834Y-116957543D01*
X110094353Y-117100000D01*
X110114834Y-117242456D01*
X110132959Y-117282143D01*
X110174623Y-117373373D01*
X110268872Y-117482143D01*
X110318171Y-117513826D01*
X110363926Y-117566629D01*
X110373870Y-117635787D01*
X110344845Y-117699343D01*
X110286067Y-117737118D01*
X110251132Y-117742141D01*
X90101317Y-117742141D01*
X90034278Y-117722456D01*
X90013636Y-117705822D01*
X89207814Y-116900000D01*
X97194353Y-116900000D01*
X97214834Y-117042456D01*
X97229802Y-117075230D01*
X97274623Y-117173373D01*
X97368872Y-117282143D01*
X97489947Y-117359953D01*
X97489950Y-117359954D01*
X97489949Y-117359954D01*
X97628036Y-117400499D01*
X97628038Y-117400500D01*
X97628039Y-117400500D01*
X97771962Y-117400500D01*
X97771962Y-117400499D01*
X97910053Y-117359953D01*
X98031128Y-117282143D01*
X98125377Y-117173373D01*
X98185165Y-117042457D01*
X98205647Y-116900000D01*
X98185165Y-116757543D01*
X98125377Y-116626627D01*
X98031128Y-116517857D01*
X97910053Y-116440047D01*
X97910051Y-116440046D01*
X97910049Y-116440045D01*
X97910050Y-116440045D01*
X97771963Y-116399500D01*
X97771961Y-116399500D01*
X97628039Y-116399500D01*
X97628036Y-116399500D01*
X97489949Y-116440045D01*
X97368873Y-116517856D01*
X97274623Y-116626626D01*
X97274622Y-116626628D01*
X97214834Y-116757543D01*
X97194353Y-116900000D01*
X89207814Y-116900000D01*
X88407814Y-116100000D01*
X150044417Y-116100000D01*
X150064699Y-116305932D01*
X150064700Y-116305934D01*
X150124768Y-116503954D01*
X150222315Y-116686450D01*
X150222317Y-116686452D01*
X150353589Y-116846410D01*
X150418890Y-116900000D01*
X150513550Y-116977685D01*
X150696046Y-117075232D01*
X150894066Y-117135300D01*
X150894065Y-117135300D01*
X150912529Y-117137118D01*
X151100000Y-117155583D01*
X151305934Y-117135300D01*
X151503954Y-117075232D01*
X151686450Y-116977685D01*
X151846410Y-116846410D01*
X151977685Y-116686450D01*
X152075232Y-116503954D01*
X152135300Y-116305934D01*
X152155583Y-116100000D01*
X152135300Y-115894066D01*
X152075232Y-115696046D01*
X151977685Y-115513550D01*
X151925702Y-115450209D01*
X151846410Y-115353589D01*
X151686452Y-115222317D01*
X151686453Y-115222317D01*
X151686450Y-115222315D01*
X151503954Y-115124768D01*
X151305934Y-115064700D01*
X151305932Y-115064699D01*
X151305934Y-115064699D01*
X151100000Y-115044417D01*
X150894067Y-115064699D01*
X150696043Y-115124769D01*
X150585898Y-115183643D01*
X150513550Y-115222315D01*
X150513548Y-115222316D01*
X150513547Y-115222317D01*
X150353589Y-115353589D01*
X150222317Y-115513547D01*
X150124769Y-115696043D01*
X150064699Y-115894067D01*
X150044417Y-116100000D01*
X88407814Y-116100000D01*
X86136819Y-113829005D01*
X86103334Y-113767682D01*
X86100500Y-113741324D01*
X86100500Y-112350000D01*
X92194353Y-112350000D01*
X92214834Y-112492456D01*
X92229560Y-112524700D01*
X92274623Y-112623373D01*
X92368872Y-112732143D01*
X92489947Y-112809953D01*
X92489949Y-112809953D01*
X92494882Y-112812207D01*
X92547685Y-112857964D01*
X92567367Y-112925004D01*
X92547680Y-112992043D01*
X92494882Y-113037793D01*
X92489948Y-113040046D01*
X92368873Y-113117856D01*
X92274623Y-113226626D01*
X92274622Y-113226628D01*
X92214834Y-113357543D01*
X92194353Y-113500000D01*
X92214834Y-113642456D01*
X92271225Y-113765932D01*
X92274623Y-113773373D01*
X92368872Y-113882143D01*
X92489947Y-113959953D01*
X92489950Y-113959954D01*
X92489949Y-113959954D01*
X92628036Y-114000499D01*
X92628038Y-114000500D01*
X92628039Y-114000500D01*
X92771962Y-114000500D01*
X92771962Y-114000499D01*
X92910053Y-113959953D01*
X93031128Y-113882143D01*
X93125377Y-113773373D01*
X93185165Y-113642457D01*
X93205647Y-113500000D01*
X93191269Y-113400000D01*
X95194353Y-113400000D01*
X95214834Y-113542456D01*
X95260504Y-113642457D01*
X95274623Y-113673373D01*
X95368872Y-113782143D01*
X95489947Y-113859953D01*
X95489950Y-113859954D01*
X95489949Y-113859954D01*
X95628036Y-113900499D01*
X95628038Y-113900500D01*
X95628039Y-113900500D01*
X95771962Y-113900500D01*
X95771962Y-113900499D01*
X95910053Y-113859953D01*
X96031128Y-113782143D01*
X96125377Y-113673373D01*
X96185165Y-113542457D01*
X96205647Y-113400000D01*
X107094353Y-113400000D01*
X107114834Y-113542456D01*
X107160504Y-113642457D01*
X107174623Y-113673373D01*
X107268872Y-113782143D01*
X107389947Y-113859953D01*
X107389950Y-113859954D01*
X107389949Y-113859954D01*
X107528036Y-113900499D01*
X107528038Y-113900500D01*
X107528039Y-113900500D01*
X107671962Y-113900500D01*
X107671962Y-113900499D01*
X107810053Y-113859953D01*
X107931128Y-113782143D01*
X108025377Y-113673373D01*
X108085165Y-113542457D01*
X108105647Y-113400000D01*
X109094353Y-113400000D01*
X109114834Y-113542456D01*
X109160504Y-113642457D01*
X109174623Y-113673373D01*
X109268872Y-113782143D01*
X109389947Y-113859953D01*
X109389950Y-113859954D01*
X109389949Y-113859954D01*
X109528036Y-113900499D01*
X109528038Y-113900500D01*
X109528039Y-113900500D01*
X109671962Y-113900500D01*
X109671962Y-113900499D01*
X109810053Y-113859953D01*
X109931128Y-113782143D01*
X110006287Y-113695403D01*
X110065064Y-113657629D01*
X110134934Y-113657629D01*
X110193712Y-113695403D01*
X110193713Y-113695404D01*
X110256341Y-113767682D01*
X110268872Y-113782143D01*
X110389947Y-113859953D01*
X110389950Y-113859954D01*
X110389949Y-113859954D01*
X110528036Y-113900499D01*
X110528038Y-113900500D01*
X110528039Y-113900500D01*
X110671962Y-113900500D01*
X110671962Y-113900499D01*
X110810053Y-113859953D01*
X110931128Y-113782143D01*
X111025377Y-113673373D01*
X111085165Y-113542457D01*
X111105647Y-113400000D01*
X118994353Y-113400000D01*
X119014834Y-113542456D01*
X119060504Y-113642457D01*
X119074623Y-113673373D01*
X119168872Y-113782143D01*
X119289947Y-113859953D01*
X119289950Y-113859954D01*
X119289949Y-113859954D01*
X119428036Y-113900499D01*
X119428038Y-113900500D01*
X119428039Y-113900500D01*
X119571962Y-113900500D01*
X119571962Y-113900499D01*
X119710053Y-113859953D01*
X119831128Y-113782143D01*
X119925377Y-113673373D01*
X119985165Y-113542457D01*
X120005647Y-113400000D01*
X120994353Y-113400000D01*
X121014834Y-113542456D01*
X121060504Y-113642457D01*
X121074623Y-113673373D01*
X121168872Y-113782143D01*
X121289947Y-113859953D01*
X121289950Y-113859954D01*
X121289949Y-113859954D01*
X121428036Y-113900499D01*
X121428038Y-113900500D01*
X121428039Y-113900500D01*
X121571962Y-113900500D01*
X121571962Y-113900499D01*
X121710053Y-113859953D01*
X121831128Y-113782143D01*
X121906287Y-113695403D01*
X121965064Y-113657629D01*
X122034934Y-113657629D01*
X122093712Y-113695403D01*
X122093713Y-113695404D01*
X122156341Y-113767682D01*
X122168872Y-113782143D01*
X122289947Y-113859953D01*
X122289950Y-113859954D01*
X122289949Y-113859954D01*
X122428036Y-113900499D01*
X122428038Y-113900500D01*
X122428039Y-113900500D01*
X122571962Y-113900500D01*
X122571962Y-113900499D01*
X122710053Y-113859953D01*
X122831128Y-113782143D01*
X122925377Y-113673373D01*
X122977153Y-113560000D01*
X150044417Y-113560000D01*
X150064699Y-113765932D01*
X150069617Y-113782143D01*
X150124768Y-113963954D01*
X150222315Y-114146450D01*
X150222317Y-114146452D01*
X150353589Y-114306410D01*
X150450209Y-114385702D01*
X150513550Y-114437685D01*
X150696046Y-114535232D01*
X150894066Y-114595300D01*
X150894065Y-114595300D01*
X150912529Y-114597118D01*
X151100000Y-114615583D01*
X151305934Y-114595300D01*
X151503954Y-114535232D01*
X151686450Y-114437685D01*
X151846410Y-114306410D01*
X151977685Y-114146450D01*
X152075232Y-113963954D01*
X152135300Y-113765934D01*
X152155583Y-113560000D01*
X152135300Y-113354066D01*
X152075232Y-113156046D01*
X151977685Y-112973550D01*
X151916914Y-112899500D01*
X151846410Y-112813589D01*
X151686452Y-112682317D01*
X151686453Y-112682317D01*
X151686450Y-112682315D01*
X151503954Y-112584768D01*
X151305934Y-112524700D01*
X151305932Y-112524699D01*
X151305934Y-112524699D01*
X151100000Y-112504417D01*
X150894067Y-112524699D01*
X150696043Y-112584769D01*
X150585898Y-112643643D01*
X150513550Y-112682315D01*
X150513548Y-112682316D01*
X150513547Y-112682317D01*
X150353589Y-112813589D01*
X150222317Y-112973547D01*
X150222315Y-112973550D01*
X150198633Y-113017856D01*
X150124769Y-113156043D01*
X150064699Y-113354067D01*
X150044417Y-113560000D01*
X122977153Y-113560000D01*
X122985165Y-113542457D01*
X123005647Y-113400000D01*
X122985165Y-113257543D01*
X122925377Y-113126627D01*
X122831128Y-113017857D01*
X122710053Y-112940047D01*
X122710051Y-112940046D01*
X122710049Y-112940045D01*
X122710050Y-112940045D01*
X122571963Y-112899500D01*
X122571961Y-112899500D01*
X122428039Y-112899500D01*
X122428036Y-112899500D01*
X122289949Y-112940045D01*
X122168873Y-113017856D01*
X122168872Y-113017856D01*
X122168872Y-113017857D01*
X122149645Y-113040047D01*
X122093713Y-113104596D01*
X122034935Y-113142370D01*
X121965065Y-113142370D01*
X121906287Y-113104596D01*
X121902737Y-113100499D01*
X121831128Y-113017857D01*
X121710053Y-112940047D01*
X121710051Y-112940046D01*
X121710049Y-112940045D01*
X121710050Y-112940045D01*
X121571963Y-112899500D01*
X121571961Y-112899500D01*
X121428039Y-112899500D01*
X121428036Y-112899500D01*
X121289949Y-112940045D01*
X121168873Y-113017856D01*
X121074623Y-113126626D01*
X121074622Y-113126628D01*
X121014834Y-113257543D01*
X120994353Y-113400000D01*
X120005647Y-113400000D01*
X119985165Y-113257543D01*
X119925377Y-113126627D01*
X119831128Y-113017857D01*
X119710053Y-112940047D01*
X119710051Y-112940046D01*
X119710049Y-112940045D01*
X119710050Y-112940045D01*
X119571963Y-112899500D01*
X119571961Y-112899500D01*
X119428039Y-112899500D01*
X119428036Y-112899500D01*
X119289949Y-112940045D01*
X119168873Y-113017856D01*
X119074623Y-113126626D01*
X119074622Y-113126628D01*
X119014834Y-113257543D01*
X118994353Y-113400000D01*
X111105647Y-113400000D01*
X111085165Y-113257543D01*
X111025377Y-113126627D01*
X110931128Y-113017857D01*
X110810053Y-112940047D01*
X110810051Y-112940046D01*
X110810049Y-112940045D01*
X110810050Y-112940045D01*
X110671963Y-112899500D01*
X110671961Y-112899500D01*
X110528039Y-112899500D01*
X110528036Y-112899500D01*
X110389949Y-112940045D01*
X110268873Y-113017856D01*
X110268872Y-113017856D01*
X110268872Y-113017857D01*
X110249645Y-113040047D01*
X110193713Y-113104596D01*
X110134935Y-113142370D01*
X110065065Y-113142370D01*
X110006287Y-113104596D01*
X110002737Y-113100499D01*
X109931128Y-113017857D01*
X109810053Y-112940047D01*
X109810051Y-112940046D01*
X109810049Y-112940045D01*
X109810050Y-112940045D01*
X109671963Y-112899500D01*
X109671961Y-112899500D01*
X109528039Y-112899500D01*
X109528036Y-112899500D01*
X109389949Y-112940045D01*
X109268873Y-113017856D01*
X109174623Y-113126626D01*
X109174622Y-113126628D01*
X109114834Y-113257543D01*
X109094353Y-113400000D01*
X108105647Y-113400000D01*
X108085165Y-113257543D01*
X108025377Y-113126627D01*
X107931128Y-113017857D01*
X107810053Y-112940047D01*
X107810051Y-112940046D01*
X107810049Y-112940045D01*
X107810050Y-112940045D01*
X107671963Y-112899500D01*
X107671961Y-112899500D01*
X107528039Y-112899500D01*
X107528036Y-112899500D01*
X107389949Y-112940045D01*
X107268873Y-113017856D01*
X107174623Y-113126626D01*
X107174622Y-113126628D01*
X107114834Y-113257543D01*
X107094353Y-113400000D01*
X96205647Y-113400000D01*
X96185165Y-113257543D01*
X96125377Y-113126627D01*
X96031128Y-113017857D01*
X95910053Y-112940047D01*
X95910051Y-112940046D01*
X95910049Y-112940045D01*
X95910050Y-112940045D01*
X95771963Y-112899500D01*
X95771961Y-112899500D01*
X95628039Y-112899500D01*
X95628036Y-112899500D01*
X95489949Y-112940045D01*
X95368873Y-113017856D01*
X95274623Y-113126626D01*
X95274622Y-113126628D01*
X95214834Y-113257543D01*
X95194353Y-113400000D01*
X93191269Y-113400000D01*
X93185165Y-113357543D01*
X93125377Y-113226627D01*
X93031128Y-113117857D01*
X92996581Y-113095655D01*
X92910051Y-113040045D01*
X92905120Y-113037794D01*
X92852316Y-112992039D01*
X92832632Y-112924999D01*
X92852317Y-112857960D01*
X92905120Y-112812206D01*
X92910051Y-112809954D01*
X92910053Y-112809953D01*
X93031128Y-112732143D01*
X93125377Y-112623373D01*
X93136051Y-112600000D01*
X106094353Y-112600000D01*
X106114834Y-112742456D01*
X106164177Y-112850500D01*
X106174623Y-112873373D01*
X106268872Y-112982143D01*
X106389947Y-113059953D01*
X106389950Y-113059954D01*
X106389949Y-113059954D01*
X106528036Y-113100499D01*
X106528038Y-113100500D01*
X106528039Y-113100500D01*
X106671962Y-113100500D01*
X106671962Y-113100499D01*
X106810053Y-113059953D01*
X106931128Y-112982143D01*
X107025377Y-112873373D01*
X107085165Y-112742457D01*
X107105647Y-112600000D01*
X117994353Y-112600000D01*
X118014834Y-112742456D01*
X118064177Y-112850500D01*
X118074623Y-112873373D01*
X118168872Y-112982143D01*
X118289947Y-113059953D01*
X118289950Y-113059954D01*
X118289949Y-113059954D01*
X118428036Y-113100499D01*
X118428038Y-113100500D01*
X118428039Y-113100500D01*
X118571962Y-113100500D01*
X118571962Y-113100499D01*
X118710053Y-113059953D01*
X118831128Y-112982143D01*
X118925377Y-112873373D01*
X118985165Y-112742457D01*
X119005647Y-112600000D01*
X118985165Y-112457543D01*
X118925377Y-112326627D01*
X118831128Y-112217857D01*
X118710053Y-112140047D01*
X118710051Y-112140046D01*
X118710049Y-112140045D01*
X118710050Y-112140045D01*
X118571963Y-112099500D01*
X118571961Y-112099500D01*
X118428039Y-112099500D01*
X118428036Y-112099500D01*
X118289949Y-112140045D01*
X118168873Y-112217856D01*
X118074623Y-112326626D01*
X118074622Y-112326628D01*
X118014834Y-112457543D01*
X117994353Y-112600000D01*
X107105647Y-112600000D01*
X107085165Y-112457543D01*
X107025377Y-112326627D01*
X106931128Y-112217857D01*
X106810053Y-112140047D01*
X106810051Y-112140046D01*
X106810049Y-112140045D01*
X106810050Y-112140045D01*
X106671963Y-112099500D01*
X106671961Y-112099500D01*
X106528039Y-112099500D01*
X106528036Y-112099500D01*
X106389949Y-112140045D01*
X106268873Y-112217856D01*
X106174623Y-112326626D01*
X106174622Y-112326628D01*
X106114834Y-112457543D01*
X106094353Y-112600000D01*
X93136051Y-112600000D01*
X93185165Y-112492457D01*
X93205647Y-112350000D01*
X93185165Y-112207543D01*
X93125377Y-112076627D01*
X93031128Y-111967857D01*
X92910053Y-111890047D01*
X92910051Y-111890046D01*
X92910049Y-111890045D01*
X92910050Y-111890045D01*
X92771963Y-111849500D01*
X92771961Y-111849500D01*
X92628039Y-111849500D01*
X92628036Y-111849500D01*
X92489949Y-111890045D01*
X92368873Y-111967856D01*
X92274623Y-112076626D01*
X92274622Y-112076628D01*
X92214834Y-112207543D01*
X92194353Y-112350000D01*
X86100500Y-112350000D01*
X86100500Y-111100000D01*
X96044353Y-111100000D01*
X96064834Y-111242456D01*
X96124622Y-111373371D01*
X96124623Y-111373373D01*
X96218872Y-111482143D01*
X96339947Y-111559953D01*
X96339950Y-111559954D01*
X96339949Y-111559954D01*
X96478036Y-111600499D01*
X96478038Y-111600500D01*
X96478039Y-111600500D01*
X96621962Y-111600500D01*
X96621962Y-111600499D01*
X96760053Y-111559953D01*
X96881128Y-111482143D01*
X96975377Y-111373373D01*
X97035165Y-111242457D01*
X97055647Y-111100000D01*
X97044145Y-111020000D01*
X150044417Y-111020000D01*
X150064699Y-111225932D01*
X150064700Y-111225934D01*
X150124768Y-111423954D01*
X150222315Y-111606450D01*
X150222317Y-111606452D01*
X150353589Y-111766410D01*
X150450209Y-111845702D01*
X150513550Y-111897685D01*
X150696046Y-111995232D01*
X150894066Y-112055300D01*
X150894065Y-112055300D01*
X150912529Y-112057118D01*
X151100000Y-112075583D01*
X151305934Y-112055300D01*
X151503954Y-111995232D01*
X151686450Y-111897685D01*
X151846410Y-111766410D01*
X151977685Y-111606450D01*
X152075232Y-111423954D01*
X152135300Y-111225934D01*
X152155583Y-111020000D01*
X152135300Y-110814066D01*
X152075232Y-110616046D01*
X151977685Y-110433550D01*
X151925702Y-110370209D01*
X151846410Y-110273589D01*
X151686452Y-110142317D01*
X151686453Y-110142317D01*
X151686450Y-110142315D01*
X151503954Y-110044768D01*
X151305934Y-109984700D01*
X151305932Y-109984699D01*
X151305934Y-109984699D01*
X151100000Y-109964417D01*
X150894067Y-109984699D01*
X150696043Y-110044769D01*
X150585898Y-110103643D01*
X150513550Y-110142315D01*
X150513548Y-110142316D01*
X150513547Y-110142317D01*
X150353589Y-110273589D01*
X150222317Y-110433547D01*
X150124769Y-110616043D01*
X150064699Y-110814067D01*
X150044417Y-111020000D01*
X97044145Y-111020000D01*
X97035165Y-110957543D01*
X96975377Y-110826627D01*
X96881128Y-110717857D01*
X96760053Y-110640047D01*
X96760051Y-110640046D01*
X96760049Y-110640045D01*
X96760050Y-110640045D01*
X96621963Y-110599500D01*
X96621961Y-110599500D01*
X96478039Y-110599500D01*
X96478036Y-110599500D01*
X96339949Y-110640045D01*
X96218873Y-110717856D01*
X96124623Y-110826626D01*
X96124622Y-110826628D01*
X96064834Y-110957543D01*
X96044353Y-111100000D01*
X86100500Y-111100000D01*
X86100500Y-108500000D01*
X104844353Y-108500000D01*
X104864834Y-108642456D01*
X104908299Y-108737629D01*
X104924623Y-108773373D01*
X105018872Y-108882143D01*
X105139947Y-108959953D01*
X105139950Y-108959954D01*
X105139949Y-108959954D01*
X105278036Y-109000499D01*
X105278038Y-109000500D01*
X105278039Y-109000500D01*
X105421962Y-109000500D01*
X105421962Y-109000499D01*
X105560053Y-108959953D01*
X105681128Y-108882143D01*
X105739952Y-108814256D01*
X105798730Y-108776481D01*
X105868599Y-108776481D01*
X105927376Y-108814253D01*
X105968872Y-108862143D01*
X106089947Y-108939953D01*
X106089950Y-108939954D01*
X106089949Y-108939954D01*
X106228036Y-108980499D01*
X106228038Y-108980500D01*
X106228039Y-108980500D01*
X106371962Y-108980500D01*
X106371962Y-108980499D01*
X106510053Y-108939953D01*
X106631128Y-108862143D01*
X106725377Y-108753373D01*
X106785165Y-108622457D01*
X106805647Y-108480000D01*
X113844353Y-108480000D01*
X113864834Y-108622456D01*
X113879566Y-108654714D01*
X113924623Y-108753373D01*
X114018872Y-108862143D01*
X114139947Y-108939953D01*
X114139950Y-108939954D01*
X114139949Y-108939954D01*
X114278036Y-108980499D01*
X114278038Y-108980500D01*
X114278039Y-108980500D01*
X114421962Y-108980500D01*
X114421962Y-108980499D01*
X114560053Y-108939953D01*
X114681128Y-108862143D01*
X114756287Y-108775403D01*
X114815064Y-108737629D01*
X114884934Y-108737629D01*
X114943711Y-108775402D01*
X115018872Y-108862143D01*
X115139947Y-108939953D01*
X115139950Y-108939954D01*
X115139949Y-108939954D01*
X115278036Y-108980499D01*
X115278038Y-108980500D01*
X115278039Y-108980500D01*
X115421962Y-108980500D01*
X115421962Y-108980499D01*
X115560053Y-108939953D01*
X115681128Y-108862143D01*
X115775377Y-108753373D01*
X115835165Y-108622457D01*
X115855647Y-108480000D01*
X150044417Y-108480000D01*
X150064699Y-108685932D01*
X150085157Y-108753373D01*
X150124768Y-108883954D01*
X150222315Y-109066450D01*
X150222317Y-109066452D01*
X150353589Y-109226410D01*
X150450209Y-109305702D01*
X150513550Y-109357685D01*
X150696046Y-109455232D01*
X150894066Y-109515300D01*
X150894065Y-109515300D01*
X150912529Y-109517118D01*
X151100000Y-109535583D01*
X151305934Y-109515300D01*
X151503954Y-109455232D01*
X151686450Y-109357685D01*
X151846410Y-109226410D01*
X151977685Y-109066450D01*
X152075232Y-108883954D01*
X152135300Y-108685934D01*
X152155583Y-108480000D01*
X152135300Y-108274066D01*
X152075232Y-108076046D01*
X151977685Y-107893550D01*
X151925702Y-107830209D01*
X151846410Y-107733589D01*
X151686452Y-107602317D01*
X151686453Y-107602317D01*
X151686450Y-107602315D01*
X151503954Y-107504768D01*
X151305934Y-107444700D01*
X151305932Y-107444699D01*
X151305934Y-107444699D01*
X151100000Y-107424417D01*
X150894067Y-107444699D01*
X150696043Y-107504769D01*
X150585898Y-107563643D01*
X150513550Y-107602315D01*
X150513548Y-107602316D01*
X150513547Y-107602317D01*
X150353589Y-107733589D01*
X150222317Y-107893547D01*
X150124769Y-108076043D01*
X150064699Y-108274067D01*
X150044417Y-108480000D01*
X115855647Y-108480000D01*
X115835165Y-108337543D01*
X115775377Y-108206627D01*
X115681128Y-108097857D01*
X115560053Y-108020047D01*
X115560051Y-108020046D01*
X115560049Y-108020045D01*
X115560050Y-108020045D01*
X115421963Y-107979500D01*
X115421961Y-107979500D01*
X115278039Y-107979500D01*
X115278036Y-107979500D01*
X115139949Y-108020045D01*
X115018873Y-108097856D01*
X114943713Y-108184596D01*
X114884935Y-108222370D01*
X114815065Y-108222370D01*
X114756287Y-108184596D01*
X114681128Y-108097857D01*
X114560053Y-108020047D01*
X114560051Y-108020046D01*
X114560049Y-108020045D01*
X114560050Y-108020045D01*
X114421963Y-107979500D01*
X114421961Y-107979500D01*
X114278039Y-107979500D01*
X114278036Y-107979500D01*
X114139949Y-108020045D01*
X114018873Y-108097856D01*
X113924623Y-108206626D01*
X113924622Y-108206628D01*
X113864834Y-108337543D01*
X113844353Y-108480000D01*
X106805647Y-108480000D01*
X106785165Y-108337543D01*
X106725377Y-108206627D01*
X106631128Y-108097857D01*
X106510053Y-108020047D01*
X106510051Y-108020046D01*
X106510049Y-108020045D01*
X106510050Y-108020045D01*
X106371963Y-107979500D01*
X106371961Y-107979500D01*
X106228039Y-107979500D01*
X106228036Y-107979500D01*
X106089949Y-108020045D01*
X105968872Y-108097856D01*
X105910046Y-108165745D01*
X105851268Y-108203518D01*
X105781398Y-108203518D01*
X105722621Y-108165743D01*
X105681128Y-108117857D01*
X105560053Y-108040047D01*
X105560051Y-108040046D01*
X105560049Y-108040045D01*
X105560050Y-108040045D01*
X105421963Y-107999500D01*
X105421961Y-107999500D01*
X105278039Y-107999500D01*
X105278036Y-107999500D01*
X105139949Y-108040045D01*
X105018873Y-108117856D01*
X104924623Y-108226626D01*
X104924622Y-108226628D01*
X104864834Y-108357543D01*
X104844353Y-108500000D01*
X86100500Y-108500000D01*
X86100500Y-105940000D01*
X150044417Y-105940000D01*
X150064699Y-106145932D01*
X150064700Y-106145934D01*
X150124768Y-106343954D01*
X150222315Y-106526450D01*
X150222317Y-106526452D01*
X150353589Y-106686410D01*
X150450209Y-106765702D01*
X150513550Y-106817685D01*
X150696046Y-106915232D01*
X150894066Y-106975300D01*
X150894065Y-106975300D01*
X150912529Y-106977118D01*
X151100000Y-106995583D01*
X151305934Y-106975300D01*
X151503954Y-106915232D01*
X151686450Y-106817685D01*
X151846410Y-106686410D01*
X151977685Y-106526450D01*
X152075232Y-106343954D01*
X152135300Y-106145934D01*
X152155583Y-105940000D01*
X152135300Y-105734066D01*
X152075232Y-105536046D01*
X151977685Y-105353550D01*
X151898895Y-105257543D01*
X151846410Y-105193589D01*
X151702314Y-105075334D01*
X151686450Y-105062315D01*
X151503954Y-104964768D01*
X151305934Y-104904700D01*
X151305932Y-104904699D01*
X151305934Y-104904699D01*
X151100000Y-104884417D01*
X150894067Y-104904699D01*
X150696043Y-104964769D01*
X150596726Y-105017856D01*
X150513550Y-105062315D01*
X150513548Y-105062316D01*
X150513547Y-105062317D01*
X150353589Y-105193589D01*
X150222317Y-105353547D01*
X150124769Y-105536043D01*
X150064699Y-105734067D01*
X150044417Y-105940000D01*
X86100500Y-105940000D01*
X86100500Y-105066660D01*
X98186892Y-105066660D01*
X98186892Y-105066661D01*
X98200692Y-105075333D01*
X98200691Y-105075333D01*
X98370861Y-105134878D01*
X98549997Y-105155062D01*
X98550003Y-105155062D01*
X98729138Y-105134878D01*
X98729141Y-105134877D01*
X98899305Y-105075334D01*
X98899306Y-105075334D01*
X98913106Y-105066661D01*
X98913106Y-105066660D01*
X99386892Y-105066660D01*
X99386892Y-105066661D01*
X99400692Y-105075333D01*
X99400691Y-105075333D01*
X99570861Y-105134878D01*
X99749997Y-105155062D01*
X99750003Y-105155062D01*
X99929138Y-105134878D01*
X99929141Y-105134877D01*
X100099305Y-105075334D01*
X100099306Y-105075334D01*
X100113106Y-105066661D01*
X100113106Y-105066660D01*
X99750001Y-104703553D01*
X99750000Y-104703553D01*
X99386892Y-105066660D01*
X98913106Y-105066660D01*
X98550001Y-104703553D01*
X98550000Y-104703553D01*
X98186892Y-105066660D01*
X86100500Y-105066660D01*
X86100500Y-102900000D01*
X92644353Y-102900000D01*
X92664834Y-103042456D01*
X92724622Y-103173371D01*
X92724625Y-103173377D01*
X92742321Y-103193799D01*
X92771345Y-103257355D01*
X92761401Y-103326513D01*
X92742321Y-103356201D01*
X92724625Y-103376622D01*
X92724622Y-103376628D01*
X92664834Y-103507543D01*
X92644353Y-103650000D01*
X92664834Y-103792456D01*
X92724622Y-103923371D01*
X92724625Y-103923377D01*
X92763983Y-103968798D01*
X92793008Y-104032353D01*
X92783064Y-104101512D01*
X92763983Y-104131202D01*
X92724625Y-104176622D01*
X92724622Y-104176628D01*
X92664834Y-104307543D01*
X92644353Y-104450000D01*
X92664834Y-104592456D01*
X92713631Y-104699304D01*
X92724623Y-104723373D01*
X92818872Y-104832143D01*
X92939947Y-104909953D01*
X92939950Y-104909954D01*
X92939949Y-104909954D01*
X93078036Y-104950499D01*
X93078038Y-104950500D01*
X93078039Y-104950500D01*
X93221962Y-104950500D01*
X93221962Y-104950499D01*
X93360053Y-104909953D01*
X93481128Y-104832143D01*
X93481285Y-104831961D01*
X93481486Y-104831832D01*
X93487828Y-104826337D01*
X93488617Y-104827248D01*
X93540059Y-104794186D01*
X93609929Y-104794182D01*
X93661384Y-104827246D01*
X93662172Y-104826337D01*
X93668492Y-104831813D01*
X93668705Y-104831950D01*
X93668872Y-104832143D01*
X93668873Y-104832144D01*
X93702534Y-104853776D01*
X93789947Y-104909953D01*
X93789950Y-104909954D01*
X93789949Y-104909954D01*
X93928036Y-104950499D01*
X93928038Y-104950500D01*
X93928039Y-104950500D01*
X94071962Y-104950500D01*
X94071962Y-104950499D01*
X94210053Y-104909953D01*
X94331128Y-104832143D01*
X94425377Y-104723373D01*
X94485165Y-104592457D01*
X94505647Y-104450000D01*
X94491269Y-104349997D01*
X97744938Y-104349997D01*
X97744938Y-104350002D01*
X97765121Y-104529138D01*
X97824665Y-104699304D01*
X97833338Y-104713107D01*
X98196446Y-104350000D01*
X98196446Y-104349999D01*
X98166610Y-104320163D01*
X98400000Y-104320163D01*
X98400000Y-104379837D01*
X98422836Y-104434968D01*
X98465032Y-104477164D01*
X98520163Y-104500000D01*
X98579837Y-104500000D01*
X98634968Y-104477164D01*
X98677164Y-104434968D01*
X98700000Y-104379837D01*
X98700000Y-104349999D01*
X98903553Y-104349999D01*
X99150000Y-104596446D01*
X99396446Y-104350001D01*
X99396446Y-104350000D01*
X99366609Y-104320163D01*
X99600000Y-104320163D01*
X99600000Y-104379837D01*
X99622836Y-104434968D01*
X99665032Y-104477164D01*
X99720163Y-104500000D01*
X99779837Y-104500000D01*
X99834968Y-104477164D01*
X99877164Y-104434968D01*
X99900000Y-104379837D01*
X99900000Y-104350000D01*
X100103553Y-104350000D01*
X100466660Y-104713106D01*
X100466661Y-104713106D01*
X100475334Y-104699306D01*
X100475334Y-104699305D01*
X100534877Y-104529141D01*
X100534878Y-104529138D01*
X100555062Y-104350002D01*
X100555062Y-104349997D01*
X100534878Y-104170861D01*
X100475333Y-104000692D01*
X100466661Y-103986892D01*
X100466660Y-103986892D01*
X100103553Y-104350000D01*
X99900000Y-104350000D01*
X99900000Y-104320163D01*
X99877164Y-104265032D01*
X99834968Y-104222836D01*
X99779837Y-104200000D01*
X99720163Y-104200000D01*
X99665032Y-104222836D01*
X99622836Y-104265032D01*
X99600000Y-104320163D01*
X99366609Y-104320163D01*
X99150000Y-104103553D01*
X98903553Y-104349999D01*
X98700000Y-104349999D01*
X98700000Y-104320163D01*
X98677164Y-104265032D01*
X98634968Y-104222836D01*
X98579837Y-104200000D01*
X98520163Y-104200000D01*
X98465032Y-104222836D01*
X98422836Y-104265032D01*
X98400000Y-104320163D01*
X98166610Y-104320163D01*
X97833338Y-103986891D01*
X97833337Y-103986891D01*
X97824667Y-104000691D01*
X97824662Y-104000701D01*
X97765122Y-104170858D01*
X97765121Y-104170861D01*
X97744938Y-104349997D01*
X94491269Y-104349997D01*
X94485165Y-104307543D01*
X94425377Y-104176627D01*
X94425375Y-104176625D01*
X94425374Y-104176622D01*
X94386017Y-104131203D01*
X94356991Y-104067648D01*
X94366934Y-103998489D01*
X94386017Y-103968797D01*
X94425374Y-103923377D01*
X94425374Y-103923375D01*
X94425377Y-103923373D01*
X94481721Y-103799999D01*
X98353553Y-103799999D01*
X98550000Y-103996446D01*
X98746446Y-103800001D01*
X98746446Y-103800000D01*
X98746445Y-103799999D01*
X99553553Y-103799999D01*
X99750000Y-103996446D01*
X99946446Y-103800001D01*
X99946446Y-103800000D01*
X99750000Y-103603553D01*
X99553553Y-103799999D01*
X98746445Y-103799999D01*
X98550000Y-103603553D01*
X98353553Y-103799999D01*
X94481721Y-103799999D01*
X94485165Y-103792457D01*
X94505647Y-103650000D01*
X94485165Y-103507543D01*
X94425377Y-103376627D01*
X94425375Y-103376625D01*
X94425374Y-103376622D01*
X94407680Y-103356203D01*
X94378654Y-103292648D01*
X94384786Y-103249997D01*
X97744938Y-103249997D01*
X97744938Y-103250002D01*
X97765121Y-103429138D01*
X97824665Y-103599304D01*
X97833338Y-103613107D01*
X98196446Y-103250000D01*
X98196446Y-103249999D01*
X98166610Y-103220163D01*
X98400000Y-103220163D01*
X98400000Y-103279837D01*
X98422836Y-103334968D01*
X98465032Y-103377164D01*
X98520163Y-103400000D01*
X98579837Y-103400000D01*
X98634968Y-103377164D01*
X98677164Y-103334968D01*
X98700000Y-103279837D01*
X98700000Y-103249999D01*
X98903553Y-103249999D01*
X99150000Y-103496446D01*
X99396446Y-103250001D01*
X99396446Y-103250000D01*
X99366609Y-103220163D01*
X99600000Y-103220163D01*
X99600000Y-103279837D01*
X99622836Y-103334968D01*
X99665032Y-103377164D01*
X99720163Y-103400000D01*
X99779837Y-103400000D01*
X99834968Y-103377164D01*
X99877164Y-103334968D01*
X99900000Y-103279837D01*
X99900000Y-103250000D01*
X100103553Y-103250000D01*
X100466660Y-103613106D01*
X100466661Y-103613106D01*
X100475334Y-103599306D01*
X100475334Y-103599305D01*
X100492587Y-103550000D01*
X112144353Y-103550000D01*
X112164834Y-103692456D01*
X112210504Y-103792457D01*
X112224623Y-103823373D01*
X112277697Y-103884624D01*
X112285646Y-103893798D01*
X112314670Y-103957354D01*
X112304726Y-104026512D01*
X112285646Y-104056202D01*
X112224623Y-104126627D01*
X112224622Y-104126628D01*
X112164834Y-104257543D01*
X112144353Y-104400000D01*
X112164834Y-104542456D01*
X112187669Y-104592456D01*
X112224623Y-104673373D01*
X112267946Y-104723371D01*
X112285646Y-104743798D01*
X112314670Y-104807354D01*
X112304726Y-104876512D01*
X112285646Y-104906202D01*
X112224623Y-104976627D01*
X112224622Y-104976628D01*
X112164834Y-105107543D01*
X112144353Y-105250000D01*
X112164834Y-105392456D01*
X112224622Y-105523371D01*
X112224623Y-105523373D01*
X112318872Y-105632143D01*
X112439947Y-105709953D01*
X112439950Y-105709954D01*
X112439949Y-105709954D01*
X112578036Y-105750499D01*
X112578038Y-105750500D01*
X112578039Y-105750500D01*
X112721962Y-105750500D01*
X112721962Y-105750499D01*
X112860053Y-105709953D01*
X112981128Y-105632143D01*
X113075377Y-105523373D01*
X113131720Y-105400000D01*
X119394353Y-105400000D01*
X119414834Y-105542456D01*
X119474622Y-105673371D01*
X119474623Y-105673373D01*
X119568872Y-105782143D01*
X119689947Y-105859953D01*
X119689950Y-105859954D01*
X119689949Y-105859954D01*
X119828036Y-105900499D01*
X119828038Y-105900500D01*
X119828039Y-105900500D01*
X119971962Y-105900500D01*
X119971962Y-105900499D01*
X120110053Y-105859953D01*
X120231128Y-105782143D01*
X120325377Y-105673373D01*
X120385165Y-105542457D01*
X120405647Y-105400000D01*
X120385165Y-105257543D01*
X120325377Y-105126627D01*
X120231128Y-105017857D01*
X120110053Y-104940047D01*
X120110051Y-104940046D01*
X120110049Y-104940045D01*
X120110050Y-104940045D01*
X119971963Y-104899500D01*
X119971961Y-104899500D01*
X119828039Y-104899500D01*
X119828036Y-104899500D01*
X119689949Y-104940045D01*
X119568873Y-105017856D01*
X119474623Y-105126626D01*
X119474622Y-105126628D01*
X119414834Y-105257543D01*
X119394353Y-105400000D01*
X113131720Y-105400000D01*
X113135165Y-105392457D01*
X113155647Y-105250000D01*
X113135165Y-105107543D01*
X113075377Y-104976627D01*
X113014353Y-104906201D01*
X112985329Y-104842647D01*
X112995273Y-104773489D01*
X113014351Y-104743800D01*
X113075377Y-104673373D01*
X113135165Y-104542457D01*
X113155647Y-104400000D01*
X113135165Y-104257543D01*
X113075377Y-104126627D01*
X113014353Y-104056201D01*
X112985329Y-103992647D01*
X112995273Y-103923489D01*
X113014351Y-103893800D01*
X113075377Y-103823373D01*
X113135165Y-103692457D01*
X113155647Y-103550000D01*
X113141269Y-103450000D01*
X120294353Y-103450000D01*
X120314834Y-103592456D01*
X120360504Y-103692457D01*
X120374623Y-103723373D01*
X120468872Y-103832143D01*
X120589947Y-103909953D01*
X120589950Y-103909954D01*
X120589949Y-103909954D01*
X120728036Y-103950499D01*
X120728038Y-103950500D01*
X120728039Y-103950500D01*
X120871962Y-103950500D01*
X120871962Y-103950499D01*
X121010053Y-103909953D01*
X121131128Y-103832143D01*
X121225377Y-103723373D01*
X121285165Y-103592457D01*
X121305647Y-103450000D01*
X121285165Y-103307543D01*
X121225377Y-103176627D01*
X121131128Y-103067857D01*
X121010053Y-102990047D01*
X121010051Y-102990046D01*
X121010049Y-102990045D01*
X121010050Y-102990045D01*
X120871963Y-102949500D01*
X120871961Y-102949500D01*
X120728039Y-102949500D01*
X120728036Y-102949500D01*
X120589949Y-102990045D01*
X120468873Y-103067856D01*
X120374623Y-103176626D01*
X120374622Y-103176628D01*
X120314834Y-103307543D01*
X120294353Y-103450000D01*
X113141269Y-103450000D01*
X113135165Y-103407543D01*
X113075377Y-103276627D01*
X112981128Y-103167857D01*
X112860053Y-103090047D01*
X112860051Y-103090046D01*
X112860049Y-103090045D01*
X112860050Y-103090045D01*
X112721963Y-103049500D01*
X112721961Y-103049500D01*
X112578039Y-103049500D01*
X112578036Y-103049500D01*
X112439949Y-103090045D01*
X112318873Y-103167856D01*
X112318872Y-103167856D01*
X112318872Y-103167857D01*
X112311274Y-103176626D01*
X112224623Y-103276626D01*
X112224622Y-103276628D01*
X112164834Y-103407543D01*
X112144353Y-103550000D01*
X100492587Y-103550000D01*
X100534877Y-103429141D01*
X100534878Y-103429138D01*
X100555062Y-103250002D01*
X100555062Y-103249997D01*
X100534878Y-103070861D01*
X100475333Y-102900692D01*
X100466661Y-102886892D01*
X100466660Y-102886892D01*
X100103553Y-103250000D01*
X99900000Y-103250000D01*
X99900000Y-103220163D01*
X99877164Y-103165032D01*
X99834968Y-103122836D01*
X99779837Y-103100000D01*
X99720163Y-103100000D01*
X99665032Y-103122836D01*
X99622836Y-103165032D01*
X99600000Y-103220163D01*
X99366609Y-103220163D01*
X99150000Y-103003553D01*
X98903553Y-103249999D01*
X98700000Y-103249999D01*
X98700000Y-103220163D01*
X98677164Y-103165032D01*
X98634968Y-103122836D01*
X98579837Y-103100000D01*
X98520163Y-103100000D01*
X98465032Y-103122836D01*
X98422836Y-103165032D01*
X98400000Y-103220163D01*
X98166610Y-103220163D01*
X97833338Y-102886891D01*
X97833337Y-102886891D01*
X97824667Y-102900691D01*
X97824662Y-102900701D01*
X97765122Y-103070858D01*
X97765121Y-103070861D01*
X97744938Y-103249997D01*
X94384786Y-103249997D01*
X94388597Y-103223489D01*
X94407680Y-103193797D01*
X94425374Y-103173377D01*
X94425374Y-103173375D01*
X94425377Y-103173373D01*
X94485165Y-103042457D01*
X94505647Y-102900000D01*
X94485165Y-102757543D01*
X94425377Y-102626627D01*
X94344541Y-102533337D01*
X98186891Y-102533337D01*
X98186891Y-102533338D01*
X98550000Y-102896446D01*
X98550001Y-102896446D01*
X98913107Y-102533338D01*
X98913105Y-102533337D01*
X99386891Y-102533337D01*
X99386891Y-102533338D01*
X99750000Y-102896446D01*
X99750001Y-102896446D01*
X100113107Y-102533338D01*
X100108188Y-102530247D01*
X150049500Y-102530247D01*
X150049500Y-104269752D01*
X150061131Y-104328229D01*
X150061132Y-104328230D01*
X150105447Y-104394552D01*
X150171769Y-104438867D01*
X150171770Y-104438868D01*
X150230247Y-104450499D01*
X150230250Y-104450500D01*
X150230252Y-104450500D01*
X151969750Y-104450500D01*
X151969751Y-104450499D01*
X151984568Y-104447552D01*
X152028229Y-104438868D01*
X152028229Y-104438867D01*
X152028231Y-104438867D01*
X152094552Y-104394552D01*
X152138867Y-104328231D01*
X152138867Y-104328229D01*
X152138868Y-104328229D01*
X152150499Y-104269752D01*
X152150500Y-104269750D01*
X152150500Y-102530249D01*
X152150499Y-102530247D01*
X152138868Y-102471770D01*
X152138867Y-102471769D01*
X152094552Y-102405447D01*
X152028230Y-102361132D01*
X152028229Y-102361131D01*
X151969752Y-102349500D01*
X151969748Y-102349500D01*
X150230252Y-102349500D01*
X150230247Y-102349500D01*
X150171770Y-102361131D01*
X150171769Y-102361132D01*
X150105447Y-102405447D01*
X150061132Y-102471769D01*
X150061131Y-102471770D01*
X150049500Y-102530247D01*
X100108188Y-102530247D01*
X100099304Y-102524665D01*
X99929138Y-102465121D01*
X99750003Y-102444938D01*
X99749997Y-102444938D01*
X99570861Y-102465121D01*
X99570858Y-102465122D01*
X99400701Y-102524662D01*
X99400691Y-102524667D01*
X99386891Y-102533337D01*
X98913105Y-102533337D01*
X98899304Y-102524665D01*
X98729138Y-102465121D01*
X98550003Y-102444938D01*
X98549997Y-102444938D01*
X98370861Y-102465121D01*
X98370858Y-102465122D01*
X98200701Y-102524662D01*
X98200691Y-102524667D01*
X98186891Y-102533337D01*
X94344541Y-102533337D01*
X94331128Y-102517857D01*
X94210053Y-102440047D01*
X94210051Y-102440046D01*
X94210049Y-102440045D01*
X94210050Y-102440045D01*
X94071963Y-102399500D01*
X94071961Y-102399500D01*
X93928039Y-102399500D01*
X93928036Y-102399500D01*
X93789949Y-102440045D01*
X93668872Y-102517857D01*
X93668711Y-102518043D01*
X93668504Y-102518175D01*
X93662172Y-102523663D01*
X93661382Y-102522752D01*
X93609932Y-102555816D01*
X93540063Y-102555814D01*
X93488617Y-102522752D01*
X93487828Y-102523663D01*
X93481495Y-102518175D01*
X93481289Y-102518043D01*
X93481128Y-102517857D01*
X93360053Y-102440047D01*
X93360051Y-102440046D01*
X93360049Y-102440045D01*
X93360050Y-102440045D01*
X93221963Y-102399500D01*
X93221961Y-102399500D01*
X93078039Y-102399500D01*
X93078036Y-102399500D01*
X92939949Y-102440045D01*
X92818873Y-102517856D01*
X92818872Y-102517856D01*
X92818872Y-102517857D01*
X92812973Y-102524665D01*
X92724623Y-102626626D01*
X92724622Y-102626628D01*
X92664834Y-102757543D01*
X92644353Y-102900000D01*
X86100500Y-102900000D01*
X86100500Y-98950000D01*
X131044353Y-98950000D01*
X131064834Y-99092456D01*
X131102514Y-99174962D01*
X131124623Y-99223373D01*
X131218872Y-99332143D01*
X131339947Y-99409953D01*
X131339950Y-99409954D01*
X131339949Y-99409954D01*
X131478036Y-99450499D01*
X131478038Y-99450500D01*
X131478039Y-99450500D01*
X131621962Y-99450500D01*
X131621962Y-99450499D01*
X131760053Y-99409953D01*
X131881128Y-99332143D01*
X131975377Y-99223373D01*
X132035165Y-99092457D01*
X132055647Y-98950000D01*
X137044353Y-98950000D01*
X137064834Y-99092456D01*
X137102514Y-99174962D01*
X137124623Y-99223373D01*
X137218872Y-99332143D01*
X137339947Y-99409953D01*
X137339950Y-99409954D01*
X137339949Y-99409954D01*
X137478036Y-99450499D01*
X137478038Y-99450500D01*
X137478039Y-99450500D01*
X137621962Y-99450500D01*
X137621962Y-99450499D01*
X137760053Y-99409953D01*
X137881128Y-99332143D01*
X137906288Y-99303106D01*
X137965065Y-99265333D01*
X138034935Y-99265333D01*
X138093711Y-99303106D01*
X138118872Y-99332143D01*
X138239947Y-99409953D01*
X138239950Y-99409954D01*
X138239949Y-99409954D01*
X138378036Y-99450499D01*
X138378038Y-99450500D01*
X138378039Y-99450500D01*
X138521962Y-99450500D01*
X138521962Y-99450499D01*
X138660053Y-99409953D01*
X138781128Y-99332143D01*
X138875377Y-99223373D01*
X138875378Y-99223371D01*
X138881185Y-99216670D01*
X138884026Y-99219132D01*
X138923397Y-99184962D01*
X138992547Y-99174962D01*
X139056126Y-99203935D01*
X139067870Y-99217488D01*
X139068815Y-99216670D01*
X139074622Y-99223372D01*
X139074623Y-99223373D01*
X139168872Y-99332143D01*
X139289947Y-99409953D01*
X139289950Y-99409954D01*
X139289949Y-99409954D01*
X139428036Y-99450499D01*
X139428038Y-99450500D01*
X139428039Y-99450500D01*
X139571962Y-99450500D01*
X139571962Y-99450499D01*
X139710053Y-99409953D01*
X139831128Y-99332143D01*
X139925377Y-99223373D01*
X139985165Y-99092457D01*
X140005647Y-98950000D01*
X139998458Y-98900000D01*
X143744353Y-98900000D01*
X143764834Y-99042456D01*
X143822834Y-99169456D01*
X143824623Y-99173373D01*
X143918872Y-99282143D01*
X144039947Y-99359953D01*
X144039950Y-99359954D01*
X144039949Y-99359954D01*
X144178036Y-99400499D01*
X144178038Y-99400500D01*
X144178039Y-99400500D01*
X144321962Y-99400500D01*
X144321962Y-99400499D01*
X144460053Y-99359953D01*
X144581128Y-99282143D01*
X144606288Y-99253106D01*
X144665065Y-99215333D01*
X144734935Y-99215333D01*
X144793711Y-99253106D01*
X144818872Y-99282143D01*
X144939947Y-99359953D01*
X144939950Y-99359954D01*
X144939949Y-99359954D01*
X145078036Y-99400499D01*
X145078038Y-99400500D01*
X145078039Y-99400500D01*
X145221962Y-99400500D01*
X145221962Y-99400499D01*
X145360053Y-99359953D01*
X145481128Y-99282143D01*
X145575377Y-99173373D01*
X145635165Y-99042457D01*
X145655647Y-98900000D01*
X145635165Y-98757543D01*
X145577030Y-98630247D01*
X150049500Y-98630247D01*
X150049500Y-100369752D01*
X150061131Y-100428229D01*
X150061132Y-100428230D01*
X150105447Y-100494552D01*
X150171769Y-100538867D01*
X150171770Y-100538868D01*
X150230247Y-100550499D01*
X150230250Y-100550500D01*
X150230252Y-100550500D01*
X151969750Y-100550500D01*
X151969751Y-100550499D01*
X151984568Y-100547552D01*
X152028229Y-100538868D01*
X152028229Y-100538867D01*
X152028231Y-100538867D01*
X152094552Y-100494552D01*
X152138867Y-100428231D01*
X152138867Y-100428229D01*
X152138868Y-100428229D01*
X152150499Y-100369752D01*
X152150500Y-100369750D01*
X152150500Y-98630249D01*
X152150499Y-98630247D01*
X152138868Y-98571770D01*
X152138867Y-98571769D01*
X152094552Y-98505447D01*
X152028230Y-98461132D01*
X152028229Y-98461131D01*
X151969752Y-98449500D01*
X151969748Y-98449500D01*
X150230252Y-98449500D01*
X150230247Y-98449500D01*
X150171770Y-98461131D01*
X150171769Y-98461132D01*
X150105447Y-98505447D01*
X150061132Y-98571769D01*
X150061131Y-98571770D01*
X150049500Y-98630247D01*
X145577030Y-98630247D01*
X145575377Y-98626627D01*
X145481128Y-98517857D01*
X145481126Y-98517855D01*
X145475320Y-98511155D01*
X145476564Y-98510076D01*
X145444341Y-98459936D01*
X145444341Y-98390066D01*
X145476565Y-98339923D01*
X145475320Y-98338845D01*
X145481126Y-98332144D01*
X145481128Y-98332143D01*
X145575377Y-98223373D01*
X145635165Y-98092457D01*
X145655647Y-97950000D01*
X145635165Y-97807543D01*
X145575377Y-97676627D01*
X145481128Y-97567857D01*
X145360053Y-97490047D01*
X145360051Y-97490046D01*
X145360049Y-97490045D01*
X145360050Y-97490045D01*
X145221963Y-97449500D01*
X145221961Y-97449500D01*
X145078039Y-97449500D01*
X145078036Y-97449500D01*
X144939949Y-97490045D01*
X144818873Y-97567856D01*
X144724623Y-97676626D01*
X144724622Y-97676628D01*
X144664834Y-97807543D01*
X144644353Y-97950000D01*
X144664834Y-98092456D01*
X144724622Y-98223371D01*
X144724623Y-98223373D01*
X144818872Y-98332143D01*
X144818873Y-98332143D01*
X144824680Y-98338845D01*
X144823436Y-98339922D01*
X144855661Y-98390075D01*
X144855655Y-98459944D01*
X144823435Y-98510078D01*
X144824679Y-98511156D01*
X144793712Y-98546893D01*
X144734933Y-98584667D01*
X144665064Y-98584666D01*
X144606288Y-98546893D01*
X144581127Y-98517856D01*
X144534502Y-98487892D01*
X144460053Y-98440047D01*
X144460051Y-98440046D01*
X144460049Y-98440045D01*
X144460050Y-98440045D01*
X144321963Y-98399500D01*
X144321961Y-98399500D01*
X144178039Y-98399500D01*
X144178036Y-98399500D01*
X144039949Y-98440045D01*
X143918873Y-98517856D01*
X143824623Y-98626626D01*
X143824622Y-98626628D01*
X143764834Y-98757543D01*
X143744353Y-98900000D01*
X139998458Y-98900000D01*
X139985165Y-98807543D01*
X139925377Y-98676627D01*
X139831128Y-98567857D01*
X139710053Y-98490047D01*
X139710051Y-98490046D01*
X139710049Y-98490045D01*
X139710050Y-98490045D01*
X139571963Y-98449500D01*
X139571961Y-98449500D01*
X139428039Y-98449500D01*
X139428036Y-98449500D01*
X139289949Y-98490045D01*
X139168873Y-98567856D01*
X139168872Y-98567856D01*
X139168872Y-98567857D01*
X139114810Y-98630249D01*
X139068815Y-98683330D01*
X139066010Y-98680900D01*
X139026279Y-98715185D01*
X138957101Y-98724986D01*
X138893605Y-98695831D01*
X138882091Y-98682544D01*
X138881185Y-98683330D01*
X138875376Y-98676626D01*
X138781128Y-98567857D01*
X138660053Y-98490047D01*
X138660051Y-98490046D01*
X138660049Y-98490045D01*
X138660050Y-98490045D01*
X138521963Y-98449500D01*
X138521961Y-98449500D01*
X138378039Y-98449500D01*
X138378036Y-98449500D01*
X138239949Y-98490045D01*
X138118872Y-98567856D01*
X138093712Y-98596893D01*
X138034933Y-98634667D01*
X137965064Y-98634666D01*
X137906288Y-98596893D01*
X137881127Y-98567856D01*
X137803326Y-98517857D01*
X137760053Y-98490047D01*
X137760051Y-98490046D01*
X137760049Y-98490045D01*
X137760050Y-98490045D01*
X137621963Y-98449500D01*
X137621961Y-98449500D01*
X137478039Y-98449500D01*
X137478036Y-98449500D01*
X137339949Y-98490045D01*
X137218873Y-98567856D01*
X137124623Y-98676626D01*
X137124622Y-98676628D01*
X137064834Y-98807543D01*
X137044353Y-98950000D01*
X132055647Y-98950000D01*
X132035165Y-98807543D01*
X131975377Y-98676627D01*
X131881128Y-98567857D01*
X131760053Y-98490047D01*
X131760051Y-98490046D01*
X131760049Y-98490045D01*
X131760050Y-98490045D01*
X131621963Y-98449500D01*
X131621961Y-98449500D01*
X131478039Y-98449500D01*
X131478036Y-98449500D01*
X131339949Y-98490045D01*
X131218873Y-98567856D01*
X131124623Y-98676626D01*
X131124622Y-98676628D01*
X131064834Y-98807543D01*
X131044353Y-98950000D01*
X86100500Y-98950000D01*
X86100500Y-94500000D01*
X138444353Y-94500000D01*
X138464834Y-94642456D01*
X138524622Y-94773371D01*
X138524623Y-94773373D01*
X138618872Y-94882143D01*
X138739947Y-94959953D01*
X138739950Y-94959954D01*
X138739949Y-94959954D01*
X138878036Y-95000499D01*
X138878038Y-95000500D01*
X138878039Y-95000500D01*
X139021962Y-95000500D01*
X139021962Y-95000499D01*
X139160053Y-94959953D01*
X139281128Y-94882143D01*
X139375377Y-94773373D01*
X139435165Y-94642457D01*
X139455647Y-94500000D01*
X139435165Y-94357543D01*
X139375377Y-94226627D01*
X139281128Y-94117857D01*
X139160053Y-94040047D01*
X139160051Y-94040046D01*
X139160049Y-94040045D01*
X139160050Y-94040045D01*
X139021963Y-93999500D01*
X139021961Y-93999500D01*
X138878039Y-93999500D01*
X138878036Y-93999500D01*
X138739949Y-94040045D01*
X138618873Y-94117856D01*
X138524623Y-94226626D01*
X138524622Y-94226628D01*
X138464834Y-94357543D01*
X138444353Y-94500000D01*
X86100500Y-94500000D01*
X86100500Y-90249997D01*
X86894506Y-90249997D01*
X86894506Y-90250002D01*
X86914469Y-90618196D01*
X86914470Y-90618213D01*
X86974122Y-90982068D01*
X86974128Y-90982094D01*
X87072768Y-91337365D01*
X87072770Y-91337371D01*
X87209255Y-91679926D01*
X87209261Y-91679938D01*
X87381973Y-92005708D01*
X87381976Y-92005713D01*
X87381978Y-92005716D01*
X87588910Y-92310917D01*
X87827627Y-92591956D01*
X88095330Y-92845538D01*
X88388881Y-93068690D01*
X88704838Y-93258795D01*
X88704840Y-93258796D01*
X88704842Y-93258797D01*
X88704846Y-93258799D01*
X89039486Y-93413620D01*
X89039497Y-93413625D01*
X89388934Y-93531364D01*
X89749052Y-93610632D01*
X90115630Y-93650500D01*
X90115636Y-93650500D01*
X90484364Y-93650500D01*
X90484370Y-93650500D01*
X90850948Y-93610632D01*
X91211066Y-93531364D01*
X91560503Y-93413625D01*
X91895162Y-93258795D01*
X92211119Y-93068690D01*
X92504670Y-92845538D01*
X92772373Y-92591956D01*
X93011090Y-92310917D01*
X93218022Y-92005716D01*
X93390743Y-91679930D01*
X93527227Y-91337379D01*
X93625875Y-90982081D01*
X93639331Y-90900000D01*
X135794353Y-90900000D01*
X135814834Y-91042456D01*
X135874622Y-91173371D01*
X135874623Y-91173373D01*
X135968872Y-91282143D01*
X136089947Y-91359953D01*
X136089950Y-91359954D01*
X136089949Y-91359954D01*
X136228036Y-91400499D01*
X136228038Y-91400500D01*
X136228039Y-91400500D01*
X136371962Y-91400500D01*
X136371962Y-91400499D01*
X136510053Y-91359953D01*
X136631128Y-91282143D01*
X136725377Y-91173373D01*
X136785165Y-91042457D01*
X136805647Y-90900000D01*
X136785165Y-90757543D01*
X136725377Y-90626627D01*
X136631128Y-90517857D01*
X136510053Y-90440047D01*
X136510051Y-90440046D01*
X136510049Y-90440045D01*
X136510050Y-90440045D01*
X136371963Y-90399500D01*
X136371961Y-90399500D01*
X136228039Y-90399500D01*
X136228036Y-90399500D01*
X136089949Y-90440045D01*
X135968873Y-90517856D01*
X135874623Y-90626626D01*
X135874622Y-90626628D01*
X135814834Y-90757543D01*
X135794353Y-90900000D01*
X93639331Y-90900000D01*
X93644237Y-90870077D01*
X93685529Y-90618213D01*
X93685529Y-90618210D01*
X93685531Y-90618199D01*
X93705494Y-90250000D01*
X93685531Y-89881801D01*
X93663923Y-89750000D01*
X143194353Y-89750000D01*
X143214834Y-89892456D01*
X143274622Y-90023371D01*
X143274623Y-90023373D01*
X143368872Y-90132143D01*
X143489947Y-90209953D01*
X143489950Y-90209954D01*
X143489949Y-90209954D01*
X143597107Y-90241417D01*
X143626336Y-90250000D01*
X143628036Y-90250499D01*
X143628038Y-90250500D01*
X143628039Y-90250500D01*
X143771962Y-90250500D01*
X143771962Y-90250499D01*
X143910053Y-90209953D01*
X144031128Y-90132143D01*
X144125377Y-90023373D01*
X144185165Y-89892457D01*
X144205647Y-89750000D01*
X144185165Y-89607543D01*
X144125377Y-89476627D01*
X144031128Y-89367857D01*
X143910053Y-89290047D01*
X143910051Y-89290046D01*
X143910049Y-89290045D01*
X143910050Y-89290045D01*
X143771963Y-89249500D01*
X143771961Y-89249500D01*
X143628039Y-89249500D01*
X143628036Y-89249500D01*
X143489949Y-89290045D01*
X143368873Y-89367856D01*
X143274623Y-89476626D01*
X143274622Y-89476628D01*
X143214834Y-89607543D01*
X143194353Y-89750000D01*
X93663923Y-89750000D01*
X93625875Y-89517919D01*
X93603748Y-89438226D01*
X93527231Y-89162634D01*
X93527229Y-89162628D01*
X93527228Y-89162627D01*
X93527227Y-89162621D01*
X93390743Y-88820070D01*
X93218022Y-88494284D01*
X93018492Y-88200000D01*
X143194353Y-88200000D01*
X143214834Y-88342456D01*
X143274622Y-88473371D01*
X143274623Y-88473373D01*
X143368872Y-88582143D01*
X143489947Y-88659953D01*
X143489950Y-88659954D01*
X143489949Y-88659954D01*
X143628036Y-88700499D01*
X143628038Y-88700500D01*
X143628039Y-88700500D01*
X143771962Y-88700500D01*
X143771962Y-88700499D01*
X143910053Y-88659953D01*
X144031128Y-88582143D01*
X144125377Y-88473373D01*
X144185165Y-88342457D01*
X144205647Y-88200000D01*
X144185165Y-88057543D01*
X144125377Y-87926627D01*
X144031128Y-87817857D01*
X143910053Y-87740047D01*
X143910051Y-87740046D01*
X143910049Y-87740045D01*
X143910050Y-87740045D01*
X143771963Y-87699500D01*
X143771961Y-87699500D01*
X143628039Y-87699500D01*
X143628036Y-87699500D01*
X143489949Y-87740045D01*
X143368873Y-87817856D01*
X143274623Y-87926626D01*
X143274622Y-87926628D01*
X143214834Y-88057543D01*
X143194353Y-88200000D01*
X93018492Y-88200000D01*
X93011090Y-88189083D01*
X92772373Y-87908044D01*
X92504670Y-87654462D01*
X92211119Y-87431310D01*
X91895162Y-87241205D01*
X91895161Y-87241204D01*
X91895157Y-87241202D01*
X91895153Y-87241200D01*
X91698027Y-87150000D01*
X109944353Y-87150000D01*
X109964834Y-87292456D01*
X110024622Y-87423371D01*
X110024623Y-87423373D01*
X110118872Y-87532143D01*
X110239947Y-87609953D01*
X110239950Y-87609954D01*
X110239949Y-87609954D01*
X110378036Y-87650499D01*
X110378038Y-87650500D01*
X110378039Y-87650500D01*
X110521962Y-87650500D01*
X110521962Y-87650499D01*
X110660053Y-87609953D01*
X110781128Y-87532143D01*
X110875377Y-87423373D01*
X110935165Y-87292457D01*
X110952262Y-87173542D01*
X110963014Y-87149999D01*
X111186986Y-87149999D01*
X111197738Y-87173543D01*
X111214834Y-87292456D01*
X111274622Y-87423371D01*
X111274623Y-87423373D01*
X111368872Y-87532143D01*
X111489947Y-87609953D01*
X111489950Y-87609954D01*
X111489949Y-87609954D01*
X111628036Y-87650499D01*
X111628038Y-87650500D01*
X111628039Y-87650500D01*
X111771962Y-87650500D01*
X111771962Y-87650499D01*
X111910053Y-87609953D01*
X112031128Y-87532143D01*
X112125377Y-87423373D01*
X112185165Y-87292457D01*
X112205647Y-87150000D01*
X112185165Y-87007543D01*
X112125377Y-86876627D01*
X112031128Y-86767857D01*
X111910053Y-86690047D01*
X111910051Y-86690046D01*
X111910049Y-86690045D01*
X111910050Y-86690045D01*
X111773666Y-86650000D01*
X143194353Y-86650000D01*
X143214834Y-86792456D01*
X143253275Y-86876628D01*
X143274623Y-86923373D01*
X143368872Y-87032143D01*
X143489947Y-87109953D01*
X143489950Y-87109954D01*
X143489949Y-87109954D01*
X143597107Y-87141417D01*
X143626336Y-87150000D01*
X143628036Y-87150499D01*
X143628038Y-87150500D01*
X143628039Y-87150500D01*
X143771962Y-87150500D01*
X143771962Y-87150499D01*
X143910053Y-87109953D01*
X144031128Y-87032143D01*
X144125377Y-86923373D01*
X144185165Y-86792457D01*
X144205647Y-86650000D01*
X144185165Y-86507543D01*
X144125377Y-86376627D01*
X144031128Y-86267857D01*
X143910053Y-86190047D01*
X143910051Y-86190046D01*
X143910049Y-86190045D01*
X143910050Y-86190045D01*
X143771963Y-86149500D01*
X143771961Y-86149500D01*
X143628039Y-86149500D01*
X143628036Y-86149500D01*
X143489949Y-86190045D01*
X143368873Y-86267856D01*
X143274623Y-86376626D01*
X143274622Y-86376628D01*
X143214834Y-86507543D01*
X143194353Y-86650000D01*
X111773666Y-86650000D01*
X111771963Y-86649500D01*
X111771961Y-86649500D01*
X111628039Y-86649500D01*
X111628036Y-86649500D01*
X111489949Y-86690045D01*
X111368873Y-86767856D01*
X111274623Y-86876626D01*
X111274622Y-86876628D01*
X111214834Y-87007543D01*
X111197738Y-87126456D01*
X111186986Y-87149999D01*
X110963014Y-87149999D01*
X110952262Y-87126456D01*
X110935165Y-87007543D01*
X110875377Y-86876627D01*
X110781128Y-86767857D01*
X110660053Y-86690047D01*
X110660051Y-86690046D01*
X110660049Y-86690045D01*
X110660050Y-86690045D01*
X110521963Y-86649500D01*
X110521961Y-86649500D01*
X110378039Y-86649500D01*
X110378036Y-86649500D01*
X110239949Y-86690045D01*
X110118873Y-86767856D01*
X110024623Y-86876626D01*
X110024622Y-86876628D01*
X109964834Y-87007543D01*
X109944353Y-87150000D01*
X91698027Y-87150000D01*
X91560513Y-87086379D01*
X91560508Y-87086377D01*
X91560503Y-87086375D01*
X91390172Y-87028983D01*
X91211065Y-86968635D01*
X90850946Y-86889367D01*
X90484371Y-86849500D01*
X90484370Y-86849500D01*
X90115630Y-86849500D01*
X90115628Y-86849500D01*
X89749053Y-86889367D01*
X89388934Y-86968635D01*
X89118812Y-87059650D01*
X89039497Y-87086375D01*
X89039494Y-87086376D01*
X89039486Y-87086379D01*
X88704846Y-87241200D01*
X88704842Y-87241202D01*
X88469538Y-87382779D01*
X88388881Y-87431310D01*
X88288410Y-87507685D01*
X88095330Y-87654461D01*
X88095330Y-87654462D01*
X87827626Y-87908044D01*
X87588909Y-88189083D01*
X87381979Y-88494282D01*
X87381973Y-88494291D01*
X87209261Y-88820061D01*
X87209255Y-88820073D01*
X87072770Y-89162628D01*
X87072768Y-89162634D01*
X86974128Y-89517905D01*
X86974122Y-89517931D01*
X86914470Y-89881786D01*
X86914469Y-89881803D01*
X86894506Y-90249997D01*
X86100500Y-90249997D01*
X86100500Y-77400000D01*
X93094353Y-77400000D01*
X93114834Y-77542456D01*
X93174622Y-77673371D01*
X93174623Y-77673373D01*
X93268872Y-77782143D01*
X93276324Y-77786932D01*
X93289943Y-77795685D01*
X93335698Y-77848489D01*
X93345641Y-77917648D01*
X93316615Y-77981203D01*
X93289943Y-78004315D01*
X93268874Y-78017855D01*
X93174623Y-78126626D01*
X93174622Y-78126628D01*
X93114834Y-78257543D01*
X93094353Y-78400000D01*
X93114834Y-78542456D01*
X93118259Y-78549955D01*
X93174623Y-78673373D01*
X93268872Y-78782143D01*
X93389947Y-78859953D01*
X93389950Y-78859954D01*
X93389949Y-78859954D01*
X93528036Y-78900499D01*
X93528038Y-78900500D01*
X93528039Y-78900500D01*
X93671962Y-78900500D01*
X93671962Y-78900499D01*
X93810053Y-78859953D01*
X93931128Y-78782143D01*
X94025377Y-78673373D01*
X94085165Y-78542457D01*
X94105647Y-78400000D01*
X94085165Y-78257543D01*
X94025377Y-78126627D01*
X93931128Y-78017857D01*
X93931125Y-78017855D01*
X93931125Y-78017854D01*
X93910058Y-78004316D01*
X93864302Y-77951513D01*
X93854358Y-77882354D01*
X93883382Y-77818798D01*
X93910058Y-77795684D01*
X93931125Y-77782145D01*
X93931125Y-77782144D01*
X93931128Y-77782143D01*
X94025377Y-77673373D01*
X94085165Y-77542457D01*
X94103252Y-77416660D01*
X109276892Y-77416660D01*
X109276892Y-77416661D01*
X109290692Y-77425333D01*
X109290691Y-77425333D01*
X109460861Y-77484878D01*
X109639997Y-77505062D01*
X109640003Y-77505062D01*
X109819138Y-77484878D01*
X109819141Y-77484877D01*
X109989305Y-77425334D01*
X109989306Y-77425334D01*
X110003106Y-77416661D01*
X110003106Y-77416660D01*
X110676892Y-77416660D01*
X110676892Y-77416661D01*
X110690692Y-77425333D01*
X110690691Y-77425333D01*
X110860861Y-77484878D01*
X111039997Y-77505062D01*
X111040003Y-77505062D01*
X111219138Y-77484878D01*
X111219141Y-77484877D01*
X111389305Y-77425334D01*
X111389306Y-77425334D01*
X111403106Y-77416661D01*
X111403106Y-77416660D01*
X111040001Y-77053553D01*
X111040000Y-77053553D01*
X110676892Y-77416660D01*
X110003106Y-77416660D01*
X109640001Y-77053553D01*
X109640000Y-77053553D01*
X109276892Y-77416660D01*
X94103252Y-77416660D01*
X94105647Y-77400000D01*
X94085165Y-77257543D01*
X94025377Y-77126627D01*
X93931128Y-77017857D01*
X93810053Y-76940047D01*
X93810051Y-76940046D01*
X93810049Y-76940045D01*
X93810050Y-76940045D01*
X93671963Y-76899500D01*
X93671961Y-76899500D01*
X93528039Y-76899500D01*
X93528036Y-76899500D01*
X93389949Y-76940045D01*
X93268873Y-77017856D01*
X93174623Y-77126626D01*
X93174622Y-77126628D01*
X93114834Y-77257543D01*
X93094353Y-77400000D01*
X86100500Y-77400000D01*
X86100500Y-76716660D01*
X108576892Y-76716660D01*
X108576892Y-76716661D01*
X108590692Y-76725333D01*
X108590691Y-76725333D01*
X108760862Y-76784878D01*
X108761644Y-76785057D01*
X108762097Y-76785310D01*
X108767431Y-76787177D01*
X108767104Y-76788111D01*
X108822623Y-76819166D01*
X108851952Y-76872874D01*
X108852822Y-76872570D01*
X108854670Y-76877852D01*
X108854940Y-76878346D01*
X108855121Y-76879142D01*
X108914663Y-77049300D01*
X108914663Y-77049301D01*
X108923338Y-77063107D01*
X109286446Y-76700000D01*
X109266555Y-76680109D01*
X109540000Y-76680109D01*
X109540000Y-76719891D01*
X109555224Y-76756645D01*
X109583355Y-76784776D01*
X109620109Y-76800000D01*
X109659891Y-76800000D01*
X109696645Y-76784776D01*
X109724776Y-76756645D01*
X109740000Y-76719891D01*
X109740000Y-76699999D01*
X109993553Y-76699999D01*
X109993553Y-76700000D01*
X110340000Y-77046446D01*
X110340001Y-77046446D01*
X110686446Y-76700000D01*
X110666555Y-76680109D01*
X110940000Y-76680109D01*
X110940000Y-76719891D01*
X110955224Y-76756645D01*
X110983355Y-76784776D01*
X111020109Y-76800000D01*
X111059891Y-76800000D01*
X111096645Y-76784776D01*
X111124776Y-76756645D01*
X111140000Y-76719891D01*
X111140000Y-76699999D01*
X111393553Y-76699999D01*
X111393553Y-76700000D01*
X111756660Y-77063106D01*
X111756661Y-77063106D01*
X111765334Y-77049306D01*
X111765334Y-77049305D01*
X111824876Y-76879144D01*
X111825056Y-76878358D01*
X111825311Y-76877901D01*
X111827177Y-76872570D01*
X111828110Y-76872896D01*
X111859164Y-76817379D01*
X111912875Y-76788049D01*
X111912570Y-76787177D01*
X111917870Y-76785322D01*
X111918358Y-76785056D01*
X111919144Y-76784876D01*
X112089305Y-76725334D01*
X112089306Y-76725334D01*
X112103106Y-76716661D01*
X112103106Y-76716660D01*
X111740000Y-76353553D01*
X111674240Y-76419314D01*
X111674239Y-76419314D01*
X111393553Y-76699999D01*
X111140000Y-76699999D01*
X111140000Y-76680109D01*
X111124776Y-76643355D01*
X111096645Y-76615224D01*
X111059891Y-76600000D01*
X111020109Y-76600000D01*
X110983355Y-76615224D01*
X110955224Y-76643355D01*
X110940000Y-76680109D01*
X110666555Y-76680109D01*
X110405760Y-76419314D01*
X110340000Y-76353553D01*
X110274240Y-76419314D01*
X110274239Y-76419314D01*
X109993553Y-76699999D01*
X109740000Y-76699999D01*
X109740000Y-76680109D01*
X109724776Y-76643355D01*
X109696645Y-76615224D01*
X109659891Y-76600000D01*
X109620109Y-76600000D01*
X109583355Y-76615224D01*
X109555224Y-76643355D01*
X109540000Y-76680109D01*
X109266555Y-76680109D01*
X108939999Y-76353553D01*
X108939998Y-76353553D01*
X108576892Y-76716660D01*
X86100500Y-76716660D01*
X86100500Y-75999997D01*
X108134938Y-75999997D01*
X108134938Y-76000002D01*
X108155121Y-76179138D01*
X108214665Y-76349304D01*
X108223338Y-76363107D01*
X108586446Y-76000000D01*
X108586446Y-75999999D01*
X108566556Y-75980109D01*
X108840000Y-75980109D01*
X108840000Y-76019891D01*
X108855224Y-76056645D01*
X108883355Y-76084776D01*
X108920109Y-76100000D01*
X108959891Y-76100000D01*
X108996645Y-76084776D01*
X109024776Y-76056645D01*
X109040000Y-76019891D01*
X109040000Y-75999999D01*
X109293553Y-75999999D01*
X109640000Y-76346446D01*
X109986446Y-76000000D01*
X109966555Y-75980109D01*
X110240000Y-75980109D01*
X110240000Y-76019891D01*
X110255224Y-76056645D01*
X110283355Y-76084776D01*
X110320109Y-76100000D01*
X110359891Y-76100000D01*
X110396645Y-76084776D01*
X110424776Y-76056645D01*
X110440000Y-76019891D01*
X110440000Y-75999999D01*
X110693553Y-75999999D01*
X111040000Y-76346446D01*
X111386446Y-76000000D01*
X111366555Y-75980109D01*
X111640000Y-75980109D01*
X111640000Y-76019891D01*
X111655224Y-76056645D01*
X111683355Y-76084776D01*
X111720109Y-76100000D01*
X111759891Y-76100000D01*
X111796645Y-76084776D01*
X111824776Y-76056645D01*
X111840000Y-76019891D01*
X111840000Y-76000000D01*
X112093553Y-76000000D01*
X112456660Y-76363106D01*
X112456661Y-76363106D01*
X112465334Y-76349306D01*
X112465334Y-76349305D01*
X112524877Y-76179141D01*
X112524878Y-76179138D01*
X112545062Y-76000002D01*
X112545062Y-75999997D01*
X112524878Y-75820861D01*
X112465333Y-75650692D01*
X112456661Y-75636892D01*
X112456660Y-75636892D01*
X112093553Y-76000000D01*
X111840000Y-76000000D01*
X111840000Y-75980109D01*
X111824776Y-75943355D01*
X111796645Y-75915224D01*
X111759891Y-75900000D01*
X111720109Y-75900000D01*
X111683355Y-75915224D01*
X111655224Y-75943355D01*
X111640000Y-75980109D01*
X111366555Y-75980109D01*
X111105760Y-75719314D01*
X111040000Y-75653553D01*
X110974240Y-75719314D01*
X110974239Y-75719314D01*
X110693553Y-75999999D01*
X110440000Y-75999999D01*
X110440000Y-75980109D01*
X110424776Y-75943355D01*
X110396645Y-75915224D01*
X110359891Y-75900000D01*
X110320109Y-75900000D01*
X110283355Y-75915224D01*
X110255224Y-75943355D01*
X110240000Y-75980109D01*
X109966555Y-75980109D01*
X109705760Y-75719314D01*
X109640000Y-75653553D01*
X109574240Y-75719314D01*
X109574239Y-75719314D01*
X109293553Y-75999999D01*
X109040000Y-75999999D01*
X109040000Y-75980109D01*
X109024776Y-75943355D01*
X108996645Y-75915224D01*
X108959891Y-75900000D01*
X108920109Y-75900000D01*
X108883355Y-75915224D01*
X108855224Y-75943355D01*
X108840000Y-75980109D01*
X108566556Y-75980109D01*
X108223338Y-75636891D01*
X108223337Y-75636891D01*
X108214667Y-75650691D01*
X108214662Y-75650701D01*
X108155122Y-75820858D01*
X108155121Y-75820861D01*
X108134938Y-75999997D01*
X86100500Y-75999997D01*
X86100500Y-75299999D01*
X108593553Y-75299999D01*
X108593553Y-75300001D01*
X108939998Y-75646446D01*
X108939999Y-75646446D01*
X109226493Y-75359953D01*
X109286446Y-75300000D01*
X109266555Y-75280109D01*
X109540000Y-75280109D01*
X109540000Y-75319891D01*
X109555224Y-75356645D01*
X109583355Y-75384776D01*
X109620109Y-75400000D01*
X109659891Y-75400000D01*
X109696645Y-75384776D01*
X109724776Y-75356645D01*
X109740000Y-75319891D01*
X109740000Y-75299999D01*
X109993553Y-75299999D01*
X110340000Y-75646446D01*
X110686446Y-75300000D01*
X110666555Y-75280109D01*
X110940000Y-75280109D01*
X110940000Y-75319891D01*
X110955224Y-75356645D01*
X110983355Y-75384776D01*
X111020109Y-75400000D01*
X111059891Y-75400000D01*
X111096645Y-75384776D01*
X111124776Y-75356645D01*
X111140000Y-75319891D01*
X111140000Y-75299999D01*
X111393553Y-75299999D01*
X111740000Y-75646446D01*
X112086446Y-75300000D01*
X112086446Y-75299999D01*
X111740000Y-74953553D01*
X111674240Y-75019314D01*
X111674239Y-75019314D01*
X111393553Y-75299999D01*
X111140000Y-75299999D01*
X111140000Y-75280109D01*
X111124776Y-75243355D01*
X111096645Y-75215224D01*
X111059891Y-75200000D01*
X111020109Y-75200000D01*
X110983355Y-75215224D01*
X110955224Y-75243355D01*
X110940000Y-75280109D01*
X110666555Y-75280109D01*
X110405760Y-75019314D01*
X110340000Y-74953553D01*
X110274240Y-75019314D01*
X110274239Y-75019314D01*
X109993553Y-75299999D01*
X109740000Y-75299999D01*
X109740000Y-75280109D01*
X109724776Y-75243355D01*
X109696645Y-75215224D01*
X109659891Y-75200000D01*
X109620109Y-75200000D01*
X109583355Y-75215224D01*
X109555224Y-75243355D01*
X109540000Y-75280109D01*
X109266555Y-75280109D01*
X108939999Y-74953553D01*
X108939998Y-74953553D01*
X108593553Y-75299999D01*
X86100500Y-75299999D01*
X86100500Y-74599997D01*
X108134938Y-74599997D01*
X108134938Y-74600002D01*
X108155121Y-74779138D01*
X108214665Y-74949304D01*
X108223338Y-74963107D01*
X108586446Y-74600000D01*
X108586446Y-74599999D01*
X108566556Y-74580109D01*
X108840000Y-74580109D01*
X108840000Y-74619891D01*
X108855224Y-74656645D01*
X108883355Y-74684776D01*
X108920109Y-74700000D01*
X108959891Y-74700000D01*
X108996645Y-74684776D01*
X109024776Y-74656645D01*
X109040000Y-74619891D01*
X109040000Y-74599999D01*
X109293553Y-74599999D01*
X109640000Y-74946446D01*
X109986446Y-74600000D01*
X109966555Y-74580109D01*
X110240000Y-74580109D01*
X110240000Y-74619891D01*
X110255224Y-74656645D01*
X110283355Y-74684776D01*
X110320109Y-74700000D01*
X110359891Y-74700000D01*
X110396645Y-74684776D01*
X110424776Y-74656645D01*
X110440000Y-74619891D01*
X110440000Y-74599999D01*
X110693553Y-74599999D01*
X111040000Y-74946446D01*
X111386446Y-74600000D01*
X111366555Y-74580109D01*
X111640000Y-74580109D01*
X111640000Y-74619891D01*
X111655224Y-74656645D01*
X111683355Y-74684776D01*
X111720109Y-74700000D01*
X111759891Y-74700000D01*
X111796645Y-74684776D01*
X111824776Y-74656645D01*
X111840000Y-74619891D01*
X111840000Y-74600000D01*
X112093553Y-74600000D01*
X112456660Y-74963106D01*
X112456661Y-74963106D01*
X112465334Y-74949306D01*
X112465334Y-74949305D01*
X112482587Y-74900000D01*
X119644353Y-74900000D01*
X119664834Y-75042456D01*
X119724622Y-75173371D01*
X119724623Y-75173373D01*
X119818872Y-75282143D01*
X119939947Y-75359953D01*
X119939950Y-75359954D01*
X119939949Y-75359954D01*
X120024487Y-75384776D01*
X120076336Y-75400000D01*
X120078036Y-75400499D01*
X120078038Y-75400500D01*
X120078039Y-75400500D01*
X120221962Y-75400500D01*
X120221962Y-75400499D01*
X120360053Y-75359953D01*
X120481128Y-75282143D01*
X120506288Y-75253106D01*
X120565065Y-75215333D01*
X120634935Y-75215333D01*
X120693711Y-75253106D01*
X120718872Y-75282143D01*
X120839947Y-75359953D01*
X120839950Y-75359954D01*
X120839949Y-75359954D01*
X120924487Y-75384776D01*
X120976336Y-75400000D01*
X120978036Y-75400499D01*
X120978038Y-75400500D01*
X120978039Y-75400500D01*
X121121962Y-75400500D01*
X121121962Y-75400499D01*
X121260053Y-75359953D01*
X121381128Y-75282143D01*
X121475377Y-75173373D01*
X121535165Y-75042457D01*
X121555647Y-74900000D01*
X125794353Y-74900000D01*
X125814834Y-75042456D01*
X125874622Y-75173371D01*
X125874623Y-75173373D01*
X125968872Y-75282143D01*
X126089947Y-75359953D01*
X126089950Y-75359954D01*
X126089949Y-75359954D01*
X126174487Y-75384776D01*
X126226336Y-75400000D01*
X126228036Y-75400499D01*
X126228038Y-75400500D01*
X126228039Y-75400500D01*
X126371962Y-75400500D01*
X126371962Y-75400499D01*
X126510053Y-75359953D01*
X126607960Y-75297031D01*
X126675000Y-75277347D01*
X126742039Y-75297032D01*
X126742040Y-75297032D01*
X126839947Y-75359953D01*
X126839948Y-75359953D01*
X126839949Y-75359954D01*
X126924487Y-75384776D01*
X126976336Y-75400000D01*
X126978036Y-75400499D01*
X126978038Y-75400500D01*
X126978039Y-75400500D01*
X127121962Y-75400500D01*
X127121962Y-75400499D01*
X127260053Y-75359953D01*
X127381128Y-75282143D01*
X127475377Y-75173373D01*
X127535165Y-75042457D01*
X127555647Y-74900000D01*
X127535165Y-74757543D01*
X127475377Y-74626627D01*
X127381128Y-74517857D01*
X127260053Y-74440047D01*
X127260051Y-74440046D01*
X127260049Y-74440045D01*
X127260050Y-74440045D01*
X127121963Y-74399500D01*
X127121961Y-74399500D01*
X126978039Y-74399500D01*
X126978036Y-74399500D01*
X126839949Y-74440045D01*
X126742039Y-74502968D01*
X126674999Y-74522652D01*
X126607961Y-74502968D01*
X126510050Y-74440045D01*
X126371963Y-74399500D01*
X126371961Y-74399500D01*
X126228039Y-74399500D01*
X126228036Y-74399500D01*
X126089949Y-74440045D01*
X125968873Y-74517856D01*
X125874623Y-74626626D01*
X125874622Y-74626628D01*
X125814834Y-74757543D01*
X125794353Y-74900000D01*
X121555647Y-74900000D01*
X121535165Y-74757543D01*
X121475377Y-74626627D01*
X121381128Y-74517857D01*
X121260053Y-74440047D01*
X121260051Y-74440046D01*
X121260049Y-74440045D01*
X121260050Y-74440045D01*
X121121963Y-74399500D01*
X121121961Y-74399500D01*
X120978039Y-74399500D01*
X120978036Y-74399500D01*
X120839949Y-74440045D01*
X120718872Y-74517856D01*
X120693712Y-74546893D01*
X120634933Y-74584667D01*
X120565064Y-74584666D01*
X120506288Y-74546893D01*
X120481127Y-74517856D01*
X120434502Y-74487892D01*
X120360053Y-74440047D01*
X120360051Y-74440046D01*
X120360049Y-74440045D01*
X120360050Y-74440045D01*
X120221963Y-74399500D01*
X120221961Y-74399500D01*
X120078039Y-74399500D01*
X120078036Y-74399500D01*
X119939949Y-74440045D01*
X119818873Y-74517856D01*
X119724623Y-74626626D01*
X119724622Y-74626628D01*
X119664834Y-74757543D01*
X119644353Y-74900000D01*
X112482587Y-74900000D01*
X112524877Y-74779141D01*
X112524878Y-74779138D01*
X112545062Y-74600002D01*
X112545062Y-74599997D01*
X112524878Y-74420861D01*
X112465333Y-74250692D01*
X112456661Y-74236892D01*
X112456660Y-74236892D01*
X112093553Y-74600000D01*
X111840000Y-74600000D01*
X111840000Y-74580109D01*
X111824776Y-74543355D01*
X111796645Y-74515224D01*
X111759891Y-74500000D01*
X111720109Y-74500000D01*
X111683355Y-74515224D01*
X111655224Y-74543355D01*
X111640000Y-74580109D01*
X111366555Y-74580109D01*
X111105760Y-74319314D01*
X111040000Y-74253553D01*
X110974240Y-74319314D01*
X110974239Y-74319314D01*
X110693553Y-74599999D01*
X110440000Y-74599999D01*
X110440000Y-74580109D01*
X110424776Y-74543355D01*
X110396645Y-74515224D01*
X110359891Y-74500000D01*
X110320109Y-74500000D01*
X110283355Y-74515224D01*
X110255224Y-74543355D01*
X110240000Y-74580109D01*
X109966555Y-74580109D01*
X109705760Y-74319314D01*
X109640000Y-74253553D01*
X109574240Y-74319314D01*
X109574239Y-74319314D01*
X109293553Y-74599999D01*
X109040000Y-74599999D01*
X109040000Y-74580109D01*
X109024776Y-74543355D01*
X108996645Y-74515224D01*
X108959891Y-74500000D01*
X108920109Y-74500000D01*
X108883355Y-74515224D01*
X108855224Y-74543355D01*
X108840000Y-74580109D01*
X108566556Y-74580109D01*
X108223338Y-74236891D01*
X108223337Y-74236891D01*
X108214667Y-74250691D01*
X108214662Y-74250701D01*
X108155122Y-74420858D01*
X108155121Y-74420861D01*
X108134938Y-74599997D01*
X86100500Y-74599997D01*
X86100500Y-73883337D01*
X108576891Y-73883337D01*
X108576891Y-73883338D01*
X108939998Y-74246446D01*
X108939999Y-74246446D01*
X109215868Y-73970577D01*
X109286446Y-73899998D01*
X109266557Y-73880109D01*
X109540000Y-73880109D01*
X109540000Y-73919891D01*
X109555224Y-73956645D01*
X109583355Y-73984776D01*
X109620109Y-74000000D01*
X109659891Y-74000000D01*
X109696645Y-73984776D01*
X109724776Y-73956645D01*
X109740000Y-73919891D01*
X109740000Y-73899998D01*
X109993553Y-73899998D01*
X109993553Y-73899999D01*
X110340000Y-74246446D01*
X110615870Y-73970577D01*
X110686446Y-73899999D01*
X110686446Y-73899998D01*
X110666557Y-73880109D01*
X110940000Y-73880109D01*
X110940000Y-73919891D01*
X110955224Y-73956645D01*
X110983355Y-73984776D01*
X111020109Y-74000000D01*
X111059891Y-74000000D01*
X111096645Y-73984776D01*
X111124776Y-73956645D01*
X111140000Y-73919891D01*
X111140000Y-73899998D01*
X111393553Y-73899998D01*
X111393553Y-73899999D01*
X111740000Y-74246446D01*
X111740001Y-74246446D01*
X112103107Y-73883338D01*
X112089301Y-73874663D01*
X111919142Y-73815121D01*
X111918346Y-73814940D01*
X111917883Y-73814681D01*
X111912570Y-73812822D01*
X111912895Y-73811890D01*
X111857370Y-73780827D01*
X111840539Y-73750000D01*
X113044353Y-73750000D01*
X113064834Y-73892456D01*
X113106996Y-73984776D01*
X113124623Y-74023373D01*
X113218872Y-74132143D01*
X113339947Y-74209953D01*
X113339950Y-74209954D01*
X113339949Y-74209954D01*
X113478036Y-74250499D01*
X113478038Y-74250500D01*
X113478039Y-74250500D01*
X113621962Y-74250500D01*
X113621962Y-74250499D01*
X113760053Y-74209953D01*
X113881128Y-74132143D01*
X113975377Y-74023373D01*
X114035165Y-73892457D01*
X114055647Y-73750000D01*
X114035165Y-73607543D01*
X113975377Y-73476627D01*
X113881128Y-73367857D01*
X113760053Y-73290047D01*
X113760051Y-73290046D01*
X113760049Y-73290045D01*
X113760050Y-73290045D01*
X113621963Y-73249500D01*
X113621961Y-73249500D01*
X113478039Y-73249500D01*
X113478036Y-73249500D01*
X113339949Y-73290045D01*
X113218873Y-73367856D01*
X113124623Y-73476626D01*
X113124622Y-73476628D01*
X113064834Y-73607543D01*
X113044353Y-73750000D01*
X111840539Y-73750000D01*
X111828049Y-73727125D01*
X111827177Y-73727431D01*
X111825321Y-73722128D01*
X111825057Y-73721644D01*
X111824878Y-73720862D01*
X111765333Y-73550692D01*
X111756661Y-73536892D01*
X111756660Y-73536892D01*
X111393553Y-73899998D01*
X111140000Y-73899998D01*
X111140000Y-73880109D01*
X111124776Y-73843355D01*
X111096645Y-73815224D01*
X111059891Y-73800000D01*
X111020109Y-73800000D01*
X110983355Y-73815224D01*
X110955224Y-73843355D01*
X110940000Y-73880109D01*
X110666557Y-73880109D01*
X110340001Y-73553553D01*
X110340000Y-73553553D01*
X109993553Y-73899998D01*
X109740000Y-73899998D01*
X109740000Y-73880109D01*
X109724776Y-73843355D01*
X109696645Y-73815224D01*
X109659891Y-73800000D01*
X109620109Y-73800000D01*
X109583355Y-73815224D01*
X109555224Y-73843355D01*
X109540000Y-73880109D01*
X109266557Y-73880109D01*
X108923338Y-73536891D01*
X108923337Y-73536891D01*
X108914667Y-73550691D01*
X108914662Y-73550701D01*
X108855119Y-73720866D01*
X108854939Y-73721656D01*
X108854682Y-73722113D01*
X108852823Y-73727429D01*
X108851891Y-73727103D01*
X108820824Y-73782631D01*
X108767124Y-73811952D01*
X108767429Y-73812823D01*
X108762145Y-73814671D01*
X108761656Y-73814939D01*
X108760866Y-73815119D01*
X108590701Y-73874662D01*
X108590691Y-73874667D01*
X108576891Y-73883337D01*
X86100500Y-73883337D01*
X86100500Y-73250000D01*
X94244353Y-73250000D01*
X94264834Y-73392456D01*
X94303275Y-73476628D01*
X94324623Y-73523373D01*
X94418872Y-73632143D01*
X94539947Y-73709953D01*
X94539950Y-73709954D01*
X94539949Y-73709954D01*
X94598355Y-73727103D01*
X94676336Y-73750000D01*
X94678036Y-73750499D01*
X94678038Y-73750500D01*
X94678039Y-73750500D01*
X94821962Y-73750500D01*
X94821962Y-73750499D01*
X94960053Y-73709953D01*
X95081128Y-73632143D01*
X95175377Y-73523373D01*
X95175378Y-73523371D01*
X95181185Y-73516670D01*
X95184026Y-73519132D01*
X95223397Y-73484962D01*
X95292547Y-73474962D01*
X95356126Y-73503935D01*
X95367870Y-73517488D01*
X95368815Y-73516670D01*
X95374622Y-73523372D01*
X95374623Y-73523373D01*
X95468872Y-73632143D01*
X95589947Y-73709953D01*
X95589950Y-73709954D01*
X95589949Y-73709954D01*
X95648355Y-73727103D01*
X95726336Y-73750000D01*
X95728036Y-73750499D01*
X95728038Y-73750500D01*
X95728039Y-73750500D01*
X95871962Y-73750500D01*
X95871962Y-73750499D01*
X96010053Y-73709953D01*
X96131128Y-73632143D01*
X96225377Y-73523373D01*
X96285165Y-73392457D01*
X96305647Y-73250000D01*
X96296062Y-73183337D01*
X109276891Y-73183337D01*
X109276891Y-73183338D01*
X109640000Y-73546446D01*
X109640001Y-73546446D01*
X110003107Y-73183338D01*
X110003105Y-73183337D01*
X110676891Y-73183337D01*
X110676891Y-73183338D01*
X111040000Y-73546446D01*
X111040001Y-73546446D01*
X111403107Y-73183338D01*
X111389304Y-73174665D01*
X111219138Y-73115121D01*
X111040003Y-73094938D01*
X111039997Y-73094938D01*
X110860861Y-73115121D01*
X110860858Y-73115122D01*
X110690701Y-73174662D01*
X110690691Y-73174667D01*
X110676891Y-73183337D01*
X110003105Y-73183337D01*
X109989304Y-73174665D01*
X109819138Y-73115121D01*
X109640003Y-73094938D01*
X109639997Y-73094938D01*
X109460861Y-73115121D01*
X109460858Y-73115122D01*
X109290701Y-73174662D01*
X109290691Y-73174667D01*
X109276891Y-73183337D01*
X96296062Y-73183337D01*
X96285165Y-73107543D01*
X96225377Y-72976627D01*
X96131128Y-72867857D01*
X96010053Y-72790047D01*
X96010051Y-72790046D01*
X96010049Y-72790045D01*
X96010050Y-72790045D01*
X95871963Y-72749500D01*
X95871961Y-72749500D01*
X95728039Y-72749500D01*
X95728036Y-72749500D01*
X95589949Y-72790045D01*
X95468873Y-72867856D01*
X95368815Y-72983330D01*
X95366010Y-72980900D01*
X95326279Y-73015185D01*
X95257101Y-73024986D01*
X95193605Y-72995831D01*
X95182091Y-72982544D01*
X95181185Y-72983330D01*
X95175376Y-72976626D01*
X95081128Y-72867857D01*
X94960053Y-72790047D01*
X94960051Y-72790046D01*
X94960049Y-72790045D01*
X94960050Y-72790045D01*
X94821963Y-72749500D01*
X94821961Y-72749500D01*
X94678039Y-72749500D01*
X94678036Y-72749500D01*
X94539949Y-72790045D01*
X94418873Y-72867856D01*
X94324623Y-72976626D01*
X94324622Y-72976628D01*
X94264834Y-73107543D01*
X94244353Y-73250000D01*
X86100500Y-73250000D01*
X86100500Y-72000000D01*
X136194353Y-72000000D01*
X136214834Y-72142456D01*
X136274622Y-72273371D01*
X136274623Y-72273373D01*
X136368872Y-72382143D01*
X136489947Y-72459953D01*
X136489950Y-72459954D01*
X136489949Y-72459954D01*
X136628036Y-72500499D01*
X136628038Y-72500500D01*
X136628039Y-72500500D01*
X136771962Y-72500500D01*
X136771962Y-72500499D01*
X136910053Y-72459953D01*
X137031128Y-72382143D01*
X137125377Y-72273373D01*
X137185165Y-72142457D01*
X137205647Y-72000000D01*
X137185165Y-71857543D01*
X137125377Y-71726627D01*
X137031128Y-71617857D01*
X136910053Y-71540047D01*
X136910051Y-71540046D01*
X136910049Y-71540045D01*
X136910050Y-71540045D01*
X136771963Y-71499500D01*
X136771961Y-71499500D01*
X136628039Y-71499500D01*
X136628036Y-71499500D01*
X136489949Y-71540045D01*
X136368873Y-71617856D01*
X136274623Y-71726626D01*
X136274622Y-71726628D01*
X136214834Y-71857543D01*
X136194353Y-72000000D01*
X86100500Y-72000000D01*
X86100500Y-70350000D01*
X109244353Y-70350000D01*
X109264834Y-70492456D01*
X109324622Y-70623371D01*
X109324623Y-70623373D01*
X109418872Y-70732143D01*
X109539947Y-70809953D01*
X109539950Y-70809954D01*
X109539949Y-70809954D01*
X109678036Y-70850499D01*
X109678038Y-70850500D01*
X109678039Y-70850500D01*
X109821962Y-70850500D01*
X109821962Y-70850499D01*
X109960053Y-70809953D01*
X110053342Y-70750000D01*
X128394353Y-70750000D01*
X128414834Y-70892456D01*
X128474622Y-71023371D01*
X128474623Y-71023373D01*
X128568872Y-71132143D01*
X128689947Y-71209953D01*
X128689950Y-71209954D01*
X128689949Y-71209954D01*
X128828036Y-71250499D01*
X128828038Y-71250500D01*
X128828039Y-71250500D01*
X128971962Y-71250500D01*
X128971962Y-71250499D01*
X129110053Y-71209953D01*
X129231128Y-71132143D01*
X129325377Y-71023373D01*
X129385165Y-70892457D01*
X129405647Y-70750000D01*
X129385165Y-70607543D01*
X129325377Y-70476627D01*
X129231128Y-70367857D01*
X129110053Y-70290047D01*
X129110051Y-70290046D01*
X129110049Y-70290045D01*
X129110050Y-70290045D01*
X128971963Y-70249500D01*
X128971961Y-70249500D01*
X128828039Y-70249500D01*
X128828036Y-70249500D01*
X128689949Y-70290045D01*
X128568873Y-70367856D01*
X128474623Y-70476626D01*
X128474622Y-70476628D01*
X128414834Y-70607543D01*
X128394353Y-70750000D01*
X110053342Y-70750000D01*
X110081128Y-70732143D01*
X110175377Y-70623373D01*
X110235165Y-70492457D01*
X110255647Y-70350000D01*
X110235165Y-70207543D01*
X110175377Y-70076627D01*
X110081128Y-69967857D01*
X109960053Y-69890047D01*
X109960051Y-69890046D01*
X109960049Y-69890045D01*
X109960050Y-69890045D01*
X109821963Y-69849500D01*
X109821961Y-69849500D01*
X109678039Y-69849500D01*
X109678036Y-69849500D01*
X109539949Y-69890045D01*
X109418873Y-69967856D01*
X109324623Y-70076626D01*
X109324622Y-70076628D01*
X109264834Y-70207543D01*
X109244353Y-70350000D01*
X86100500Y-70350000D01*
X86100500Y-69500000D01*
X114994353Y-69500000D01*
X115014834Y-69642456D01*
X115074622Y-69773371D01*
X115074623Y-69773373D01*
X115168872Y-69882143D01*
X115289947Y-69959953D01*
X115289950Y-69959954D01*
X115289949Y-69959954D01*
X115428036Y-70000499D01*
X115428038Y-70000500D01*
X115428039Y-70000500D01*
X115571962Y-70000500D01*
X115571962Y-70000499D01*
X115710053Y-69959953D01*
X115831128Y-69882143D01*
X115925377Y-69773373D01*
X115985165Y-69642457D01*
X116005647Y-69500000D01*
X116294353Y-69500000D01*
X116314834Y-69642456D01*
X116374622Y-69773371D01*
X116374623Y-69773373D01*
X116468872Y-69882143D01*
X116589947Y-69959953D01*
X116589950Y-69959954D01*
X116589949Y-69959954D01*
X116728036Y-70000499D01*
X116728038Y-70000500D01*
X116728039Y-70000500D01*
X116871962Y-70000500D01*
X116871962Y-70000499D01*
X117010053Y-69959953D01*
X117131128Y-69882143D01*
X117156288Y-69853106D01*
X117215065Y-69815333D01*
X117284935Y-69815333D01*
X117343711Y-69853106D01*
X117368872Y-69882143D01*
X117489947Y-69959953D01*
X117489950Y-69959954D01*
X117489949Y-69959954D01*
X117628036Y-70000499D01*
X117628038Y-70000500D01*
X117628039Y-70000500D01*
X117771962Y-70000500D01*
X117771962Y-70000499D01*
X117910053Y-69959953D01*
X118031128Y-69882143D01*
X118125377Y-69773373D01*
X118185165Y-69642457D01*
X118205647Y-69500000D01*
X118185165Y-69357543D01*
X118125377Y-69226627D01*
X118031128Y-69117857D01*
X117910053Y-69040047D01*
X117910051Y-69040046D01*
X117910049Y-69040045D01*
X117910050Y-69040045D01*
X117771963Y-68999500D01*
X117771961Y-68999500D01*
X117628039Y-68999500D01*
X117628036Y-68999500D01*
X117489949Y-69040045D01*
X117368872Y-69117856D01*
X117343712Y-69146893D01*
X117284933Y-69184667D01*
X117215064Y-69184666D01*
X117156288Y-69146893D01*
X117131127Y-69117856D01*
X117084502Y-69087892D01*
X117010053Y-69040047D01*
X117010051Y-69040046D01*
X117010049Y-69040045D01*
X117010050Y-69040045D01*
X116871963Y-68999500D01*
X116871961Y-68999500D01*
X116728039Y-68999500D01*
X116728036Y-68999500D01*
X116589949Y-69040045D01*
X116468873Y-69117856D01*
X116374623Y-69226626D01*
X116374622Y-69226628D01*
X116314834Y-69357543D01*
X116294353Y-69500000D01*
X116005647Y-69500000D01*
X115985165Y-69357543D01*
X115925377Y-69226627D01*
X115831128Y-69117857D01*
X115710053Y-69040047D01*
X115710051Y-69040046D01*
X115710049Y-69040045D01*
X115710050Y-69040045D01*
X115571963Y-68999500D01*
X115571961Y-68999500D01*
X115428039Y-68999500D01*
X115428036Y-68999500D01*
X115289949Y-69040045D01*
X115168873Y-69117856D01*
X115074623Y-69226626D01*
X115074622Y-69226628D01*
X115014834Y-69357543D01*
X114994353Y-69500000D01*
X86100500Y-69500000D01*
X86100500Y-67500000D01*
X98094353Y-67500000D01*
X98114834Y-67642456D01*
X98174622Y-67773371D01*
X98174623Y-67773373D01*
X98268872Y-67882143D01*
X98389947Y-67959953D01*
X98389950Y-67959954D01*
X98389949Y-67959954D01*
X98528036Y-68000499D01*
X98528038Y-68000500D01*
X98528039Y-68000500D01*
X98671962Y-68000500D01*
X98671962Y-68000499D01*
X98810053Y-67959953D01*
X98931128Y-67882143D01*
X99025377Y-67773373D01*
X99085165Y-67642457D01*
X99105647Y-67500000D01*
X99085165Y-67357543D01*
X99025377Y-67226627D01*
X98931128Y-67117857D01*
X98810053Y-67040047D01*
X98810051Y-67040046D01*
X98810049Y-67040045D01*
X98810050Y-67040045D01*
X98671963Y-66999500D01*
X98671961Y-66999500D01*
X98528039Y-66999500D01*
X98528036Y-66999500D01*
X98389949Y-67040045D01*
X98268873Y-67117856D01*
X98174623Y-67226626D01*
X98174622Y-67226628D01*
X98114834Y-67357543D01*
X98094353Y-67500000D01*
X86100500Y-67500000D01*
X86100500Y-67210226D01*
X86120185Y-67143187D01*
X86125743Y-67135239D01*
X86138942Y-67117857D01*
X87367396Y-65500000D01*
X119594353Y-65500000D01*
X119614834Y-65642456D01*
X119674622Y-65773371D01*
X119674623Y-65773373D01*
X119768872Y-65882143D01*
X119889947Y-65959953D01*
X119889950Y-65959954D01*
X119889949Y-65959954D01*
X120028036Y-66000499D01*
X120028038Y-66000500D01*
X120028039Y-66000500D01*
X120171962Y-66000500D01*
X120171962Y-66000499D01*
X120310053Y-65959953D01*
X120431128Y-65882143D01*
X120525377Y-65773373D01*
X120585165Y-65642457D01*
X120605647Y-65500000D01*
X120585165Y-65357543D01*
X120525377Y-65226627D01*
X120431128Y-65117857D01*
X120310053Y-65040047D01*
X120310051Y-65040046D01*
X120310049Y-65040045D01*
X120310050Y-65040045D01*
X120171963Y-64999500D01*
X120171961Y-64999500D01*
X120028039Y-64999500D01*
X120028036Y-64999500D01*
X119889949Y-65040045D01*
X119768873Y-65117856D01*
X119674623Y-65226626D01*
X119674622Y-65226628D01*
X119614834Y-65357543D01*
X119594353Y-65500000D01*
X87367396Y-65500000D01*
X95544018Y-54731504D01*
X99880000Y-54731504D01*
X99880000Y-55130000D01*
X100580000Y-55130000D01*
X100580000Y-55630000D01*
X99880000Y-55630000D01*
X99880000Y-56028495D01*
X99918427Y-56221681D01*
X99918430Y-56221693D01*
X99993807Y-56403671D01*
X99993814Y-56403684D01*
X100103248Y-56567462D01*
X100103251Y-56567466D01*
X100242533Y-56706748D01*
X100242537Y-56706751D01*
X100406315Y-56816185D01*
X100406328Y-56816192D01*
X100588308Y-56891569D01*
X100630000Y-56899862D01*
X100630000Y-56096988D01*
X100639940Y-56114205D01*
X100695795Y-56170060D01*
X100764204Y-56209556D01*
X100840504Y-56230000D01*
X100919496Y-56230000D01*
X100995796Y-56209556D01*
X101064205Y-56170060D01*
X101120060Y-56114205D01*
X101130000Y-56096988D01*
X101130000Y-56899862D01*
X101171690Y-56891569D01*
X101171692Y-56891569D01*
X101353671Y-56816192D01*
X101353684Y-56816185D01*
X101517462Y-56706751D01*
X101517466Y-56706748D01*
X101656748Y-56567466D01*
X101656751Y-56567462D01*
X101766185Y-56403684D01*
X101766192Y-56403671D01*
X101841569Y-56221693D01*
X101841572Y-56221681D01*
X101879999Y-56028495D01*
X101880000Y-56028492D01*
X101880000Y-55618622D01*
X101899685Y-55551583D01*
X101952489Y-55505828D01*
X102021647Y-55495884D01*
X102051448Y-55504059D01*
X102112964Y-55529540D01*
X102112968Y-55529540D01*
X102112969Y-55529541D01*
X102243466Y-55555500D01*
X102243469Y-55555500D01*
X102376533Y-55555500D01*
X102464325Y-55538035D01*
X102507036Y-55529540D01*
X102629969Y-55478620D01*
X102740606Y-55404695D01*
X102834695Y-55310606D01*
X102908620Y-55199969D01*
X102959540Y-55077036D01*
X102985500Y-54946533D01*
X107414499Y-54946533D01*
X107440458Y-55077030D01*
X107440461Y-55077040D01*
X107491376Y-55199961D01*
X107491386Y-55199979D01*
X107565301Y-55310601D01*
X107565307Y-55310609D01*
X107659390Y-55404692D01*
X107659398Y-55404698D01*
X107770020Y-55478613D01*
X107770023Y-55478614D01*
X107770031Y-55478620D01*
X107770037Y-55478622D01*
X107770038Y-55478623D01*
X107888925Y-55527867D01*
X107892964Y-55529540D01*
X107892968Y-55529540D01*
X107892969Y-55529541D01*
X108023466Y-55555500D01*
X108023469Y-55555500D01*
X108156533Y-55555500D01*
X108244325Y-55538035D01*
X108287036Y-55529540D01*
X108348548Y-55504060D01*
X108418016Y-55496592D01*
X108480496Y-55527867D01*
X108516148Y-55587956D01*
X108520000Y-55618622D01*
X108520000Y-56028495D01*
X108558427Y-56221681D01*
X108558430Y-56221693D01*
X108633807Y-56403671D01*
X108633814Y-56403684D01*
X108743248Y-56567462D01*
X108743251Y-56567466D01*
X108882533Y-56706748D01*
X108882537Y-56706751D01*
X109046315Y-56816185D01*
X109046328Y-56816192D01*
X109228308Y-56891569D01*
X109270000Y-56899862D01*
X109270000Y-56096988D01*
X109279940Y-56114205D01*
X109335795Y-56170060D01*
X109404204Y-56209556D01*
X109480504Y-56230000D01*
X109559496Y-56230000D01*
X109635796Y-56209556D01*
X109704205Y-56170060D01*
X109760060Y-56114205D01*
X109770000Y-56096988D01*
X109770000Y-56899862D01*
X109811690Y-56891569D01*
X109811692Y-56891569D01*
X109993671Y-56816192D01*
X109993684Y-56816185D01*
X110157462Y-56706751D01*
X110157466Y-56706748D01*
X110296748Y-56567466D01*
X110296751Y-56567462D01*
X110406185Y-56403684D01*
X110406192Y-56403671D01*
X110481569Y-56221693D01*
X110481572Y-56221681D01*
X110519999Y-56028495D01*
X110520000Y-56028492D01*
X110520000Y-55630000D01*
X109820000Y-55630000D01*
X109820000Y-55130000D01*
X110520000Y-55130000D01*
X110520000Y-54731508D01*
X110519999Y-54731504D01*
X110481572Y-54538318D01*
X110481569Y-54538306D01*
X110406192Y-54356328D01*
X110406185Y-54356315D01*
X110296751Y-54192537D01*
X110296748Y-54192533D01*
X110157466Y-54053251D01*
X110157462Y-54053248D01*
X109993684Y-53943814D01*
X109993671Y-53943807D01*
X109811691Y-53868429D01*
X109811683Y-53868427D01*
X109770000Y-53860135D01*
X109770000Y-54663011D01*
X109760060Y-54645795D01*
X109704205Y-54589940D01*
X109635796Y-54550444D01*
X109559496Y-54530000D01*
X109480504Y-54530000D01*
X109404204Y-54550444D01*
X109335795Y-54589940D01*
X109279940Y-54645795D01*
X109270000Y-54663011D01*
X109270000Y-53860136D01*
X109269999Y-53860135D01*
X109228316Y-53868427D01*
X109228308Y-53868429D01*
X109046328Y-53943807D01*
X109046315Y-53943814D01*
X108882537Y-54053248D01*
X108882533Y-54053251D01*
X108743251Y-54192533D01*
X108743248Y-54192537D01*
X108668229Y-54304810D01*
X108614616Y-54349615D01*
X108545291Y-54358322D01*
X108496237Y-54339022D01*
X108409972Y-54281382D01*
X108409971Y-54281381D01*
X108409969Y-54281380D01*
X108409966Y-54281378D01*
X108409961Y-54281376D01*
X108287040Y-54230461D01*
X108287030Y-54230458D01*
X108156533Y-54204500D01*
X108156531Y-54204500D01*
X108023469Y-54204500D01*
X108023467Y-54204500D01*
X107892969Y-54230458D01*
X107892959Y-54230461D01*
X107770038Y-54281376D01*
X107770020Y-54281386D01*
X107659398Y-54355301D01*
X107659390Y-54355307D01*
X107565307Y-54449390D01*
X107565301Y-54449398D01*
X107491386Y-54560020D01*
X107491376Y-54560038D01*
X107440461Y-54682959D01*
X107440458Y-54682969D01*
X107414500Y-54813466D01*
X107414500Y-54813469D01*
X107414500Y-54946531D01*
X107414500Y-54946533D01*
X107414499Y-54946533D01*
X102985500Y-54946533D01*
X102985500Y-54946531D01*
X102985500Y-54813469D01*
X102985500Y-54813466D01*
X102959541Y-54682969D01*
X102959540Y-54682968D01*
X102959540Y-54682964D01*
X102908620Y-54560031D01*
X102902214Y-54550444D01*
X102834698Y-54449398D01*
X102834692Y-54449390D01*
X102740609Y-54355307D01*
X102740601Y-54355301D01*
X102629979Y-54281386D01*
X102629972Y-54281382D01*
X102629969Y-54281380D01*
X102629965Y-54281378D01*
X102629961Y-54281376D01*
X102507040Y-54230461D01*
X102507030Y-54230458D01*
X102376533Y-54204500D01*
X102376531Y-54204500D01*
X102243469Y-54204500D01*
X102243467Y-54204500D01*
X102112969Y-54230458D01*
X102112959Y-54230461D01*
X101990038Y-54281376D01*
X101990027Y-54281382D01*
X101903762Y-54339022D01*
X101837084Y-54359899D01*
X101769704Y-54341414D01*
X101731770Y-54304810D01*
X101656751Y-54192537D01*
X101656748Y-54192533D01*
X101517466Y-54053251D01*
X101517462Y-54053248D01*
X101353684Y-53943814D01*
X101353671Y-53943807D01*
X101171691Y-53868429D01*
X101171683Y-53868427D01*
X101130000Y-53860135D01*
X101130000Y-54663011D01*
X101120060Y-54645795D01*
X101064205Y-54589940D01*
X100995796Y-54550444D01*
X100919496Y-54530000D01*
X100840504Y-54530000D01*
X100764204Y-54550444D01*
X100695795Y-54589940D01*
X100639940Y-54645795D01*
X100630000Y-54663011D01*
X100630000Y-53860136D01*
X100629999Y-53860135D01*
X100588316Y-53868427D01*
X100588308Y-53868429D01*
X100406328Y-53943807D01*
X100406315Y-53943814D01*
X100242537Y-54053248D01*
X100242533Y-54053251D01*
X100103251Y-54192533D01*
X100103248Y-54192537D01*
X99993814Y-54356315D01*
X99993807Y-54356328D01*
X99918430Y-54538306D01*
X99918427Y-54538318D01*
X99880000Y-54731504D01*
X95544018Y-54731504D01*
X97102710Y-52678728D01*
X115149500Y-52678728D01*
X115149500Y-52846271D01*
X115182182Y-53010574D01*
X115182184Y-53010582D01*
X115246295Y-53165360D01*
X115339373Y-53304662D01*
X115457837Y-53423126D01*
X115550494Y-53485037D01*
X115597137Y-53516203D01*
X115751918Y-53580316D01*
X115916228Y-53612999D01*
X115916232Y-53613000D01*
X115916233Y-53613000D01*
X116083768Y-53613000D01*
X116083769Y-53612999D01*
X116248082Y-53580316D01*
X116402863Y-53516203D01*
X116542162Y-53423126D01*
X116660626Y-53304662D01*
X116753703Y-53165363D01*
X116817816Y-53010582D01*
X116850500Y-52846267D01*
X116850500Y-52678733D01*
X116850499Y-52678728D01*
X123149500Y-52678728D01*
X123149500Y-52846271D01*
X123182182Y-53010574D01*
X123182184Y-53010582D01*
X123246295Y-53165360D01*
X123339373Y-53304662D01*
X123457837Y-53423126D01*
X123550494Y-53485037D01*
X123597137Y-53516203D01*
X123751918Y-53580316D01*
X123916228Y-53612999D01*
X123916232Y-53613000D01*
X123916233Y-53613000D01*
X124083768Y-53613000D01*
X124083769Y-53612999D01*
X124248082Y-53580316D01*
X124402863Y-53516203D01*
X124542162Y-53423126D01*
X124660626Y-53304662D01*
X124753703Y-53165363D01*
X124817816Y-53010582D01*
X124850500Y-52846267D01*
X124850500Y-52678733D01*
X124817816Y-52514418D01*
X124753703Y-52359637D01*
X124672068Y-52237462D01*
X124660626Y-52220337D01*
X124542162Y-52101873D01*
X124464528Y-52050000D01*
X139244353Y-52050000D01*
X139264834Y-52192456D01*
X139277568Y-52220338D01*
X139324623Y-52323373D01*
X139418872Y-52432143D01*
X139539947Y-52509953D01*
X139539950Y-52509954D01*
X139539949Y-52509954D01*
X139678036Y-52550499D01*
X139678038Y-52550500D01*
X139678039Y-52550500D01*
X139821962Y-52550500D01*
X139821962Y-52550499D01*
X139944823Y-52514425D01*
X139960050Y-52509954D01*
X139960050Y-52509953D01*
X139960053Y-52509953D01*
X140081128Y-52432143D01*
X140175377Y-52323373D01*
X140235165Y-52192457D01*
X140255647Y-52050000D01*
X140235165Y-51907543D01*
X140175377Y-51776627D01*
X140081128Y-51667857D01*
X139960053Y-51590047D01*
X139960051Y-51590046D01*
X139960049Y-51590045D01*
X139960050Y-51590045D01*
X139821963Y-51549500D01*
X139821961Y-51549500D01*
X139678039Y-51549500D01*
X139678036Y-51549500D01*
X139539949Y-51590045D01*
X139418873Y-51667856D01*
X139324623Y-51776626D01*
X139324622Y-51776628D01*
X139264834Y-51907543D01*
X139244353Y-52050000D01*
X124464528Y-52050000D01*
X124402860Y-52008795D01*
X124248082Y-51944684D01*
X124248074Y-51944682D01*
X124083771Y-51912000D01*
X124083767Y-51912000D01*
X123916233Y-51912000D01*
X123916228Y-51912000D01*
X123751925Y-51944682D01*
X123751917Y-51944684D01*
X123597139Y-52008795D01*
X123457837Y-52101873D01*
X123339373Y-52220337D01*
X123246295Y-52359639D01*
X123182184Y-52514417D01*
X123182182Y-52514425D01*
X123149500Y-52678728D01*
X116850499Y-52678728D01*
X116817816Y-52514418D01*
X116753703Y-52359637D01*
X116672068Y-52237462D01*
X116660626Y-52220337D01*
X116542162Y-52101873D01*
X116402860Y-52008795D01*
X116248082Y-51944684D01*
X116248074Y-51944682D01*
X116083771Y-51912000D01*
X116083767Y-51912000D01*
X115916233Y-51912000D01*
X115916228Y-51912000D01*
X115751925Y-51944682D01*
X115751917Y-51944684D01*
X115597139Y-52008795D01*
X115457837Y-52101873D01*
X115339373Y-52220337D01*
X115246295Y-52359639D01*
X115182184Y-52514417D01*
X115182182Y-52514425D01*
X115149500Y-52678728D01*
X97102710Y-52678728D01*
X98604035Y-50701504D01*
X99880000Y-50701504D01*
X99880000Y-50950000D01*
X100580000Y-50950000D01*
X100580000Y-51450000D01*
X99880000Y-51450000D01*
X99880000Y-51698495D01*
X99918427Y-51891681D01*
X99918430Y-51891693D01*
X99993807Y-52073671D01*
X99993814Y-52073684D01*
X100103248Y-52237462D01*
X100103251Y-52237466D01*
X100242533Y-52376748D01*
X100242537Y-52376751D01*
X100406315Y-52486185D01*
X100406328Y-52486192D01*
X100588308Y-52561569D01*
X100630000Y-52569862D01*
X100630000Y-51766988D01*
X100639940Y-51784205D01*
X100695795Y-51840060D01*
X100764204Y-51879556D01*
X100840504Y-51900000D01*
X100919496Y-51900000D01*
X100995796Y-51879556D01*
X101064205Y-51840060D01*
X101120060Y-51784205D01*
X101130000Y-51766988D01*
X101130000Y-52569862D01*
X101171690Y-52561569D01*
X101171692Y-52561569D01*
X101353671Y-52486192D01*
X101353684Y-52486185D01*
X101517462Y-52376751D01*
X101517466Y-52376748D01*
X101656748Y-52237466D01*
X101656751Y-52237462D01*
X101766185Y-52073684D01*
X101766192Y-52073671D01*
X101841569Y-51891693D01*
X101841572Y-51891681D01*
X101879999Y-51698495D01*
X101880000Y-51698492D01*
X101880000Y-51450000D01*
X101180000Y-51450000D01*
X101180000Y-50950000D01*
X101880000Y-50950000D01*
X101880000Y-50701508D01*
X101879999Y-50701504D01*
X108520000Y-50701504D01*
X108520000Y-50950000D01*
X109220000Y-50950000D01*
X109220000Y-51450000D01*
X108520000Y-51450000D01*
X108520000Y-51698495D01*
X108558427Y-51891681D01*
X108558430Y-51891693D01*
X108633807Y-52073671D01*
X108633814Y-52073684D01*
X108743248Y-52237462D01*
X108743251Y-52237466D01*
X108882533Y-52376748D01*
X108882537Y-52376751D01*
X109046315Y-52486185D01*
X109046328Y-52486192D01*
X109228308Y-52561569D01*
X109270000Y-52569862D01*
X109270000Y-51766988D01*
X109279940Y-51784205D01*
X109335795Y-51840060D01*
X109404204Y-51879556D01*
X109480504Y-51900000D01*
X109559496Y-51900000D01*
X109635796Y-51879556D01*
X109704205Y-51840060D01*
X109760060Y-51784205D01*
X109770000Y-51766988D01*
X109770000Y-52569862D01*
X109811690Y-52561569D01*
X109811692Y-52561569D01*
X109993671Y-52486192D01*
X109993684Y-52486185D01*
X110157462Y-52376751D01*
X110157466Y-52376748D01*
X110296748Y-52237466D01*
X110296751Y-52237462D01*
X110406185Y-52073684D01*
X110406192Y-52073671D01*
X110481569Y-51891693D01*
X110481572Y-51891681D01*
X110519999Y-51698495D01*
X110520000Y-51698492D01*
X110520000Y-51450000D01*
X109820000Y-51450000D01*
X109820000Y-50950000D01*
X110520000Y-50950000D01*
X110520000Y-50701508D01*
X110519999Y-50701504D01*
X110481572Y-50508318D01*
X110481569Y-50508306D01*
X110406192Y-50326328D01*
X110406185Y-50326315D01*
X110296751Y-50162537D01*
X110296748Y-50162533D01*
X110157466Y-50023251D01*
X110157462Y-50023248D01*
X109993684Y-49913814D01*
X109993671Y-49913807D01*
X109811691Y-49838429D01*
X109811683Y-49838427D01*
X109770000Y-49830135D01*
X109770000Y-50633011D01*
X109760060Y-50615795D01*
X109704205Y-50559940D01*
X109635796Y-50520444D01*
X109559496Y-50500000D01*
X109480504Y-50500000D01*
X109404204Y-50520444D01*
X109335795Y-50559940D01*
X109279940Y-50615795D01*
X109270000Y-50633011D01*
X109270000Y-49830136D01*
X109269999Y-49830135D01*
X109228316Y-49838427D01*
X109228308Y-49838429D01*
X109046328Y-49913807D01*
X109046315Y-49913814D01*
X108882537Y-50023248D01*
X108882533Y-50023251D01*
X108743251Y-50162533D01*
X108743248Y-50162537D01*
X108633814Y-50326315D01*
X108633807Y-50326328D01*
X108558430Y-50508306D01*
X108558427Y-50508318D01*
X108520000Y-50701504D01*
X101879999Y-50701504D01*
X101841572Y-50508318D01*
X101841569Y-50508306D01*
X101766192Y-50326328D01*
X101766185Y-50326315D01*
X101656751Y-50162537D01*
X101656748Y-50162533D01*
X101517466Y-50023251D01*
X101517462Y-50023248D01*
X101353684Y-49913814D01*
X101353671Y-49913807D01*
X101171691Y-49838429D01*
X101171683Y-49838427D01*
X101130000Y-49830135D01*
X101130000Y-50633011D01*
X101120060Y-50615795D01*
X101064205Y-50559940D01*
X100995796Y-50520444D01*
X100919496Y-50500000D01*
X100840504Y-50500000D01*
X100764204Y-50520444D01*
X100695795Y-50559940D01*
X100639940Y-50615795D01*
X100630000Y-50633011D01*
X100630000Y-49830136D01*
X100629999Y-49830135D01*
X100588316Y-49838427D01*
X100588308Y-49838429D01*
X100406328Y-49913807D01*
X100406315Y-49913814D01*
X100242537Y-50023248D01*
X100242533Y-50023251D01*
X100103251Y-50162533D01*
X100103248Y-50162537D01*
X99993814Y-50326315D01*
X99993807Y-50326328D01*
X99918430Y-50508306D01*
X99918427Y-50508318D01*
X99880000Y-50701504D01*
X98604035Y-50701504D01*
X100053823Y-48792154D01*
X100110041Y-48750666D01*
X100152580Y-48743141D01*
X144218141Y-48743141D01*
X144285180Y-48762826D01*
G37*
%TD.AperFunction*%
%TD*%
M02*
