%TF.GenerationSoftware,KiCad,Pcbnew,8.0.2*%
%TF.CreationDate,2024-08-05T00:03:35+02:00*%
%TF.ProjectId,Leiterkarte-v2,4c656974-6572-46b6-9172-74652d76322e,rev?*%
%TF.SameCoordinates,Original*%
%TF.FileFunction,Copper,L1,Top*%
%TF.FilePolarity,Positive*%
%FSLAX46Y46*%
G04 Gerber Fmt 4.6, Leading zero omitted, Abs format (unit mm)*
G04 Created by KiCad (PCBNEW 8.0.2) date 2024-08-05 00:03:35*
%MOMM*%
%LPD*%
G01*
G04 APERTURE LIST*
G04 Aperture macros list*
%AMRoundRect*
0 Rectangle with rounded corners*
0 $1 Rounding radius*
0 $2 $3 $4 $5 $6 $7 $8 $9 X,Y pos of 4 corners*
0 Add a 4 corners polygon primitive as box body*
4,1,4,$2,$3,$4,$5,$6,$7,$8,$9,$2,$3,0*
0 Add four circle primitives for the rounded corners*
1,1,$1+$1,$2,$3*
1,1,$1+$1,$4,$5*
1,1,$1+$1,$6,$7*
1,1,$1+$1,$8,$9*
0 Add four rect primitives between the rounded corners*
20,1,$1+$1,$2,$3,$4,$5,0*
20,1,$1+$1,$4,$5,$6,$7,0*
20,1,$1+$1,$6,$7,$8,$9,0*
20,1,$1+$1,$8,$9,$2,$3,0*%
G04 Aperture macros list end*
%TA.AperFunction,SMDPad,CuDef*%
%ADD10RoundRect,0.250000X-0.262500X-0.450000X0.262500X-0.450000X0.262500X0.450000X-0.262500X0.450000X0*%
%TD*%
%TA.AperFunction,ComponentPad*%
%ADD11RoundRect,0.250002X-1.499998X-1.499998X1.499998X-1.499998X1.499998X1.499998X-1.499998X1.499998X0*%
%TD*%
%TA.AperFunction,ComponentPad*%
%ADD12R,1.700000X1.700000*%
%TD*%
%TA.AperFunction,SMDPad,CuDef*%
%ADD13RoundRect,0.075000X-0.725000X-0.075000X0.725000X-0.075000X0.725000X0.075000X-0.725000X0.075000X0*%
%TD*%
%TA.AperFunction,SMDPad,CuDef*%
%ADD14RoundRect,0.075000X-0.075000X-0.725000X0.075000X-0.725000X0.075000X0.725000X-0.075000X0.725000X0*%
%TD*%
%TA.AperFunction,SMDPad,CuDef*%
%ADD15RoundRect,0.250000X-0.325000X-1.100000X0.325000X-1.100000X0.325000X1.100000X-0.325000X1.100000X0*%
%TD*%
%TA.AperFunction,SMDPad,CuDef*%
%ADD16RoundRect,0.243750X-0.243750X-0.456250X0.243750X-0.456250X0.243750X0.456250X-0.243750X0.456250X0*%
%TD*%
%TA.AperFunction,SMDPad,CuDef*%
%ADD17RoundRect,0.100000X-0.225000X-0.100000X0.225000X-0.100000X0.225000X0.100000X-0.225000X0.100000X0*%
%TD*%
%TA.AperFunction,SMDPad,CuDef*%
%ADD18RoundRect,0.035000X-0.700000X-0.105000X0.700000X-0.105000X0.700000X0.105000X-0.700000X0.105000X0*%
%TD*%
%TA.AperFunction,SMDPad,CuDef*%
%ADD19RoundRect,0.250000X2.050000X0.300000X-2.050000X0.300000X-2.050000X-0.300000X2.050000X-0.300000X0*%
%TD*%
%TA.AperFunction,SMDPad,CuDef*%
%ADD20RoundRect,0.250000X2.025000X2.375000X-2.025000X2.375000X-2.025000X-2.375000X2.025000X-2.375000X0*%
%TD*%
%TA.AperFunction,SMDPad,CuDef*%
%ADD21RoundRect,0.250002X4.449998X5.149998X-4.449998X5.149998X-4.449998X-5.149998X4.449998X-5.149998X0*%
%TD*%
%TA.AperFunction,SMDPad,CuDef*%
%ADD22RoundRect,0.218750X-0.218750X-0.256250X0.218750X-0.256250X0.218750X0.256250X-0.218750X0.256250X0*%
%TD*%
%TA.AperFunction,SMDPad,CuDef*%
%ADD23R,1.500000X0.800000*%
%TD*%
%TA.AperFunction,SMDPad,CuDef*%
%ADD24R,2.000000X1.450000*%
%TD*%
%TA.AperFunction,SMDPad,CuDef*%
%ADD25RoundRect,0.250000X-0.375000X-0.625000X0.375000X-0.625000X0.375000X0.625000X-0.375000X0.625000X0*%
%TD*%
G04 APERTURE END LIST*
D10*
%TO.P,R5,1*%
%TO.N,Net-(RINDIC2-Pin_1)*%
X83357500Y-50000000D03*
%TO.P,R5,2*%
%TO.N,RIndicator*%
X85182500Y-50000000D03*
%TD*%
D11*
%TO.P,GND_1,1,Pin_1*%
%TO.N,GND*%
X167750000Y-28500000D03*
%TD*%
D12*
%TO.P,VCC_SPI_2,1,Pin_1*%
%TO.N,5V*%
X182750000Y-28500000D03*
%TD*%
%TO.P,SCK_SPI3,1,Pin_1*%
%TO.N,Net-(SCK_SPI3-Pin_1)*%
X186500000Y-39750000D03*
%TD*%
%TO.P,GND_SPI_2,1,Pin_1*%
%TO.N,GND*%
X182750000Y-32250000D03*
%TD*%
%TO.P,RPM1,1,Pin_1*%
%TO.N,Net-(RPM1-Pin_1)*%
X79740000Y-31350000D03*
%TD*%
D10*
%TO.P,R10,1*%
%TO.N,Net-(Speed+1-Pin_1)*%
X87767500Y-50000000D03*
%TO.P,R10,2*%
%TO.N,Net-(U2-IN+)*%
X89592500Y-50000000D03*
%TD*%
%TO.P,R2,1*%
%TO.N,3.3V*%
X83357500Y-41150000D03*
%TO.P,R2,2*%
%TO.N,Oil*%
X85182500Y-41150000D03*
%TD*%
%TO.P,UP1,1*%
%TO.N,Net-(U2-COUT)*%
X92177500Y-47050000D03*
%TO.P,UP1,2*%
%TO.N,5V*%
X94002500Y-47050000D03*
%TD*%
D13*
%TO.P,U1,1,PE2*%
%TO.N,Net-(CS_SPI1-Pin_1)*%
X132650000Y-42000000D03*
%TO.P,U1,2,PE3*%
%TO.N,Net-(CS_SPI2-Pin_1)*%
X132650000Y-42500000D03*
%TO.P,U1,3,PE4*%
%TO.N,Net-(CS_SPI3-Pin_1)*%
X132650000Y-43000000D03*
%TO.P,U1,4,PE5*%
%TO.N,unconnected-(U1-PE5-Pad4)*%
X132650000Y-43500000D03*
%TO.P,U1,5,PE6*%
%TO.N,unconnected-(U1-PE6-Pad5)*%
X132650000Y-44000000D03*
%TO.P,U1,6,VBAT*%
%TO.N,unconnected-(U1-VBAT-Pad6)*%
X132650000Y-44500000D03*
%TO.P,U1,7,PC13*%
%TO.N,unconnected-(U1-PC13-Pad7)*%
X132650000Y-45000000D03*
%TO.P,U1,8,PC14*%
%TO.N,unconnected-(U1-PC14-Pad8)*%
X132650000Y-45500000D03*
%TO.P,U1,9,PC15*%
%TO.N,unconnected-(U1-PC15-Pad9)*%
X132650000Y-46000000D03*
%TO.P,U1,10,VSS*%
%TO.N,GND*%
X132650000Y-46500000D03*
%TO.P,U1,11,VDD*%
%TO.N,3.3V*%
X132650000Y-47000000D03*
%TO.P,U1,12,PH0*%
%TO.N,unconnected-(U1-PH0-Pad12)*%
X132650000Y-47500000D03*
%TO.P,U1,13,PH1*%
%TO.N,unconnected-(U1-PH1-Pad13)*%
X132650000Y-48000000D03*
%TO.P,U1,14,NRST*%
%TO.N,Net-(U1-NRST)*%
X132650000Y-48500000D03*
%TO.P,U1,15,PC0*%
%TO.N,Speed*%
X132650000Y-49000000D03*
%TO.P,U1,16,PC1*%
%TO.N,Net-(MOSI_SPI2-Pin_1)*%
X132650000Y-49500000D03*
%TO.P,U1,17,PC2_C*%
%TO.N,unconnected-(U1-PC2_C-Pad17)*%
X132650000Y-50000000D03*
%TO.P,U1,18,PC3_C*%
%TO.N,unconnected-(U1-PC3_C-Pad18)*%
X132650000Y-50500000D03*
%TO.P,U1,19,VSSA*%
%TO.N,GND*%
X132650000Y-51000000D03*
%TO.P,U1,20,VREF+*%
%TO.N,3.3V*%
X132650000Y-51500000D03*
%TO.P,U1,21,VDDA*%
X132650000Y-52000000D03*
%TO.P,U1,22,PA0*%
%TO.N,unconnected-(U1-PA0-Pad22)*%
X132650000Y-52500000D03*
%TO.P,U1,23,PA1*%
%TO.N,unconnected-(U1-PA1-Pad23)*%
X132650000Y-53000000D03*
%TO.P,U1,24,PA2*%
%TO.N,unconnected-(U1-PA2-Pad24)*%
X132650000Y-53500000D03*
%TO.P,U1,25,PA3*%
%TO.N,unconnected-(U1-PA3-Pad25)*%
X132650000Y-54000000D03*
D14*
%TO.P,U1,26,VSS*%
%TO.N,GND*%
X134325000Y-55675000D03*
%TO.P,U1,27,VDD*%
%TO.N,3.3V*%
X134825000Y-55675000D03*
%TO.P,U1,28,PA4*%
%TO.N,Net-(BL_SPI1-Pin_1)*%
X135325000Y-55675000D03*
%TO.P,U1,29,PA5*%
%TO.N,Net-(SCK_SPI1-Pin_1)*%
X135825000Y-55675000D03*
%TO.P,U1,30,PA6*%
%TO.N,Fuel*%
X136325000Y-55675000D03*
%TO.P,U1,31,PA7*%
%TO.N,LIndicator*%
X136825000Y-55675000D03*
%TO.P,U1,32,PC4*%
%TO.N,Oil*%
X137325000Y-55675000D03*
%TO.P,U1,33,PC5*%
%TO.N,RIndicator*%
X137825000Y-55675000D03*
%TO.P,U1,34,PB0*%
%TO.N,RPM*%
X138325000Y-55675000D03*
%TO.P,U1,35,PB1*%
%TO.N,WTemp*%
X138825000Y-55675000D03*
%TO.P,U1,36,PB2*%
%TO.N,Net-(MOSI_SPI3-Pin_1)*%
X139325000Y-55675000D03*
%TO.P,U1,37,PE7*%
%TO.N,unconnected-(U1-PE7-Pad37)*%
X139825000Y-55675000D03*
%TO.P,U1,38,PE8*%
%TO.N,unconnected-(U1-PE8-Pad38)*%
X140325000Y-55675000D03*
%TO.P,U1,39,PE9*%
%TO.N,unconnected-(U1-PE9-Pad39)*%
X140825000Y-55675000D03*
%TO.P,U1,40,PE10*%
%TO.N,unconnected-(U1-PE10-Pad40)*%
X141325000Y-55675000D03*
%TO.P,U1,41,PE11*%
%TO.N,unconnected-(U1-PE11-Pad41)*%
X141825000Y-55675000D03*
%TO.P,U1,42,PE12*%
%TO.N,unconnected-(U1-PE12-Pad42)*%
X142325000Y-55675000D03*
%TO.P,U1,43,PE13*%
%TO.N,unconnected-(U1-PE13-Pad43)*%
X142825000Y-55675000D03*
%TO.P,U1,44,PE14*%
%TO.N,unconnected-(U1-PE14-Pad44)*%
X143325000Y-55675000D03*
%TO.P,U1,45,PE15*%
%TO.N,unconnected-(U1-PE15-Pad45)*%
X143825000Y-55675000D03*
%TO.P,U1,46,PB10*%
%TO.N,Net-(SCK_SPI2-Pin_1)*%
X144325000Y-55675000D03*
%TO.P,U1,47,PB11*%
%TO.N,unconnected-(U1-PB11-Pad47)*%
X144825000Y-55675000D03*
%TO.P,U1,48,VCAP*%
%TO.N,unconnected-(U1-VCAP-Pad48)*%
X145325000Y-55675000D03*
%TO.P,U1,49,VSS*%
%TO.N,GND*%
X145825000Y-55675000D03*
%TO.P,U1,50,VDD*%
%TO.N,3.3V*%
X146325000Y-55675000D03*
D13*
%TO.P,U1,51,PB12*%
%TO.N,unconnected-(U1-PB12-Pad51)*%
X148000000Y-54000000D03*
%TO.P,U1,52,PB13*%
%TO.N,unconnected-(U1-PB13-Pad52)*%
X148000000Y-53500000D03*
%TO.P,U1,53,PB14*%
%TO.N,Net-(RST_SPI3-Pin_1)*%
X148000000Y-53000000D03*
%TO.P,U1,54,PB15*%
%TO.N,Net-(DC_SPI3-Pin_1)*%
X148000000Y-52500000D03*
%TO.P,U1,55,PD8*%
%TO.N,unconnected-(U1-PD8-Pad55)*%
X148000000Y-52000000D03*
%TO.P,U1,56,PD9*%
%TO.N,unconnected-(U1-PD9-Pad56)*%
X148000000Y-51500000D03*
%TO.P,U1,57,PD10*%
%TO.N,unconnected-(U1-PD10-Pad57)*%
X148000000Y-51000000D03*
%TO.P,U1,58,PD11*%
%TO.N,Net-(RST_SPI2-Pin_1)*%
X148000000Y-50500000D03*
%TO.P,U1,59,PD12*%
%TO.N,Net-(DC_SPI2-Pin_1)*%
X148000000Y-50000000D03*
%TO.P,U1,60,PD13*%
%TO.N,unconnected-(U1-PD13-Pad60)*%
X148000000Y-49500000D03*
%TO.P,U1,61,PD14*%
%TO.N,Net-(RST_SPI1-Pin_1)*%
X148000000Y-49000000D03*
%TO.P,U1,62,PD15*%
%TO.N,Net-(DC_SPI1-Pin_1)*%
X148000000Y-48500000D03*
%TO.P,U1,63,PC6*%
%TO.N,unconnected-(U1-PC6-Pad63)*%
X148000000Y-48000000D03*
%TO.P,U1,64,PC7*%
%TO.N,unconnected-(U1-PC7-Pad64)*%
X148000000Y-47500000D03*
%TO.P,U1,65,PC8*%
%TO.N,SD_DAT0*%
X148000000Y-47000000D03*
%TO.P,U1,66,PC9*%
%TO.N,SD_DAT1*%
X148000000Y-46500000D03*
%TO.P,U1,67,PA8*%
%TO.N,unconnected-(U1-PA8-Pad67)*%
X148000000Y-46000000D03*
%TO.P,U1,68,PA9*%
%TO.N,unconnected-(U1-PA9-Pad68)*%
X148000000Y-45500000D03*
%TO.P,U1,69,PA10*%
%TO.N,unconnected-(U1-PA10-Pad69)*%
X148000000Y-45000000D03*
%TO.P,U1,70,PA11*%
%TO.N,unconnected-(U1-PA11-Pad70)*%
X148000000Y-44500000D03*
%TO.P,U1,71,PA12*%
%TO.N,unconnected-(U1-PA12-Pad71)*%
X148000000Y-44000000D03*
%TO.P,U1,72,PA13*%
%TO.N,SWDIO*%
X148000000Y-43500000D03*
%TO.P,U1,73,VCAP*%
%TO.N,unconnected-(U1-VCAP-Pad73)*%
X148000000Y-43000000D03*
%TO.P,U1,74,VSS*%
%TO.N,GND*%
X148000000Y-42500000D03*
%TO.P,U1,75,VDD*%
%TO.N,3.3V*%
X148000000Y-42000000D03*
D14*
%TO.P,U1,76,PA14*%
%TO.N,SWCLK*%
X146325000Y-40325000D03*
%TO.P,U1,77,PA15*%
%TO.N,unconnected-(U1-PA15-Pad77)*%
X145825000Y-40325000D03*
%TO.P,U1,78,PC10*%
%TO.N,SD_DAT2*%
X145325000Y-40325000D03*
%TO.P,U1,79,PC11*%
%TO.N,SD_DAT3*%
X144825000Y-40325000D03*
%TO.P,U1,80,PC12*%
%TO.N,SD_CLK*%
X144325000Y-40325000D03*
%TO.P,U1,81,PD0*%
%TO.N,unconnected-(U1-PD0-Pad81)*%
X143825000Y-40325000D03*
%TO.P,U1,82,PD1*%
%TO.N,unconnected-(U1-PD1-Pad82)*%
X143325000Y-40325000D03*
%TO.P,U1,83,PD2*%
%TO.N,SD_CMD*%
X142825000Y-40325000D03*
%TO.P,U1,84,PD3*%
%TO.N,unconnected-(U1-PD3-Pad84)*%
X142325000Y-40325000D03*
%TO.P,U1,85,PD4*%
%TO.N,unconnected-(U1-PD4-Pad85)*%
X141825000Y-40325000D03*
%TO.P,U1,86,PD5*%
%TO.N,unconnected-(U1-PD5-Pad86)*%
X141325000Y-40325000D03*
%TO.P,U1,87,PD6*%
%TO.N,unconnected-(U1-PD6-Pad87)*%
X140825000Y-40325000D03*
%TO.P,U1,88,PD7*%
%TO.N,Net-(MOSI_SPI1-Pin_1)*%
X140325000Y-40325000D03*
%TO.P,U1,89,PB3*%
%TO.N,Net-(SCK_SPI3-Pin_1)*%
X139825000Y-40325000D03*
%TO.P,U1,90,PB4*%
%TO.N,unconnected-(U1-PB4-Pad90)*%
X139325000Y-40325000D03*
%TO.P,U1,91,PB5*%
%TO.N,unconnected-(U1-PB5-Pad91)*%
X138825000Y-40325000D03*
%TO.P,U1,92,PB6*%
%TO.N,unconnected-(U1-PB6-Pad92)*%
X138325000Y-40325000D03*
%TO.P,U1,93,PB7*%
%TO.N,unconnected-(U1-PB7-Pad93)*%
X137825000Y-40325000D03*
%TO.P,U1,94,BOOT0*%
%TO.N,Net-(U1-BOOT0)*%
X137325000Y-40325000D03*
%TO.P,U1,95,PB8*%
%TO.N,unconnected-(U1-PB8-Pad95)*%
X136825000Y-40325000D03*
%TO.P,U1,96,PB9*%
%TO.N,unconnected-(U1-PB9-Pad96)*%
X136325000Y-40325000D03*
%TO.P,U1,97,PE0*%
%TO.N,unconnected-(U1-PE0-Pad97)*%
X135825000Y-40325000D03*
%TO.P,U1,98,PE1*%
%TO.N,unconnected-(U1-PE1-Pad98)*%
X135325000Y-40325000D03*
%TO.P,U1,99,VSS*%
%TO.N,GND*%
X134825000Y-40325000D03*
%TO.P,U1,100,VDD*%
%TO.N,3.3V*%
X134325000Y-40325000D03*
%TD*%
D10*
%TO.P,R3,1*%
%TO.N,3.3V*%
X83357500Y-44100000D03*
%TO.P,R3,2*%
%TO.N,WTemp*%
X85182500Y-44100000D03*
%TD*%
D12*
%TO.P,Speed-1,1,Pin_1*%
%TO.N,Net-(Speed-1-Pin_1)*%
X79740000Y-40650000D03*
%TD*%
D15*
%TO.P,Cout_1,1*%
%TO.N,3.3V*%
X96645000Y-51600000D03*
%TO.P,Cout_1,2*%
%TO.N,GND*%
X99595000Y-51600000D03*
%TD*%
D16*
%TO.P,D4,1,K*%
%TO.N,Net-(D3-K)*%
X102252500Y-47365000D03*
%TO.P,D4,2,A*%
%TO.N,5V*%
X104127500Y-47365000D03*
%TD*%
D12*
%TO.P,VCC_SPI_1,1,Pin_1*%
%TO.N,5V*%
X179000000Y-28500000D03*
%TD*%
%TO.P,RST_SPI2,1,Pin_1*%
%TO.N,Net-(RST_SPI2-Pin_1)*%
X182750000Y-51000000D03*
%TD*%
D10*
%TO.P,R1,1*%
%TO.N,3.3V*%
X83357500Y-38200000D03*
%TO.P,R1,2*%
%TO.N,Fuel*%
X85182500Y-38200000D03*
%TD*%
D17*
%TO.P,U4,1,~{SHDN}*%
%TO.N,3.3V*%
X73940000Y-52265000D03*
%TO.P,U4,2,GND*%
%TO.N,GND*%
X73940000Y-52915000D03*
%TO.P,U4,3,VIN*%
%TO.N,3.3V*%
X73940000Y-53565000D03*
%TO.P,U4,4,VOUT*%
%TO.N,5V*%
X75840000Y-53565000D03*
%TO.P,U4,5,GND*%
%TO.N,GND*%
X75840000Y-52915000D03*
%TO.P,U4,6,SW*%
%TO.N,Net-(U4-SW)*%
X75840000Y-52265000D03*
%TD*%
D12*
%TO.P,LINDIC1,1,Pin_1*%
%TO.N,Net-(LINDIC1-Pin_1)*%
X75090000Y-40650000D03*
%TD*%
%TO.P,RST_SPI3,1,Pin_1*%
%TO.N,Net-(RST_SPI3-Pin_1)*%
X186500000Y-51000000D03*
%TD*%
%TO.P,Oil1,1,Pin_1*%
%TO.N,Oil*%
X75090000Y-45300000D03*
%TD*%
%TO.P,SCK_SPI1,1,Pin_1*%
%TO.N,Net-(SCK_SPI1-Pin_1)*%
X179000000Y-39750000D03*
%TD*%
%TO.P,BL_SPI1,1,Pin_1*%
%TO.N,Net-(BL_SPI1-Pin_1)*%
X179000000Y-54750000D03*
%TD*%
%TO.P,Fan-1,1,Pin_1*%
%TO.N,Net-(D2-A)*%
X75090000Y-31350000D03*
%TD*%
D10*
%TO.P,BOOT0_R1,1*%
%TO.N,GND*%
X40617500Y-58400000D03*
%TO.P,BOOT0_R1,2*%
%TO.N,Net-(U1-BOOT0)*%
X42442500Y-58400000D03*
%TD*%
D15*
%TO.P,MAX_IN1,1*%
%TO.N,Net-(U2-IN-)*%
X96645000Y-55850000D03*
%TO.P,MAX_IN1,2*%
%TO.N,Net-(U2-IN+)*%
X99595000Y-55850000D03*
%TD*%
D12*
%TO.P,CS_SPI3,1,Pin_1*%
%TO.N,Net-(CS_SPI3-Pin_1)*%
X186500000Y-43500000D03*
%TD*%
D10*
%TO.P,R8,1*%
%TO.N,RPM*%
X87767500Y-44100000D03*
%TO.P,R8,2*%
%TO.N,Net-(RPM1-Pin_1)*%
X89592500Y-44100000D03*
%TD*%
D12*
%TO.P,SW33V1,1,Pin_1*%
%TO.N,3.3V*%
X120000000Y-66000000D03*
%TD*%
D10*
%TO.P,R12,1*%
%TO.N,Net-(U2-COUT)*%
X92177500Y-41150000D03*
%TO.P,R12,2*%
%TO.N,Speed*%
X94002500Y-41150000D03*
%TD*%
%TO.P,R7,1*%
%TO.N,RIndicator*%
X87767500Y-41150000D03*
%TO.P,R7,2*%
%TO.N,GND*%
X89592500Y-41150000D03*
%TD*%
D12*
%TO.P,SCK_SPI2,1,Pin_1*%
%TO.N,Net-(SCK_SPI2-Pin_1)*%
X182750000Y-39750000D03*
%TD*%
D18*
%TO.P,U2,1,IN+*%
%TO.N,Net-(U2-IN+)*%
X84235000Y-52775000D03*
%TO.P,U2,2,IN-*%
%TO.N,Net-(U2-IN-)*%
X84235000Y-53275000D03*
%TO.P,U2,3*%
%TO.N,N/C*%
X84235000Y-53775000D03*
%TO.P,U2,4,BIAS*%
%TO.N,GND*%
X84235000Y-54275000D03*
%TO.P,U2,5,GND*%
X84235000Y-54775000D03*
%TO.P,U2,6,ZERO_EN*%
X88535000Y-54775000D03*
%TO.P,U2,7,COUT*%
%TO.N,Net-(U2-COUT)*%
X88535000Y-54275000D03*
%TO.P,U2,8,EXT*%
%TO.N,unconnected-(U2-EXT-Pad8)*%
X88535000Y-53775000D03*
%TO.P,U2,9,INT_THRS*%
%TO.N,GND*%
X88535000Y-53275000D03*
%TO.P,U2,10,VCC*%
%TO.N,5V*%
X88535000Y-52775000D03*
%TD*%
D12*
%TO.P,BL_SPI3,1,Pin_1*%
%TO.N,Net-(BL_SPI1-Pin_1)*%
X186500000Y-54750000D03*
%TD*%
%TO.P,Fan+1,1,Pin_1*%
%TO.N,Net-(D3-K)*%
X75090000Y-26700000D03*
%TD*%
D16*
%TO.P,D3,1,K*%
%TO.N,Net-(D3-K)*%
X102252500Y-44325000D03*
%TO.P,D3,2,A*%
%TO.N,3.3V*%
X104127500Y-44325000D03*
%TD*%
D10*
%TO.P,R13,1*%
%TO.N,Speed*%
X92177500Y-44100000D03*
%TO.P,R13,2*%
%TO.N,GND*%
X94002500Y-44100000D03*
%TD*%
D19*
%TO.P,U3,1,OUT*%
%TO.N,Net-(D1-K)*%
X104225000Y-27625000D03*
%TO.P,U3,2,VIN*%
%TO.N,Net-(U3-VIN)*%
X104225000Y-25925000D03*
%TO.P,U3,3,GND*%
%TO.N,GND*%
X104225000Y-24225000D03*
D20*
X97500000Y-27000000D03*
X97500000Y-21450000D03*
D21*
X95075000Y-24225000D03*
D20*
X92650000Y-27000000D03*
X92650000Y-21450000D03*
D19*
%TO.P,U3,4,FB*%
%TO.N,3.3V*%
X104225000Y-22525000D03*
%TO.P,U3,5,ON/~{OFF}*%
%TO.N,GND*%
X104225000Y-20825000D03*
%TD*%
D12*
%TO.P,DC_SPI2,1,Pin_1*%
%TO.N,Net-(DC_SPI2-Pin_1)*%
X182750000Y-47250000D03*
%TD*%
D15*
%TO.P,SD_SHIELD_C1,1*%
%TO.N,Net-(J1-SHIELD)*%
X35025000Y-63300000D03*
%TO.P,SD_SHIELD_C1,2*%
%TO.N,GND*%
X37975000Y-63300000D03*
%TD*%
D12*
%TO.P,MOSI_SPI3,1,Pin_1*%
%TO.N,Net-(MOSI_SPI3-Pin_1)*%
X186500000Y-36000000D03*
%TD*%
%TO.P,VCC_SPI_3,1,Pin_1*%
%TO.N,5V*%
X186500000Y-28500000D03*
%TD*%
D15*
%TO.P,NRST_C1,1*%
%TO.N,Net-(U1-NRST)*%
X35025000Y-59050000D03*
%TO.P,NRST_C1,2*%
%TO.N,GND*%
X37975000Y-59050000D03*
%TD*%
%TO.P,BCC2,1*%
%TO.N,5V*%
X96645000Y-43100000D03*
%TO.P,BCC2,2*%
%TO.N,GND*%
X99595000Y-43100000D03*
%TD*%
D11*
%TO.P,VIN_1,1,Pin_1*%
%TO.N,Net-(VIN_1-Pin_1)*%
X162500000Y-28500000D03*
%TD*%
D12*
%TO.P,SWDIO1,1,Pin_1*%
%TO.N,SWDIO*%
X124000000Y-67000000D03*
%TD*%
%TO.P,Speed+1,1,Pin_1*%
%TO.N,Net-(Speed+1-Pin_1)*%
X79740000Y-36000000D03*
%TD*%
D15*
%TO.P,BCC1,1*%
%TO.N,GND*%
X96645000Y-38850000D03*
%TO.P,BCC1,2*%
%TO.N,3.3V*%
X99595000Y-38850000D03*
%TD*%
D12*
%TO.P,DC_SPI3,1,Pin_1*%
%TO.N,Net-(DC_SPI3-Pin_1)*%
X186500000Y-47250000D03*
%TD*%
%TO.P,CS_SPI2,1,Pin_1*%
%TO.N,Net-(CS_SPI2-Pin_1)*%
X182750000Y-43500000D03*
%TD*%
%TO.P,CS_SPI1,1,Pin_1*%
%TO.N,Net-(CS_SPI1-Pin_1)*%
X179000000Y-43500000D03*
%TD*%
D10*
%TO.P,R6,1*%
%TO.N,LIndicator*%
X87767500Y-38200000D03*
%TO.P,R6,2*%
%TO.N,GND*%
X89592500Y-38200000D03*
%TD*%
D12*
%TO.P,MOSI_SPI2,1,Pin_1*%
%TO.N,Net-(MOSI_SPI2-Pin_1)*%
X182750000Y-36000000D03*
%TD*%
D22*
%TO.P,L3,1,1*%
%TO.N,3.3V*%
X91262500Y-55240000D03*
%TO.P,L3,2,2*%
%TO.N,Net-(U4-SW)*%
X92837500Y-55240000D03*
%TD*%
D12*
%TO.P,BL_SPI2,1,Pin_1*%
%TO.N,Net-(BL_SPI1-Pin_1)*%
X182750000Y-54750000D03*
%TD*%
D10*
%TO.P,R11,1*%
%TO.N,Net-(Speed-1-Pin_1)*%
X92177500Y-38200000D03*
%TO.P,R11,2*%
%TO.N,Net-(U2-IN-)*%
X94002500Y-38200000D03*
%TD*%
D12*
%TO.P,GND_SPI_1,1,Pin_1*%
%TO.N,GND*%
X179000000Y-32250000D03*
%TD*%
%TO.P,GND_SPI_3,1,Pin_1*%
%TO.N,GND*%
X186500000Y-32250000D03*
%TD*%
D10*
%TO.P,R4,1*%
%TO.N,Net-(LINDIC1-Pin_1)*%
X83357500Y-47050000D03*
%TO.P,R4,2*%
%TO.N,LIndicator*%
X85182500Y-47050000D03*
%TD*%
D12*
%TO.P,SWCLK1,1,Pin_1*%
%TO.N,SWCLK*%
X119000000Y-72000000D03*
%TD*%
D23*
%TO.P,J1,1,DAT2*%
%TO.N,SD_DAT2*%
X185400000Y-61550000D03*
%TO.P,J1,2,DAT3/CD*%
%TO.N,SD_DAT3*%
X185400000Y-62650000D03*
%TO.P,J1,3,CMD*%
%TO.N,SD_CMD*%
X185400000Y-63750000D03*
%TO.P,J1,4,VDD*%
%TO.N,3.3V*%
X185400000Y-64850000D03*
%TO.P,J1,5,CLK*%
%TO.N,SD_CLK*%
X185400000Y-65950000D03*
%TO.P,J1,6,VSS*%
%TO.N,GND*%
X185400000Y-67050000D03*
%TO.P,J1,7,DAT0*%
%TO.N,SD_DAT0*%
X185400000Y-68150000D03*
%TO.P,J1,8,DAT1*%
%TO.N,SD_DAT1*%
X185400000Y-69250000D03*
D24*
%TO.P,J1,9,SHIELD*%
%TO.N,Net-(J1-SHIELD)*%
X188000000Y-57875000D03*
X179700000Y-57875000D03*
X188000000Y-71625000D03*
X179700000Y-71625000D03*
%TD*%
D25*
%TO.P,F1,1*%
%TO.N,Net-(VIN_1-Pin_1)*%
X74170000Y-49270000D03*
%TO.P,F1,2*%
%TO.N,Net-(U3-VIN)*%
X76970000Y-49270000D03*
%TD*%
D12*
%TO.P,RST_SPI1,1,Pin_1*%
%TO.N,Net-(RST_SPI1-Pin_1)*%
X179000000Y-51000000D03*
%TD*%
D22*
%TO.P,L1,1,1*%
%TO.N,Net-(D1-K)*%
X91262500Y-52730000D03*
%TO.P,L1,2,2*%
%TO.N,3.3V*%
X92837500Y-52730000D03*
%TD*%
D10*
%TO.P,R9,1*%
%TO.N,GND*%
X87767500Y-47050000D03*
%TO.P,R9,2*%
%TO.N,RPM*%
X89592500Y-47050000D03*
%TD*%
D12*
%TO.P,SWGND1,1,Pin_1*%
%TO.N,GND*%
X124000000Y-72000000D03*
%TD*%
%TO.P,Fuel1,1,Pin_1*%
%TO.N,Fuel*%
X75090000Y-36000000D03*
%TD*%
%TO.P,MOSI_SPI1,1,Pin_1*%
%TO.N,Net-(MOSI_SPI1-Pin_1)*%
X179000000Y-36000000D03*
%TD*%
%TO.P,DC_SPI1,1,Pin_1*%
%TO.N,Net-(DC_SPI1-Pin_1)*%
X179000000Y-47250000D03*
%TD*%
D15*
%TO.P,Cin_1,1*%
%TO.N,Net-(U3-VIN)*%
X96645000Y-47350000D03*
%TO.P,Cin_1,2*%
%TO.N,GND*%
X99595000Y-47350000D03*
%TD*%
D16*
%TO.P,D2,1,K*%
%TO.N,GND*%
X102252500Y-41285000D03*
%TO.P,D2,2,A*%
%TO.N,Net-(D2-A)*%
X104127500Y-41285000D03*
%TD*%
%TO.P,D1,1,K*%
%TO.N,Net-(D1-K)*%
X102252500Y-38245000D03*
%TO.P,D1,2,A*%
%TO.N,GND*%
X104127500Y-38245000D03*
%TD*%
D12*
%TO.P,RINDIC2,1,Pin_1*%
%TO.N,Net-(RINDIC2-Pin_1)*%
X79740000Y-26700000D03*
%TD*%
%TO.P,Temp1,1,Pin_1*%
%TO.N,WTemp*%
X79740000Y-45300000D03*
%TD*%
M02*
