%TF.GenerationSoftware,KiCad,Pcbnew,8.0.5*%
%TF.CreationDate,2024-09-29T17:29:23+02:00*%
%TF.ProjectId,Leiterkarte-v2,4c656974-6572-46b6-9172-74652d76322e,rev?*%
%TF.SameCoordinates,Original*%
%TF.FileFunction,Copper,L2,Inr*%
%TF.FilePolarity,Positive*%
%FSLAX46Y46*%
G04 Gerber Fmt 4.6, Leading zero omitted, Abs format (unit mm)*
G04 Created by KiCad (PCBNEW 8.0.5) date 2024-09-29 17:29:23*
%MOMM*%
%LPD*%
G01*
G04 APERTURE LIST*
%TA.AperFunction,ComponentPad*%
%ADD10R,1.700000X1.700000*%
%TD*%
%TA.AperFunction,HeatsinkPad*%
%ADD11C,0.600000*%
%TD*%
%TA.AperFunction,ComponentPad*%
%ADD12O,2.100000X1.000000*%
%TD*%
%TA.AperFunction,ComponentPad*%
%ADD13O,1.800000X1.000000*%
%TD*%
%TA.AperFunction,ComponentPad*%
%ADD14O,1.700000X1.700000*%
%TD*%
%TA.AperFunction,ComponentPad*%
%ADD15C,0.600000*%
%TD*%
%TA.AperFunction,ViaPad*%
%ADD16C,0.600000*%
%TD*%
G04 APERTURE END LIST*
D10*
%TO.N,Net-(Vcc1-Pin_1)*%
%TO.C,Vcc1*%
X179200000Y-121800000D03*
%TD*%
%TO.N,Net-(RPM1-Pin_1)*%
%TO.C,RPM1*%
X147700000Y-84000000D03*
%TD*%
D11*
%TO.N,GND*%
%TO.C,ESP1*%
X166400000Y-84250000D03*
X165000000Y-84250000D03*
X167100000Y-84950000D03*
X165700000Y-84950000D03*
X164300000Y-84950000D03*
X166400000Y-85650000D03*
X165000000Y-85650000D03*
X167100000Y-86350000D03*
X165700000Y-86350000D03*
X164300000Y-86350000D03*
X166400000Y-87050000D03*
X165000000Y-87050000D03*
%TD*%
D12*
%TO.N,GND*%
%TO.C,USBC1*%
X177420000Y-84420000D03*
X177420000Y-75780000D03*
D13*
X181600000Y-84420000D03*
X181600000Y-75780000D03*
%TD*%
D10*
%TO.N,+3.3V*%
%TO.C,Buttons1*%
X176900000Y-87920000D03*
D14*
X176900000Y-90460000D03*
X176900000Y-93000000D03*
%TO.N,Button1*%
X176900000Y-95540000D03*
%TO.N,Button2*%
X176900000Y-98080000D03*
%TO.N,Button3*%
X176900000Y-100620000D03*
%TD*%
D10*
%TO.N,GND*%
%TO.C,GND1*%
X175500000Y-121800000D03*
%TD*%
D15*
%TO.N,GND*%
%TO.C,5V1*%
X170600000Y-112800000D03*
X169500000Y-112800000D03*
X168200000Y-112800000D03*
X167000000Y-112800000D03*
X170600000Y-114000000D03*
X169500000Y-114000000D03*
X168200000Y-114000000D03*
X167000000Y-114000000D03*
%TD*%
D16*
%TO.N,GND*%
X160000000Y-117800000D03*
X181500000Y-91150000D03*
X179250000Y-64500000D03*
X183250000Y-58150000D03*
X159300000Y-57900000D03*
X168500000Y-107000000D03*
X175350000Y-84400000D03*
X161700000Y-102200000D03*
X183400000Y-93150000D03*
X170900000Y-76450000D03*
X167700000Y-76500000D03*
X152600000Y-73400000D03*
X151150000Y-59050000D03*
X167700000Y-103700000D03*
X161700000Y-69500000D03*
X166450000Y-76500000D03*
X182400000Y-87250000D03*
X159250000Y-64200000D03*
X183250000Y-70700000D03*
X151350000Y-85000000D03*
X179250000Y-58100000D03*
X183400000Y-94800000D03*
X173195789Y-103623544D03*
X160000000Y-116900000D03*
X174500000Y-113100000D03*
X169900000Y-121400000D03*
X177450000Y-74250000D03*
X173400000Y-76850000D03*
X157500000Y-110100000D03*
X165150000Y-76900000D03*
X160000000Y-116000000D03*
X175500000Y-109300000D03*
X181300000Y-98000000D03*
X179250000Y-70650000D03*
X183250000Y-64550000D03*
X146600000Y-89400000D03*
X175815613Y-103623544D03*
X161550000Y-61850000D03*
X156400000Y-110100000D03*
X156100000Y-73400000D03*
X160000000Y-118700000D03*
X159300000Y-58800000D03*
X168950000Y-76500000D03*
X157850000Y-58650000D03*
X152100000Y-96600000D03*
%TO.N,Net-(5V1-VSENSE)*%
X169900000Y-108700000D03*
%TO.N,+3.3V*%
X172150000Y-76100000D03*
X156200000Y-104300000D03*
X161600000Y-67200000D03*
X171500000Y-93000000D03*
X156200000Y-101100000D03*
X156200000Y-102700000D03*
%TO.N,Fuel*%
X154150000Y-86500000D03*
X150800000Y-101700000D03*
%TO.N,+5V*%
X157400000Y-120700000D03*
X156500000Y-120700000D03*
X168600000Y-102300000D03*
X164100000Y-108500000D03*
X146000000Y-58600000D03*
X158300000Y-120700000D03*
X159000000Y-105700000D03*
X179200000Y-104400000D03*
X147950000Y-72400000D03*
X145600000Y-119500000D03*
X145600000Y-94600000D03*
%TO.N,Net-(ESP1-EN)*%
X170900000Y-79850000D03*
X170900000Y-85900000D03*
%TO.N,CLK*%
X157100000Y-85250000D03*
X147850000Y-75400000D03*
X147900000Y-63500000D03*
X154250000Y-78950000D03*
%TO.N,DIN*%
X162000000Y-79900000D03*
X160650000Y-62950000D03*
%TO.N,BL*%
X149650000Y-79400000D03*
X151350000Y-67500000D03*
X162000000Y-94100000D03*
X153650000Y-82450000D03*
%TO.N,Oil*%
X154150000Y-87800000D03*
X151500000Y-102700000D03*
%TO.N,WTemp*%
X154150000Y-89050000D03*
X152150000Y-103700000D03*
%TO.N,Speed*%
X154250000Y-93200000D03*
X155100000Y-98700000D03*
%TO.N,CS2*%
X151200000Y-64500000D03*
X157400000Y-82700000D03*
%TO.N,DC*%
X149400000Y-65500000D03*
X147900000Y-77400000D03*
%TO.N,RST*%
X148500000Y-78250000D03*
X153700000Y-81150000D03*
X163250000Y-94100000D03*
X150350000Y-66500000D03*
%TO.N,USB_D+*%
X173700000Y-80200000D03*
X173700000Y-81600000D03*
%TO.N,Net-(USBC1-CC1)*%
X178550000Y-81350000D03*
%TO.N,Net-(USBC1-CC2)*%
X178450000Y-78350000D03*
%TD*%
%TA.AperFunction,Conductor*%
%TO.N,GND*%
G36*
X179702702Y-49000617D02*
G01*
X180086771Y-49017386D01*
X180097506Y-49018326D01*
X180475971Y-49068152D01*
X180486597Y-49070025D01*
X180859284Y-49152648D01*
X180869710Y-49155442D01*
X181233765Y-49270227D01*
X181243911Y-49273920D01*
X181596578Y-49420000D01*
X181606369Y-49424566D01*
X181944942Y-49600816D01*
X181954310Y-49606224D01*
X182276244Y-49811318D01*
X182285105Y-49817523D01*
X182587930Y-50049889D01*
X182596217Y-50056843D01*
X182877635Y-50314715D01*
X182885284Y-50322364D01*
X183143156Y-50603782D01*
X183150110Y-50612069D01*
X183382476Y-50914894D01*
X183388681Y-50923755D01*
X183593775Y-51245689D01*
X183599183Y-51255057D01*
X183775430Y-51593623D01*
X183780002Y-51603427D01*
X183926075Y-51956078D01*
X183929775Y-51966244D01*
X184044554Y-52330278D01*
X184047354Y-52340727D01*
X184129971Y-52713389D01*
X184131849Y-52724042D01*
X184181671Y-53102473D01*
X184182614Y-53113249D01*
X184199382Y-53497297D01*
X184199500Y-53502706D01*
X184199500Y-129197293D01*
X184199382Y-129202702D01*
X184182614Y-129586750D01*
X184181671Y-129597526D01*
X184131849Y-129975957D01*
X184129971Y-129986610D01*
X184047354Y-130359272D01*
X184044554Y-130369721D01*
X183929775Y-130733755D01*
X183926075Y-130743921D01*
X183780002Y-131096572D01*
X183775430Y-131106376D01*
X183599183Y-131444942D01*
X183593775Y-131454310D01*
X183388681Y-131776244D01*
X183382476Y-131785105D01*
X183150110Y-132087930D01*
X183143156Y-132096217D01*
X182885284Y-132377635D01*
X182877635Y-132385284D01*
X182596217Y-132643156D01*
X182587930Y-132650110D01*
X182285105Y-132882476D01*
X182276244Y-132888681D01*
X181954310Y-133093775D01*
X181944942Y-133099183D01*
X181606376Y-133275430D01*
X181596572Y-133280002D01*
X181243921Y-133426075D01*
X181233755Y-133429775D01*
X180869721Y-133544554D01*
X180859272Y-133547354D01*
X180486610Y-133629971D01*
X180475957Y-133631849D01*
X180097526Y-133681671D01*
X180086750Y-133682614D01*
X179702703Y-133699382D01*
X179697294Y-133699500D01*
X149402706Y-133699500D01*
X149397297Y-133699382D01*
X149013249Y-133682614D01*
X149002473Y-133681671D01*
X148624042Y-133631849D01*
X148613389Y-133629971D01*
X148240727Y-133547354D01*
X148230278Y-133544554D01*
X147866244Y-133429775D01*
X147856078Y-133426075D01*
X147503427Y-133280002D01*
X147493623Y-133275430D01*
X147155057Y-133099183D01*
X147145689Y-133093775D01*
X146823755Y-132888681D01*
X146814894Y-132882476D01*
X146512069Y-132650110D01*
X146503782Y-132643156D01*
X146222364Y-132385284D01*
X146214715Y-132377635D01*
X145956843Y-132096217D01*
X145949889Y-132087930D01*
X145717523Y-131785105D01*
X145711318Y-131776244D01*
X145506224Y-131454310D01*
X145500816Y-131444942D01*
X145324566Y-131106369D01*
X145319997Y-131096572D01*
X145301786Y-131052606D01*
X145173920Y-130743911D01*
X145170224Y-130733755D01*
X145055442Y-130369710D01*
X145052648Y-130359284D01*
X144970025Y-129986597D01*
X144968152Y-129975971D01*
X144964733Y-129950000D01*
X162344778Y-129950000D01*
X162363644Y-130237837D01*
X162363646Y-130237849D01*
X162419917Y-130520745D01*
X162419921Y-130520760D01*
X162512642Y-130793905D01*
X162640219Y-131052606D01*
X162640223Y-131052613D01*
X162800478Y-131292452D01*
X162990672Y-131509327D01*
X163207547Y-131699521D01*
X163335633Y-131785105D01*
X163447389Y-131859778D01*
X163706098Y-131987359D01*
X163979247Y-132080081D01*
X164262161Y-132136356D01*
X164550000Y-132155222D01*
X164837839Y-132136356D01*
X165120753Y-132080081D01*
X165393902Y-131987359D01*
X165652611Y-131859778D01*
X165892454Y-131699520D01*
X166109327Y-131509327D01*
X166299520Y-131292454D01*
X166459778Y-131052611D01*
X166587359Y-130793902D01*
X166680081Y-130520753D01*
X166736356Y-130237839D01*
X166755222Y-129950000D01*
X166736356Y-129662161D01*
X166680081Y-129379247D01*
X166587359Y-129106098D01*
X166459778Y-128847389D01*
X166299520Y-128607546D01*
X166109327Y-128390672D01*
X165892452Y-128200478D01*
X165652613Y-128040223D01*
X165652606Y-128040219D01*
X165393905Y-127912642D01*
X165120760Y-127819921D01*
X165120754Y-127819919D01*
X165120753Y-127819919D01*
X165120751Y-127819918D01*
X165120745Y-127819917D01*
X164837849Y-127763646D01*
X164837839Y-127763644D01*
X164550000Y-127744778D01*
X164262161Y-127763644D01*
X164262155Y-127763645D01*
X164262150Y-127763646D01*
X163979254Y-127819917D01*
X163979239Y-127819921D01*
X163706094Y-127912642D01*
X163447393Y-128040219D01*
X163447386Y-128040223D01*
X163207547Y-128200478D01*
X162990672Y-128390672D01*
X162800478Y-128607547D01*
X162640223Y-128847386D01*
X162640219Y-128847393D01*
X162512642Y-129106094D01*
X162419921Y-129379239D01*
X162419917Y-129379254D01*
X162363646Y-129662150D01*
X162363644Y-129662162D01*
X162344778Y-129950000D01*
X144964733Y-129950000D01*
X144918326Y-129597506D01*
X144917386Y-129586771D01*
X144900618Y-129202702D01*
X144900500Y-129197293D01*
X144900500Y-120700000D01*
X155994353Y-120700000D01*
X156014834Y-120842456D01*
X156054930Y-120930252D01*
X156074623Y-120973373D01*
X156168872Y-121082143D01*
X156289947Y-121159953D01*
X156289950Y-121159954D01*
X156289949Y-121159954D01*
X156428036Y-121200499D01*
X156428038Y-121200500D01*
X156428039Y-121200500D01*
X156571962Y-121200500D01*
X156571962Y-121200499D01*
X156710053Y-121159953D01*
X156831128Y-121082143D01*
X156856288Y-121053106D01*
X156915065Y-121015333D01*
X156984935Y-121015333D01*
X157043711Y-121053106D01*
X157068872Y-121082143D01*
X157189947Y-121159953D01*
X157189950Y-121159954D01*
X157189949Y-121159954D01*
X157328036Y-121200499D01*
X157328038Y-121200500D01*
X157328039Y-121200500D01*
X157471962Y-121200500D01*
X157471962Y-121200499D01*
X157610053Y-121159953D01*
X157731128Y-121082143D01*
X157756288Y-121053106D01*
X157815065Y-121015333D01*
X157884935Y-121015333D01*
X157943711Y-121053106D01*
X157968872Y-121082143D01*
X158089947Y-121159953D01*
X158089950Y-121159954D01*
X158089949Y-121159954D01*
X158228036Y-121200499D01*
X158228038Y-121200500D01*
X158228039Y-121200500D01*
X158371962Y-121200500D01*
X158371962Y-121200499D01*
X158510053Y-121159953D01*
X158631128Y-121082143D01*
X158725377Y-120973373D01*
X158757902Y-120902155D01*
X174150000Y-120902155D01*
X174150000Y-121550000D01*
X175066988Y-121550000D01*
X175034075Y-121607007D01*
X175000000Y-121734174D01*
X175000000Y-121865826D01*
X175034075Y-121992993D01*
X175066988Y-122050000D01*
X174150000Y-122050000D01*
X174150000Y-122697844D01*
X174156401Y-122757372D01*
X174156403Y-122757379D01*
X174206645Y-122892086D01*
X174206649Y-122892093D01*
X174292809Y-123007187D01*
X174292812Y-123007190D01*
X174407906Y-123093350D01*
X174407913Y-123093354D01*
X174542620Y-123143596D01*
X174542627Y-123143598D01*
X174602155Y-123149999D01*
X174602172Y-123150000D01*
X175250000Y-123150000D01*
X175250000Y-122233012D01*
X175307007Y-122265925D01*
X175434174Y-122300000D01*
X175565826Y-122300000D01*
X175692993Y-122265925D01*
X175750000Y-122233012D01*
X175750000Y-123150000D01*
X176397828Y-123150000D01*
X176397844Y-123149999D01*
X176457372Y-123143598D01*
X176457379Y-123143596D01*
X176592086Y-123093354D01*
X176592093Y-123093350D01*
X176707187Y-123007190D01*
X176707190Y-123007187D01*
X176793350Y-122892093D01*
X176793354Y-122892086D01*
X176843596Y-122757379D01*
X176843598Y-122757372D01*
X176849999Y-122697844D01*
X176850000Y-122697827D01*
X176850000Y-122050000D01*
X175933012Y-122050000D01*
X175965925Y-121992993D01*
X176000000Y-121865826D01*
X176000000Y-121734174D01*
X175965925Y-121607007D01*
X175933012Y-121550000D01*
X176850000Y-121550000D01*
X176850000Y-120930247D01*
X178149500Y-120930247D01*
X178149500Y-122669752D01*
X178161131Y-122728229D01*
X178161132Y-122728230D01*
X178205447Y-122794552D01*
X178271769Y-122838867D01*
X178271770Y-122838868D01*
X178330247Y-122850499D01*
X178330250Y-122850500D01*
X178330252Y-122850500D01*
X180069750Y-122850500D01*
X180069751Y-122850499D01*
X180084568Y-122847552D01*
X180128229Y-122838868D01*
X180128229Y-122838867D01*
X180128231Y-122838867D01*
X180194552Y-122794552D01*
X180238867Y-122728231D01*
X180238867Y-122728229D01*
X180238868Y-122728229D01*
X180250499Y-122669752D01*
X180250500Y-122669750D01*
X180250500Y-120930249D01*
X180250499Y-120930247D01*
X180238868Y-120871770D01*
X180238867Y-120871769D01*
X180194552Y-120805447D01*
X180128230Y-120761132D01*
X180128229Y-120761131D01*
X180069752Y-120749500D01*
X180069748Y-120749500D01*
X178330252Y-120749500D01*
X178330247Y-120749500D01*
X178271770Y-120761131D01*
X178271769Y-120761132D01*
X178205447Y-120805447D01*
X178161132Y-120871769D01*
X178161131Y-120871770D01*
X178149500Y-120930247D01*
X176850000Y-120930247D01*
X176850000Y-120902172D01*
X176849999Y-120902155D01*
X176843598Y-120842627D01*
X176843596Y-120842620D01*
X176793354Y-120707913D01*
X176793350Y-120707906D01*
X176707190Y-120592812D01*
X176707187Y-120592809D01*
X176592093Y-120506649D01*
X176592086Y-120506645D01*
X176457379Y-120456403D01*
X176457372Y-120456401D01*
X176397844Y-120450000D01*
X175750000Y-120450000D01*
X175750000Y-121366988D01*
X175692993Y-121334075D01*
X175565826Y-121300000D01*
X175434174Y-121300000D01*
X175307007Y-121334075D01*
X175250000Y-121366988D01*
X175250000Y-120450000D01*
X174602155Y-120450000D01*
X174542627Y-120456401D01*
X174542620Y-120456403D01*
X174407913Y-120506645D01*
X174407906Y-120506649D01*
X174292812Y-120592809D01*
X174292809Y-120592812D01*
X174206649Y-120707906D01*
X174206645Y-120707913D01*
X174156403Y-120842620D01*
X174156401Y-120842627D01*
X174150000Y-120902155D01*
X158757902Y-120902155D01*
X158785165Y-120842457D01*
X158805647Y-120700000D01*
X158785165Y-120557543D01*
X158725377Y-120426627D01*
X158631128Y-120317857D01*
X158510053Y-120240047D01*
X158510051Y-120240046D01*
X158510049Y-120240045D01*
X158510050Y-120240045D01*
X158371963Y-120199500D01*
X158371961Y-120199500D01*
X158228039Y-120199500D01*
X158228036Y-120199500D01*
X158089949Y-120240045D01*
X157968872Y-120317856D01*
X157943712Y-120346893D01*
X157884933Y-120384667D01*
X157815064Y-120384666D01*
X157756288Y-120346893D01*
X157731127Y-120317856D01*
X157684502Y-120287892D01*
X157610053Y-120240047D01*
X157610051Y-120240046D01*
X157610049Y-120240045D01*
X157610050Y-120240045D01*
X157471963Y-120199500D01*
X157471961Y-120199500D01*
X157328039Y-120199500D01*
X157328036Y-120199500D01*
X157189949Y-120240045D01*
X157068872Y-120317856D01*
X157043712Y-120346893D01*
X156984933Y-120384667D01*
X156915064Y-120384666D01*
X156856288Y-120346893D01*
X156831127Y-120317856D01*
X156784502Y-120287892D01*
X156710053Y-120240047D01*
X156710051Y-120240046D01*
X156710049Y-120240045D01*
X156710050Y-120240045D01*
X156571963Y-120199500D01*
X156571961Y-120199500D01*
X156428039Y-120199500D01*
X156428036Y-120199500D01*
X156289949Y-120240045D01*
X156168873Y-120317856D01*
X156074623Y-120426626D01*
X156074622Y-120426628D01*
X156014834Y-120557543D01*
X155994353Y-120700000D01*
X144900500Y-120700000D01*
X144900500Y-119743146D01*
X144920185Y-119676107D01*
X144972989Y-119630352D01*
X145042147Y-119620408D01*
X145105703Y-119649433D01*
X145137294Y-119691635D01*
X145174620Y-119773369D01*
X145174623Y-119773373D01*
X145268872Y-119882143D01*
X145389947Y-119959953D01*
X145389950Y-119959954D01*
X145389949Y-119959954D01*
X145528036Y-120000499D01*
X145528038Y-120000500D01*
X145528039Y-120000500D01*
X145671962Y-120000500D01*
X145671962Y-120000499D01*
X145810053Y-119959953D01*
X145931128Y-119882143D01*
X146025377Y-119773373D01*
X146085165Y-119642457D01*
X146105647Y-119500000D01*
X146085165Y-119357543D01*
X146025377Y-119226627D01*
X145931128Y-119117857D01*
X145810053Y-119040047D01*
X145810051Y-119040046D01*
X145810049Y-119040045D01*
X145810050Y-119040045D01*
X145671963Y-118999500D01*
X145671961Y-118999500D01*
X145528039Y-118999500D01*
X145528036Y-118999500D01*
X145389949Y-119040045D01*
X145268873Y-119117856D01*
X145174623Y-119226626D01*
X145174622Y-119226628D01*
X145137294Y-119308365D01*
X145091539Y-119361169D01*
X145024500Y-119380853D01*
X144957460Y-119361168D01*
X144911705Y-119308364D01*
X144900500Y-119256853D01*
X144900500Y-114716660D01*
X166636892Y-114716660D01*
X166636892Y-114716661D01*
X166650692Y-114725333D01*
X166650691Y-114725333D01*
X166820861Y-114784878D01*
X166999997Y-114805062D01*
X167000003Y-114805062D01*
X167179138Y-114784878D01*
X167179141Y-114784877D01*
X167349305Y-114725334D01*
X167349306Y-114725334D01*
X167363106Y-114716661D01*
X167363106Y-114716660D01*
X167836892Y-114716660D01*
X167836892Y-114716661D01*
X167850692Y-114725333D01*
X167850691Y-114725333D01*
X168020861Y-114784878D01*
X168199997Y-114805062D01*
X168200003Y-114805062D01*
X168379138Y-114784878D01*
X168379141Y-114784877D01*
X168549305Y-114725334D01*
X168549306Y-114725334D01*
X168563106Y-114716661D01*
X168563106Y-114716660D01*
X169136892Y-114716660D01*
X169136892Y-114716661D01*
X169150692Y-114725333D01*
X169150691Y-114725333D01*
X169320861Y-114784878D01*
X169499997Y-114805062D01*
X169500003Y-114805062D01*
X169679138Y-114784878D01*
X169679141Y-114784877D01*
X169849305Y-114725334D01*
X169849306Y-114725334D01*
X169863106Y-114716661D01*
X169863106Y-114716660D01*
X170236892Y-114716660D01*
X170236892Y-114716661D01*
X170250692Y-114725333D01*
X170250691Y-114725333D01*
X170420861Y-114784878D01*
X170599997Y-114805062D01*
X170600003Y-114805062D01*
X170779138Y-114784878D01*
X170779141Y-114784877D01*
X170949305Y-114725334D01*
X170949306Y-114725334D01*
X170963106Y-114716661D01*
X170963106Y-114716660D01*
X170600001Y-114353553D01*
X170600000Y-114353553D01*
X170236892Y-114716660D01*
X169863106Y-114716660D01*
X169500001Y-114353553D01*
X169500000Y-114353553D01*
X169136892Y-114716660D01*
X168563106Y-114716660D01*
X168200001Y-114353553D01*
X168200000Y-114353553D01*
X167836892Y-114716660D01*
X167363106Y-114716660D01*
X167000001Y-114353553D01*
X167000000Y-114353553D01*
X166636892Y-114716660D01*
X144900500Y-114716660D01*
X144900500Y-113999997D01*
X166194938Y-113999997D01*
X166194938Y-114000002D01*
X166215121Y-114179138D01*
X166274665Y-114349304D01*
X166283338Y-114363107D01*
X166646446Y-114000000D01*
X166646446Y-113999999D01*
X166616610Y-113970163D01*
X166850000Y-113970163D01*
X166850000Y-114029837D01*
X166872836Y-114084968D01*
X166915032Y-114127164D01*
X166970163Y-114150000D01*
X167029837Y-114150000D01*
X167084968Y-114127164D01*
X167127164Y-114084968D01*
X167150000Y-114029837D01*
X167150000Y-113970163D01*
X167127164Y-113915032D01*
X167084968Y-113872836D01*
X167029837Y-113850000D01*
X166970163Y-113850000D01*
X166915032Y-113872836D01*
X166872836Y-113915032D01*
X166850000Y-113970163D01*
X166616610Y-113970163D01*
X166283338Y-113636891D01*
X166283337Y-113636891D01*
X166274667Y-113650691D01*
X166274662Y-113650701D01*
X166215122Y-113820858D01*
X166215121Y-113820861D01*
X166194938Y-113999997D01*
X144900500Y-113999997D01*
X144900500Y-113400000D01*
X166753553Y-113400000D01*
X167000000Y-113646447D01*
X167599999Y-114246445D01*
X167876282Y-113970163D01*
X168050000Y-113970163D01*
X168050000Y-114029837D01*
X168072836Y-114084968D01*
X168115032Y-114127164D01*
X168170163Y-114150000D01*
X168229837Y-114150000D01*
X168284968Y-114127164D01*
X168327164Y-114084968D01*
X168350000Y-114029837D01*
X168350000Y-113970163D01*
X168327164Y-113915032D01*
X168284968Y-113872836D01*
X168229837Y-113850000D01*
X168170163Y-113850000D01*
X168115032Y-113872836D01*
X168072836Y-113915032D01*
X168050000Y-113970163D01*
X167876282Y-113970163D01*
X168112318Y-113734127D01*
X168173641Y-113700642D01*
X168243332Y-113705626D01*
X168287680Y-113734127D01*
X168849999Y-114296446D01*
X169176283Y-113970163D01*
X169350000Y-113970163D01*
X169350000Y-114029837D01*
X169372836Y-114084968D01*
X169415032Y-114127164D01*
X169470163Y-114150000D01*
X169529837Y-114150000D01*
X169584968Y-114127164D01*
X169627164Y-114084968D01*
X169650000Y-114029837D01*
X169650000Y-113999999D01*
X169853553Y-113999999D01*
X170050000Y-114196446D01*
X170246446Y-114000001D01*
X170246446Y-114000000D01*
X170216609Y-113970163D01*
X170450000Y-113970163D01*
X170450000Y-114029837D01*
X170472836Y-114084968D01*
X170515032Y-114127164D01*
X170570163Y-114150000D01*
X170629837Y-114150000D01*
X170684968Y-114127164D01*
X170727164Y-114084968D01*
X170750000Y-114029837D01*
X170750000Y-114000000D01*
X170953553Y-114000000D01*
X171316660Y-114363106D01*
X171316661Y-114363106D01*
X171325334Y-114349306D01*
X171325334Y-114349305D01*
X171384877Y-114179141D01*
X171384878Y-114179138D01*
X171405062Y-114000002D01*
X171405062Y-113999997D01*
X171384878Y-113820861D01*
X171325333Y-113650692D01*
X171316661Y-113636892D01*
X171316660Y-113636892D01*
X170953553Y-114000000D01*
X170750000Y-114000000D01*
X170750000Y-113970163D01*
X170727164Y-113915032D01*
X170684968Y-113872836D01*
X170629837Y-113850000D01*
X170570163Y-113850000D01*
X170515032Y-113872836D01*
X170472836Y-113915032D01*
X170450000Y-113970163D01*
X170216609Y-113970163D01*
X170050000Y-113803553D01*
X169853553Y-113999999D01*
X169650000Y-113999999D01*
X169650000Y-113970163D01*
X169627164Y-113915032D01*
X169584968Y-113872836D01*
X169529837Y-113850000D01*
X169470163Y-113850000D01*
X169415032Y-113872836D01*
X169372836Y-113915032D01*
X169350000Y-113970163D01*
X169176283Y-113970163D01*
X169500000Y-113646447D01*
X169746446Y-113400000D01*
X169746446Y-113399999D01*
X170353553Y-113399999D01*
X170600000Y-113646446D01*
X170846446Y-113400001D01*
X170846446Y-113400000D01*
X170600000Y-113153553D01*
X170353553Y-113399999D01*
X169746446Y-113399999D01*
X169116610Y-112770163D01*
X169350000Y-112770163D01*
X169350000Y-112829837D01*
X169372836Y-112884968D01*
X169415032Y-112927164D01*
X169470163Y-112950000D01*
X169529837Y-112950000D01*
X169584968Y-112927164D01*
X169627164Y-112884968D01*
X169650000Y-112829837D01*
X169650000Y-112799999D01*
X169853553Y-112799999D01*
X170050000Y-112996446D01*
X170246446Y-112800001D01*
X170246446Y-112800000D01*
X170216609Y-112770163D01*
X170450000Y-112770163D01*
X170450000Y-112829837D01*
X170472836Y-112884968D01*
X170515032Y-112927164D01*
X170570163Y-112950000D01*
X170629837Y-112950000D01*
X170684968Y-112927164D01*
X170727164Y-112884968D01*
X170750000Y-112829837D01*
X170750000Y-112800000D01*
X170953553Y-112800000D01*
X171316660Y-113163106D01*
X171316661Y-113163106D01*
X171325334Y-113149306D01*
X171325334Y-113149305D01*
X171384877Y-112979141D01*
X171384878Y-112979138D01*
X171405062Y-112800002D01*
X171405062Y-112799997D01*
X171384878Y-112620861D01*
X171325333Y-112450692D01*
X171316661Y-112436892D01*
X171316660Y-112436892D01*
X170953553Y-112800000D01*
X170750000Y-112800000D01*
X170750000Y-112770163D01*
X170727164Y-112715032D01*
X170684968Y-112672836D01*
X170629837Y-112650000D01*
X170570163Y-112650000D01*
X170515032Y-112672836D01*
X170472836Y-112715032D01*
X170450000Y-112770163D01*
X170216609Y-112770163D01*
X170050000Y-112603553D01*
X169853553Y-112799999D01*
X169650000Y-112799999D01*
X169650000Y-112770163D01*
X169627164Y-112715032D01*
X169584968Y-112672836D01*
X169529837Y-112650000D01*
X169470163Y-112650000D01*
X169415032Y-112672836D01*
X169372836Y-112715032D01*
X169350000Y-112770163D01*
X169116610Y-112770163D01*
X168850000Y-112503553D01*
X168287681Y-113065872D01*
X168226358Y-113099357D01*
X168156666Y-113094373D01*
X168112319Y-113065872D01*
X167816610Y-112770163D01*
X168050000Y-112770163D01*
X168050000Y-112829837D01*
X168072836Y-112884968D01*
X168115032Y-112927164D01*
X168170163Y-112950000D01*
X168229837Y-112950000D01*
X168284968Y-112927164D01*
X168327164Y-112884968D01*
X168350000Y-112829837D01*
X168350000Y-112770163D01*
X168327164Y-112715032D01*
X168284968Y-112672836D01*
X168229837Y-112650000D01*
X168170163Y-112650000D01*
X168115032Y-112672836D01*
X168072836Y-112715032D01*
X168050000Y-112770163D01*
X167816610Y-112770163D01*
X167600000Y-112553553D01*
X166753553Y-113400000D01*
X144900500Y-113400000D01*
X144900500Y-112799997D01*
X166194938Y-112799997D01*
X166194938Y-112800002D01*
X166215121Y-112979138D01*
X166274665Y-113149304D01*
X166283338Y-113163107D01*
X166646446Y-112800000D01*
X166646446Y-112799999D01*
X166616610Y-112770163D01*
X166850000Y-112770163D01*
X166850000Y-112829837D01*
X166872836Y-112884968D01*
X166915032Y-112927164D01*
X166970163Y-112950000D01*
X167029837Y-112950000D01*
X167084968Y-112927164D01*
X167127164Y-112884968D01*
X167150000Y-112829837D01*
X167150000Y-112770163D01*
X167127164Y-112715032D01*
X167084968Y-112672836D01*
X167029837Y-112650000D01*
X166970163Y-112650000D01*
X166915032Y-112672836D01*
X166872836Y-112715032D01*
X166850000Y-112770163D01*
X166616610Y-112770163D01*
X166283338Y-112436891D01*
X166283337Y-112436891D01*
X166274667Y-112450691D01*
X166274662Y-112450701D01*
X166215122Y-112620858D01*
X166215121Y-112620861D01*
X166194938Y-112799997D01*
X144900500Y-112799997D01*
X144900500Y-112083337D01*
X166636891Y-112083337D01*
X166636891Y-112083338D01*
X167000000Y-112446446D01*
X167000001Y-112446446D01*
X167363107Y-112083338D01*
X167363105Y-112083337D01*
X167836891Y-112083337D01*
X167836891Y-112083338D01*
X168200000Y-112446446D01*
X168200001Y-112446446D01*
X168563107Y-112083338D01*
X168563105Y-112083337D01*
X169136891Y-112083337D01*
X169136891Y-112083338D01*
X169500000Y-112446446D01*
X169500001Y-112446446D01*
X169863107Y-112083338D01*
X169863105Y-112083337D01*
X170236891Y-112083337D01*
X170236891Y-112083338D01*
X170600000Y-112446446D01*
X170600001Y-112446446D01*
X170963107Y-112083338D01*
X170949304Y-112074665D01*
X170779138Y-112015121D01*
X170600003Y-111994938D01*
X170599997Y-111994938D01*
X170420861Y-112015121D01*
X170420858Y-112015122D01*
X170250701Y-112074662D01*
X170250691Y-112074667D01*
X170236891Y-112083337D01*
X169863105Y-112083337D01*
X169849304Y-112074665D01*
X169679138Y-112015121D01*
X169500003Y-111994938D01*
X169499997Y-111994938D01*
X169320861Y-112015121D01*
X169320858Y-112015122D01*
X169150701Y-112074662D01*
X169150691Y-112074667D01*
X169136891Y-112083337D01*
X168563105Y-112083337D01*
X168549304Y-112074665D01*
X168379138Y-112015121D01*
X168200003Y-111994938D01*
X168199997Y-111994938D01*
X168020861Y-112015121D01*
X168020858Y-112015122D01*
X167850701Y-112074662D01*
X167850691Y-112074667D01*
X167836891Y-112083337D01*
X167363105Y-112083337D01*
X167349304Y-112074665D01*
X167179138Y-112015121D01*
X167000003Y-111994938D01*
X166999997Y-111994938D01*
X166820861Y-112015121D01*
X166820858Y-112015122D01*
X166650701Y-112074662D01*
X166650691Y-112074667D01*
X166636891Y-112083337D01*
X144900500Y-112083337D01*
X144900500Y-108500000D01*
X163594353Y-108500000D01*
X163614834Y-108642456D01*
X163641114Y-108700000D01*
X163674623Y-108773373D01*
X163768872Y-108882143D01*
X163889947Y-108959953D01*
X163889950Y-108959954D01*
X163889949Y-108959954D01*
X164028036Y-109000499D01*
X164028038Y-109000500D01*
X164028039Y-109000500D01*
X164171962Y-109000500D01*
X164171962Y-109000499D01*
X164310053Y-108959953D01*
X164431128Y-108882143D01*
X164525377Y-108773373D01*
X164558886Y-108700000D01*
X169394353Y-108700000D01*
X169414834Y-108842456D01*
X169432959Y-108882143D01*
X169474623Y-108973373D01*
X169568872Y-109082143D01*
X169689947Y-109159953D01*
X169689950Y-109159954D01*
X169689949Y-109159954D01*
X169828036Y-109200499D01*
X169828038Y-109200500D01*
X169828039Y-109200500D01*
X169971962Y-109200500D01*
X169971962Y-109200499D01*
X170110053Y-109159953D01*
X170231128Y-109082143D01*
X170325377Y-108973373D01*
X170385165Y-108842457D01*
X170405647Y-108700000D01*
X170385165Y-108557543D01*
X170325377Y-108426627D01*
X170231128Y-108317857D01*
X170110053Y-108240047D01*
X170110051Y-108240046D01*
X170110049Y-108240045D01*
X170110050Y-108240045D01*
X169971963Y-108199500D01*
X169971961Y-108199500D01*
X169828039Y-108199500D01*
X169828036Y-108199500D01*
X169689949Y-108240045D01*
X169568873Y-108317856D01*
X169474623Y-108426626D01*
X169474622Y-108426628D01*
X169414834Y-108557543D01*
X169394353Y-108700000D01*
X164558886Y-108700000D01*
X164585165Y-108642457D01*
X164605647Y-108500000D01*
X164585165Y-108357543D01*
X164525377Y-108226627D01*
X164431128Y-108117857D01*
X164310053Y-108040047D01*
X164310051Y-108040046D01*
X164310049Y-108040045D01*
X164310050Y-108040045D01*
X164171963Y-107999500D01*
X164171961Y-107999500D01*
X164028039Y-107999500D01*
X164028036Y-107999500D01*
X163889949Y-108040045D01*
X163768873Y-108117856D01*
X163674623Y-108226626D01*
X163674622Y-108226628D01*
X163614834Y-108357543D01*
X163594353Y-108500000D01*
X144900500Y-108500000D01*
X144900500Y-105700000D01*
X158494353Y-105700000D01*
X158514834Y-105842456D01*
X158574622Y-105973371D01*
X158574623Y-105973373D01*
X158668872Y-106082143D01*
X158789947Y-106159953D01*
X158789950Y-106159954D01*
X158789949Y-106159954D01*
X158928036Y-106200499D01*
X158928038Y-106200500D01*
X158928039Y-106200500D01*
X159071962Y-106200500D01*
X159071962Y-106200499D01*
X159210053Y-106159953D01*
X159331128Y-106082143D01*
X159425377Y-105973373D01*
X159485165Y-105842457D01*
X159505647Y-105700000D01*
X159485165Y-105557543D01*
X159425377Y-105426627D01*
X159331128Y-105317857D01*
X159210053Y-105240047D01*
X159210051Y-105240046D01*
X159210049Y-105240045D01*
X159210050Y-105240045D01*
X159071963Y-105199500D01*
X159071961Y-105199500D01*
X158928039Y-105199500D01*
X158928036Y-105199500D01*
X158789949Y-105240045D01*
X158668873Y-105317856D01*
X158574623Y-105426626D01*
X158574622Y-105426628D01*
X158514834Y-105557543D01*
X158494353Y-105700000D01*
X144900500Y-105700000D01*
X144900500Y-104300000D01*
X155694353Y-104300000D01*
X155714834Y-104442456D01*
X155760504Y-104542457D01*
X155774623Y-104573373D01*
X155868872Y-104682143D01*
X155989947Y-104759953D01*
X155989950Y-104759954D01*
X155989949Y-104759954D01*
X156128036Y-104800499D01*
X156128038Y-104800500D01*
X156128039Y-104800500D01*
X156271962Y-104800500D01*
X156271962Y-104800499D01*
X156410053Y-104759953D01*
X156531128Y-104682143D01*
X156625377Y-104573373D01*
X156685165Y-104442457D01*
X156691269Y-104400000D01*
X178694353Y-104400000D01*
X178714834Y-104542456D01*
X178728953Y-104573371D01*
X178774623Y-104673373D01*
X178868872Y-104782143D01*
X178989947Y-104859953D01*
X178989950Y-104859954D01*
X178989949Y-104859954D01*
X179128036Y-104900499D01*
X179128038Y-104900500D01*
X179128039Y-104900500D01*
X179271962Y-104900500D01*
X179271962Y-104900499D01*
X179410053Y-104859953D01*
X179531128Y-104782143D01*
X179625377Y-104673373D01*
X179685165Y-104542457D01*
X179705647Y-104400000D01*
X179685165Y-104257543D01*
X179625377Y-104126627D01*
X179531128Y-104017857D01*
X179410053Y-103940047D01*
X179410051Y-103940046D01*
X179410049Y-103940045D01*
X179410050Y-103940045D01*
X179271963Y-103899500D01*
X179271961Y-103899500D01*
X179128039Y-103899500D01*
X179128036Y-103899500D01*
X178989949Y-103940045D01*
X178868873Y-104017856D01*
X178774623Y-104126626D01*
X178774622Y-104126628D01*
X178714834Y-104257543D01*
X178694353Y-104400000D01*
X156691269Y-104400000D01*
X156705647Y-104300000D01*
X156685165Y-104157543D01*
X156625377Y-104026627D01*
X156531128Y-103917857D01*
X156410053Y-103840047D01*
X156410051Y-103840046D01*
X156410049Y-103840045D01*
X156410050Y-103840045D01*
X156271963Y-103799500D01*
X156271961Y-103799500D01*
X156128039Y-103799500D01*
X156128036Y-103799500D01*
X155989949Y-103840045D01*
X155868873Y-103917856D01*
X155774623Y-104026626D01*
X155774622Y-104026628D01*
X155714834Y-104157543D01*
X155694353Y-104300000D01*
X144900500Y-104300000D01*
X144900500Y-101700000D01*
X150294353Y-101700000D01*
X150314834Y-101842456D01*
X150349269Y-101917856D01*
X150374623Y-101973373D01*
X150468872Y-102082143D01*
X150589947Y-102159953D01*
X150589950Y-102159954D01*
X150589949Y-102159954D01*
X150697107Y-102191417D01*
X150725406Y-102199727D01*
X150728036Y-102200499D01*
X150728038Y-102200500D01*
X150728039Y-102200500D01*
X150871961Y-102200500D01*
X151001389Y-102162497D01*
X151071257Y-102162497D01*
X151130035Y-102200271D01*
X151159060Y-102263827D01*
X151149116Y-102332985D01*
X151130036Y-102362676D01*
X151074623Y-102426627D01*
X151074622Y-102426628D01*
X151014834Y-102557543D01*
X150994353Y-102700000D01*
X151014834Y-102842456D01*
X151074622Y-102973371D01*
X151074623Y-102973373D01*
X151168872Y-103082143D01*
X151289947Y-103159953D01*
X151289950Y-103159954D01*
X151289949Y-103159954D01*
X151358344Y-103180036D01*
X151424633Y-103199500D01*
X151428036Y-103200499D01*
X151428038Y-103200500D01*
X151428039Y-103200500D01*
X151571961Y-103200500D01*
X151634327Y-103182188D01*
X151704194Y-103182188D01*
X151762972Y-103219962D01*
X151791998Y-103283517D01*
X151782055Y-103352676D01*
X151762974Y-103382367D01*
X151724623Y-103426627D01*
X151724622Y-103426628D01*
X151664834Y-103557543D01*
X151644353Y-103700000D01*
X151664834Y-103842456D01*
X151690886Y-103899500D01*
X151724623Y-103973373D01*
X151818872Y-104082143D01*
X151939947Y-104159953D01*
X151939950Y-104159954D01*
X151939949Y-104159954D01*
X152078036Y-104200499D01*
X152078038Y-104200500D01*
X152078039Y-104200500D01*
X152221962Y-104200500D01*
X152221962Y-104200499D01*
X152360053Y-104159953D01*
X152481128Y-104082143D01*
X152575377Y-103973373D01*
X152635165Y-103842457D01*
X152655647Y-103700000D01*
X152635165Y-103557543D01*
X152575377Y-103426627D01*
X152481128Y-103317857D01*
X152360053Y-103240047D01*
X152360051Y-103240046D01*
X152360049Y-103240045D01*
X152360050Y-103240045D01*
X152221963Y-103199500D01*
X152221961Y-103199500D01*
X152078039Y-103199500D01*
X152078035Y-103199500D01*
X152015673Y-103217811D01*
X151945803Y-103217811D01*
X151887025Y-103180036D01*
X151858001Y-103116480D01*
X151867945Y-103047321D01*
X151887023Y-103017636D01*
X151925377Y-102973373D01*
X151985165Y-102842457D01*
X152005647Y-102700000D01*
X155694353Y-102700000D01*
X155714834Y-102842456D01*
X155774622Y-102973371D01*
X155774623Y-102973373D01*
X155868872Y-103082143D01*
X155989947Y-103159953D01*
X155989950Y-103159954D01*
X155989949Y-103159954D01*
X156058344Y-103180036D01*
X156124633Y-103199500D01*
X156128036Y-103200499D01*
X156128038Y-103200500D01*
X156128039Y-103200500D01*
X156271962Y-103200500D01*
X156271962Y-103200499D01*
X156410053Y-103159953D01*
X156531128Y-103082143D01*
X156625377Y-102973373D01*
X156685165Y-102842457D01*
X156705647Y-102700000D01*
X156685165Y-102557543D01*
X156625377Y-102426627D01*
X156531128Y-102317857D01*
X156503342Y-102300000D01*
X168094353Y-102300000D01*
X168114834Y-102442456D01*
X168174622Y-102573371D01*
X168174623Y-102573373D01*
X168268872Y-102682143D01*
X168389947Y-102759953D01*
X168389950Y-102759954D01*
X168389949Y-102759954D01*
X168528036Y-102800499D01*
X168528038Y-102800500D01*
X168528039Y-102800500D01*
X168671962Y-102800500D01*
X168671962Y-102800499D01*
X168810053Y-102759953D01*
X168931128Y-102682143D01*
X169025377Y-102573373D01*
X169085165Y-102442457D01*
X169105647Y-102300000D01*
X169085165Y-102157543D01*
X169025377Y-102026627D01*
X168931128Y-101917857D01*
X168810053Y-101840047D01*
X168810051Y-101840046D01*
X168810049Y-101840045D01*
X168810050Y-101840045D01*
X168671963Y-101799500D01*
X168671961Y-101799500D01*
X168528039Y-101799500D01*
X168528036Y-101799500D01*
X168389949Y-101840045D01*
X168268873Y-101917856D01*
X168174623Y-102026626D01*
X168174622Y-102026628D01*
X168114834Y-102157543D01*
X168094353Y-102300000D01*
X156503342Y-102300000D01*
X156410053Y-102240047D01*
X156410051Y-102240046D01*
X156410049Y-102240045D01*
X156410050Y-102240045D01*
X156271963Y-102199500D01*
X156271961Y-102199500D01*
X156128039Y-102199500D01*
X156128036Y-102199500D01*
X155989949Y-102240045D01*
X155868873Y-102317856D01*
X155774623Y-102426626D01*
X155774622Y-102426628D01*
X155714834Y-102557543D01*
X155694353Y-102700000D01*
X152005647Y-102700000D01*
X151985165Y-102557543D01*
X151925377Y-102426627D01*
X151831128Y-102317857D01*
X151710053Y-102240047D01*
X151710051Y-102240046D01*
X151710049Y-102240045D01*
X151710050Y-102240045D01*
X151571963Y-102199500D01*
X151571961Y-102199500D01*
X151428039Y-102199500D01*
X151428036Y-102199500D01*
X151298611Y-102237502D01*
X151228741Y-102237502D01*
X151169964Y-102199727D01*
X151140939Y-102136171D01*
X151150883Y-102067013D01*
X151169965Y-102037322D01*
X151179232Y-102026628D01*
X151225377Y-101973373D01*
X151285165Y-101842457D01*
X151305647Y-101700000D01*
X151285165Y-101557543D01*
X151225377Y-101426627D01*
X151131128Y-101317857D01*
X151010053Y-101240047D01*
X151010051Y-101240046D01*
X151010049Y-101240045D01*
X151010050Y-101240045D01*
X150871963Y-101199500D01*
X150871961Y-101199500D01*
X150728039Y-101199500D01*
X150728036Y-101199500D01*
X150589949Y-101240045D01*
X150468873Y-101317856D01*
X150374623Y-101426626D01*
X150374622Y-101426628D01*
X150314834Y-101557543D01*
X150294353Y-101700000D01*
X144900500Y-101700000D01*
X144900500Y-101100000D01*
X155694353Y-101100000D01*
X155714834Y-101242456D01*
X155749269Y-101317856D01*
X155774623Y-101373373D01*
X155868872Y-101482143D01*
X155989947Y-101559953D01*
X155989950Y-101559954D01*
X155989949Y-101559954D01*
X156128036Y-101600499D01*
X156128038Y-101600500D01*
X156128039Y-101600500D01*
X156271962Y-101600500D01*
X156271962Y-101600499D01*
X156410053Y-101559953D01*
X156531128Y-101482143D01*
X156625377Y-101373373D01*
X156685165Y-101242457D01*
X156705647Y-101100000D01*
X156685165Y-100957543D01*
X156625377Y-100826627D01*
X156531128Y-100717857D01*
X156410053Y-100640047D01*
X156410051Y-100640046D01*
X156410049Y-100640045D01*
X156410050Y-100640045D01*
X156341781Y-100620000D01*
X175844417Y-100620000D01*
X175864699Y-100825932D01*
X175894734Y-100924944D01*
X175924768Y-101023954D01*
X176022315Y-101206450D01*
X176022317Y-101206452D01*
X176153589Y-101366410D01*
X176162074Y-101373373D01*
X176313550Y-101497685D01*
X176496046Y-101595232D01*
X176694066Y-101655300D01*
X176694065Y-101655300D01*
X176712529Y-101657118D01*
X176900000Y-101675583D01*
X177105934Y-101655300D01*
X177303954Y-101595232D01*
X177486450Y-101497685D01*
X177646410Y-101366410D01*
X177777685Y-101206450D01*
X177875232Y-101023954D01*
X177935300Y-100825934D01*
X177955583Y-100620000D01*
X177935300Y-100414066D01*
X177875232Y-100216046D01*
X177777685Y-100033550D01*
X177725702Y-99970209D01*
X177646410Y-99873589D01*
X177486452Y-99742317D01*
X177486453Y-99742317D01*
X177486450Y-99742315D01*
X177303954Y-99644768D01*
X177105934Y-99584700D01*
X177105932Y-99584699D01*
X177105934Y-99584699D01*
X176900000Y-99564417D01*
X176694067Y-99584699D01*
X176496043Y-99644769D01*
X176385898Y-99703643D01*
X176313550Y-99742315D01*
X176313548Y-99742316D01*
X176313547Y-99742317D01*
X176153589Y-99873589D01*
X176022317Y-100033547D01*
X175924769Y-100216043D01*
X175864699Y-100414067D01*
X175844417Y-100620000D01*
X156341781Y-100620000D01*
X156271963Y-100599500D01*
X156271961Y-100599500D01*
X156128039Y-100599500D01*
X156128036Y-100599500D01*
X155989949Y-100640045D01*
X155868873Y-100717856D01*
X155774623Y-100826626D01*
X155774622Y-100826628D01*
X155714834Y-100957543D01*
X155694353Y-101100000D01*
X144900500Y-101100000D01*
X144900500Y-98700000D01*
X154594353Y-98700000D01*
X154614834Y-98842456D01*
X154667457Y-98957682D01*
X154674623Y-98973373D01*
X154768872Y-99082143D01*
X154889947Y-99159953D01*
X154889950Y-99159954D01*
X154889949Y-99159954D01*
X155028036Y-99200499D01*
X155028038Y-99200500D01*
X155028039Y-99200500D01*
X155171962Y-99200500D01*
X155171962Y-99200499D01*
X155310053Y-99159953D01*
X155431128Y-99082143D01*
X155525377Y-98973373D01*
X155585165Y-98842457D01*
X155605647Y-98700000D01*
X155585165Y-98557543D01*
X155525377Y-98426627D01*
X155431128Y-98317857D01*
X155310053Y-98240047D01*
X155310051Y-98240046D01*
X155310049Y-98240045D01*
X155310050Y-98240045D01*
X155171963Y-98199500D01*
X155171961Y-98199500D01*
X155028039Y-98199500D01*
X155028036Y-98199500D01*
X154889949Y-98240045D01*
X154768873Y-98317856D01*
X154674623Y-98426626D01*
X154674622Y-98426628D01*
X154614834Y-98557543D01*
X154594353Y-98700000D01*
X144900500Y-98700000D01*
X144900500Y-98080000D01*
X175844417Y-98080000D01*
X175864699Y-98285932D01*
X175894734Y-98384944D01*
X175924768Y-98483954D01*
X176022315Y-98666450D01*
X176022317Y-98666452D01*
X176153589Y-98826410D01*
X176173143Y-98842457D01*
X176313550Y-98957685D01*
X176496046Y-99055232D01*
X176694066Y-99115300D01*
X176694065Y-99115300D01*
X176712529Y-99117118D01*
X176900000Y-99135583D01*
X177105934Y-99115300D01*
X177303954Y-99055232D01*
X177486450Y-98957685D01*
X177646410Y-98826410D01*
X177777685Y-98666450D01*
X177875232Y-98483954D01*
X177935300Y-98285934D01*
X177955583Y-98080000D01*
X177935300Y-97874066D01*
X177875232Y-97676046D01*
X177777685Y-97493550D01*
X177725702Y-97430209D01*
X177646410Y-97333589D01*
X177486452Y-97202317D01*
X177486453Y-97202317D01*
X177486450Y-97202315D01*
X177303954Y-97104768D01*
X177105934Y-97044700D01*
X177105932Y-97044699D01*
X177105934Y-97044699D01*
X176900000Y-97024417D01*
X176694067Y-97044699D01*
X176496043Y-97104769D01*
X176385898Y-97163643D01*
X176313550Y-97202315D01*
X176313548Y-97202316D01*
X176313547Y-97202317D01*
X176153589Y-97333589D01*
X176022317Y-97493547D01*
X175924769Y-97676043D01*
X175864699Y-97874067D01*
X175844417Y-98080000D01*
X144900500Y-98080000D01*
X144900500Y-95540000D01*
X175844417Y-95540000D01*
X175864699Y-95745932D01*
X175864700Y-95745934D01*
X175924768Y-95943954D01*
X176022315Y-96126450D01*
X176022317Y-96126452D01*
X176153589Y-96286410D01*
X176250209Y-96365702D01*
X176313550Y-96417685D01*
X176496046Y-96515232D01*
X176694066Y-96575300D01*
X176694065Y-96575300D01*
X176712529Y-96577118D01*
X176900000Y-96595583D01*
X177105934Y-96575300D01*
X177303954Y-96515232D01*
X177486450Y-96417685D01*
X177646410Y-96286410D01*
X177777685Y-96126450D01*
X177875232Y-95943954D01*
X177935300Y-95745934D01*
X177955583Y-95540000D01*
X177935300Y-95334066D01*
X177875232Y-95136046D01*
X177777685Y-94953550D01*
X177711883Y-94873369D01*
X177646410Y-94793589D01*
X177486452Y-94662317D01*
X177486453Y-94662317D01*
X177486450Y-94662315D01*
X177303954Y-94564768D01*
X177105934Y-94504700D01*
X177105932Y-94504699D01*
X177105934Y-94504699D01*
X176900000Y-94484417D01*
X176694067Y-94504699D01*
X176496043Y-94564769D01*
X176385898Y-94623643D01*
X176313550Y-94662315D01*
X176313548Y-94662316D01*
X176313547Y-94662317D01*
X176153589Y-94793589D01*
X176022317Y-94953547D01*
X175924769Y-95136043D01*
X175864699Y-95334067D01*
X175844417Y-95540000D01*
X144900500Y-95540000D01*
X144900500Y-94843146D01*
X144920185Y-94776107D01*
X144972989Y-94730352D01*
X145042147Y-94720408D01*
X145105703Y-94749433D01*
X145137294Y-94791635D01*
X145174620Y-94873369D01*
X145174623Y-94873373D01*
X145268872Y-94982143D01*
X145389947Y-95059953D01*
X145389950Y-95059954D01*
X145389949Y-95059954D01*
X145528036Y-95100499D01*
X145528038Y-95100500D01*
X145528039Y-95100500D01*
X145671962Y-95100500D01*
X145671962Y-95100499D01*
X145810053Y-95059953D01*
X145931128Y-94982143D01*
X146025377Y-94873373D01*
X146085165Y-94742457D01*
X146105647Y-94600000D01*
X146085165Y-94457543D01*
X146025377Y-94326627D01*
X145931128Y-94217857D01*
X145810053Y-94140047D01*
X145810051Y-94140046D01*
X145810049Y-94140045D01*
X145810050Y-94140045D01*
X145673666Y-94100000D01*
X161494353Y-94100000D01*
X161514834Y-94242456D01*
X161553275Y-94326628D01*
X161574623Y-94373373D01*
X161668872Y-94482143D01*
X161789947Y-94559953D01*
X161789950Y-94559954D01*
X161789949Y-94559954D01*
X161897107Y-94591417D01*
X161926336Y-94600000D01*
X161928036Y-94600499D01*
X161928038Y-94600500D01*
X161928039Y-94600500D01*
X162071962Y-94600500D01*
X162071962Y-94600499D01*
X162193651Y-94564769D01*
X162210050Y-94559954D01*
X162210050Y-94559953D01*
X162210053Y-94559953D01*
X162331128Y-94482143D01*
X162425377Y-94373373D01*
X162485165Y-94242457D01*
X162502262Y-94123542D01*
X162513014Y-94099999D01*
X162736986Y-94099999D01*
X162747738Y-94123543D01*
X162764834Y-94242456D01*
X162803275Y-94326628D01*
X162824623Y-94373373D01*
X162918872Y-94482143D01*
X163039947Y-94559953D01*
X163039950Y-94559954D01*
X163039949Y-94559954D01*
X163147107Y-94591417D01*
X163176336Y-94600000D01*
X163178036Y-94600499D01*
X163178038Y-94600500D01*
X163178039Y-94600500D01*
X163321962Y-94600500D01*
X163321962Y-94600499D01*
X163443651Y-94564769D01*
X163460050Y-94559954D01*
X163460050Y-94559953D01*
X163460053Y-94559953D01*
X163581128Y-94482143D01*
X163675377Y-94373373D01*
X163735165Y-94242457D01*
X163755647Y-94100000D01*
X163735165Y-93957543D01*
X163675377Y-93826627D01*
X163581128Y-93717857D01*
X163460053Y-93640047D01*
X163460051Y-93640046D01*
X163460049Y-93640045D01*
X163460050Y-93640045D01*
X163321963Y-93599500D01*
X163321961Y-93599500D01*
X163178039Y-93599500D01*
X163178036Y-93599500D01*
X163039949Y-93640045D01*
X162918873Y-93717856D01*
X162824623Y-93826626D01*
X162824622Y-93826628D01*
X162764834Y-93957543D01*
X162747738Y-94076456D01*
X162736986Y-94099999D01*
X162513014Y-94099999D01*
X162502262Y-94076456D01*
X162485165Y-93957543D01*
X162425377Y-93826627D01*
X162331128Y-93717857D01*
X162210053Y-93640047D01*
X162210051Y-93640046D01*
X162210049Y-93640045D01*
X162210050Y-93640045D01*
X162071963Y-93599500D01*
X162071961Y-93599500D01*
X161928039Y-93599500D01*
X161928036Y-93599500D01*
X161789949Y-93640045D01*
X161668873Y-93717856D01*
X161574623Y-93826626D01*
X161574622Y-93826628D01*
X161514834Y-93957543D01*
X161494353Y-94100000D01*
X145673666Y-94100000D01*
X145671963Y-94099500D01*
X145671961Y-94099500D01*
X145528039Y-94099500D01*
X145528036Y-94099500D01*
X145389949Y-94140045D01*
X145268873Y-94217856D01*
X145174623Y-94326626D01*
X145174622Y-94326628D01*
X145137294Y-94408365D01*
X145091539Y-94461169D01*
X145024500Y-94480853D01*
X144957460Y-94461168D01*
X144911705Y-94408364D01*
X144900500Y-94356853D01*
X144900500Y-93200000D01*
X153744353Y-93200000D01*
X153764834Y-93342456D01*
X153782959Y-93382143D01*
X153824623Y-93473373D01*
X153918872Y-93582143D01*
X154039947Y-93659953D01*
X154039950Y-93659954D01*
X154039949Y-93659954D01*
X154178036Y-93700499D01*
X154178038Y-93700500D01*
X154178039Y-93700500D01*
X154321962Y-93700500D01*
X154321962Y-93700499D01*
X154460053Y-93659953D01*
X154581128Y-93582143D01*
X154675377Y-93473373D01*
X154735165Y-93342457D01*
X154755647Y-93200000D01*
X154735165Y-93057543D01*
X154708886Y-93000000D01*
X170994353Y-93000000D01*
X171014834Y-93142456D01*
X171041114Y-93200000D01*
X171074623Y-93273373D01*
X171168872Y-93382143D01*
X171289947Y-93459953D01*
X171289950Y-93459954D01*
X171289949Y-93459954D01*
X171428036Y-93500499D01*
X171428038Y-93500500D01*
X171428039Y-93500500D01*
X171571962Y-93500500D01*
X171571962Y-93500499D01*
X171710053Y-93459953D01*
X171831128Y-93382143D01*
X171925377Y-93273373D01*
X171985165Y-93142457D01*
X172005647Y-93000000D01*
X175844417Y-93000000D01*
X175864699Y-93205932D01*
X175885157Y-93273373D01*
X175924768Y-93403954D01*
X176022315Y-93586450D01*
X176022317Y-93586452D01*
X176153589Y-93746410D01*
X176250209Y-93825702D01*
X176313550Y-93877685D01*
X176496046Y-93975232D01*
X176694066Y-94035300D01*
X176694065Y-94035300D01*
X176712529Y-94037118D01*
X176900000Y-94055583D01*
X177105934Y-94035300D01*
X177303954Y-93975232D01*
X177486450Y-93877685D01*
X177646410Y-93746410D01*
X177777685Y-93586450D01*
X177875232Y-93403954D01*
X177935300Y-93205934D01*
X177955583Y-93000000D01*
X177935300Y-92794066D01*
X177875232Y-92596046D01*
X177777685Y-92413550D01*
X177725702Y-92350209D01*
X177646410Y-92253589D01*
X177486452Y-92122317D01*
X177486453Y-92122317D01*
X177486450Y-92122315D01*
X177303954Y-92024768D01*
X177105934Y-91964700D01*
X177105932Y-91964699D01*
X177105934Y-91964699D01*
X176900000Y-91944417D01*
X176694067Y-91964699D01*
X176496043Y-92024769D01*
X176385898Y-92083643D01*
X176313550Y-92122315D01*
X176313548Y-92122316D01*
X176313547Y-92122317D01*
X176153589Y-92253589D01*
X176022317Y-92413547D01*
X175924769Y-92596043D01*
X175864699Y-92794067D01*
X175844417Y-93000000D01*
X172005647Y-93000000D01*
X171985165Y-92857543D01*
X171925377Y-92726627D01*
X171831128Y-92617857D01*
X171710053Y-92540047D01*
X171710051Y-92540046D01*
X171710049Y-92540045D01*
X171710050Y-92540045D01*
X171571963Y-92499500D01*
X171571961Y-92499500D01*
X171428039Y-92499500D01*
X171428036Y-92499500D01*
X171289949Y-92540045D01*
X171168873Y-92617856D01*
X171074623Y-92726626D01*
X171074622Y-92726628D01*
X171014834Y-92857543D01*
X170994353Y-93000000D01*
X154708886Y-93000000D01*
X154675377Y-92926627D01*
X154581128Y-92817857D01*
X154460053Y-92740047D01*
X154460051Y-92740046D01*
X154460049Y-92740045D01*
X154460050Y-92740045D01*
X154321963Y-92699500D01*
X154321961Y-92699500D01*
X154178039Y-92699500D01*
X154178036Y-92699500D01*
X154039949Y-92740045D01*
X153918873Y-92817856D01*
X153824623Y-92926626D01*
X153824622Y-92926628D01*
X153764834Y-93057543D01*
X153744353Y-93200000D01*
X144900500Y-93200000D01*
X144900500Y-90460000D01*
X175844417Y-90460000D01*
X175864699Y-90665932D01*
X175864700Y-90665934D01*
X175924768Y-90863954D01*
X176022315Y-91046450D01*
X176022317Y-91046452D01*
X176153589Y-91206410D01*
X176250209Y-91285702D01*
X176313550Y-91337685D01*
X176496046Y-91435232D01*
X176694066Y-91495300D01*
X176694065Y-91495300D01*
X176712529Y-91497118D01*
X176900000Y-91515583D01*
X177105934Y-91495300D01*
X177303954Y-91435232D01*
X177486450Y-91337685D01*
X177646410Y-91206410D01*
X177777685Y-91046450D01*
X177875232Y-90863954D01*
X177935300Y-90665934D01*
X177955583Y-90460000D01*
X177935300Y-90254066D01*
X177875232Y-90056046D01*
X177777685Y-89873550D01*
X177725702Y-89810209D01*
X177646410Y-89713589D01*
X177486452Y-89582317D01*
X177486453Y-89582317D01*
X177486450Y-89582315D01*
X177303954Y-89484768D01*
X177105934Y-89424700D01*
X177105932Y-89424699D01*
X177105934Y-89424699D01*
X176900000Y-89404417D01*
X176694067Y-89424699D01*
X176496043Y-89484769D01*
X176385898Y-89543643D01*
X176313550Y-89582315D01*
X176313548Y-89582316D01*
X176313547Y-89582317D01*
X176153589Y-89713589D01*
X176022317Y-89873547D01*
X175924769Y-90056043D01*
X175864699Y-90254067D01*
X175844417Y-90460000D01*
X144900500Y-90460000D01*
X144900500Y-89050000D01*
X153644353Y-89050000D01*
X153664834Y-89192456D01*
X153724622Y-89323371D01*
X153724623Y-89323373D01*
X153818872Y-89432143D01*
X153939947Y-89509953D01*
X153939950Y-89509954D01*
X153939949Y-89509954D01*
X154078036Y-89550499D01*
X154078038Y-89550500D01*
X154078039Y-89550500D01*
X154221962Y-89550500D01*
X154221962Y-89550499D01*
X154360053Y-89509953D01*
X154481128Y-89432143D01*
X154575377Y-89323373D01*
X154635165Y-89192457D01*
X154655647Y-89050000D01*
X154635165Y-88907543D01*
X154575377Y-88776627D01*
X154481128Y-88667857D01*
X154360053Y-88590047D01*
X154360051Y-88590046D01*
X154360049Y-88590045D01*
X154360050Y-88590045D01*
X154221963Y-88549500D01*
X154221961Y-88549500D01*
X154078039Y-88549500D01*
X154078036Y-88549500D01*
X153939949Y-88590045D01*
X153818873Y-88667856D01*
X153724623Y-88776626D01*
X153724622Y-88776628D01*
X153664834Y-88907543D01*
X153644353Y-89050000D01*
X144900500Y-89050000D01*
X144900500Y-87800000D01*
X153644353Y-87800000D01*
X153664834Y-87942456D01*
X153724622Y-88073371D01*
X153724623Y-88073373D01*
X153818872Y-88182143D01*
X153939947Y-88259953D01*
X153939950Y-88259954D01*
X153939949Y-88259954D01*
X154078036Y-88300499D01*
X154078038Y-88300500D01*
X154078039Y-88300500D01*
X154221962Y-88300500D01*
X154221962Y-88300499D01*
X154360053Y-88259953D01*
X154481128Y-88182143D01*
X154575377Y-88073373D01*
X154635165Y-87942457D01*
X154655647Y-87800000D01*
X154650853Y-87766660D01*
X164636892Y-87766660D01*
X164636892Y-87766661D01*
X164650692Y-87775333D01*
X164650691Y-87775333D01*
X164820861Y-87834878D01*
X164999997Y-87855062D01*
X165000003Y-87855062D01*
X165179138Y-87834878D01*
X165179141Y-87834877D01*
X165349305Y-87775334D01*
X165349306Y-87775334D01*
X165363106Y-87766661D01*
X165363106Y-87766660D01*
X166036892Y-87766660D01*
X166036892Y-87766661D01*
X166050692Y-87775333D01*
X166050691Y-87775333D01*
X166220861Y-87834878D01*
X166399997Y-87855062D01*
X166400003Y-87855062D01*
X166579138Y-87834878D01*
X166579141Y-87834877D01*
X166749305Y-87775334D01*
X166749306Y-87775334D01*
X166763106Y-87766661D01*
X166763106Y-87766660D01*
X166400001Y-87403553D01*
X166400000Y-87403553D01*
X166036892Y-87766660D01*
X165363106Y-87766660D01*
X165000001Y-87403553D01*
X165000000Y-87403553D01*
X164636892Y-87766660D01*
X154650853Y-87766660D01*
X154635165Y-87657543D01*
X154575377Y-87526627D01*
X154481128Y-87417857D01*
X154360053Y-87340047D01*
X154360051Y-87340046D01*
X154360049Y-87340045D01*
X154360050Y-87340045D01*
X154221963Y-87299500D01*
X154221961Y-87299500D01*
X154078039Y-87299500D01*
X154078036Y-87299500D01*
X153939949Y-87340045D01*
X153818873Y-87417856D01*
X153724623Y-87526626D01*
X153724622Y-87526628D01*
X153664834Y-87657543D01*
X153644353Y-87800000D01*
X144900500Y-87800000D01*
X144900500Y-87066660D01*
X163936892Y-87066660D01*
X163936892Y-87066661D01*
X163950692Y-87075333D01*
X163950691Y-87075333D01*
X164120862Y-87134878D01*
X164121644Y-87135057D01*
X164122097Y-87135310D01*
X164127431Y-87137177D01*
X164127104Y-87138111D01*
X164182623Y-87169166D01*
X164211952Y-87222874D01*
X164212822Y-87222570D01*
X164214670Y-87227852D01*
X164214940Y-87228346D01*
X164215121Y-87229142D01*
X164274663Y-87399300D01*
X164274663Y-87399301D01*
X164283338Y-87413107D01*
X164646446Y-87050000D01*
X164626555Y-87030109D01*
X164900000Y-87030109D01*
X164900000Y-87069891D01*
X164915224Y-87106645D01*
X164943355Y-87134776D01*
X164980109Y-87150000D01*
X165019891Y-87150000D01*
X165056645Y-87134776D01*
X165084776Y-87106645D01*
X165100000Y-87069891D01*
X165100000Y-87049999D01*
X165353553Y-87049999D01*
X165353553Y-87050000D01*
X165700000Y-87396446D01*
X165700001Y-87396446D01*
X166046446Y-87050000D01*
X166026555Y-87030109D01*
X166300000Y-87030109D01*
X166300000Y-87069891D01*
X166315224Y-87106645D01*
X166343355Y-87134776D01*
X166380109Y-87150000D01*
X166419891Y-87150000D01*
X166456645Y-87134776D01*
X166484776Y-87106645D01*
X166500000Y-87069891D01*
X166500000Y-87049999D01*
X166753553Y-87049999D01*
X166753553Y-87050000D01*
X167116660Y-87413106D01*
X167116661Y-87413106D01*
X167125334Y-87399306D01*
X167125334Y-87399305D01*
X167184876Y-87229144D01*
X167185056Y-87228358D01*
X167185311Y-87227901D01*
X167187177Y-87222570D01*
X167188110Y-87222896D01*
X167219164Y-87167379D01*
X167272875Y-87138049D01*
X167272570Y-87137177D01*
X167277870Y-87135322D01*
X167278358Y-87135056D01*
X167279144Y-87134876D01*
X167449305Y-87075334D01*
X167449306Y-87075334D01*
X167463106Y-87066661D01*
X167463106Y-87066660D01*
X167446693Y-87050247D01*
X175849500Y-87050247D01*
X175849500Y-88789752D01*
X175861131Y-88848229D01*
X175861132Y-88848230D01*
X175905447Y-88914552D01*
X175971769Y-88958867D01*
X175971770Y-88958868D01*
X176030247Y-88970499D01*
X176030250Y-88970500D01*
X176030252Y-88970500D01*
X177769750Y-88970500D01*
X177769751Y-88970499D01*
X177784568Y-88967552D01*
X177828229Y-88958868D01*
X177828229Y-88958867D01*
X177828231Y-88958867D01*
X177894552Y-88914552D01*
X177938867Y-88848231D01*
X177938867Y-88848229D01*
X177938868Y-88848229D01*
X177950499Y-88789752D01*
X177950500Y-88789750D01*
X177950500Y-87050249D01*
X177950499Y-87050247D01*
X177938868Y-86991770D01*
X177938867Y-86991769D01*
X177894552Y-86925447D01*
X177828230Y-86881132D01*
X177828229Y-86881131D01*
X177769752Y-86869500D01*
X177769748Y-86869500D01*
X176030252Y-86869500D01*
X176030247Y-86869500D01*
X175971770Y-86881131D01*
X175971769Y-86881132D01*
X175905447Y-86925447D01*
X175861132Y-86991769D01*
X175861131Y-86991770D01*
X175849500Y-87050247D01*
X167446693Y-87050247D01*
X167100000Y-86703553D01*
X167034240Y-86769314D01*
X167034239Y-86769314D01*
X166753553Y-87049999D01*
X166500000Y-87049999D01*
X166500000Y-87030109D01*
X166484776Y-86993355D01*
X166456645Y-86965224D01*
X166419891Y-86950000D01*
X166380109Y-86950000D01*
X166343355Y-86965224D01*
X166315224Y-86993355D01*
X166300000Y-87030109D01*
X166026555Y-87030109D01*
X165765760Y-86769314D01*
X165700000Y-86703553D01*
X165634240Y-86769314D01*
X165634239Y-86769314D01*
X165353553Y-87049999D01*
X165100000Y-87049999D01*
X165100000Y-87030109D01*
X165084776Y-86993355D01*
X165056645Y-86965224D01*
X165019891Y-86950000D01*
X164980109Y-86950000D01*
X164943355Y-86965224D01*
X164915224Y-86993355D01*
X164900000Y-87030109D01*
X164626555Y-87030109D01*
X164299999Y-86703553D01*
X164299998Y-86703553D01*
X163936892Y-87066660D01*
X144900500Y-87066660D01*
X144900500Y-86500000D01*
X153644353Y-86500000D01*
X153664834Y-86642456D01*
X153697100Y-86713107D01*
X153724623Y-86773373D01*
X153818872Y-86882143D01*
X153939947Y-86959953D01*
X153939950Y-86959954D01*
X153939949Y-86959954D01*
X154078036Y-87000499D01*
X154078038Y-87000500D01*
X154078039Y-87000500D01*
X154221962Y-87000500D01*
X154221962Y-87000499D01*
X154329121Y-86969035D01*
X154360050Y-86959954D01*
X154360050Y-86959953D01*
X154360053Y-86959953D01*
X154481128Y-86882143D01*
X154575377Y-86773373D01*
X154635165Y-86642457D01*
X154655647Y-86500000D01*
X154635165Y-86357543D01*
X154631719Y-86349997D01*
X163494938Y-86349997D01*
X163494938Y-86350002D01*
X163515121Y-86529138D01*
X163574665Y-86699304D01*
X163583338Y-86713107D01*
X163946446Y-86350000D01*
X163946446Y-86349999D01*
X163926556Y-86330109D01*
X164200000Y-86330109D01*
X164200000Y-86369891D01*
X164215224Y-86406645D01*
X164243355Y-86434776D01*
X164280109Y-86450000D01*
X164319891Y-86450000D01*
X164356645Y-86434776D01*
X164384776Y-86406645D01*
X164400000Y-86369891D01*
X164400000Y-86350000D01*
X164653553Y-86350000D01*
X164704054Y-86400500D01*
X165000000Y-86696446D01*
X165346446Y-86350000D01*
X165326555Y-86330109D01*
X165600000Y-86330109D01*
X165600000Y-86369891D01*
X165615224Y-86406645D01*
X165643355Y-86434776D01*
X165680109Y-86450000D01*
X165719891Y-86450000D01*
X165756645Y-86434776D01*
X165784776Y-86406645D01*
X165800000Y-86369891D01*
X165800000Y-86350000D01*
X166053553Y-86350000D01*
X166104054Y-86400500D01*
X166400000Y-86696446D01*
X166746446Y-86350000D01*
X166726555Y-86330109D01*
X167000000Y-86330109D01*
X167000000Y-86369891D01*
X167015224Y-86406645D01*
X167043355Y-86434776D01*
X167080109Y-86450000D01*
X167119891Y-86450000D01*
X167156645Y-86434776D01*
X167184776Y-86406645D01*
X167200000Y-86369891D01*
X167200000Y-86350000D01*
X167453553Y-86350000D01*
X167816660Y-86713106D01*
X167816661Y-86713106D01*
X167825334Y-86699306D01*
X167825334Y-86699305D01*
X167884877Y-86529141D01*
X167884878Y-86529138D01*
X167905062Y-86350002D01*
X167905062Y-86349997D01*
X167884878Y-86170861D01*
X167825333Y-86000692D01*
X167816661Y-85986892D01*
X167816660Y-85986892D01*
X167453553Y-86350000D01*
X167200000Y-86350000D01*
X167200000Y-86330109D01*
X167184776Y-86293355D01*
X167156645Y-86265224D01*
X167119891Y-86250000D01*
X167080109Y-86250000D01*
X167043355Y-86265224D01*
X167015224Y-86293355D01*
X167000000Y-86330109D01*
X166726555Y-86330109D01*
X166436492Y-86040046D01*
X166400000Y-86003553D01*
X166363508Y-86040046D01*
X166363507Y-86040047D01*
X166053553Y-86350000D01*
X165800000Y-86350000D01*
X165800000Y-86330109D01*
X165784776Y-86293355D01*
X165756645Y-86265224D01*
X165719891Y-86250000D01*
X165680109Y-86250000D01*
X165643355Y-86265224D01*
X165615224Y-86293355D01*
X165600000Y-86330109D01*
X165326555Y-86330109D01*
X165036492Y-86040046D01*
X165000000Y-86003553D01*
X164963508Y-86040046D01*
X164963507Y-86040047D01*
X164653553Y-86350000D01*
X164400000Y-86350000D01*
X164400000Y-86330109D01*
X164384776Y-86293355D01*
X164356645Y-86265224D01*
X164319891Y-86250000D01*
X164280109Y-86250000D01*
X164243355Y-86265224D01*
X164215224Y-86293355D01*
X164200000Y-86330109D01*
X163926556Y-86330109D01*
X163583338Y-85986891D01*
X163583337Y-85986891D01*
X163574667Y-86000691D01*
X163574662Y-86000701D01*
X163515122Y-86170858D01*
X163515121Y-86170861D01*
X163494938Y-86349997D01*
X154631719Y-86349997D01*
X154575377Y-86226627D01*
X154481128Y-86117857D01*
X154360053Y-86040047D01*
X154360051Y-86040046D01*
X154360049Y-86040045D01*
X154360050Y-86040045D01*
X154221963Y-85999500D01*
X154221961Y-85999500D01*
X154078039Y-85999500D01*
X154078036Y-85999500D01*
X153939949Y-86040045D01*
X153818873Y-86117856D01*
X153724623Y-86226626D01*
X153724622Y-86226628D01*
X153664834Y-86357543D01*
X153644353Y-86500000D01*
X144900500Y-86500000D01*
X144900500Y-85250000D01*
X156594353Y-85250000D01*
X156614834Y-85392456D01*
X156672103Y-85517856D01*
X156674623Y-85523373D01*
X156768872Y-85632143D01*
X156889947Y-85709953D01*
X156889950Y-85709954D01*
X156889949Y-85709954D01*
X156974487Y-85734776D01*
X157026336Y-85750000D01*
X157028036Y-85750499D01*
X157028038Y-85750500D01*
X157028039Y-85750500D01*
X157171962Y-85750500D01*
X157171962Y-85750499D01*
X157310053Y-85709953D01*
X157403343Y-85649999D01*
X163953553Y-85649999D01*
X163953553Y-85650001D01*
X164299998Y-85996446D01*
X164299999Y-85996446D01*
X164586493Y-85709953D01*
X164646446Y-85650000D01*
X164626555Y-85630109D01*
X164900000Y-85630109D01*
X164900000Y-85669891D01*
X164915224Y-85706645D01*
X164943355Y-85734776D01*
X164980109Y-85750000D01*
X165019891Y-85750000D01*
X165056645Y-85734776D01*
X165084776Y-85706645D01*
X165100000Y-85669891D01*
X165100000Y-85649999D01*
X165353553Y-85649999D01*
X165700000Y-85996446D01*
X166046446Y-85650000D01*
X166026555Y-85630109D01*
X166300000Y-85630109D01*
X166300000Y-85669891D01*
X166315224Y-85706645D01*
X166343355Y-85734776D01*
X166380109Y-85750000D01*
X166419891Y-85750000D01*
X166456645Y-85734776D01*
X166484776Y-85706645D01*
X166500000Y-85669891D01*
X166500000Y-85649999D01*
X166753553Y-85649999D01*
X167100000Y-85996446D01*
X167196446Y-85900000D01*
X170394353Y-85900000D01*
X170414834Y-86042456D01*
X170449269Y-86117856D01*
X170474623Y-86173373D01*
X170568872Y-86282143D01*
X170689947Y-86359953D01*
X170689950Y-86359954D01*
X170689949Y-86359954D01*
X170828036Y-86400499D01*
X170828038Y-86400500D01*
X170828039Y-86400500D01*
X170971962Y-86400500D01*
X170971962Y-86400499D01*
X171110053Y-86359953D01*
X171231128Y-86282143D01*
X171325377Y-86173373D01*
X171385165Y-86042457D01*
X171405647Y-85900000D01*
X171385165Y-85757543D01*
X171325377Y-85626627D01*
X171231128Y-85517857D01*
X171110053Y-85440047D01*
X171110051Y-85440046D01*
X171110049Y-85440045D01*
X171110050Y-85440045D01*
X170971963Y-85399500D01*
X170971961Y-85399500D01*
X170828039Y-85399500D01*
X170828036Y-85399500D01*
X170689949Y-85440045D01*
X170568873Y-85517856D01*
X170474623Y-85626626D01*
X170474622Y-85626628D01*
X170414834Y-85757543D01*
X170394353Y-85900000D01*
X167196446Y-85900000D01*
X167446446Y-85650000D01*
X167446446Y-85649999D01*
X167100000Y-85303553D01*
X167034240Y-85369314D01*
X167034239Y-85369314D01*
X166753553Y-85649999D01*
X166500000Y-85649999D01*
X166500000Y-85630109D01*
X166484776Y-85593355D01*
X166456645Y-85565224D01*
X166419891Y-85550000D01*
X166380109Y-85550000D01*
X166343355Y-85565224D01*
X166315224Y-85593355D01*
X166300000Y-85630109D01*
X166026555Y-85630109D01*
X165765760Y-85369314D01*
X165700000Y-85303553D01*
X165634240Y-85369314D01*
X165634239Y-85369314D01*
X165353553Y-85649999D01*
X165100000Y-85649999D01*
X165100000Y-85630109D01*
X165084776Y-85593355D01*
X165056645Y-85565224D01*
X165019891Y-85550000D01*
X164980109Y-85550000D01*
X164943355Y-85565224D01*
X164915224Y-85593355D01*
X164900000Y-85630109D01*
X164626555Y-85630109D01*
X164299999Y-85303553D01*
X164299998Y-85303553D01*
X163953553Y-85649999D01*
X157403343Y-85649999D01*
X157431128Y-85632143D01*
X157525377Y-85523373D01*
X157585165Y-85392457D01*
X157605647Y-85250000D01*
X157585165Y-85107543D01*
X157525377Y-84976627D01*
X157502302Y-84949997D01*
X163494938Y-84949997D01*
X163494938Y-84950002D01*
X163515121Y-85129138D01*
X163574665Y-85299304D01*
X163583338Y-85313107D01*
X163946446Y-84950000D01*
X163946446Y-84949999D01*
X163926556Y-84930109D01*
X164200000Y-84930109D01*
X164200000Y-84969891D01*
X164215224Y-85006645D01*
X164243355Y-85034776D01*
X164280109Y-85050000D01*
X164319891Y-85050000D01*
X164356645Y-85034776D01*
X164384776Y-85006645D01*
X164400000Y-84969891D01*
X164400000Y-84949999D01*
X164653553Y-84949999D01*
X164698106Y-84994551D01*
X164698107Y-84994553D01*
X165000000Y-85296446D01*
X165346446Y-84950000D01*
X165326555Y-84930109D01*
X165600000Y-84930109D01*
X165600000Y-84969891D01*
X165615224Y-85006645D01*
X165643355Y-85034776D01*
X165680109Y-85050000D01*
X165719891Y-85050000D01*
X165756645Y-85034776D01*
X165784776Y-85006645D01*
X165800000Y-84969891D01*
X165800000Y-84949999D01*
X166053553Y-84949999D01*
X166098106Y-84994551D01*
X166098107Y-84994553D01*
X166400000Y-85296446D01*
X166746446Y-84950000D01*
X166726555Y-84930109D01*
X167000000Y-84930109D01*
X167000000Y-84969891D01*
X167015224Y-85006645D01*
X167043355Y-85034776D01*
X167080109Y-85050000D01*
X167119891Y-85050000D01*
X167156645Y-85034776D01*
X167184776Y-85006645D01*
X167200000Y-84969891D01*
X167200000Y-84950000D01*
X167453553Y-84950000D01*
X167816660Y-85313106D01*
X167816661Y-85313106D01*
X167825334Y-85299306D01*
X167825334Y-85299305D01*
X167884877Y-85129141D01*
X167884878Y-85129138D01*
X167905062Y-84950002D01*
X167905062Y-84949997D01*
X167884878Y-84770861D01*
X167825333Y-84600692D01*
X167816661Y-84586892D01*
X167816660Y-84586892D01*
X167453553Y-84950000D01*
X167200000Y-84950000D01*
X167200000Y-84930109D01*
X167184776Y-84893355D01*
X167156645Y-84865224D01*
X167119891Y-84850000D01*
X167080109Y-84850000D01*
X167043355Y-84865224D01*
X167015224Y-84893355D01*
X167000000Y-84930109D01*
X166726555Y-84930109D01*
X166465760Y-84669314D01*
X166400000Y-84603553D01*
X166334240Y-84669314D01*
X166334239Y-84669314D01*
X166053553Y-84949999D01*
X165800000Y-84949999D01*
X165800000Y-84930109D01*
X165784776Y-84893355D01*
X165756645Y-84865224D01*
X165719891Y-84850000D01*
X165680109Y-84850000D01*
X165643355Y-84865224D01*
X165615224Y-84893355D01*
X165600000Y-84930109D01*
X165326555Y-84930109D01*
X165065760Y-84669314D01*
X165000000Y-84603553D01*
X164934240Y-84669314D01*
X164934239Y-84669314D01*
X164653553Y-84949999D01*
X164400000Y-84949999D01*
X164400000Y-84930109D01*
X164384776Y-84893355D01*
X164356645Y-84865224D01*
X164319891Y-84850000D01*
X164280109Y-84850000D01*
X164243355Y-84865224D01*
X164215224Y-84893355D01*
X164200000Y-84930109D01*
X163926556Y-84930109D01*
X163583338Y-84586891D01*
X163583337Y-84586891D01*
X163574667Y-84600691D01*
X163574662Y-84600701D01*
X163515122Y-84770858D01*
X163515121Y-84770861D01*
X163494938Y-84949997D01*
X157502302Y-84949997D01*
X157431128Y-84867857D01*
X157310053Y-84790047D01*
X157310051Y-84790046D01*
X157310049Y-84790045D01*
X157310050Y-84790045D01*
X157171963Y-84749500D01*
X157171961Y-84749500D01*
X157028039Y-84749500D01*
X157028036Y-84749500D01*
X156889949Y-84790045D01*
X156768873Y-84867856D01*
X156768872Y-84867856D01*
X156768872Y-84867857D01*
X156767232Y-84869750D01*
X156674623Y-84976626D01*
X156674622Y-84976628D01*
X156614834Y-85107543D01*
X156594353Y-85250000D01*
X144900500Y-85250000D01*
X144900500Y-83130247D01*
X146649500Y-83130247D01*
X146649500Y-84869752D01*
X146661131Y-84928229D01*
X146661132Y-84928230D01*
X146705447Y-84994552D01*
X146771769Y-85038867D01*
X146771770Y-85038868D01*
X146830247Y-85050499D01*
X146830250Y-85050500D01*
X146830252Y-85050500D01*
X148569750Y-85050500D01*
X148569751Y-85050499D01*
X148584568Y-85047552D01*
X148628229Y-85038868D01*
X148628229Y-85038867D01*
X148628231Y-85038867D01*
X148694552Y-84994552D01*
X148738867Y-84928231D01*
X148738867Y-84928229D01*
X148738868Y-84928229D01*
X148750499Y-84869752D01*
X148750500Y-84869750D01*
X148750500Y-84233337D01*
X163936891Y-84233337D01*
X163936891Y-84233338D01*
X164299998Y-84596446D01*
X164299999Y-84596446D01*
X164575868Y-84320577D01*
X164646446Y-84249998D01*
X164626557Y-84230109D01*
X164900000Y-84230109D01*
X164900000Y-84269891D01*
X164915224Y-84306645D01*
X164943355Y-84334776D01*
X164980109Y-84350000D01*
X165019891Y-84350000D01*
X165056645Y-84334776D01*
X165084776Y-84306645D01*
X165100000Y-84269891D01*
X165100000Y-84249998D01*
X165353553Y-84249998D01*
X165353553Y-84249999D01*
X165700000Y-84596446D01*
X165975870Y-84320577D01*
X166046446Y-84249999D01*
X166046446Y-84249998D01*
X166026557Y-84230109D01*
X166300000Y-84230109D01*
X166300000Y-84269891D01*
X166315224Y-84306645D01*
X166343355Y-84334776D01*
X166380109Y-84350000D01*
X166419891Y-84350000D01*
X166456645Y-84334776D01*
X166484776Y-84306645D01*
X166500000Y-84269891D01*
X166500000Y-84249998D01*
X166753553Y-84249998D01*
X166753553Y-84249999D01*
X167100000Y-84596446D01*
X167100001Y-84596446D01*
X167463107Y-84233338D01*
X167449301Y-84224663D01*
X167279142Y-84165121D01*
X167278346Y-84164940D01*
X167277883Y-84164681D01*
X167272570Y-84162822D01*
X167272895Y-84161890D01*
X167217370Y-84130827D01*
X167188049Y-84077125D01*
X167187177Y-84077431D01*
X167185321Y-84072128D01*
X167185057Y-84071644D01*
X167184878Y-84070862D01*
X167125333Y-83900692D01*
X167116661Y-83886892D01*
X167116660Y-83886892D01*
X166753553Y-84249998D01*
X166500000Y-84249998D01*
X166500000Y-84230109D01*
X166484776Y-84193355D01*
X166456645Y-84165224D01*
X166419891Y-84150000D01*
X166380109Y-84150000D01*
X166343355Y-84165224D01*
X166315224Y-84193355D01*
X166300000Y-84230109D01*
X166026557Y-84230109D01*
X165700001Y-83903553D01*
X165700000Y-83903553D01*
X165353553Y-84249998D01*
X165100000Y-84249998D01*
X165100000Y-84230109D01*
X165084776Y-84193355D01*
X165056645Y-84165224D01*
X165019891Y-84150000D01*
X164980109Y-84150000D01*
X164943355Y-84165224D01*
X164915224Y-84193355D01*
X164900000Y-84230109D01*
X164626557Y-84230109D01*
X164283338Y-83886891D01*
X164283337Y-83886891D01*
X164274667Y-83900691D01*
X164274662Y-83900701D01*
X164215119Y-84070866D01*
X164214939Y-84071656D01*
X164214682Y-84072113D01*
X164212823Y-84077429D01*
X164211891Y-84077103D01*
X164180824Y-84132631D01*
X164127124Y-84161952D01*
X164127429Y-84162823D01*
X164122145Y-84164671D01*
X164121656Y-84164939D01*
X164120866Y-84165119D01*
X163950701Y-84224662D01*
X163950691Y-84224667D01*
X163936891Y-84233337D01*
X148750500Y-84233337D01*
X148750500Y-83533337D01*
X164636891Y-83533337D01*
X164636891Y-83533338D01*
X165000000Y-83896446D01*
X165000001Y-83896446D01*
X165363107Y-83533338D01*
X165363105Y-83533337D01*
X166036891Y-83533337D01*
X166036891Y-83533338D01*
X166400000Y-83896446D01*
X166400001Y-83896446D01*
X166763107Y-83533338D01*
X166749304Y-83524665D01*
X166579138Y-83465121D01*
X166400003Y-83444938D01*
X166399997Y-83444938D01*
X166220861Y-83465121D01*
X166220858Y-83465122D01*
X166050701Y-83524662D01*
X166050691Y-83524667D01*
X166036891Y-83533337D01*
X165363105Y-83533337D01*
X165349304Y-83524665D01*
X165179138Y-83465121D01*
X165000003Y-83444938D01*
X164999997Y-83444938D01*
X164820861Y-83465121D01*
X164820858Y-83465122D01*
X164650701Y-83524662D01*
X164650691Y-83524667D01*
X164636891Y-83533337D01*
X148750500Y-83533337D01*
X148750500Y-83130249D01*
X148750499Y-83130247D01*
X148738868Y-83071770D01*
X148738867Y-83071769D01*
X148694552Y-83005447D01*
X148628230Y-82961132D01*
X148628229Y-82961131D01*
X148569752Y-82949500D01*
X148569748Y-82949500D01*
X146830252Y-82949500D01*
X146830247Y-82949500D01*
X146771770Y-82961131D01*
X146771769Y-82961132D01*
X146705447Y-83005447D01*
X146661132Y-83071769D01*
X146661131Y-83071770D01*
X146649500Y-83130247D01*
X144900500Y-83130247D01*
X144900500Y-82450000D01*
X153144353Y-82450000D01*
X153164834Y-82592456D01*
X153200257Y-82670020D01*
X153224623Y-82723373D01*
X153318872Y-82832143D01*
X153439947Y-82909953D01*
X153439950Y-82909954D01*
X153439949Y-82909954D01*
X153547107Y-82941417D01*
X153574633Y-82949500D01*
X153578036Y-82950499D01*
X153578038Y-82950500D01*
X153578039Y-82950500D01*
X153721962Y-82950500D01*
X153721962Y-82950499D01*
X153860053Y-82909953D01*
X153981128Y-82832143D01*
X154075377Y-82723373D01*
X154086051Y-82700000D01*
X156894353Y-82700000D01*
X156914834Y-82842456D01*
X156945660Y-82909954D01*
X156974623Y-82973373D01*
X157068872Y-83082143D01*
X157189947Y-83159953D01*
X157189950Y-83159954D01*
X157189949Y-83159954D01*
X157328036Y-83200499D01*
X157328038Y-83200500D01*
X157328039Y-83200500D01*
X157471962Y-83200500D01*
X157471962Y-83200499D01*
X157610053Y-83159953D01*
X157731128Y-83082143D01*
X157753319Y-83056533D01*
X177244499Y-83056533D01*
X177270458Y-83187030D01*
X177270461Y-83187040D01*
X177321376Y-83309961D01*
X177321386Y-83309979D01*
X177395301Y-83420601D01*
X177395307Y-83420609D01*
X177489390Y-83514692D01*
X177489398Y-83514698D01*
X177600020Y-83588613D01*
X177600023Y-83588614D01*
X177600031Y-83588620D01*
X177722964Y-83639540D01*
X177722968Y-83639540D01*
X177722969Y-83639541D01*
X177853466Y-83665500D01*
X177853469Y-83665500D01*
X177986533Y-83665500D01*
X178074325Y-83648035D01*
X178117036Y-83639540D01*
X178239969Y-83588620D01*
X178350606Y-83514695D01*
X178444695Y-83420606D01*
X178518620Y-83309969D01*
X178569540Y-83187036D01*
X178578035Y-83144325D01*
X178595500Y-83056533D01*
X178595500Y-82923466D01*
X178569541Y-82792969D01*
X178569540Y-82792968D01*
X178569540Y-82792964D01*
X178540714Y-82723371D01*
X178518623Y-82670038D01*
X178518622Y-82670037D01*
X178518620Y-82670031D01*
X178466786Y-82592456D01*
X178444698Y-82559398D01*
X178444692Y-82559390D01*
X178350609Y-82465307D01*
X178350601Y-82465301D01*
X178239979Y-82391386D01*
X178239972Y-82391382D01*
X178239969Y-82391380D01*
X178239965Y-82391378D01*
X178239961Y-82391376D01*
X178117040Y-82340461D01*
X178117030Y-82340458D01*
X177986533Y-82314500D01*
X177986531Y-82314500D01*
X177853469Y-82314500D01*
X177853467Y-82314500D01*
X177722969Y-82340458D01*
X177722959Y-82340461D01*
X177600038Y-82391376D01*
X177600020Y-82391386D01*
X177489398Y-82465301D01*
X177489390Y-82465307D01*
X177395307Y-82559390D01*
X177395301Y-82559398D01*
X177321386Y-82670020D01*
X177321376Y-82670038D01*
X177270461Y-82792959D01*
X177270458Y-82792969D01*
X177244500Y-82923466D01*
X177244500Y-82923469D01*
X177244500Y-83056531D01*
X177244500Y-83056533D01*
X177244499Y-83056533D01*
X157753319Y-83056533D01*
X157825377Y-82973373D01*
X157885165Y-82842457D01*
X157905647Y-82700000D01*
X157885165Y-82557543D01*
X157825377Y-82426627D01*
X157731128Y-82317857D01*
X157610053Y-82240047D01*
X157610051Y-82240046D01*
X157610049Y-82240045D01*
X157610050Y-82240045D01*
X157471963Y-82199500D01*
X157471961Y-82199500D01*
X157328039Y-82199500D01*
X157328036Y-82199500D01*
X157189949Y-82240045D01*
X157068873Y-82317856D01*
X156974623Y-82426626D01*
X156974622Y-82426628D01*
X156914834Y-82557543D01*
X156894353Y-82700000D01*
X154086051Y-82700000D01*
X154135165Y-82592457D01*
X154155647Y-82450000D01*
X154135165Y-82307543D01*
X154075377Y-82176627D01*
X153981128Y-82067857D01*
X153860053Y-81990047D01*
X153860051Y-81990046D01*
X153860049Y-81990045D01*
X153860050Y-81990045D01*
X153721963Y-81949500D01*
X153721961Y-81949500D01*
X153578039Y-81949500D01*
X153578036Y-81949500D01*
X153439949Y-81990045D01*
X153318873Y-82067856D01*
X153224623Y-82176626D01*
X153224622Y-82176628D01*
X153164834Y-82307543D01*
X153144353Y-82450000D01*
X144900500Y-82450000D01*
X144900500Y-81150000D01*
X153194353Y-81150000D01*
X153214834Y-81292456D01*
X153241114Y-81350000D01*
X153274623Y-81423373D01*
X153368872Y-81532143D01*
X153489947Y-81609953D01*
X153489950Y-81609954D01*
X153489949Y-81609954D01*
X153628036Y-81650499D01*
X153628038Y-81650500D01*
X153628039Y-81650500D01*
X153771962Y-81650500D01*
X153771962Y-81650499D01*
X153910053Y-81609953D01*
X153925540Y-81600000D01*
X173194353Y-81600000D01*
X173214834Y-81742456D01*
X173245660Y-81809954D01*
X173274623Y-81873373D01*
X173368872Y-81982143D01*
X173489947Y-82059953D01*
X173489950Y-82059954D01*
X173489949Y-82059954D01*
X173628036Y-82100499D01*
X173628038Y-82100500D01*
X173628039Y-82100500D01*
X173771962Y-82100500D01*
X173771962Y-82100499D01*
X173910053Y-82059953D01*
X174031128Y-81982143D01*
X174125377Y-81873373D01*
X174185165Y-81742457D01*
X174205647Y-81600000D01*
X174185165Y-81457543D01*
X174136051Y-81350000D01*
X178044353Y-81350000D01*
X178064834Y-81492456D01*
X178082959Y-81532143D01*
X178124623Y-81623373D01*
X178218872Y-81732143D01*
X178339947Y-81809953D01*
X178339950Y-81809954D01*
X178339949Y-81809954D01*
X178478036Y-81850499D01*
X178478038Y-81850500D01*
X178478039Y-81850500D01*
X178621962Y-81850500D01*
X178621962Y-81850499D01*
X178760053Y-81809953D01*
X178881128Y-81732143D01*
X178975377Y-81623373D01*
X179035165Y-81492457D01*
X179055647Y-81350000D01*
X179035165Y-81207543D01*
X178975377Y-81076627D01*
X178881128Y-80967857D01*
X178760053Y-80890047D01*
X178760051Y-80890046D01*
X178760049Y-80890045D01*
X178760050Y-80890045D01*
X178621963Y-80849500D01*
X178621961Y-80849500D01*
X178478039Y-80849500D01*
X178478036Y-80849500D01*
X178339949Y-80890045D01*
X178218873Y-80967856D01*
X178124623Y-81076626D01*
X178124622Y-81076628D01*
X178064834Y-81207543D01*
X178044353Y-81350000D01*
X174136051Y-81350000D01*
X174125377Y-81326627D01*
X174031128Y-81217857D01*
X173910053Y-81140047D01*
X173910051Y-81140046D01*
X173910049Y-81140045D01*
X173910050Y-81140045D01*
X173771963Y-81099500D01*
X173771961Y-81099500D01*
X173628039Y-81099500D01*
X173628036Y-81099500D01*
X173489949Y-81140045D01*
X173368873Y-81217856D01*
X173274623Y-81326626D01*
X173274622Y-81326628D01*
X173214834Y-81457543D01*
X173194353Y-81600000D01*
X153925540Y-81600000D01*
X154031128Y-81532143D01*
X154125377Y-81423373D01*
X154185165Y-81292457D01*
X154205647Y-81150000D01*
X154185165Y-81007543D01*
X154125377Y-80876627D01*
X154031128Y-80767857D01*
X153910053Y-80690047D01*
X153910051Y-80690046D01*
X153910049Y-80690045D01*
X153910050Y-80690045D01*
X153771963Y-80649500D01*
X153771961Y-80649500D01*
X153628039Y-80649500D01*
X153628036Y-80649500D01*
X153489949Y-80690045D01*
X153368873Y-80767856D01*
X153274623Y-80876626D01*
X153274622Y-80876628D01*
X153214834Y-81007543D01*
X153194353Y-81150000D01*
X144900500Y-81150000D01*
X144900500Y-79400000D01*
X149144353Y-79400000D01*
X149164834Y-79542456D01*
X149203275Y-79626628D01*
X149224623Y-79673373D01*
X149318872Y-79782143D01*
X149439947Y-79859953D01*
X149439950Y-79859954D01*
X149439949Y-79859954D01*
X149547107Y-79891417D01*
X149576336Y-79900000D01*
X149578036Y-79900499D01*
X149578038Y-79900500D01*
X149578039Y-79900500D01*
X149721962Y-79900500D01*
X149721962Y-79900499D01*
X149723661Y-79900000D01*
X161494353Y-79900000D01*
X161514834Y-80042456D01*
X161574622Y-80173371D01*
X161574623Y-80173373D01*
X161668872Y-80282143D01*
X161789947Y-80359953D01*
X161789950Y-80359954D01*
X161789949Y-80359954D01*
X161928036Y-80400499D01*
X161928038Y-80400500D01*
X161928039Y-80400500D01*
X162071962Y-80400500D01*
X162071962Y-80400499D01*
X162210053Y-80359953D01*
X162331128Y-80282143D01*
X162425377Y-80173373D01*
X162485165Y-80042457D01*
X162505647Y-79900000D01*
X162498458Y-79850000D01*
X170394353Y-79850000D01*
X170414834Y-79992456D01*
X170437669Y-80042456D01*
X170474623Y-80123373D01*
X170568872Y-80232143D01*
X170689947Y-80309953D01*
X170689950Y-80309954D01*
X170689949Y-80309954D01*
X170828036Y-80350499D01*
X170828038Y-80350500D01*
X170828039Y-80350500D01*
X170971962Y-80350500D01*
X170971962Y-80350499D01*
X171110053Y-80309953D01*
X171231128Y-80232143D01*
X171258980Y-80200000D01*
X173194353Y-80200000D01*
X173214834Y-80342456D01*
X173274622Y-80473371D01*
X173274623Y-80473373D01*
X173368872Y-80582143D01*
X173489947Y-80659953D01*
X173489950Y-80659954D01*
X173489949Y-80659954D01*
X173628036Y-80700499D01*
X173628038Y-80700500D01*
X173628039Y-80700500D01*
X173771962Y-80700500D01*
X173771962Y-80700499D01*
X173910053Y-80659953D01*
X174031128Y-80582143D01*
X174125377Y-80473373D01*
X174185165Y-80342457D01*
X174205647Y-80200000D01*
X174185165Y-80057543D01*
X174125377Y-79926627D01*
X174031128Y-79817857D01*
X173910053Y-79740047D01*
X173910051Y-79740046D01*
X173910049Y-79740045D01*
X173910050Y-79740045D01*
X173771963Y-79699500D01*
X173771961Y-79699500D01*
X173628039Y-79699500D01*
X173628036Y-79699500D01*
X173489949Y-79740045D01*
X173368873Y-79817856D01*
X173274623Y-79926626D01*
X173274622Y-79926628D01*
X173214834Y-80057543D01*
X173194353Y-80200000D01*
X171258980Y-80200000D01*
X171325377Y-80123373D01*
X171385165Y-79992457D01*
X171405647Y-79850000D01*
X171385165Y-79707543D01*
X171325377Y-79576627D01*
X171231128Y-79467857D01*
X171110053Y-79390047D01*
X171110051Y-79390046D01*
X171110049Y-79390045D01*
X171110050Y-79390045D01*
X170971963Y-79349500D01*
X170971961Y-79349500D01*
X170828039Y-79349500D01*
X170828036Y-79349500D01*
X170689949Y-79390045D01*
X170568873Y-79467856D01*
X170474623Y-79576626D01*
X170474622Y-79576628D01*
X170414834Y-79707543D01*
X170394353Y-79850000D01*
X162498458Y-79850000D01*
X162485165Y-79757543D01*
X162425377Y-79626627D01*
X162331128Y-79517857D01*
X162210053Y-79440047D01*
X162210051Y-79440046D01*
X162210049Y-79440045D01*
X162210050Y-79440045D01*
X162071963Y-79399500D01*
X162071961Y-79399500D01*
X161928039Y-79399500D01*
X161928036Y-79399500D01*
X161789949Y-79440045D01*
X161668873Y-79517856D01*
X161574623Y-79626626D01*
X161574622Y-79626628D01*
X161514834Y-79757543D01*
X161494353Y-79900000D01*
X149723661Y-79900000D01*
X149860053Y-79859953D01*
X149981128Y-79782143D01*
X150075377Y-79673373D01*
X150135165Y-79542457D01*
X150155647Y-79400000D01*
X150135165Y-79257543D01*
X150075377Y-79126627D01*
X149981128Y-79017857D01*
X149875540Y-78950000D01*
X153744353Y-78950000D01*
X153764834Y-79092456D01*
X153824622Y-79223371D01*
X153824623Y-79223373D01*
X153918872Y-79332143D01*
X154039947Y-79409953D01*
X154039950Y-79409954D01*
X154039949Y-79409954D01*
X154178036Y-79450499D01*
X154178038Y-79450500D01*
X154178039Y-79450500D01*
X154321962Y-79450500D01*
X154321962Y-79450499D01*
X154460053Y-79409953D01*
X154581128Y-79332143D01*
X154675377Y-79223373D01*
X154735165Y-79092457D01*
X154755647Y-78950000D01*
X154735165Y-78807543D01*
X154675377Y-78676627D01*
X154581128Y-78567857D01*
X154460053Y-78490047D01*
X154460051Y-78490046D01*
X154460049Y-78490045D01*
X154460050Y-78490045D01*
X154321963Y-78449500D01*
X154321961Y-78449500D01*
X154178039Y-78449500D01*
X154178036Y-78449500D01*
X154039949Y-78490045D01*
X153918873Y-78567856D01*
X153824623Y-78676626D01*
X153824622Y-78676628D01*
X153764834Y-78807543D01*
X153744353Y-78950000D01*
X149875540Y-78950000D01*
X149860053Y-78940047D01*
X149860051Y-78940046D01*
X149860049Y-78940045D01*
X149860050Y-78940045D01*
X149721963Y-78899500D01*
X149721961Y-78899500D01*
X149578039Y-78899500D01*
X149578036Y-78899500D01*
X149439949Y-78940045D01*
X149318873Y-79017856D01*
X149224623Y-79126626D01*
X149224622Y-79126628D01*
X149164834Y-79257543D01*
X149144353Y-79400000D01*
X144900500Y-79400000D01*
X144900500Y-77400000D01*
X147394353Y-77400000D01*
X147414834Y-77542456D01*
X147462311Y-77646414D01*
X147474623Y-77673373D01*
X147568872Y-77782143D01*
X147689947Y-77859953D01*
X147689950Y-77859954D01*
X147689949Y-77859954D01*
X147828036Y-77900499D01*
X147828038Y-77900500D01*
X147916441Y-77900500D01*
X147983480Y-77920185D01*
X148029235Y-77972989D01*
X148039179Y-78042147D01*
X148029235Y-78076011D01*
X148028954Y-78076627D01*
X148014834Y-78107543D01*
X147994353Y-78250000D01*
X148014834Y-78392456D01*
X148060504Y-78492457D01*
X148074623Y-78523373D01*
X148168872Y-78632143D01*
X148289947Y-78709953D01*
X148289950Y-78709954D01*
X148289949Y-78709954D01*
X148428036Y-78750499D01*
X148428038Y-78750500D01*
X148428039Y-78750500D01*
X148571962Y-78750500D01*
X148571962Y-78750499D01*
X148710053Y-78709953D01*
X148831128Y-78632143D01*
X148925377Y-78523373D01*
X148985165Y-78392457D01*
X149005647Y-78250000D01*
X148985165Y-78107543D01*
X148925377Y-77976627D01*
X148831128Y-77867857D01*
X148710053Y-77790047D01*
X148710051Y-77790046D01*
X148710049Y-77790045D01*
X148710050Y-77790045D01*
X148571963Y-77749500D01*
X148571961Y-77749500D01*
X148483559Y-77749500D01*
X148416520Y-77729815D01*
X148370765Y-77677011D01*
X148360821Y-77607853D01*
X148370765Y-77573988D01*
X148385165Y-77542456D01*
X148386960Y-77529969D01*
X148405647Y-77400000D01*
X148387895Y-77276533D01*
X177244499Y-77276533D01*
X177270458Y-77407030D01*
X177270461Y-77407040D01*
X177321376Y-77529961D01*
X177321386Y-77529979D01*
X177395301Y-77640601D01*
X177395307Y-77640609D01*
X177489390Y-77734692D01*
X177489398Y-77734698D01*
X177600020Y-77808613D01*
X177600023Y-77808614D01*
X177600031Y-77808620D01*
X177600037Y-77808622D01*
X177600038Y-77808623D01*
X177698725Y-77849500D01*
X177722964Y-77859540D01*
X177722968Y-77859540D01*
X177722969Y-77859541D01*
X177853466Y-77885500D01*
X177920364Y-77885500D01*
X177987403Y-77905185D01*
X178033158Y-77957989D01*
X178043102Y-78027147D01*
X178027749Y-78068305D01*
X178028307Y-78068560D01*
X178024748Y-78076351D01*
X178024678Y-78076541D01*
X178024623Y-78076626D01*
X177964834Y-78207543D01*
X177944353Y-78350000D01*
X177964834Y-78492456D01*
X177978953Y-78523371D01*
X178024623Y-78623373D01*
X178118872Y-78732143D01*
X178239947Y-78809953D01*
X178239950Y-78809954D01*
X178239949Y-78809954D01*
X178378036Y-78850499D01*
X178378038Y-78850500D01*
X178378039Y-78850500D01*
X178521962Y-78850500D01*
X178521962Y-78850499D01*
X178660053Y-78809953D01*
X178781128Y-78732143D01*
X178875377Y-78623373D01*
X178935165Y-78492457D01*
X178955647Y-78350000D01*
X178935165Y-78207543D01*
X178875377Y-78076627D01*
X178781128Y-77967857D01*
X178660053Y-77890047D01*
X178660051Y-77890046D01*
X178660049Y-77890045D01*
X178660050Y-77890045D01*
X178521959Y-77849499D01*
X178516967Y-77848781D01*
X178453412Y-77819753D01*
X178415640Y-77760974D01*
X178415643Y-77691104D01*
X178442167Y-77646414D01*
X178440830Y-77645316D01*
X178444688Y-77640612D01*
X178444695Y-77640606D01*
X178518620Y-77529969D01*
X178569540Y-77407036D01*
X178595500Y-77276531D01*
X178595500Y-77143469D01*
X178595500Y-77143466D01*
X178569541Y-77012969D01*
X178569540Y-77012968D01*
X178569540Y-77012964D01*
X178518620Y-76890031D01*
X178444695Y-76779394D01*
X178444692Y-76779390D01*
X178350609Y-76685307D01*
X178350601Y-76685301D01*
X178239979Y-76611386D01*
X178239972Y-76611382D01*
X178239969Y-76611380D01*
X178239965Y-76611378D01*
X178239961Y-76611376D01*
X178117040Y-76560461D01*
X178117030Y-76560458D01*
X177986533Y-76534500D01*
X177986531Y-76534500D01*
X177853469Y-76534500D01*
X177853467Y-76534500D01*
X177722969Y-76560458D01*
X177722959Y-76560461D01*
X177600038Y-76611376D01*
X177600020Y-76611386D01*
X177489398Y-76685301D01*
X177489390Y-76685307D01*
X177395307Y-76779390D01*
X177395301Y-76779398D01*
X177321386Y-76890020D01*
X177321376Y-76890038D01*
X177270461Y-77012959D01*
X177270458Y-77012969D01*
X177244500Y-77143466D01*
X177244500Y-77143469D01*
X177244500Y-77276531D01*
X177244500Y-77276533D01*
X177244499Y-77276533D01*
X148387895Y-77276533D01*
X148385165Y-77257543D01*
X148325377Y-77126627D01*
X148231128Y-77017857D01*
X148110053Y-76940047D01*
X148110051Y-76940046D01*
X148110049Y-76940045D01*
X148110050Y-76940045D01*
X147971963Y-76899500D01*
X147971961Y-76899500D01*
X147828039Y-76899500D01*
X147828036Y-76899500D01*
X147689949Y-76940045D01*
X147568873Y-77017856D01*
X147474623Y-77126626D01*
X147474622Y-77126628D01*
X147414834Y-77257543D01*
X147394353Y-77400000D01*
X144900500Y-77400000D01*
X144900500Y-76100000D01*
X171644353Y-76100000D01*
X171664834Y-76242456D01*
X171724622Y-76373371D01*
X171724623Y-76373373D01*
X171818872Y-76482143D01*
X171939947Y-76559953D01*
X171939950Y-76559954D01*
X171939949Y-76559954D01*
X172078036Y-76600499D01*
X172078038Y-76600500D01*
X172078039Y-76600500D01*
X172221962Y-76600500D01*
X172221962Y-76600499D01*
X172358323Y-76560461D01*
X172360050Y-76559954D01*
X172360050Y-76559953D01*
X172360053Y-76559953D01*
X172481128Y-76482143D01*
X172575377Y-76373373D01*
X172635165Y-76242457D01*
X172655647Y-76100000D01*
X172635165Y-75957543D01*
X172575377Y-75826627D01*
X172481128Y-75717857D01*
X172360053Y-75640047D01*
X172360051Y-75640046D01*
X172360049Y-75640045D01*
X172360050Y-75640045D01*
X172221963Y-75599500D01*
X172221961Y-75599500D01*
X172078039Y-75599500D01*
X172078036Y-75599500D01*
X171939949Y-75640045D01*
X171818873Y-75717856D01*
X171724623Y-75826626D01*
X171724622Y-75826628D01*
X171664834Y-75957543D01*
X171644353Y-76100000D01*
X144900500Y-76100000D01*
X144900500Y-75400000D01*
X147344353Y-75400000D01*
X147364834Y-75542456D01*
X147390886Y-75599500D01*
X147424623Y-75673373D01*
X147518872Y-75782143D01*
X147639947Y-75859953D01*
X147639950Y-75859954D01*
X147639949Y-75859954D01*
X147778036Y-75900499D01*
X147778038Y-75900500D01*
X147778039Y-75900500D01*
X147921962Y-75900500D01*
X147921962Y-75900499D01*
X148060053Y-75859953D01*
X148181128Y-75782143D01*
X148275377Y-75673373D01*
X148335165Y-75542457D01*
X148355647Y-75400000D01*
X148335165Y-75257543D01*
X148275377Y-75126627D01*
X148181128Y-75017857D01*
X148060053Y-74940047D01*
X148060051Y-74940046D01*
X148060049Y-74940045D01*
X148060050Y-74940045D01*
X147921963Y-74899500D01*
X147921961Y-74899500D01*
X147778039Y-74899500D01*
X147778036Y-74899500D01*
X147639949Y-74940045D01*
X147518873Y-75017856D01*
X147424623Y-75126626D01*
X147424622Y-75126628D01*
X147364834Y-75257543D01*
X147344353Y-75400000D01*
X144900500Y-75400000D01*
X144900500Y-72400000D01*
X147444353Y-72400000D01*
X147464834Y-72542456D01*
X147524622Y-72673371D01*
X147524623Y-72673373D01*
X147618872Y-72782143D01*
X147739947Y-72859953D01*
X147739950Y-72859954D01*
X147739949Y-72859954D01*
X147878036Y-72900499D01*
X147878038Y-72900500D01*
X147878039Y-72900500D01*
X148021962Y-72900500D01*
X148021962Y-72900499D01*
X148160053Y-72859953D01*
X148281128Y-72782143D01*
X148375377Y-72673373D01*
X148435165Y-72542457D01*
X148455647Y-72400000D01*
X148435165Y-72257543D01*
X148375377Y-72126627D01*
X148281128Y-72017857D01*
X148160053Y-71940047D01*
X148160051Y-71940046D01*
X148160049Y-71940045D01*
X148160050Y-71940045D01*
X148021963Y-71899500D01*
X148021961Y-71899500D01*
X147878039Y-71899500D01*
X147878036Y-71899500D01*
X147739949Y-71940045D01*
X147618873Y-72017856D01*
X147524623Y-72126626D01*
X147524622Y-72126628D01*
X147464834Y-72257543D01*
X147444353Y-72400000D01*
X144900500Y-72400000D01*
X144900500Y-71066228D01*
X173499500Y-71066228D01*
X173499500Y-71233771D01*
X173532182Y-71398074D01*
X173532184Y-71398082D01*
X173596295Y-71552860D01*
X173689373Y-71692162D01*
X173807837Y-71810626D01*
X173900494Y-71872537D01*
X173947137Y-71903703D01*
X174101918Y-71967816D01*
X174266228Y-72000499D01*
X174266232Y-72000500D01*
X174266233Y-72000500D01*
X174433768Y-72000500D01*
X174433769Y-72000499D01*
X174598082Y-71967816D01*
X174752863Y-71903703D01*
X174892162Y-71810626D01*
X175010626Y-71692162D01*
X175103703Y-71552863D01*
X175167816Y-71398082D01*
X175200500Y-71233767D01*
X175200500Y-71066233D01*
X175167816Y-70901918D01*
X175103703Y-70747137D01*
X175072537Y-70700494D01*
X175010626Y-70607837D01*
X174892162Y-70489373D01*
X174752860Y-70396295D01*
X174598082Y-70332184D01*
X174598074Y-70332182D01*
X174433771Y-70299500D01*
X174433767Y-70299500D01*
X174266233Y-70299500D01*
X174266228Y-70299500D01*
X174101925Y-70332182D01*
X174101917Y-70332184D01*
X173947139Y-70396295D01*
X173807837Y-70489373D01*
X173689373Y-70607837D01*
X173596295Y-70747139D01*
X173532184Y-70901917D01*
X173532182Y-70901925D01*
X173499500Y-71066228D01*
X144900500Y-71066228D01*
X144900500Y-67500000D01*
X150844353Y-67500000D01*
X150864834Y-67642456D01*
X150924622Y-67773371D01*
X150924623Y-67773373D01*
X151018872Y-67882143D01*
X151139947Y-67959953D01*
X151139950Y-67959954D01*
X151139949Y-67959954D01*
X151278036Y-68000499D01*
X151278038Y-68000500D01*
X151278039Y-68000500D01*
X151421962Y-68000500D01*
X151421962Y-68000499D01*
X151560053Y-67959953D01*
X151681128Y-67882143D01*
X151775377Y-67773373D01*
X151835165Y-67642457D01*
X151855647Y-67500000D01*
X151835165Y-67357543D01*
X151775377Y-67226627D01*
X151752305Y-67200000D01*
X161094353Y-67200000D01*
X161114834Y-67342456D01*
X161174622Y-67473371D01*
X161174623Y-67473373D01*
X161268872Y-67582143D01*
X161389947Y-67659953D01*
X161389950Y-67659954D01*
X161389949Y-67659954D01*
X161528036Y-67700499D01*
X161528038Y-67700500D01*
X161528039Y-67700500D01*
X161671962Y-67700500D01*
X161671962Y-67700499D01*
X161810053Y-67659953D01*
X161931128Y-67582143D01*
X162025377Y-67473373D01*
X162085165Y-67342457D01*
X162105647Y-67200000D01*
X162085165Y-67057543D01*
X162025377Y-66926627D01*
X161931128Y-66817857D01*
X161810053Y-66740047D01*
X161810051Y-66740046D01*
X161810049Y-66740045D01*
X161810050Y-66740045D01*
X161671963Y-66699500D01*
X161671961Y-66699500D01*
X161528039Y-66699500D01*
X161528036Y-66699500D01*
X161389949Y-66740045D01*
X161268873Y-66817856D01*
X161174623Y-66926626D01*
X161174622Y-66926628D01*
X161114834Y-67057543D01*
X161094353Y-67200000D01*
X151752305Y-67200000D01*
X151681128Y-67117857D01*
X151560053Y-67040047D01*
X151560051Y-67040046D01*
X151560049Y-67040045D01*
X151560050Y-67040045D01*
X151421963Y-66999500D01*
X151421961Y-66999500D01*
X151278039Y-66999500D01*
X151278036Y-66999500D01*
X151139949Y-67040045D01*
X151018873Y-67117856D01*
X150924623Y-67226626D01*
X150924622Y-67226628D01*
X150864834Y-67357543D01*
X150844353Y-67500000D01*
X144900500Y-67500000D01*
X144900500Y-66500000D01*
X149844353Y-66500000D01*
X149864834Y-66642456D01*
X149890886Y-66699500D01*
X149924623Y-66773373D01*
X150018872Y-66882143D01*
X150139947Y-66959953D01*
X150139950Y-66959954D01*
X150139949Y-66959954D01*
X150247107Y-66991417D01*
X150274633Y-66999500D01*
X150278036Y-67000499D01*
X150278038Y-67000500D01*
X150278039Y-67000500D01*
X150421962Y-67000500D01*
X150421962Y-67000499D01*
X150560053Y-66959953D01*
X150681128Y-66882143D01*
X150775377Y-66773373D01*
X150835165Y-66642457D01*
X150855647Y-66500000D01*
X150835165Y-66357543D01*
X150775377Y-66226627D01*
X150681128Y-66117857D01*
X150560053Y-66040047D01*
X150560051Y-66040046D01*
X150560049Y-66040045D01*
X150560050Y-66040045D01*
X150421963Y-65999500D01*
X150421961Y-65999500D01*
X150278039Y-65999500D01*
X150278036Y-65999500D01*
X150139949Y-66040045D01*
X150018873Y-66117856D01*
X149924623Y-66226626D01*
X149924622Y-66226628D01*
X149864834Y-66357543D01*
X149844353Y-66500000D01*
X144900500Y-66500000D01*
X144900500Y-65500000D01*
X148894353Y-65500000D01*
X148914834Y-65642456D01*
X148974622Y-65773371D01*
X148974623Y-65773373D01*
X149068872Y-65882143D01*
X149189947Y-65959953D01*
X149189950Y-65959954D01*
X149189949Y-65959954D01*
X149297107Y-65991417D01*
X149324633Y-65999500D01*
X149328036Y-66000499D01*
X149328038Y-66000500D01*
X149328039Y-66000500D01*
X149471962Y-66000500D01*
X149471962Y-66000499D01*
X149610053Y-65959953D01*
X149731128Y-65882143D01*
X149825377Y-65773373D01*
X149885165Y-65642457D01*
X149905647Y-65500000D01*
X149885165Y-65357543D01*
X149825377Y-65226627D01*
X149731128Y-65117857D01*
X149610053Y-65040047D01*
X149610051Y-65040046D01*
X149610049Y-65040045D01*
X149610050Y-65040045D01*
X149471963Y-64999500D01*
X149471961Y-64999500D01*
X149328039Y-64999500D01*
X149328036Y-64999500D01*
X149189949Y-65040045D01*
X149068873Y-65117856D01*
X148974623Y-65226626D01*
X148974622Y-65226628D01*
X148914834Y-65357543D01*
X148894353Y-65500000D01*
X144900500Y-65500000D01*
X144900500Y-64500000D01*
X150694353Y-64500000D01*
X150714834Y-64642456D01*
X150774622Y-64773371D01*
X150774623Y-64773373D01*
X150868872Y-64882143D01*
X150989947Y-64959953D01*
X150989950Y-64959954D01*
X150989949Y-64959954D01*
X151097107Y-64991417D01*
X151124633Y-64999500D01*
X151128036Y-65000499D01*
X151128038Y-65000500D01*
X151128039Y-65000500D01*
X151271962Y-65000500D01*
X151271962Y-65000499D01*
X151410053Y-64959953D01*
X151531128Y-64882143D01*
X151625377Y-64773373D01*
X151685165Y-64642457D01*
X151705647Y-64500000D01*
X151685165Y-64357543D01*
X151625377Y-64226627D01*
X151531128Y-64117857D01*
X151410053Y-64040047D01*
X151410051Y-64040046D01*
X151410049Y-64040045D01*
X151410050Y-64040045D01*
X151271963Y-63999500D01*
X151271961Y-63999500D01*
X151128039Y-63999500D01*
X151128036Y-63999500D01*
X150989949Y-64040045D01*
X150868873Y-64117856D01*
X150774623Y-64226626D01*
X150774622Y-64226628D01*
X150714834Y-64357543D01*
X150694353Y-64500000D01*
X144900500Y-64500000D01*
X144900500Y-63500000D01*
X147394353Y-63500000D01*
X147414834Y-63642456D01*
X147474622Y-63773371D01*
X147474623Y-63773373D01*
X147568872Y-63882143D01*
X147689947Y-63959953D01*
X147689950Y-63959954D01*
X147689949Y-63959954D01*
X147797107Y-63991417D01*
X147824633Y-63999500D01*
X147828036Y-64000499D01*
X147828038Y-64000500D01*
X147828039Y-64000500D01*
X147971962Y-64000500D01*
X147971962Y-64000499D01*
X148110053Y-63959953D01*
X148231128Y-63882143D01*
X148325377Y-63773373D01*
X148385165Y-63642457D01*
X148405647Y-63500000D01*
X148385165Y-63357543D01*
X148325377Y-63226627D01*
X148231128Y-63117857D01*
X148110053Y-63040047D01*
X148110051Y-63040046D01*
X148110049Y-63040045D01*
X148110050Y-63040045D01*
X147971963Y-62999500D01*
X147971961Y-62999500D01*
X147828039Y-62999500D01*
X147828036Y-62999500D01*
X147689949Y-63040045D01*
X147568873Y-63117856D01*
X147474623Y-63226626D01*
X147474622Y-63226628D01*
X147414834Y-63357543D01*
X147394353Y-63500000D01*
X144900500Y-63500000D01*
X144900500Y-62950000D01*
X160144353Y-62950000D01*
X160164834Y-63092456D01*
X160224622Y-63223371D01*
X160224623Y-63223373D01*
X160318872Y-63332143D01*
X160439947Y-63409953D01*
X160439950Y-63409954D01*
X160439949Y-63409954D01*
X160578036Y-63450499D01*
X160578038Y-63450500D01*
X160578039Y-63450500D01*
X160721962Y-63450500D01*
X160721962Y-63450499D01*
X160860053Y-63409953D01*
X160981128Y-63332143D01*
X161075377Y-63223373D01*
X161135165Y-63092457D01*
X161138936Y-63066228D01*
X173499500Y-63066228D01*
X173499500Y-63233771D01*
X173532182Y-63398074D01*
X173532184Y-63398082D01*
X173596295Y-63552860D01*
X173689373Y-63692162D01*
X173807837Y-63810626D01*
X173900494Y-63872537D01*
X173947137Y-63903703D01*
X174101918Y-63967816D01*
X174261206Y-63999500D01*
X174266228Y-64000499D01*
X174266232Y-64000500D01*
X174266233Y-64000500D01*
X174433768Y-64000500D01*
X174433769Y-64000499D01*
X174598082Y-63967816D01*
X174752863Y-63903703D01*
X174892162Y-63810626D01*
X175010626Y-63692162D01*
X175103703Y-63552863D01*
X175167816Y-63398082D01*
X175200500Y-63233767D01*
X175200500Y-63066233D01*
X175167816Y-62901918D01*
X175103703Y-62747137D01*
X175056589Y-62676626D01*
X175010626Y-62607837D01*
X174892162Y-62489373D01*
X174752860Y-62396295D01*
X174598082Y-62332184D01*
X174598074Y-62332182D01*
X174433771Y-62299500D01*
X174433767Y-62299500D01*
X174266233Y-62299500D01*
X174266228Y-62299500D01*
X174101925Y-62332182D01*
X174101917Y-62332184D01*
X173947139Y-62396295D01*
X173807837Y-62489373D01*
X173689373Y-62607837D01*
X173596295Y-62747139D01*
X173532184Y-62901917D01*
X173532182Y-62901925D01*
X173499500Y-63066228D01*
X161138936Y-63066228D01*
X161155647Y-62950000D01*
X161135165Y-62807543D01*
X161075377Y-62676627D01*
X160981128Y-62567857D01*
X160860053Y-62490047D01*
X160860051Y-62490046D01*
X160860049Y-62490045D01*
X160860050Y-62490045D01*
X160721963Y-62449500D01*
X160721961Y-62449500D01*
X160578039Y-62449500D01*
X160578036Y-62449500D01*
X160439949Y-62490045D01*
X160318873Y-62567856D01*
X160224623Y-62676626D01*
X160224622Y-62676628D01*
X160164834Y-62807543D01*
X160144353Y-62950000D01*
X144900500Y-62950000D01*
X144900500Y-58600000D01*
X145494353Y-58600000D01*
X145514834Y-58742456D01*
X145574622Y-58873371D01*
X145574623Y-58873373D01*
X145668872Y-58982143D01*
X145789947Y-59059953D01*
X145789950Y-59059954D01*
X145789949Y-59059954D01*
X145928036Y-59100499D01*
X145928038Y-59100500D01*
X145928039Y-59100500D01*
X146071962Y-59100500D01*
X146071962Y-59100499D01*
X146210053Y-59059953D01*
X146331128Y-58982143D01*
X146425377Y-58873373D01*
X146485165Y-58742457D01*
X146505647Y-58600000D01*
X146485165Y-58457543D01*
X146425377Y-58326627D01*
X146331128Y-58217857D01*
X146210053Y-58140047D01*
X146210051Y-58140046D01*
X146210049Y-58140045D01*
X146210050Y-58140045D01*
X146071963Y-58099500D01*
X146071961Y-58099500D01*
X145928039Y-58099500D01*
X145928036Y-58099500D01*
X145789949Y-58140045D01*
X145668873Y-58217856D01*
X145574623Y-58326626D01*
X145574622Y-58326628D01*
X145514834Y-58457543D01*
X145494353Y-58600000D01*
X144900500Y-58600000D01*
X144900500Y-53502706D01*
X144900618Y-53497297D01*
X144905676Y-53381455D01*
X144917386Y-53113226D01*
X144918326Y-53102495D01*
X144964732Y-52750000D01*
X162394778Y-52750000D01*
X162413644Y-53037837D01*
X162413646Y-53037849D01*
X162469917Y-53320745D01*
X162469921Y-53320760D01*
X162562642Y-53593905D01*
X162690219Y-53852606D01*
X162690223Y-53852613D01*
X162850478Y-54092452D01*
X163040672Y-54309327D01*
X163257546Y-54499520D01*
X163497389Y-54659778D01*
X163756098Y-54787359D01*
X164029247Y-54880081D01*
X164312161Y-54936356D01*
X164600000Y-54955222D01*
X164887839Y-54936356D01*
X165170753Y-54880081D01*
X165443902Y-54787359D01*
X165702611Y-54659778D01*
X165942454Y-54499520D01*
X166159327Y-54309327D01*
X166349520Y-54092454D01*
X166509778Y-53852611D01*
X166637359Y-53593902D01*
X166730081Y-53320753D01*
X166786356Y-53037839D01*
X166805222Y-52750000D01*
X166786356Y-52462161D01*
X166730081Y-52179247D01*
X166637359Y-51906098D01*
X166509778Y-51647389D01*
X166349520Y-51407546D01*
X166159327Y-51190672D01*
X165942452Y-51000478D01*
X165702613Y-50840223D01*
X165702606Y-50840219D01*
X165443905Y-50712642D01*
X165170760Y-50619921D01*
X165170754Y-50619919D01*
X165170753Y-50619919D01*
X165170751Y-50619918D01*
X165170745Y-50619917D01*
X164887849Y-50563646D01*
X164887839Y-50563644D01*
X164600000Y-50544778D01*
X164312161Y-50563644D01*
X164312155Y-50563645D01*
X164312150Y-50563646D01*
X164029254Y-50619917D01*
X164029239Y-50619921D01*
X163756094Y-50712642D01*
X163497393Y-50840219D01*
X163497386Y-50840223D01*
X163257547Y-51000478D01*
X163040672Y-51190672D01*
X162850478Y-51407547D01*
X162690223Y-51647386D01*
X162690219Y-51647393D01*
X162562642Y-51906094D01*
X162469921Y-52179239D01*
X162469917Y-52179254D01*
X162413646Y-52462150D01*
X162413644Y-52462162D01*
X162394778Y-52750000D01*
X144964732Y-52750000D01*
X144968152Y-52724025D01*
X144970025Y-52713405D01*
X145052649Y-52340709D01*
X145055440Y-52330295D01*
X145170230Y-51966227D01*
X145173917Y-51956095D01*
X145320003Y-51603412D01*
X145324561Y-51593638D01*
X145500822Y-51255045D01*
X145506217Y-51245700D01*
X145711325Y-50923744D01*
X145717515Y-50914905D01*
X145949896Y-50612060D01*
X145956834Y-50603791D01*
X146214726Y-50322352D01*
X146222352Y-50314726D01*
X146503791Y-50056834D01*
X146512060Y-50049896D01*
X146814905Y-49817515D01*
X146823744Y-49811325D01*
X147145700Y-49606217D01*
X147155045Y-49600822D01*
X147493638Y-49424561D01*
X147503412Y-49420003D01*
X147856095Y-49273917D01*
X147866227Y-49270230D01*
X148230295Y-49155440D01*
X148240709Y-49152649D01*
X148613405Y-49070025D01*
X148624025Y-49068152D01*
X149002495Y-49018326D01*
X149013226Y-49017386D01*
X149397297Y-49000617D01*
X149402706Y-49000500D01*
X149465892Y-49000500D01*
X179634108Y-49000500D01*
X179697294Y-49000500D01*
X179702702Y-49000617D01*
G37*
%TD.AperFunction*%
%TD*%
M02*
