%TF.GenerationSoftware,KiCad,Pcbnew,8.0.2*%
%TF.CreationDate,2024-06-28T22:02:35+02:00*%
%TF.ProjectId,Leiterkarte,4c656974-6572-46b6-9172-74652e6b6963,rev?*%
%TF.SameCoordinates,Original*%
%TF.FileFunction,Legend,Top*%
%TF.FilePolarity,Positive*%
%FSLAX46Y46*%
G04 Gerber Fmt 4.6, Leading zero omitted, Abs format (unit mm)*
G04 Created by KiCad (PCBNEW 8.0.2) date 2024-06-28 22:02:35*
%MOMM*%
%LPD*%
G01*
G04 APERTURE LIST*
G04 Aperture macros list*
%AMRoundRect*
0 Rectangle with rounded corners*
0 $1 Rounding radius*
0 $2 $3 $4 $5 $6 $7 $8 $9 X,Y pos of 4 corners*
0 Add a 4 corners polygon primitive as box body*
4,1,4,$2,$3,$4,$5,$6,$7,$8,$9,$2,$3,0*
0 Add four circle primitives for the rounded corners*
1,1,$1+$1,$2,$3*
1,1,$1+$1,$4,$5*
1,1,$1+$1,$6,$7*
1,1,$1+$1,$8,$9*
0 Add four rect primitives between the rounded corners*
20,1,$1+$1,$2,$3,$4,$5,0*
20,1,$1+$1,$4,$5,$6,$7,0*
20,1,$1+$1,$6,$7,$8,$9,0*
20,1,$1+$1,$8,$9,$2,$3,0*%
G04 Aperture macros list end*
%ADD10C,0.150000*%
%ADD11C,0.120000*%
%ADD12R,2.300000X3.100000*%
%ADD13R,2.400000X2.400000*%
%ADD14O,2.400000X2.400000*%
%ADD15R,5.400000X2.900000*%
%ADD16RoundRect,0.250000X-1.950000X-1.000000X1.950000X-1.000000X1.950000X1.000000X-1.950000X1.000000X0*%
%ADD17RoundRect,0.250002X-1.499998X-1.499998X1.499998X-1.499998X1.499998X1.499998X-1.499998X1.499998X0*%
%ADD18RoundRect,0.250002X1.499998X1.499998X-1.499998X1.499998X-1.499998X-1.499998X1.499998X-1.499998X0*%
%ADD19RoundRect,0.250000X0.450000X-0.262500X0.450000X0.262500X-0.450000X0.262500X-0.450000X-0.262500X0*%
%ADD20RoundRect,0.250000X-0.450000X0.262500X-0.450000X-0.262500X0.450000X-0.262500X0.450000X0.262500X0*%
%ADD21O,1.700000X1.700000*%
%ADD22R,1.700000X1.700000*%
%ADD23RoundRect,0.250000X0.262500X0.450000X-0.262500X0.450000X-0.262500X-0.450000X0.262500X-0.450000X0*%
%ADD24RoundRect,0.250000X0.300000X-2.050000X0.300000X2.050000X-0.300000X2.050000X-0.300000X-2.050000X0*%
%ADD25RoundRect,0.250002X5.149998X-4.449998X5.149998X4.449998X-5.149998X4.449998X-5.149998X-4.449998X0*%
G04 APERTURE END LIST*
D10*
X129666666Y-59706009D02*
X129333333Y-59706009D01*
X129333333Y-60229819D02*
X129333333Y-59229819D01*
X129333333Y-59229819D02*
X129809523Y-59229819D01*
X130142857Y-59325057D02*
X130190476Y-59277438D01*
X130190476Y-59277438D02*
X130285714Y-59229819D01*
X130285714Y-59229819D02*
X130523809Y-59229819D01*
X130523809Y-59229819D02*
X130619047Y-59277438D01*
X130619047Y-59277438D02*
X130666666Y-59325057D01*
X130666666Y-59325057D02*
X130714285Y-59420295D01*
X130714285Y-59420295D02*
X130714285Y-59515533D01*
X130714285Y-59515533D02*
X130666666Y-59658390D01*
X130666666Y-59658390D02*
X130095238Y-60229819D01*
X130095238Y-60229819D02*
X130714285Y-60229819D01*
X145461905Y-79869819D02*
X145461905Y-78869819D01*
X145461905Y-78869819D02*
X145700000Y-78869819D01*
X145700000Y-78869819D02*
X145842857Y-78917438D01*
X145842857Y-78917438D02*
X145938095Y-79012676D01*
X145938095Y-79012676D02*
X145985714Y-79107914D01*
X145985714Y-79107914D02*
X146033333Y-79298390D01*
X146033333Y-79298390D02*
X146033333Y-79441247D01*
X146033333Y-79441247D02*
X145985714Y-79631723D01*
X145985714Y-79631723D02*
X145938095Y-79726961D01*
X145938095Y-79726961D02*
X145842857Y-79822200D01*
X145842857Y-79822200D02*
X145700000Y-79869819D01*
X145700000Y-79869819D02*
X145461905Y-79869819D01*
X146414286Y-78965057D02*
X146461905Y-78917438D01*
X146461905Y-78917438D02*
X146557143Y-78869819D01*
X146557143Y-78869819D02*
X146795238Y-78869819D01*
X146795238Y-78869819D02*
X146890476Y-78917438D01*
X146890476Y-78917438D02*
X146938095Y-78965057D01*
X146938095Y-78965057D02*
X146985714Y-79060295D01*
X146985714Y-79060295D02*
X146985714Y-79155533D01*
X146985714Y-79155533D02*
X146938095Y-79298390D01*
X146938095Y-79298390D02*
X146366667Y-79869819D01*
X146366667Y-79869819D02*
X146985714Y-79869819D01*
X139588095Y-81454819D02*
X139588095Y-80454819D01*
X140159523Y-81454819D02*
X139730952Y-80883390D01*
X140159523Y-80454819D02*
X139588095Y-81026247D01*
X184033333Y-71754819D02*
X183557143Y-71754819D01*
X183557143Y-71754819D02*
X183557143Y-70754819D01*
X184890476Y-71754819D02*
X184319048Y-71754819D01*
X184604762Y-71754819D02*
X184604762Y-70754819D01*
X184604762Y-70754819D02*
X184509524Y-70897676D01*
X184509524Y-70897676D02*
X184414286Y-70992914D01*
X184414286Y-70992914D02*
X184319048Y-71040533D01*
X137433333Y-70459580D02*
X137385714Y-70507200D01*
X137385714Y-70507200D02*
X137242857Y-70554819D01*
X137242857Y-70554819D02*
X137147619Y-70554819D01*
X137147619Y-70554819D02*
X137004762Y-70507200D01*
X137004762Y-70507200D02*
X136909524Y-70411961D01*
X136909524Y-70411961D02*
X136861905Y-70316723D01*
X136861905Y-70316723D02*
X136814286Y-70126247D01*
X136814286Y-70126247D02*
X136814286Y-69983390D01*
X136814286Y-69983390D02*
X136861905Y-69792914D01*
X136861905Y-69792914D02*
X136909524Y-69697676D01*
X136909524Y-69697676D02*
X137004762Y-69602438D01*
X137004762Y-69602438D02*
X137147619Y-69554819D01*
X137147619Y-69554819D02*
X137242857Y-69554819D01*
X137242857Y-69554819D02*
X137385714Y-69602438D01*
X137385714Y-69602438D02*
X137433333Y-69650057D01*
X137814286Y-69650057D02*
X137861905Y-69602438D01*
X137861905Y-69602438D02*
X137957143Y-69554819D01*
X137957143Y-69554819D02*
X138195238Y-69554819D01*
X138195238Y-69554819D02*
X138290476Y-69602438D01*
X138290476Y-69602438D02*
X138338095Y-69650057D01*
X138338095Y-69650057D02*
X138385714Y-69745295D01*
X138385714Y-69745295D02*
X138385714Y-69840533D01*
X138385714Y-69840533D02*
X138338095Y-69983390D01*
X138338095Y-69983390D02*
X137766667Y-70554819D01*
X137766667Y-70554819D02*
X138385714Y-70554819D01*
X141633333Y-59959580D02*
X141585714Y-60007200D01*
X141585714Y-60007200D02*
X141442857Y-60054819D01*
X141442857Y-60054819D02*
X141347619Y-60054819D01*
X141347619Y-60054819D02*
X141204762Y-60007200D01*
X141204762Y-60007200D02*
X141109524Y-59911961D01*
X141109524Y-59911961D02*
X141061905Y-59816723D01*
X141061905Y-59816723D02*
X141014286Y-59626247D01*
X141014286Y-59626247D02*
X141014286Y-59483390D01*
X141014286Y-59483390D02*
X141061905Y-59292914D01*
X141061905Y-59292914D02*
X141109524Y-59197676D01*
X141109524Y-59197676D02*
X141204762Y-59102438D01*
X141204762Y-59102438D02*
X141347619Y-59054819D01*
X141347619Y-59054819D02*
X141442857Y-59054819D01*
X141442857Y-59054819D02*
X141585714Y-59102438D01*
X141585714Y-59102438D02*
X141633333Y-59150057D01*
X142585714Y-60054819D02*
X142014286Y-60054819D01*
X142300000Y-60054819D02*
X142300000Y-59054819D01*
X142300000Y-59054819D02*
X142204762Y-59197676D01*
X142204762Y-59197676D02*
X142109524Y-59292914D01*
X142109524Y-59292914D02*
X142014286Y-59340533D01*
X184954819Y-100814285D02*
X184478628Y-101147618D01*
X184954819Y-101385713D02*
X183954819Y-101385713D01*
X183954819Y-101385713D02*
X183954819Y-101004761D01*
X183954819Y-101004761D02*
X184002438Y-100909523D01*
X184002438Y-100909523D02*
X184050057Y-100861904D01*
X184050057Y-100861904D02*
X184145295Y-100814285D01*
X184145295Y-100814285D02*
X184288152Y-100814285D01*
X184288152Y-100814285D02*
X184383390Y-100861904D01*
X184383390Y-100861904D02*
X184431009Y-100909523D01*
X184431009Y-100909523D02*
X184478628Y-101004761D01*
X184478628Y-101004761D02*
X184478628Y-101385713D01*
X184431009Y-100052380D02*
X184478628Y-99909523D01*
X184478628Y-99909523D02*
X184526247Y-99861904D01*
X184526247Y-99861904D02*
X184621485Y-99814285D01*
X184621485Y-99814285D02*
X184764342Y-99814285D01*
X184764342Y-99814285D02*
X184859580Y-99861904D01*
X184859580Y-99861904D02*
X184907200Y-99909523D01*
X184907200Y-99909523D02*
X184954819Y-100004761D01*
X184954819Y-100004761D02*
X184954819Y-100385713D01*
X184954819Y-100385713D02*
X183954819Y-100385713D01*
X183954819Y-100385713D02*
X183954819Y-100052380D01*
X183954819Y-100052380D02*
X184002438Y-99957142D01*
X184002438Y-99957142D02*
X184050057Y-99909523D01*
X184050057Y-99909523D02*
X184145295Y-99861904D01*
X184145295Y-99861904D02*
X184240533Y-99861904D01*
X184240533Y-99861904D02*
X184335771Y-99909523D01*
X184335771Y-99909523D02*
X184383390Y-99957142D01*
X184383390Y-99957142D02*
X184431009Y-100052380D01*
X184431009Y-100052380D02*
X184431009Y-100385713D01*
X184954819Y-98909523D02*
X184954819Y-99385713D01*
X184954819Y-99385713D02*
X183954819Y-99385713D01*
X184954819Y-98576189D02*
X183954819Y-98576189D01*
X184954819Y-98099999D02*
X183954819Y-98099999D01*
X183954819Y-98099999D02*
X184954819Y-97528571D01*
X184954819Y-97528571D02*
X183954819Y-97528571D01*
X184954819Y-97052380D02*
X183954819Y-97052380D01*
X184954819Y-96480952D02*
X184383390Y-96909523D01*
X183954819Y-96480952D02*
X184526247Y-97052380D01*
X185050057Y-96290476D02*
X185050057Y-95528571D01*
X184954819Y-94766666D02*
X184954819Y-95338094D01*
X184954819Y-95052380D02*
X183954819Y-95052380D01*
X183954819Y-95052380D02*
X184097676Y-95147618D01*
X184097676Y-95147618D02*
X184192914Y-95242856D01*
X184192914Y-95242856D02*
X184240533Y-95338094D01*
X126428572Y-68304819D02*
X126761905Y-69304819D01*
X126761905Y-69304819D02*
X127095238Y-68304819D01*
X127428572Y-69304819D02*
X127428572Y-68304819D01*
X127904762Y-69304819D02*
X127904762Y-68304819D01*
X127904762Y-68304819D02*
X128476190Y-69304819D01*
X128476190Y-69304819D02*
X128476190Y-68304819D01*
X129476190Y-69304819D02*
X128904762Y-69304819D01*
X129190476Y-69304819D02*
X129190476Y-68304819D01*
X129190476Y-68304819D02*
X129095238Y-68447676D01*
X129095238Y-68447676D02*
X129000000Y-68542914D01*
X129000000Y-68542914D02*
X128904762Y-68590533D01*
X126761904Y-74252438D02*
X126666666Y-74204819D01*
X126666666Y-74204819D02*
X126523809Y-74204819D01*
X126523809Y-74204819D02*
X126380952Y-74252438D01*
X126380952Y-74252438D02*
X126285714Y-74347676D01*
X126285714Y-74347676D02*
X126238095Y-74442914D01*
X126238095Y-74442914D02*
X126190476Y-74633390D01*
X126190476Y-74633390D02*
X126190476Y-74776247D01*
X126190476Y-74776247D02*
X126238095Y-74966723D01*
X126238095Y-74966723D02*
X126285714Y-75061961D01*
X126285714Y-75061961D02*
X126380952Y-75157200D01*
X126380952Y-75157200D02*
X126523809Y-75204819D01*
X126523809Y-75204819D02*
X126619047Y-75204819D01*
X126619047Y-75204819D02*
X126761904Y-75157200D01*
X126761904Y-75157200D02*
X126809523Y-75109580D01*
X126809523Y-75109580D02*
X126809523Y-74776247D01*
X126809523Y-74776247D02*
X126619047Y-74776247D01*
X127238095Y-75204819D02*
X127238095Y-74204819D01*
X127238095Y-74204819D02*
X127809523Y-75204819D01*
X127809523Y-75204819D02*
X127809523Y-74204819D01*
X128285714Y-75204819D02*
X128285714Y-74204819D01*
X128285714Y-74204819D02*
X128523809Y-74204819D01*
X128523809Y-74204819D02*
X128666666Y-74252438D01*
X128666666Y-74252438D02*
X128761904Y-74347676D01*
X128761904Y-74347676D02*
X128809523Y-74442914D01*
X128809523Y-74442914D02*
X128857142Y-74633390D01*
X128857142Y-74633390D02*
X128857142Y-74776247D01*
X128857142Y-74776247D02*
X128809523Y-74966723D01*
X128809523Y-74966723D02*
X128761904Y-75061961D01*
X128761904Y-75061961D02*
X128666666Y-75157200D01*
X128666666Y-75157200D02*
X128523809Y-75204819D01*
X128523809Y-75204819D02*
X128285714Y-75204819D01*
X129809523Y-75204819D02*
X129238095Y-75204819D01*
X129523809Y-75204819D02*
X129523809Y-74204819D01*
X129523809Y-74204819D02*
X129428571Y-74347676D01*
X129428571Y-74347676D02*
X129333333Y-74442914D01*
X129333333Y-74442914D02*
X129238095Y-74490533D01*
X93454819Y-144109523D02*
X94169104Y-144109523D01*
X94169104Y-144109523D02*
X94311961Y-144157142D01*
X94311961Y-144157142D02*
X94407200Y-144252380D01*
X94407200Y-144252380D02*
X94454819Y-144395237D01*
X94454819Y-144395237D02*
X94454819Y-144490475D01*
X93550057Y-143680951D02*
X93502438Y-143633332D01*
X93502438Y-143633332D02*
X93454819Y-143538094D01*
X93454819Y-143538094D02*
X93454819Y-143299999D01*
X93454819Y-143299999D02*
X93502438Y-143204761D01*
X93502438Y-143204761D02*
X93550057Y-143157142D01*
X93550057Y-143157142D02*
X93645295Y-143109523D01*
X93645295Y-143109523D02*
X93740533Y-143109523D01*
X93740533Y-143109523D02*
X93883390Y-143157142D01*
X93883390Y-143157142D02*
X94454819Y-143728570D01*
X94454819Y-143728570D02*
X94454819Y-143109523D01*
X93454819Y-142776189D02*
X93454819Y-142109523D01*
X93454819Y-142109523D02*
X94454819Y-142538094D01*
X93554819Y-139509523D02*
X94269104Y-139509523D01*
X94269104Y-139509523D02*
X94411961Y-139557142D01*
X94411961Y-139557142D02*
X94507200Y-139652380D01*
X94507200Y-139652380D02*
X94554819Y-139795237D01*
X94554819Y-139795237D02*
X94554819Y-139890475D01*
X93650057Y-139080951D02*
X93602438Y-139033332D01*
X93602438Y-139033332D02*
X93554819Y-138938094D01*
X93554819Y-138938094D02*
X93554819Y-138699999D01*
X93554819Y-138699999D02*
X93602438Y-138604761D01*
X93602438Y-138604761D02*
X93650057Y-138557142D01*
X93650057Y-138557142D02*
X93745295Y-138509523D01*
X93745295Y-138509523D02*
X93840533Y-138509523D01*
X93840533Y-138509523D02*
X93983390Y-138557142D01*
X93983390Y-138557142D02*
X94554819Y-139128570D01*
X94554819Y-139128570D02*
X94554819Y-138509523D01*
X93554819Y-137652380D02*
X93554819Y-137842856D01*
X93554819Y-137842856D02*
X93602438Y-137938094D01*
X93602438Y-137938094D02*
X93650057Y-137985713D01*
X93650057Y-137985713D02*
X93792914Y-138080951D01*
X93792914Y-138080951D02*
X93983390Y-138128570D01*
X93983390Y-138128570D02*
X94364342Y-138128570D01*
X94364342Y-138128570D02*
X94459580Y-138080951D01*
X94459580Y-138080951D02*
X94507200Y-138033332D01*
X94507200Y-138033332D02*
X94554819Y-137938094D01*
X94554819Y-137938094D02*
X94554819Y-137747618D01*
X94554819Y-137747618D02*
X94507200Y-137652380D01*
X94507200Y-137652380D02*
X94459580Y-137604761D01*
X94459580Y-137604761D02*
X94364342Y-137557142D01*
X94364342Y-137557142D02*
X94126247Y-137557142D01*
X94126247Y-137557142D02*
X94031009Y-137604761D01*
X94031009Y-137604761D02*
X93983390Y-137652380D01*
X93983390Y-137652380D02*
X93935771Y-137747618D01*
X93935771Y-137747618D02*
X93935771Y-137938094D01*
X93935771Y-137938094D02*
X93983390Y-138033332D01*
X93983390Y-138033332D02*
X94031009Y-138080951D01*
X94031009Y-138080951D02*
X94126247Y-138128570D01*
X93454819Y-134909523D02*
X94169104Y-134909523D01*
X94169104Y-134909523D02*
X94311961Y-134957142D01*
X94311961Y-134957142D02*
X94407200Y-135052380D01*
X94407200Y-135052380D02*
X94454819Y-135195237D01*
X94454819Y-135195237D02*
X94454819Y-135290475D01*
X93550057Y-134480951D02*
X93502438Y-134433332D01*
X93502438Y-134433332D02*
X93454819Y-134338094D01*
X93454819Y-134338094D02*
X93454819Y-134099999D01*
X93454819Y-134099999D02*
X93502438Y-134004761D01*
X93502438Y-134004761D02*
X93550057Y-133957142D01*
X93550057Y-133957142D02*
X93645295Y-133909523D01*
X93645295Y-133909523D02*
X93740533Y-133909523D01*
X93740533Y-133909523D02*
X93883390Y-133957142D01*
X93883390Y-133957142D02*
X94454819Y-134528570D01*
X94454819Y-134528570D02*
X94454819Y-133909523D01*
X93454819Y-133004761D02*
X93454819Y-133480951D01*
X93454819Y-133480951D02*
X93931009Y-133528570D01*
X93931009Y-133528570D02*
X93883390Y-133480951D01*
X93883390Y-133480951D02*
X93835771Y-133385713D01*
X93835771Y-133385713D02*
X93835771Y-133147618D01*
X93835771Y-133147618D02*
X93883390Y-133052380D01*
X93883390Y-133052380D02*
X93931009Y-133004761D01*
X93931009Y-133004761D02*
X94026247Y-132957142D01*
X94026247Y-132957142D02*
X94264342Y-132957142D01*
X94264342Y-132957142D02*
X94359580Y-133004761D01*
X94359580Y-133004761D02*
X94407200Y-133052380D01*
X94407200Y-133052380D02*
X94454819Y-133147618D01*
X94454819Y-133147618D02*
X94454819Y-133385713D01*
X94454819Y-133385713D02*
X94407200Y-133480951D01*
X94407200Y-133480951D02*
X94359580Y-133528570D01*
X93554819Y-120309523D02*
X94269104Y-120309523D01*
X94269104Y-120309523D02*
X94411961Y-120357142D01*
X94411961Y-120357142D02*
X94507200Y-120452380D01*
X94507200Y-120452380D02*
X94554819Y-120595237D01*
X94554819Y-120595237D02*
X94554819Y-120690475D01*
X93650057Y-119880951D02*
X93602438Y-119833332D01*
X93602438Y-119833332D02*
X93554819Y-119738094D01*
X93554819Y-119738094D02*
X93554819Y-119499999D01*
X93554819Y-119499999D02*
X93602438Y-119404761D01*
X93602438Y-119404761D02*
X93650057Y-119357142D01*
X93650057Y-119357142D02*
X93745295Y-119309523D01*
X93745295Y-119309523D02*
X93840533Y-119309523D01*
X93840533Y-119309523D02*
X93983390Y-119357142D01*
X93983390Y-119357142D02*
X94554819Y-119928570D01*
X94554819Y-119928570D02*
X94554819Y-119309523D01*
X93888152Y-118452380D02*
X94554819Y-118452380D01*
X93507200Y-118690475D02*
X94221485Y-118928570D01*
X94221485Y-118928570D02*
X94221485Y-118309523D01*
X93554819Y-107709523D02*
X94269104Y-107709523D01*
X94269104Y-107709523D02*
X94411961Y-107757142D01*
X94411961Y-107757142D02*
X94507200Y-107852380D01*
X94507200Y-107852380D02*
X94554819Y-107995237D01*
X94554819Y-107995237D02*
X94554819Y-108090475D01*
X93650057Y-107280951D02*
X93602438Y-107233332D01*
X93602438Y-107233332D02*
X93554819Y-107138094D01*
X93554819Y-107138094D02*
X93554819Y-106899999D01*
X93554819Y-106899999D02*
X93602438Y-106804761D01*
X93602438Y-106804761D02*
X93650057Y-106757142D01*
X93650057Y-106757142D02*
X93745295Y-106709523D01*
X93745295Y-106709523D02*
X93840533Y-106709523D01*
X93840533Y-106709523D02*
X93983390Y-106757142D01*
X93983390Y-106757142D02*
X94554819Y-107328570D01*
X94554819Y-107328570D02*
X94554819Y-106709523D01*
X93554819Y-106376189D02*
X93554819Y-105757142D01*
X93554819Y-105757142D02*
X93935771Y-106090475D01*
X93935771Y-106090475D02*
X93935771Y-105947618D01*
X93935771Y-105947618D02*
X93983390Y-105852380D01*
X93983390Y-105852380D02*
X94031009Y-105804761D01*
X94031009Y-105804761D02*
X94126247Y-105757142D01*
X94126247Y-105757142D02*
X94364342Y-105757142D01*
X94364342Y-105757142D02*
X94459580Y-105804761D01*
X94459580Y-105804761D02*
X94507200Y-105852380D01*
X94507200Y-105852380D02*
X94554819Y-105947618D01*
X94554819Y-105947618D02*
X94554819Y-106233332D01*
X94554819Y-106233332D02*
X94507200Y-106328570D01*
X94507200Y-106328570D02*
X94459580Y-106376189D01*
X96490476Y-91204819D02*
X96490476Y-91919104D01*
X96490476Y-91919104D02*
X96442857Y-92061961D01*
X96442857Y-92061961D02*
X96347619Y-92157200D01*
X96347619Y-92157200D02*
X96204762Y-92204819D01*
X96204762Y-92204819D02*
X96109524Y-92204819D01*
X96919048Y-91300057D02*
X96966667Y-91252438D01*
X96966667Y-91252438D02*
X97061905Y-91204819D01*
X97061905Y-91204819D02*
X97300000Y-91204819D01*
X97300000Y-91204819D02*
X97395238Y-91252438D01*
X97395238Y-91252438D02*
X97442857Y-91300057D01*
X97442857Y-91300057D02*
X97490476Y-91395295D01*
X97490476Y-91395295D02*
X97490476Y-91490533D01*
X97490476Y-91490533D02*
X97442857Y-91633390D01*
X97442857Y-91633390D02*
X96871429Y-92204819D01*
X96871429Y-92204819D02*
X97490476Y-92204819D01*
X98442857Y-92204819D02*
X97871429Y-92204819D01*
X98157143Y-92204819D02*
X98157143Y-91204819D01*
X98157143Y-91204819D02*
X98061905Y-91347676D01*
X98061905Y-91347676D02*
X97966667Y-91442914D01*
X97966667Y-91442914D02*
X97871429Y-91490533D01*
X105054819Y-140809523D02*
X105769104Y-140809523D01*
X105769104Y-140809523D02*
X105911961Y-140857142D01*
X105911961Y-140857142D02*
X106007200Y-140952380D01*
X106007200Y-140952380D02*
X106054819Y-141095237D01*
X106054819Y-141095237D02*
X106054819Y-141190475D01*
X105150057Y-140380951D02*
X105102438Y-140333332D01*
X105102438Y-140333332D02*
X105054819Y-140238094D01*
X105054819Y-140238094D02*
X105054819Y-139999999D01*
X105054819Y-139999999D02*
X105102438Y-139904761D01*
X105102438Y-139904761D02*
X105150057Y-139857142D01*
X105150057Y-139857142D02*
X105245295Y-139809523D01*
X105245295Y-139809523D02*
X105340533Y-139809523D01*
X105340533Y-139809523D02*
X105483390Y-139857142D01*
X105483390Y-139857142D02*
X106054819Y-140428570D01*
X106054819Y-140428570D02*
X106054819Y-139809523D01*
X105054819Y-139190475D02*
X105054819Y-139095237D01*
X105054819Y-139095237D02*
X105102438Y-138999999D01*
X105102438Y-138999999D02*
X105150057Y-138952380D01*
X105150057Y-138952380D02*
X105245295Y-138904761D01*
X105245295Y-138904761D02*
X105435771Y-138857142D01*
X105435771Y-138857142D02*
X105673866Y-138857142D01*
X105673866Y-138857142D02*
X105864342Y-138904761D01*
X105864342Y-138904761D02*
X105959580Y-138952380D01*
X105959580Y-138952380D02*
X106007200Y-138999999D01*
X106007200Y-138999999D02*
X106054819Y-139095237D01*
X106054819Y-139095237D02*
X106054819Y-139190475D01*
X106054819Y-139190475D02*
X106007200Y-139285713D01*
X106007200Y-139285713D02*
X105959580Y-139333332D01*
X105959580Y-139333332D02*
X105864342Y-139380951D01*
X105864342Y-139380951D02*
X105673866Y-139428570D01*
X105673866Y-139428570D02*
X105435771Y-139428570D01*
X105435771Y-139428570D02*
X105245295Y-139380951D01*
X105245295Y-139380951D02*
X105150057Y-139333332D01*
X105150057Y-139333332D02*
X105102438Y-139285713D01*
X105102438Y-139285713D02*
X105054819Y-139190475D01*
X104954819Y-135709523D02*
X105669104Y-135709523D01*
X105669104Y-135709523D02*
X105811961Y-135757142D01*
X105811961Y-135757142D02*
X105907200Y-135852380D01*
X105907200Y-135852380D02*
X105954819Y-135995237D01*
X105954819Y-135995237D02*
X105954819Y-136090475D01*
X105954819Y-134709523D02*
X105954819Y-135280951D01*
X105954819Y-134995237D02*
X104954819Y-134995237D01*
X104954819Y-134995237D02*
X105097676Y-135090475D01*
X105097676Y-135090475D02*
X105192914Y-135185713D01*
X105192914Y-135185713D02*
X105240533Y-135280951D01*
X105954819Y-134233332D02*
X105954819Y-134042856D01*
X105954819Y-134042856D02*
X105907200Y-133947618D01*
X105907200Y-133947618D02*
X105859580Y-133899999D01*
X105859580Y-133899999D02*
X105716723Y-133804761D01*
X105716723Y-133804761D02*
X105526247Y-133757142D01*
X105526247Y-133757142D02*
X105145295Y-133757142D01*
X105145295Y-133757142D02*
X105050057Y-133804761D01*
X105050057Y-133804761D02*
X105002438Y-133852380D01*
X105002438Y-133852380D02*
X104954819Y-133947618D01*
X104954819Y-133947618D02*
X104954819Y-134138094D01*
X104954819Y-134138094D02*
X105002438Y-134233332D01*
X105002438Y-134233332D02*
X105050057Y-134280951D01*
X105050057Y-134280951D02*
X105145295Y-134328570D01*
X105145295Y-134328570D02*
X105383390Y-134328570D01*
X105383390Y-134328570D02*
X105478628Y-134280951D01*
X105478628Y-134280951D02*
X105526247Y-134233332D01*
X105526247Y-134233332D02*
X105573866Y-134138094D01*
X105573866Y-134138094D02*
X105573866Y-133947618D01*
X105573866Y-133947618D02*
X105526247Y-133852380D01*
X105526247Y-133852380D02*
X105478628Y-133804761D01*
X105478628Y-133804761D02*
X105383390Y-133757142D01*
X105054819Y-131109523D02*
X105769104Y-131109523D01*
X105769104Y-131109523D02*
X105911961Y-131157142D01*
X105911961Y-131157142D02*
X106007200Y-131252380D01*
X106007200Y-131252380D02*
X106054819Y-131395237D01*
X106054819Y-131395237D02*
X106054819Y-131490475D01*
X106054819Y-130109523D02*
X106054819Y-130680951D01*
X106054819Y-130395237D02*
X105054819Y-130395237D01*
X105054819Y-130395237D02*
X105197676Y-130490475D01*
X105197676Y-130490475D02*
X105292914Y-130585713D01*
X105292914Y-130585713D02*
X105340533Y-130680951D01*
X105483390Y-129538094D02*
X105435771Y-129633332D01*
X105435771Y-129633332D02*
X105388152Y-129680951D01*
X105388152Y-129680951D02*
X105292914Y-129728570D01*
X105292914Y-129728570D02*
X105245295Y-129728570D01*
X105245295Y-129728570D02*
X105150057Y-129680951D01*
X105150057Y-129680951D02*
X105102438Y-129633332D01*
X105102438Y-129633332D02*
X105054819Y-129538094D01*
X105054819Y-129538094D02*
X105054819Y-129347618D01*
X105054819Y-129347618D02*
X105102438Y-129252380D01*
X105102438Y-129252380D02*
X105150057Y-129204761D01*
X105150057Y-129204761D02*
X105245295Y-129157142D01*
X105245295Y-129157142D02*
X105292914Y-129157142D01*
X105292914Y-129157142D02*
X105388152Y-129204761D01*
X105388152Y-129204761D02*
X105435771Y-129252380D01*
X105435771Y-129252380D02*
X105483390Y-129347618D01*
X105483390Y-129347618D02*
X105483390Y-129538094D01*
X105483390Y-129538094D02*
X105531009Y-129633332D01*
X105531009Y-129633332D02*
X105578628Y-129680951D01*
X105578628Y-129680951D02*
X105673866Y-129728570D01*
X105673866Y-129728570D02*
X105864342Y-129728570D01*
X105864342Y-129728570D02*
X105959580Y-129680951D01*
X105959580Y-129680951D02*
X106007200Y-129633332D01*
X106007200Y-129633332D02*
X106054819Y-129538094D01*
X106054819Y-129538094D02*
X106054819Y-129347618D01*
X106054819Y-129347618D02*
X106007200Y-129252380D01*
X106007200Y-129252380D02*
X105959580Y-129204761D01*
X105959580Y-129204761D02*
X105864342Y-129157142D01*
X105864342Y-129157142D02*
X105673866Y-129157142D01*
X105673866Y-129157142D02*
X105578628Y-129204761D01*
X105578628Y-129204761D02*
X105531009Y-129252380D01*
X105531009Y-129252380D02*
X105483390Y-129347618D01*
X105054819Y-126509523D02*
X105769104Y-126509523D01*
X105769104Y-126509523D02*
X105911961Y-126557142D01*
X105911961Y-126557142D02*
X106007200Y-126652380D01*
X106007200Y-126652380D02*
X106054819Y-126795237D01*
X106054819Y-126795237D02*
X106054819Y-126890475D01*
X106054819Y-125509523D02*
X106054819Y-126080951D01*
X106054819Y-125795237D02*
X105054819Y-125795237D01*
X105054819Y-125795237D02*
X105197676Y-125890475D01*
X105197676Y-125890475D02*
X105292914Y-125985713D01*
X105292914Y-125985713D02*
X105340533Y-126080951D01*
X105054819Y-125176189D02*
X105054819Y-124509523D01*
X105054819Y-124509523D02*
X106054819Y-124938094D01*
X104954819Y-113409523D02*
X105669104Y-113409523D01*
X105669104Y-113409523D02*
X105811961Y-113457142D01*
X105811961Y-113457142D02*
X105907200Y-113552380D01*
X105907200Y-113552380D02*
X105954819Y-113695237D01*
X105954819Y-113695237D02*
X105954819Y-113790475D01*
X105954819Y-112409523D02*
X105954819Y-112980951D01*
X105954819Y-112695237D02*
X104954819Y-112695237D01*
X104954819Y-112695237D02*
X105097676Y-112790475D01*
X105097676Y-112790475D02*
X105192914Y-112885713D01*
X105192914Y-112885713D02*
X105240533Y-112980951D01*
X104954819Y-111552380D02*
X104954819Y-111742856D01*
X104954819Y-111742856D02*
X105002438Y-111838094D01*
X105002438Y-111838094D02*
X105050057Y-111885713D01*
X105050057Y-111885713D02*
X105192914Y-111980951D01*
X105192914Y-111980951D02*
X105383390Y-112028570D01*
X105383390Y-112028570D02*
X105764342Y-112028570D01*
X105764342Y-112028570D02*
X105859580Y-111980951D01*
X105859580Y-111980951D02*
X105907200Y-111933332D01*
X105907200Y-111933332D02*
X105954819Y-111838094D01*
X105954819Y-111838094D02*
X105954819Y-111647618D01*
X105954819Y-111647618D02*
X105907200Y-111552380D01*
X105907200Y-111552380D02*
X105859580Y-111504761D01*
X105859580Y-111504761D02*
X105764342Y-111457142D01*
X105764342Y-111457142D02*
X105526247Y-111457142D01*
X105526247Y-111457142D02*
X105431009Y-111504761D01*
X105431009Y-111504761D02*
X105383390Y-111552380D01*
X105383390Y-111552380D02*
X105335771Y-111647618D01*
X105335771Y-111647618D02*
X105335771Y-111838094D01*
X105335771Y-111838094D02*
X105383390Y-111933332D01*
X105383390Y-111933332D02*
X105431009Y-111980951D01*
X105431009Y-111980951D02*
X105526247Y-112028570D01*
X104954819Y-108809523D02*
X105669104Y-108809523D01*
X105669104Y-108809523D02*
X105811961Y-108857142D01*
X105811961Y-108857142D02*
X105907200Y-108952380D01*
X105907200Y-108952380D02*
X105954819Y-109095237D01*
X105954819Y-109095237D02*
X105954819Y-109190475D01*
X105954819Y-107809523D02*
X105954819Y-108380951D01*
X105954819Y-108095237D02*
X104954819Y-108095237D01*
X104954819Y-108095237D02*
X105097676Y-108190475D01*
X105097676Y-108190475D02*
X105192914Y-108285713D01*
X105192914Y-108285713D02*
X105240533Y-108380951D01*
X104954819Y-106904761D02*
X104954819Y-107380951D01*
X104954819Y-107380951D02*
X105431009Y-107428570D01*
X105431009Y-107428570D02*
X105383390Y-107380951D01*
X105383390Y-107380951D02*
X105335771Y-107285713D01*
X105335771Y-107285713D02*
X105335771Y-107047618D01*
X105335771Y-107047618D02*
X105383390Y-106952380D01*
X105383390Y-106952380D02*
X105431009Y-106904761D01*
X105431009Y-106904761D02*
X105526247Y-106857142D01*
X105526247Y-106857142D02*
X105764342Y-106857142D01*
X105764342Y-106857142D02*
X105859580Y-106904761D01*
X105859580Y-106904761D02*
X105907200Y-106952380D01*
X105907200Y-106952380D02*
X105954819Y-107047618D01*
X105954819Y-107047618D02*
X105954819Y-107285713D01*
X105954819Y-107285713D02*
X105907200Y-107380951D01*
X105907200Y-107380951D02*
X105859580Y-107428570D01*
X164180952Y-60304819D02*
X163847619Y-59828628D01*
X163609524Y-60304819D02*
X163609524Y-59304819D01*
X163609524Y-59304819D02*
X163990476Y-59304819D01*
X163990476Y-59304819D02*
X164085714Y-59352438D01*
X164085714Y-59352438D02*
X164133333Y-59400057D01*
X164133333Y-59400057D02*
X164180952Y-59495295D01*
X164180952Y-59495295D02*
X164180952Y-59638152D01*
X164180952Y-59638152D02*
X164133333Y-59733390D01*
X164133333Y-59733390D02*
X164085714Y-59781009D01*
X164085714Y-59781009D02*
X163990476Y-59828628D01*
X163990476Y-59828628D02*
X163609524Y-59828628D01*
X164609524Y-60304819D02*
X164609524Y-59304819D01*
X164609524Y-59304819D02*
X164990476Y-59304819D01*
X164990476Y-59304819D02*
X165085714Y-59352438D01*
X165085714Y-59352438D02*
X165133333Y-59400057D01*
X165133333Y-59400057D02*
X165180952Y-59495295D01*
X165180952Y-59495295D02*
X165180952Y-59638152D01*
X165180952Y-59638152D02*
X165133333Y-59733390D01*
X165133333Y-59733390D02*
X165085714Y-59781009D01*
X165085714Y-59781009D02*
X164990476Y-59828628D01*
X164990476Y-59828628D02*
X164609524Y-59828628D01*
X165609524Y-60304819D02*
X165609524Y-59304819D01*
X165609524Y-59304819D02*
X165942857Y-60019104D01*
X165942857Y-60019104D02*
X166276190Y-59304819D01*
X166276190Y-59304819D02*
X166276190Y-60304819D01*
X166514286Y-60400057D02*
X167276190Y-60400057D01*
X168038095Y-60304819D02*
X167466667Y-60304819D01*
X167752381Y-60304819D02*
X167752381Y-59304819D01*
X167752381Y-59304819D02*
X167657143Y-59447676D01*
X167657143Y-59447676D02*
X167561905Y-59542914D01*
X167561905Y-59542914D02*
X167466667Y-59590533D01*
X169204761Y-59781009D02*
X168871428Y-59781009D01*
X168871428Y-60304819D02*
X168871428Y-59304819D01*
X168871428Y-59304819D02*
X169347618Y-59304819D01*
X169728571Y-59304819D02*
X169728571Y-60114342D01*
X169728571Y-60114342D02*
X169776190Y-60209580D01*
X169776190Y-60209580D02*
X169823809Y-60257200D01*
X169823809Y-60257200D02*
X169919047Y-60304819D01*
X169919047Y-60304819D02*
X170109523Y-60304819D01*
X170109523Y-60304819D02*
X170204761Y-60257200D01*
X170204761Y-60257200D02*
X170252380Y-60209580D01*
X170252380Y-60209580D02*
X170299999Y-60114342D01*
X170299999Y-60114342D02*
X170299999Y-59304819D01*
X170776190Y-59781009D02*
X171109523Y-59781009D01*
X171252380Y-60304819D02*
X170776190Y-60304819D01*
X170776190Y-60304819D02*
X170776190Y-59304819D01*
X170776190Y-59304819D02*
X171252380Y-59304819D01*
X172157142Y-60304819D02*
X171680952Y-60304819D01*
X171680952Y-60304819D02*
X171680952Y-59304819D01*
X172252381Y-60400057D02*
X173014285Y-60400057D01*
X173776190Y-60304819D02*
X173204762Y-60304819D01*
X173490476Y-60304819D02*
X173490476Y-59304819D01*
X173490476Y-59304819D02*
X173395238Y-59447676D01*
X173395238Y-59447676D02*
X173300000Y-59542914D01*
X173300000Y-59542914D02*
X173204762Y-59590533D01*
X175204762Y-59304819D02*
X175395238Y-59304819D01*
X175395238Y-59304819D02*
X175490476Y-59352438D01*
X175490476Y-59352438D02*
X175585714Y-59447676D01*
X175585714Y-59447676D02*
X175633333Y-59638152D01*
X175633333Y-59638152D02*
X175633333Y-59971485D01*
X175633333Y-59971485D02*
X175585714Y-60161961D01*
X175585714Y-60161961D02*
X175490476Y-60257200D01*
X175490476Y-60257200D02*
X175395238Y-60304819D01*
X175395238Y-60304819D02*
X175204762Y-60304819D01*
X175204762Y-60304819D02*
X175109524Y-60257200D01*
X175109524Y-60257200D02*
X175014286Y-60161961D01*
X175014286Y-60161961D02*
X174966667Y-59971485D01*
X174966667Y-59971485D02*
X174966667Y-59638152D01*
X174966667Y-59638152D02*
X175014286Y-59447676D01*
X175014286Y-59447676D02*
X175109524Y-59352438D01*
X175109524Y-59352438D02*
X175204762Y-59304819D01*
X176061905Y-60304819D02*
X176061905Y-59304819D01*
X177014285Y-60304819D02*
X176538095Y-60304819D01*
X176538095Y-60304819D02*
X176538095Y-59304819D01*
X177109524Y-60400057D02*
X177871428Y-60400057D01*
X178633333Y-60304819D02*
X178061905Y-60304819D01*
X178347619Y-60304819D02*
X178347619Y-59304819D01*
X178347619Y-59304819D02*
X178252381Y-59447676D01*
X178252381Y-59447676D02*
X178157143Y-59542914D01*
X178157143Y-59542914D02*
X178061905Y-59590533D01*
X179633333Y-59304819D02*
X180204761Y-59304819D01*
X179919047Y-60304819D02*
X179919047Y-59304819D01*
X180538095Y-59781009D02*
X180871428Y-59781009D01*
X181014285Y-60304819D02*
X180538095Y-60304819D01*
X180538095Y-60304819D02*
X180538095Y-59304819D01*
X180538095Y-59304819D02*
X181014285Y-59304819D01*
X181442857Y-60304819D02*
X181442857Y-59304819D01*
X181442857Y-59304819D02*
X181776190Y-60019104D01*
X181776190Y-60019104D02*
X182109523Y-59304819D01*
X182109523Y-59304819D02*
X182109523Y-60304819D01*
X182585714Y-60304819D02*
X182585714Y-59304819D01*
X182585714Y-59304819D02*
X182966666Y-59304819D01*
X182966666Y-59304819D02*
X183061904Y-59352438D01*
X183061904Y-59352438D02*
X183109523Y-59400057D01*
X183109523Y-59400057D02*
X183157142Y-59495295D01*
X183157142Y-59495295D02*
X183157142Y-59638152D01*
X183157142Y-59638152D02*
X183109523Y-59733390D01*
X183109523Y-59733390D02*
X183061904Y-59781009D01*
X183061904Y-59781009D02*
X182966666Y-59828628D01*
X182966666Y-59828628D02*
X182585714Y-59828628D01*
X183347619Y-60400057D02*
X184109523Y-60400057D01*
X184871428Y-60304819D02*
X184300000Y-60304819D01*
X184585714Y-60304819D02*
X184585714Y-59304819D01*
X184585714Y-59304819D02*
X184490476Y-59447676D01*
X184490476Y-59447676D02*
X184395238Y-59542914D01*
X184395238Y-59542914D02*
X184300000Y-59590533D01*
X178455714Y-91004819D02*
X177979524Y-91004819D01*
X177979524Y-91004819D02*
X177979524Y-90004819D01*
X179122381Y-90481009D02*
X179265238Y-90528628D01*
X179265238Y-90528628D02*
X179312857Y-90576247D01*
X179312857Y-90576247D02*
X179360476Y-90671485D01*
X179360476Y-90671485D02*
X179360476Y-90814342D01*
X179360476Y-90814342D02*
X179312857Y-90909580D01*
X179312857Y-90909580D02*
X179265238Y-90957200D01*
X179265238Y-90957200D02*
X179170000Y-91004819D01*
X179170000Y-91004819D02*
X178789048Y-91004819D01*
X178789048Y-91004819D02*
X178789048Y-90004819D01*
X178789048Y-90004819D02*
X179122381Y-90004819D01*
X179122381Y-90004819D02*
X179217619Y-90052438D01*
X179217619Y-90052438D02*
X179265238Y-90100057D01*
X179265238Y-90100057D02*
X179312857Y-90195295D01*
X179312857Y-90195295D02*
X179312857Y-90290533D01*
X179312857Y-90290533D02*
X179265238Y-90385771D01*
X179265238Y-90385771D02*
X179217619Y-90433390D01*
X179217619Y-90433390D02*
X179122381Y-90481009D01*
X179122381Y-90481009D02*
X178789048Y-90481009D01*
X180265238Y-91004819D02*
X179789048Y-91004819D01*
X179789048Y-91004819D02*
X179789048Y-90004819D01*
X180598572Y-91004819D02*
X180598572Y-90004819D01*
X181074762Y-91004819D02*
X181074762Y-90004819D01*
X181074762Y-90004819D02*
X181646190Y-91004819D01*
X181646190Y-91004819D02*
X181646190Y-90004819D01*
X182122381Y-91004819D02*
X182122381Y-90004819D01*
X182693809Y-91004819D02*
X182265238Y-90433390D01*
X182693809Y-90004819D02*
X182122381Y-90576247D01*
X182884286Y-91100057D02*
X183646190Y-91100057D01*
X184408095Y-91004819D02*
X183836667Y-91004819D01*
X184122381Y-91004819D02*
X184122381Y-90004819D01*
X184122381Y-90004819D02*
X184027143Y-90147676D01*
X184027143Y-90147676D02*
X183931905Y-90242914D01*
X183931905Y-90242914D02*
X183836667Y-90290533D01*
X97803333Y-62547200D02*
X97946190Y-62594819D01*
X97946190Y-62594819D02*
X98184285Y-62594819D01*
X98184285Y-62594819D02*
X98279523Y-62547200D01*
X98279523Y-62547200D02*
X98327142Y-62499580D01*
X98327142Y-62499580D02*
X98374761Y-62404342D01*
X98374761Y-62404342D02*
X98374761Y-62309104D01*
X98374761Y-62309104D02*
X98327142Y-62213866D01*
X98327142Y-62213866D02*
X98279523Y-62166247D01*
X98279523Y-62166247D02*
X98184285Y-62118628D01*
X98184285Y-62118628D02*
X97993809Y-62071009D01*
X97993809Y-62071009D02*
X97898571Y-62023390D01*
X97898571Y-62023390D02*
X97850952Y-61975771D01*
X97850952Y-61975771D02*
X97803333Y-61880533D01*
X97803333Y-61880533D02*
X97803333Y-61785295D01*
X97803333Y-61785295D02*
X97850952Y-61690057D01*
X97850952Y-61690057D02*
X97898571Y-61642438D01*
X97898571Y-61642438D02*
X97993809Y-61594819D01*
X97993809Y-61594819D02*
X98231904Y-61594819D01*
X98231904Y-61594819D02*
X98374761Y-61642438D01*
X98803333Y-62594819D02*
X98803333Y-61594819D01*
X98803333Y-61594819D02*
X99184285Y-61594819D01*
X99184285Y-61594819D02*
X99279523Y-61642438D01*
X99279523Y-61642438D02*
X99327142Y-61690057D01*
X99327142Y-61690057D02*
X99374761Y-61785295D01*
X99374761Y-61785295D02*
X99374761Y-61928152D01*
X99374761Y-61928152D02*
X99327142Y-62023390D01*
X99327142Y-62023390D02*
X99279523Y-62071009D01*
X99279523Y-62071009D02*
X99184285Y-62118628D01*
X99184285Y-62118628D02*
X98803333Y-62118628D01*
X99803333Y-62071009D02*
X100136666Y-62071009D01*
X100279523Y-62594819D02*
X99803333Y-62594819D01*
X99803333Y-62594819D02*
X99803333Y-61594819D01*
X99803333Y-61594819D02*
X100279523Y-61594819D01*
X100708095Y-62071009D02*
X101041428Y-62071009D01*
X101184285Y-62594819D02*
X100708095Y-62594819D01*
X100708095Y-62594819D02*
X100708095Y-61594819D01*
X100708095Y-61594819D02*
X101184285Y-61594819D01*
X101612857Y-62594819D02*
X101612857Y-61594819D01*
X101612857Y-61594819D02*
X101850952Y-61594819D01*
X101850952Y-61594819D02*
X101993809Y-61642438D01*
X101993809Y-61642438D02*
X102089047Y-61737676D01*
X102089047Y-61737676D02*
X102136666Y-61832914D01*
X102136666Y-61832914D02*
X102184285Y-62023390D01*
X102184285Y-62023390D02*
X102184285Y-62166247D01*
X102184285Y-62166247D02*
X102136666Y-62356723D01*
X102136666Y-62356723D02*
X102089047Y-62451961D01*
X102089047Y-62451961D02*
X101993809Y-62547200D01*
X101993809Y-62547200D02*
X101850952Y-62594819D01*
X101850952Y-62594819D02*
X101612857Y-62594819D01*
X102612857Y-62213866D02*
X103374762Y-62213866D01*
X103612857Y-62690057D02*
X104374761Y-62690057D01*
X105136666Y-62594819D02*
X104565238Y-62594819D01*
X104850952Y-62594819D02*
X104850952Y-61594819D01*
X104850952Y-61594819D02*
X104755714Y-61737676D01*
X104755714Y-61737676D02*
X104660476Y-61832914D01*
X104660476Y-61832914D02*
X104565238Y-61880533D01*
X97783333Y-73427200D02*
X97926190Y-73474819D01*
X97926190Y-73474819D02*
X98164285Y-73474819D01*
X98164285Y-73474819D02*
X98259523Y-73427200D01*
X98259523Y-73427200D02*
X98307142Y-73379580D01*
X98307142Y-73379580D02*
X98354761Y-73284342D01*
X98354761Y-73284342D02*
X98354761Y-73189104D01*
X98354761Y-73189104D02*
X98307142Y-73093866D01*
X98307142Y-73093866D02*
X98259523Y-73046247D01*
X98259523Y-73046247D02*
X98164285Y-72998628D01*
X98164285Y-72998628D02*
X97973809Y-72951009D01*
X97973809Y-72951009D02*
X97878571Y-72903390D01*
X97878571Y-72903390D02*
X97830952Y-72855771D01*
X97830952Y-72855771D02*
X97783333Y-72760533D01*
X97783333Y-72760533D02*
X97783333Y-72665295D01*
X97783333Y-72665295D02*
X97830952Y-72570057D01*
X97830952Y-72570057D02*
X97878571Y-72522438D01*
X97878571Y-72522438D02*
X97973809Y-72474819D01*
X97973809Y-72474819D02*
X98211904Y-72474819D01*
X98211904Y-72474819D02*
X98354761Y-72522438D01*
X98783333Y-73474819D02*
X98783333Y-72474819D01*
X98783333Y-72474819D02*
X99164285Y-72474819D01*
X99164285Y-72474819D02*
X99259523Y-72522438D01*
X99259523Y-72522438D02*
X99307142Y-72570057D01*
X99307142Y-72570057D02*
X99354761Y-72665295D01*
X99354761Y-72665295D02*
X99354761Y-72808152D01*
X99354761Y-72808152D02*
X99307142Y-72903390D01*
X99307142Y-72903390D02*
X99259523Y-72951009D01*
X99259523Y-72951009D02*
X99164285Y-72998628D01*
X99164285Y-72998628D02*
X98783333Y-72998628D01*
X99783333Y-72951009D02*
X100116666Y-72951009D01*
X100259523Y-73474819D02*
X99783333Y-73474819D01*
X99783333Y-73474819D02*
X99783333Y-72474819D01*
X99783333Y-72474819D02*
X100259523Y-72474819D01*
X100688095Y-72951009D02*
X101021428Y-72951009D01*
X101164285Y-73474819D02*
X100688095Y-73474819D01*
X100688095Y-73474819D02*
X100688095Y-72474819D01*
X100688095Y-72474819D02*
X101164285Y-72474819D01*
X101592857Y-73474819D02*
X101592857Y-72474819D01*
X101592857Y-72474819D02*
X101830952Y-72474819D01*
X101830952Y-72474819D02*
X101973809Y-72522438D01*
X101973809Y-72522438D02*
X102069047Y-72617676D01*
X102069047Y-72617676D02*
X102116666Y-72712914D01*
X102116666Y-72712914D02*
X102164285Y-72903390D01*
X102164285Y-72903390D02*
X102164285Y-73046247D01*
X102164285Y-73046247D02*
X102116666Y-73236723D01*
X102116666Y-73236723D02*
X102069047Y-73331961D01*
X102069047Y-73331961D02*
X101973809Y-73427200D01*
X101973809Y-73427200D02*
X101830952Y-73474819D01*
X101830952Y-73474819D02*
X101592857Y-73474819D01*
X102592857Y-73093866D02*
X103354762Y-73093866D01*
X102973809Y-73474819D02*
X102973809Y-72712914D01*
X103592857Y-73570057D02*
X104354761Y-73570057D01*
X105116666Y-73474819D02*
X104545238Y-73474819D01*
X104830952Y-73474819D02*
X104830952Y-72474819D01*
X104830952Y-72474819D02*
X104735714Y-72617676D01*
X104735714Y-72617676D02*
X104640476Y-72712914D01*
X104640476Y-72712914D02*
X104545238Y-72760533D01*
X181084819Y-67256666D02*
X180608628Y-67589999D01*
X181084819Y-67828094D02*
X180084819Y-67828094D01*
X180084819Y-67828094D02*
X180084819Y-67447142D01*
X180084819Y-67447142D02*
X180132438Y-67351904D01*
X180132438Y-67351904D02*
X180180057Y-67304285D01*
X180180057Y-67304285D02*
X180275295Y-67256666D01*
X180275295Y-67256666D02*
X180418152Y-67256666D01*
X180418152Y-67256666D02*
X180513390Y-67304285D01*
X180513390Y-67304285D02*
X180561009Y-67351904D01*
X180561009Y-67351904D02*
X180608628Y-67447142D01*
X180608628Y-67447142D02*
X180608628Y-67828094D01*
X180084819Y-66351904D02*
X180084819Y-66828094D01*
X180084819Y-66828094D02*
X180561009Y-66875713D01*
X180561009Y-66875713D02*
X180513390Y-66828094D01*
X180513390Y-66828094D02*
X180465771Y-66732856D01*
X180465771Y-66732856D02*
X180465771Y-66494761D01*
X180465771Y-66494761D02*
X180513390Y-66399523D01*
X180513390Y-66399523D02*
X180561009Y-66351904D01*
X180561009Y-66351904D02*
X180656247Y-66304285D01*
X180656247Y-66304285D02*
X180894342Y-66304285D01*
X180894342Y-66304285D02*
X180989580Y-66351904D01*
X180989580Y-66351904D02*
X181037200Y-66399523D01*
X181037200Y-66399523D02*
X181084819Y-66494761D01*
X181084819Y-66494761D02*
X181084819Y-66732856D01*
X181084819Y-66732856D02*
X181037200Y-66828094D01*
X181037200Y-66828094D02*
X180989580Y-66875713D01*
X175584819Y-67276666D02*
X175108628Y-67609999D01*
X175584819Y-67848094D02*
X174584819Y-67848094D01*
X174584819Y-67848094D02*
X174584819Y-67467142D01*
X174584819Y-67467142D02*
X174632438Y-67371904D01*
X174632438Y-67371904D02*
X174680057Y-67324285D01*
X174680057Y-67324285D02*
X174775295Y-67276666D01*
X174775295Y-67276666D02*
X174918152Y-67276666D01*
X174918152Y-67276666D02*
X175013390Y-67324285D01*
X175013390Y-67324285D02*
X175061009Y-67371904D01*
X175061009Y-67371904D02*
X175108628Y-67467142D01*
X175108628Y-67467142D02*
X175108628Y-67848094D01*
X174918152Y-66419523D02*
X175584819Y-66419523D01*
X174537200Y-66657618D02*
X175251485Y-66895713D01*
X175251485Y-66895713D02*
X175251485Y-66276666D01*
X170074819Y-67286666D02*
X169598628Y-67619999D01*
X170074819Y-67858094D02*
X169074819Y-67858094D01*
X169074819Y-67858094D02*
X169074819Y-67477142D01*
X169074819Y-67477142D02*
X169122438Y-67381904D01*
X169122438Y-67381904D02*
X169170057Y-67334285D01*
X169170057Y-67334285D02*
X169265295Y-67286666D01*
X169265295Y-67286666D02*
X169408152Y-67286666D01*
X169408152Y-67286666D02*
X169503390Y-67334285D01*
X169503390Y-67334285D02*
X169551009Y-67381904D01*
X169551009Y-67381904D02*
X169598628Y-67477142D01*
X169598628Y-67477142D02*
X169598628Y-67858094D01*
X169074819Y-66953332D02*
X169074819Y-66334285D01*
X169074819Y-66334285D02*
X169455771Y-66667618D01*
X169455771Y-66667618D02*
X169455771Y-66524761D01*
X169455771Y-66524761D02*
X169503390Y-66429523D01*
X169503390Y-66429523D02*
X169551009Y-66381904D01*
X169551009Y-66381904D02*
X169646247Y-66334285D01*
X169646247Y-66334285D02*
X169884342Y-66334285D01*
X169884342Y-66334285D02*
X169979580Y-66381904D01*
X169979580Y-66381904D02*
X170027200Y-66429523D01*
X170027200Y-66429523D02*
X170074819Y-66524761D01*
X170074819Y-66524761D02*
X170074819Y-66810475D01*
X170074819Y-66810475D02*
X170027200Y-66905713D01*
X170027200Y-66905713D02*
X169979580Y-66953332D01*
X183264819Y-103439166D02*
X182788628Y-103772499D01*
X183264819Y-104010594D02*
X182264819Y-104010594D01*
X182264819Y-104010594D02*
X182264819Y-103629642D01*
X182264819Y-103629642D02*
X182312438Y-103534404D01*
X182312438Y-103534404D02*
X182360057Y-103486785D01*
X182360057Y-103486785D02*
X182455295Y-103439166D01*
X182455295Y-103439166D02*
X182598152Y-103439166D01*
X182598152Y-103439166D02*
X182693390Y-103486785D01*
X182693390Y-103486785D02*
X182741009Y-103534404D01*
X182741009Y-103534404D02*
X182788628Y-103629642D01*
X182788628Y-103629642D02*
X182788628Y-104010594D01*
X182264819Y-103105832D02*
X182264819Y-102439166D01*
X182264819Y-102439166D02*
X183264819Y-102867737D01*
X178714819Y-94549166D02*
X178238628Y-94882499D01*
X178714819Y-95120594D02*
X177714819Y-95120594D01*
X177714819Y-95120594D02*
X177714819Y-94739642D01*
X177714819Y-94739642D02*
X177762438Y-94644404D01*
X177762438Y-94644404D02*
X177810057Y-94596785D01*
X177810057Y-94596785D02*
X177905295Y-94549166D01*
X177905295Y-94549166D02*
X178048152Y-94549166D01*
X178048152Y-94549166D02*
X178143390Y-94596785D01*
X178143390Y-94596785D02*
X178191009Y-94644404D01*
X178191009Y-94644404D02*
X178238628Y-94739642D01*
X178238628Y-94739642D02*
X178238628Y-95120594D01*
X177714819Y-93692023D02*
X177714819Y-93882499D01*
X177714819Y-93882499D02*
X177762438Y-93977737D01*
X177762438Y-93977737D02*
X177810057Y-94025356D01*
X177810057Y-94025356D02*
X177952914Y-94120594D01*
X177952914Y-94120594D02*
X178143390Y-94168213D01*
X178143390Y-94168213D02*
X178524342Y-94168213D01*
X178524342Y-94168213D02*
X178619580Y-94120594D01*
X178619580Y-94120594D02*
X178667200Y-94072975D01*
X178667200Y-94072975D02*
X178714819Y-93977737D01*
X178714819Y-93977737D02*
X178714819Y-93787261D01*
X178714819Y-93787261D02*
X178667200Y-93692023D01*
X178667200Y-93692023D02*
X178619580Y-93644404D01*
X178619580Y-93644404D02*
X178524342Y-93596785D01*
X178524342Y-93596785D02*
X178286247Y-93596785D01*
X178286247Y-93596785D02*
X178191009Y-93644404D01*
X178191009Y-93644404D02*
X178143390Y-93692023D01*
X178143390Y-93692023D02*
X178095771Y-93787261D01*
X178095771Y-93787261D02*
X178095771Y-93977737D01*
X178095771Y-93977737D02*
X178143390Y-94072975D01*
X178143390Y-94072975D02*
X178191009Y-94120594D01*
X178191009Y-94120594D02*
X178286247Y-94168213D01*
X114360476Y-60859819D02*
X114360476Y-61574104D01*
X114360476Y-61574104D02*
X114312857Y-61716961D01*
X114312857Y-61716961D02*
X114217619Y-61812200D01*
X114217619Y-61812200D02*
X114074762Y-61859819D01*
X114074762Y-61859819D02*
X113979524Y-61859819D01*
X115360476Y-61859819D02*
X114789048Y-61859819D01*
X115074762Y-61859819D02*
X115074762Y-60859819D01*
X115074762Y-60859819D02*
X114979524Y-61002676D01*
X114979524Y-61002676D02*
X114884286Y-61097914D01*
X114884286Y-61097914D02*
X114789048Y-61145533D01*
X115741429Y-60955057D02*
X115789048Y-60907438D01*
X115789048Y-60907438D02*
X115884286Y-60859819D01*
X115884286Y-60859819D02*
X116122381Y-60859819D01*
X116122381Y-60859819D02*
X116217619Y-60907438D01*
X116217619Y-60907438D02*
X116265238Y-60955057D01*
X116265238Y-60955057D02*
X116312857Y-61050295D01*
X116312857Y-61050295D02*
X116312857Y-61145533D01*
X116312857Y-61145533D02*
X116265238Y-61288390D01*
X116265238Y-61288390D02*
X115693810Y-61859819D01*
X115693810Y-61859819D02*
X116312857Y-61859819D01*
X180080833Y-109564819D02*
X179747500Y-109088628D01*
X179509405Y-109564819D02*
X179509405Y-108564819D01*
X179509405Y-108564819D02*
X179890357Y-108564819D01*
X179890357Y-108564819D02*
X179985595Y-108612438D01*
X179985595Y-108612438D02*
X180033214Y-108660057D01*
X180033214Y-108660057D02*
X180080833Y-108755295D01*
X180080833Y-108755295D02*
X180080833Y-108898152D01*
X180080833Y-108898152D02*
X180033214Y-108993390D01*
X180033214Y-108993390D02*
X179985595Y-109041009D01*
X179985595Y-109041009D02*
X179890357Y-109088628D01*
X179890357Y-109088628D02*
X179509405Y-109088628D01*
X180557024Y-109564819D02*
X180747500Y-109564819D01*
X180747500Y-109564819D02*
X180842738Y-109517200D01*
X180842738Y-109517200D02*
X180890357Y-109469580D01*
X180890357Y-109469580D02*
X180985595Y-109326723D01*
X180985595Y-109326723D02*
X181033214Y-109136247D01*
X181033214Y-109136247D02*
X181033214Y-108755295D01*
X181033214Y-108755295D02*
X180985595Y-108660057D01*
X180985595Y-108660057D02*
X180937976Y-108612438D01*
X180937976Y-108612438D02*
X180842738Y-108564819D01*
X180842738Y-108564819D02*
X180652262Y-108564819D01*
X180652262Y-108564819D02*
X180557024Y-108612438D01*
X180557024Y-108612438D02*
X180509405Y-108660057D01*
X180509405Y-108660057D02*
X180461786Y-108755295D01*
X180461786Y-108755295D02*
X180461786Y-108993390D01*
X180461786Y-108993390D02*
X180509405Y-109088628D01*
X180509405Y-109088628D02*
X180557024Y-109136247D01*
X180557024Y-109136247D02*
X180652262Y-109183866D01*
X180652262Y-109183866D02*
X180842738Y-109183866D01*
X180842738Y-109183866D02*
X180937976Y-109136247D01*
X180937976Y-109136247D02*
X180985595Y-109088628D01*
X180985595Y-109088628D02*
X181033214Y-108993390D01*
X147374819Y-68036904D02*
X148184342Y-68036904D01*
X148184342Y-68036904D02*
X148279580Y-67989285D01*
X148279580Y-67989285D02*
X148327200Y-67941666D01*
X148327200Y-67941666D02*
X148374819Y-67846428D01*
X148374819Y-67846428D02*
X148374819Y-67655952D01*
X148374819Y-67655952D02*
X148327200Y-67560714D01*
X148327200Y-67560714D02*
X148279580Y-67513095D01*
X148279580Y-67513095D02*
X148184342Y-67465476D01*
X148184342Y-67465476D02*
X147374819Y-67465476D01*
X148374819Y-66465476D02*
X148374819Y-67036904D01*
X148374819Y-66751190D02*
X147374819Y-66751190D01*
X147374819Y-66751190D02*
X147517676Y-66846428D01*
X147517676Y-66846428D02*
X147612914Y-66941666D01*
X147612914Y-66941666D02*
X147660533Y-67036904D01*
X167874819Y-67154166D02*
X167398628Y-67487499D01*
X167874819Y-67725594D02*
X166874819Y-67725594D01*
X166874819Y-67725594D02*
X166874819Y-67344642D01*
X166874819Y-67344642D02*
X166922438Y-67249404D01*
X166922438Y-67249404D02*
X166970057Y-67201785D01*
X166970057Y-67201785D02*
X167065295Y-67154166D01*
X167065295Y-67154166D02*
X167208152Y-67154166D01*
X167208152Y-67154166D02*
X167303390Y-67201785D01*
X167303390Y-67201785D02*
X167351009Y-67249404D01*
X167351009Y-67249404D02*
X167398628Y-67344642D01*
X167398628Y-67344642D02*
X167398628Y-67725594D01*
X167874819Y-66201785D02*
X167874819Y-66773213D01*
X167874819Y-66487499D02*
X166874819Y-66487499D01*
X166874819Y-66487499D02*
X167017676Y-66582737D01*
X167017676Y-66582737D02*
X167112914Y-66677975D01*
X167112914Y-66677975D02*
X167160533Y-66773213D01*
X167874819Y-71854166D02*
X167398628Y-72187499D01*
X167874819Y-72425594D02*
X166874819Y-72425594D01*
X166874819Y-72425594D02*
X166874819Y-72044642D01*
X166874819Y-72044642D02*
X166922438Y-71949404D01*
X166922438Y-71949404D02*
X166970057Y-71901785D01*
X166970057Y-71901785D02*
X167065295Y-71854166D01*
X167065295Y-71854166D02*
X167208152Y-71854166D01*
X167208152Y-71854166D02*
X167303390Y-71901785D01*
X167303390Y-71901785D02*
X167351009Y-71949404D01*
X167351009Y-71949404D02*
X167398628Y-72044642D01*
X167398628Y-72044642D02*
X167398628Y-72425594D01*
X166970057Y-71473213D02*
X166922438Y-71425594D01*
X166922438Y-71425594D02*
X166874819Y-71330356D01*
X166874819Y-71330356D02*
X166874819Y-71092261D01*
X166874819Y-71092261D02*
X166922438Y-70997023D01*
X166922438Y-70997023D02*
X166970057Y-70949404D01*
X166970057Y-70949404D02*
X167065295Y-70901785D01*
X167065295Y-70901785D02*
X167160533Y-70901785D01*
X167160533Y-70901785D02*
X167303390Y-70949404D01*
X167303390Y-70949404D02*
X167874819Y-71520832D01*
X167874819Y-71520832D02*
X167874819Y-70901785D01*
X178724819Y-99189166D02*
X178248628Y-99522499D01*
X178724819Y-99760594D02*
X177724819Y-99760594D01*
X177724819Y-99760594D02*
X177724819Y-99379642D01*
X177724819Y-99379642D02*
X177772438Y-99284404D01*
X177772438Y-99284404D02*
X177820057Y-99236785D01*
X177820057Y-99236785D02*
X177915295Y-99189166D01*
X177915295Y-99189166D02*
X178058152Y-99189166D01*
X178058152Y-99189166D02*
X178153390Y-99236785D01*
X178153390Y-99236785D02*
X178201009Y-99284404D01*
X178201009Y-99284404D02*
X178248628Y-99379642D01*
X178248628Y-99379642D02*
X178248628Y-99760594D01*
X178153390Y-98617737D02*
X178105771Y-98712975D01*
X178105771Y-98712975D02*
X178058152Y-98760594D01*
X178058152Y-98760594D02*
X177962914Y-98808213D01*
X177962914Y-98808213D02*
X177915295Y-98808213D01*
X177915295Y-98808213D02*
X177820057Y-98760594D01*
X177820057Y-98760594D02*
X177772438Y-98712975D01*
X177772438Y-98712975D02*
X177724819Y-98617737D01*
X177724819Y-98617737D02*
X177724819Y-98427261D01*
X177724819Y-98427261D02*
X177772438Y-98332023D01*
X177772438Y-98332023D02*
X177820057Y-98284404D01*
X177820057Y-98284404D02*
X177915295Y-98236785D01*
X177915295Y-98236785D02*
X177962914Y-98236785D01*
X177962914Y-98236785D02*
X178058152Y-98284404D01*
X178058152Y-98284404D02*
X178105771Y-98332023D01*
X178105771Y-98332023D02*
X178153390Y-98427261D01*
X178153390Y-98427261D02*
X178153390Y-98617737D01*
X178153390Y-98617737D02*
X178201009Y-98712975D01*
X178201009Y-98712975D02*
X178248628Y-98760594D01*
X178248628Y-98760594D02*
X178343866Y-98808213D01*
X178343866Y-98808213D02*
X178534342Y-98808213D01*
X178534342Y-98808213D02*
X178629580Y-98760594D01*
X178629580Y-98760594D02*
X178677200Y-98712975D01*
X178677200Y-98712975D02*
X178724819Y-98617737D01*
X178724819Y-98617737D02*
X178724819Y-98427261D01*
X178724819Y-98427261D02*
X178677200Y-98332023D01*
X178677200Y-98332023D02*
X178629580Y-98284404D01*
X178629580Y-98284404D02*
X178534342Y-98236785D01*
X178534342Y-98236785D02*
X178343866Y-98236785D01*
X178343866Y-98236785D02*
X178248628Y-98284404D01*
X178248628Y-98284404D02*
X178201009Y-98332023D01*
X178201009Y-98332023D02*
X178153390Y-98427261D01*
X107676666Y-91144819D02*
X107676666Y-91859104D01*
X107676666Y-91859104D02*
X107629047Y-92001961D01*
X107629047Y-92001961D02*
X107533809Y-92097200D01*
X107533809Y-92097200D02*
X107390952Y-92144819D01*
X107390952Y-92144819D02*
X107295714Y-92144819D01*
X108629047Y-91144819D02*
X108152857Y-91144819D01*
X108152857Y-91144819D02*
X108105238Y-91621009D01*
X108105238Y-91621009D02*
X108152857Y-91573390D01*
X108152857Y-91573390D02*
X108248095Y-91525771D01*
X108248095Y-91525771D02*
X108486190Y-91525771D01*
X108486190Y-91525771D02*
X108581428Y-91573390D01*
X108581428Y-91573390D02*
X108629047Y-91621009D01*
X108629047Y-91621009D02*
X108676666Y-91716247D01*
X108676666Y-91716247D02*
X108676666Y-91954342D01*
X108676666Y-91954342D02*
X108629047Y-92049580D01*
X108629047Y-92049580D02*
X108581428Y-92097200D01*
X108581428Y-92097200D02*
X108486190Y-92144819D01*
X108486190Y-92144819D02*
X108248095Y-92144819D01*
X108248095Y-92144819D02*
X108152857Y-92097200D01*
X108152857Y-92097200D02*
X108105238Y-92049580D01*
X106610476Y-60859819D02*
X106610476Y-61574104D01*
X106610476Y-61574104D02*
X106562857Y-61716961D01*
X106562857Y-61716961D02*
X106467619Y-61812200D01*
X106467619Y-61812200D02*
X106324762Y-61859819D01*
X106324762Y-61859819D02*
X106229524Y-61859819D01*
X107610476Y-61859819D02*
X107039048Y-61859819D01*
X107324762Y-61859819D02*
X107324762Y-60859819D01*
X107324762Y-60859819D02*
X107229524Y-61002676D01*
X107229524Y-61002676D02*
X107134286Y-61097914D01*
X107134286Y-61097914D02*
X107039048Y-61145533D01*
X108562857Y-61859819D02*
X107991429Y-61859819D01*
X108277143Y-61859819D02*
X108277143Y-60859819D01*
X108277143Y-60859819D02*
X108181905Y-61002676D01*
X108181905Y-61002676D02*
X108086667Y-61097914D01*
X108086667Y-61097914D02*
X107991429Y-61145533D01*
D11*
%TO.C,F2*%
X125900000Y-60945000D02*
X125900000Y-61725000D01*
X125900000Y-60945000D02*
X134100000Y-60945000D01*
X125900000Y-66605000D02*
X125900000Y-65825000D01*
X125900000Y-66605000D02*
X134100000Y-66605000D01*
X134100000Y-60945000D02*
X134100000Y-61725000D01*
X134100000Y-66605000D02*
X134100000Y-65825000D01*
%TO.C,D2*%
X141290000Y-83200000D02*
X141320000Y-83200000D01*
X141320000Y-80415000D02*
X141320000Y-85985000D01*
X141320000Y-85985000D02*
X151080000Y-85985000D01*
X142748000Y-80415000D02*
X142748000Y-85985000D01*
X142868000Y-80415000D02*
X142868000Y-85985000D01*
X142988000Y-80415000D02*
X142988000Y-85985000D01*
X151080000Y-80415000D02*
X141320000Y-80415000D01*
X151080000Y-85985000D02*
X151080000Y-80415000D01*
X151110000Y-83200000D02*
X151080000Y-83200000D01*
%TO.C,L1*%
X184700000Y-72550000D02*
X184700000Y-85150000D01*
X181700000Y-72550000D02*
X184700000Y-72550000D01*
X172100000Y-72550000D02*
X175100000Y-72550000D01*
X184700000Y-85150000D02*
X181700000Y-85150000D01*
X175100000Y-85150000D02*
X172100000Y-85150000D01*
X172100000Y-85150000D02*
X172100000Y-72550000D01*
%TO.C,C2*%
X141960000Y-79760000D02*
X141960000Y-76910000D01*
X141960000Y-71040000D02*
X141960000Y-73890000D01*
X134304437Y-79760000D02*
X141960000Y-79760000D01*
X134304437Y-71040000D02*
X141960000Y-71040000D01*
X133240000Y-78695563D02*
X134304437Y-79760000D01*
X133240000Y-78695563D02*
X133240000Y-76910000D01*
X133240000Y-72104437D02*
X134304437Y-71040000D01*
X133240000Y-72104437D02*
X133240000Y-73890000D01*
X132500000Y-72390000D02*
X132500000Y-73390000D01*
X132000000Y-72890000D02*
X133000000Y-72890000D01*
%TO.C,C1*%
X136200000Y-62290000D02*
X137200000Y-62290000D01*
X136700000Y-61790000D02*
X136700000Y-62790000D01*
X137440000Y-61504437D02*
X137440000Y-63290000D01*
X137440000Y-61504437D02*
X138504437Y-60440000D01*
X137440000Y-68095563D02*
X137440000Y-66310000D01*
X137440000Y-68095563D02*
X138504437Y-69160000D01*
X138504437Y-60440000D02*
X146160000Y-60440000D01*
X138504437Y-69160000D02*
X146160000Y-69160000D01*
X146160000Y-60440000D02*
X146160000Y-63290000D01*
X146160000Y-69160000D02*
X146160000Y-66310000D01*
%TO.C,R5*%
X183015000Y-67317064D02*
X183015000Y-66862936D01*
X181545000Y-67317064D02*
X181545000Y-66862936D01*
%TO.C,R4*%
X177515000Y-67337064D02*
X177515000Y-66882936D01*
X176045000Y-67337064D02*
X176045000Y-66882936D01*
%TO.C,R3*%
X172005000Y-67347064D02*
X172005000Y-66892936D01*
X170535000Y-67347064D02*
X170535000Y-66892936D01*
%TO.C,R7*%
X181895000Y-103045436D02*
X181895000Y-103499564D01*
X180425000Y-103045436D02*
X180425000Y-103499564D01*
%TO.C,R6*%
X177345000Y-94155436D02*
X177345000Y-94609564D01*
X175875000Y-94155436D02*
X175875000Y-94609564D01*
%TO.C,J12*%
X116500000Y-65445000D02*
X116500000Y-73125000D01*
X116500000Y-62845000D02*
X116500000Y-64175000D01*
X115170000Y-62845000D02*
X116500000Y-62845000D01*
X113840000Y-73125000D02*
X116500000Y-73125000D01*
X113840000Y-65445000D02*
X116500000Y-65445000D01*
X113840000Y-65445000D02*
X113840000Y-73125000D01*
%TO.C,R9*%
X180474564Y-108195000D02*
X180020436Y-108195000D01*
X180474564Y-106725000D02*
X180020436Y-106725000D01*
%TO.C,U1*%
X150320000Y-74662500D02*
X149990000Y-74902500D01*
X149990000Y-74422500D01*
X150320000Y-74662500D01*
G36*
X150320000Y-74662500D02*
G01*
X149990000Y-74902500D01*
X149990000Y-74422500D01*
X150320000Y-74662500D01*
G37*
X159770000Y-72100000D02*
X158820000Y-72100000D01*
X159770000Y-70600000D02*
X159770000Y-72100000D01*
X149370000Y-72100000D02*
X150320000Y-72100000D01*
X149370000Y-70600000D02*
X149370000Y-72100000D01*
%TO.C,R1*%
X166505000Y-66760436D02*
X166505000Y-67214564D01*
X165035000Y-66760436D02*
X165035000Y-67214564D01*
%TO.C,R2*%
X166505000Y-71460436D02*
X166505000Y-71914564D01*
X165035000Y-71460436D02*
X165035000Y-71914564D01*
%TO.C,R8*%
X177355000Y-98795436D02*
X177355000Y-99249564D01*
X175885000Y-98795436D02*
X175885000Y-99249564D01*
%TO.C,J5*%
X107700000Y-92845000D02*
X107700000Y-143765000D01*
X107700000Y-92845000D02*
X110300000Y-92845000D01*
X107700000Y-143765000D02*
X112900000Y-143765000D01*
X110300000Y-92845000D02*
X110300000Y-95445000D01*
X110300000Y-95445000D02*
X112900000Y-95445000D01*
X111570000Y-92845000D02*
X112900000Y-92845000D01*
X112900000Y-92845000D02*
X112900000Y-94175000D01*
X112900000Y-95445000D02*
X112900000Y-143765000D01*
%TO.C,J11*%
X108750000Y-65445000D02*
X108750000Y-73125000D01*
X108750000Y-62845000D02*
X108750000Y-64175000D01*
X107420000Y-62845000D02*
X108750000Y-62845000D01*
X106090000Y-73125000D02*
X108750000Y-73125000D01*
X106090000Y-65445000D02*
X108750000Y-65445000D01*
X106090000Y-65445000D02*
X106090000Y-73125000D01*
%TD*%
%LPC*%
D12*
%TO.C,F2*%
X126300000Y-63775000D03*
X133700000Y-63775000D03*
%TD*%
D13*
%TO.C,D2*%
X139850000Y-83200000D03*
D14*
X152550000Y-83200000D03*
%TD*%
D15*
%TO.C,L1*%
X178400000Y-73900000D03*
X178400000Y-83800000D03*
%TD*%
D16*
%TO.C,C2*%
X141300000Y-75400000D03*
X133900000Y-75400000D03*
%TD*%
%TO.C,C1*%
X138100000Y-64800000D03*
X145500000Y-64800000D03*
%TD*%
D17*
%TO.C,RBLINK_1*%
X181200000Y-98100000D03*
%TD*%
%TO.C,VIN1*%
X128000000Y-71800000D03*
%TD*%
%TO.C,GND1*%
X128000000Y-77700000D03*
%TD*%
%TO.C,J27*%
X97200000Y-143300000D03*
%TD*%
%TO.C,J26*%
X97200000Y-138700000D03*
%TD*%
%TO.C,J25*%
X97200000Y-134100000D03*
%TD*%
%TO.C,J24*%
X97200000Y-119500000D03*
%TD*%
%TO.C,J23*%
X97200000Y-106900000D03*
%TD*%
%TO.C,J21*%
X97300000Y-94700000D03*
%TD*%
%TO.C,J20*%
X102300000Y-140000000D03*
%TD*%
%TO.C,J19*%
X102300000Y-134900000D03*
%TD*%
%TO.C,J18*%
X102300000Y-130300000D03*
%TD*%
%TO.C,J17*%
X102300000Y-125700000D03*
%TD*%
%TO.C,J16*%
X102300000Y-112600000D03*
%TD*%
%TO.C,J15*%
X102300000Y-108000000D03*
%TD*%
%TO.C,RPM_1*%
X165800000Y-62800000D03*
%TD*%
%TO.C,FUEL_1*%
X171300000Y-62800000D03*
%TD*%
%TO.C,OIL_1*%
X176800000Y-62800000D03*
%TD*%
%TO.C,TEMP_1*%
X182300000Y-62800000D03*
%TD*%
%TO.C,LBLINK_1*%
X181170000Y-93500000D03*
%TD*%
%TO.C,SPEED-_1*%
X101470000Y-65090000D03*
%TD*%
D18*
%TO.C,SPEED+_1*%
X101450000Y-70070000D03*
%TD*%
D19*
%TO.C,R5*%
X182280000Y-66177500D03*
X182280000Y-68002500D03*
%TD*%
%TO.C,R4*%
X176780000Y-66197500D03*
X176780000Y-68022500D03*
%TD*%
%TO.C,R3*%
X171270000Y-66207500D03*
X171270000Y-68032500D03*
%TD*%
D20*
%TO.C,R7*%
X181160000Y-104185000D03*
X181160000Y-102360000D03*
%TD*%
%TO.C,R6*%
X176610000Y-95295000D03*
X176610000Y-93470000D03*
%TD*%
D21*
%TO.C,J12*%
X115170000Y-71795000D03*
X115170000Y-69255000D03*
X115170000Y-66715000D03*
D22*
X115170000Y-64175000D03*
%TD*%
D23*
%TO.C,R9*%
X179335000Y-107460000D03*
X181160000Y-107460000D03*
%TD*%
D24*
%TO.C,U1*%
X157970000Y-74925000D03*
X156270000Y-74925000D03*
D25*
X154570000Y-65775000D03*
D24*
X154570000Y-74925000D03*
X152870000Y-74925000D03*
X151170000Y-74925000D03*
%TD*%
D20*
%TO.C,R1*%
X165770000Y-67900000D03*
X165770000Y-66075000D03*
%TD*%
%TO.C,R2*%
X165770000Y-72600000D03*
X165770000Y-70775000D03*
%TD*%
%TO.C,R8*%
X176620000Y-99935000D03*
X176620000Y-98110000D03*
%TD*%
D22*
%TO.C,J5*%
X111570000Y-94175000D03*
D21*
X109030000Y-94175000D03*
X111570000Y-96715000D03*
X109030000Y-96715000D03*
X111570000Y-99255000D03*
X109030000Y-99255000D03*
X111570000Y-101795000D03*
X109030000Y-101795000D03*
X111570000Y-104335000D03*
X109030000Y-104335000D03*
X111570000Y-106875000D03*
X109030000Y-106875000D03*
X111570000Y-109415000D03*
X109030000Y-109415000D03*
X111570000Y-111955000D03*
X109030000Y-111955000D03*
X111570000Y-114495000D03*
X109030000Y-114495000D03*
X111570000Y-117035000D03*
X109030000Y-117035000D03*
X111570000Y-119575000D03*
X109030000Y-119575000D03*
X111570000Y-122115000D03*
X109030000Y-122115000D03*
X111570000Y-124655000D03*
X109030000Y-124655000D03*
X111570000Y-127195000D03*
X109030000Y-127195000D03*
X111570000Y-129735000D03*
X109030000Y-129735000D03*
X111570000Y-132275000D03*
X109030000Y-132275000D03*
X111570000Y-134815000D03*
X109030000Y-134815000D03*
X111570000Y-137355000D03*
X109030000Y-137355000D03*
X111570000Y-139895000D03*
X109030000Y-139895000D03*
X111570000Y-142435000D03*
X109030000Y-142435000D03*
%TD*%
%TO.C,J3*%
X166320000Y-129205000D03*
X166320000Y-126665000D03*
X166320000Y-124125000D03*
X166320000Y-121585000D03*
X166320000Y-119045000D03*
X166320000Y-116505000D03*
X166320000Y-113965000D03*
D22*
X166320000Y-111425000D03*
%TD*%
D21*
%TO.C,J2*%
X117820000Y-111955000D03*
X117820000Y-109415000D03*
X117820000Y-106875000D03*
X117820000Y-104335000D03*
X117820000Y-101795000D03*
X117820000Y-99255000D03*
X117820000Y-96715000D03*
D22*
X117820000Y-94175000D03*
%TD*%
D21*
%TO.C,J4*%
X166320000Y-106875000D03*
X166320000Y-104335000D03*
X166320000Y-101795000D03*
X166320000Y-99255000D03*
X166320000Y-96715000D03*
D22*
X166320000Y-94175000D03*
%TD*%
D21*
%TO.C,J1*%
X117820000Y-138535000D03*
X117820000Y-135995000D03*
X117820000Y-133455000D03*
X117820000Y-130915000D03*
X117820000Y-128375000D03*
X117820000Y-125835000D03*
X117820000Y-123295000D03*
X117820000Y-120755000D03*
X117820000Y-118215000D03*
D22*
X117820000Y-115675000D03*
%TD*%
D21*
%TO.C,J11*%
X107420000Y-71795000D03*
X107420000Y-69255000D03*
X107420000Y-66715000D03*
D22*
X107420000Y-64175000D03*
%TD*%
%LPD*%
M02*
