M48
; DRILL file {KiCad 8.0.2} date 2024-05-02T20:14:49+0200
; FORMAT={-:-/ absolute / inch / decimal}
; #@! TF.CreationDate,2024-05-02T20:14:49+02:00
; #@! TF.GenerationSoftware,Kicad,Pcbnew,8.0.2
; #@! TF.FileFunction,Plated,1,2,PTH
FMAT,2
INCH
; #@! TA.AperFunction,Plated,PTH,ViaDrill
T1C0.0118
; #@! TA.AperFunction,Plated,PTH,ComponentDrill
T2C0.0315
; #@! TA.AperFunction,Plated,PTH,ComponentDrill
T3C0.0394
%
G90
G05
T1
X0.2035Y0.4385
X0.275Y0.775
X0.2791Y0.1541
X0.5375Y0.4714
X0.725Y0.75
X0.775Y0.275
T2
X0.3625Y0.65
X0.3625Y0.55
X0.3625Y0.45
X0.3625Y0.35
X0.375Y0.8
X0.4Y0.2618
X0.5Y0.75
X0.5Y0.2618
X0.6Y0.2618
X0.6625Y0.65
X0.6625Y0.55
X0.6625Y0.45
X0.6625Y0.35
X0.675Y0.8
X0.8Y0.75
T3
X0.35Y0.175
X0.45Y0.175
X0.55Y0.175
X0.65Y0.175
M30
