ISO-10303-21;
HEADER;
FILE_DESCRIPTION(('FreeCAD Model'),'2;1');
FILE_NAME('Open CASCADE Shape Model','2026-04-24T15:24:19',(''),(''),
  'Open CASCADE STEP processor 7.8','FreeCAD','Unknown');
FILE_SCHEMA(('AUTOMOTIVE_DESIGN { 1 0 10303 214 1 1 1 1 }'));
ENDSEC;
DATA;
#1 = APPLICATION_PROTOCOL_DEFINITION('international standard',
  'automotive_design',2000,#2);
#2 = APPLICATION_CONTEXT(
  'core data for automotive mechanical design processes');
#3 = SHAPE_DEFINITION_REPRESENTATION(#4,#10);
#4 = PRODUCT_DEFINITION_SHAPE('','',#5);
#5 = PRODUCT_DEFINITION('design','',#6,#9);
#6 = PRODUCT_DEFINITION_FORMATION('','',#7);
#7 = PRODUCT('Body','Body','',(#8));
#8 = PRODUCT_CONTEXT('',#2,'mechanical');
#9 = PRODUCT_DEFINITION_CONTEXT('part definition',#2,'design');
#10 = ADVANCED_BREP_SHAPE_REPRESENTATION('',(#11,#15),#312);
#11 = AXIS2_PLACEMENT_3D('',#12,#13,#14);
#12 = CARTESIAN_POINT('',(0.,0.,0.));
#13 = DIRECTION('',(0.,0.,1.));
#14 = DIRECTION('',(1.,0.,-0.));
#15 = MANIFOLD_SOLID_BREP('',#16);
#16 = CLOSED_SHELL('',(#17,#57,#93,#124,#160,#191,#227,#258,#279,#300));
#17 = ADVANCED_FACE('',(#18),#52,.F.);
#18 = FACE_BOUND('',#19,.F.);
#19 = EDGE_LOOP('',(#20,#30,#38,#46));
#20 = ORIENTED_EDGE('',*,*,#21,.T.);
#21 = EDGE_CURVE('',#22,#24,#26,.T.);
#22 = VERTEX_POINT('',#23);
#23 = CARTESIAN_POINT('',(26.95,-44.3078,0.));
#24 = VERTEX_POINT('',#25);
#25 = CARTESIAN_POINT('',(26.95,-44.3078,1.6));
#26 = LINE('',#27,#28);
#27 = CARTESIAN_POINT('',(26.95,-44.3078,0.));
#28 = VECTOR('',#29,1.);
#29 = DIRECTION('',(0.,0.,1.));
#30 = ORIENTED_EDGE('',*,*,#31,.T.);
#31 = EDGE_CURVE('',#24,#32,#34,.T.);
#32 = VERTEX_POINT('',#33);
#33 = CARTESIAN_POINT('',(27.689336320266,-42.36271956386,1.6));
#34 = LINE('',#35,#36);
#35 = CARTESIAN_POINT('',(26.95,-44.3078,1.6));
#36 = VECTOR('',#37,1.);
#37 = DIRECTION('',(0.355304162305,0.93475074338,0.));
#38 = ORIENTED_EDGE('',*,*,#39,.F.);
#39 = EDGE_CURVE('',#40,#32,#42,.T.);
#40 = VERTEX_POINT('',#41);
#41 = CARTESIAN_POINT('',(27.689336320266,-42.36271956386,0.));
#42 = LINE('',#43,#44);
#43 = CARTESIAN_POINT('',(27.689336320266,-42.36271956386,0.));
#44 = VECTOR('',#45,1.);
#45 = DIRECTION('',(0.,0.,1.));
#46 = ORIENTED_EDGE('',*,*,#47,.F.);
#47 = EDGE_CURVE('',#22,#40,#48,.T.);
#48 = LINE('',#49,#50);
#49 = CARTESIAN_POINT('',(26.95,-44.3078,0.));
#50 = VECTOR('',#51,1.);
#51 = DIRECTION('',(0.355304162305,0.93475074338,0.));
#52 = PLANE('',#53);
#53 = AXIS2_PLACEMENT_3D('',#54,#55,#56);
#54 = CARTESIAN_POINT('',(26.95,-44.3078,0.));
#55 = DIRECTION('',(-0.93475074338,0.355304162305,0.));
#56 = DIRECTION('',(0.355304162305,0.93475074338,0.));
#57 = ADVANCED_FACE('',(#58),#85,.F.);
#58 = FACE_BOUND('',#59,.F.);
#59 = EDGE_LOOP('',(#60,#61,#70,#78));
#60 = ORIENTED_EDGE('',*,*,#39,.T.);
#61 = ORIENTED_EDGE('',*,*,#62,.T.);
#62 = EDGE_CURVE('',#32,#63,#65,.T.);
#63 = VERTEX_POINT('',#64);
#64 = CARTESIAN_POINT('',(41.6787,-23.1006,1.6));
#65 = ELLIPSE('',#66,20.296406528225,20.295910540336);
#66 = AXIS2_PLACEMENT_3D('',#67,#68,#69);
#67 = CARTESIAN_POINT('',(21.382314194806,-23.07159726634,1.6));
#68 = DIRECTION('',(0.,-0.,1.));
#69 = DIRECTION('',(0.999999994889,1.011011739186E-04,0.));
#70 = ORIENTED_EDGE('',*,*,#71,.F.);
#71 = EDGE_CURVE('',#72,#63,#74,.T.);
#72 = VERTEX_POINT('',#73);
#73 = CARTESIAN_POINT('',(41.6787,-23.1006,0.));
#74 = LINE('',#75,#76);
#75 = CARTESIAN_POINT('',(41.6787,-23.1006,0.));
#76 = VECTOR('',#77,1.);
#77 = DIRECTION('',(0.,0.,1.));
#78 = ORIENTED_EDGE('',*,*,#79,.F.);
#79 = EDGE_CURVE('',#40,#72,#80,.T.);
#80 = ELLIPSE('',#81,20.296406528225,20.295910540336);
#81 = AXIS2_PLACEMENT_3D('',#82,#83,#84);
#82 = CARTESIAN_POINT('',(21.382314194806,-23.07159726634,0.));
#83 = DIRECTION('',(0.,-0.,1.));
#84 = DIRECTION('',(0.999999994889,1.011011739186E-04,0.));
#85 = SURFACE_OF_LINEAR_EXTRUSION('',#86,#91);
#86 = ELLIPSE('',#87,20.296406528225,20.295910540336);
#87 = AXIS2_PLACEMENT_3D('',#88,#89,#90);
#88 = CARTESIAN_POINT('',(21.382314194806,-23.07159726634,0.));
#89 = DIRECTION('',(0.,-0.,1.));
#90 = DIRECTION('',(0.999999994889,1.011011739186E-04,0.));
#91 = VECTOR('',#92,1.);
#92 = DIRECTION('',(-0.,-0.,-1.));
#93 = ADVANCED_FACE('',(#94),#119,.T.);
#94 = FACE_BOUND('',#95,.T.);
#95 = EDGE_LOOP('',(#96,#106,#112,#113));
#96 = ORIENTED_EDGE('',*,*,#97,.T.);
#97 = EDGE_CURVE('',#98,#100,#102,.T.);
#98 = VERTEX_POINT('',#99);
#99 = CARTESIAN_POINT('',(41.678700000021,-21.3278,0.));
#100 = VERTEX_POINT('',#101);
#101 = CARTESIAN_POINT('',(41.678700000021,-21.3278,1.6));
#102 = LINE('',#103,#104);
#103 = CARTESIAN_POINT('',(41.678700000021,-21.3278,0.));
#104 = VECTOR('',#105,1.);
#105 = DIRECTION('',(0.,0.,1.));
#106 = ORIENTED_EDGE('',*,*,#107,.T.);
#107 = EDGE_CURVE('',#100,#63,#108,.T.);
#108 = LINE('',#109,#110);
#109 = CARTESIAN_POINT('',(41.6787,-21.3278,1.6));
#110 = VECTOR('',#111,1.);
#111 = DIRECTION('',(0.,-1.,0.));
#112 = ORIENTED_EDGE('',*,*,#71,.F.);
#113 = ORIENTED_EDGE('',*,*,#114,.F.);
#114 = EDGE_CURVE('',#98,#72,#115,.T.);
#115 = LINE('',#116,#117);
#116 = CARTESIAN_POINT('',(41.6787,-21.3278,0.));
#117 = VECTOR('',#118,1.);
#118 = DIRECTION('',(0.,-1.,0.));
#119 = PLANE('',#120);
#120 = AXIS2_PLACEMENT_3D('',#121,#122,#123);
#121 = CARTESIAN_POINT('',(41.6787,-21.3278,0.));
#122 = DIRECTION('',(1.,0.,0.));
#123 = DIRECTION('',(0.,-1.,0.));
#124 = ADVANCED_FACE('',(#125),#152,.F.);
#125 = FACE_BOUND('',#126,.F.);
#126 = EDGE_LOOP('',(#127,#128,#137,#145));
#127 = ORIENTED_EDGE('',*,*,#97,.T.);
#128 = ORIENTED_EDGE('',*,*,#129,.T.);
#129 = EDGE_CURVE('',#100,#130,#132,.T.);
#130 = VERTEX_POINT('',#131);
#131 = CARTESIAN_POINT('',(1.185469888456,-21.3278,1.6));
#132 = ELLIPSE('',#133,20.246615055804,20.246503561603);
#133 = AXIS2_PLACEMENT_3D('',#134,#135,#136);
#134 = CARTESIAN_POINT('',(21.432084944238,-21.3278,1.6));
#135 = DIRECTION('',(0.,0.,1.));
#136 = DIRECTION('',(1.,0.,0.));
#137 = ORIENTED_EDGE('',*,*,#138,.F.);
#138 = EDGE_CURVE('',#139,#130,#141,.T.);
#139 = VERTEX_POINT('',#140);
#140 = CARTESIAN_POINT('',(1.185469888456,-21.3278,0.));
#141 = LINE('',#142,#143);
#142 = CARTESIAN_POINT('',(1.185469888456,-21.3278,0.));
#143 = VECTOR('',#144,1.);
#144 = DIRECTION('',(0.,0.,1.));
#145 = ORIENTED_EDGE('',*,*,#146,.F.);
#146 = EDGE_CURVE('',#98,#139,#147,.T.);
#147 = ELLIPSE('',#148,20.246615055804,20.246503561603);
#148 = AXIS2_PLACEMENT_3D('',#149,#150,#151);
#149 = CARTESIAN_POINT('',(21.432084944238,-21.3278,0.));
#150 = DIRECTION('',(0.,0.,1.));
#151 = DIRECTION('',(1.,0.,0.));
#152 = SURFACE_OF_LINEAR_EXTRUSION('',#153,#158);
#153 = ELLIPSE('',#154,20.246615055804,20.246503561603);
#154 = AXIS2_PLACEMENT_3D('',#155,#156,#157);
#155 = CARTESIAN_POINT('',(21.432084944238,-21.3278,0.));
#156 = DIRECTION('',(0.,0.,1.));
#157 = DIRECTION('',(1.,0.,-0.));
#158 = VECTOR('',#159,1.);
#159 = DIRECTION('',(-0.,-0.,-1.));
#160 = ADVANCED_FACE('',(#161),#186,.F.);
#161 = FACE_BOUND('',#162,.F.);
#162 = EDGE_LOOP('',(#163,#164,#172,#180));
#163 = ORIENTED_EDGE('',*,*,#138,.T.);
#164 = ORIENTED_EDGE('',*,*,#165,.T.);
#165 = EDGE_CURVE('',#130,#166,#168,.T.);
#166 = VERTEX_POINT('',#167);
#167 = CARTESIAN_POINT('',(1.185469888476,-23.03940196348,1.6));
#168 = LINE('',#169,#170);
#169 = CARTESIAN_POINT('',(1.185469888476,-21.3278,1.6));
#170 = VECTOR('',#171,1.);
#171 = DIRECTION('',(0.,-1.,0.));
#172 = ORIENTED_EDGE('',*,*,#173,.F.);
#173 = EDGE_CURVE('',#174,#166,#176,.T.);
#174 = VERTEX_POINT('',#175);
#175 = CARTESIAN_POINT('',(1.185469888476,-23.03940196348,0.));
#176 = LINE('',#177,#178);
#177 = CARTESIAN_POINT('',(1.185469888476,-23.03940196348,0.));
#178 = VECTOR('',#179,1.);
#179 = DIRECTION('',(0.,0.,1.));
#180 = ORIENTED_EDGE('',*,*,#181,.F.);
#181 = EDGE_CURVE('',#139,#174,#182,.T.);
#182 = LINE('',#183,#184);
#183 = CARTESIAN_POINT('',(1.185469888476,-21.3278,0.));
#184 = VECTOR('',#185,1.);
#185 = DIRECTION('',(0.,-1.,0.));
#186 = PLANE('',#187);
#187 = AXIS2_PLACEMENT_3D('',#188,#189,#190);
#188 = CARTESIAN_POINT('',(1.185469888476,-21.3278,0.));
#189 = DIRECTION('',(1.,0.,0.));
#190 = DIRECTION('',(0.,-1.,0.));
#191 = ADVANCED_FACE('',(#192),#219,.F.);
#192 = FACE_BOUND('',#193,.F.);
#193 = EDGE_LOOP('',(#194,#195,#204,#212));
#194 = ORIENTED_EDGE('',*,*,#173,.T.);
#195 = ORIENTED_EDGE('',*,*,#196,.T.);
#196 = EDGE_CURVE('',#166,#197,#199,.T.);
#197 = VERTEX_POINT('',#198);
#198 = CARTESIAN_POINT('',(15.261879761323,-42.41483534144,1.6));
#199 = ELLIPSE('',#200,20.331071584493,20.330819156076);
#200 = AXIS2_PLACEMENT_3D('',#201,#202,#203);
#201 = CARTESIAN_POINT('',(21.516518448291,-23.06999949634,1.6));
#202 = DIRECTION('',(-0.,0.,1.));
#203 = DIRECTION('',(1.,-8.368573664E-07,0.));
#204 = ORIENTED_EDGE('',*,*,#205,.F.);
#205 = EDGE_CURVE('',#206,#197,#208,.T.);
#206 = VERTEX_POINT('',#207);
#207 = CARTESIAN_POINT('',(15.261879761323,-42.41483534144,0.));
#208 = LINE('',#209,#210);
#209 = CARTESIAN_POINT('',(15.261879761323,-42.41483534144,0.));
#210 = VECTOR('',#211,1.);
#211 = DIRECTION('',(0.,0.,1.));
#212 = ORIENTED_EDGE('',*,*,#213,.F.);
#213 = EDGE_CURVE('',#174,#206,#214,.T.);
#214 = ELLIPSE('',#215,20.331071584493,20.330819156076);
#215 = AXIS2_PLACEMENT_3D('',#216,#217,#218);
#216 = CARTESIAN_POINT('',(21.516518448291,-23.06999949634,0.));
#217 = DIRECTION('',(-0.,0.,1.));
#218 = DIRECTION('',(1.,-8.368573664E-07,0.));
#219 = SURFACE_OF_LINEAR_EXTRUSION('',#220,#225);
#220 = ELLIPSE('',#221,20.331071584493,20.330819156076);
#221 = AXIS2_PLACEMENT_3D('',#222,#223,#224);
#222 = CARTESIAN_POINT('',(21.516518448291,-23.06999949634,0.));
#223 = DIRECTION('',(-0.,0.,1.));
#224 = DIRECTION('',(1.,-8.368573664E-07,0.));
#225 = VECTOR('',#226,1.);
#226 = DIRECTION('',(-0.,-0.,-1.));
#227 = ADVANCED_FACE('',(#228),#253,.T.);
#228 = FACE_BOUND('',#229,.T.);
#229 = EDGE_LOOP('',(#230,#240,#246,#247));
#230 = ORIENTED_EDGE('',*,*,#231,.T.);
#231 = EDGE_CURVE('',#232,#234,#236,.T.);
#232 = VERTEX_POINT('',#233);
#233 = CARTESIAN_POINT('',(15.95,-44.3078,0.));
#234 = VERTEX_POINT('',#235);
#235 = CARTESIAN_POINT('',(15.95,-44.3078,1.6));
#236 = LINE('',#237,#238);
#237 = CARTESIAN_POINT('',(15.95,-44.3078,0.));
#238 = VECTOR('',#239,1.);
#239 = DIRECTION('',(0.,0.,1.));
#240 = ORIENTED_EDGE('',*,*,#241,.T.);
#241 = EDGE_CURVE('',#234,#197,#242,.T.);
#242 = LINE('',#243,#244);
#243 = CARTESIAN_POINT('',(15.95,-44.3078,1.6));
#244 = VECTOR('',#245,1.);
#245 = DIRECTION('',(-0.341641966091,0.939830179876,0.));
#246 = ORIENTED_EDGE('',*,*,#205,.F.);
#247 = ORIENTED_EDGE('',*,*,#248,.F.);
#248 = EDGE_CURVE('',#232,#206,#249,.T.);
#249 = LINE('',#250,#251);
#250 = CARTESIAN_POINT('',(15.95,-44.3078,0.));
#251 = VECTOR('',#252,1.);
#252 = DIRECTION('',(-0.341641966091,0.939830179876,0.));
#253 = PLANE('',#254);
#254 = AXIS2_PLACEMENT_3D('',#255,#256,#257);
#255 = CARTESIAN_POINT('',(15.95,-44.3078,0.));
#256 = DIRECTION('',(-0.939830179876,-0.341641966091,0.));
#257 = DIRECTION('',(-0.341641966091,0.939830179876,0.));
#258 = ADVANCED_FACE('',(#259),#274,.F.);
#259 = FACE_BOUND('',#260,.F.);
#260 = EDGE_LOOP('',(#261,#267,#268,#269,#270,#271,#272,#273));
#261 = ORIENTED_EDGE('',*,*,#262,.T.);
#262 = EDGE_CURVE('',#232,#22,#263,.T.);
#263 = LINE('',#264,#265);
#264 = CARTESIAN_POINT('',(21.45,-44.3078,0.));
#265 = VECTOR('',#266,1.);
#266 = DIRECTION('',(1.,0.,0.));
#267 = ORIENTED_EDGE('',*,*,#47,.T.);
#268 = ORIENTED_EDGE('',*,*,#79,.T.);
#269 = ORIENTED_EDGE('',*,*,#114,.F.);
#270 = ORIENTED_EDGE('',*,*,#146,.T.);
#271 = ORIENTED_EDGE('',*,*,#181,.T.);
#272 = ORIENTED_EDGE('',*,*,#213,.T.);
#273 = ORIENTED_EDGE('',*,*,#248,.F.);
#274 = PLANE('',#275);
#275 = AXIS2_PLACEMENT_3D('',#276,#277,#278);
#276 = CARTESIAN_POINT('',(21.432247381912,-23.49682585128,0.));
#277 = DIRECTION('',(0.,0.,1.));
#278 = DIRECTION('',(1.,0.,0.));
#279 = ADVANCED_FACE('',(#280),#295,.T.);
#280 = FACE_BOUND('',#281,.T.);
#281 = EDGE_LOOP('',(#282,#283,#284,#285,#286,#287,#288,#289));
#282 = ORIENTED_EDGE('',*,*,#31,.T.);
#283 = ORIENTED_EDGE('',*,*,#62,.T.);
#284 = ORIENTED_EDGE('',*,*,#107,.F.);
#285 = ORIENTED_EDGE('',*,*,#129,.T.);
#286 = ORIENTED_EDGE('',*,*,#165,.T.);
#287 = ORIENTED_EDGE('',*,*,#196,.T.);
#288 = ORIENTED_EDGE('',*,*,#241,.F.);
#289 = ORIENTED_EDGE('',*,*,#290,.F.);
#290 = EDGE_CURVE('',#24,#234,#291,.T.);
#291 = LINE('',#292,#293);
#292 = CARTESIAN_POINT('',(21.45,-44.3078,1.6));
#293 = VECTOR('',#294,1.);
#294 = DIRECTION('',(-1.,0.,0.));
#295 = PLANE('',#296);
#296 = AXIS2_PLACEMENT_3D('',#297,#298,#299);
#297 = CARTESIAN_POINT('',(21.432247381912,-23.49682585128,1.6));
#298 = DIRECTION('',(0.,0.,1.));
#299 = DIRECTION('',(1.,0.,0.));
#300 = ADVANCED_FACE('',(#301),#307,.T.);
#301 = FACE_BOUND('',#302,.T.);
#302 = EDGE_LOOP('',(#303,#304,#305,#306));
#303 = ORIENTED_EDGE('',*,*,#21,.T.);
#304 = ORIENTED_EDGE('',*,*,#290,.T.);
#305 = ORIENTED_EDGE('',*,*,#231,.F.);
#306 = ORIENTED_EDGE('',*,*,#262,.T.);
#307 = PLANE('',#308);
#308 = AXIS2_PLACEMENT_3D('',#309,#310,#311);
#309 = CARTESIAN_POINT('',(21.45,-44.3078,0.8));
#310 = DIRECTION('',(-0.,-1.,-0.));
#311 = DIRECTION('',(0.,0.,-1.));
#312 = ( GEOMETRIC_REPRESENTATION_CONTEXT(3) 
GLOBAL_UNCERTAINTY_ASSIGNED_CONTEXT((#316)) GLOBAL_UNIT_ASSIGNED_CONTEXT
((#313,#314,#315)) REPRESENTATION_CONTEXT('Context #1',
  '3D Context with UNIT and UNCERTAINTY') );
#313 = ( LENGTH_UNIT() NAMED_UNIT(*) SI_UNIT(.MILLI.,.METRE.) );
#314 = ( NAMED_UNIT(*) PLANE_ANGLE_UNIT() SI_UNIT($,.RADIAN.) );
#315 = ( NAMED_UNIT(*) SI_UNIT($,.STERADIAN.) SOLID_ANGLE_UNIT() );
#316 = UNCERTAINTY_MEASURE_WITH_UNIT(LENGTH_MEASURE(1.E-07),#313,
  'distance_accuracy_value','confusion accuracy');
#317 = PRODUCT_RELATED_PRODUCT_CATEGORY('part',$,(#7));
#318 = MECHANICAL_DESIGN_GEOMETRIC_PRESENTATION_REPRESENTATION('',(#319)
  ,#312);
#319 = STYLED_ITEM('color',(#320),#15);
#320 = PRESENTATION_STYLE_ASSIGNMENT((#321,#327));
#321 = SURFACE_STYLE_USAGE(.BOTH.,#322);
#322 = SURFACE_SIDE_STYLE('',(#323));
#323 = SURFACE_STYLE_FILL_AREA(#324);
#324 = FILL_AREA_STYLE('',(#325));
#325 = FILL_AREA_STYLE_COLOUR('',#326);
#326 = COLOUR_RGB('',0.447058818107,0.474509808674,0.501960817233);
#327 = CURVE_STYLE('',#328,POSITIVE_LENGTH_MEASURE(0.1),#329);
#328 = DRAUGHTING_PRE_DEFINED_CURVE_FONT('continuous');
#329 = COLOUR_RGB('',9.803921802644E-02,9.803921802644E-02,
  9.803921802644E-02);
ENDSEC;
END-ISO-10303-21;
