ISO-10303-21;
HEADER;
FILE_DESCRIPTION(('FreeCAD Model'),'2;1');
FILE_NAME('Open CASCADE Shape Model','2026-04-24T16:07:31',(''),(''),
  'Open CASCADE STEP processor 7.8','FreeCAD','Unknown');
FILE_SCHEMA(('AUTOMOTIVE_DESIGN { 1 0 10303 214 1 1 1 1 }'));
ENDSEC;
DATA;
#1 = APPLICATION_PROTOCOL_DEFINITION('international standard',
  'automotive_design',2000,#2);
#2 = APPLICATION_CONTEXT(
  'core data for automotive mechanical design processes');
#3 = SHAPE_DEFINITION_REPRESENTATION(#4,#10);
#4 = PRODUCT_DEFINITION_SHAPE('','',#5);
#5 = PRODUCT_DEFINITION('design','',#6,#9);
#6 = PRODUCT_DEFINITION_FORMATION('','',#7);
#7 = PRODUCT('DisplayHolder','DisplayHolder','',(#8));
#8 = PRODUCT_CONTEXT('',#2,'mechanical');
#9 = PRODUCT_DEFINITION_CONTEXT('part definition',#2,'design');
#10 = ADVANCED_BREP_SHAPE_REPRESENTATION('',(#11,#15),#621);
#11 = AXIS2_PLACEMENT_3D('',#12,#13,#14);
#12 = CARTESIAN_POINT('',(0.,0.,0.));
#13 = DIRECTION('',(0.,0.,1.));
#14 = DIRECTION('',(1.,0.,-0.));
#15 = MANIFOLD_SOLID_BREP('',#16);
#16 = CLOSED_SHELL('',(#17,#59,#193,#218,#243,#330,#347,#364,#381,#398,
    #415,#432,#444,#488,#513,#538,#570,#588,#603,#612));
#17 = ADVANCED_FACE('',(#18),#54,.F.);
#18 = FACE_BOUND('',#19,.T.);
#19 = EDGE_LOOP('',(#20,#31,#39,#48));
#20 = ORIENTED_EDGE('',*,*,#21,.F.);
#21 = EDGE_CURVE('',#22,#24,#26,.T.);
#22 = VERTEX_POINT('',#23);
#23 = CARTESIAN_POINT('',(-21.02999999997,1.337796383015E-14,0.));
#24 = VERTEX_POINT('',#25);
#25 = CARTESIAN_POINT('',(-10.34903252404,-18.30736648868,0.));
#26 = CIRCLE('',#27,21.029999999997);
#27 = AXIS2_PLACEMENT_3D('',#28,#29,#30);
#28 = CARTESIAN_POINT('',(-1.976316539194E-12,-3.391902776889E-05,0.));
#29 = DIRECTION('',(0.,0.,1.));
#30 = DIRECTION('',(1.,0.,0.));
#31 = ORIENTED_EDGE('',*,*,#32,.T.);
#32 = EDGE_CURVE('',#22,#33,#35,.T.);
#33 = VERTEX_POINT('',#34);
#34 = CARTESIAN_POINT('',(-21.02999999997,1.337796383015E-14,5.));
#35 = LINE('',#36,#37);
#36 = CARTESIAN_POINT('',(-21.02999999997,1.337796383015E-14,0.));
#37 = VECTOR('',#38,1.);
#38 = DIRECTION('',(0.,0.,1.));
#39 = ORIENTED_EDGE('',*,*,#40,.T.);
#40 = EDGE_CURVE('',#33,#41,#43,.T.);
#41 = VERTEX_POINT('',#42);
#42 = CARTESIAN_POINT('',(-10.34903252404,-18.30736648868,5.));
#43 = CIRCLE('',#44,21.029999999997);
#44 = AXIS2_PLACEMENT_3D('',#45,#46,#47);
#45 = CARTESIAN_POINT('',(-1.976316539194E-12,-3.391902776889E-05,5.));
#46 = DIRECTION('',(0.,0.,1.));
#47 = DIRECTION('',(1.,0.,0.));
#48 = ORIENTED_EDGE('',*,*,#49,.F.);
#49 = EDGE_CURVE('',#24,#41,#50,.T.);
#50 = LINE('',#51,#52);
#51 = CARTESIAN_POINT('',(-10.34903252404,-18.30736648868,0.));
#52 = VECTOR('',#53,1.);
#53 = DIRECTION('',(0.,0.,1.));
#54 = CYLINDRICAL_SURFACE('',#55,21.029999999997);
#55 = AXIS2_PLACEMENT_3D('',#56,#57,#58);
#56 = CARTESIAN_POINT('',(-1.976316539194E-12,-3.391902776889E-05,0.));
#57 = DIRECTION('',(-0.,-0.,-1.));
#58 = DIRECTION('',(1.,0.,0.));
#59 = ADVANCED_FACE('',(#60,#137,#166,#177),#188,.F.);
#60 = FACE_BOUND('',#61,.F.);
#61 = EDGE_LOOP('',(#62,#73,#82,#90,#98,#106,#114,#122,#129,#130));
#62 = ORIENTED_EDGE('',*,*,#63,.F.);
#63 = EDGE_CURVE('',#64,#66,#68,.T.);
#64 = VERTEX_POINT('',#65);
#65 = CARTESIAN_POINT('',(10.349032524047,-18.30736648868,0.));
#66 = VERTEX_POINT('',#67);
#67 = CARTESIAN_POINT('',(21.029999999971,-9.845406147398E-15,0.));
#68 = CIRCLE('',#69,21.029999999997);
#69 = AXIS2_PLACEMENT_3D('',#70,#71,#72);
#70 = CARTESIAN_POINT('',(1.98788058159E-12,-3.39190277761E-05,0.));
#71 = DIRECTION('',(0.,0.,1.));
#72 = DIRECTION('',(1.,0.,0.));
#73 = ORIENTED_EDGE('',*,*,#74,.T.);
#74 = EDGE_CURVE('',#64,#75,#77,.T.);
#75 = VERTEX_POINT('',#76);
#76 = CARTESIAN_POINT('',(6.320770941057,-23.06399378848,0.));
#77 = CIRCLE('',#78,9.);
#78 = AXIS2_PLACEMENT_3D('',#79,#80,#81);
#79 = CARTESIAN_POINT('',(14.778005073567,-26.14217357984,0.));
#80 = DIRECTION('',(-0.,0.,1.));
#81 = DIRECTION('',(0.,-1.,0.));
#82 = ORIENTED_EDGE('',*,*,#83,.F.);
#83 = EDGE_CURVE('',#84,#75,#86,.T.);
#84 = VERTEX_POINT('',#85);
#85 = CARTESIAN_POINT('',(6.251754145112,-23.25361598145,0.));
#86 = LINE('',#87,#88);
#87 = CARTESIAN_POINT('',(6.251754145112,-23.25361598145,0.));
#88 = VECTOR('',#89,1.);
#89 = DIRECTION('',(0.342019976817,0.93969268139,0.));
#90 = ORIENTED_EDGE('',*,*,#91,.F.);
#91 = EDGE_CURVE('',#92,#84,#94,.T.);
#92 = VERTEX_POINT('',#93);
#93 = CARTESIAN_POINT('',(5.5,-23.78,0.));
#94 = LINE('',#95,#96);
#95 = CARTESIAN_POINT('',(5.5,-23.78,0.));
#96 = VECTOR('',#97,1.);
#97 = DIRECTION('',(0.819151993472,0.573576508926,0.));
#98 = ORIENTED_EDGE('',*,*,#99,.F.);
#99 = EDGE_CURVE('',#100,#92,#102,.T.);
#100 = VERTEX_POINT('',#101);
#101 = CARTESIAN_POINT('',(-5.5,-23.78,0.));
#102 = LINE('',#103,#104);
#103 = CARTESIAN_POINT('',(-5.5,-23.78,0.));
#104 = VECTOR('',#105,1.);
#105 = DIRECTION('',(1.,0.,0.));
#106 = ORIENTED_EDGE('',*,*,#107,.F.);
#107 = EDGE_CURVE('',#108,#100,#110,.T.);
#108 = VERTEX_POINT('',#109);
#109 = CARTESIAN_POINT('',(-6.251754145112,-23.25361598145,0.));
#110 = LINE('',#111,#112);
#111 = CARTESIAN_POINT('',(-6.251754145112,-23.25361598145,0.));
#112 = VECTOR('',#113,1.);
#113 = DIRECTION('',(0.819151993472,-0.573576508926,0.));
#114 = ORIENTED_EDGE('',*,*,#115,.T.);
#115 = EDGE_CURVE('',#108,#116,#118,.T.);
#116 = VERTEX_POINT('',#117);
#117 = CARTESIAN_POINT('',(-6.320770941057,-23.06399378848,0.));
#118 = LINE('',#119,#120);
#119 = CARTESIAN_POINT('',(-6.251754145112,-23.25361598145,0.));
#120 = VECTOR('',#121,1.);
#121 = DIRECTION('',(-0.342019976817,0.93969268139,0.));
#122 = ORIENTED_EDGE('',*,*,#123,.F.);
#123 = EDGE_CURVE('',#24,#116,#124,.T.);
#124 = CIRCLE('',#125,9.);
#125 = AXIS2_PLACEMENT_3D('',#126,#127,#128);
#126 = CARTESIAN_POINT('',(-14.77800507356,-26.14217357984,0.));
#127 = DIRECTION('',(-0.,-0.,-1.));
#128 = DIRECTION('',(0.,-1.,0.));
#129 = ORIENTED_EDGE('',*,*,#21,.F.);
#130 = ORIENTED_EDGE('',*,*,#131,.F.);
#131 = EDGE_CURVE('',#66,#22,#132,.T.);
#132 = CIRCLE('',#133,21.035805852271);
#133 = AXIS2_PLACEMENT_3D('',#134,#135,#136);
#134 = CARTESIAN_POINT('',(-3.86090810672E-14,0.494194147729,0.));
#135 = DIRECTION('',(0.,0.,1.));
#136 = DIRECTION('',(1.,0.,0.));
#137 = FACE_BOUND('',#138,.F.);
#138 = EDGE_LOOP('',(#139,#150,#159));
#139 = ORIENTED_EDGE('',*,*,#140,.T.);
#140 = EDGE_CURVE('',#141,#143,#145,.T.);
#141 = VERTEX_POINT('',#142);
#142 = CARTESIAN_POINT('',(5.5,-25.78,0.));
#143 = VERTEX_POINT('',#144);
#144 = CARTESIAN_POINT('',(26.844153015116,0.494675090265,0.));
#145 = CIRCLE('',#146,26.844153015116);
#146 = AXIS2_PLACEMENT_3D('',#147,#148,#149);
#147 = CARTESIAN_POINT('',(-1.781538970597E-15,0.494675090265,0.));
#148 = DIRECTION('',(0.,0.,1.));
#149 = DIRECTION('',(1.,0.,0.));
#150 = ORIENTED_EDGE('',*,*,#151,.T.);
#151 = EDGE_CURVE('',#143,#152,#154,.T.);
#152 = VERTEX_POINT('',#153);
#153 = CARTESIAN_POINT('',(-5.5,-25.78,0.));
#154 = CIRCLE('',#155,26.844153015116);
#155 = AXIS2_PLACEMENT_3D('',#156,#157,#158);
#156 = CARTESIAN_POINT('',(-1.781538970597E-15,0.494675090265,0.));
#157 = DIRECTION('',(0.,0.,1.));
#158 = DIRECTION('',(1.,0.,0.));
#159 = ORIENTED_EDGE('',*,*,#160,.T.);
#160 = EDGE_CURVE('',#152,#141,#161,.T.);
#161 = CIRCLE('',#162,26.844153015116);
#162 = AXIS2_PLACEMENT_3D('',#163,#164,#165);
#163 = CARTESIAN_POINT('',(-1.781538970597E-15,0.494675090265,0.));
#164 = DIRECTION('',(0.,0.,1.));
#165 = DIRECTION('',(1.,0.,0.));
#166 = FACE_BOUND('',#167,.F.);
#167 = EDGE_LOOP('',(#168));
#168 = ORIENTED_EDGE('',*,*,#169,.T.);
#169 = EDGE_CURVE('',#170,#170,#172,.T.);
#170 = VERTEX_POINT('',#171);
#171 = CARTESIAN_POINT('',(-22.18479738718,0.,0.));
#172 = CIRCLE('',#173,1.75);
#173 = AXIS2_PLACEMENT_3D('',#174,#175,#176);
#174 = CARTESIAN_POINT('',(-23.93479738718,0.,0.));
#175 = DIRECTION('',(0.,0.,-1.));
#176 = DIRECTION('',(1.,0.,0.));
#177 = FACE_BOUND('',#178,.F.);
#178 = EDGE_LOOP('',(#179));
#179 = ORIENTED_EDGE('',*,*,#180,.T.);
#180 = EDGE_CURVE('',#181,#181,#183,.T.);
#181 = VERTEX_POINT('',#182);
#182 = CARTESIAN_POINT('',(25.72276182355,0.,0.));
#183 = CIRCLE('',#184,1.75);
#184 = AXIS2_PLACEMENT_3D('',#185,#186,#187);
#185 = CARTESIAN_POINT('',(23.97276182355,0.,0.));
#186 = DIRECTION('',(0.,0.,-1.));
#187 = DIRECTION('',(1.,0.,0.));
#188 = PLANE('',#189);
#189 = AXIS2_PLACEMENT_3D('',#190,#191,#192);
#190 = CARTESIAN_POINT('',(-7.88052552534E-15,-1.728490352028,0.));
#191 = DIRECTION('',(0.,0.,1.));
#192 = DIRECTION('',(1.,0.,0.));
#193 = ADVANCED_FACE('',(#194),#213,.T.);
#194 = FACE_BOUND('',#195,.F.);
#195 = EDGE_LOOP('',(#196,#197,#205,#212));
#196 = ORIENTED_EDGE('',*,*,#123,.T.);
#197 = ORIENTED_EDGE('',*,*,#198,.T.);
#198 = EDGE_CURVE('',#116,#199,#201,.T.);
#199 = VERTEX_POINT('',#200);
#200 = CARTESIAN_POINT('',(-6.320770941057,-23.06399378848,5.));
#201 = LINE('',#202,#203);
#202 = CARTESIAN_POINT('',(-6.320770941057,-23.06399378848,0.));
#203 = VECTOR('',#204,1.);
#204 = DIRECTION('',(0.,0.,1.));
#205 = ORIENTED_EDGE('',*,*,#206,.F.);
#206 = EDGE_CURVE('',#41,#199,#207,.T.);
#207 = CIRCLE('',#208,9.);
#208 = AXIS2_PLACEMENT_3D('',#209,#210,#211);
#209 = CARTESIAN_POINT('',(-14.77800507356,-26.14217357984,5.));
#210 = DIRECTION('',(-0.,-0.,-1.));
#211 = DIRECTION('',(0.,-1.,0.));
#212 = ORIENTED_EDGE('',*,*,#49,.F.);
#213 = CYLINDRICAL_SURFACE('',#214,9.);
#214 = AXIS2_PLACEMENT_3D('',#215,#216,#217);
#215 = CARTESIAN_POINT('',(-14.77800507356,-26.14217357984,0.));
#216 = DIRECTION('',(0.,0.,1.));
#217 = DIRECTION('',(0.492108061058,0.870534121239,0.));
#218 = ADVANCED_FACE('',(#219),#238,.F.);
#219 = FACE_BOUND('',#220,.T.);
#220 = EDGE_LOOP('',(#221,#229,#236,#237));
#221 = ORIENTED_EDGE('',*,*,#222,.T.);
#222 = EDGE_CURVE('',#66,#223,#225,.T.);
#223 = VERTEX_POINT('',#224);
#224 = CARTESIAN_POINT('',(21.029999999971,-9.845406147398E-15,5.));
#225 = LINE('',#226,#227);
#226 = CARTESIAN_POINT('',(21.029999999971,-9.845406147398E-15,0.));
#227 = VECTOR('',#228,1.);
#228 = DIRECTION('',(0.,0.,1.));
#229 = ORIENTED_EDGE('',*,*,#230,.T.);
#230 = EDGE_CURVE('',#223,#33,#231,.T.);
#231 = CIRCLE('',#232,21.035805852271);
#232 = AXIS2_PLACEMENT_3D('',#233,#234,#235);
#233 = CARTESIAN_POINT('',(-3.86090810672E-14,0.494194147729,5.));
#234 = DIRECTION('',(0.,0.,1.));
#235 = DIRECTION('',(1.,0.,0.));
#236 = ORIENTED_EDGE('',*,*,#32,.F.);
#237 = ORIENTED_EDGE('',*,*,#131,.F.);
#238 = CYLINDRICAL_SURFACE('',#239,21.035805852271);
#239 = AXIS2_PLACEMENT_3D('',#240,#241,#242);
#240 = CARTESIAN_POINT('',(-3.86090810672E-14,0.494194147729,0.));
#241 = DIRECTION('',(-0.,-0.,-1.));
#242 = DIRECTION('',(1.,0.,0.));
#243 = ADVANCED_FACE('',(#244,#305),#325,.F.);
#244 = FACE_BOUND('',#245,.F.);
#245 = EDGE_LOOP('',(#246,#255,#256,#257,#258,#266,#274,#282,#290,#298)
  );
#246 = ORIENTED_EDGE('',*,*,#247,.T.);
#247 = EDGE_CURVE('',#248,#223,#250,.T.);
#248 = VERTEX_POINT('',#249);
#249 = CARTESIAN_POINT('',(10.349032524047,-18.30736648868,5.));
#250 = CIRCLE('',#251,21.029999999997);
#251 = AXIS2_PLACEMENT_3D('',#252,#253,#254);
#252 = CARTESIAN_POINT('',(1.98788058159E-12,-3.39190277761E-05,5.));
#253 = DIRECTION('',(0.,0.,1.));
#254 = DIRECTION('',(1.,0.,0.));
#255 = ORIENTED_EDGE('',*,*,#230,.T.);
#256 = ORIENTED_EDGE('',*,*,#40,.T.);
#257 = ORIENTED_EDGE('',*,*,#206,.T.);
#258 = ORIENTED_EDGE('',*,*,#259,.F.);
#259 = EDGE_CURVE('',#260,#199,#262,.T.);
#260 = VERTEX_POINT('',#261);
#261 = CARTESIAN_POINT('',(-6.251754145112,-23.25361598145,5.));
#262 = LINE('',#263,#264);
#263 = CARTESIAN_POINT('',(-6.251754145112,-23.25361598145,5.));
#264 = VECTOR('',#265,1.);
#265 = DIRECTION('',(-0.342019976817,0.93969268139,0.));
#266 = ORIENTED_EDGE('',*,*,#267,.T.);
#267 = EDGE_CURVE('',#260,#268,#270,.T.);
#268 = VERTEX_POINT('',#269);
#269 = CARTESIAN_POINT('',(-5.5,-23.78,5.));
#270 = LINE('',#271,#272);
#271 = CARTESIAN_POINT('',(-6.251754145112,-23.25361598145,5.));
#272 = VECTOR('',#273,1.);
#273 = DIRECTION('',(0.819151993472,-0.573576508926,0.));
#274 = ORIENTED_EDGE('',*,*,#275,.T.);
#275 = EDGE_CURVE('',#268,#276,#278,.T.);
#276 = VERTEX_POINT('',#277);
#277 = CARTESIAN_POINT('',(5.5,-23.78,5.));
#278 = LINE('',#279,#280);
#279 = CARTESIAN_POINT('',(-5.5,-23.78,5.));
#280 = VECTOR('',#281,1.);
#281 = DIRECTION('',(1.,0.,0.));
#282 = ORIENTED_EDGE('',*,*,#283,.T.);
#283 = EDGE_CURVE('',#276,#284,#286,.T.);
#284 = VERTEX_POINT('',#285);
#285 = CARTESIAN_POINT('',(6.251754145112,-23.25361598145,5.));
#286 = LINE('',#287,#288);
#287 = CARTESIAN_POINT('',(5.5,-23.78,5.));
#288 = VECTOR('',#289,1.);
#289 = DIRECTION('',(0.819151993472,0.573576508926,0.));
#290 = ORIENTED_EDGE('',*,*,#291,.T.);
#291 = EDGE_CURVE('',#284,#292,#294,.T.);
#292 = VERTEX_POINT('',#293);
#293 = CARTESIAN_POINT('',(6.320770941057,-23.06399378848,5.));
#294 = LINE('',#295,#296);
#295 = CARTESIAN_POINT('',(6.251754145112,-23.25361598145,5.));
#296 = VECTOR('',#297,1.);
#297 = DIRECTION('',(0.342019976817,0.93969268139,0.));
#298 = ORIENTED_EDGE('',*,*,#299,.F.);
#299 = EDGE_CURVE('',#248,#292,#300,.T.);
#300 = CIRCLE('',#301,9.);
#301 = AXIS2_PLACEMENT_3D('',#302,#303,#304);
#302 = CARTESIAN_POINT('',(14.778005073567,-26.14217357984,5.));
#303 = DIRECTION('',(-0.,0.,1.));
#304 = DIRECTION('',(0.,-1.,0.));
#305 = FACE_BOUND('',#306,.F.);
#306 = EDGE_LOOP('',(#307,#318));
#307 = ORIENTED_EDGE('',*,*,#308,.F.);
#308 = EDGE_CURVE('',#309,#311,#313,.T.);
#309 = VERTEX_POINT('',#310);
#310 = CARTESIAN_POINT('',(19.029999999971,-1.010457790384E-14,5.));
#311 = VERTEX_POINT('',#312);
#312 = CARTESIAN_POINT('',(-19.02999999997,-5.005663172661E-15,5.));
#313 = CIRCLE('',#314,19.036400409598);
#314 = AXIS2_PLACEMENT_3D('',#315,#316,#317);
#315 = CARTESIAN_POINT('',(-4.1823162687E-14,0.493599590402,5.));
#316 = DIRECTION('',(0.,0.,1.));
#317 = DIRECTION('',(1.,0.,0.));
#318 = ORIENTED_EDGE('',*,*,#319,.F.);
#319 = EDGE_CURVE('',#311,#309,#320,.T.);
#320 = CIRCLE('',#321,19.030000000002);
#321 = AXIS2_PLACEMENT_3D('',#322,#323,#324);
#322 = CARTESIAN_POINT('',(-4.259736794093E-14,-3.391902375621E-05,5.));
#323 = DIRECTION('',(0.,0.,1.));
#324 = DIRECTION('',(1.,0.,0.));
#325 = PLANE('',#326);
#326 = AXIS2_PLACEMENT_3D('',#327,#328,#329);
#327 = CARTESIAN_POINT('',(-1.140783270997E-14,-0.878213995105,5.));
#328 = DIRECTION('',(0.,0.,1.));
#329 = DIRECTION('',(1.,0.,0.));
#330 = ADVANCED_FACE('',(#331),#342,.F.);
#331 = FACE_BOUND('',#332,.T.);
#332 = EDGE_LOOP('',(#333,#334,#340,#341));
#333 = ORIENTED_EDGE('',*,*,#63,.F.);
#334 = ORIENTED_EDGE('',*,*,#335,.T.);
#335 = EDGE_CURVE('',#64,#248,#336,.T.);
#336 = LINE('',#337,#338);
#337 = CARTESIAN_POINT('',(10.349032524047,-18.30736648868,0.));
#338 = VECTOR('',#339,1.);
#339 = DIRECTION('',(0.,0.,1.));
#340 = ORIENTED_EDGE('',*,*,#247,.T.);
#341 = ORIENTED_EDGE('',*,*,#222,.F.);
#342 = CYLINDRICAL_SURFACE('',#343,21.029999999997);
#343 = AXIS2_PLACEMENT_3D('',#344,#345,#346);
#344 = CARTESIAN_POINT('',(1.98788058159E-12,-3.39190277761E-05,0.));
#345 = DIRECTION('',(-0.,-0.,-1.));
#346 = DIRECTION('',(1.,0.,0.));
#347 = ADVANCED_FACE('',(#348),#359,.T.);
#348 = FACE_BOUND('',#349,.T.);
#349 = EDGE_LOOP('',(#350,#351,#357,#358));
#350 = ORIENTED_EDGE('',*,*,#74,.T.);
#351 = ORIENTED_EDGE('',*,*,#352,.T.);
#352 = EDGE_CURVE('',#75,#292,#353,.T.);
#353 = LINE('',#354,#355);
#354 = CARTESIAN_POINT('',(6.320770941057,-23.06399378848,0.));
#355 = VECTOR('',#356,1.);
#356 = DIRECTION('',(0.,0.,1.));
#357 = ORIENTED_EDGE('',*,*,#299,.F.);
#358 = ORIENTED_EDGE('',*,*,#335,.F.);
#359 = CYLINDRICAL_SURFACE('',#360,9.);
#360 = AXIS2_PLACEMENT_3D('',#361,#362,#363);
#361 = CARTESIAN_POINT('',(14.778005073567,-26.14217357984,0.));
#362 = DIRECTION('',(0.,0.,1.));
#363 = DIRECTION('',(-0.492108061058,0.870534121239,0.));
#364 = ADVANCED_FACE('',(#365),#376,.T.);
#365 = FACE_BOUND('',#366,.T.);
#366 = EDGE_LOOP('',(#367,#368,#374,#375));
#367 = ORIENTED_EDGE('',*,*,#83,.F.);
#368 = ORIENTED_EDGE('',*,*,#369,.T.);
#369 = EDGE_CURVE('',#84,#284,#370,.T.);
#370 = LINE('',#371,#372);
#371 = CARTESIAN_POINT('',(6.251754145112,-23.25361598145,0.));
#372 = VECTOR('',#373,1.);
#373 = DIRECTION('',(0.,0.,1.));
#374 = ORIENTED_EDGE('',*,*,#291,.T.);
#375 = ORIENTED_EDGE('',*,*,#352,.F.);
#376 = PLANE('',#377);
#377 = AXIS2_PLACEMENT_3D('',#378,#379,#380);
#378 = CARTESIAN_POINT('',(6.251754145112,-23.25361598145,0.));
#379 = DIRECTION('',(-0.93969268139,0.342019976817,0.));
#380 = DIRECTION('',(0.342019976817,0.93969268139,0.));
#381 = ADVANCED_FACE('',(#382),#393,.T.);
#382 = FACE_BOUND('',#383,.T.);
#383 = EDGE_LOOP('',(#384,#390,#391,#392));
#384 = ORIENTED_EDGE('',*,*,#385,.T.);
#385 = EDGE_CURVE('',#92,#276,#386,.T.);
#386 = LINE('',#387,#388);
#387 = CARTESIAN_POINT('',(5.5,-23.78,0.));
#388 = VECTOR('',#389,1.);
#389 = DIRECTION('',(0.,0.,1.));
#390 = ORIENTED_EDGE('',*,*,#283,.T.);
#391 = ORIENTED_EDGE('',*,*,#369,.F.);
#392 = ORIENTED_EDGE('',*,*,#91,.F.);
#393 = PLANE('',#394);
#394 = AXIS2_PLACEMENT_3D('',#395,#396,#397);
#395 = CARTESIAN_POINT('',(5.5,-23.78,0.));
#396 = DIRECTION('',(-0.573576508926,0.819151993472,0.));
#397 = DIRECTION('',(0.819151993472,0.573576508926,0.));
#398 = ADVANCED_FACE('',(#399),#410,.T.);
#399 = FACE_BOUND('',#400,.T.);
#400 = EDGE_LOOP('',(#401,#407,#408,#409));
#401 = ORIENTED_EDGE('',*,*,#402,.T.);
#402 = EDGE_CURVE('',#100,#268,#403,.T.);
#403 = LINE('',#404,#405);
#404 = CARTESIAN_POINT('',(-5.5,-23.78,0.));
#405 = VECTOR('',#406,1.);
#406 = DIRECTION('',(0.,0.,1.));
#407 = ORIENTED_EDGE('',*,*,#275,.T.);
#408 = ORIENTED_EDGE('',*,*,#385,.F.);
#409 = ORIENTED_EDGE('',*,*,#99,.F.);
#410 = PLANE('',#411);
#411 = AXIS2_PLACEMENT_3D('',#412,#413,#414);
#412 = CARTESIAN_POINT('',(-5.5,-23.78,0.));
#413 = DIRECTION('',(0.,1.,0.));
#414 = DIRECTION('',(1.,0.,0.));
#415 = ADVANCED_FACE('',(#416),#427,.F.);
#416 = FACE_BOUND('',#417,.F.);
#417 = EDGE_LOOP('',(#418,#419,#425,#426));
#418 = ORIENTED_EDGE('',*,*,#115,.F.);
#419 = ORIENTED_EDGE('',*,*,#420,.T.);
#420 = EDGE_CURVE('',#108,#260,#421,.T.);
#421 = LINE('',#422,#423);
#422 = CARTESIAN_POINT('',(-6.251754145112,-23.25361598145,0.));
#423 = VECTOR('',#424,1.);
#424 = DIRECTION('',(0.,0.,1.));
#425 = ORIENTED_EDGE('',*,*,#259,.T.);
#426 = ORIENTED_EDGE('',*,*,#198,.F.);
#427 = PLANE('',#428);
#428 = AXIS2_PLACEMENT_3D('',#429,#430,#431);
#429 = CARTESIAN_POINT('',(-6.251754145112,-23.25361598145,0.));
#430 = DIRECTION('',(-0.93969268139,-0.342019976817,0.));
#431 = DIRECTION('',(-0.342019976817,0.93969268139,0.));
#432 = ADVANCED_FACE('',(#433),#439,.T.);
#433 = FACE_BOUND('',#434,.T.);
#434 = EDGE_LOOP('',(#435,#436,#437,#438));
#435 = ORIENTED_EDGE('',*,*,#420,.T.);
#436 = ORIENTED_EDGE('',*,*,#267,.T.);
#437 = ORIENTED_EDGE('',*,*,#402,.F.);
#438 = ORIENTED_EDGE('',*,*,#107,.F.);
#439 = PLANE('',#440);
#440 = AXIS2_PLACEMENT_3D('',#441,#442,#443);
#441 = CARTESIAN_POINT('',(-6.251754145112,-23.25361598145,0.));
#442 = DIRECTION('',(0.573576508926,0.819151993472,0.));
#443 = DIRECTION('',(0.819151993472,-0.573576508926,0.));
#444 = ADVANCED_FACE('',(#445),#483,.T.);
#445 = FACE_BOUND('',#446,.T.);
#446 = EDGE_LOOP('',(#447,#448,#449,#450,#457,#466,#475,#482));
#447 = ORIENTED_EDGE('',*,*,#151,.T.);
#448 = ORIENTED_EDGE('',*,*,#160,.T.);
#449 = ORIENTED_EDGE('',*,*,#140,.T.);
#450 = ORIENTED_EDGE('',*,*,#451,.T.);
#451 = EDGE_CURVE('',#143,#452,#454,.T.);
#452 = VERTEX_POINT('',#453);
#453 = CARTESIAN_POINT('',(26.844153015116,0.494675090265,6.));
#454 = B_SPLINE_CURVE_WITH_KNOTS('',1,(#455,#456),.UNSPECIFIED.,.F.,.F.,
  (2,2),(-6.,0.),.PIECEWISE_BEZIER_KNOTS.);
#455 = CARTESIAN_POINT('',(26.844153015116,0.494675090265,0.));
#456 = CARTESIAN_POINT('',(26.844153015116,0.494675090265,6.));
#457 = ORIENTED_EDGE('',*,*,#458,.F.);
#458 = EDGE_CURVE('',#459,#452,#461,.T.);
#459 = VERTEX_POINT('',#460);
#460 = CARTESIAN_POINT('',(5.5,-25.78,6.));
#461 = CIRCLE('',#462,26.844153015116);
#462 = AXIS2_PLACEMENT_3D('',#463,#464,#465);
#463 = CARTESIAN_POINT('',(-1.781538970597E-15,0.494675090265,6.));
#464 = DIRECTION('',(0.,0.,1.));
#465 = DIRECTION('',(1.,0.,0.));
#466 = ORIENTED_EDGE('',*,*,#467,.F.);
#467 = EDGE_CURVE('',#468,#459,#470,.T.);
#468 = VERTEX_POINT('',#469);
#469 = CARTESIAN_POINT('',(-5.5,-25.78,6.));
#470 = CIRCLE('',#471,26.844153015116);
#471 = AXIS2_PLACEMENT_3D('',#472,#473,#474);
#472 = CARTESIAN_POINT('',(-1.781538970597E-15,0.494675090265,6.));
#473 = DIRECTION('',(0.,0.,1.));
#474 = DIRECTION('',(1.,0.,0.));
#475 = ORIENTED_EDGE('',*,*,#476,.F.);
#476 = EDGE_CURVE('',#452,#468,#477,.T.);
#477 = CIRCLE('',#478,26.844153015116);
#478 = AXIS2_PLACEMENT_3D('',#479,#480,#481);
#479 = CARTESIAN_POINT('',(-1.781538970597E-15,0.494675090265,6.));
#480 = DIRECTION('',(0.,0.,1.));
#481 = DIRECTION('',(1.,0.,0.));
#482 = ORIENTED_EDGE('',*,*,#451,.F.);
#483 = CYLINDRICAL_SURFACE('',#484,26.844153015116);
#484 = AXIS2_PLACEMENT_3D('',#485,#486,#487);
#485 = CARTESIAN_POINT('',(-1.781538970597E-15,0.494675090265,6.));
#486 = DIRECTION('',(0.,0.,1.));
#487 = DIRECTION('',(1.,0.,0.));
#488 = ADVANCED_FACE('',(#489),#508,.F.);
#489 = FACE_BOUND('',#490,.F.);
#490 = EDGE_LOOP('',(#491,#499,#506,#507));
#491 = ORIENTED_EDGE('',*,*,#492,.T.);
#492 = EDGE_CURVE('',#170,#493,#495,.T.);
#493 = VERTEX_POINT('',#494);
#494 = CARTESIAN_POINT('',(-22.18479738718,0.,4.));
#495 = LINE('',#496,#497);
#496 = CARTESIAN_POINT('',(-22.18479738718,0.,0.));
#497 = VECTOR('',#498,1.);
#498 = DIRECTION('',(0.,0.,1.));
#499 = ORIENTED_EDGE('',*,*,#500,.T.);
#500 = EDGE_CURVE('',#493,#493,#501,.T.);
#501 = CIRCLE('',#502,1.75);
#502 = AXIS2_PLACEMENT_3D('',#503,#504,#505);
#503 = CARTESIAN_POINT('',(-23.93479738718,0.,4.));
#504 = DIRECTION('',(0.,0.,-1.));
#505 = DIRECTION('',(1.,0.,0.));
#506 = ORIENTED_EDGE('',*,*,#492,.F.);
#507 = ORIENTED_EDGE('',*,*,#169,.F.);
#508 = CYLINDRICAL_SURFACE('',#509,1.75);
#509 = AXIS2_PLACEMENT_3D('',#510,#511,#512);
#510 = CARTESIAN_POINT('',(-23.93479738718,0.,0.));
#511 = DIRECTION('',(0.,0.,-1.));
#512 = DIRECTION('',(1.,0.,0.));
#513 = ADVANCED_FACE('',(#514),#533,.F.);
#514 = FACE_BOUND('',#515,.F.);
#515 = EDGE_LOOP('',(#516,#524,#531,#532));
#516 = ORIENTED_EDGE('',*,*,#517,.T.);
#517 = EDGE_CURVE('',#181,#518,#520,.T.);
#518 = VERTEX_POINT('',#519);
#519 = CARTESIAN_POINT('',(25.72276182355,0.,4.));
#520 = LINE('',#521,#522);
#521 = CARTESIAN_POINT('',(25.72276182355,0.,0.));
#522 = VECTOR('',#523,1.);
#523 = DIRECTION('',(0.,0.,1.));
#524 = ORIENTED_EDGE('',*,*,#525,.T.);
#525 = EDGE_CURVE('',#518,#518,#526,.T.);
#526 = CIRCLE('',#527,1.75);
#527 = AXIS2_PLACEMENT_3D('',#528,#529,#530);
#528 = CARTESIAN_POINT('',(23.97276182355,0.,4.));
#529 = DIRECTION('',(0.,0.,-1.));
#530 = DIRECTION('',(1.,0.,0.));
#531 = ORIENTED_EDGE('',*,*,#517,.F.);
#532 = ORIENTED_EDGE('',*,*,#180,.F.);
#533 = CYLINDRICAL_SURFACE('',#534,1.75);
#534 = AXIS2_PLACEMENT_3D('',#535,#536,#537);
#535 = CARTESIAN_POINT('',(23.97276182355,0.,0.));
#536 = DIRECTION('',(0.,0.,-1.));
#537 = DIRECTION('',(1.,0.,0.));
#538 = ADVANCED_FACE('',(#539),#565,.F.);
#539 = FACE_BOUND('',#540,.T.);
#540 = EDGE_LOOP('',(#541,#549,#558,#564));
#541 = ORIENTED_EDGE('',*,*,#542,.T.);
#542 = EDGE_CURVE('',#309,#543,#545,.T.);
#543 = VERTEX_POINT('',#544);
#544 = CARTESIAN_POINT('',(19.029999999971,-1.010457790384E-14,6.));
#545 = LINE('',#546,#547);
#546 = CARTESIAN_POINT('',(19.029999999971,-1.010457790384E-14,5.));
#547 = VECTOR('',#548,1.);
#548 = DIRECTION('',(0.,0.,1.));
#549 = ORIENTED_EDGE('',*,*,#550,.T.);
#550 = EDGE_CURVE('',#543,#551,#553,.T.);
#551 = VERTEX_POINT('',#552);
#552 = CARTESIAN_POINT('',(-19.02999999997,-5.005663172661E-15,6.));
#553 = CIRCLE('',#554,19.036400409598);
#554 = AXIS2_PLACEMENT_3D('',#555,#556,#557);
#555 = CARTESIAN_POINT('',(-4.1823162687E-14,0.493599590402,6.));
#556 = DIRECTION('',(0.,0.,1.));
#557 = DIRECTION('',(1.,0.,0.));
#558 = ORIENTED_EDGE('',*,*,#559,.F.);
#559 = EDGE_CURVE('',#311,#551,#560,.T.);
#560 = LINE('',#561,#562);
#561 = CARTESIAN_POINT('',(-19.02999999997,-5.005663172661E-15,5.));
#562 = VECTOR('',#563,1.);
#563 = DIRECTION('',(0.,0.,1.));
#564 = ORIENTED_EDGE('',*,*,#308,.F.);
#565 = CYLINDRICAL_SURFACE('',#566,19.036400409598);
#566 = AXIS2_PLACEMENT_3D('',#567,#568,#569);
#567 = CARTESIAN_POINT('',(-4.1823162687E-14,0.493599590402,5.));
#568 = DIRECTION('',(-0.,-0.,-1.));
#569 = DIRECTION('',(1.,0.,0.));
#570 = ADVANCED_FACE('',(#571),#583,.F.);
#571 = FACE_BOUND('',#572,.T.);
#572 = EDGE_LOOP('',(#573,#574,#581,#582));
#573 = ORIENTED_EDGE('',*,*,#559,.T.);
#574 = ORIENTED_EDGE('',*,*,#575,.T.);
#575 = EDGE_CURVE('',#551,#543,#576,.T.);
#576 = CIRCLE('',#577,19.030000000002);
#577 = AXIS2_PLACEMENT_3D('',#578,#579,#580);
#578 = CARTESIAN_POINT('',(-4.259736794093E-14,-3.391902375621E-05,6.));
#579 = DIRECTION('',(0.,0.,1.));
#580 = DIRECTION('',(1.,0.,0.));
#581 = ORIENTED_EDGE('',*,*,#542,.F.);
#582 = ORIENTED_EDGE('',*,*,#319,.F.);
#583 = CYLINDRICAL_SURFACE('',#584,19.030000000002);
#584 = AXIS2_PLACEMENT_3D('',#585,#586,#587);
#585 = CARTESIAN_POINT('',(-4.259736794093E-14,-3.391902375621E-05,5.));
#586 = DIRECTION('',(-0.,-0.,-1.));
#587 = DIRECTION('',(1.,0.,0.));
#588 = ADVANCED_FACE('',(#589,#594),#598,.T.);
#589 = FACE_BOUND('',#590,.T.);
#590 = EDGE_LOOP('',(#591,#592,#593));
#591 = ORIENTED_EDGE('',*,*,#458,.T.);
#592 = ORIENTED_EDGE('',*,*,#476,.T.);
#593 = ORIENTED_EDGE('',*,*,#467,.T.);
#594 = FACE_BOUND('',#595,.T.);
#595 = EDGE_LOOP('',(#596,#597));
#596 = ORIENTED_EDGE('',*,*,#550,.F.);
#597 = ORIENTED_EDGE('',*,*,#575,.F.);
#598 = PLANE('',#599);
#599 = AXIS2_PLACEMENT_3D('',#600,#601,#602);
#600 = CARTESIAN_POINT('',(5.961901988204E-15,-0.651688245404,6.));
#601 = DIRECTION('',(0.,0.,1.));
#602 = DIRECTION('',(1.,0.,0.));
#603 = ADVANCED_FACE('',(#604),#607,.F.);
#604 = FACE_BOUND('',#605,.T.);
#605 = EDGE_LOOP('',(#606));
#606 = ORIENTED_EDGE('',*,*,#500,.T.);
#607 = PLANE('',#608);
#608 = AXIS2_PLACEMENT_3D('',#609,#610,#611);
#609 = CARTESIAN_POINT('',(1.898221818178E-02,-2.084668729783E-16,4.));
#610 = DIRECTION('',(0.,0.,1.));
#611 = DIRECTION('',(1.,0.,0.));
#612 = ADVANCED_FACE('',(#613),#616,.F.);
#613 = FACE_BOUND('',#614,.T.);
#614 = EDGE_LOOP('',(#615));
#615 = ORIENTED_EDGE('',*,*,#525,.T.);
#616 = PLANE('',#617);
#617 = AXIS2_PLACEMENT_3D('',#618,#619,#620);
#618 = CARTESIAN_POINT('',(1.898221818178E-02,-2.084668729783E-16,4.));
#619 = DIRECTION('',(0.,0.,1.));
#620 = DIRECTION('',(1.,0.,0.));
#621 = ( GEOMETRIC_REPRESENTATION_CONTEXT(3) 
GLOBAL_UNCERTAINTY_ASSIGNED_CONTEXT((#625)) GLOBAL_UNIT_ASSIGNED_CONTEXT
((#622,#623,#624)) REPRESENTATION_CONTEXT('Context #1',
  '3D Context with UNIT and UNCERTAINTY') );
#622 = ( LENGTH_UNIT() NAMED_UNIT(*) SI_UNIT(.MILLI.,.METRE.) );
#623 = ( NAMED_UNIT(*) PLANE_ANGLE_UNIT() SI_UNIT($,.RADIAN.) );
#624 = ( NAMED_UNIT(*) SI_UNIT($,.STERADIAN.) SOLID_ANGLE_UNIT() );
#625 = UNCERTAINTY_MEASURE_WITH_UNIT(LENGTH_MEASURE(5.E-07),#622,
  'distance_accuracy_value','confusion accuracy');
#626 = PRODUCT_RELATED_PRODUCT_CATEGORY('part',$,(#7));
#627 = MECHANICAL_DESIGN_GEOMETRIC_PRESENTATION_REPRESENTATION('',(#628)
  ,#621);
#628 = STYLED_ITEM('color',(#629),#15);
#629 = PRESENTATION_STYLE_ASSIGNMENT((#630,#636));
#630 = SURFACE_STYLE_USAGE(.BOTH.,#631);
#631 = SURFACE_SIDE_STYLE('',(#632));
#632 = SURFACE_STYLE_FILL_AREA(#633);
#633 = FILL_AREA_STYLE('',(#634));
#634 = FILL_AREA_STYLE_COLOUR('',#635);
#635 = COLOUR_RGB('',0.607843164819,1.960784362163E-02,0.352941187348);
#636 = CURVE_STYLE('',#637,POSITIVE_LENGTH_MEASURE(0.1),#638);
#637 = DRAUGHTING_PRE_DEFINED_CURVE_FONT('continuous');
#638 = COLOUR_RGB('',9.803921802644E-02,9.803921802644E-02,
  9.803921802644E-02);
ENDSEC;
END-ISO-10303-21;
