G04 #@! TF.GenerationSoftware,KiCad,Pcbnew,8.0.2*
G04 #@! TF.CreationDate,2024-05-02T19:27:24+02:00*
G04 #@! TF.ProjectId,VR-Conditioner-MAX9926+reg,56522d43-6f6e-4646-9974-696f6e65722d,3.7*
G04 #@! TF.SameCoordinates,PX68c4118PY713e7a8*
G04 #@! TF.FileFunction,Copper,L1,Top*
G04 #@! TF.FilePolarity,Positive*
%FSLAX46Y46*%
G04 Gerber Fmt 4.6, Leading zero omitted, Abs format (unit mm)*
G04 Created by KiCad (PCBNEW 8.0.2) date 2024-05-02 19:27:24*
%MOMM*%
%LPD*%
G01*
G04 APERTURE LIST*
G04 Aperture macros list*
%AMRoundRect*
0 Rectangle with rounded corners*
0 $1 Rounding radius*
0 $2 $3 $4 $5 $6 $7 $8 $9 X,Y pos of 4 corners*
0 Add a 4 corners polygon primitive as box body*
4,1,4,$2,$3,$4,$5,$6,$7,$8,$9,$2,$3,0*
0 Add four circle primitives for the rounded corners*
1,1,$1+$1,$2,$3*
1,1,$1+$1,$4,$5*
1,1,$1+$1,$6,$7*
1,1,$1+$1,$8,$9*
0 Add four rect primitives between the rounded corners*
20,1,$1+$1,$2,$3,$4,$5,0*
20,1,$1+$1,$4,$5,$6,$7,0*
20,1,$1+$1,$6,$7,$8,$9,0*
20,1,$1+$1,$8,$9,$2,$3,0*%
G04 Aperture macros list end*
G04 #@! TA.AperFunction,ComponentPad*
%ADD10R,1.700000X1.700000*%
G04 #@! TD*
G04 #@! TA.AperFunction,ComponentPad*
%ADD11O,1.700000X1.700000*%
G04 #@! TD*
G04 #@! TA.AperFunction,SMDPad,CuDef*
%ADD12RoundRect,0.218750X0.218750X0.256250X-0.218750X0.256250X-0.218750X-0.256250X0.218750X-0.256250X0*%
G04 #@! TD*
G04 #@! TA.AperFunction,SMDPad,CuDef*
%ADD13RoundRect,0.218750X-0.218750X-0.256250X0.218750X-0.256250X0.218750X0.256250X-0.218750X0.256250X0*%
G04 #@! TD*
G04 #@! TA.AperFunction,SMDPad,CuDef*
%ADD14RoundRect,0.243750X-0.243750X-0.456250X0.243750X-0.456250X0.243750X0.456250X-0.243750X0.456250X0*%
G04 #@! TD*
G04 #@! TA.AperFunction,ComponentPad*
%ADD15R,1.500000X1.500000*%
G04 #@! TD*
G04 #@! TA.AperFunction,ComponentPad*
%ADD16C,1.500000*%
G04 #@! TD*
G04 #@! TA.AperFunction,ComponentPad*
%ADD17O,1.600000X1.600000*%
G04 #@! TD*
G04 #@! TA.AperFunction,ComponentPad*
%ADD18C,1.600000*%
G04 #@! TD*
G04 #@! TA.AperFunction,SMDPad,CuDef*
%ADD19R,0.354800X1.454899*%
G04 #@! TD*
G04 #@! TA.AperFunction,SMDPad,CuDef*
%ADD20RoundRect,0.237500X0.287500X0.237500X-0.287500X0.237500X-0.287500X-0.237500X0.287500X-0.237500X0*%
G04 #@! TD*
G04 #@! TA.AperFunction,ComponentPad*
%ADD21R,1.600000X1.600000*%
G04 #@! TD*
G04 #@! TA.AperFunction,SMDPad,CuDef*
%ADD22C,0.500000*%
G04 #@! TD*
G04 #@! TA.AperFunction,SMDPad,CuDef*
%ADD23RoundRect,0.250000X-0.312500X-0.625000X0.312500X-0.625000X0.312500X0.625000X-0.312500X0.625000X0*%
G04 #@! TD*
G04 #@! TA.AperFunction,ViaPad*
%ADD24C,0.600000*%
G04 #@! TD*
G04 #@! TA.AperFunction,Conductor*
%ADD25C,0.400000*%
G04 #@! TD*
G04 #@! TA.AperFunction,Conductor*
%ADD26C,0.300000*%
G04 #@! TD*
G04 #@! TA.AperFunction,Conductor*
%ADD27C,0.160000*%
G04 #@! TD*
G04 #@! TA.AperFunction,Conductor*
%ADD28C,0.200000*%
G04 #@! TD*
G04 APERTURE END LIST*
D10*
G04 #@! TO.P,J2,1,Pin_1*
G04 #@! TO.N,+12V*
X8890000Y4445000D03*
D11*
G04 #@! TO.P,J2,2,Pin_2*
G04 #@! TO.N,GND*
X11430000Y4445000D03*
G04 #@! TO.P,J2,3,Pin_3*
G04 #@! TO.N,/COUT2*
X13970000Y4445000D03*
G04 #@! TO.P,J2,4,Pin_4*
G04 #@! TO.N,/COUT1*
X16510000Y4445000D03*
G04 #@! TD*
D12*
G04 #@! TO.P,C20,2*
G04 #@! TO.N,Net-(U1-IN2+)*
X4483000Y8001000D03*
G04 #@! TO.P,C20,1*
G04 #@! TO.N,Net-(U1-IN2-)*
X6058000Y8001000D03*
G04 #@! TD*
D13*
G04 #@! TO.P,C10,2*
G04 #@! TO.N,Net-(U1-IN1-)*
X6058000Y14287500D03*
G04 #@! TO.P,C10,1*
G04 #@! TO.N,Net-(U1-IN1+)*
X4483000Y14287500D03*
G04 #@! TD*
D14*
G04 #@! TO.P,C4,2*
G04 #@! TO.N,GND*
X13002500Y8509000D03*
G04 #@! TO.P,C4,1*
G04 #@! TO.N,+12V*
X11127500Y8509000D03*
G04 #@! TD*
D12*
G04 #@! TO.P,C3,2*
G04 #@! TO.N,GND*
X19215000Y12700000D03*
G04 #@! TO.P,C3,1*
G04 #@! TO.N,VCC*
X20790000Y12700000D03*
G04 #@! TD*
G04 #@! TO.P,C2,2*
G04 #@! TO.N,GND*
X19215000Y10795000D03*
G04 #@! TO.P,C2,1*
G04 #@! TO.N,VCC*
X20790000Y10795000D03*
G04 #@! TD*
G04 #@! TO.P,C1,2*
G04 #@! TO.N,GND*
X19215000Y8890000D03*
G04 #@! TO.P,C1,1*
G04 #@! TO.N,VCC*
X20790000Y8890000D03*
G04 #@! TD*
D15*
G04 #@! TO.P,U2,1,GND*
G04 #@! TO.N,GND*
X15240000Y6650000D03*
D16*
G04 #@! TO.P,U2,3,VI*
G04 #@! TO.N,+12V*
X10160000Y6650000D03*
G04 #@! TO.P,U2,2,VO*
G04 #@! TO.N,VCC*
X12700000Y6650000D03*
G04 #@! TD*
D17*
G04 #@! TO.P,R23,2*
G04 #@! TO.N,Net-(J1-Pin_4)*
X20320000Y19050000D03*
D18*
G04 #@! TO.P,R23,1*
G04 #@! TO.N,Net-(J1-Pin_3)*
X12700000Y19050000D03*
G04 #@! TD*
D17*
G04 #@! TO.P,R13,2*
G04 #@! TO.N,Net-(J1-Pin_2)*
X17145000Y20320000D03*
D18*
G04 #@! TO.P,R13,1*
G04 #@! TO.N,Net-(J1-Pin_1)*
X9525000Y20320000D03*
G04 #@! TD*
D19*
G04 #@! TO.P,U1,16,IN1+*
G04 #@! TO.N,Net-(U1-IN1+)*
X15240000Y10613652D03*
G04 #@! TO.P,U1,15,IN1-*
G04 #@! TO.N,Net-(U1-IN1-)*
X14605000Y10613652D03*
G04 #@! TO.P,U1,14,VCC*
G04 #@! TO.N,VCC*
X13970000Y10613652D03*
G04 #@! TO.P,U1,13,ZERO_EN*
G04 #@! TO.N,GND*
X13335000Y10613652D03*
G04 #@! TO.P,U1,12,DIRN*
G04 #@! TO.N,unconnected-(U1-DIRN-Pad12)*
X12700000Y10613652D03*
G04 #@! TO.P,U1,11,GND*
G04 #@! TO.N,GND*
X12065000Y10613652D03*
G04 #@! TO.P,U1,10,IN2-*
G04 #@! TO.N,Net-(U1-IN2-)*
X11430000Y10613652D03*
G04 #@! TO.P,U1,9,IN2+*
G04 #@! TO.N,Net-(U1-IN2+)*
X10795000Y10613652D03*
G04 #@! TO.P,U1,8,INT_THRS2*
G04 #@! TO.N,GND*
X10795000Y16056348D03*
G04 #@! TO.P,U1,7,EXT2*
G04 #@! TO.N,unconnected-(U1-EXT2-Pad7)*
X11430000Y16056348D03*
G04 #@! TO.P,U1,6,BIAS2*
G04 #@! TO.N,GND*
X12065000Y16056348D03*
G04 #@! TO.P,U1,5,COUT2*
G04 #@! TO.N,/COUT2*
X12700000Y16056348D03*
G04 #@! TO.P,U1,4,COUT1*
G04 #@! TO.N,/COUT1*
X13335000Y16056348D03*
G04 #@! TO.P,U1,3,BIAS1*
G04 #@! TO.N,GND*
X13970000Y16056348D03*
G04 #@! TO.P,U1,2,EXT1*
G04 #@! TO.N,unconnected-(U1-EXT1-Pad2)*
X14605000Y16056348D03*
G04 #@! TO.P,U1,1,INT_THRS1*
G04 #@! TO.N,GND*
X15240000Y16056348D03*
G04 #@! TD*
D20*
G04 #@! TO.P,R20,2*
G04 #@! TO.N,/COUT2*
X19127500Y14605000D03*
G04 #@! TO.P,R20,1*
G04 #@! TO.N,VCC*
X20877500Y14605000D03*
G04 #@! TD*
G04 #@! TO.P,R10,2*
G04 #@! TO.N,/COUT1*
X19127500Y16510000D03*
G04 #@! TO.P,R10,1*
G04 #@! TO.N,VCC*
X20877500Y16510000D03*
G04 #@! TD*
D17*
G04 #@! TO.P,J1,8,Pin_8*
G04 #@! TO.N,/COUT1*
X16827500Y16510000D03*
G04 #@! TO.P,J1,4,Pin_4*
G04 #@! TO.N,Net-(J1-Pin_4)*
X9207500Y8890000D03*
G04 #@! TO.P,J1,7,Pin_7*
G04 #@! TO.N,/COUT2*
X16827500Y13970000D03*
G04 #@! TO.P,J1,3,Pin_3*
G04 #@! TO.N,Net-(J1-Pin_3)*
X9207500Y11430000D03*
G04 #@! TO.P,J1,6,Pin_6*
G04 #@! TO.N,GND*
X16827500Y11430000D03*
G04 #@! TO.P,J1,2,Pin_2*
G04 #@! TO.N,Net-(J1-Pin_2)*
X9207500Y13970000D03*
G04 #@! TO.P,J1,5,Pin_5*
G04 #@! TO.N,VCC*
X16827500Y8890000D03*
D21*
G04 #@! TO.P,J1,1,Pin_1*
G04 #@! TO.N,Net-(J1-Pin_1)*
X9207500Y16510000D03*
G04 #@! TD*
D22*
G04 #@! TO.P,FID2,*
G04 #@! TO.N,*
X20955000Y20955000D03*
G04 #@! TD*
G04 #@! TO.P,FID1,*
G04 #@! TO.N,*
X3810000Y3810000D03*
G04 #@! TD*
D23*
G04 #@! TO.P,R1,2*
G04 #@! TO.N,Net-(J1-Pin_2)*
X6860000Y12319000D03*
G04 #@! TO.P,R1,1*
G04 #@! TO.N,Net-(U1-IN1-)*
X3935000Y12319000D03*
G04 #@! TD*
G04 #@! TO.P,R2,1*
G04 #@! TO.N,Net-(U1-IN2-)*
X3935000Y6032500D03*
G04 #@! TO.P,R2,2*
G04 #@! TO.N,Net-(J1-Pin_4)*
X6860000Y6032500D03*
G04 #@! TD*
G04 #@! TO.P,R3,2*
G04 #@! TO.N,Net-(J1-Pin_3)*
X6860000Y9969500D03*
G04 #@! TO.P,R3,1*
G04 #@! TO.N,Net-(U1-IN2+)*
X3935000Y9969500D03*
G04 #@! TD*
G04 #@! TO.P,R12,1*
G04 #@! TO.N,Net-(U1-IN1+)*
X3935000Y16256000D03*
G04 #@! TO.P,R12,2*
G04 #@! TO.N,Net-(J1-Pin_1)*
X6860000Y16256000D03*
G04 #@! TD*
D24*
G04 #@! TO.N,GND*
X13652500Y11972990D03*
X19685000Y6985000D03*
X6985000Y19685000D03*
X7089999Y3914999D03*
X18415000Y19050000D03*
X5169010Y11138010D03*
G04 #@! TD*
D25*
G04 #@! TO.N,GND*
X19127500Y10795000D02*
X19127500Y12700000D01*
X19127500Y10795000D02*
X19127500Y8890000D01*
D26*
X12065000Y15156496D02*
X12065000Y16056348D01*
X15062401Y14978897D02*
X15240000Y15156496D01*
X14147599Y14978897D02*
X15062401Y14978897D01*
X15240000Y15156496D02*
X15240000Y16056348D01*
X13970000Y15156496D02*
X14147599Y14978897D01*
X13970000Y16056348D02*
X13970000Y15156496D01*
X12065000Y16956199D02*
X12242599Y17133798D01*
X13792401Y17133798D02*
X13970000Y16956199D01*
X12065000Y16056348D02*
X12065000Y16956199D01*
X13970000Y16956199D02*
X13970000Y16056348D01*
X12242599Y17133798D02*
X13792401Y17133798D01*
X13335000Y11641101D02*
X13335000Y10613652D01*
X17462500Y10795000D02*
X16827500Y11430000D01*
X19127500Y10795000D02*
X17462500Y10795000D01*
X13335000Y10613652D02*
X13335000Y11655490D01*
X13335000Y11655490D02*
X13652500Y11972990D01*
X12065000Y15156496D02*
X12065000Y15127489D01*
X13362497Y5549999D02*
X14462498Y6650000D01*
X12534999Y5549999D02*
X13362497Y5549999D01*
X11430000Y4445000D02*
X12534999Y5549999D01*
X19685000Y6985000D02*
X19685000Y6985000D01*
X13335000Y8841500D02*
X13002500Y8509000D01*
X13335000Y10613652D02*
X13335000Y8841500D01*
X11430000Y6936500D02*
X11430000Y4445000D01*
X13002500Y8509000D02*
X11430000Y6936500D01*
X12065000Y14605000D02*
X12065000Y14605000D01*
X12065000Y15156496D02*
X12065000Y14605000D01*
X11346496Y14605000D02*
X10795000Y15156496D01*
X10795000Y15156496D02*
X10795000Y16056348D01*
X12065000Y14605000D02*
X11346496Y14605000D01*
X6985000Y18415000D02*
X6985000Y19685000D01*
X6350000Y17780000D02*
X6985000Y18415000D01*
X3175000Y17780000D02*
X6350000Y17780000D01*
X3022490Y17627490D02*
X3175000Y17780000D01*
X6985000Y19685000D02*
X6985000Y20955000D01*
X6985000Y20955000D02*
X7620000Y21590000D01*
X7620000Y21590000D02*
X19050000Y21590000D01*
X19050000Y21590000D02*
X19685000Y20955000D01*
X21752510Y17617490D02*
X21752510Y7782510D01*
X20955000Y6985000D02*
X19685000Y6985000D01*
X21752510Y7782510D02*
X20955000Y6985000D01*
X21590000Y17780000D02*
X21752510Y17617490D01*
X3022490Y11138010D02*
X3022490Y17627490D01*
D27*
X4343510Y11138010D02*
X5169010Y11138010D01*
X4453540Y11138010D02*
X4343510Y11138010D01*
X4343510Y11138010D02*
X3022490Y11138010D01*
X5169010Y11138010D02*
X5169010Y11138010D01*
D26*
X13032979Y13637021D02*
X14620479Y13637021D01*
X14620479Y13637021D02*
X14732000Y13525500D01*
X12065000Y14605000D02*
X13032979Y13637021D01*
X14732000Y13525500D02*
X16827500Y11430000D01*
X21018500Y3175000D02*
X21590000Y3746500D01*
X4730750Y3333750D02*
X4889500Y3175000D01*
X4082510Y4807490D02*
X4730750Y4159250D01*
X4889500Y3175000D02*
X21018500Y3175000D01*
X3373964Y4807490D02*
X4082510Y4807490D01*
X3022490Y5158964D02*
X3373964Y4807490D01*
X4730750Y4159250D02*
X4730750Y3333750D01*
X3022490Y11138010D02*
X3022490Y5158964D01*
X12065000Y11641101D02*
X12396889Y11972990D01*
X12396889Y11972990D02*
X12792010Y11972990D01*
X12792010Y11972990D02*
X12607990Y11972990D01*
X12065000Y10613652D02*
X12065000Y11641101D01*
X13652500Y11972990D02*
X12792010Y11972990D01*
X15575000Y6985000D02*
X15240000Y6650000D01*
X19685000Y6985000D02*
X15575000Y6985000D01*
X15240000Y6650000D02*
X14462498Y6650000D01*
D28*
G04 #@! TO.N,VCC*
X20877500Y12700000D02*
X20877500Y12545000D01*
D25*
X20877500Y16510000D02*
X20877500Y14605000D01*
X20877500Y14605000D02*
X20877500Y12700000D01*
X20877500Y12700000D02*
X20877500Y10795000D01*
X20877500Y10795000D02*
X20877500Y8890000D01*
D28*
X16827500Y8890000D02*
X17227510Y8489990D01*
D25*
X20877500Y8890000D02*
X20002490Y8014990D01*
D26*
X16321498Y8890000D02*
X16827500Y8890000D01*
X15257500Y8890000D02*
X16827500Y8890000D01*
D25*
X17702510Y8014990D02*
X16827500Y8890000D01*
X20002490Y8014990D02*
X17702510Y8014990D01*
D26*
X14940000Y8890000D02*
X15240000Y8890000D01*
X12700000Y6650000D02*
X14940000Y8890000D01*
X15240000Y8890000D02*
X16827500Y8890000D01*
X14666203Y8890000D02*
X14940000Y8890000D01*
X13970000Y9586203D02*
X14666203Y8890000D01*
X13970000Y10613652D02*
X13970000Y9586203D01*
D28*
G04 #@! TO.N,Net-(U1-IN1-)*
X14605000Y10613652D02*
X14605000Y12382500D01*
X14605000Y12382500D02*
X14160500Y12827000D01*
X5903500Y14287500D02*
X3935000Y12319000D01*
X6058000Y14287500D02*
X5903500Y14287500D01*
X14160500Y12827000D02*
X10033000Y12827000D01*
X10033000Y12827000D02*
X9017000Y12827000D01*
X7383756Y11183990D02*
X9026766Y12827000D01*
X6037490Y11482744D02*
X6336244Y11183990D01*
X9026766Y12827000D02*
X10033000Y12827000D01*
X6336244Y11183990D02*
X7383756Y11183990D01*
X6037490Y13155256D02*
X6037490Y11482744D01*
X6058000Y13175766D02*
X6037490Y13155256D01*
X6058000Y14287500D02*
X6058000Y13175766D01*
G04 #@! TO.N,Net-(U1-IN1+)*
X4483000Y15708000D02*
X3935000Y16256000D01*
X3935000Y16256000D02*
X5070010Y15120990D01*
X4483000Y14533980D02*
X5070010Y15120990D01*
X4483000Y14287500D02*
X4483000Y14533980D01*
X14309621Y13187011D02*
X15240000Y12256632D01*
X10307989Y13482989D02*
X10351033Y13482989D01*
X10307989Y14438313D02*
X10307989Y13482989D01*
X15240000Y12256632D02*
X15240000Y10613652D01*
X9625312Y15120990D02*
X10307989Y14438313D01*
X10647011Y13187011D02*
X14309621Y13187011D01*
X10351033Y13482989D02*
X10647011Y13187011D01*
X5070010Y15120990D02*
X9625312Y15120990D01*
G04 #@! TO.N,Net-(U1-IN2+)*
X10795000Y10613652D02*
X10214348Y10033000D01*
X4292500Y9612000D02*
X3935000Y9969500D01*
X10214348Y10033000D02*
X8582266Y10033000D01*
X7383756Y8834490D02*
X7529633Y8980367D01*
X5070010Y8834490D02*
X7383756Y8834490D01*
X4729750Y9174750D02*
X5070010Y8834490D01*
X3935000Y9969500D02*
X4729750Y9174750D01*
X8582266Y10033000D02*
X7529633Y8980367D01*
X4483000Y8247480D02*
X5070010Y8834490D01*
X4483000Y8001000D02*
X4483000Y8247480D01*
G04 #@! TO.N,Net-(U1-IN2-)*
X5903500Y8001000D02*
X3935000Y6032500D01*
X6058000Y8001000D02*
X5903500Y8001000D01*
X7383756Y4897490D02*
X7682510Y5196244D01*
X10775707Y9626201D02*
X11180401Y9626201D01*
X11430000Y9875800D02*
X11430000Y10613652D01*
X10267501Y9117995D02*
X10775707Y9626201D01*
X6058000Y8001000D02*
X6058000Y6889266D01*
X7682510Y5196244D02*
X7682510Y5777510D01*
X6336244Y4897490D02*
X7383756Y4897490D01*
X6037490Y5196244D02*
X6336244Y4897490D01*
X10267501Y8362501D02*
X10267501Y9117995D01*
X11180401Y9626201D02*
X11430000Y9875800D01*
X6037490Y6868756D02*
X6037490Y5196244D01*
X6058000Y6889266D02*
X6037490Y6868756D01*
X7682510Y5777510D02*
X10267501Y8362501D01*
G04 #@! TO.N,Net-(J1-Pin_4)*
X9207500Y8380000D02*
X9207500Y8890000D01*
X6860000Y6032500D02*
X9207500Y8380000D01*
D27*
G04 #@! TO.N,Net-(J1-Pin_3)*
X7747000Y9969500D02*
X9207500Y11430000D01*
X6860000Y9969500D02*
X7747000Y9969500D01*
D28*
G04 #@! TO.N,Net-(J1-Pin_2)*
X7556500Y12319000D02*
X9207500Y13970000D01*
X6860000Y12319000D02*
X7556500Y12319000D01*
G04 #@! TO.N,Net-(J1-Pin_1)*
X8953500Y16256000D02*
X9207500Y16510000D01*
X6860000Y16256000D02*
X8953500Y16256000D01*
D27*
G04 #@! TO.N,/COUT1*
X16827500Y16234996D02*
X16827500Y16510000D01*
D28*
X13935012Y14528887D02*
X15248802Y14528888D01*
X15248802Y14528888D02*
X16827500Y16107586D01*
X13335000Y15128899D02*
X13935012Y14528887D01*
X16827500Y16107586D02*
X16827500Y16510000D01*
X13335000Y16056348D02*
X13335000Y15128899D01*
X19127500Y16510000D02*
X16827500Y16510000D01*
G04 #@! TO.N,/COUT2*
X17462500Y14605000D02*
X16827500Y13970000D01*
X19127500Y14605000D02*
X17462500Y14605000D01*
X12700000Y15128899D02*
X13741866Y14087033D01*
X16710467Y14087033D02*
X16827500Y13970000D01*
X12700000Y16056348D02*
X12700000Y15128899D01*
X13741866Y14087033D02*
X16710467Y14087033D01*
D26*
G04 #@! TO.N,+12V*
X10160000Y5715000D02*
X8890000Y4445000D01*
X10160000Y6650000D02*
X10160000Y5715000D01*
X11127500Y7617500D02*
X10160000Y6650000D01*
X11127500Y8509000D02*
X11127500Y7617500D01*
G04 #@! TD*
G04 #@! TA.AperFunction,Conductor*
G04 #@! TO.N,GND*
G36*
X22067139Y14306185D02*
G01*
X22124116Y14263828D01*
X22149148Y14197390D01*
X22149500Y14187983D01*
X22149500Y3814956D01*
X22149112Y3805070D01*
X22135571Y3633025D01*
X22132478Y3613497D01*
X22093351Y3450521D01*
X22087241Y3431717D01*
X22023102Y3276872D01*
X22014126Y3259255D01*
X21926549Y3116342D01*
X21914927Y3100347D01*
X21806079Y2972902D01*
X21792098Y2958921D01*
X21664653Y2850073D01*
X21648658Y2838451D01*
X21505745Y2750874D01*
X21488128Y2741898D01*
X21333283Y2677759D01*
X21314479Y2671649D01*
X21151503Y2632522D01*
X21131975Y2629429D01*
X20959930Y2615888D01*
X20950044Y2615500D01*
X3814956Y2615500D01*
X3805070Y2615888D01*
X3633024Y2629429D01*
X3613496Y2632522D01*
X3450520Y2671649D01*
X3431716Y2677759D01*
X3276871Y2741898D01*
X3259254Y2750874D01*
X3116341Y2838451D01*
X3100346Y2850073D01*
X2972901Y2958921D01*
X2958920Y2972902D01*
X2861898Y3086500D01*
X2850070Y3100349D01*
X2838450Y3116342D01*
X2789232Y3196658D01*
X2750872Y3259256D01*
X2741897Y3276872D01*
X2730738Y3303811D01*
X2677757Y3431718D01*
X2671648Y3450521D01*
X2632521Y3613497D01*
X2629428Y3633025D01*
X2615888Y3805070D01*
X2615695Y3810000D01*
X3304353Y3810000D01*
X3324835Y3667543D01*
X3384623Y3536627D01*
X3467588Y3440879D01*
X3478873Y3427856D01*
X3539409Y3388952D01*
X3599947Y3350047D01*
X3738039Y3309500D01*
X3881961Y3309500D01*
X4020053Y3350047D01*
X4141128Y3427857D01*
X4235377Y3536627D01*
X4295165Y3667543D01*
X4315647Y3810000D01*
X4295165Y3952457D01*
X4235377Y4083373D01*
X4141128Y4192143D01*
X4141127Y4192144D01*
X4141126Y4192145D01*
X4020053Y4269953D01*
X3881961Y4310500D01*
X3738039Y4310500D01*
X3599946Y4269953D01*
X3478873Y4192145D01*
X3384623Y4083374D01*
X3347636Y4002384D01*
X3324835Y3952457D01*
X3304353Y3810000D01*
X2615695Y3810000D01*
X2615500Y3814956D01*
X2615500Y5316282D01*
X2635502Y5384403D01*
X2689158Y5430896D01*
X2759432Y5441000D01*
X2824012Y5411506D01*
X2862396Y5351780D01*
X2866848Y5329087D01*
X2874612Y5253075D01*
X2930385Y5084762D01*
X3023470Y4933848D01*
X3023475Y4933842D01*
X3148841Y4808476D01*
X3148847Y4808471D01*
X3148848Y4808470D01*
X3299762Y4715385D01*
X3468074Y4659613D01*
X3571955Y4649000D01*
X4298044Y4649001D01*
X4401926Y4659613D01*
X4570238Y4715385D01*
X4721152Y4808470D01*
X4846530Y4933848D01*
X4939615Y5084762D01*
X4995387Y5253074D01*
X5006000Y5356955D01*
X5005999Y6190761D01*
X5026001Y6258881D01*
X5042904Y6279855D01*
X5213895Y6450846D01*
X5276207Y6484872D01*
X5347022Y6479807D01*
X5403858Y6437260D01*
X5428669Y6370740D01*
X5428990Y6361751D01*
X5428990Y5276354D01*
X5428990Y5116134D01*
X5470458Y4961371D01*
X5470459Y4961369D01*
X5470460Y4961367D01*
X5550565Y4822621D01*
X5550573Y4822611D01*
X5962610Y4410574D01*
X5962615Y4410570D01*
X5962617Y4410568D01*
X6101371Y4330458D01*
X6175856Y4310500D01*
X6256133Y4288990D01*
X6256134Y4288990D01*
X7405500Y4288990D01*
X7473621Y4268988D01*
X7520114Y4215332D01*
X7531500Y4162990D01*
X7531500Y3546351D01*
X7538009Y3485804D01*
X7538011Y3485796D01*
X7589110Y3348798D01*
X7589112Y3348793D01*
X7676738Y3231739D01*
X7793792Y3144113D01*
X7793794Y3144112D01*
X7793796Y3144111D01*
X7847600Y3124043D01*
X7930795Y3093012D01*
X7930803Y3093010D01*
X7991350Y3086501D01*
X7991355Y3086501D01*
X7991362Y3086500D01*
X7991368Y3086500D01*
X9788632Y3086500D01*
X9788638Y3086500D01*
X9788645Y3086501D01*
X9788649Y3086501D01*
X9849196Y3093010D01*
X9849199Y3093011D01*
X9849201Y3093011D01*
X9986204Y3144111D01*
X10056399Y3196658D01*
X10103261Y3231739D01*
X10190886Y3348792D01*
X10190885Y3348792D01*
X10190889Y3348796D01*
X10235196Y3467587D01*
X10277741Y3524419D01*
X10344262Y3549230D01*
X10413636Y3534138D01*
X10445952Y3508888D01*
X10507097Y3442466D01*
X10684698Y3304233D01*
X10684699Y3304232D01*
X10882628Y3197118D01*
X10882630Y3197117D01*
X11095483Y3124045D01*
X11095492Y3124043D01*
X11176000Y3110609D01*
X11176000Y4014298D01*
X11237007Y3979075D01*
X11364174Y3945000D01*
X11495826Y3945000D01*
X11622993Y3979075D01*
X11684000Y4014298D01*
X11684000Y3110610D01*
X11764507Y3124043D01*
X11764516Y3124045D01*
X11977369Y3197117D01*
X11977371Y3197118D01*
X12175300Y3304232D01*
X12175301Y3304233D01*
X12352902Y3442466D01*
X12505327Y3608045D01*
X12594217Y3744101D01*
X12648220Y3790190D01*
X12718568Y3799765D01*
X12782925Y3769788D01*
X12805183Y3744102D01*
X12894279Y3607730D01*
X13046762Y3442092D01*
X13101331Y3399619D01*
X13224424Y3303811D01*
X13422426Y3196658D01*
X13422427Y3196658D01*
X13422428Y3196657D01*
X13534227Y3158277D01*
X13635365Y3123556D01*
X13857431Y3086500D01*
X13857435Y3086500D01*
X14082565Y3086500D01*
X14082569Y3086500D01*
X14304635Y3123556D01*
X14517574Y3196658D01*
X14715576Y3303811D01*
X14893240Y3442094D01*
X15045722Y3607732D01*
X15045927Y3608045D01*
X15084799Y3667544D01*
X15134518Y3743646D01*
X15188520Y3789732D01*
X15258868Y3799308D01*
X15323225Y3769331D01*
X15345480Y3743647D01*
X15371313Y3704107D01*
X15434275Y3607735D01*
X15434279Y3607730D01*
X15586762Y3442092D01*
X15641331Y3399619D01*
X15764424Y3303811D01*
X15962426Y3196658D01*
X15962427Y3196658D01*
X15962428Y3196657D01*
X16074227Y3158277D01*
X16175365Y3123556D01*
X16397431Y3086500D01*
X16397435Y3086500D01*
X16622565Y3086500D01*
X16622569Y3086500D01*
X16844635Y3123556D01*
X17057574Y3196658D01*
X17255576Y3303811D01*
X17433240Y3442094D01*
X17585722Y3607732D01*
X17585927Y3608045D01*
X17648687Y3704107D01*
X17708860Y3796209D01*
X17799296Y4002384D01*
X17854564Y4220632D01*
X17873156Y4445000D01*
X17854564Y4669368D01*
X17830662Y4763754D01*
X17799297Y4887613D01*
X17799296Y4887614D01*
X17799296Y4887616D01*
X17708860Y5093791D01*
X17694261Y5116136D01*
X17648430Y5186287D01*
X18334500Y5186287D01*
X18334500Y4973713D01*
X18367754Y4763757D01*
X18433443Y4561588D01*
X18529949Y4372184D01*
X18529951Y4372181D01*
X18560840Y4329666D01*
X18654896Y4200208D01*
X18654898Y4200206D01*
X18654900Y4200203D01*
X18805202Y4049901D01*
X18805205Y4049899D01*
X18805208Y4049896D01*
X18977184Y3924949D01*
X19166588Y3828443D01*
X19368757Y3762754D01*
X19578713Y3729500D01*
X19578716Y3729500D01*
X19791284Y3729500D01*
X19791287Y3729500D01*
X20001243Y3762754D01*
X20203412Y3828443D01*
X20392816Y3924949D01*
X20564792Y4049896D01*
X20715104Y4200208D01*
X20840051Y4372184D01*
X20936557Y4561588D01*
X21002246Y4763757D01*
X21035500Y4973713D01*
X21035500Y5186287D01*
X21002246Y5396243D01*
X20936557Y5598412D01*
X20840051Y5787816D01*
X20715104Y5959792D01*
X20715101Y5959795D01*
X20715099Y5959798D01*
X20564797Y6110100D01*
X20564794Y6110102D01*
X20564792Y6110104D01*
X20426333Y6210700D01*
X20392819Y6235049D01*
X20392818Y6235050D01*
X20392816Y6235051D01*
X20203412Y6331557D01*
X20001243Y6397246D01*
X19791287Y6430500D01*
X19578713Y6430500D01*
X19368757Y6397246D01*
X19368754Y6397246D01*
X19368753Y6397245D01*
X19166588Y6331557D01*
X19166586Y6331556D01*
X18977180Y6235049D01*
X18805205Y6110102D01*
X18805202Y6110100D01*
X18654900Y5959798D01*
X18654898Y5959795D01*
X18529951Y5787820D01*
X18433444Y5598414D01*
X18433443Y5598412D01*
X18367776Y5396310D01*
X18367754Y5396243D01*
X18334500Y5186287D01*
X17648430Y5186287D01*
X17585724Y5282266D01*
X17585720Y5282271D01*
X17433237Y5447909D01*
X17294434Y5555944D01*
X17255576Y5586189D01*
X17057574Y5693342D01*
X17057572Y5693343D01*
X17057571Y5693344D01*
X16844639Y5766443D01*
X16844630Y5766445D01*
X16800539Y5773803D01*
X16622569Y5803500D01*
X16622565Y5803500D01*
X16622559Y5803501D01*
X16617371Y5803931D01*
X16617493Y5805411D01*
X16555879Y5823502D01*
X16509386Y5877158D01*
X16498000Y5929500D01*
X16498000Y6396000D01*
X15551686Y6396000D01*
X15560080Y6404394D01*
X15612741Y6495606D01*
X15640000Y6597339D01*
X15640000Y6702661D01*
X15612741Y6804394D01*
X15560080Y6895606D01*
X15551686Y6904000D01*
X16498000Y6904000D01*
X16498000Y7448586D01*
X16497999Y7448599D01*
X16497368Y7454467D01*
X16509969Y7524337D01*
X16558344Y7576302D01*
X16627134Y7593864D01*
X16633614Y7593465D01*
X16717436Y7586132D01*
X16827495Y7576502D01*
X16827500Y7576502D01*
X16827505Y7576502D01*
X16936989Y7586082D01*
X17055434Y7596444D01*
X17125038Y7582456D01*
X17155507Y7560022D01*
X17250867Y7464662D01*
X17366909Y7387125D01*
X17457467Y7349615D01*
X17495848Y7333717D01*
X17564288Y7320104D01*
X17632728Y7306490D01*
X17632729Y7306490D01*
X17632733Y7306490D01*
X20072267Y7306490D01*
X20072272Y7306490D01*
X20140711Y7320104D01*
X20209152Y7333717D01*
X20247533Y7349615D01*
X20338091Y7387125D01*
X20454133Y7464662D01*
X20859066Y7869597D01*
X20921379Y7903621D01*
X20948162Y7906501D01*
X21057210Y7906501D01*
X21156814Y7916676D01*
X21318192Y7970151D01*
X21462887Y8059400D01*
X21583100Y8179613D01*
X21672349Y8324308D01*
X21725824Y8485686D01*
X21736000Y8585289D01*
X21735999Y9194710D01*
X21725824Y9294314D01*
X21672349Y9455692D01*
X21660802Y9474413D01*
X21604759Y9565274D01*
X21586000Y9631420D01*
X21586000Y10053582D01*
X21604758Y10119728D01*
X21672349Y10229308D01*
X21725824Y10390686D01*
X21736000Y10490289D01*
X21735999Y11099710D01*
X21725824Y11199314D01*
X21672349Y11360692D01*
X21646478Y11402636D01*
X21604759Y11470274D01*
X21586000Y11536420D01*
X21586000Y11958582D01*
X21604758Y12024728D01*
X21672349Y12134308D01*
X21725824Y12295686D01*
X21736000Y12395289D01*
X21735999Y13004710D01*
X21725824Y13104314D01*
X21672349Y13265692D01*
X21660802Y13284413D01*
X21604759Y13375274D01*
X21586000Y13441420D01*
X21586000Y13681882D01*
X21606002Y13750003D01*
X21626358Y13772451D01*
X21625657Y13773152D01*
X21754152Y13901648D01*
X21754158Y13901654D01*
X21845709Y14050080D01*
X21900562Y14215619D01*
X21900562Y14215623D01*
X21902725Y14222149D01*
X21904240Y14221647D01*
X21934108Y14276781D01*
X21996307Y14311014D01*
X22067139Y14306185D01*
G37*
G04 #@! TD.AperFunction*
G04 #@! TA.AperFunction,Conductor*
G36*
X11498959Y6202974D02*
G01*
X11544195Y6150768D01*
X11605944Y6018346D01*
X11668155Y5929500D01*
X11674112Y5920993D01*
X11696800Y5853719D01*
X11684000Y5802726D01*
X11684000Y4875703D01*
X11622993Y4910925D01*
X11495826Y4945000D01*
X11364174Y4945000D01*
X11237007Y4910925D01*
X11176000Y4875703D01*
X11176000Y5800647D01*
X11168611Y5811864D01*
X11167812Y5882857D01*
X11185884Y5920988D01*
X11254056Y6018346D01*
X11315805Y6150768D01*
X11362722Y6204054D01*
X11430999Y6223515D01*
X11498959Y6202974D01*
G37*
G04 #@! TD.AperFunction*
G04 #@! TA.AperFunction,Conductor*
G36*
X15494000Y5396310D02*
G01*
X15473998Y5328189D01*
X15460702Y5310973D01*
X15434280Y5282271D01*
X15434279Y5282271D01*
X15345483Y5146357D01*
X15291479Y5100269D01*
X15221131Y5090694D01*
X15156774Y5120671D01*
X15134517Y5146357D01*
X15045720Y5282271D01*
X15019298Y5310973D01*
X14987878Y5374638D01*
X14986000Y5396310D01*
X14986000Y6338314D01*
X14994394Y6329920D01*
X15085606Y6277259D01*
X15187339Y6250000D01*
X15292661Y6250000D01*
X15394394Y6277259D01*
X15485606Y6329920D01*
X15494000Y6338314D01*
X15494000Y5396310D01*
G37*
G04 #@! TD.AperFunction*
G04 #@! TA.AperFunction,Conductor*
G36*
X2824012Y9348506D02*
G01*
X2862396Y9288780D01*
X2866848Y9266087D01*
X2874612Y9190075D01*
X2930385Y9021762D01*
X3023470Y8870848D01*
X3023475Y8870842D01*
X3148841Y8745476D01*
X3148847Y8745471D01*
X3148848Y8745470D01*
X3299762Y8652385D01*
X3468074Y8596613D01*
X3468076Y8596613D01*
X3474603Y8594450D01*
X3473812Y8592066D01*
X3526107Y8563739D01*
X3560342Y8501542D01*
X3556917Y8434714D01*
X3547176Y8405317D01*
X3547175Y8405314D01*
X3537000Y8305720D01*
X3537000Y7696290D01*
X3547175Y7596689D01*
X3556917Y7567290D01*
X3559357Y7496335D01*
X3523048Y7435325D01*
X3473880Y7409738D01*
X3474605Y7407551D01*
X3299761Y7349615D01*
X3148847Y7256530D01*
X3148841Y7256525D01*
X3023475Y7131159D01*
X3023470Y7131153D01*
X2930385Y6980238D01*
X2874613Y6811928D01*
X2874612Y6811921D01*
X2866847Y6735919D01*
X2840025Y6670184D01*
X2781921Y6629386D01*
X2710984Y6626477D01*
X2649736Y6662382D01*
X2617622Y6725700D01*
X2615500Y6748726D01*
X2615500Y9253282D01*
X2635502Y9321403D01*
X2689158Y9367896D01*
X2759432Y9378000D01*
X2824012Y9348506D01*
G37*
G04 #@! TD.AperFunction*
G04 #@! TA.AperFunction,Conductor*
G36*
X15693733Y8211498D02*
G01*
X15728823Y8177773D01*
X15764678Y8126568D01*
X15778890Y8106270D01*
X15801577Y8038996D01*
X15784291Y7970135D01*
X15732521Y7921552D01*
X15675676Y7908000D01*
X15494000Y7908000D01*
X15494000Y6961686D01*
X15485606Y6970080D01*
X15394394Y7022741D01*
X15292661Y7050000D01*
X15187339Y7050000D01*
X15085606Y7022741D01*
X14994394Y6970080D01*
X14986000Y6961686D01*
X14986000Y7952551D01*
X15006002Y8020672D01*
X15022905Y8041646D01*
X15175854Y8194595D01*
X15238166Y8228621D01*
X15264949Y8231500D01*
X15625612Y8231500D01*
X15693733Y8211498D01*
G37*
G04 #@! TD.AperFunction*
G04 #@! TA.AperFunction,Conductor*
G36*
X18335401Y13817094D02*
G01*
X18374147Y13778348D01*
X18374153Y13778343D01*
X18374154Y13778342D01*
X18496075Y13703140D01*
X18543553Y13650354D01*
X18554956Y13580279D01*
X18526663Y13515163D01*
X18519024Y13506804D01*
X18422295Y13410075D01*
X18333107Y13265480D01*
X18279669Y13104211D01*
X18279668Y13104207D01*
X18269500Y13004682D01*
X18269500Y12954000D01*
X19343000Y12954000D01*
X19411121Y12933998D01*
X19457614Y12880342D01*
X19469000Y12828000D01*
X19469000Y8849490D01*
X19448998Y8781369D01*
X19395342Y8734876D01*
X19343000Y8723490D01*
X19087000Y8723490D01*
X19018879Y8743492D01*
X18972386Y8797148D01*
X18961000Y8849490D01*
X18961000Y10541000D01*
X18269501Y10541000D01*
X18269501Y10490327D01*
X18279668Y10390792D01*
X18333107Y10229522D01*
X18422295Y10084926D01*
X18422300Y10084920D01*
X18542419Y9964801D01*
X18542428Y9964794D01*
X18566833Y9949740D01*
X18614311Y9896953D01*
X18625713Y9826878D01*
X18597419Y9761763D01*
X18566833Y9735260D01*
X18542428Y9720207D01*
X18542419Y9720200D01*
X18422300Y9600081D01*
X18422295Y9600075D01*
X18333105Y9455476D01*
X18297640Y9348448D01*
X18257226Y9290076D01*
X18191670Y9262821D01*
X18121785Y9275334D01*
X18069759Y9323644D01*
X18063841Y9334832D01*
X17965024Y9546748D01*
X17833700Y9734297D01*
X17833695Y9734303D01*
X17671802Y9896196D01*
X17671796Y9896201D01*
X17484249Y10027523D01*
X17276746Y10124283D01*
X17276740Y10124285D01*
X17183271Y10149330D01*
X17055587Y10183543D01*
X16827500Y10203498D01*
X16599413Y10183543D01*
X16378259Y10124285D01*
X16378253Y10124283D01*
X16170751Y10027524D01*
X16124170Y9994907D01*
X16056896Y9972220D01*
X15988036Y9989505D01*
X15939452Y10041275D01*
X15925900Y10098121D01*
X15925900Y11099682D01*
X18269500Y11099682D01*
X18269500Y11049000D01*
X18961000Y11049000D01*
X18961000Y12446000D01*
X18269501Y12446000D01*
X18269501Y12395327D01*
X18279668Y12295792D01*
X18333107Y12134522D01*
X18422295Y11989926D01*
X18422300Y11989920D01*
X18542419Y11869801D01*
X18542428Y11869794D01*
X18566833Y11854740D01*
X18614311Y11801953D01*
X18625713Y11731878D01*
X18597419Y11666763D01*
X18566833Y11640260D01*
X18542428Y11625207D01*
X18542419Y11625200D01*
X18422300Y11505081D01*
X18422295Y11505075D01*
X18333107Y11360480D01*
X18279669Y11199211D01*
X18279668Y11199207D01*
X18269500Y11099682D01*
X15925900Y11099682D01*
X15925900Y11389735D01*
X15925899Y11389752D01*
X15919390Y11450299D01*
X15919388Y11450307D01*
X15877409Y11562854D01*
X15868289Y11587306D01*
X15868286Y11587309D01*
X15863968Y11595220D01*
X15867282Y11597030D01*
X15848793Y11647094D01*
X15848500Y11655679D01*
X15848500Y12336742D01*
X15848500Y12336743D01*
X15807032Y12491504D01*
X15763291Y12567266D01*
X15726922Y12630259D01*
X15093741Y13263440D01*
X15059718Y13325750D01*
X15064782Y13396565D01*
X15107329Y13453401D01*
X15173849Y13478212D01*
X15182838Y13478533D01*
X15532634Y13478533D01*
X15600755Y13458531D01*
X15646828Y13405784D01*
X15689977Y13313251D01*
X15821302Y13125700D01*
X15983200Y12963802D01*
X16170751Y12832477D01*
X16378257Y12735716D01*
X16599413Y12676457D01*
X16827500Y12656502D01*
X17055587Y12676457D01*
X17276743Y12735716D01*
X17484249Y12832477D01*
X17671800Y12963802D01*
X17833698Y13125700D01*
X17965023Y13313251D01*
X18061784Y13520757D01*
X18121043Y13741913D01*
X18121044Y13741920D01*
X18121999Y13747334D01*
X18123930Y13746994D01*
X18146621Y13805063D01*
X18204110Y13846723D01*
X18274995Y13850689D01*
X18335401Y13817094D01*
G37*
G04 #@! TD.AperFunction*
G04 #@! TA.AperFunction,Conductor*
G36*
X5347022Y12766307D02*
G01*
X5403858Y12723760D01*
X5428669Y12657240D01*
X5428990Y12648251D01*
X5428990Y11562854D01*
X5428990Y11402634D01*
X5470458Y11247871D01*
X5470459Y11247869D01*
X5470460Y11247867D01*
X5550565Y11109121D01*
X5550567Y11109119D01*
X5550568Y11109117D01*
X5772321Y10887364D01*
X5806345Y10825053D01*
X5802833Y10758646D01*
X5799613Y10748929D01*
X5799612Y10748924D01*
X5789000Y10645054D01*
X5789000Y10645046D01*
X5789000Y10645045D01*
X5789000Y10053582D01*
X5789001Y9568990D01*
X5768999Y9500869D01*
X5715343Y9454376D01*
X5663001Y9442990D01*
X5374249Y9442990D01*
X5306128Y9462992D01*
X5285154Y9479895D01*
X5042904Y9722145D01*
X5008878Y9784457D01*
X5005999Y9811240D01*
X5005999Y10645045D01*
X4995387Y10748926D01*
X4970161Y10825053D01*
X4939615Y10917238D01*
X4846530Y11068152D01*
X4846528Y11068154D01*
X4842677Y11074398D01*
X4844382Y11075450D01*
X4821592Y11131932D01*
X4834838Y11201682D01*
X4842779Y11214039D01*
X4842677Y11214102D01*
X4846530Y11220348D01*
X4939615Y11371262D01*
X4995387Y11539574D01*
X5006000Y11643455D01*
X5005999Y12477261D01*
X5026001Y12545381D01*
X5042904Y12566355D01*
X5213895Y12737346D01*
X5276207Y12771372D01*
X5347022Y12766307D01*
G37*
G04 #@! TD.AperFunction*
G04 #@! TA.AperFunction,Conductor*
G36*
X2824012Y11698006D02*
G01*
X2862396Y11638280D01*
X2866848Y11615587D01*
X2874612Y11539575D01*
X2930385Y11371262D01*
X3027323Y11214102D01*
X3025620Y11213052D01*
X3048409Y11156548D01*
X3035151Y11086800D01*
X3027221Y11074461D01*
X3027323Y11074398D01*
X2930385Y10917238D01*
X2874613Y10748928D01*
X2874612Y10748921D01*
X2866847Y10672919D01*
X2840025Y10607184D01*
X2781921Y10566386D01*
X2710984Y10563477D01*
X2649736Y10599382D01*
X2617622Y10662700D01*
X2615500Y10685726D01*
X2615500Y11602782D01*
X2635502Y11670903D01*
X2689158Y11717396D01*
X2759432Y11727500D01*
X2824012Y11698006D01*
G37*
G04 #@! TD.AperFunction*
G04 #@! TA.AperFunction,Conductor*
G36*
X13924382Y12198498D02*
G01*
X13945356Y12181595D01*
X13959595Y12167356D01*
X13993621Y12105044D01*
X13996500Y12078261D01*
X13996500Y11975602D01*
X13976498Y11907481D01*
X13922842Y11860988D01*
X13870500Y11849602D01*
X13743950Y11849602D01*
X13683403Y11843093D01*
X13683395Y11843091D01*
X13546397Y11791992D01*
X13546392Y11791990D01*
X13429336Y11704362D01*
X13424095Y11699120D01*
X13361783Y11665094D01*
X13290968Y11670159D01*
X13245905Y11699120D01*
X13240663Y11704362D01*
X13123607Y11791990D01*
X13123602Y11791992D01*
X12986604Y11843091D01*
X12986596Y11843093D01*
X12926049Y11849602D01*
X12926038Y11849602D01*
X12473962Y11849602D01*
X12473950Y11849602D01*
X12413403Y11843093D01*
X12413395Y11843091D01*
X12276397Y11791992D01*
X12276392Y11791990D01*
X12159336Y11704362D01*
X12154095Y11699120D01*
X12091783Y11665094D01*
X12020968Y11670159D01*
X11975905Y11699120D01*
X11970663Y11704362D01*
X11853607Y11791990D01*
X11853602Y11791992D01*
X11716604Y11843091D01*
X11716596Y11843093D01*
X11656049Y11849602D01*
X11656038Y11849602D01*
X11203962Y11849602D01*
X11203950Y11849602D01*
X11143398Y11843092D01*
X11141475Y11842637D01*
X11139171Y11842637D01*
X11135562Y11842249D01*
X11135520Y11842637D01*
X11089480Y11842637D01*
X11089438Y11842249D01*
X11085829Y11842637D01*
X11083525Y11842637D01*
X11081601Y11843092D01*
X11021049Y11849602D01*
X11021038Y11849602D01*
X10568962Y11849602D01*
X10568958Y11849602D01*
X10568942Y11849601D01*
X10550598Y11847629D01*
X10480730Y11860236D01*
X10428769Y11908616D01*
X10422938Y11919658D01*
X10367172Y12039251D01*
X10356511Y12109443D01*
X10385492Y12174255D01*
X10444912Y12213111D01*
X10481367Y12218500D01*
X13856261Y12218500D01*
X13924382Y12198498D01*
G37*
G04 #@! TD.AperFunction*
G04 #@! TA.AperFunction,Conductor*
G36*
X2824012Y15635006D02*
G01*
X2862396Y15575280D01*
X2866848Y15552587D01*
X2874612Y15476575D01*
X2930385Y15308262D01*
X3023470Y15157348D01*
X3023475Y15157342D01*
X3148841Y15031976D01*
X3148847Y15031971D01*
X3148848Y15031970D01*
X3299762Y14938885D01*
X3468074Y14883113D01*
X3468076Y14883113D01*
X3474603Y14880950D01*
X3473812Y14878566D01*
X3526107Y14850239D01*
X3560342Y14788042D01*
X3556917Y14721214D01*
X3547176Y14691817D01*
X3547175Y14691814D01*
X3537000Y14592220D01*
X3537000Y13982790D01*
X3547175Y13883189D01*
X3556917Y13853790D01*
X3559357Y13782835D01*
X3523048Y13721825D01*
X3473880Y13696238D01*
X3474605Y13694051D01*
X3299761Y13636115D01*
X3148847Y13543030D01*
X3148841Y13543025D01*
X3023475Y13417659D01*
X3023470Y13417653D01*
X2930385Y13266738D01*
X2874613Y13098428D01*
X2874612Y13098421D01*
X2866847Y13022419D01*
X2840025Y12956684D01*
X2781921Y12915886D01*
X2710984Y12912977D01*
X2649736Y12948882D01*
X2617622Y13012200D01*
X2615500Y13035226D01*
X2615500Y15539782D01*
X2635502Y15607903D01*
X2689158Y15654396D01*
X2759432Y15664500D01*
X2824012Y15635006D01*
G37*
G04 #@! TD.AperFunction*
G04 #@! TA.AperFunction,Conductor*
G36*
X12077957Y14953950D02*
G01*
X12128160Y14903748D01*
X12132052Y14895612D01*
X12213075Y14755276D01*
X12213077Y14755274D01*
X12213078Y14755272D01*
X12691569Y14276781D01*
X12957744Y14010607D01*
X12991769Y13948294D01*
X12986705Y13877479D01*
X12944158Y13820643D01*
X12877638Y13795832D01*
X12868649Y13795511D01*
X11042489Y13795511D01*
X10974368Y13815513D01*
X10927875Y13869169D01*
X10916489Y13921511D01*
X10916489Y14518423D01*
X10890855Y14614091D01*
X10875021Y14673186D01*
X10864266Y14691814D01*
X10863509Y14693126D01*
X10846771Y14762121D01*
X10869991Y14829213D01*
X10925799Y14873100D01*
X10996474Y14879849D01*
X11016650Y14874185D01*
X11110392Y14839220D01*
X11143398Y14826909D01*
X11143403Y14826908D01*
X11203950Y14820399D01*
X11203955Y14820399D01*
X11203962Y14820398D01*
X11203968Y14820398D01*
X11656032Y14820398D01*
X11656038Y14820398D01*
X11656045Y14820399D01*
X11656049Y14820399D01*
X11716596Y14826908D01*
X11716599Y14826909D01*
X11716601Y14826909D01*
X11853604Y14878009D01*
X11942066Y14944232D01*
X12008583Y14969041D01*
X12077957Y14953950D01*
G37*
G04 #@! TD.AperFunction*
G04 #@! TA.AperFunction,Conductor*
G36*
X22067139Y16211185D02*
G01*
X22124116Y16168828D01*
X22149148Y16102390D01*
X22149500Y16092983D01*
X22149500Y15022022D01*
X22129498Y14953901D01*
X22075842Y14907408D01*
X22005568Y14897304D01*
X21940988Y14926798D01*
X21902604Y14986524D01*
X21900776Y14993735D01*
X21891403Y15022022D01*
X21845709Y15159920D01*
X21754158Y15308346D01*
X21630846Y15431658D01*
X21630843Y15431660D01*
X21625657Y15436846D01*
X21627314Y15438504D01*
X21592812Y15487250D01*
X21586000Y15528119D01*
X21586000Y15586882D01*
X21606002Y15655003D01*
X21626358Y15677451D01*
X21625657Y15678152D01*
X21754152Y15806648D01*
X21754158Y15806654D01*
X21845709Y15955080D01*
X21900562Y16120619D01*
X21900562Y16120623D01*
X21902725Y16127149D01*
X21904240Y16126647D01*
X21934108Y16181781D01*
X21996307Y16216014D01*
X22067139Y16211185D01*
G37*
G04 #@! TD.AperFunction*
G04 #@! TA.AperFunction,Conductor*
G36*
X10678486Y15642032D02*
G01*
X10728688Y15591830D01*
X10744100Y15531445D01*
X10744100Y15280249D01*
X10750609Y15219702D01*
X10750611Y15219697D01*
X10764400Y15182728D01*
X10769465Y15111913D01*
X10735440Y15049601D01*
X10673128Y15015576D01*
X10602312Y15020640D01*
X10557249Y15049601D01*
X10400592Y15206258D01*
X10366566Y15268570D01*
X10371631Y15339385D01*
X10388816Y15370858D01*
X10458389Y15463796D01*
X10480549Y15523209D01*
X10500045Y15575478D01*
X10542592Y15632314D01*
X10609112Y15657124D01*
X10678486Y15642032D01*
G37*
G04 #@! TD.AperFunction*
G04 #@! TA.AperFunction,Conductor*
G36*
X15499412Y16327175D02*
G01*
X15537796Y16267449D01*
X15538590Y16264623D01*
X15575426Y16127149D01*
X15593215Y16060760D01*
X15593217Y16060754D01*
X15659890Y15917773D01*
X15670551Y15847581D01*
X15641571Y15782768D01*
X15634791Y15775428D01*
X15505996Y15646632D01*
X15443684Y15612607D01*
X15372868Y15617671D01*
X15316032Y15660218D01*
X15291221Y15726738D01*
X15290900Y15735727D01*
X15290900Y16231951D01*
X15310902Y16300072D01*
X15364558Y16346565D01*
X15434832Y16356669D01*
X15499412Y16327175D01*
G37*
G04 #@! TD.AperFunction*
G04 #@! TA.AperFunction,Conductor*
G36*
X20959930Y22149112D02*
G01*
X21131975Y22135572D01*
X21151503Y22132479D01*
X21232991Y22112916D01*
X21314480Y22093352D01*
X21333283Y22087242D01*
X21488128Y22023103D01*
X21505745Y22014127D01*
X21648658Y21926550D01*
X21664653Y21914928D01*
X21792098Y21806080D01*
X21806079Y21792099D01*
X21914927Y21664654D01*
X21926549Y21648659D01*
X22014126Y21505746D01*
X22023102Y21488129D01*
X22087241Y21333284D01*
X22093351Y21314480D01*
X22132478Y21151504D01*
X22135571Y21131976D01*
X22149112Y20959931D01*
X22149500Y20950045D01*
X22149500Y16927022D01*
X22129498Y16858901D01*
X22075842Y16812408D01*
X22005568Y16802304D01*
X21940988Y16831798D01*
X21902604Y16891524D01*
X21900776Y16898735D01*
X21863241Y17012010D01*
X21845709Y17064920D01*
X21754158Y17213346D01*
X21754157Y17213347D01*
X21754152Y17213353D01*
X21630852Y17336653D01*
X21630846Y17336658D01*
X21595211Y17358638D01*
X21482420Y17428209D01*
X21316881Y17483062D01*
X21316879Y17483063D01*
X21316877Y17483063D01*
X21214721Y17493500D01*
X20540287Y17493500D01*
X20438119Y17483063D01*
X20272579Y17428209D01*
X20124153Y17336658D01*
X20124147Y17336653D01*
X20091595Y17304100D01*
X20029283Y17270074D01*
X19958468Y17275139D01*
X19913405Y17304100D01*
X19880852Y17336653D01*
X19880846Y17336658D01*
X19845211Y17358638D01*
X19732420Y17428209D01*
X19566881Y17483062D01*
X19566879Y17483063D01*
X19566877Y17483063D01*
X19464721Y17493500D01*
X18790287Y17493500D01*
X18688119Y17483063D01*
X18522579Y17428209D01*
X18374153Y17336658D01*
X18374147Y17336653D01*
X18250847Y17213353D01*
X18250840Y17213344D01*
X18229257Y17178352D01*
X18176471Y17130874D01*
X18122017Y17118500D01*
X18064398Y17118500D01*
X17996277Y17138502D01*
X17961185Y17172230D01*
X17833704Y17354292D01*
X17833700Y17354297D01*
X17833698Y17354300D01*
X17671800Y17516198D01*
X17510862Y17628888D01*
X17484249Y17647523D01*
X17276746Y17744283D01*
X17276740Y17744285D01*
X17183271Y17769330D01*
X17055587Y17803543D01*
X16827500Y17823498D01*
X16599413Y17803543D01*
X16378259Y17744285D01*
X16378253Y17744283D01*
X16170750Y17647523D01*
X15983203Y17516201D01*
X15983197Y17516196D01*
X15821304Y17354303D01*
X15821299Y17354297D01*
X15689977Y17166750D01*
X15593217Y16959247D01*
X15593215Y16959241D01*
X15573559Y16885882D01*
X15538606Y16755438D01*
X15501655Y16694816D01*
X15437795Y16663795D01*
X15367300Y16672223D01*
X15312553Y16717426D01*
X15290936Y16785051D01*
X15290900Y16788050D01*
X15290900Y16832431D01*
X15290899Y16832448D01*
X15284390Y16892995D01*
X15284388Y16893003D01*
X15254839Y16972226D01*
X15233289Y17030002D01*
X15233288Y17030004D01*
X15233287Y17030006D01*
X15145661Y17147060D01*
X15028607Y17234686D01*
X15028602Y17234688D01*
X14891604Y17285787D01*
X14891596Y17285789D01*
X14831049Y17292298D01*
X14831038Y17292298D01*
X14378962Y17292298D01*
X14378950Y17292298D01*
X14318403Y17285789D01*
X14318395Y17285787D01*
X14181397Y17234688D01*
X14181392Y17234686D01*
X14064336Y17147058D01*
X14059095Y17141816D01*
X13996783Y17107790D01*
X13925968Y17112855D01*
X13880905Y17141816D01*
X13875663Y17147058D01*
X13758607Y17234686D01*
X13758602Y17234688D01*
X13621604Y17285787D01*
X13621596Y17285789D01*
X13561049Y17292298D01*
X13561038Y17292298D01*
X13108962Y17292298D01*
X13108950Y17292298D01*
X13048398Y17285788D01*
X13046475Y17285333D01*
X13044171Y17285333D01*
X13040562Y17284945D01*
X13040520Y17285333D01*
X12994480Y17285333D01*
X12994438Y17284945D01*
X12990829Y17285333D01*
X12988525Y17285333D01*
X12986601Y17285788D01*
X12926049Y17292298D01*
X12926038Y17292298D01*
X12473962Y17292298D01*
X12473950Y17292298D01*
X12413403Y17285789D01*
X12413395Y17285787D01*
X12276397Y17234688D01*
X12276392Y17234686D01*
X12159336Y17147058D01*
X12154095Y17141816D01*
X12091783Y17107790D01*
X12020968Y17112855D01*
X11975905Y17141816D01*
X11970663Y17147058D01*
X11853607Y17234686D01*
X11853602Y17234688D01*
X11716604Y17285787D01*
X11716596Y17285789D01*
X11656049Y17292298D01*
X11656038Y17292298D01*
X11203962Y17292298D01*
X11203950Y17292298D01*
X11143403Y17285789D01*
X11143395Y17285787D01*
X11006397Y17234688D01*
X11006392Y17234686D01*
X10889338Y17147060D01*
X10801712Y17030006D01*
X10801710Y17030001D01*
X10760055Y16918321D01*
X10717508Y16861485D01*
X10650988Y16836675D01*
X10581614Y16851767D01*
X10531412Y16901969D01*
X10516000Y16962354D01*
X10516000Y17358633D01*
X10515999Y17358650D01*
X10509490Y17419197D01*
X10509488Y17419205D01*
X10473311Y17516196D01*
X10458389Y17556204D01*
X10458388Y17556206D01*
X10458387Y17556208D01*
X10370761Y17673262D01*
X10253707Y17760888D01*
X10253702Y17760890D01*
X10116704Y17811989D01*
X10116696Y17811991D01*
X10056149Y17818500D01*
X10056138Y17818500D01*
X8358862Y17818500D01*
X8358850Y17818500D01*
X8298303Y17811991D01*
X8298295Y17811989D01*
X8161297Y17760890D01*
X8161292Y17760888D01*
X8044238Y17673262D01*
X7956612Y17556208D01*
X7956610Y17556203D01*
X7920094Y17458301D01*
X7877547Y17401465D01*
X7811027Y17376655D01*
X7741653Y17391747D01*
X7712944Y17413239D01*
X7646158Y17480025D01*
X7646152Y17480030D01*
X7587518Y17516196D01*
X7495238Y17573115D01*
X7411082Y17601001D01*
X7326927Y17628887D01*
X7326920Y17628888D01*
X7223053Y17639500D01*
X6496955Y17639500D01*
X6393074Y17628888D01*
X6224761Y17573115D01*
X6073847Y17480030D01*
X6073841Y17480025D01*
X5948475Y17354659D01*
X5948470Y17354653D01*
X5855385Y17203738D01*
X5799613Y17035428D01*
X5799612Y17035421D01*
X5789000Y16931554D01*
X5789000Y16931546D01*
X5789000Y16931545D01*
X5789000Y16346565D01*
X5789001Y15855490D01*
X5768999Y15787369D01*
X5715343Y15740876D01*
X5663001Y15729490D01*
X5374249Y15729490D01*
X5306128Y15749492D01*
X5285154Y15766395D01*
X5042904Y16008645D01*
X5008878Y16070957D01*
X5005999Y16097740D01*
X5005999Y16931545D01*
X4995387Y17035426D01*
X4985614Y17064920D01*
X4939615Y17203738D01*
X4846530Y17354652D01*
X4846529Y17354653D01*
X4846524Y17354659D01*
X4721158Y17480025D01*
X4721152Y17480030D01*
X4662518Y17516196D01*
X4570238Y17573115D01*
X4486082Y17601001D01*
X4401927Y17628887D01*
X4401920Y17628888D01*
X4298053Y17639500D01*
X3571955Y17639500D01*
X3468074Y17628888D01*
X3299761Y17573115D01*
X3148847Y17480030D01*
X3148841Y17480025D01*
X3023475Y17354659D01*
X3023470Y17354653D01*
X2930385Y17203738D01*
X2874613Y17035428D01*
X2874612Y17035421D01*
X2866847Y16959419D01*
X2840025Y16893684D01*
X2781921Y16852886D01*
X2710984Y16849977D01*
X2649736Y16885882D01*
X2617622Y16949200D01*
X2615500Y16972226D01*
X2615500Y19791287D01*
X3729500Y19791287D01*
X3729500Y19578713D01*
X3762754Y19368757D01*
X3828443Y19166588D01*
X3924949Y18977184D01*
X4049896Y18805208D01*
X4049898Y18805206D01*
X4049900Y18805203D01*
X4200202Y18654901D01*
X4200205Y18654899D01*
X4200208Y18654896D01*
X4372184Y18529949D01*
X4561588Y18433443D01*
X4763757Y18367754D01*
X4973713Y18334500D01*
X4973716Y18334500D01*
X5186284Y18334500D01*
X5186287Y18334500D01*
X5396243Y18367754D01*
X5598412Y18433443D01*
X5787816Y18529949D01*
X5959792Y18654896D01*
X6110104Y18805208D01*
X6235051Y18977184D01*
X6331557Y19166588D01*
X6397246Y19368757D01*
X6430500Y19578713D01*
X6430500Y19791287D01*
X6397246Y20001243D01*
X6331557Y20203412D01*
X6272153Y20320000D01*
X8211502Y20320000D01*
X8231457Y20091913D01*
X8255751Y20001247D01*
X8290715Y19870760D01*
X8290717Y19870754D01*
X8387477Y19663251D01*
X8446668Y19578717D01*
X8518802Y19475700D01*
X8680700Y19313802D01*
X8868251Y19182477D01*
X9075757Y19085716D01*
X9296913Y19026457D01*
X9525000Y19006502D01*
X9753087Y19026457D01*
X9840950Y19050000D01*
X11386502Y19050000D01*
X11406457Y18821913D01*
X11440670Y18694229D01*
X11465715Y18600760D01*
X11465717Y18600754D01*
X11498734Y18529949D01*
X11562477Y18393251D01*
X11693802Y18205700D01*
X11855700Y18043802D01*
X12043251Y17912477D01*
X12250757Y17815716D01*
X12471913Y17756457D01*
X12700000Y17736502D01*
X12928087Y17756457D01*
X13149243Y17815716D01*
X13356749Y17912477D01*
X13544300Y18043802D01*
X13706198Y18205700D01*
X13837523Y18393251D01*
X13934284Y18600757D01*
X13993543Y18821913D01*
X14013498Y19050000D01*
X13993543Y19278087D01*
X13934284Y19499243D01*
X13837523Y19706749D01*
X13706198Y19894300D01*
X13544300Y20056198D01*
X13493292Y20091914D01*
X13356749Y20187523D01*
X13149246Y20284283D01*
X13149240Y20284285D01*
X13015950Y20320000D01*
X15831502Y20320000D01*
X15851457Y20091913D01*
X15875751Y20001247D01*
X15910715Y19870760D01*
X15910717Y19870754D01*
X16007477Y19663251D01*
X16066668Y19578717D01*
X16138802Y19475700D01*
X16300700Y19313802D01*
X16488251Y19182477D01*
X16695757Y19085716D01*
X16916913Y19026457D01*
X17145000Y19006502D01*
X17373087Y19026457D01*
X17460950Y19050000D01*
X19006502Y19050000D01*
X19026457Y18821913D01*
X19060670Y18694229D01*
X19085715Y18600760D01*
X19085717Y18600754D01*
X19118734Y18529949D01*
X19182477Y18393251D01*
X19313802Y18205700D01*
X19475700Y18043802D01*
X19663251Y17912477D01*
X19870757Y17815716D01*
X20091913Y17756457D01*
X20320000Y17736502D01*
X20548087Y17756457D01*
X20769243Y17815716D01*
X20976749Y17912477D01*
X21164300Y18043802D01*
X21326198Y18205700D01*
X21457523Y18393251D01*
X21554284Y18600757D01*
X21613543Y18821913D01*
X21633498Y19050000D01*
X21613543Y19278087D01*
X21554284Y19499243D01*
X21457523Y19706749D01*
X21326198Y19894300D01*
X21164300Y20056198D01*
X21113294Y20091913D01*
X20976747Y20187525D01*
X20919315Y20214305D01*
X20866029Y20261222D01*
X20846568Y20329499D01*
X20867109Y20397459D01*
X20921132Y20443525D01*
X20972564Y20454500D01*
X21026961Y20454500D01*
X21165053Y20495047D01*
X21286128Y20572857D01*
X21380377Y20681627D01*
X21440165Y20812543D01*
X21460647Y20955000D01*
X21440165Y21097457D01*
X21380377Y21228373D01*
X21286128Y21337143D01*
X21286127Y21337144D01*
X21286126Y21337145D01*
X21165053Y21414953D01*
X21026961Y21455500D01*
X20883039Y21455500D01*
X20744946Y21414953D01*
X20623873Y21337145D01*
X20529623Y21228374D01*
X20500360Y21164297D01*
X20469835Y21097457D01*
X20449353Y20955000D01*
X20469835Y20812543D01*
X20514335Y20715102D01*
X20529623Y20681627D01*
X20623873Y20572856D01*
X20630684Y20566954D01*
X20628839Y20564826D01*
X20665872Y20522087D01*
X20675974Y20451812D01*
X20646479Y20387232D01*
X20586752Y20348850D01*
X20540277Y20344227D01*
X20320000Y20363498D01*
X20091913Y20343543D01*
X19870759Y20284285D01*
X19870753Y20284283D01*
X19663250Y20187523D01*
X19475703Y20056201D01*
X19475697Y20056196D01*
X19313804Y19894303D01*
X19313799Y19894297D01*
X19182477Y19706750D01*
X19085717Y19499247D01*
X19085715Y19499241D01*
X19079407Y19475698D01*
X19026457Y19278087D01*
X19006502Y19050000D01*
X17460950Y19050000D01*
X17594243Y19085716D01*
X17801749Y19182477D01*
X17989300Y19313802D01*
X18151198Y19475700D01*
X18282523Y19663251D01*
X18379284Y19870757D01*
X18438543Y20091913D01*
X18458498Y20320000D01*
X18438543Y20548087D01*
X18379284Y20769243D01*
X18282523Y20976749D01*
X18151198Y21164300D01*
X17989300Y21326198D01*
X17801749Y21457523D01*
X17698334Y21505746D01*
X17594246Y21554283D01*
X17594240Y21554285D01*
X17500771Y21579330D01*
X17373087Y21613543D01*
X17145000Y21633498D01*
X16916913Y21613543D01*
X16695759Y21554285D01*
X16695753Y21554283D01*
X16488250Y21457523D01*
X16300703Y21326201D01*
X16300697Y21326196D01*
X16138804Y21164303D01*
X16138799Y21164297D01*
X16007477Y20976750D01*
X15910717Y20769247D01*
X15910716Y20769243D01*
X15851457Y20548087D01*
X15831502Y20320000D01*
X13015950Y20320000D01*
X12928087Y20343543D01*
X12700000Y20363498D01*
X12471913Y20343543D01*
X12250759Y20284285D01*
X12250753Y20284283D01*
X12043250Y20187523D01*
X11855703Y20056201D01*
X11855697Y20056196D01*
X11693804Y19894303D01*
X11693799Y19894297D01*
X11562477Y19706750D01*
X11465717Y19499247D01*
X11465715Y19499241D01*
X11459407Y19475698D01*
X11406457Y19278087D01*
X11386502Y19050000D01*
X9840950Y19050000D01*
X9974243Y19085716D01*
X10181749Y19182477D01*
X10369300Y19313802D01*
X10531198Y19475700D01*
X10662523Y19663251D01*
X10759284Y19870757D01*
X10818543Y20091913D01*
X10838498Y20320000D01*
X10818543Y20548087D01*
X10759284Y20769243D01*
X10662523Y20976749D01*
X10531198Y21164300D01*
X10369300Y21326198D01*
X10181749Y21457523D01*
X10078334Y21505746D01*
X9974246Y21554283D01*
X9974240Y21554285D01*
X9880771Y21579330D01*
X9753087Y21613543D01*
X9525000Y21633498D01*
X9296913Y21613543D01*
X9075759Y21554285D01*
X9075753Y21554283D01*
X8868250Y21457523D01*
X8680703Y21326201D01*
X8680697Y21326196D01*
X8518804Y21164303D01*
X8518799Y21164297D01*
X8387477Y20976750D01*
X8290717Y20769247D01*
X8290716Y20769243D01*
X8231457Y20548087D01*
X8211502Y20320000D01*
X6272153Y20320000D01*
X6235051Y20392816D01*
X6110104Y20564792D01*
X6110101Y20564795D01*
X6110099Y20564798D01*
X5959797Y20715100D01*
X5959794Y20715102D01*
X5959792Y20715104D01*
X5787816Y20840051D01*
X5598412Y20936557D01*
X5396243Y21002246D01*
X5186287Y21035500D01*
X4973713Y21035500D01*
X4763757Y21002246D01*
X4763754Y21002246D01*
X4763753Y21002245D01*
X4561588Y20936557D01*
X4561586Y20936556D01*
X4372180Y20840049D01*
X4200205Y20715102D01*
X4200202Y20715100D01*
X4049900Y20564798D01*
X4049898Y20564795D01*
X3924951Y20392820D01*
X3828444Y20203414D01*
X3828443Y20203412D01*
X3792215Y20091913D01*
X3762754Y20001243D01*
X3729500Y19791287D01*
X2615500Y19791287D01*
X2615500Y20950045D01*
X2615888Y20959931D01*
X2629428Y21131976D01*
X2632521Y21151504D01*
X2671648Y21314480D01*
X2677758Y21333284D01*
X2741899Y21488135D01*
X2750869Y21505741D01*
X2838455Y21648667D01*
X2850066Y21664646D01*
X2958928Y21792108D01*
X2972892Y21806072D01*
X3100354Y21914934D01*
X3116333Y21926545D01*
X3259259Y22014131D01*
X3276865Y22023101D01*
X3431721Y22087244D01*
X3450515Y22093351D01*
X3613497Y22132480D01*
X3633023Y22135572D01*
X3805070Y22149112D01*
X3814956Y22149500D01*
X3834531Y22149500D01*
X20930469Y22149500D01*
X20950044Y22149500D01*
X20959930Y22149112D01*
G37*
G04 #@! TD.AperFunction*
G04 #@! TD*
M02*
