G04 #@! TF.GenerationSoftware,KiCad,Pcbnew,8.0.2*
G04 #@! TF.CreationDate,2024-05-02T19:27:24+02:00*
G04 #@! TF.ProjectId,VR-Conditioner-MAX9926+reg,56522d43-6f6e-4646-9974-696f6e65722d,3.7*
G04 #@! TF.SameCoordinates,PX68c4118PY713e7a8*
G04 #@! TF.FileFunction,Soldermask,Top*
G04 #@! TF.FilePolarity,Negative*
%FSLAX46Y46*%
G04 Gerber Fmt 4.6, Leading zero omitted, Abs format (unit mm)*
G04 Created by KiCad (PCBNEW 8.0.2) date 2024-05-02 19:27:24*
%MOMM*%
%LPD*%
G01*
G04 APERTURE LIST*
G04 Aperture macros list*
%AMRoundRect*
0 Rectangle with rounded corners*
0 $1 Rounding radius*
0 $2 $3 $4 $5 $6 $7 $8 $9 X,Y pos of 4 corners*
0 Add a 4 corners polygon primitive as box body*
4,1,4,$2,$3,$4,$5,$6,$7,$8,$9,$2,$3,0*
0 Add four circle primitives for the rounded corners*
1,1,$1+$1,$2,$3*
1,1,$1+$1,$4,$5*
1,1,$1+$1,$6,$7*
1,1,$1+$1,$8,$9*
0 Add four rect primitives between the rounded corners*
20,1,$1+$1,$2,$3,$4,$5,0*
20,1,$1+$1,$4,$5,$6,$7,0*
20,1,$1+$1,$6,$7,$8,$9,0*
20,1,$1+$1,$8,$9,$2,$3,0*%
G04 Aperture macros list end*
%ADD10RoundRect,0.050800X-0.850000X0.850000X-0.850000X-0.850000X0.850000X-0.850000X0.850000X0.850000X0*%
%ADD11O,1.801600X1.801600*%
%ADD12RoundRect,0.244150X0.244150X0.281650X-0.244150X0.281650X-0.244150X-0.281650X0.244150X-0.281650X0*%
%ADD13RoundRect,0.244150X-0.244150X-0.281650X0.244150X-0.281650X0.244150X0.281650X-0.244150X0.281650X0*%
%ADD14RoundRect,0.269150X-0.269150X-0.481650X0.269150X-0.481650X0.269150X0.481650X-0.269150X0.481650X0*%
%ADD15RoundRect,0.050800X0.750000X-0.750000X0.750000X0.750000X-0.750000X0.750000X-0.750000X-0.750000X0*%
%ADD16C,1.601600*%
%ADD17C,2.301600*%
%ADD18O,1.701600X1.701600*%
%ADD19C,1.701600*%
%ADD20RoundRect,0.050800X-0.177400X0.727449X-0.177400X-0.727449X0.177400X-0.727449X0.177400X0.727449X0*%
%ADD21RoundRect,0.262900X0.312900X0.262900X-0.312900X0.262900X-0.312900X-0.262900X0.312900X-0.262900X0*%
%ADD22RoundRect,0.050800X-0.800000X-0.800000X0.800000X-0.800000X0.800000X0.800000X-0.800000X0.800000X0*%
%ADD23C,1.000000*%
%ADD24RoundRect,0.272578X-0.340722X-0.653222X0.340722X-0.653222X0.340722X0.653222X-0.340722X0.653222X0*%
G04 APERTURE END LIST*
D10*
G04 #@! TO.C,J2*
X8890000Y4445000D03*
D11*
X11430000Y4445000D03*
X13970000Y4445000D03*
X16510000Y4445000D03*
G04 #@! TD*
D12*
G04 #@! TO.C,C20*
X4483000Y8001000D03*
X6058000Y8001000D03*
G04 #@! TD*
D13*
G04 #@! TO.C,C10*
X6058000Y14287500D03*
X4483000Y14287500D03*
G04 #@! TD*
D14*
G04 #@! TO.C,C4*
X13002500Y8509000D03*
X11127500Y8509000D03*
G04 #@! TD*
D12*
G04 #@! TO.C,C3*
X19215000Y12700000D03*
X20790000Y12700000D03*
G04 #@! TD*
G04 #@! TO.C,C2*
X19215000Y10795000D03*
X20790000Y10795000D03*
G04 #@! TD*
G04 #@! TO.C,C1*
X19215000Y8890000D03*
X20790000Y8890000D03*
G04 #@! TD*
D15*
G04 #@! TO.C,U2*
X15240000Y6650000D03*
D16*
X10160000Y6650000D03*
X12700000Y6650000D03*
G04 #@! TD*
D17*
G04 #@! TO.C,H2*
X5080000Y19685000D03*
G04 #@! TD*
G04 #@! TO.C,H1*
X19685000Y5080000D03*
G04 #@! TD*
D18*
G04 #@! TO.C,R23*
X20320000Y19050000D03*
D19*
X12700000Y19050000D03*
G04 #@! TD*
D18*
G04 #@! TO.C,R13*
X17145000Y20320000D03*
D19*
X9525000Y20320000D03*
G04 #@! TD*
D20*
G04 #@! TO.C,U1*
X15240000Y10613652D03*
X14605000Y10613652D03*
X13970000Y10613652D03*
X13335000Y10613652D03*
X12700000Y10613652D03*
X12065000Y10613652D03*
X11430000Y10613652D03*
X10795000Y10613652D03*
X10795000Y16056348D03*
X11430000Y16056348D03*
X12065000Y16056348D03*
X12700000Y16056348D03*
X13335000Y16056348D03*
X13970000Y16056348D03*
X14605000Y16056348D03*
X15240000Y16056348D03*
G04 #@! TD*
D21*
G04 #@! TO.C,R20*
X19127500Y14605000D03*
X20877500Y14605000D03*
G04 #@! TD*
G04 #@! TO.C,R10*
X19127500Y16510000D03*
X20877500Y16510000D03*
G04 #@! TD*
D18*
G04 #@! TO.C,J1*
X16827500Y16510000D03*
X9207500Y8890000D03*
X16827500Y13970000D03*
X9207500Y11430000D03*
X16827500Y11430000D03*
X9207500Y13970000D03*
X16827500Y8890000D03*
D22*
X9207500Y16510000D03*
G04 #@! TD*
D23*
G04 #@! TO.C,FID2*
X20955000Y20955000D03*
G04 #@! TD*
G04 #@! TO.C,FID1*
X3810000Y3810000D03*
G04 #@! TD*
D24*
G04 #@! TO.C,R1*
X6860000Y12319000D03*
X3935000Y12319000D03*
G04 #@! TD*
G04 #@! TO.C,R2*
X3935000Y6032500D03*
X6860000Y6032500D03*
G04 #@! TD*
G04 #@! TO.C,R3*
X6860000Y9969500D03*
X3935000Y9969500D03*
G04 #@! TD*
G04 #@! TO.C,R12*
X3935000Y16256000D03*
X6860000Y16256000D03*
G04 #@! TD*
M02*
