G04 #@! TF.GenerationSoftware,KiCad,Pcbnew,8.0.2*
G04 #@! TF.CreationDate,2024-05-02T19:27:24+02:00*
G04 #@! TF.ProjectId,VR-Conditioner-MAX9926+reg,56522d43-6f6e-4646-9974-696f6e65722d,3.7*
G04 #@! TF.SameCoordinates,PX68c4118PY713e7a8*
G04 #@! TF.FileFunction,Legend,Top*
G04 #@! TF.FilePolarity,Positive*
%FSLAX46Y46*%
G04 Gerber Fmt 4.6, Leading zero omitted, Abs format (unit mm)*
G04 Created by KiCad (PCBNEW 8.0.2) date 2024-05-02 19:27:24*
%MOMM*%
%LPD*%
G01*
G04 APERTURE LIST*
%ADD10C,0.150000*%
%ADD11C,0.120000*%
%ADD12C,0.152400*%
G04 APERTURE END LIST*
D10*
X7933334Y3108800D02*
X8466668Y3108800D01*
X8200001Y2880229D02*
X8200001Y3337372D01*
X8800001Y2880229D02*
X8800001Y3480229D01*
X9133334Y2880229D02*
X9133334Y3480229D01*
X9133334Y3480229D02*
X9533334Y2880229D01*
X9533334Y2880229D02*
X9533334Y3480229D01*
X10766667Y3451658D02*
X10700000Y3480229D01*
X10700000Y3480229D02*
X10600000Y3480229D01*
X10600000Y3480229D02*
X10500000Y3451658D01*
X10500000Y3451658D02*
X10433334Y3394515D01*
X10433334Y3394515D02*
X10400000Y3337372D01*
X10400000Y3337372D02*
X10366667Y3223086D01*
X10366667Y3223086D02*
X10366667Y3137372D01*
X10366667Y3137372D02*
X10400000Y3023086D01*
X10400000Y3023086D02*
X10433334Y2965943D01*
X10433334Y2965943D02*
X10500000Y2908800D01*
X10500000Y2908800D02*
X10600000Y2880229D01*
X10600000Y2880229D02*
X10666667Y2880229D01*
X10666667Y2880229D02*
X10766667Y2908800D01*
X10766667Y2908800D02*
X10800000Y2937372D01*
X10800000Y2937372D02*
X10800000Y3137372D01*
X10800000Y3137372D02*
X10666667Y3137372D01*
X11100000Y2880229D02*
X11100000Y3480229D01*
X11100000Y3480229D02*
X11500000Y2880229D01*
X11500000Y2880229D02*
X11500000Y3480229D01*
X11833333Y2880229D02*
X11833333Y3480229D01*
X11833333Y3480229D02*
X12000000Y3480229D01*
X12000000Y3480229D02*
X12100000Y3451658D01*
X12100000Y3451658D02*
X12166667Y3394515D01*
X12166667Y3394515D02*
X12200000Y3337372D01*
X12200000Y3337372D02*
X12233333Y3223086D01*
X12233333Y3223086D02*
X12233333Y3137372D01*
X12233333Y3137372D02*
X12200000Y3023086D01*
X12200000Y3023086D02*
X12166667Y2965943D01*
X12166667Y2965943D02*
X12100000Y2908800D01*
X12100000Y2908800D02*
X12000000Y2880229D01*
X12000000Y2880229D02*
X11833333Y2880229D01*
X13466666Y2937372D02*
X13433333Y2908800D01*
X13433333Y2908800D02*
X13333333Y2880229D01*
X13333333Y2880229D02*
X13266666Y2880229D01*
X13266666Y2880229D02*
X13166666Y2908800D01*
X13166666Y2908800D02*
X13100000Y2965943D01*
X13100000Y2965943D02*
X13066666Y3023086D01*
X13066666Y3023086D02*
X13033333Y3137372D01*
X13033333Y3137372D02*
X13033333Y3223086D01*
X13033333Y3223086D02*
X13066666Y3337372D01*
X13066666Y3337372D02*
X13100000Y3394515D01*
X13100000Y3394515D02*
X13166666Y3451658D01*
X13166666Y3451658D02*
X13266666Y3480229D01*
X13266666Y3480229D02*
X13333333Y3480229D01*
X13333333Y3480229D02*
X13433333Y3451658D01*
X13433333Y3451658D02*
X13466666Y3423086D01*
X13900000Y3480229D02*
X14033333Y3480229D01*
X14033333Y3480229D02*
X14100000Y3451658D01*
X14100000Y3451658D02*
X14166666Y3394515D01*
X14166666Y3394515D02*
X14200000Y3280229D01*
X14200000Y3280229D02*
X14200000Y3080229D01*
X14200000Y3080229D02*
X14166666Y2965943D01*
X14166666Y2965943D02*
X14100000Y2908800D01*
X14100000Y2908800D02*
X14033333Y2880229D01*
X14033333Y2880229D02*
X13900000Y2880229D01*
X13900000Y2880229D02*
X13833333Y2908800D01*
X13833333Y2908800D02*
X13766666Y2965943D01*
X13766666Y2965943D02*
X13733333Y3080229D01*
X13733333Y3080229D02*
X13733333Y3280229D01*
X13733333Y3280229D02*
X13766666Y3394515D01*
X13766666Y3394515D02*
X13833333Y3451658D01*
X13833333Y3451658D02*
X13900000Y3480229D01*
X14466666Y3423086D02*
X14499999Y3451658D01*
X14499999Y3451658D02*
X14566666Y3480229D01*
X14566666Y3480229D02*
X14733333Y3480229D01*
X14733333Y3480229D02*
X14799999Y3451658D01*
X14799999Y3451658D02*
X14833333Y3423086D01*
X14833333Y3423086D02*
X14866666Y3365943D01*
X14866666Y3365943D02*
X14866666Y3308800D01*
X14866666Y3308800D02*
X14833333Y3223086D01*
X14833333Y3223086D02*
X14433333Y2880229D01*
X14433333Y2880229D02*
X14866666Y2880229D01*
X16099999Y2937372D02*
X16066666Y2908800D01*
X16066666Y2908800D02*
X15966666Y2880229D01*
X15966666Y2880229D02*
X15899999Y2880229D01*
X15899999Y2880229D02*
X15799999Y2908800D01*
X15799999Y2908800D02*
X15733333Y2965943D01*
X15733333Y2965943D02*
X15699999Y3023086D01*
X15699999Y3023086D02*
X15666666Y3137372D01*
X15666666Y3137372D02*
X15666666Y3223086D01*
X15666666Y3223086D02*
X15699999Y3337372D01*
X15699999Y3337372D02*
X15733333Y3394515D01*
X15733333Y3394515D02*
X15799999Y3451658D01*
X15799999Y3451658D02*
X15899999Y3480229D01*
X15899999Y3480229D02*
X15966666Y3480229D01*
X15966666Y3480229D02*
X16066666Y3451658D01*
X16066666Y3451658D02*
X16099999Y3423086D01*
X16533333Y3480229D02*
X16666666Y3480229D01*
X16666666Y3480229D02*
X16733333Y3451658D01*
X16733333Y3451658D02*
X16799999Y3394515D01*
X16799999Y3394515D02*
X16833333Y3280229D01*
X16833333Y3280229D02*
X16833333Y3080229D01*
X16833333Y3080229D02*
X16799999Y2965943D01*
X16799999Y2965943D02*
X16733333Y2908800D01*
X16733333Y2908800D02*
X16666666Y2880229D01*
X16666666Y2880229D02*
X16533333Y2880229D01*
X16533333Y2880229D02*
X16466666Y2908800D01*
X16466666Y2908800D02*
X16399999Y2965943D01*
X16399999Y2965943D02*
X16366666Y3080229D01*
X16366666Y3080229D02*
X16366666Y3280229D01*
X16366666Y3280229D02*
X16399999Y3394515D01*
X16399999Y3394515D02*
X16466666Y3451658D01*
X16466666Y3451658D02*
X16533333Y3480229D01*
X17499999Y2880229D02*
X17099999Y2880229D01*
X17299999Y2880229D02*
X17299999Y3480229D01*
X17299999Y3480229D02*
X17233332Y3394515D01*
X17233332Y3394515D02*
X17166666Y3337372D01*
X17166666Y3337372D02*
X17099999Y3308800D01*
X3768333Y18233967D02*
X4168333Y18233967D01*
X3968333Y17533967D02*
X3968333Y18233967D01*
X4535000Y18233967D02*
X4668333Y18233967D01*
X4668333Y18233967D02*
X4735000Y18200634D01*
X4735000Y18200634D02*
X4801666Y18133967D01*
X4801666Y18133967D02*
X4835000Y18000634D01*
X4835000Y18000634D02*
X4835000Y17767300D01*
X4835000Y17767300D02*
X4801666Y17633967D01*
X4801666Y17633967D02*
X4735000Y17567300D01*
X4735000Y17567300D02*
X4668333Y17533967D01*
X4668333Y17533967D02*
X4535000Y17533967D01*
X4535000Y17533967D02*
X4468333Y17567300D01*
X4468333Y17567300D02*
X4401666Y17633967D01*
X4401666Y17633967D02*
X4368333Y17767300D01*
X4368333Y17767300D02*
X4368333Y18000634D01*
X4368333Y18000634D02*
X4401666Y18133967D01*
X4401666Y18133967D02*
X4468333Y18200634D01*
X4468333Y18200634D02*
X4535000Y18233967D01*
X5134999Y17533967D02*
X5134999Y18233967D01*
X5134999Y18233967D02*
X5401666Y18233967D01*
X5401666Y18233967D02*
X5468333Y18200634D01*
X5468333Y18200634D02*
X5501666Y18167300D01*
X5501666Y18167300D02*
X5534999Y18100634D01*
X5534999Y18100634D02*
X5534999Y18000634D01*
X5534999Y18000634D02*
X5501666Y17933967D01*
X5501666Y17933967D02*
X5468333Y17900634D01*
X5468333Y17900634D02*
X5401666Y17867300D01*
X5401666Y17867300D02*
X5134999Y17867300D01*
X5072143Y4023212D02*
X4872143Y4308926D01*
X4729286Y4023212D02*
X4729286Y4623212D01*
X4729286Y4623212D02*
X4957857Y4623212D01*
X4957857Y4623212D02*
X5015000Y4594641D01*
X5015000Y4594641D02*
X5043571Y4566069D01*
X5043571Y4566069D02*
X5072143Y4508926D01*
X5072143Y4508926D02*
X5072143Y4423212D01*
X5072143Y4423212D02*
X5043571Y4366069D01*
X5043571Y4366069D02*
X5015000Y4337498D01*
X5015000Y4337498D02*
X4957857Y4308926D01*
X4957857Y4308926D02*
X4729286Y4308926D01*
X5557857Y4051783D02*
X5500714Y4023212D01*
X5500714Y4023212D02*
X5386429Y4023212D01*
X5386429Y4023212D02*
X5329286Y4051783D01*
X5329286Y4051783D02*
X5300714Y4108926D01*
X5300714Y4108926D02*
X5300714Y4337498D01*
X5300714Y4337498D02*
X5329286Y4394641D01*
X5329286Y4394641D02*
X5386429Y4423212D01*
X5386429Y4423212D02*
X5500714Y4423212D01*
X5500714Y4423212D02*
X5557857Y4394641D01*
X5557857Y4394641D02*
X5586429Y4337498D01*
X5586429Y4337498D02*
X5586429Y4280355D01*
X5586429Y4280355D02*
X5300714Y4223212D01*
X5786429Y4423212D02*
X5929286Y4023212D01*
X5929286Y4023212D02*
X6072143Y4423212D01*
X6300715Y4080355D02*
X6329286Y4051783D01*
X6329286Y4051783D02*
X6300715Y4023212D01*
X6300715Y4023212D02*
X6272143Y4051783D01*
X6272143Y4051783D02*
X6300715Y4080355D01*
X6300715Y4080355D02*
X6300715Y4023212D01*
X4586428Y3657246D02*
X4957856Y3657246D01*
X4957856Y3657246D02*
X4757856Y3428675D01*
X4757856Y3428675D02*
X4843571Y3428675D01*
X4843571Y3428675D02*
X4900714Y3400103D01*
X4900714Y3400103D02*
X4929285Y3371532D01*
X4929285Y3371532D02*
X4957856Y3314389D01*
X4957856Y3314389D02*
X4957856Y3171532D01*
X4957856Y3171532D02*
X4929285Y3114389D01*
X4929285Y3114389D02*
X4900714Y3085817D01*
X4900714Y3085817D02*
X4843571Y3057246D01*
X4843571Y3057246D02*
X4672142Y3057246D01*
X4672142Y3057246D02*
X4614999Y3085817D01*
X4614999Y3085817D02*
X4586428Y3114389D01*
X5215000Y3114389D02*
X5243571Y3085817D01*
X5243571Y3085817D02*
X5215000Y3057246D01*
X5215000Y3057246D02*
X5186428Y3085817D01*
X5186428Y3085817D02*
X5215000Y3114389D01*
X5215000Y3114389D02*
X5215000Y3057246D01*
X5443571Y3657246D02*
X5843571Y3657246D01*
X5843571Y3657246D02*
X5586428Y3057246D01*
X6415000Y3114389D02*
X6386428Y3085817D01*
X6386428Y3085817D02*
X6300714Y3057246D01*
X6300714Y3057246D02*
X6243571Y3057246D01*
X6243571Y3057246D02*
X6157857Y3085817D01*
X6157857Y3085817D02*
X6100714Y3142960D01*
X6100714Y3142960D02*
X6072143Y3200103D01*
X6072143Y3200103D02*
X6043571Y3314389D01*
X6043571Y3314389D02*
X6043571Y3400103D01*
X6043571Y3400103D02*
X6072143Y3514389D01*
X6072143Y3514389D02*
X6100714Y3571532D01*
X6100714Y3571532D02*
X6157857Y3628675D01*
X6157857Y3628675D02*
X6243571Y3657246D01*
X6243571Y3657246D02*
X6300714Y3657246D01*
X6300714Y3657246D02*
X6386428Y3628675D01*
X6386428Y3628675D02*
X6415000Y3600103D01*
X14509999Y18421039D02*
X14509999Y17887705D01*
X14319523Y18725800D02*
X14129046Y18154372D01*
X14129046Y18154372D02*
X14624285Y18154372D01*
X14929047Y17887705D02*
X14929047Y18687705D01*
X15005237Y18192467D02*
X15233809Y17887705D01*
X15233809Y18421039D02*
X14929047Y18116277D01*
X15500475Y18687705D02*
X16033809Y18687705D01*
X16033809Y18687705D02*
X15690951Y17887705D01*
X17481428Y18687705D02*
X17976666Y18687705D01*
X17976666Y18687705D02*
X17710000Y18382943D01*
X17710000Y18382943D02*
X17824285Y18382943D01*
X17824285Y18382943D02*
X17900476Y18344848D01*
X17900476Y18344848D02*
X17938571Y18306753D01*
X17938571Y18306753D02*
X17976666Y18230562D01*
X17976666Y18230562D02*
X17976666Y18040086D01*
X17976666Y18040086D02*
X17938571Y17963896D01*
X17938571Y17963896D02*
X17900476Y17925800D01*
X17900476Y17925800D02*
X17824285Y17887705D01*
X17824285Y17887705D02*
X17595714Y17887705D01*
X17595714Y17887705D02*
X17519523Y17925800D01*
X17519523Y17925800D02*
X17481428Y17963896D01*
X18243333Y18687705D02*
X18433809Y17887705D01*
X18433809Y17887705D02*
X18586190Y18459134D01*
X18586190Y18459134D02*
X18738571Y17887705D01*
X18738571Y17887705D02*
X18929048Y18687705D01*
X11334999Y21201039D02*
X11334999Y20667705D01*
X11144523Y21505800D02*
X10954046Y20934372D01*
X10954046Y20934372D02*
X11449285Y20934372D01*
X11754047Y20667705D02*
X11754047Y21467705D01*
X11830237Y20972467D02*
X12058809Y20667705D01*
X12058809Y21201039D02*
X11754047Y20896277D01*
X12325475Y21467705D02*
X12858809Y21467705D01*
X12858809Y21467705D02*
X12515951Y20667705D01*
X14306428Y21467705D02*
X14801666Y21467705D01*
X14801666Y21467705D02*
X14535000Y21162943D01*
X14535000Y21162943D02*
X14649285Y21162943D01*
X14649285Y21162943D02*
X14725476Y21124848D01*
X14725476Y21124848D02*
X14763571Y21086753D01*
X14763571Y21086753D02*
X14801666Y21010562D01*
X14801666Y21010562D02*
X14801666Y20820086D01*
X14801666Y20820086D02*
X14763571Y20743896D01*
X14763571Y20743896D02*
X14725476Y20705800D01*
X14725476Y20705800D02*
X14649285Y20667705D01*
X14649285Y20667705D02*
X14420714Y20667705D01*
X14420714Y20667705D02*
X14344523Y20705800D01*
X14344523Y20705800D02*
X14306428Y20743896D01*
X15068333Y21467705D02*
X15258809Y20667705D01*
X15258809Y20667705D02*
X15411190Y21239134D01*
X15411190Y21239134D02*
X15563571Y20667705D01*
X15563571Y20667705D02*
X15754048Y21467705D01*
X-7858Y7641420D02*
X-55477Y7593800D01*
X-55477Y7593800D02*
X-198334Y7546181D01*
X-198334Y7546181D02*
X-293572Y7546181D01*
X-293572Y7546181D02*
X-436429Y7593800D01*
X-436429Y7593800D02*
X-531667Y7689039D01*
X-531667Y7689039D02*
X-579286Y7784277D01*
X-579286Y7784277D02*
X-626905Y7974753D01*
X-626905Y7974753D02*
X-626905Y8117610D01*
X-626905Y8117610D02*
X-579286Y8308086D01*
X-579286Y8308086D02*
X-531667Y8403324D01*
X-531667Y8403324D02*
X-436429Y8498562D01*
X-436429Y8498562D02*
X-293572Y8546181D01*
X-293572Y8546181D02*
X-198334Y8546181D01*
X-198334Y8546181D02*
X-55477Y8498562D01*
X-55477Y8498562D02*
X-7858Y8450943D01*
X373095Y8450943D02*
X420714Y8498562D01*
X420714Y8498562D02*
X515952Y8546181D01*
X515952Y8546181D02*
X754047Y8546181D01*
X754047Y8546181D02*
X849285Y8498562D01*
X849285Y8498562D02*
X896904Y8450943D01*
X896904Y8450943D02*
X944523Y8355705D01*
X944523Y8355705D02*
X944523Y8260467D01*
X944523Y8260467D02*
X896904Y8117610D01*
X896904Y8117610D02*
X325476Y7546181D01*
X325476Y7546181D02*
X944523Y7546181D01*
X1563571Y8546181D02*
X1658809Y8546181D01*
X1658809Y8546181D02*
X1754047Y8498562D01*
X1754047Y8498562D02*
X1801666Y8450943D01*
X1801666Y8450943D02*
X1849285Y8355705D01*
X1849285Y8355705D02*
X1896904Y8165229D01*
X1896904Y8165229D02*
X1896904Y7927134D01*
X1896904Y7927134D02*
X1849285Y7736658D01*
X1849285Y7736658D02*
X1801666Y7641420D01*
X1801666Y7641420D02*
X1754047Y7593800D01*
X1754047Y7593800D02*
X1658809Y7546181D01*
X1658809Y7546181D02*
X1563571Y7546181D01*
X1563571Y7546181D02*
X1468333Y7593800D01*
X1468333Y7593800D02*
X1420714Y7641420D01*
X1420714Y7641420D02*
X1373095Y7736658D01*
X1373095Y7736658D02*
X1325476Y7927134D01*
X1325476Y7927134D02*
X1325476Y8165229D01*
X1325476Y8165229D02*
X1373095Y8355705D01*
X1373095Y8355705D02*
X1420714Y8450943D01*
X1420714Y8450943D02*
X1468333Y8498562D01*
X1468333Y8498562D02*
X1563571Y8546181D01*
X-7858Y13927920D02*
X-55477Y13880300D01*
X-55477Y13880300D02*
X-198334Y13832681D01*
X-198334Y13832681D02*
X-293572Y13832681D01*
X-293572Y13832681D02*
X-436429Y13880300D01*
X-436429Y13880300D02*
X-531667Y13975539D01*
X-531667Y13975539D02*
X-579286Y14070777D01*
X-579286Y14070777D02*
X-626905Y14261253D01*
X-626905Y14261253D02*
X-626905Y14404110D01*
X-626905Y14404110D02*
X-579286Y14594586D01*
X-579286Y14594586D02*
X-531667Y14689824D01*
X-531667Y14689824D02*
X-436429Y14785062D01*
X-436429Y14785062D02*
X-293572Y14832681D01*
X-293572Y14832681D02*
X-198334Y14832681D01*
X-198334Y14832681D02*
X-55477Y14785062D01*
X-55477Y14785062D02*
X-7858Y14737443D01*
X944523Y13832681D02*
X373095Y13832681D01*
X658809Y13832681D02*
X658809Y14832681D01*
X658809Y14832681D02*
X563571Y14689824D01*
X563571Y14689824D02*
X468333Y14594586D01*
X468333Y14594586D02*
X373095Y14546967D01*
X1563571Y14832681D02*
X1658809Y14832681D01*
X1658809Y14832681D02*
X1754047Y14785062D01*
X1754047Y14785062D02*
X1801666Y14737443D01*
X1801666Y14737443D02*
X1849285Y14642205D01*
X1849285Y14642205D02*
X1896904Y14451729D01*
X1896904Y14451729D02*
X1896904Y14213634D01*
X1896904Y14213634D02*
X1849285Y14023158D01*
X1849285Y14023158D02*
X1801666Y13927920D01*
X1801666Y13927920D02*
X1754047Y13880300D01*
X1754047Y13880300D02*
X1658809Y13832681D01*
X1658809Y13832681D02*
X1563571Y13832681D01*
X1563571Y13832681D02*
X1468333Y13880300D01*
X1468333Y13880300D02*
X1420714Y13927920D01*
X1420714Y13927920D02*
X1373095Y14023158D01*
X1373095Y14023158D02*
X1325476Y14213634D01*
X1325476Y14213634D02*
X1325476Y14451729D01*
X1325476Y14451729D02*
X1373095Y14642205D01*
X1373095Y14642205D02*
X1420714Y14737443D01*
X1420714Y14737443D02*
X1468333Y14785062D01*
X1468333Y14785062D02*
X1563571Y14832681D01*
X11898333Y9799420D02*
X11850714Y9751800D01*
X11850714Y9751800D02*
X11707857Y9704181D01*
X11707857Y9704181D02*
X11612619Y9704181D01*
X11612619Y9704181D02*
X11469762Y9751800D01*
X11469762Y9751800D02*
X11374524Y9847039D01*
X11374524Y9847039D02*
X11326905Y9942277D01*
X11326905Y9942277D02*
X11279286Y10132753D01*
X11279286Y10132753D02*
X11279286Y10275610D01*
X11279286Y10275610D02*
X11326905Y10466086D01*
X11326905Y10466086D02*
X11374524Y10561324D01*
X11374524Y10561324D02*
X11469762Y10656562D01*
X11469762Y10656562D02*
X11612619Y10704181D01*
X11612619Y10704181D02*
X11707857Y10704181D01*
X11707857Y10704181D02*
X11850714Y10656562D01*
X11850714Y10656562D02*
X11898333Y10608943D01*
X12755476Y10370848D02*
X12755476Y9704181D01*
X12517381Y10751800D02*
X12279286Y10037515D01*
X12279286Y10037515D02*
X12898333Y10037515D01*
X23645833Y12340420D02*
X23598214Y12292800D01*
X23598214Y12292800D02*
X23455357Y12245181D01*
X23455357Y12245181D02*
X23360119Y12245181D01*
X23360119Y12245181D02*
X23217262Y12292800D01*
X23217262Y12292800D02*
X23122024Y12388039D01*
X23122024Y12388039D02*
X23074405Y12483277D01*
X23074405Y12483277D02*
X23026786Y12673753D01*
X23026786Y12673753D02*
X23026786Y12816610D01*
X23026786Y12816610D02*
X23074405Y13007086D01*
X23074405Y13007086D02*
X23122024Y13102324D01*
X23122024Y13102324D02*
X23217262Y13197562D01*
X23217262Y13197562D02*
X23360119Y13245181D01*
X23360119Y13245181D02*
X23455357Y13245181D01*
X23455357Y13245181D02*
X23598214Y13197562D01*
X23598214Y13197562D02*
X23645833Y13149943D01*
X23979167Y13245181D02*
X24598214Y13245181D01*
X24598214Y13245181D02*
X24264881Y12864229D01*
X24264881Y12864229D02*
X24407738Y12864229D01*
X24407738Y12864229D02*
X24502976Y12816610D01*
X24502976Y12816610D02*
X24550595Y12768991D01*
X24550595Y12768991D02*
X24598214Y12673753D01*
X24598214Y12673753D02*
X24598214Y12435658D01*
X24598214Y12435658D02*
X24550595Y12340420D01*
X24550595Y12340420D02*
X24502976Y12292800D01*
X24502976Y12292800D02*
X24407738Y12245181D01*
X24407738Y12245181D02*
X24122024Y12245181D01*
X24122024Y12245181D02*
X24026786Y12292800D01*
X24026786Y12292800D02*
X23979167Y12340420D01*
X23645833Y10435420D02*
X23598214Y10387800D01*
X23598214Y10387800D02*
X23455357Y10340181D01*
X23455357Y10340181D02*
X23360119Y10340181D01*
X23360119Y10340181D02*
X23217262Y10387800D01*
X23217262Y10387800D02*
X23122024Y10483039D01*
X23122024Y10483039D02*
X23074405Y10578277D01*
X23074405Y10578277D02*
X23026786Y10768753D01*
X23026786Y10768753D02*
X23026786Y10911610D01*
X23026786Y10911610D02*
X23074405Y11102086D01*
X23074405Y11102086D02*
X23122024Y11197324D01*
X23122024Y11197324D02*
X23217262Y11292562D01*
X23217262Y11292562D02*
X23360119Y11340181D01*
X23360119Y11340181D02*
X23455357Y11340181D01*
X23455357Y11340181D02*
X23598214Y11292562D01*
X23598214Y11292562D02*
X23645833Y11244943D01*
X24026786Y11244943D02*
X24074405Y11292562D01*
X24074405Y11292562D02*
X24169643Y11340181D01*
X24169643Y11340181D02*
X24407738Y11340181D01*
X24407738Y11340181D02*
X24502976Y11292562D01*
X24502976Y11292562D02*
X24550595Y11244943D01*
X24550595Y11244943D02*
X24598214Y11149705D01*
X24598214Y11149705D02*
X24598214Y11054467D01*
X24598214Y11054467D02*
X24550595Y10911610D01*
X24550595Y10911610D02*
X23979167Y10340181D01*
X23979167Y10340181D02*
X24598214Y10340181D01*
X23645833Y8530420D02*
X23598214Y8482800D01*
X23598214Y8482800D02*
X23455357Y8435181D01*
X23455357Y8435181D02*
X23360119Y8435181D01*
X23360119Y8435181D02*
X23217262Y8482800D01*
X23217262Y8482800D02*
X23122024Y8578039D01*
X23122024Y8578039D02*
X23074405Y8673277D01*
X23074405Y8673277D02*
X23026786Y8863753D01*
X23026786Y8863753D02*
X23026786Y9006610D01*
X23026786Y9006610D02*
X23074405Y9197086D01*
X23074405Y9197086D02*
X23122024Y9292324D01*
X23122024Y9292324D02*
X23217262Y9387562D01*
X23217262Y9387562D02*
X23360119Y9435181D01*
X23360119Y9435181D02*
X23455357Y9435181D01*
X23455357Y9435181D02*
X23598214Y9387562D01*
X23598214Y9387562D02*
X23645833Y9339943D01*
X24598214Y8435181D02*
X24026786Y8435181D01*
X24312500Y8435181D02*
X24312500Y9435181D01*
X24312500Y9435181D02*
X24217262Y9292324D01*
X24217262Y9292324D02*
X24122024Y9197086D01*
X24122024Y9197086D02*
X24026786Y9149467D01*
X508095Y19230181D02*
X508095Y20230181D01*
X508095Y19753991D02*
X1079523Y19753991D01*
X1079523Y19230181D02*
X1079523Y20230181D01*
X1508095Y20134943D02*
X1555714Y20182562D01*
X1555714Y20182562D02*
X1650952Y20230181D01*
X1650952Y20230181D02*
X1889047Y20230181D01*
X1889047Y20230181D02*
X1984285Y20182562D01*
X1984285Y20182562D02*
X2031904Y20134943D01*
X2031904Y20134943D02*
X2079523Y20039705D01*
X2079523Y20039705D02*
X2079523Y19944467D01*
X2079523Y19944467D02*
X2031904Y19801610D01*
X2031904Y19801610D02*
X1460476Y19230181D01*
X1460476Y19230181D02*
X2079523Y19230181D01*
X22733095Y4625181D02*
X22733095Y5625181D01*
X22733095Y5148991D02*
X23304523Y5148991D01*
X23304523Y4625181D02*
X23304523Y5625181D01*
X24304523Y4625181D02*
X23733095Y4625181D01*
X24018809Y4625181D02*
X24018809Y5625181D01*
X24018809Y5625181D02*
X23923571Y5482324D01*
X23923571Y5482324D02*
X23828333Y5387086D01*
X23828333Y5387086D02*
X23733095Y5339467D01*
X18599999Y20638967D02*
X18366666Y20972300D01*
X18199999Y20638967D02*
X18199999Y21338967D01*
X18199999Y21338967D02*
X18466666Y21338967D01*
X18466666Y21338967D02*
X18533333Y21305634D01*
X18533333Y21305634D02*
X18566666Y21272300D01*
X18566666Y21272300D02*
X18599999Y21205634D01*
X18599999Y21205634D02*
X18599999Y21105634D01*
X18599999Y21105634D02*
X18566666Y21038967D01*
X18566666Y21038967D02*
X18533333Y21005634D01*
X18533333Y21005634D02*
X18466666Y20972300D01*
X18466666Y20972300D02*
X18199999Y20972300D01*
X18866666Y21272300D02*
X18899999Y21305634D01*
X18899999Y21305634D02*
X18966666Y21338967D01*
X18966666Y21338967D02*
X19133333Y21338967D01*
X19133333Y21338967D02*
X19199999Y21305634D01*
X19199999Y21305634D02*
X19233333Y21272300D01*
X19233333Y21272300D02*
X19266666Y21205634D01*
X19266666Y21205634D02*
X19266666Y21138967D01*
X19266666Y21138967D02*
X19233333Y21038967D01*
X19233333Y21038967D02*
X18833333Y20638967D01*
X18833333Y20638967D02*
X19266666Y20638967D01*
X19500000Y21338967D02*
X19933333Y21338967D01*
X19933333Y21338967D02*
X19700000Y21072300D01*
X19700000Y21072300D02*
X19800000Y21072300D01*
X19800000Y21072300D02*
X19866666Y21038967D01*
X19866666Y21038967D02*
X19900000Y21005634D01*
X19900000Y21005634D02*
X19933333Y20938967D01*
X19933333Y20938967D02*
X19933333Y20772300D01*
X19933333Y20772300D02*
X19900000Y20705634D01*
X19900000Y20705634D02*
X19866666Y20672300D01*
X19866666Y20672300D02*
X19800000Y20638967D01*
X19800000Y20638967D02*
X19600000Y20638967D01*
X19600000Y20638967D02*
X19533333Y20672300D01*
X19533333Y20672300D02*
X19500000Y20705634D01*
X7507281Y20954436D02*
X7273948Y21287769D01*
X7107281Y20954436D02*
X7107281Y21654436D01*
X7107281Y21654436D02*
X7373948Y21654436D01*
X7373948Y21654436D02*
X7440615Y21621103D01*
X7440615Y21621103D02*
X7473948Y21587769D01*
X7473948Y21587769D02*
X7507281Y21521103D01*
X7507281Y21521103D02*
X7507281Y21421103D01*
X7507281Y21421103D02*
X7473948Y21354436D01*
X7473948Y21354436D02*
X7440615Y21321103D01*
X7440615Y21321103D02*
X7373948Y21287769D01*
X7373948Y21287769D02*
X7107281Y21287769D01*
X8173948Y20954436D02*
X7773948Y20954436D01*
X7973948Y20954436D02*
X7973948Y21654436D01*
X7973948Y21654436D02*
X7907281Y21554436D01*
X7907281Y21554436D02*
X7840615Y21487769D01*
X7840615Y21487769D02*
X7773948Y21454436D01*
X8407282Y21654436D02*
X8840615Y21654436D01*
X8840615Y21654436D02*
X8607282Y21387769D01*
X8607282Y21387769D02*
X8707282Y21387769D01*
X8707282Y21387769D02*
X8773948Y21354436D01*
X8773948Y21354436D02*
X8807282Y21321103D01*
X8807282Y21321103D02*
X8840615Y21254436D01*
X8840615Y21254436D02*
X8840615Y21087769D01*
X8840615Y21087769D02*
X8807282Y21021103D01*
X8807282Y21021103D02*
X8773948Y20987769D01*
X8773948Y20987769D02*
X8707282Y20954436D01*
X8707282Y20954436D02*
X8507282Y20954436D01*
X8507282Y20954436D02*
X8440615Y20987769D01*
X8440615Y20987769D02*
X8407282Y21021103D01*
X10579166Y18798967D02*
X10579166Y18232300D01*
X10579166Y18232300D02*
X10612500Y18165634D01*
X10612500Y18165634D02*
X10645833Y18132300D01*
X10645833Y18132300D02*
X10712500Y18098967D01*
X10712500Y18098967D02*
X10845833Y18098967D01*
X10845833Y18098967D02*
X10912500Y18132300D01*
X10912500Y18132300D02*
X10945833Y18165634D01*
X10945833Y18165634D02*
X10979166Y18232300D01*
X10979166Y18232300D02*
X10979166Y18798967D01*
X11679166Y18098967D02*
X11279166Y18098967D01*
X11479166Y18098967D02*
X11479166Y18798967D01*
X11479166Y18798967D02*
X11412499Y18698967D01*
X11412499Y18698967D02*
X11345833Y18632300D01*
X11345833Y18632300D02*
X11279166Y18598967D01*
X15012319Y17780001D02*
X15250414Y17780001D01*
X15155176Y17541906D02*
X15250414Y17780001D01*
X15250414Y17780001D02*
X15155176Y18018096D01*
X15440890Y17637144D02*
X15250414Y17780001D01*
X15250414Y17780001D02*
X15440890Y17922858D01*
X15012319Y17780001D02*
X15250414Y17780001D01*
X15155176Y17541906D02*
X15250414Y17780001D01*
X15250414Y17780001D02*
X15155176Y18018096D01*
X15440890Y17637144D02*
X15250414Y17780001D01*
X15250414Y17780001D02*
X15440890Y17922858D01*
X23487142Y14150181D02*
X23153809Y14626372D01*
X22915714Y14150181D02*
X22915714Y15150181D01*
X22915714Y15150181D02*
X23296666Y15150181D01*
X23296666Y15150181D02*
X23391904Y15102562D01*
X23391904Y15102562D02*
X23439523Y15054943D01*
X23439523Y15054943D02*
X23487142Y14959705D01*
X23487142Y14959705D02*
X23487142Y14816848D01*
X23487142Y14816848D02*
X23439523Y14721610D01*
X23439523Y14721610D02*
X23391904Y14673991D01*
X23391904Y14673991D02*
X23296666Y14626372D01*
X23296666Y14626372D02*
X22915714Y14626372D01*
X23868095Y15054943D02*
X23915714Y15102562D01*
X23915714Y15102562D02*
X24010952Y15150181D01*
X24010952Y15150181D02*
X24249047Y15150181D01*
X24249047Y15150181D02*
X24344285Y15102562D01*
X24344285Y15102562D02*
X24391904Y15054943D01*
X24391904Y15054943D02*
X24439523Y14959705D01*
X24439523Y14959705D02*
X24439523Y14864467D01*
X24439523Y14864467D02*
X24391904Y14721610D01*
X24391904Y14721610D02*
X23820476Y14150181D01*
X23820476Y14150181D02*
X24439523Y14150181D01*
X25058571Y15150181D02*
X25153809Y15150181D01*
X25153809Y15150181D02*
X25249047Y15102562D01*
X25249047Y15102562D02*
X25296666Y15054943D01*
X25296666Y15054943D02*
X25344285Y14959705D01*
X25344285Y14959705D02*
X25391904Y14769229D01*
X25391904Y14769229D02*
X25391904Y14531134D01*
X25391904Y14531134D02*
X25344285Y14340658D01*
X25344285Y14340658D02*
X25296666Y14245420D01*
X25296666Y14245420D02*
X25249047Y14197800D01*
X25249047Y14197800D02*
X25153809Y14150181D01*
X25153809Y14150181D02*
X25058571Y14150181D01*
X25058571Y14150181D02*
X24963333Y14197800D01*
X24963333Y14197800D02*
X24915714Y14245420D01*
X24915714Y14245420D02*
X24868095Y14340658D01*
X24868095Y14340658D02*
X24820476Y14531134D01*
X24820476Y14531134D02*
X24820476Y14769229D01*
X24820476Y14769229D02*
X24868095Y14959705D01*
X24868095Y14959705D02*
X24915714Y15054943D01*
X24915714Y15054943D02*
X24963333Y15102562D01*
X24963333Y15102562D02*
X25058571Y15150181D01*
X23487142Y16055181D02*
X23153809Y16531372D01*
X22915714Y16055181D02*
X22915714Y17055181D01*
X22915714Y17055181D02*
X23296666Y17055181D01*
X23296666Y17055181D02*
X23391904Y17007562D01*
X23391904Y17007562D02*
X23439523Y16959943D01*
X23439523Y16959943D02*
X23487142Y16864705D01*
X23487142Y16864705D02*
X23487142Y16721848D01*
X23487142Y16721848D02*
X23439523Y16626610D01*
X23439523Y16626610D02*
X23391904Y16578991D01*
X23391904Y16578991D02*
X23296666Y16531372D01*
X23296666Y16531372D02*
X22915714Y16531372D01*
X24439523Y16055181D02*
X23868095Y16055181D01*
X24153809Y16055181D02*
X24153809Y17055181D01*
X24153809Y17055181D02*
X24058571Y16912324D01*
X24058571Y16912324D02*
X23963333Y16817086D01*
X23963333Y16817086D02*
X23868095Y16769467D01*
X25058571Y17055181D02*
X25153809Y17055181D01*
X25153809Y17055181D02*
X25249047Y17007562D01*
X25249047Y17007562D02*
X25296666Y16959943D01*
X25296666Y16959943D02*
X25344285Y16864705D01*
X25344285Y16864705D02*
X25391904Y16674229D01*
X25391904Y16674229D02*
X25391904Y16436134D01*
X25391904Y16436134D02*
X25344285Y16245658D01*
X25344285Y16245658D02*
X25296666Y16150420D01*
X25296666Y16150420D02*
X25249047Y16102800D01*
X25249047Y16102800D02*
X25153809Y16055181D01*
X25153809Y16055181D02*
X25058571Y16055181D01*
X25058571Y16055181D02*
X24963333Y16102800D01*
X24963333Y16102800D02*
X24915714Y16150420D01*
X24915714Y16150420D02*
X24868095Y16245658D01*
X24868095Y16245658D02*
X24820476Y16436134D01*
X24820476Y16436134D02*
X24820476Y16674229D01*
X24820476Y16674229D02*
X24868095Y16864705D01*
X24868095Y16864705D02*
X24915714Y16959943D01*
X24915714Y16959943D02*
X24963333Y17007562D01*
X24963333Y17007562D02*
X25058571Y17055181D01*
X8339166Y18533967D02*
X8339166Y18033967D01*
X8339166Y18033967D02*
X8305833Y17933967D01*
X8305833Y17933967D02*
X8239166Y17867300D01*
X8239166Y17867300D02*
X8139166Y17833967D01*
X8139166Y17833967D02*
X8072500Y17833967D01*
X9039166Y17833967D02*
X8639166Y17833967D01*
X8839166Y17833967D02*
X8839166Y18533967D01*
X8839166Y18533967D02*
X8772499Y18433967D01*
X8772499Y18433967D02*
X8705833Y18367300D01*
X8705833Y18367300D02*
X8639166Y18333967D01*
X22852143Y20999515D02*
X22652143Y20999515D01*
X22652143Y20685229D02*
X22652143Y21285229D01*
X22652143Y21285229D02*
X22937857Y21285229D01*
X23166429Y20685229D02*
X23166429Y21285229D01*
X23452143Y20685229D02*
X23452143Y21285229D01*
X23452143Y21285229D02*
X23595000Y21285229D01*
X23595000Y21285229D02*
X23680714Y21256658D01*
X23680714Y21256658D02*
X23737857Y21199515D01*
X23737857Y21199515D02*
X23766428Y21142372D01*
X23766428Y21142372D02*
X23795000Y21028086D01*
X23795000Y21028086D02*
X23795000Y20942372D01*
X23795000Y20942372D02*
X23766428Y20828086D01*
X23766428Y20828086D02*
X23737857Y20770943D01*
X23737857Y20770943D02*
X23680714Y20713800D01*
X23680714Y20713800D02*
X23595000Y20685229D01*
X23595000Y20685229D02*
X23452143Y20685229D01*
X24023571Y21228086D02*
X24052143Y21256658D01*
X24052143Y21256658D02*
X24109286Y21285229D01*
X24109286Y21285229D02*
X24252143Y21285229D01*
X24252143Y21285229D02*
X24309286Y21256658D01*
X24309286Y21256658D02*
X24337857Y21228086D01*
X24337857Y21228086D02*
X24366428Y21170943D01*
X24366428Y21170943D02*
X24366428Y21113800D01*
X24366428Y21113800D02*
X24337857Y21028086D01*
X24337857Y21028086D02*
X23995000Y20685229D01*
X23995000Y20685229D02*
X24366428Y20685229D01*
X627143Y3854515D02*
X427143Y3854515D01*
X427143Y3540229D02*
X427143Y4140229D01*
X427143Y4140229D02*
X712857Y4140229D01*
X941429Y3540229D02*
X941429Y4140229D01*
X1227143Y3540229D02*
X1227143Y4140229D01*
X1227143Y4140229D02*
X1370000Y4140229D01*
X1370000Y4140229D02*
X1455714Y4111658D01*
X1455714Y4111658D02*
X1512857Y4054515D01*
X1512857Y4054515D02*
X1541428Y3997372D01*
X1541428Y3997372D02*
X1570000Y3883086D01*
X1570000Y3883086D02*
X1570000Y3797372D01*
X1570000Y3797372D02*
X1541428Y3683086D01*
X1541428Y3683086D02*
X1512857Y3625943D01*
X1512857Y3625943D02*
X1455714Y3568800D01*
X1455714Y3568800D02*
X1370000Y3540229D01*
X1370000Y3540229D02*
X1227143Y3540229D01*
X2141428Y3540229D02*
X1798571Y3540229D01*
X1970000Y3540229D02*
X1970000Y4140229D01*
X1970000Y4140229D02*
X1912857Y4054515D01*
X1912857Y4054515D02*
X1855714Y3997372D01*
X1855714Y3997372D02*
X1798571Y3968800D01*
X1103333Y11864181D02*
X770000Y12340372D01*
X531905Y11864181D02*
X531905Y12864181D01*
X531905Y12864181D02*
X912857Y12864181D01*
X912857Y12864181D02*
X1008095Y12816562D01*
X1008095Y12816562D02*
X1055714Y12768943D01*
X1055714Y12768943D02*
X1103333Y12673705D01*
X1103333Y12673705D02*
X1103333Y12530848D01*
X1103333Y12530848D02*
X1055714Y12435610D01*
X1055714Y12435610D02*
X1008095Y12387991D01*
X1008095Y12387991D02*
X912857Y12340372D01*
X912857Y12340372D02*
X531905Y12340372D01*
X2055714Y11864181D02*
X1484286Y11864181D01*
X1770000Y11864181D02*
X1770000Y12864181D01*
X1770000Y12864181D02*
X1674762Y12721324D01*
X1674762Y12721324D02*
X1579524Y12626086D01*
X1579524Y12626086D02*
X1484286Y12578467D01*
X912833Y5577681D02*
X579500Y6053872D01*
X341405Y5577681D02*
X341405Y6577681D01*
X341405Y6577681D02*
X722357Y6577681D01*
X722357Y6577681D02*
X817595Y6530062D01*
X817595Y6530062D02*
X865214Y6482443D01*
X865214Y6482443D02*
X912833Y6387205D01*
X912833Y6387205D02*
X912833Y6244348D01*
X912833Y6244348D02*
X865214Y6149110D01*
X865214Y6149110D02*
X817595Y6101491D01*
X817595Y6101491D02*
X722357Y6053872D01*
X722357Y6053872D02*
X341405Y6053872D01*
X1293786Y6482443D02*
X1341405Y6530062D01*
X1341405Y6530062D02*
X1436643Y6577681D01*
X1436643Y6577681D02*
X1674738Y6577681D01*
X1674738Y6577681D02*
X1769976Y6530062D01*
X1769976Y6530062D02*
X1817595Y6482443D01*
X1817595Y6482443D02*
X1865214Y6387205D01*
X1865214Y6387205D02*
X1865214Y6291967D01*
X1865214Y6291967D02*
X1817595Y6149110D01*
X1817595Y6149110D02*
X1246167Y5577681D01*
X1246167Y5577681D02*
X1865214Y5577681D01*
X1103333Y9514681D02*
X770000Y9990872D01*
X531905Y9514681D02*
X531905Y10514681D01*
X531905Y10514681D02*
X912857Y10514681D01*
X912857Y10514681D02*
X1008095Y10467062D01*
X1008095Y10467062D02*
X1055714Y10419443D01*
X1055714Y10419443D02*
X1103333Y10324205D01*
X1103333Y10324205D02*
X1103333Y10181348D01*
X1103333Y10181348D02*
X1055714Y10086110D01*
X1055714Y10086110D02*
X1008095Y10038491D01*
X1008095Y10038491D02*
X912857Y9990872D01*
X912857Y9990872D02*
X531905Y9990872D01*
X1436667Y10514681D02*
X2055714Y10514681D01*
X2055714Y10514681D02*
X1722381Y10133729D01*
X1722381Y10133729D02*
X1865238Y10133729D01*
X1865238Y10133729D02*
X1960476Y10086110D01*
X1960476Y10086110D02*
X2008095Y10038491D01*
X2008095Y10038491D02*
X2055714Y9943253D01*
X2055714Y9943253D02*
X2055714Y9705158D01*
X2055714Y9705158D02*
X2008095Y9609920D01*
X2008095Y9609920D02*
X1960476Y9562300D01*
X1960476Y9562300D02*
X1865238Y9514681D01*
X1865238Y9514681D02*
X1579524Y9514681D01*
X1579524Y9514681D02*
X1484286Y9562300D01*
X1484286Y9562300D02*
X1436667Y9609920D01*
X-7858Y15928181D02*
X-341191Y16404372D01*
X-579286Y15928181D02*
X-579286Y16928181D01*
X-579286Y16928181D02*
X-198334Y16928181D01*
X-198334Y16928181D02*
X-103096Y16880562D01*
X-103096Y16880562D02*
X-55477Y16832943D01*
X-55477Y16832943D02*
X-7858Y16737705D01*
X-7858Y16737705D02*
X-7858Y16594848D01*
X-7858Y16594848D02*
X-55477Y16499610D01*
X-55477Y16499610D02*
X-103096Y16451991D01*
X-103096Y16451991D02*
X-198334Y16404372D01*
X-198334Y16404372D02*
X-579286Y16404372D01*
X944523Y15928181D02*
X373095Y15928181D01*
X658809Y15928181D02*
X658809Y16928181D01*
X658809Y16928181D02*
X563571Y16785324D01*
X563571Y16785324D02*
X468333Y16690086D01*
X468333Y16690086D02*
X373095Y16642467D01*
X1325476Y16832943D02*
X1373095Y16880562D01*
X1373095Y16880562D02*
X1468333Y16928181D01*
X1468333Y16928181D02*
X1706428Y16928181D01*
X1706428Y16928181D02*
X1801666Y16880562D01*
X1801666Y16880562D02*
X1849285Y16832943D01*
X1849285Y16832943D02*
X1896904Y16737705D01*
X1896904Y16737705D02*
X1896904Y16642467D01*
X1896904Y16642467D02*
X1849285Y16499610D01*
X1849285Y16499610D02*
X1277857Y15928181D01*
X1277857Y15928181D02*
X1896904Y15928181D01*
D11*
G04 #@! TO.C,C20*
X5433279Y7491000D02*
X5107721Y7491000D01*
X5433279Y8511000D02*
X5107721Y8511000D01*
G04 #@! TO.C,C10*
X5107721Y14797500D02*
X5433279Y14797500D01*
X5107721Y13777500D02*
X5433279Y13777500D01*
G04 #@! TO.C,C4*
X11806422Y9219000D02*
X12323578Y9219000D01*
X11806422Y7799000D02*
X12323578Y7799000D01*
G04 #@! TO.C,C3*
X20165279Y12190000D02*
X19839721Y12190000D01*
X20165279Y13210000D02*
X19839721Y13210000D01*
G04 #@! TO.C,C2*
X20165279Y10285000D02*
X19839721Y10285000D01*
X20165279Y11305000D02*
X19839721Y11305000D01*
G04 #@! TO.C,C1*
X20165279Y8380000D02*
X19839721Y8380000D01*
X20165279Y9400000D02*
X19839721Y9400000D01*
G04 #@! TO.C,R23*
X19780000Y17680000D02*
X19780000Y18010000D01*
X13240000Y17680000D02*
X19780000Y17680000D01*
X13240000Y18010000D02*
X13240000Y17680000D01*
X19780000Y20420000D02*
X19780000Y20090000D01*
X13240000Y20420000D02*
X19780000Y20420000D01*
X13240000Y20090000D02*
X13240000Y20420000D01*
G04 #@! TO.C,R13*
X16605000Y18950000D02*
X16605000Y19280000D01*
X10065000Y18950000D02*
X16605000Y18950000D01*
X10065000Y19280000D02*
X10065000Y18950000D01*
X16605000Y21690000D02*
X16605000Y21360000D01*
X10065000Y21690000D02*
X16605000Y21690000D01*
X10065000Y21360000D02*
X10065000Y21690000D01*
D12*
G04 #@! TO.C,U1*
X11620500Y9632201D02*
X11620500Y9378201D01*
X11239500Y9632201D02*
X11620500Y9632201D01*
X11239500Y9378201D02*
X11239500Y9632201D01*
X11620500Y9378201D02*
X11239500Y9378201D01*
X15633700Y11593945D02*
X15633700Y15076055D01*
X10401300Y15076055D02*
X10401300Y11593945D01*
D11*
G04 #@! TO.C,R20*
X20173767Y15115000D02*
X19831233Y15115000D01*
X20173767Y14095000D02*
X19831233Y14095000D01*
G04 #@! TO.C,R10*
X20173767Y17020000D02*
X19831233Y17020000D01*
X20173767Y16000000D02*
X19831233Y16000000D01*
G04 #@! TO.C,J1*
X15667500Y17840000D02*
X14017500Y17840000D01*
X15667500Y7560000D02*
X15667500Y17840000D01*
X10367500Y7560000D02*
X15667500Y7560000D01*
X10367500Y17840000D02*
X10367500Y7560000D01*
X12017500Y17840000D02*
X10367500Y17840000D01*
X14017500Y17840000D02*
G75*
G02*
X12017500Y17840000I-1000000J0D01*
G01*
G04 #@! TO.C,R1*
X4670436Y11409000D02*
X6124564Y11409000D01*
X4670436Y13229000D02*
X6124564Y13229000D01*
G04 #@! TO.C,R2*
X4670436Y6942500D02*
X6124564Y6942500D01*
X4670436Y5122500D02*
X6124564Y5122500D01*
G04 #@! TO.C,R3*
X4670436Y9059500D02*
X6124564Y9059500D01*
X4670436Y10879500D02*
X6124564Y10879500D01*
G04 #@! TO.C,R12*
X4670436Y17166000D02*
X6124564Y17166000D01*
X4670436Y15346000D02*
X6124564Y15346000D01*
G04 #@! TD*
M02*
