%TF.GenerationSoftware,KiCad,Pcbnew,8.0.2*%
%TF.CreationDate,2024-05-02T20:14:49+02:00*%
%TF.ProjectId,VR-Conditioner-MAX9926+reg,56522d43-6f6e-4646-9974-696f6e65722d,3.7*%
%TF.SameCoordinates,PX68c4118PY713e7a8*%
%TF.FileFunction,Copper,L2,Bot*%
%TF.FilePolarity,Positive*%
%FSLAX46Y46*%
G04 Gerber Fmt 4.6, Leading zero omitted, Abs format (unit mm)*
G04 Created by KiCad (PCBNEW 8.0.2) date 2024-05-02 20:14:49*
%MOMM*%
%LPD*%
G01*
G04 APERTURE LIST*
%TA.AperFunction,ComponentPad*%
%ADD10R,1.600000X1.600000*%
%TD*%
%TA.AperFunction,ComponentPad*%
%ADD11O,1.600000X1.600000*%
%TD*%
%TA.AperFunction,ComponentPad*%
%ADD12C,1.600000*%
%TD*%
%TA.AperFunction,ComponentPad*%
%ADD13R,1.700000X1.700000*%
%TD*%
%TA.AperFunction,ComponentPad*%
%ADD14O,1.700000X1.700000*%
%TD*%
%TA.AperFunction,ComponentPad*%
%ADD15R,1.500000X1.500000*%
%TD*%
%TA.AperFunction,ComponentPad*%
%ADD16C,1.500000*%
%TD*%
%TA.AperFunction,ViaPad*%
%ADD17C,0.600000*%
%TD*%
%TA.AperFunction,Conductor*%
%ADD18C,0.300000*%
%TD*%
%TA.AperFunction,Conductor*%
%ADD19C,0.400000*%
%TD*%
%TA.AperFunction,Conductor*%
%ADD20C,0.200000*%
%TD*%
G04 APERTURE END LIST*
D10*
%TO.P,J1,1,Pin_1*%
%TO.N,Net-(J1-Pin_1)*%
X9207500Y16510000D03*
D11*
%TO.P,J1,2,Pin_2*%
%TO.N,Net-(J1-Pin_2)*%
X9207500Y13970000D03*
%TO.P,J1,3,Pin_3*%
%TO.N,Net-(J1-Pin_3)*%
X9207500Y11430000D03*
%TO.P,J1,4,Pin_4*%
%TO.N,Net-(J1-Pin_4)*%
X9207500Y8890000D03*
%TO.P,J1,5,Pin_5*%
%TO.N,VCC*%
X16827500Y8890000D03*
%TO.P,J1,6,Pin_6*%
%TO.N,GND*%
X16827500Y11430000D03*
%TO.P,J1,7,Pin_7*%
%TO.N,/COUT2*%
X16827500Y13970000D03*
%TO.P,J1,8,Pin_8*%
%TO.N,/COUT1*%
X16827500Y16510000D03*
%TD*%
D12*
%TO.P,R13,1*%
%TO.N,Net-(J1-Pin_1)*%
X9525000Y20320000D03*
D11*
%TO.P,R13,2*%
%TO.N,Net-(J1-Pin_2)*%
X17145000Y20320000D03*
%TD*%
D12*
%TO.P,R23,1*%
%TO.N,Net-(J1-Pin_3)*%
X12700000Y19050000D03*
D11*
%TO.P,R23,2*%
%TO.N,Net-(J1-Pin_4)*%
X20320000Y19050000D03*
%TD*%
D13*
%TO.P,J2,1,Pin_1*%
%TO.N,+12V*%
X8890000Y4445000D03*
D14*
%TO.P,J2,2,Pin_2*%
%TO.N,GND*%
X11430000Y4445000D03*
%TO.P,J2,3,Pin_3*%
%TO.N,/COUT2*%
X13970000Y4445000D03*
%TO.P,J2,4,Pin_4*%
%TO.N,/COUT1*%
X16510000Y4445000D03*
%TD*%
D15*
%TO.P,U2,1,GND*%
%TO.N,GND*%
X15240000Y6650000D03*
D16*
%TO.P,U2,2,VO*%
%TO.N,VCC*%
X12700000Y6650000D03*
%TO.P,U2,3,VI*%
%TO.N,+12V*%
X10160000Y6650000D03*
%TD*%
D17*
%TO.N,GND*%
X13652500Y11972990D03*
X6985000Y19685000D03*
X7089999Y3914999D03*
X19685000Y6985000D03*
X18415000Y19050000D03*
X5169010Y11138010D03*
%TD*%
D18*
%TO.N,GND*%
X13652500Y12065000D02*
X13652500Y12065000D01*
X16827500Y11430000D02*
X14195490Y11430000D01*
X14195490Y11430000D02*
X13652500Y11972990D01*
X6985000Y19685000D02*
X6985000Y19685000D01*
X7089999Y3914999D02*
X6985000Y4019998D01*
X7759999Y3244999D02*
X10229999Y3244999D01*
X21024999Y3244999D02*
X21590000Y3810000D01*
X7089999Y3914999D02*
X7759999Y3244999D01*
X6985000Y4019998D02*
X6985000Y19685000D01*
X10725001Y3244999D02*
X11430000Y3949998D01*
X10229999Y3244999D02*
X10725001Y3244999D01*
X11430000Y3949998D02*
X11430000Y4445000D01*
X10229999Y3244999D02*
X21024999Y3244999D01*
D19*
%TO.N,Net-(J1-Pin_2)*%
X10367501Y18813001D02*
X10367501Y15130001D01*
X11874500Y20320000D02*
X10367501Y18813001D01*
X17145000Y20320000D02*
X11874500Y20320000D01*
X10367501Y15130001D02*
X9207500Y13970000D01*
%TO.N,Net-(J1-Pin_3)*%
X11112500Y13335000D02*
X11112500Y17145000D01*
X9207500Y11430000D02*
X11112500Y13335000D01*
X11112500Y17462500D02*
X11112500Y17145000D01*
X12700000Y19050000D02*
X11112500Y17462500D01*
%TO.N,Net-(J1-Pin_4)*%
X7793499Y20493499D02*
X8128000Y20828000D01*
X7793499Y10304001D02*
X8477250Y9620250D01*
X9207500Y8890000D02*
X8477250Y9620250D01*
X7793499Y11031999D02*
X7793499Y19067001D01*
X8128000Y20828000D02*
X8780001Y21480001D01*
X8477250Y9620250D02*
X8047499Y10050001D01*
X7793499Y11031999D02*
X7793499Y20429999D01*
X17889999Y21480001D02*
X20320000Y19050000D01*
X7793499Y11031999D02*
X7793499Y10304001D01*
X8780001Y21480001D02*
X17889999Y21480001D01*
%TO.N,Net-(J1-Pin_1)*%
X9207500Y18478500D02*
X9207500Y19685000D01*
X9207500Y16510000D02*
X9207500Y18478500D01*
X9207500Y18478500D02*
X9207500Y20002500D01*
X9207500Y20002500D02*
X9525000Y20320000D01*
D20*
%TO.N,/COUT1*%
X16510000Y4445000D02*
X16510000Y6667500D01*
X16827500Y6985000D02*
X17716500Y7874000D01*
X16573500Y6731000D02*
X17716500Y7874000D01*
X17927501Y8085001D02*
X17927501Y15409999D01*
X17927501Y15409999D02*
X16827500Y16510000D01*
X16510000Y6667500D02*
X16573500Y6731000D01*
X17716500Y7874000D02*
X17927501Y8085001D01*
%TO.N,/COUT2*%
X13052499Y11684989D02*
X13052499Y12353001D01*
X13052499Y12353001D02*
X14669498Y13970000D01*
X14669498Y13970000D02*
X16827500Y13970000D01*
X13970000Y4445000D02*
X13970000Y10767488D01*
X13970000Y10767488D02*
X13162494Y11574994D01*
X13162494Y11574994D02*
X13052499Y11684989D01*
%TD*%
%TA.AperFunction,Conductor*%
%TO.N,GND*%
G36*
X8211461Y22129498D02*
G01*
X8257954Y22075842D01*
X8268058Y22005568D01*
X8238564Y21940988D01*
X8232450Y21934421D01*
X7577672Y21279643D01*
X7577671Y21279643D01*
X7577670Y21279641D01*
X7449533Y21151504D01*
X7243170Y20945142D01*
X7165634Y20829101D01*
X7112228Y20700166D01*
X7112226Y20700161D01*
X7084999Y20563284D01*
X7084999Y10234217D01*
X7099762Y10160000D01*
X7112226Y10097340D01*
X7165634Y9968400D01*
X7243171Y9852358D01*
X7497170Y9598359D01*
X7497171Y9598358D01*
X7775194Y9320336D01*
X7877518Y9218012D01*
X7911544Y9155700D01*
X7913944Y9117936D01*
X7894002Y8890001D01*
X7913957Y8661914D01*
X7973215Y8440760D01*
X7973217Y8440754D01*
X8069977Y8233251D01*
X8158889Y8106271D01*
X8201302Y8045700D01*
X8363200Y7883802D01*
X8550751Y7752477D01*
X8758257Y7655716D01*
X8979413Y7596457D01*
X9051247Y7590173D01*
X9117362Y7564311D01*
X9159002Y7506808D01*
X9162943Y7435921D01*
X9143477Y7392383D01*
X9065943Y7281653D01*
X8972881Y7082080D01*
X8972879Y7082074D01*
X8956981Y7022741D01*
X8915885Y6869371D01*
X8896693Y6650000D01*
X8915885Y6430629D01*
X8942432Y6331557D01*
X8972879Y6217927D01*
X8972881Y6217921D01*
X9065941Y6018352D01*
X9065944Y6018346D01*
X9077551Y6001769D01*
X9100239Y5934498D01*
X9082954Y5865637D01*
X9031185Y5817053D01*
X8974338Y5803500D01*
X7991350Y5803500D01*
X7930803Y5796991D01*
X7930795Y5796989D01*
X7793797Y5745890D01*
X7793792Y5745888D01*
X7676738Y5658262D01*
X7589112Y5541208D01*
X7589110Y5541203D01*
X7538011Y5404205D01*
X7538009Y5404197D01*
X7531500Y5343650D01*
X7531500Y3546351D01*
X7538009Y3485804D01*
X7538011Y3485796D01*
X7589110Y3348798D01*
X7589112Y3348793D01*
X7676738Y3231739D01*
X7793792Y3144113D01*
X7793794Y3144112D01*
X7793796Y3144111D01*
X7847600Y3124043D01*
X7930795Y3093012D01*
X7930803Y3093010D01*
X7991350Y3086501D01*
X7991355Y3086501D01*
X7991362Y3086500D01*
X7991368Y3086500D01*
X9788632Y3086500D01*
X9788638Y3086500D01*
X9788645Y3086501D01*
X9788649Y3086501D01*
X9849196Y3093010D01*
X9849199Y3093011D01*
X9849201Y3093011D01*
X9986204Y3144111D01*
X10056399Y3196658D01*
X10103261Y3231739D01*
X10190886Y3348792D01*
X10190885Y3348792D01*
X10190889Y3348796D01*
X10235196Y3467587D01*
X10277741Y3524419D01*
X10344262Y3549230D01*
X10413636Y3534138D01*
X10445952Y3508888D01*
X10507097Y3442466D01*
X10684698Y3304233D01*
X10684699Y3304232D01*
X10882628Y3197118D01*
X10882630Y3197117D01*
X11095483Y3124045D01*
X11095492Y3124043D01*
X11176000Y3110609D01*
X11176000Y4014298D01*
X11237007Y3979075D01*
X11364174Y3945000D01*
X11495826Y3945000D01*
X11622993Y3979075D01*
X11684000Y4014298D01*
X11684000Y3110610D01*
X11764507Y3124043D01*
X11764516Y3124045D01*
X11977369Y3197117D01*
X11977371Y3197118D01*
X12175300Y3304232D01*
X12175301Y3304233D01*
X12352902Y3442466D01*
X12505327Y3608045D01*
X12594217Y3744101D01*
X12648220Y3790190D01*
X12718568Y3799765D01*
X12782925Y3769788D01*
X12805183Y3744102D01*
X12894279Y3607730D01*
X13046762Y3442092D01*
X13060092Y3431717D01*
X13224424Y3303811D01*
X13422426Y3196658D01*
X13422427Y3196658D01*
X13422428Y3196657D01*
X13534227Y3158277D01*
X13635365Y3123556D01*
X13857431Y3086500D01*
X13857435Y3086500D01*
X14082565Y3086500D01*
X14082569Y3086500D01*
X14304635Y3123556D01*
X14517574Y3196658D01*
X14715576Y3303811D01*
X14893240Y3442094D01*
X15045722Y3607732D01*
X15045927Y3608045D01*
X15062247Y3633025D01*
X15134518Y3743646D01*
X15188520Y3789732D01*
X15258868Y3799308D01*
X15323225Y3769331D01*
X15345480Y3743647D01*
X15371313Y3704107D01*
X15434275Y3607735D01*
X15434279Y3607730D01*
X15586762Y3442092D01*
X15600092Y3431717D01*
X15764424Y3303811D01*
X15962426Y3196658D01*
X15962427Y3196658D01*
X15962428Y3196657D01*
X16074227Y3158277D01*
X16175365Y3123556D01*
X16397431Y3086500D01*
X16397435Y3086500D01*
X16622565Y3086500D01*
X16622569Y3086500D01*
X16844635Y3123556D01*
X17057574Y3196658D01*
X17255576Y3303811D01*
X17433240Y3442094D01*
X17585722Y3607732D01*
X17585927Y3608045D01*
X17648687Y3704107D01*
X17708860Y3796209D01*
X17799296Y4002384D01*
X17854564Y4220632D01*
X17873156Y4445000D01*
X17854564Y4669368D01*
X17830662Y4763754D01*
X17799297Y4887613D01*
X17799296Y4887614D01*
X17799296Y4887616D01*
X17708860Y5093791D01*
X17702140Y5104076D01*
X17648429Y5186287D01*
X18334500Y5186287D01*
X18334500Y4973713D01*
X18367754Y4763757D01*
X18433443Y4561588D01*
X18529949Y4372184D01*
X18654896Y4200208D01*
X18654898Y4200206D01*
X18654900Y4200203D01*
X18805202Y4049901D01*
X18805205Y4049899D01*
X18805208Y4049896D01*
X18977184Y3924949D01*
X19166588Y3828443D01*
X19368757Y3762754D01*
X19578713Y3729500D01*
X19578716Y3729500D01*
X19791284Y3729500D01*
X19791287Y3729500D01*
X20001243Y3762754D01*
X20203412Y3828443D01*
X20392816Y3924949D01*
X20564792Y4049896D01*
X20715104Y4200208D01*
X20840051Y4372184D01*
X20936557Y4561588D01*
X21002246Y4763757D01*
X21035500Y4973713D01*
X21035500Y5186287D01*
X21002246Y5396243D01*
X20936557Y5598412D01*
X20840051Y5787816D01*
X20715104Y5959792D01*
X20715101Y5959795D01*
X20715099Y5959798D01*
X20564797Y6110100D01*
X20564794Y6110102D01*
X20564792Y6110104D01*
X20416394Y6217921D01*
X20392819Y6235049D01*
X20392818Y6235050D01*
X20392816Y6235051D01*
X20203412Y6331557D01*
X20001243Y6397246D01*
X19791287Y6430500D01*
X19578713Y6430500D01*
X19368757Y6397246D01*
X19368754Y6397246D01*
X19368753Y6397245D01*
X19166588Y6331557D01*
X19166586Y6331556D01*
X18977180Y6235049D01*
X18805205Y6110102D01*
X18805202Y6110100D01*
X18654900Y5959798D01*
X18654898Y5959795D01*
X18529951Y5787820D01*
X18433444Y5598414D01*
X18433443Y5598412D01*
X18367776Y5396310D01*
X18367754Y5396243D01*
X18334500Y5186287D01*
X17648429Y5186287D01*
X17585724Y5282266D01*
X17585720Y5282271D01*
X17433237Y5447909D01*
X17294434Y5555944D01*
X17255576Y5586189D01*
X17255569Y5586193D01*
X17184530Y5624638D01*
X17134140Y5674651D01*
X17118500Y5735451D01*
X17118500Y6363261D01*
X17138502Y6431382D01*
X17155405Y6452356D01*
X18203422Y7500373D01*
X18414422Y7711373D01*
X18494533Y7850129D01*
X18536001Y8004890D01*
X18536001Y15490110D01*
X18506154Y15601500D01*
X18494533Y15644872D01*
X18414422Y15783627D01*
X18129177Y16068872D01*
X18095154Y16131182D01*
X18096567Y16190574D01*
X18121043Y16281913D01*
X18140998Y16510000D01*
X18121043Y16738087D01*
X18061784Y16959243D01*
X17965023Y17166749D01*
X17833698Y17354300D01*
X17671800Y17516198D01*
X17484249Y17647523D01*
X17293430Y17736503D01*
X17276746Y17744283D01*
X17276740Y17744285D01*
X17183271Y17769330D01*
X17055587Y17803543D01*
X16827500Y17823498D01*
X16599413Y17803543D01*
X16378259Y17744285D01*
X16378253Y17744283D01*
X16170750Y17647523D01*
X15983203Y17516201D01*
X15983197Y17516196D01*
X15821304Y17354303D01*
X15821299Y17354297D01*
X15689977Y17166750D01*
X15593217Y16959247D01*
X15593216Y16959243D01*
X15533957Y16738087D01*
X15514002Y16510000D01*
X15533957Y16281913D01*
X15558430Y16190578D01*
X15574345Y16131182D01*
X15593216Y16060757D01*
X15689977Y15853251D01*
X15821302Y15665700D01*
X15983200Y15503802D01*
X16170751Y15372477D01*
X16205859Y15356106D01*
X16209957Y15354195D01*
X16263242Y15307278D01*
X16282703Y15239001D01*
X16262161Y15171041D01*
X16209957Y15125805D01*
X16170750Y15107523D01*
X15983203Y14976201D01*
X15983197Y14976196D01*
X15821304Y14814303D01*
X15821295Y14814292D01*
X15693815Y14632230D01*
X15638358Y14587901D01*
X15590602Y14578500D01*
X14589386Y14578500D01*
X14512006Y14557767D01*
X14512006Y14557766D01*
X14434625Y14537032D01*
X14434620Y14537030D01*
X14295874Y14456925D01*
X14295864Y14456917D01*
X12565582Y12726635D01*
X12565574Y12726625D01*
X12485466Y12587874D01*
X12485467Y12587873D01*
X12443999Y12433112D01*
X12443999Y11765099D01*
X12443999Y11604879D01*
X12485467Y11450116D01*
X12485468Y11450114D01*
X12485469Y11450112D01*
X12565574Y11311366D01*
X12565576Y11311363D01*
X12565577Y11311362D01*
X12675572Y11201367D01*
X13324595Y10552344D01*
X13358621Y10490032D01*
X13361500Y10463249D01*
X13361500Y7927919D01*
X13341498Y7859798D01*
X13287842Y7813305D01*
X13217568Y7803201D01*
X13182251Y7813724D01*
X13132084Y7837117D01*
X13132073Y7837121D01*
X13042178Y7861209D01*
X12919371Y7894115D01*
X12700000Y7913307D01*
X12480629Y7894115D01*
X12267926Y7837121D01*
X12267920Y7837119D01*
X12068346Y7744056D01*
X11887965Y7617752D01*
X11887959Y7617747D01*
X11732253Y7462041D01*
X11732248Y7462035D01*
X11605944Y7281654D01*
X11544195Y7149232D01*
X11497278Y7095947D01*
X11429000Y7076486D01*
X11361040Y7097028D01*
X11315805Y7149232D01*
X11283774Y7217922D01*
X11254056Y7281653D01*
X11127749Y7462038D01*
X10972038Y7617749D01*
X10791654Y7744056D01*
X10773593Y7752478D01*
X10592079Y7837119D01*
X10592073Y7837121D01*
X10540172Y7851028D01*
X10379371Y7894115D01*
X10379367Y7894116D01*
X10379365Y7894116D01*
X10340654Y7897503D01*
X10274536Y7923366D01*
X10232897Y7980870D01*
X10228957Y8051757D01*
X10248424Y8095294D01*
X10256110Y8106271D01*
X10345023Y8233251D01*
X10441784Y8440757D01*
X10501043Y8661913D01*
X10520998Y8890000D01*
X10501043Y9118087D01*
X10441784Y9339243D01*
X10345023Y9546749D01*
X10213698Y9734300D01*
X10051800Y9896198D01*
X9864249Y10027523D01*
X9825043Y10045805D01*
X9771758Y10092721D01*
X9752296Y10160998D01*
X9772837Y10228958D01*
X9825043Y10274195D01*
X9827497Y10275340D01*
X9864249Y10292477D01*
X10051800Y10423802D01*
X10213698Y10585700D01*
X10345023Y10773251D01*
X10441784Y10980757D01*
X10501043Y11201913D01*
X10520998Y11430000D01*
X10501055Y11657941D01*
X10515044Y11727541D01*
X10537475Y11758007D01*
X11662828Y12883358D01*
X11740365Y12999399D01*
X11793773Y13128339D01*
X11821000Y13265219D01*
X11821000Y13404782D01*
X11821000Y17116839D01*
X11841002Y17184960D01*
X11857900Y17205930D01*
X12371990Y17720021D01*
X12434301Y17754044D01*
X12472063Y17756444D01*
X12700000Y17736502D01*
X12928087Y17756457D01*
X13149243Y17815716D01*
X13356749Y17912477D01*
X13544300Y18043802D01*
X13706198Y18205700D01*
X13837523Y18393251D01*
X13934284Y18600757D01*
X13993543Y18821913D01*
X14013498Y19050000D01*
X13993543Y19278087D01*
X13946704Y19452892D01*
X13948394Y19523865D01*
X13988188Y19582661D01*
X14053452Y19610609D01*
X14068411Y19611500D01*
X15978122Y19611500D01*
X16046243Y19591498D01*
X16081335Y19557771D01*
X16122314Y19499247D01*
X16138802Y19475700D01*
X16300700Y19313802D01*
X16488251Y19182477D01*
X16695757Y19085716D01*
X16916913Y19026457D01*
X17145000Y19006502D01*
X17373087Y19026457D01*
X17594243Y19085716D01*
X17801749Y19182477D01*
X17989300Y19313802D01*
X18151198Y19475700D01*
X18282523Y19663251D01*
X18340757Y19788138D01*
X18387673Y19841421D01*
X18455951Y19860883D01*
X18523911Y19840342D01*
X18544047Y19823982D01*
X18990018Y19378011D01*
X19024044Y19315699D01*
X19026443Y19277937D01*
X19006502Y19050000D01*
X19026457Y18821913D01*
X19039873Y18771845D01*
X19085715Y18600760D01*
X19085717Y18600754D01*
X19118734Y18529949D01*
X19182477Y18393251D01*
X19313802Y18205700D01*
X19475700Y18043802D01*
X19663251Y17912477D01*
X19870757Y17815716D01*
X20091913Y17756457D01*
X20320000Y17736502D01*
X20548087Y17756457D01*
X20769243Y17815716D01*
X20976749Y17912477D01*
X21164300Y18043802D01*
X21326198Y18205700D01*
X21457523Y18393251D01*
X21554284Y18600757D01*
X21613543Y18821913D01*
X21633498Y19050000D01*
X21613543Y19278087D01*
X21554284Y19499243D01*
X21457523Y19706749D01*
X21326198Y19894300D01*
X21164300Y20056198D01*
X20976749Y20187523D01*
X20942675Y20203412D01*
X20769246Y20284283D01*
X20769240Y20284285D01*
X20635950Y20320000D01*
X20548087Y20343543D01*
X20320000Y20363498D01*
X20319999Y20363498D01*
X20277860Y20359812D01*
X20092064Y20343557D01*
X20022461Y20357545D01*
X19991989Y20379982D01*
X18437567Y21934405D01*
X18403541Y21996717D01*
X18408606Y22067533D01*
X18451153Y22124368D01*
X18517673Y22149179D01*
X18526662Y22149500D01*
X20930469Y22149500D01*
X20950044Y22149500D01*
X20959930Y22149112D01*
X21131975Y22135572D01*
X21151503Y22132479D01*
X21163920Y22129498D01*
X21314480Y22093352D01*
X21333282Y22087243D01*
X21380864Y22067533D01*
X21488128Y22023103D01*
X21505744Y22014128D01*
X21635839Y21934405D01*
X21648658Y21926550D01*
X21664653Y21914928D01*
X21792098Y21806080D01*
X21806079Y21792099D01*
X21914927Y21664654D01*
X21926549Y21648659D01*
X22014126Y21505746D01*
X22023102Y21488129D01*
X22087241Y21333284D01*
X22093351Y21314480D01*
X22132478Y21151504D01*
X22135571Y21131976D01*
X22149112Y20959931D01*
X22149500Y20950045D01*
X22149500Y3814956D01*
X22149112Y3805070D01*
X22135571Y3633025D01*
X22132478Y3613497D01*
X22093351Y3450521D01*
X22087241Y3431717D01*
X22023102Y3276872D01*
X22014126Y3259255D01*
X21926549Y3116342D01*
X21914927Y3100347D01*
X21806079Y2972902D01*
X21792098Y2958921D01*
X21664653Y2850073D01*
X21648658Y2838451D01*
X21505745Y2750874D01*
X21488128Y2741898D01*
X21333283Y2677759D01*
X21314479Y2671649D01*
X21151503Y2632522D01*
X21131975Y2629429D01*
X20959930Y2615888D01*
X20950044Y2615500D01*
X3814956Y2615500D01*
X3805070Y2615888D01*
X3633024Y2629429D01*
X3613496Y2632522D01*
X3450520Y2671649D01*
X3431716Y2677759D01*
X3276871Y2741898D01*
X3259254Y2750874D01*
X3116341Y2838451D01*
X3100346Y2850073D01*
X2972901Y2958921D01*
X2958920Y2972902D01*
X2861898Y3086500D01*
X2850070Y3100349D01*
X2838450Y3116342D01*
X2789232Y3196658D01*
X2750872Y3259256D01*
X2741897Y3276872D01*
X2730738Y3303811D01*
X2677757Y3431718D01*
X2671648Y3450521D01*
X2632521Y3613497D01*
X2629428Y3633025D01*
X2615888Y3805070D01*
X2615500Y3814956D01*
X2615500Y19791287D01*
X3729500Y19791287D01*
X3729500Y19578713D01*
X3762754Y19368757D01*
X3828443Y19166588D01*
X3924949Y18977184D01*
X4049896Y18805208D01*
X4049898Y18805206D01*
X4049900Y18805203D01*
X4200202Y18654901D01*
X4200205Y18654899D01*
X4200208Y18654896D01*
X4372184Y18529949D01*
X4561588Y18433443D01*
X4763757Y18367754D01*
X4973713Y18334500D01*
X4973716Y18334500D01*
X5186284Y18334500D01*
X5186287Y18334500D01*
X5396243Y18367754D01*
X5598412Y18433443D01*
X5787816Y18529949D01*
X5959792Y18654896D01*
X6110104Y18805208D01*
X6235051Y18977184D01*
X6331557Y19166588D01*
X6397246Y19368757D01*
X6430500Y19578713D01*
X6430500Y19791287D01*
X6397246Y20001243D01*
X6331557Y20203412D01*
X6235051Y20392816D01*
X6110104Y20564792D01*
X6110101Y20564795D01*
X6110099Y20564798D01*
X5959797Y20715100D01*
X5959794Y20715102D01*
X5959792Y20715104D01*
X5802889Y20829100D01*
X5787819Y20840049D01*
X5787818Y20840050D01*
X5787816Y20840051D01*
X5598412Y20936557D01*
X5396243Y21002246D01*
X5186287Y21035500D01*
X4973713Y21035500D01*
X4763757Y21002246D01*
X4763754Y21002246D01*
X4763753Y21002245D01*
X4561588Y20936557D01*
X4561586Y20936556D01*
X4372180Y20840049D01*
X4200205Y20715102D01*
X4200202Y20715100D01*
X4049900Y20564798D01*
X4049898Y20564795D01*
X3924951Y20392820D01*
X3924949Y20392816D01*
X3828443Y20203412D01*
X3762754Y20001243D01*
X3729500Y19791287D01*
X2615500Y19791287D01*
X2615500Y20950045D01*
X2615888Y20959931D01*
X2629428Y21131976D01*
X2632521Y21151504D01*
X2663284Y21279642D01*
X2671649Y21314485D01*
X2677758Y21333284D01*
X2741899Y21488135D01*
X2750869Y21505741D01*
X2838455Y21648667D01*
X2850066Y21664646D01*
X2958928Y21792108D01*
X2972892Y21806072D01*
X3100354Y21914934D01*
X3116333Y21926545D01*
X3259259Y22014131D01*
X3276865Y22023101D01*
X3431721Y22087244D01*
X3450515Y22093351D01*
X3613497Y22132480D01*
X3633023Y22135572D01*
X3805070Y22149112D01*
X3814956Y22149500D01*
X3834531Y22149500D01*
X8143340Y22149500D01*
X8211461Y22129498D01*
G37*
%TD.AperFunction*%
%TA.AperFunction,Conductor*%
G36*
X11498959Y6202974D02*
G01*
X11544195Y6150768D01*
X11605944Y6018346D01*
X11674112Y5920993D01*
X11696800Y5853719D01*
X11684000Y5802726D01*
X11684000Y4875703D01*
X11622993Y4910925D01*
X11495826Y4945000D01*
X11364174Y4945000D01*
X11237007Y4910925D01*
X11176000Y4875703D01*
X11176000Y5800647D01*
X11168611Y5811864D01*
X11167812Y5882857D01*
X11185884Y5920988D01*
X11254056Y6018346D01*
X11315805Y6150768D01*
X11362722Y6204054D01*
X11430999Y6223515D01*
X11498959Y6202974D01*
G37*
%TD.AperFunction*%
%TA.AperFunction,Conductor*%
G36*
X15494000Y5396310D02*
G01*
X15473998Y5328189D01*
X15460702Y5310973D01*
X15434280Y5282271D01*
X15434279Y5282271D01*
X15345483Y5146357D01*
X15291479Y5100269D01*
X15221131Y5090694D01*
X15156774Y5120671D01*
X15134517Y5146357D01*
X15045720Y5282271D01*
X15019298Y5310973D01*
X14987878Y5374638D01*
X14986000Y5396310D01*
X14986000Y6338314D01*
X14994394Y6329920D01*
X15085606Y6277259D01*
X15187339Y6250000D01*
X15292661Y6250000D01*
X15394394Y6277259D01*
X15485606Y6329920D01*
X15494000Y6338314D01*
X15494000Y5396310D01*
G37*
%TD.AperFunction*%
%TA.AperFunction,Conductor*%
G36*
X15658723Y13341498D02*
G01*
X15693815Y13307770D01*
X15821295Y13125709D01*
X15821299Y13125704D01*
X15821302Y13125700D01*
X15983200Y12963802D01*
X16170751Y12832477D01*
X16378257Y12735716D01*
X16599413Y12676457D01*
X16827500Y12656502D01*
X17055587Y12676457D01*
X17160393Y12704540D01*
X17231366Y12702850D01*
X17290162Y12663056D01*
X17318110Y12597792D01*
X17319001Y12582833D01*
X17319001Y10277168D01*
X17298999Y10209047D01*
X17245343Y10162554D01*
X17175069Y10152450D01*
X17160390Y10155461D01*
X17133918Y10162554D01*
X17055587Y10183543D01*
X16827500Y10203498D01*
X16599413Y10183543D01*
X16378259Y10124285D01*
X16378253Y10124283D01*
X16170750Y10027523D01*
X15983203Y9896201D01*
X15983197Y9896196D01*
X15821304Y9734303D01*
X15821299Y9734297D01*
X15689977Y9546750D01*
X15593217Y9339247D01*
X15593215Y9339241D01*
X15533957Y9118087D01*
X15514002Y8890000D01*
X15533957Y8661914D01*
X15593215Y8440760D01*
X15593217Y8440754D01*
X15689977Y8233251D01*
X15778889Y8106271D01*
X15801577Y8038997D01*
X15784292Y7970136D01*
X15732522Y7921552D01*
X15675676Y7908000D01*
X15494000Y7908000D01*
X15494000Y6961686D01*
X15485606Y6970080D01*
X15394394Y7022741D01*
X15292661Y7050000D01*
X15187339Y7050000D01*
X15085606Y7022741D01*
X14994394Y6970080D01*
X14986000Y6961686D01*
X14986000Y7908000D01*
X14704500Y7908000D01*
X14636379Y7928002D01*
X14589886Y7981658D01*
X14578500Y8034000D01*
X14578500Y10847598D01*
X14578500Y10847599D01*
X14543464Y10978357D01*
X14543464Y10978358D01*
X14543464Y10978359D01*
X14537032Y11002360D01*
X14537032Y11002361D01*
X14456922Y11141115D01*
X14456920Y11141117D01*
X14456916Y11141122D01*
X13697904Y11900134D01*
X13663878Y11962446D01*
X13660999Y11989229D01*
X13660999Y12048762D01*
X13681001Y12116883D01*
X13697904Y12137857D01*
X14884642Y13324595D01*
X14946954Y13358621D01*
X14973737Y13361500D01*
X15590602Y13361500D01*
X15658723Y13341498D01*
G37*
%TD.AperFunction*%
%TD*%
M02*
